<?xml version="1.0" encoding="UTF-8" standalone="no"?>
<!-- Generator: Adobe Illustrator 19.1.0, SVG Export Plug-In . SVG Version: 6.00 Build 0)  -->

<svg
   xmlns:dc="http://purl.org/dc/elements/1.1/"
   xmlns:cc="http://creativecommons.org/ns#"
   xmlns:rdf="http://www.w3.org/1999/02/22-rdf-syntax-ns#"
   xmlns:svg="http://www.w3.org/2000/svg"
   xmlns="http://www.w3.org/2000/svg"
   xmlns:xlink="http://www.w3.org/1999/xlink"
   xmlns:sodipodi="http://sodipodi.sourceforge.net/DTD/sodipodi-0.dtd"
   xmlns:inkscape="http://www.inkscape.org/namespaces/inkscape"
   version="1.1"
   id="Calque_1"
   x="0px"
   y="0px"
   viewBox="-395 225.7 168 88.7"
   xml:space="preserve"
   inkscape:version="0.48.4 r9939"
   width="100%"
   height="100%"
   sodipodi:docname="logo-sncf-color.svg"><metadata
   id="metadata26"><rdf:RDF><cc:Work
       rdf:about=""><dc:format>image/svg+xml</dc:format><dc:type
         rdf:resource="http://purl.org/dc/dcmitype/StillImage" /><dc:title></dc:title></cc:Work></rdf:RDF></metadata><defs
   id="defs24"><linearGradient
     gradientTransform="matrix(0.15584532,0,0,0.15584569,-397.41336,224.00034)"
     gradientUnits="userSpaceOnUse"
     y2="298.27673"
     x2="1089.2607"
     y1="298.27673"
     x1="20.664867"
     id="linearGradient9768"
     xlink:href="#linearGradient9762"
     inkscape:collect="always" /><linearGradient
     id="linearGradient9762"><stop
       id="stop9764"
       offset="0"
       style="stop-color:#832c71;stop-opacity:1;" /><stop
       id="stop9766"
       offset="1"
       style="stop-color:#e41f25;stop-opacity:1;" /></linearGradient></defs><sodipodi:namedview
   pagecolor="#ffffff"
   bordercolor="#666666"
   borderopacity="1"
   objecttolerance="10"
   gridtolerance="10"
   guidetolerance="10"
   inkscape:pageopacity="0"
   inkscape:pageshadow="2"
   inkscape:window-width="1600"
   inkscape:window-height="837"
   id="namedview22"
   showgrid="false"
   inkscape:zoom="4.1785714"
   inkscape:cx="62.511755"
   inkscape:cy="35.796908"
   inkscape:window-x="-8"
   inkscape:window-y="-8"
   inkscape:window-maximized="1"
   inkscape:current-layer="Calque_1" />
<style
   type="text/css"
   id="style3">
	.st0{display:none;}
	.st1{display:inline;}
	.st2{fill:#FFFFFF;}
	.st3{display:inline;fill:#FFFFFF;}
</style>
<g
   id="Calque_2"
   class="st0"
   style="display:none"
   transform="translate(0,-22)">
	<g
   class="st1"
   id="g6"
   style="display:inline">
		<path
   class="st2"
   d="M -310.6,336.1"
   id="path8"
   inkscape:connector-curvature="0"
   style="fill:#ffffff" />
		<g
   id="g10">
			<path
   class="st2"
   d="m -272.5,275 c -3.8,0 -6.5,3 -6.5,6.7 0,3.7 2.7,6.8 6.6,6.8 3.8,0 6.5,-3 6.5,-6.7 0,-3.7 -2.7,-6.8 -6.6,-6.8 z"
   id="path12"
   inkscape:connector-curvature="0"
   style="fill:#ffffff" />
			<path
   class="st2"
   d="m -311,225.7 c -30.5,0 -55.3,24.8 -55.3,55.3 0,30.5 24.7,55.3 55.3,55.3 30.5,0 55.3,-24.7 55.3,-55.3 0,-30.5 -24.8,-55.3 -55.3,-55.3 z m -38.6,67.2 c -6.7,0 -11.4,-4.9 -11.4,-11.1 0,-6.1 4.8,-11.1 11.5,-11.1 6.7,0 11.4,4.9 11.4,11.1 0,6 -4.8,11.1 -11.5,11.1 z m 32.3,-9.7 c 0,6.6 -3.7,9.7 -9.5,9.7 -5.8,0 -9.4,-3.2 -9.4,-9.6 v -10.1 c 0,-1.3 1,-2.4 2.4,-2.4 1.3,0 2.4,1 2.4,2.4 v 10 c 0,3.5 1.8,5.3 4.7,5.3 2.9,0 4.7,-1.8 4.7,-5.2 v -10.1 c 0,-1.3 1,-2.4 2.4,-2.4 1.4,0 2.4,1 2.4,2.4 v 10 h -0.1 z m 7.9,7.2 c 0,1.3 -1,2.4 -2.4,2.4 -1.3,0 -2.4,-1 -2.4,-2.4 v -17.2 c 0,-1.3 1,-2.4 2.4,-2.4 1.3,0 2.4,1 2.4,2.4 v 17.2 z m -2.4,-22.4 c -1.6,0 -2.9,-1.3 -2.9,-2.9 0,-1.6 1.3,-2.9 2.9,-2.9 1.6,0 2.9,1.3 2.9,2.9 0,1.6 -1.2,2.9 -2.9,2.9 z m 26.5,19.5 c 0,1.4 -0.3,2 -1.3,2.8 -2,1.6 -4.8,2.7 -8.2,2.7 -6.7,0 -11.5,-4.8 -11.5,-11.1 0,-6.1 4.9,-11.1 11.5,-11.1 3.3,0 5.4,0.8 7.3,2.2 0.5,0.4 1,1 1,1.9 0,1.3 -1,2.3 -2.4,2.3 -0.6,0 -1.1,-0.3 -1.4,-0.5 -1.3,-0.9 -2.7,-1.5 -4.7,-1.5 -3.4,0 -6.3,3 -6.3,6.7 0,3.9 2.9,6.8 6.7,6.8 2.2,0 3.8,-0.4 4.8,-1.4 v -2.9 h -3.4 c -1.1,0 -2,-0.9 -2,-2 0,-1.1 0.9,-2 2,-2 h 5.6 c 1.3,0 2.4,1 2.4,2.4 v 4.9 h -0.1 z m 12.8,5.4 c -6.7,0 -11.4,-4.9 -11.4,-11.1 0,-6.1 4.8,-11.1 11.5,-11.1 6.7,0 11.4,4.9 11.4,11.1 0,6 -4.8,11.1 -11.5,11.1 z"
   id="path14"
   inkscape:connector-curvature="0"
   style="fill:#ffffff" />
			<path
   class="st2"
   d="m -349.6,275 c -3.8,0 -6.5,3 -6.5,6.7 0,3.7 2.7,6.8 6.6,6.8 3.8,0 6.5,-3 6.5,-6.7 0,-3.7 -2.8,-6.8 -6.6,-6.8 z"
   id="path16"
   inkscape:connector-curvature="0"
   style="fill:#ffffff" />
		</g>
	</g>
</g>
<g
   id="Calque_1_1_"
   class="st0"
   style="display:none"
   transform="translate(0,-22)">
	<path
   id="path9752"
   class="st3"
   d="m -786.1,560.2 c -0.2,-0.2 -0.5,-0.5 -0.7,-0.8 l -0.4,-0.4 v -40.7 c 0,-38.4 0,-40.8 0.3,-41.3 0.6,-1.2 0.7,-1.2 5.3,-1.4 11.4,-0.4 24.6,0 38,1 37.4,2.8 70.8,10.3 96.7,21.7 8.3,3.7 20.7,10.5 22.1,12.1 0.8,1 1.1,-0.2 -6.7,24.4 -6.7,20.9 -7.9,24.7 -8.3,25.1 -0.2,0.3 -0.6,0.4 -1.3,0.5 -0.5,0.1 -33.3,0.1 -72.9,0.1 -67.6,0 -71.8,0 -72.1,-0.3 l 0,0 z m 26.3,-10.8 c 4.6,-0.3 7.7,-1.1 10.5,-2.5 3.1,-1.5 5.2,-3.6 6.4,-6.4 0.5,-1.1 0.5,-1.4 0.6,-2.9 0,-1.5 0,-1.7 -0.5,-2.7 -0.7,-1.4 -2.4,-3.2 -4.4,-4.5 -0.8,-0.5 -4.2,-2.4 -7.5,-4 -4.8,-2.4 -6.2,-3.2 -6.9,-3.9 -0.8,-0.8 -0.9,-0.9 -0.9,-1.6 0,-1.3 0.9,-2.3 3,-3.3 1.3,-0.6 3,-1 5.4,-1.2 2,-0.2 2.9,-0.1 6.3,0.3 2,0.2 2.3,0.2 2.4,0 0.3,-0.4 1.5,-4.4 1.6,-5 0,-0.6 -0.1,-0.7 -3.3,-1.1 -3.2,-0.4 -9.3,-0.3 -12,0.2 -6.5,1.2 -10.7,3.6 -12.3,7 -1.5,3.2 -1,5.8 1.7,8.5 1.6,1.6 2.9,2.4 7.3,4.7 7.4,3.9 8.6,4.6 9.6,6.2 0.5,0.9 0.6,1.3 0.2,2.2 -0.8,1.9 -2.9,2.9 -6.7,3.3 -5.5,0.5 -10.1,-0.3 -17.9,-3.3 -0.2,-0.1 -0.4,0.2 -1,1.4 -1.1,2.3 -2,4.5 -1.8,4.6 0.2,0.2 3.5,1.4 5.5,2 2.8,0.8 6.2,1.4 9.5,1.8 1.1,0.3 2.9,0.3 5.2,0.2 l 0,0 0,0 z m 82.1,-0.5 c 1.2,-0.2 2.9,-0.5 3.8,-0.7 1.6,-0.4 5.1,-1.4 5.4,-1.6 0.1,-0.1 1.2,-3.3 2.4,-7.1 1.2,-3.8 2.3,-7.1 2.3,-7.1 0.1,-0.1 4,-0.1 8.8,-0.2 l 8.7,-0.1 0.8,-2.5 c 0.4,-1.4 0.8,-2.6 0.8,-2.8 0,-0.5 -0.6,-0.6 -9.3,-0.6 -4.3,0 -7.8,0 -7.8,-0.1 0,-0.1 2.7,-8.6 2.8,-8.7 0,0 4.7,-0.1 10.5,-0.2 l 10.4,-0.1 0.8,-2.6 c 0.4,-1.4 0.8,-2.8 0.8,-3 0,-0.4 0,-0.4 -1.4,-0.5 -1.8,-0.1 -19.7,-0.1 -24.3,0 l -3.6,0.1 -1.8,5.4 c -1,2.9 -2.7,8.4 -3.9,12.1 -1.2,3.7 -2.6,8.2 -3.2,10.1 l -1.1,3.4 -0.9,0.2 c -3.8,0.8 -9.7,0.6 -13.1,-0.2 -4.2,-1.1 -7,-3.4 -8.1,-6.9 -0.6,-1.9 -0.6,-5 0,-7.1 1.4,-4.4 5.4,-8 10.5,-9.6 3,-0.9 3.8,-1 9.6,-1 h 5.4 l 1,-3 c 0.5,-1.7 0.9,-3.1 0.8,-3.2 -0.6,-0.6 -10.4,-0.8 -13.9,-0.3 -6.4,0.9 -11.6,3.3 -15.8,7.1 -0.8,0.7 -1.5,1.3 -1.5,1.3 0,0 0.4,-1.6 1,-3.4 1.3,-4.4 1.3,-4.6 0.8,-4.7 -0.5,-0.1 -5.8,-0.1 -6.7,0 l -0.7,0.1 -0.7,2.1 c -0.4,1.2 -2.3,6.8 -4.1,12.6 -1.9,5.8 -3.4,10.5 -3.4,10.5 0,0 -0.6,-1.2 -1.2,-2.7 -2.2,-5.2 -4.7,-10 -7.8,-14.7 -1.5,-2.3 -4.3,-6.3 -5.2,-7.3 l -0.7,-0.9 -3.2,-0.1 c -1.8,-0.1 -3.6,0 -4.2,0 l -0.9,0.1 -1.6,5 c -0.9,2.7 -2.3,6.9 -3,9.4 -0.8,2.4 -1.4,4.5 -1.4,4.6 0,0.1 0.6,0.8 1.3,1.6 1.6,1.6 2.3,2.5 3,4.1 0.4,0.9 0.6,1.1 0.9,1 0.3,0 0.7,-0.9 3,-8 1.4,-4.4 2.7,-8 2.7,-8 0.1,-0.1 0.6,0.7 1.3,1.7 4.5,6.9 8.3,14.8 11.1,23.1 l 1.1,3.2 h 4.5 4.5 l 2.1,-6.4 c 1.1,-3.5 2.1,-6.6 2.2,-6.8 0.1,-0.3 0.2,-0.2 0.6,1.1 1.6,5.2 5.3,8.8 11.2,11 1.5,0.6 4.5,1.3 6.1,1.5 2.2,0.3 9.1,0.2 11.5,-0.2 l 0,0 0,0 z"
   inkscape:connector-curvature="0"
   style="fill:#ffffff;display:inline" />
</g>

<path
   inkscape:connector-curvature="0"
   id="path9752-1"
   d="m -393.05814,313.68128 c -0.19146,-0.16364 -0.52289,-0.5225 -0.73653,-0.79748 l -0.38846,-0.49997 0,-41.61322 c 0,-39.27511 0.0173,-41.6466 0.30328,-42.20746 0.62526,-1.2262 0.76331,-1.26203 5.44826,-1.41398 11.6282,-0.37713 25.18627,-0.0377 38.8742,0.97335 38.25617,2.82566 72.41611,10.49345 98.87043,22.19319 8.46243,3.74261 21.20896,10.73536 22.61538,12.40679 0.82711,0.98297 1.14342,-0.16409 -6.87308,24.92542 -6.82403,21.35743 -8.1055,25.25011 -8.4539,25.68038 -0.2217,0.27379 -0.58856,0.41347 -1.32777,0.50555 -0.5618,0.07 -34.08801,0.13121 -74.50271,0.13609 -69.19645,0.008 -73.50155,-0.008 -73.82936,-0.28866 z m 26.86375,-11.13646 c 4.67891,-0.34567 7.8229,-1.07971 10.74491,-2.50865 3.19114,-1.56056 5.32413,-3.67993 6.53759,-6.49587 0.49935,-1.15876 0.56055,-1.47869 0.56402,-2.94881 0.003,-1.51071 -0.0428,-1.74413 -0.55373,-2.78273 -0.7138,-1.45124 -2.4881,-3.26714 -4.5038,-4.60938 -0.8383,-0.55822 -4.28535,-2.41774 -7.66014,-4.13225 -4.90357,-2.49121 -6.32441,-3.29135 -7.07432,-3.98384 -0.84312,-0.77856 -0.9392,-0.94028 -0.94651,-1.59311 -0.0148,-1.32775 0.93027,-2.37243 3.03924,-3.35933 1.34197,-0.62799 3.05561,-0.99991 5.57181,-1.20928 2.06595,-0.17191 2.94535,-0.12992 6.46793,0.30891 2.00663,0.24998 2.32985,0.25486 2.47093,0.0373 0.25882,-0.399 1.55022,-4.51394 1.59346,-5.07745 0.0488,-0.63557 -0.11193,-0.68763 -3.33078,-1.07897 -3.25439,-0.39567 -9.48798,-0.26766 -12.2388,0.25131 -6.63534,1.25183 -10.91647,3.67978 -12.6262,7.16067 -1.58317,3.22318 -1.04252,5.9767 1.7125,8.72165 1.61386,1.60795 2.95303,2.47245 7.48411,4.83128 7.57462,3.94327 8.77191,4.71723 9.79643,6.3327 0.55876,0.8811 0.60187,1.31472 0.22138,2.22698 -0.80101,1.92047 -2.98606,2.99522 -6.79915,3.34425 -5.67089,0.51909 -10.31525,-0.34492 -18.27688,-3.40008 -0.22468,-0.0862 -0.45393,0.22504 -1.07159,1.45486 -1.15897,2.30765 -2.05346,4.55262 -1.88222,4.72387 0.23904,0.23904 3.6275,1.47465 5.60296,2.04313 2.83118,0.81474 6.36006,1.47232 9.69774,1.80713 1.29065,0.12946 3.12911,0.10779 5.45911,-0.0643 l 0,0 z m 83.96622,-0.49278 c 1.19148,-0.19029 2.94618,-0.51374 3.89936,-0.71877 1.67764,-0.36088 5.17361,-1.41879 5.56428,-1.6838 0.1055,-0.0716 1.21112,-3.35441 2.45693,-7.2952 1.24581,-3.94078 2.31626,-7.21626 2.37877,-7.27882 0.0625,-0.0625 4.11256,-0.14035 9.00012,-0.17285 l 8.88647,-0.0591 0.80426,-2.54501 c 0.44234,-1.39975 0.80425,-2.70783 0.80425,-2.90686 0,-0.54227 -0.65674,-0.58228 -9.55594,-0.58228 -4.37132,0 -7.94785,-0.048 -7.94785,-0.10662 0,-0.11917 2.77854,-8.79536 2.83467,-8.85151 0.0196,-0.0196 4.83953,-0.091 10.7109,-0.15865 l 10.67521,-0.12298 0.80082,-2.62626 c 0.44045,-1.44444 0.80083,-2.82438 0.80083,-3.06651 0,-0.42691 -0.0434,-0.44364 -1.42976,-0.55156 -1.87468,-0.14594 -20.18388,-0.14557 -24.87415,4.6e-4 l -3.65687,0.11389 -1.81961,5.4752 c -1.00078,3.01136 -2.80436,8.55571 -4.00795,12.32076 -1.20359,3.76506 -2.69232,8.41974 -3.30831,10.34373 l -1.11999,3.49818 -0.90489,0.18066 c -3.85536,0.76972 -9.90369,0.65729 -13.37219,-0.24858 -4.32668,-1.13 -7.13157,-3.51731 -8.33117,-7.09089 -0.66295,-1.9749 -0.64566,-5.08575 0.0405,-7.28967 1.38713,-4.45526 5.47668,-8.22216 10.70626,-9.86156 3.09504,-0.97024 3.90352,-1.05695 9.81749,-1.05296 l 5.48488,0.003 0.98756,-3.09772 c 0.54315,-1.70375 0.92149,-3.16363 0.84075,-3.24419 -0.59151,-0.5902 -10.67282,-0.78512 -14.16612,-0.27391 -6.56307,0.96045 -11.84854,3.32488 -16.18555,7.24054 -0.82143,0.74162 -1.51667,1.32523 -1.54501,1.29691 -0.0283,-0.0283 0.40987,-1.60477 0.97375,-3.5032 1.34429,-4.52586 1.37036,-4.67305 0.85248,-4.81171 -0.54545,-0.14605 -5.94734,-0.12393 -6.81699,0.0279 l -0.69323,0.12104 -0.74577,2.16526 c -0.41016,1.1909 -2.30091,6.99354 -4.20164,12.89476 -1.90071,5.90122 -3.47896,10.75258 -3.5072,10.78082 -0.0283,0.0282 -0.5898,-1.21262 -1.24794,-2.75744 -2.24337,-5.26583 -4.8543,-10.2079 -7.9388,-15.0268 -1.49704,-2.33885 -4.41316,-6.43321 -5.35114,-7.51326 l -0.57986,-0.66771 -3.29822,-0.0934 c -1.81402,-0.0513 -3.7262,-0.0399 -4.24926,0.0255 l -0.95106,0.11883 -1.67926,5.06153 c -0.9236,2.78384 -2.30922,7.0892 -3.07916,9.56746 -0.76995,2.47827 -1.43476,4.60812 -1.47738,4.73302 -0.0426,0.12489 0.57103,0.86578 1.36363,1.6464 1.62707,1.60248 2.34516,2.58356 3.08453,4.21421 0.42866,0.94538 0.57261,1.11803 0.89408,1.07231 0.34279,-0.0488 0.66609,-0.90682 3.06937,-8.14655 1.47742,-4.45065 2.73117,-8.13501 2.78612,-8.18748 0.055,-0.0524 0.6489,0.74242 1.31991,1.76643 4.64772,7.09279 8.49731,15.14298 11.3131,23.65777 l 1.0755,3.25228 4.60459,-0.0462 4.60459,-0.0462 2.11243,-6.54214 c 1.16183,-3.59818 2.18859,-6.71284 2.28167,-6.92147 0.14594,-0.32705 0.23414,-0.17127 0.6399,1.1301 1.64928,5.28986 5.4237,8.99886 11.46192,11.26327 1.56478,0.58681 4.56535,1.30383 6.27965,1.50058 2.30036,0.26403 9.35977,0.0708 11.83072,-0.32391 l 0,0 z"
   style="fill:url(#linearGradient9768);fill-opacity:1;stroke:#000000;stroke-width:0.01733051;stroke-miterlimit:4;stroke-opacity:1;stroke-dasharray:none" /></svg>