<?xml version="1.0" encoding="UTF-8" standalone="no"?>
<svg
   xmlns:dc="http://purl.org/dc/elements/1.1/"
   xmlns:cc="http://creativecommons.org/ns#"
   xmlns:rdf="http://www.w3.org/1999/02/22-rdf-syntax-ns#"
   xmlns:svg="http://www.w3.org/2000/svg"
   xmlns="http://www.w3.org/2000/svg"
   xmlns:sodipodi="http://sodipodi.sourceforge.net/DTD/sodipodi-0.dtd"
   xmlns:inkscape="http://www.inkscape.org/namespaces/inkscape"
   version="1.1"
   id="Calque_1"
   x="0px"
   y="0px"
   width="345"
   height="170"
   viewBox="0 0 345 170"
   enable-background="new 0 0 354.823 171.606"
   xml:space="preserve"
   sodipodi:docname="Logo_RER_B.svg"
   inkscape:version="1.0beta1 (76ce730, 2019-10-19)"><metadata
   id="metadata843"><rdf:RDF><cc:Work
       rdf:about=""><dc:format>image/svg+xml</dc:format><dc:type
         rdf:resource="http://purl.org/dc/dcmitype/StillImage" /><dc:title></dc:title></cc:Work></rdf:RDF></metadata><defs
   id="defs841" /><sodipodi:namedview
   pagecolor="#ffffff"
   bordercolor="#666666"
   inkscape:document-rotation="0"
   borderopacity="1"
   objecttolerance="10"
   gridtolerance="10"
   guidetolerance="10"
   inkscape:pageopacity="0"
   inkscape:pageshadow="2"
   inkscape:window-width="1440"
   inkscape:window-height="788"
   id="namedview839"
   showgrid="false"
   inkscape:zoom="0.35"
   inkscape:cx="400"
   inkscape:cy="560"
   inkscape:window-x="0"
   inkscape:window-y="23"
   inkscape:window-maximized="0"
   inkscape:current-layer="Calque_1" />
<path
   id="path5127"
   fill="#164B9C"
   d="M 170,85.422393 C 170,38.24951 130.47407,2.086237e-8 85.22052,2.086237e-8 38.255106,-0.00103148 0,38.248479 0,85.422393 0,131.9506 38.255106,170 85.22052,170 132.18199,170 170,132.3766 170,85.422393 m -11.68215,0 c 0,39.951457 -32.94387,72.882637 -73.09733,72.882637 -40.376443,0 -73.53146,-32.72488 -73.53146,-72.882637 0,-40.578602 33.156004,-73.948159 73.53146,-73.948159 40.15346,0 73.09733,33.575854 73.09733,73.948159 z M 145.99041,71.820206 c 0,-11.470108 -8.49719,-16.788442 -16.79408,-16.788442 h -15.93075 c -2.97184,0 -4.67977,2.345596 -4.67977,4.893362 v 49.932104 c 0,2.98409 2.98369,4.47355 5.74439,4.47355 3.17904,0 5.73254,-1.48946 5.73254,-4.47355 V 90.522053 h 4.88598 l 9.57266,21.473447 c 0.83965,1.6906 2.32854,2.33425 4.03547,2.33425 3.40302,0 8.28506,-3.18626 6.37585,-7.02029 l -9.14049,-19.121657 c 5.51942,-2.76541 10.1982,-7.652584 10.1982,-16.367597 z m -43.13615,36.984914 c 0,-2.55809 -1.70102,-5.31318 -4.673851,-5.31318 H 82.024702 V 88.821135 h 13.395996 c 2.971845,0 4.662992,-2.548799 4.662992,-4.882017 0,-2.547767 -1.691147,-4.892331 -4.662992,-4.892331 H 82.024702 V 65.656055 h 14.884879 c 2.971845,0 4.673849,-2.971707 4.673849,-5.305957 0,-2.546735 -1.702004,-5.318334 -4.673849,-5.318334 H 75.229516 c -2.972831,0 -4.668914,2.345596 -4.668914,4.893362 v 49.725804 c 0,2.97893 2.972832,4.46014 5.738463,4.46014 h 21.881344 c 2.972831,-0.001 4.673851,-2.96758 4.673851,-5.30595 z M 63.747657,71.820206 c 0,-11.470108 -8.497188,-16.788442 -16.781256,-16.788442 H 31.034667 c -2.977765,0 -4.673848,2.345596 -4.673848,4.893362 v 49.932104 c 0,2.98409 2.971845,4.47355 5.732543,4.47355 3.195819,0 5.732543,-1.48946 5.732543,-4.47355 V 90.522053 h 4.896835 l 9.561804,21.473447 c 0.850508,1.6906 2.33939,2.33425 4.029553,2.33425 3.404006,0 8.290974,-3.18626 6.375851,-7.02029 L 53.560306,88.187803 c 5.524356,-2.76541 10.187351,-7.652584 10.187351,-16.367597 z m 70.348463,1.282135 c 0,7.226581 -6.58897,8.922342 -10.62543,8.922342 h -3.40894 V 64.810237 h 4.0414 c 5.31814,0 9.99297,2.34147 9.99297,8.292104 z m -82.237817,0 c 0,7.226581 -6.594892,8.922342 -10.624445,8.922342 H 37.824919 V 64.810237 h 4.041393 c 5.318143,0 9.991991,2.34147 9.991991,8.292104 z"
   inkscape:connector-curvature="0"
   style="stroke-width:1.00883" />
<g
   id="g7173"
   transform="matrix(0.54754635,0,0,0.57281102,374.33096,313.27607)">
	<path
   id="path7161"
   fill="#4F90CD"
   d="m -364.044,-398.543 c 0,-81.973 69.489,-148.367 155.253,-148.367 85.735,0 155.223,66.394 155.223,148.367 0,81.965 -69.488,148.415 -155.234,148.415 -85.753,-0.001 -155.242,-66.451 -155.242,-148.415"
   inkscape:connector-curvature="0" />
	<path
   id="path7163"
   fill="#FFFFFF"
   d="m -342.183,-398.543 c 0,-70.486 59.723,-127.597 133.393,-127.597 73.666,0 133.371,57.121 133.371,127.597 0,70.487 -59.713,127.672 -133.371,127.672 -73.657,-0.001 -133.393,-57.185 -133.393,-127.672"
   inkscape:connector-curvature="0" />
	<path
   id="path7165"
   fill="#4F90CD"
   d="m -145.133,-372.284 c 0,-20.103 -12.773,-31.751 -28.571,-33.806 v -0.384 c 11.618,-2.027 23.685,-13.093 23.685,-27.763 0,-30.766 -29.505,-35.993 -53.672,-35.993 h -55.524 v 141.982 h 53.192 c 28.139,10e-4 60.89,-8.256 60.89,-44.036 m -36.019,-57.73 c 0,16.313 -17.433,16.087 -28.571,16.087 h -16.504 v -32.568 h 16.023 c 10.686,0 29.052,-0.413 29.052,16.481 z m 3.023,56.905 c 0,18.519 -13.481,21.336 -28.808,21.336 h -19.28 v -39.618 h 17.426 c 10.921,-10e-4 30.662,0.609 30.662,18.282 z"
   inkscape:connector-curvature="0" />
</g>
</svg>
