<svg width="360" height="360" viewBox="0 0 360 360" fill="none" xmlns="http://www.w3.org/2000/svg">
<circle cx="180" cy="180" r="180" fill="#4E4B4D"/>
<circle cx="180" cy="180" r="164" fill="#262A31"/>
<circle cx="180" cy="174" r="96" fill="#393A3F"/>
<g clip-path="url(#clip0_302_80)">
<path d="M159.775 216.054C159.308 216.075 159.004 216.301 159.004 216.783V238.294C159.004 238.669 159.261 239.008 159.657 239.008H196.412C196.742 239.008 197.006 238.977 197.161 238.521C197.161 238.521 200.886 226.341 200.951 226.121C201.089 225.661 200.999 225.427 200.624 225.177C188.653 217.162 170.748 216 162.627 216C161.461 216 160.498 216.024 159.778 216.054" fill="#716E6F"/>
</g>
<rect x="177" y="16" width="5" height="44" fill="#E2D752"/>
<rect x="95" y="37.7178" width="5" height="44" transform="rotate(-32.9276 95 37.7178)" fill="#E2D752"/>
<rect x="284" y="243.307" width="5" height="44" transform="rotate(-59.472 284 243.307)" fill="#E2D752"/>
<rect x="38" y="98.2571" width="5" height="44" transform="rotate(-58.3662 38 98.2571)" fill="#E2D752"/>
<rect x="237" y="285.652" width="5" height="44" transform="rotate(-32.0287 237 285.652)" fill="#E2D752"/>
<rect x="116.671" y="282" width="5" height="44" transform="rotate(29.5072 116.671 282)" fill="#E2D752"/>
<rect x="72.4199" y="238" width="5" height="44" transform="rotate(58.261 72.4199 238)" fill="#E2D752"/>
<rect x="259.956" y="35" width="5" height="44" transform="rotate(31.4487 259.956 35)" fill="#E2D752"/>
<rect x="319.445" y="94" width="5" height="44" transform="rotate(58.3241 319.445 94)" fill="#E2D752"/>
<rect x="329.484" y="117" width="1.97554" height="23.8583" transform="rotate(70.4633 329.484 117)" fill="#E2D752"/>
<rect x="337.259" y="137" width="1.97554" height="23.8583" transform="rotate(77.1294 337.259 137)" fill="#E2D752"/>
<rect x="339.767" y="158" width="1.97554" height="23.8583" transform="rotate(84.9766 339.767 158)" fill="#E2D752"/>
<rect x="339.939" y="199.16" width="1.97554" height="23.8583" transform="rotate(95.1942 339.939 199.16)" fill="#E2D752"/>
<rect x="336.705" y="220.42" width="1.97554" height="23.8583" transform="rotate(106.088 336.705 220.42)" fill="#E2D752"/>
<rect x="329.498" y="240.977" width="1.97554" height="23.8583" transform="rotate(114.719 329.498 240.977)" fill="#E2D752"/>
<rect x="308.655" y="277.191" width="1.97554" height="23.8583" transform="rotate(129.548 308.655 277.191)" fill="#E2D752"/>
<rect x="294.974" y="293.184" width="1.97554" height="23.8583" transform="rotate(136.076 294.974 293.184)" fill="#E2D752"/>
<rect x="278.945" y="307.046" width="1.97554" height="23.8583" transform="rotate(142.97 278.945 307.046)" fill="#E2D752"/>
<rect x="242.42" y="328.634" width="1.97554" height="23.8583" transform="rotate(161.562 242.42 328.634)" fill="#E2D752"/>
<rect x="221.883" y="336.171" width="1.97554" height="23.8583" transform="rotate(169.362 221.883 336.171)" fill="#E2D752"/>
<rect x="201.101" y="339.832" width="1.97554" height="23.8583" transform="rotate(177.292 201.101 339.832)" fill="#E2D752"/>
<rect x="159.198" y="339.927" width="1.97554" height="23.8583" transform="rotate(-173.582 159.198 339.927)" fill="#E2D752"/>
<rect x="137.876" y="336.272" width="1.97554" height="23.8583" transform="rotate(-161.7 137.876 336.272)" fill="#E2D752"/>
<rect x="118.022" y="329.032" width="1.97554" height="23.8583" transform="rotate(-157.457 118.022 329.032)" fill="#E2D752"/>
<rect x="82.5938" y="307.416" width="1.97554" height="23.8583" transform="rotate(-143.783 82.5938 307.416)" fill="#E2D752"/>
<rect x="64.2959" y="294.139" width="1.97554" height="23.8583" transform="rotate(-130.984 64.2959 294.139)" fill="#E2D752"/>
<rect x="50.7568" y="278.578" width="1.97554" height="23.8583" transform="rotate(-127.263 50.7568 278.578)" fill="#E2D752"/>
<rect x="30.8096" y="241.579" width="1.97554" height="23.8583" transform="rotate(-114.19 30.8096 241.579)" fill="#E2D752"/>
<rect x="23.5127" y="222.099" width="1.97554" height="23.8583" transform="rotate(-105.04 23.5127 222.099)" fill="#E2D752"/>
<rect x="19.1714" y="200.038" width="1.97554" height="23.8583" transform="rotate(-94.9782 19.1714 200.038)" fill="#E2D752"/>
<rect x="19" y="158.974" width="1.97554" height="23.8583" transform="rotate(-88.1172 19 158.974)" fill="#E2D752"/>
<rect x="23" y="136.876" width="1.97554" height="23.8583" transform="rotate(-71.7103 23 136.876)" fill="#E2D752"/>
<rect x="30" y="116.792" width="1.97554" height="23.8583" transform="rotate(-65.0906 30 116.792)" fill="#E2D752"/>
<rect x="52" y="81.4785" width="1.97554" height="23.8583" transform="rotate(-48.4517 52 81.4785)" fill="#E2D752"/>
<rect x="65.2881" y="65.1091" width="1.97554" height="23.8583" transform="rotate(-46.2095 65.2881 65.1091)" fill="#E2D752"/>
<rect x="81" y="51.21" width="1.97554" height="23.8583" transform="rotate(-37.772 81 51.21)" fill="#E2D752"/>
<rect x="118" y="30.7393" width="1.97554" height="23.8583" transform="rotate(-21.9721 118 30.7393)" fill="#E2D752"/>
<rect x="138" y="23.3613" width="1.97554" height="23.8583" transform="rotate(-10.5388 138 23.3613)" fill="#E2D752"/>
<rect x="159" y="18.1709" width="1.97554" height="23.8583" transform="rotate(-4.9619 159 18.1709)" fill="#E2D752"/>
<rect x="200.986" y="18" width="1.97554" height="23.8583" transform="rotate(9.61784 200.986 18)" fill="#E2D752"/>
<rect x="222.628" y="22" width="1.97554" height="23.8583" transform="rotate(18.6463 222.628 22)" fill="#E2D752"/>
<rect x="241.661" y="29.3059" width="1.97554" height="23.8583" transform="rotate(23.8044 241.661 29.3059)" fill="#E2D752"/>
<rect x="277.701" y="50" width="1.97554" height="23.8583" transform="rotate(38.0372 277.701 50)" fill="#E2D752"/>
<rect x="294.43" y="64" width="1.97554" height="23.8583" transform="rotate(46.9326 294.43 64)" fill="#E2D752"/>
<rect x="307.792" y="81" width="1.97554" height="23.8583" transform="rotate(56.0556 307.792 81)" fill="#E2D752"/>
<rect x="177" y="300" width="5" height="44" fill="#E2D752"/>
<rect x="300" y="182" width="5" height="44" transform="rotate(-90 300 182)" fill="#E2D752"/>
<rect x="16" y="182" width="5" height="44" transform="rotate(-90 16 182)" fill="#E2D752"/>
<circle cx="179.5" cy="179.5" r="165.5" stroke="#4E4B4D" stroke-width="10"/>
<rect x="203.008" y="204.417" width="119.76" height="20.4465" transform="rotate(-147.247 203.008 204.417)" fill="#B0A83E"/>
<rect x="147.855" y="193.73" width="155.882" height="15.158" transform="rotate(-37.5671 147.855 193.73)" fill="#E2D752"/>
<path d="M282.224 99.8484L280.647 110.696L271.32 98.7254L282.224 99.8484Z" fill="#E2D752"/>
<path d="M101.96 127.207L113.393 122.425L102.305 139.594L101.96 127.207Z" fill="#B0A83E"/>
<circle cx="292.5" cy="292.5" r="67.5" fill="#01518B"/>
<path d="M265.273 324L246.875 274.352L241.914 273.727V267.125H263.867V273.727L258.711 274.508L270.117 308.453L271.016 311.734H271.25L272.188 308.531L283.633 274.508L277.695 273.727V267.125H298.75V273.727L293.672 274.352L276.25 324H265.273ZM303.359 324V316.852L321.836 296.891C323.737 294.755 325.234 292.893 326.328 291.305C327.422 289.716 328.203 288.271 328.672 286.969C329.141 285.641 329.375 284.326 329.375 283.023C329.375 280.706 328.711 278.753 327.383 277.164C326.055 275.549 324.102 274.742 321.523 274.742C318.815 274.742 316.745 275.628 315.312 277.398C313.906 279.143 313.203 281.565 313.203 284.664H302.617L302.539 284.43C302.461 281.018 303.19 277.945 304.727 275.211C306.263 272.477 308.477 270.315 311.367 268.727C314.284 267.112 317.721 266.305 321.68 266.305C325.534 266.305 328.841 267.008 331.602 268.414C334.388 269.794 336.523 271.721 338.008 274.195C339.518 276.669 340.273 279.534 340.273 282.789C340.273 285.029 339.87 287.151 339.062 289.156C338.255 291.161 336.992 293.271 335.273 295.484C333.581 297.672 331.419 300.172 328.789 302.984L317.188 315.484L317.266 315.68H332.773L333.359 310.094H341.875V324H303.359Z" fill="white"/>
<defs>
<clipPath id="clip0_302_80">
<rect width="42" height="23" fill="white" transform="translate(159 216)"/>
</clipPath>
</defs>
</svg>
