<?xml version="1.0" encoding="UTF-8"?>
<svg width="1e3" height="1e3" viewBox="0 0 264.58 264.58" xmlns="http://www.w3.org/2000/svg" xmlns:xlink="http://www.w3.org/1999/xlink">
<defs>
<radialGradient id="c" cx="158.43" cy="578.09" r="52.352" gradientTransform="matrix(0 -4.0342 4.2802 0 -2332.2 942.24)" gradientUnits="userSpaceOnUse">
<stop stop-color="#fc0" offset="0"/>
<stop stop-color="#fc0" offset=".1242"/>
<stop stop-color="#fe4a05" offset=".5672"/>
<stop stop-color="#ff0f3f" offset=".6942"/>
<stop stop-color="#fe0657" stop-opacity="0" offset="1"/>
</radialGradient>
<radialGradient id="b" cx="172.61" cy="600.69" r="65" gradientTransform="matrix(.67441 -1.162 1.5128 .87801 -814.37 -47.835)" gradientUnits="userSpaceOnUse">
<stop stop-color="#fc0" offset="0"/>
<stop stop-color="#fc0" stop-opacity="0" offset="1"/>
</radialGradient>
<radialGradient id="a" cx="144.01" cy="51.337" r="67.081" gradientTransform="matrix(-2.3989 .67549 -.23008 -.81732 465 -26.404)" gradientUnits="userSpaceOnUse">
<stop stop-color="#780cff" offset="0"/>
<stop stop-color="#820bff" stop-opacity="0" offset="1"/>
</radialGradient>
<radialGradient id="d" cx="199.79" cy="628.44" r="52.352" gradientTransform="matrix(-3.108 .87652 -.6315 -2.2391 1345.7 1374.2)" gradientUnits="userSpaceOnUse">
<stop stop-color="#ff005f" offset="0"/>
<stop stop-color="#fc01d8" offset="1"/>
</radialGradient>
</defs>
<path transform="translate(-71.816 -18.143)" d="m204.15 18.143c-55.23 0-71.383 0.057-74.523 0.3175-11.334 0.9424-18.387 2.7275-26.071 6.554-5.9214 2.9413-10.592 6.3506-15.2 11.13-8.3938 8.7157-13.481 19.438-15.323 32.184-0.8953 6.1877-1.1558 7.4496-1.2087 39.056-0.0203 10.535 0 24.401 0 42.998 0 55.201 0.061 71.342 0.3256 74.476 0.9157 11.032 2.6453 17.973 6.3081 25.565 7 14.533 20.369 25.443 36.119 29.514 5.4535 1.4044 11.477 2.1779 19.209 2.5442 3.2762 0.1425 36.668 0.2443 70.081 0.2443 33.413 0 66.825-0.0407 70.02-0.2035 8.9535-0.4214 14.153-1.1195 19.901-2.6054 15.852-4.0912 28.977-14.838 36.119-29.575 3.5916-7.409 5.4128-14.614 6.237-25.07 0.179-2.2796 0.2543-38.626 0.2543-74.924 0-36.304-0.0814-72.584-0.2605-74.863-0.8343-10.625-2.6555-17.769-6.363-25.321-3.0421-6.1816-6.42-10.798-11.324-15.518-8.752-8.3616-19.456-13.45-32.21-15.29-6.18-0.8936-7.411-1.1582-39.033-1.2131z" fill="url(#d)"/>
<path transform="translate(-71.816 -18.143)" d="m204.15 18.143c-55.23 0-71.383 0.057-74.523 0.3175-11.334 0.9424-18.387 2.7275-26.071 6.554-5.9214 2.9413-10.592 6.3506-15.2 11.13-8.3938 8.7157-13.481 19.438-15.323 32.184-0.8953 6.1877-1.1558 7.4496-1.2087 39.056-0.0203 10.535 0 24.401 0 42.998 0 55.201 0.061 71.342 0.3256 74.476 0.9157 11.032 2.6453 17.973 6.3081 25.565 7 14.533 20.369 25.443 36.119 29.514 5.4535 1.4044 11.477 2.1779 19.209 2.5442 3.2762 0.1425 36.668 0.2443 70.081 0.2443 33.413 0 66.825-0.0407 70.02-0.2035 8.9535-0.4214 14.153-1.1195 19.901-2.6054 15.852-4.0912 28.977-14.838 36.119-29.575 3.5916-7.409 5.4128-14.614 6.237-25.07 0.179-2.2796 0.2543-38.626 0.2543-74.924 0-36.304-0.0814-72.584-0.2605-74.863-0.8343-10.625-2.6555-17.769-6.363-25.321-3.0421-6.1816-6.42-10.798-11.324-15.518-8.752-8.3616-19.456-13.45-32.21-15.29-6.18-0.8936-7.411-1.1582-39.033-1.2131z" fill="url(#c)"/>
<path transform="translate(-71.816 -18.143)" d="m204.15 18.143c-55.23 0-71.383 0.057-74.523 0.3175-11.334 0.9424-18.387 2.7275-26.071 6.554-5.9214 2.9413-10.592 6.3506-15.2 11.13-8.3938 8.7157-13.481 19.438-15.323 32.184-0.8953 6.1877-1.1558 7.4496-1.2087 39.056-0.0203 10.535 0 24.401 0 42.998 0 55.201 0.061 71.342 0.3256 74.476 0.9157 11.032 2.6453 17.973 6.3081 25.565 7 14.533 20.369 25.443 36.119 29.514 5.4535 1.4044 11.477 2.1779 19.209 2.5442 3.2762 0.1425 36.668 0.2443 70.081 0.2443 33.413 0 66.825-0.0407 70.02-0.2035 8.9535-0.4214 14.153-1.1195 19.901-2.6054 15.852-4.0912 28.977-14.838 36.119-29.575 3.5916-7.409 5.4128-14.614 6.237-25.07 0.179-2.2796 0.2543-38.626 0.2543-74.924 0-36.304-0.0814-72.584-0.2605-74.863-0.8343-10.625-2.6555-17.769-6.363-25.321-3.0421-6.1816-6.42-10.798-11.324-15.518-8.752-8.3616-19.456-13.45-32.21-15.29-6.18-0.8936-7.411-1.1582-39.033-1.2131z" fill="url(#b)"/>
<path transform="translate(-71.816 -18.143)" d="m204.15 18.143c-55.23 0-71.383 0.057-74.523 0.3175-11.334 0.9424-18.387 2.7275-26.071 6.554-5.9214 2.9413-10.592 6.3506-15.2 11.13-8.3938 8.7157-13.481 19.438-15.323 32.184-0.8953 6.1877-1.1558 7.4496-1.2087 39.056-0.0203 10.535 0 24.401 0 42.998 0 55.201 0.061 71.342 0.3256 74.476 0.9157 11.032 2.6453 17.973 6.3081 25.565 7 14.533 20.369 25.443 36.119 29.514 5.4535 1.4044 11.477 2.1779 19.209 2.5442 3.2762 0.1425 36.668 0.2443 70.081 0.2443 33.413 0 66.825-0.0407 70.02-0.2035 8.9535-0.4214 14.153-1.1195 19.901-2.6054 15.852-4.0912 28.977-14.838 36.119-29.575 3.5916-7.409 5.4128-14.614 6.237-25.07 0.179-2.2796 0.2543-38.626 0.2543-74.924 0-36.304-0.0814-72.584-0.2605-74.863-0.8343-10.625-2.6555-17.769-6.363-25.321-3.0421-6.1816-6.42-10.798-11.324-15.518-8.752-8.3616-19.456-13.45-32.21-15.29-6.18-0.8936-7.411-1.1582-39.033-1.2131z" fill="url(#a)"/>
<path d="m132.35 33.973c-26.717 0-30.07 0.1167-40.563 0.5939-10.473 0.4792-17.621 2.136-23.876 4.567-6.4701 2.5107-11.959 5.8693-17.426 11.335-5.472 5.464-8.8332 10.948-11.354 17.412-2.4389 6.2524-4.099 13.398-4.5703 23.858-0.4693 10.485-0.5923 13.838-0.5923 40.535 0 26.697 0.1189 30.037 0.5943 40.522 0.4817 10.465 2.1397 17.608 4.5703 23.858 2.5147 6.4654 5.8758 11.95 11.346 17.414 5.466 5.468 10.954 8.8349 17.42 11.346 6.259 2.4309 13.41 4.0877 23.88 4.567 10.493 0.477 13.844 0.5938 40.559 0.5938 26.719 0 30.062-0.1167 40.555-0.5939 10.473-0.4792 17.63-2.136 23.888-4.567 6.4681-2.5106 11.948-5.8775 17.414-11.346 5.472-5.4639 8.8332-10.948 11.354-17.412 2.4183-6.2524 4.0784-13.398 4.5703-23.858 0.4713-10.485 0.5943-13.828 0.5943-40.525 0-26.697-0.123-30.047-0.5943-40.533-0.4919-10.465-2.152-17.608-4.5703-23.858-2.5208-6.4654-5.882-11.95-11.354-17.414-5.4721-5.468-10.944-8.8266-17.42-11.335-6.2714-2.4309-13.424-4.0877-23.897-4.5669-10.493-0.4772-13.834-0.5939-40.559-0.5939zm-8.825 17.715c2.6193-0.0041 5.5418 0 8.825 0 26.266 0 29.379 0.0942 39.751 0.5652 9.5915 0.4383 14.797 2.0397 18.265 3.3852 4.5908 1.7817 7.8638 3.9116 11.305 7.3521 3.4431 3.4406 5.5745 6.7173 7.3617 11.305 1.3465 3.461 2.9512 8.6628 3.3877 18.247 0.4714 10.362 0.5739 13.475 0.5739 39.71 0 26.234-0.1025 29.347-0.5739 39.71-0.4386 9.5843-2.0412 14.786-3.3877 18.247-1.783 4.5874-3.9186 7.8539-7.3617 11.292-3.443 3.4406-6.712 5.5704-11.305 7.3521-3.4636 1.3517-8.6733 2.949-18.265 3.3873-10.37 0.471-13.485 0.5734-39.751 0.5734-26.268 0-29.381-0.1024-39.751-0.5734-9.5914-0.4423-14.797-2.0438-18.267-3.3893-4.5908-1.7817-7.87-3.9116-11.313-7.3521-3.4431-3.4405-5.5745-6.709-7.3617-11.298-1.3465-3.461-2.9512-8.6628-3.3877-18.247-0.4714-10.363-0.5657-13.475-0.5657-39.726 0-26.25 0.0943-29.347 0.5657-39.71 0.4386-9.5844 2.0412-14.786 3.3877-18.251 1.783-4.5874 3.9186-7.8641 7.3617-11.305 3.443-3.4406 6.7222-5.5704 11.313-7.3562 3.4677-1.3517 8.6754-2.949 18.267-3.3894 9.075-0.4096 12.592-0.5324 30.926-0.553zm61.336 16.322c-6.5173 0-11.805 5.2776-11.805 11.792 0 6.5125 5.2877 11.796 11.805 11.796 6.5172 0 11.805-5.2837 11.805-11.796 0-6.5124-5.2877-11.796-11.805-11.796zm-52.511 13.783c-27.899 0-50.519 22.603-50.519 50.482s22.62 50.471 50.519 50.471 50.511-22.593 50.511-50.471-22.614-50.482-50.513-50.482zm0 17.715c18.109 0 32.791 14.669 32.791 32.767 0 18.096-14.682 32.767-32.791 32.767-18.111 0-32.791-14.671-32.791-32.767 0-18.098 14.68-32.767 32.791-32.767z" fill="#fff"/>
</svg>
