<?xml version="1.0" encoding="UTF-8" standalone="no"?>
<!-- Created with Inkscape (http://www.inkscape.org/) -->

<svg
   xmlns:dc="http://purl.org/dc/elements/1.1/"
   xmlns:cc="http://creativecommons.org/ns#"
   xmlns:rdf="http://www.w3.org/1999/02/22-rdf-syntax-ns#"
   xmlns:svg="http://www.w3.org/2000/svg"
   xmlns="http://www.w3.org/2000/svg"
   xmlns:sodipodi="http://sodipodi.sourceforge.net/DTD/sodipodi-0.dtd"
   xmlns:inkscape="http://www.inkscape.org/namespaces/inkscape"
   version="1.1"
   id="svg2"
   xml:space="preserve"
   width="488.46701"
   height="97.273529"
   viewBox="0 0 488.46701 97.273529"
   sodipodi:docname="Logo BreizhGo.svg"
   inkscape:version="0.92.3 (2405546, 2018-03-11)"><metadata
     id="metadata8"><rdf:RDF><cc:Work
         rdf:about=""><dc:format>image/svg+xml</dc:format><dc:type
           rdf:resource="http://purl.org/dc/dcmitype/StillImage" /><dc:title></dc:title></cc:Work></rdf:RDF></metadata><defs
     id="defs6"><clipPath
       clipPathUnits="userSpaceOnUse"
       id="clipPath502"><path
         d="M 0,0 H 595.276 V 841.89 H 0 Z"
         id="path500"
         inkscape:connector-curvature="0" /></clipPath><clipPath
       clipPathUnits="userSpaceOnUse"
       id="clipPath576"><path
         d="m 11.929,719.049 h 113.386 v 95.21 H 11.929 Z"
         id="path574"
         inkscape:connector-curvature="0" /></clipPath></defs><sodipodi:namedview
     pagecolor="#ffffff"
     bordercolor="#FFFFFF"
     borderopacity="1"
     objecttolerance="10"
     gridtolerance="10"
     guidetolerance="10"
     inkscape:pageopacity="0"
     inkscape:pageshadow="2"
     inkscape:window-width="1920"
     inkscape:window-height="1017"
     id="namedview4"
     showgrid="false"
     fit-margin-top="0"
     fit-margin-left="0"
     fit-margin-right="0"
     fit-margin-bottom="0"
     inkscape:zoom="1.189304"
     inkscape:cx="302.67066"
     inkscape:cy="221.55781"
     inkscape:window-x="-8"
     inkscape:window-y="-8"
     inkscape:window-maximized="1"
     inkscape:current-layer="g10" /><g
     id="g10"
     inkscape:groupmode="layer"
     inkscape:label="Guide-pratique-2018-2019"
     transform="matrix(1.3333333,0,0,-1.3333333,282.29513,1058.6282)"><g
       id="g586"
       transform="matrix(5.0987995,0,0,5.0987995,-193.84496,762.22145)"><path
         d="m 0,0 h -0.927 c -0.11,0 -0.283,0.094 -0.362,0.094 -0.032,0 -0.063,-0.063 -0.063,-0.346 v -1.226 c 0,-1.211 0.409,-1.761 1.652,-1.761 1.084,0 1.65,0.456 1.65,1.619 C 1.95,-0.314 1.148,0 0,0 M -0.047,4.497 C -0.519,4.497 -0.958,4.465 -1.163,4.434 -1.321,4.418 -1.352,4.34 -1.352,4.12 V 1.918 c 0,-0.189 0.031,-0.267 0.236,-0.267 h 1.148 c 0.943,0 1.51,0.393 1.51,1.478 0,0.944 -0.503,1.368 -1.589,1.368 m 0.708,-9.45 c -1.258,0 -2.327,0.299 -3.066,1.069 -0.158,0.142 -0.22,0.157 -0.833,0.157 -0.236,0 -0.268,0.048 -0.268,0.252 v 9.167 c 0,0.252 0.016,0.361 0.095,0.361 0.047,0 0.173,-0.046 0.219,-0.046 0.284,0 1.856,0.172 3.192,0.172 2.658,0 3.821,-1.038 3.821,-2.815 C 3.821,2.437 3.46,1.792 2.784,1.383 2.658,1.305 2.296,1.179 2.296,1.038 c 0,-0.142 0.362,-0.252 0.488,-0.299 1.007,-0.393 1.525,-1.274 1.525,-2.5 0,-1.966 -1.368,-3.192 -3.648,-3.192"
         style="fill:#FFFFFF;fill-opacity:1;fill-rule:nonzero;stroke:none"
         id="path588"
         inkscape:connector-curvature="0" /></g><g
       id="g590"
       transform="matrix(5.0987995,0,0,5.0987995,-147.72173,784.98963)"><path
         d="m 0,0 c -0.425,0 -0.77,-0.015 -0.975,-0.047 -0.157,-0.031 -0.204,-0.11 -0.204,-0.299 0,-0.204 0.047,-0.614 0.047,-0.959 v -1.541 c 0,-0.393 0.031,-0.534 0.393,-0.613 0.236,-0.047 0.582,-0.079 0.896,-0.079 1.07,0 1.729,0.519 1.729,1.809 C 1.886,-0.55 1.258,0 0,0 m 5.079,-8.271 v -0.66 c 0,-0.11 -0.063,-0.173 -0.158,-0.236 -0.267,-0.142 -0.612,-0.252 -1.022,-0.252 -1.116,0 -1.698,0.441 -2.342,1.604 L 0.22,-5.456 c -0.126,0.22 -0.205,0.283 -0.424,0.331 -0.221,0.047 -0.597,0.093 -0.708,0.093 -0.174,0 -0.22,-0.093 -0.22,-0.314 v -3.711 c 0,-0.142 -0.016,-0.22 -0.173,-0.22 -0.315,0 -1.023,0.063 -1.023,0.063 0,0 -0.659,-0.063 -0.99,-0.063 -0.063,0 -0.11,0 -0.11,0.078 0,0.126 0.094,0.268 0.094,0.394 V 1.226 c 0,0.189 0.048,0.252 0.173,0.284 0.786,0.125 2.075,0.204 3.208,0.204 2.626,0 4.103,-1.148 4.103,-3.334 0,-1.352 -0.77,-2.389 -1.697,-2.83 C 2.374,-4.481 2.28,-4.575 2.28,-4.67 c 0,-0.142 0.298,-0.597 1.196,-2.028 0.345,-0.55 0.549,-0.755 0.973,-0.755 0.3,0 0.409,0.125 0.583,0.125 0.063,0 0.093,-0.046 0.093,-0.125 0,-0.11 -0.046,-0.582 -0.046,-0.818"
         style="fill:#FFFFFF;fill-opacity:1;fill-rule:nonzero;stroke:none"
         id="path592"
         inkscape:connector-curvature="0" /></g><g
       id="g594"
       transform="matrix(5.0987995,0,0,5.0987995,-76.234011,744.02077)"><path
         d="m 0,0 c 0,-0.11 -0.032,-0.157 -0.157,-0.157 h -0.598 c -0.188,0 -0.267,-0.047 -0.393,-0.141 -0.849,-0.771 -1.761,-1.085 -3.019,-1.085 -2.264,0 -3.978,1.037 -3.978,3.349 0,1.808 1.006,2.326 1.006,2.861 0,0.394 -0.377,0.755 -0.377,1.683 0,2.169 1.525,3.286 3.852,3.286 1.006,0 1.95,-0.142 2.547,-0.393 0.095,-0.032 0.174,-0.094 0.174,-0.22 0,-0.126 -0.189,-0.739 -0.189,-0.739 L -1.179,7.579 c 0,-0.094 -0.048,-0.157 -0.126,-0.157 -0.173,0 -0.708,0.534 -2.123,0.534 -1.258,0 -1.902,-0.424 -1.902,-1.509 0,-0.739 0.252,-1.163 0.895,-1.163 h 1.95 c 0.189,0 0.252,-0.017 0.252,-0.205 0,-0.252 -0.047,-0.755 -0.047,-0.755 0,0 0.047,-0.472 0.047,-0.708 0,-0.188 -0.078,-0.188 -0.236,-0.188 h -2.358 c -0.676,0 -0.959,-0.425 -0.959,-1.179 0,-1.289 0.738,-1.714 2.075,-1.714 1.179,0 1.887,0.425 1.887,1.73 0,0.157 0.016,0.204 0.188,0.204 0.221,-0.016 0.661,-0.031 0.661,-0.031 0,0 0.503,0.031 0.755,0.031 0.157,0 0.173,-0.047 0.173,-0.204 V 1.069 Z"
         style="fill:#FFFFFF;fill-opacity:1;fill-rule:nonzero;stroke:none"
         id="path596"
         inkscape:connector-curvature="0" /></g><g
       id="g598"
       transform="matrix(5.0987995,0,0,5.0987995,-47.490548,737.76863)"><path
         d="m 0,0 h -3.396 l -0.99,-0.063 c -0.158,0 -0.205,0.048 -0.205,0.188 0,0.095 0.031,0.818 0.031,0.818 0,0 -0.031,0.63 -0.031,0.723 0,0.174 0.016,0.221 0.205,0.221 h 0.597 c 0.346,0 0.393,0.094 0.393,0.582 v 5.754 c 0,0.174 0.094,0.441 0.094,0.566 0,0.127 -0.094,0.189 -0.503,0.189 h -0.786 c -0.173,0 -0.22,0.048 -0.22,0.189 0,0.094 0.047,0.77 0.047,0.77 0,0 -0.047,0.63 -0.047,0.724 0,0.157 0.015,0.204 0.204,0.204 h 3.38 l 1.007,0.063 c 0.158,0 0.205,-0.047 0.205,-0.189 0,-0.094 -0.047,-0.817 -0.047,-0.817 0,0 0.047,-0.63 0.047,-0.723 0,-0.173 -0.016,-0.221 -0.205,-0.221 h -0.597 c -0.346,0 -0.41,-0.094 -0.41,-0.581 v -5.74 c 0,-0.205 -0.094,-0.487 -0.094,-0.597 0,-0.126 0.094,-0.173 0.504,-0.173 h 0.802 c 0.172,0 0.219,-0.047 0.219,-0.189 0,-0.094 -0.047,-0.77 -0.047,-0.77 0,0 0.047,-0.63 0.047,-0.723 C 0.204,0.047 0.174,0 0,0"
         style="fill:#FFFFFF;fill-opacity:1;fill-rule:nonzero;stroke:none"
         id="path600"
         inkscape:connector-curvature="0" /></g><g
       id="g602"
       transform="matrix(5.0987995,0,0,5.0987995,0.5498305,746.66705)"><path
         d="m 0,0 c 0,0 0.031,-1.242 0.031,-1.463 0,-0.125 -0.031,-0.157 -0.156,-0.172 -0.063,-0.016 -1.164,-0.11 -1.463,-0.11 h -4.654 c -1.336,0 -2.06,0.629 -2.06,1.887 0,0.518 0.205,1.179 0.802,1.871 l 3.899,4.56 c 0.346,0.393 0.77,0.614 0.77,0.723 0,0.063 -0.031,0.094 -0.109,0.094 -0.205,0 -0.613,-0.157 -1.022,-0.157 h -2.579 c -0.786,0 -1.085,-0.142 -1.163,-0.142 -0.063,0 -0.079,0.016 -0.079,0.096 0,0.125 0.047,0.926 0.047,0.926 0,0 -0.047,0.645 -0.047,0.803 0,0.204 0.047,0.22 0.267,0.22 0.22,0 0.802,-0.016 1.337,-0.016 h 5.031 c 0.66,0 1.069,-0.425 1.069,-1.164 0,-0.424 -0.204,-0.832 -0.597,-1.289 L -5.299,1.463 C -5.849,0.85 -6.337,0.645 -6.337,0.409 c 0,-0.189 0.221,-0.267 0.912,-0.267 h 2.469 c 0.425,0 0.644,-0.157 0.818,-0.157 0.11,0 0.189,0.094 0.22,0.345 l 0.046,0.723 c 0.016,0.174 0.032,0.268 0.143,0.268 0.094,0 1.006,-0.031 1.006,-0.031 0,0 0.535,0.031 0.598,0.031 0.156,0 0.172,-0.031 0.172,-0.173 C 0.047,0.912 0,0 0,0"
         style="fill:#FFFFFF;fill-opacity:1;fill-rule:nonzero;stroke:none"
         id="path604"
         inkscape:connector-curvature="0" /></g><g
       id="g606"
       transform="matrix(5.0987995,0,0,5.0987995,56.425534,738.48909)"><path
         d="m 0,0 c -0.361,-0.188 -0.786,-0.298 -1.212,-0.298 -1.413,0 -2.027,0.77 -2.027,2.201 v 2.186 c 0,0.55 -0.079,0.691 -0.299,0.691 -0.22,0 -0.534,-0.251 -0.833,-0.251 h -2.531 c -0.315,0 -0.347,-0.22 -0.347,-0.488 V 1.038 C -7.249,0.582 -7.17,0.22 -7.17,0 c 0,-0.094 -0.016,-0.157 -0.126,-0.157 -0.173,0 -1.022,0.063 -1.022,0.063 0,0 -0.723,-0.063 -0.895,-0.063 -0.237,0 -0.268,0.221 -0.268,1.085 v 8.616 c 0,0.173 -0.017,0.598 -0.017,0.912 0,0.221 0.017,0.268 0.174,0.268 0.298,0 0.897,-0.047 0.897,-0.047 0,0 0.69,0.078 1.021,0.078 0.157,0 0.189,-0.094 0.189,-0.219 0,-0.315 -0.032,-0.63 -0.032,-0.929 V 6.809 c 0,-0.236 0.095,-0.394 0.347,-0.394 h 3.286 c 0.267,0 0.377,0.142 0.377,0.41 v 2.814 c 0,0.267 -0.032,0.535 -0.032,0.787 0,0.172 0.016,0.298 0.22,0.298 0.331,0 0.96,-0.047 0.96,-0.047 0,0 0.597,0.047 0.912,0.047 0.188,0 0.188,-0.095 0.188,-0.252 0,-0.235 -0.015,-0.471 -0.015,-0.722 V 2.39 c 0,-0.424 0.063,-0.739 0.487,-0.739 0.282,0 0.504,0.236 0.614,0.236 0.094,0 0.094,-0.079 0.094,-0.141 0,-0.221 -0.032,-0.771 -0.032,-0.771 0,0 0.063,-0.472 0.063,-0.708 C 0.22,0.174 0.126,0.079 0,0"
         style="fill:#FFFFFF;fill-opacity:1;fill-rule:nonzero;stroke:none"
         id="path608"
         inkscape:connector-curvature="0" /></g><g
       id="g610"
       transform="matrix(5.0987995,0,0,5.0987995,91.378825,742.90006)"><path
         d="m 0,0 c 0,0.315 -0.015,0.456 -0.094,0.456 -0.126,0 -0.204,-0.425 -0.331,-0.534 -0.251,-0.189 -0.628,-0.284 -0.927,-0.331 -0.424,-0.251 -0.692,-0.692 -0.692,-1.367 0,-0.599 0.283,-0.913 1.006,-0.913 0.74,0 1.038,0.33 1.038,1.132 z m 2.108,3.129 v -4.324 c 0,-2.139 -1.133,-3.097 -3.271,-3.097 -1.981,0 -2.815,0.801 -2.815,2.059 0,0.55 0.141,0.991 0.425,1.321 0.142,0.157 0.66,0.267 0.66,0.424 0,0.142 -0.644,0.173 -0.849,0.251 -1.698,0.645 -2.5,2.344 -2.5,4.986 0,3.412 1.525,5.267 4.245,5.267 1.164,0 1.966,-0.252 2.611,-0.865 C 0.755,9.026 0.833,8.994 0.991,8.994 h 0.724 c 0.093,0 0.14,-0.032 0.14,-0.173 0,-0.283 -0.047,-1.101 -0.047,-1.101 0,0 0.047,-0.974 0.047,-1.242 0,-0.188 -0.079,-0.204 -0.172,-0.204 -0.031,0 -0.692,0.016 -0.692,0.016 0,0 -0.582,-0.032 -0.739,-0.032 -0.11,0 -0.141,0.078 -0.141,0.205 0,1.1 -0.677,1.682 -1.794,1.682 -1.446,0 -2.264,-0.944 -2.264,-3.365 0,-2.547 0.723,-3.475 2.233,-3.475 1.226,0 1.714,0.55 1.714,1.321 v 0.472 c 0,0.236 -0.047,0.55 -0.047,0.707 0,0.079 0.032,0.142 0.204,0.142 H 2.028 C 2.218,3.947 2.28,3.899 2.28,3.805 2.28,3.664 2.108,3.38 2.108,3.129"
         style="fill:#FFFFFF;fill-opacity:1;fill-rule:nonzero;stroke:none"
         id="path612"
         inkscape:connector-curvature="0" /></g><g
       id="g614"
       transform="matrix(5.0987995,0,0,5.0987995,131.69962,784.58937)"><path
         d="m 0,0 c -1.431,0 -2.154,-0.927 -2.154,-3.758 0,-2.752 0.676,-3.742 2.139,-3.742 1.43,0 2.154,0.927 2.154,3.726 C 2.139,-0.991 1.463,0 0,0 m -0.032,-9.339 c -2.987,0 -4.465,1.823 -4.465,5.581 0,1.982 0.409,3.569 1.4,4.528 1.368,0 1.494,1.07 3.16,1.07 2.688,0 4.434,-1.573 4.434,-5.614 0,-3.915 -1.651,-5.565 -4.529,-5.565"
         style="fill:#FFFFFF;fill-opacity:1;fill-rule:nonzero;stroke:none"
         id="path616"
         inkscape:connector-curvature="0" /></g></g></svg>