<svg id="svg3915" xmlns="http://www.w3.org/2000/svg" xmlns:xlink="http://www.w3.org/1999/xlink" viewBox="0 0 800.01 203.09"><defs><style>.cls-1{fill:none;}.cls-2{fill:#fff;}.cls-3{clip-path:url(#clip-path);}</style><clipPath id="clip-path" transform="translate(0 0)"><rect class="cls-1" x="391.82" y="-0.01" width="408.18" height="203.1"/></clipPath></defs><title>lyria</title><g id="layer1"><g id="g4086"><path id="path3461" class="cls-2" d="M671.87,0h-31.2v31.2h31.2Z" transform="translate(0 0)"/><g class="cls-3"><g id="g3465"><g id="g3471"><path id="path3473" class="cls-2" d="M640.67,62.39h0V43.19c-3,0-32.51-3.54-43.71,19.15V46H547l-27.63,82.88L491.05,46h-33.5L489,129.16H426.49V0H391.81V157.62h99.56V135.55L498.7,155c3.62,9.22,0,20.69-11.07,21.81-6.34.2-12.66-.67-18.79-1.12V202a194.64,194.64,0,0,0,19.7,1.12c22.16,0,34.1-7.41,41.1-26.07L567.16,75.81V157.6h31.36V110c0-44.45,38.62-37.69,42.15-37.64v85.27h31.18V62.39Z" transform="translate(0 0)"/></g><g id="g3475"><path id="path3477" class="cls-2" d="M764.41,115.1c0,6.6-.9,25.29-25.59,25.29-10.26,0-19.34-2.76-19.34-14,0-11,8.89-14.25,18.68-16.16,9.81-1.68,20.9-1.9,26.25-6.38ZM796,133.17V73.68c0-26.37-27.59-31.25-50.51-31.25a105.77,105.77,0,0,0-11.24.57V62.4H703.07V85H724.7c.55-8.46,4.22-20.08,21.78-20.08,6.41,0,17.93,1.91,17.93,14.88,0,12.32-18,11.69-37.4,14.45-19.56,2.55-39.15,8.51-39.15,33.38,0,22.54,17.34,33,39.15,33,14,0,28.71-3.62,38.74-13.61A43.15,43.15,0,0,0,768,157.62h32c-2.89-4.46-4-14.47-4-24.45" transform="translate(0 0)"/></g><g id="g3479"><path id="path3481" class="cls-2" d="M708.84,2.35h-2.37V0H705.4V2.35h-2.33V3.41h2.33V5.77h1.07V3.41h2.37Z" transform="translate(0 0)"/></g><g id="g3483"><path id="path3485" class="cls-2" d="M708.84,27.8h-2.37V25.45H705.4V27.8h-2.33v1.06h2.33v2.36h1.07V28.86h2.37Z" transform="translate(0 0)"/></g><g id="g3487"><path id="path3489" class="cls-2" d="M708.84,19.31h-2.37V17H705.4v2.33h-2.33v1.07h2.33v2.34h1.07V20.38h2.37Z" transform="translate(0 0)"/></g><g id="g3491"><path id="path3493" class="cls-2" d="M708.84,10.83h-2.37V8.48H705.4v2.35h-2.33v1.06h2.33v2.35h1.07V11.89h2.37Z" transform="translate(0 0)"/></g><g id="g3495"><path id="path3497" class="cls-2" d="M725.8,2.35h-2.33V0h-1.09V2.35H720V3.41h2.34V5.77h1.09V3.41h2.33Z" transform="translate(0 0)"/></g><g id="g3499"><path id="path3501" class="cls-2" d="M725.8,27.8h-2.33V25.45h-1.09V27.8H720v1.06h2.34v2.36h1.09V28.86h2.33Z" transform="translate(0 0)"/></g><g id="g3503"><path id="path3505" class="cls-2" d="M725.8,19.31h-2.33V17h-1.09v2.33H720v1.07h2.34v2.34h1.09V20.38h2.33Z" transform="translate(0 0)"/></g><g id="g3507"><path id="path3509" class="cls-2" d="M725.8,10.83h-2.33V8.48h-1.09v2.35H720v1.06h2.34v2.35h1.09V11.89h2.33Z" transform="translate(0 0)"/></g><g id="g3511"><path id="path3513" class="cls-2" d="M717.3,2.35H715V0h-1.05V2.35h-2.36V3.41h2.36V5.77H715V3.41h2.34Z" transform="translate(0 0)"/></g><g id="g3515"><path id="path3517" class="cls-2" d="M717.3,27.8H715V25.45h-1.05V27.8h-2.36v1.06h2.36v2.36H715V28.86h2.34Z" transform="translate(0 0)"/></g><g id="g3519"><path id="path3521" class="cls-2" d="M717.3,19.31H715V17h-1.05v2.33h-2.36v1.07h2.36v2.34H715V20.38h2.34Z" transform="translate(0 0)"/></g><g id="g3523"><path id="path3525" class="cls-2" d="M717.3,10.83H715V8.48h-1.05v2.35h-2.36v1.06h2.36v2.35H715V11.89h2.34Z" transform="translate(0 0)"/></g><g id="g3527"><path id="path3529" class="cls-2" d="M734.27,2.35h-2.34V0h-1.06V2.35h-2.33V3.41h2.33V5.77h1.06V3.41h2.34Z" transform="translate(0 0)"/></g><g id="g3531"><path id="path3533" class="cls-2" d="M734.27,27.8h-2.34V25.45h-1.06V27.8h-2.33v1.06h2.33v2.36h1.06V28.86h2.34Z" transform="translate(0 0)"/></g><g id="g3535"><path id="path3537" class="cls-2" d="M734.27,19.31h-2.34V17h-1.06v2.33h-2.33v1.07h2.33v2.34h1.06V20.38h2.34Z" transform="translate(0 0)"/></g><g id="g3539"><path id="path3541" class="cls-2" d="M751.24,27.8h-2.36V25.45h-1V27.8h-2.36v1.06h2.36v2.36h1V28.86h2.36Z" transform="translate(0 0)"/></g><g id="g3543"><path id="path3545" class="cls-2" d="M751.24,19.31h-2.36V17h-1v2.33h-2.36v1.07h2.36v2.34h1V20.38h2.36Z" transform="translate(0 0)"/></g><g id="g3547"><path id="path3549" class="cls-2" d="M742.76,19.31h-2.33V17h-1.07v2.33H737v1.07h2.36v2.34h1.07V20.38h2.33Z" transform="translate(0 0)"/></g><g id="g3551"><path id="path3553" class="cls-2" d="M742.76,10.83h-2.33V8.48h-1.07v2.35H737v1.06h2.36v2.35h1.07V11.89h2.33Z" transform="translate(0 0)"/></g><g id="g3555"><path id="path3557" class="cls-2" d="M759.72,2.35h-2.35V0h-1V2.35H754V3.41h2.36V5.77h1V3.41h2.35Z" transform="translate(0 0)"/></g><g id="g3559"><path id="path3561" class="cls-2" d="M759.72,19.31h-2.35V17h-1v2.33H754v1.07h2.36v2.34h1V20.38h2.35Z" transform="translate(0 0)"/></g><g id="g3563"><path id="path3565" class="cls-2" d="M785.17,19.31h-2.34V17h-1.07v2.33h-2.35v1.07h2.35v2.34h1.07V20.38h2.34Z" transform="translate(0 0)"/></g><g id="g3567"><path id="path3569" class="cls-2" d="M768.21,19.31h-2.37V17h-1.05v2.33h-2.36v1.07h2.36v2.34h1.05V20.38h2.37Z" transform="translate(0 0)"/></g><g id="g3571"><path id="path3573" class="cls-2" d="M677.61,96h-2.36V93.6h-1V96h-2.33v1h2.33v2.37h1V97h2.36Z" transform="translate(0 0)"/></g><g id="g3575"><path id="path3577" class="cls-2" d="M677.61,121.4h-2.36V119h-1v2.36h-2.33v1.07h2.33v2.33h1v-2.33h2.36Z" transform="translate(0 0)"/></g><g id="g3579"><path id="path3581" class="cls-2" d="M677.61,112.92h-2.36v-2.37h-1v2.37h-2.33v1h2.33v2.37h1V114h2.36Z" transform="translate(0 0)"/></g><g id="g3583"><path id="path3585" class="cls-2" d="M677.61,104.44h-2.36v-2.36h-1v2.36h-2.33v1.06h2.33v2.33h1V105.5h2.36Z" transform="translate(0 0)"/></g><g id="g3587"><path id="path3589" class="cls-2" d="M703.07,96h-2.36V93.6h-1.06V96H697.3v1h2.35v2.37h1.06V97h2.36Z" transform="translate(0 0)"/></g><g id="g3591"><path id="path3593" class="cls-2" d="M694.58,96h-2.35V93.6h-1.07V96h-2.33v1h2.33v2.37h1.07V97h2.35Z" transform="translate(0 0)"/></g><g id="g3595"><path id="path3597" class="cls-2" d="M694.58,104.44h-2.35v-2.36h-1.07v2.36h-2.33v1.06h2.33v2.33h1.07V105.5h2.35Z" transform="translate(0 0)"/></g><g id="g3599"><path id="path3601" class="cls-2" d="M686.09,96h-2.33V93.6h-1.07V96h-2.36v1h2.36v2.37h1.07V97h2.33Z" transform="translate(0 0)"/></g><g id="g3603"><path id="path3605" class="cls-2" d="M686.09,112.92h-2.33v-2.37h-1.07v2.37h-2.36v1h2.36v2.37h1.07V114h2.33Z" transform="translate(0 0)"/></g><g id="g3607"><path id="path3609" class="cls-2" d="M686.09,104.44h-2.33v-2.36h-1.07v2.36h-2.36v1.06h2.36v2.33h1.07V105.5h2.33Z" transform="translate(0 0)"/></g></g></g><path id="path3613" class="cls-2" d="M39,50.38H0V29.9H100.56V50.38H61.61V157.06H39Z" transform="translate(0 0)"/><g id="g3623"><path id="path3625" class="cls-2" d="M227.15,147.71c-15.44,8.26-33,12.57-52.61,12.57-39.16,0-67.17-26.57-67.17-66.26,0-40.78,28-67.35,67.17-67.35,19.38,0,36.81,4.14,50.09,16L207.94,59.54c-8.08-7.89-20.48-12.39-33.23-12.39-26.22,0-43.62,20.12-43.62,45.43,0,27.12,17.4,47.22,43.62,47.22,11.49,0,21.91-2.14,29.8-6.63v-30h-26V82.71h48.66Z" transform="translate(0 0)"/></g><g id="g3627"><path id="path3629" class="cls-2" d="M235.56,29.91h26L296.25,126,332,29.91h24.42L305.06,157.05H285.48Z" transform="translate(0 0)"/></g></g></g></svg>