<?xml version="1.0" encoding="utf-8"?>
<!-- Generator: Adobe Illustrator 25.3.1, SVG Export Plug-In . SVG Version: 6.00 Build 0)  -->
<svg version="1.1" xmlns="http://www.w3.org/2000/svg" xmlns:xlink="http://www.w3.org/1999/xlink" x="0px" y="0px"
	 viewBox="0 0 223.4 82.9" style="enable-background:new 0 0 223.4 82.9;" xml:space="preserve">
<style type="text/css">
	.st0{display:none;}
	.st1{display:inline;}
	.st2{fill:#FFFFFF;}
	.st3{display:inline;fill:#FFFFFF;}
	.st4{display:inline;fill:#AA3939;}
	.st5{font-family:'ErasITC-Demi';}
	.st6{font-size:16.2938px;}
</style>
<g id="Layer_2">
</g>
<g id="Calque_1">
	<g id="Calque_2" class="st0">
		<g class="st1">
			<path class="st2" d="M-283.6,323.3"/>
			<g>
				<path class="st2" d="M-245.5,262.2c-3.8,0-6.5,3-6.5,6.7s2.7,6.8,6.6,6.8c3.8,0,6.5-3,6.5-6.7
					C-238.9,265.3-241.6,262.2-245.5,262.2z"/>
				<path class="st2" d="M-284,212.9c-30.5,0-55.3,24.8-55.3,55.3s24.7,55.3,55.3,55.3c30.5,0,55.3-24.7,55.3-55.3
					C-228.7,237.7-253.5,212.9-284,212.9z M-322.6,280.1c-6.7,0-11.4-4.9-11.4-11.1c0-6.1,4.8-11.1,11.5-11.1s11.4,4.9,11.4,11.1
					C-311.1,275-315.9,280.1-322.6,280.1z M-290.3,270.4c0,6.6-3.7,9.7-9.5,9.7s-9.4-3.2-9.4-9.6v-10.1c0-1.3,1-2.4,2.4-2.4
					c1.3,0,2.4,1,2.4,2.4v10c0,3.5,1.8,5.3,4.7,5.3s4.7-1.8,4.7-5.2v-10.1c0-1.3,1-2.4,2.4-2.4s2.4,1,2.4,2.4v10L-290.3,270.4
					L-290.3,270.4z M-282.4,277.6c0,1.3-1,2.4-2.4,2.4c-1.3,0-2.4-1-2.4-2.4v-17.2c0-1.3,1-2.4,2.4-2.4c1.3,0,2.4,1,2.4,2.4V277.6z
					 M-284.8,255.2c-1.6,0-2.9-1.3-2.9-2.9s1.3-2.9,2.9-2.9s2.9,1.3,2.9,2.9S-283.1,255.2-284.8,255.2z M-258.3,274.7
					c0,1.4-0.3,2-1.3,2.8c-2,1.6-4.8,2.7-8.2,2.7c-6.7,0-11.5-4.8-11.5-11.1c0-6.1,4.9-11.1,11.5-11.1c3.3,0,5.4,0.8,7.3,2.2
					c0.5,0.4,1,1,1,1.9c0,1.3-1,2.3-2.4,2.3c-0.6,0-1.1-0.3-1.4-0.5c-1.3-0.9-2.7-1.5-4.7-1.5c-3.4,0-6.3,3-6.3,6.7
					c0,3.9,2.9,6.8,6.7,6.8c2.2,0,3.8-0.4,4.8-1.4v-2.9h-3.4c-1.1,0-2-0.9-2-2s0.9-2,2-2h5.6c1.3,0,2.4,1,2.4,2.4v4.9h-0.1
					L-258.3,274.7L-258.3,274.7z M-245.5,280.1c-6.7,0-11.4-4.9-11.4-11.1c0-6.1,4.8-11.1,11.5-11.1s11.4,4.9,11.4,11.1
					C-234,275-238.8,280.1-245.5,280.1z"/>
				<path class="st2" d="M-322.6,262.2c-3.8,0-6.5,3-6.5,6.7s2.7,6.8,6.6,6.8c3.8,0,6.5-3,6.5-6.7
					C-316,265.3-318.8,262.2-322.6,262.2z"/>
			</g>
		</g>
	</g>
	<g id="Calque_1_1_" class="st0">
		<path id="path9752" class="st3" d="M-759.1,547.4c-0.2-0.2-0.5-0.5-0.7-0.8l-0.4-0.4v-40.7c0-38.4,0-40.8,0.3-41.3
			c0.6-1.2,0.7-1.2,5.3-1.4c11.4-0.4,24.6,0,38,1c37.4,2.8,70.8,10.3,96.7,21.7c8.3,3.7,20.7,10.5,22.1,12.1c0.8,1,1.1-0.2-6.7,24.4
			c-6.7,20.9-7.9,24.7-8.3,25.1c-0.2,0.3-0.6,0.4-1.3,0.5c-0.5,0.1-33.3,0.1-72.9,0.1C-754.6,547.7-758.8,547.7-759.1,547.4
			L-759.1,547.4z M-732.8,536.6c4.6-0.3,7.7-1.1,10.5-2.5c3.1-1.5,5.2-3.6,6.4-6.4c0.5-1.1,0.5-1.4,0.6-2.9c0-1.5,0-1.7-0.5-2.7
			c-0.7-1.4-2.4-3.2-4.4-4.5c-0.8-0.5-4.2-2.4-7.5-4c-4.8-2.4-6.2-3.2-6.9-3.9c-0.8-0.8-0.9-0.9-0.9-1.6c0-1.3,0.9-2.3,3-3.3
			c1.3-0.6,3-1,5.4-1.2c2-0.2,2.9-0.1,6.3,0.3c2,0.2,2.3,0.2,2.4,0c0.3-0.4,1.5-4.4,1.6-5c0-0.6-0.1-0.7-3.3-1.1
			c-3.2-0.4-9.3-0.3-12,0.2c-6.5,1.2-10.7,3.6-12.3,7c-1.5,3.2-1,5.8,1.7,8.5c1.6,1.6,2.9,2.4,7.3,4.7c7.4,3.9,8.6,4.6,9.6,6.2
			c0.5,0.9,0.6,1.3,0.2,2.2c-0.8,1.9-2.9,2.9-6.7,3.3c-5.5,0.5-10.1-0.3-17.9-3.3c-0.2-0.1-0.4,0.2-1,1.4c-1.1,2.3-2,4.5-1.8,4.6
			c0.2,0.2,3.5,1.4,5.5,2c2.8,0.8,6.2,1.4,9.5,1.8C-736.9,536.7-735.1,536.7-732.8,536.6L-732.8,536.6L-732.8,536.6z M-650.7,536.1
			c1.2-0.2,2.9-0.5,3.8-0.7c1.6-0.4,5.1-1.4,5.4-1.6c0.1-0.1,1.2-3.3,2.4-7.1c1.2-3.8,2.3-7.1,2.3-7.1c0.1-0.1,4-0.1,8.8-0.2
			l8.7-0.1l0.8-2.5c0.4-1.4,0.8-2.6,0.8-2.8c0-0.5-0.6-0.6-9.3-0.6c-4.3,0-7.8,0-7.8-0.1s2.7-8.6,2.8-8.7c0,0,4.7-0.1,10.5-0.2
			l10.4-0.1l0.8-2.6c0.4-1.4,0.8-2.8,0.8-3c0-0.4,0-0.4-1.4-0.5c-1.8-0.1-19.7-0.1-24.3,0l-3.6,0.1l-1.8,5.4
			c-1,2.9-2.7,8.4-3.9,12.1c-1.2,3.7-2.6,8.2-3.2,10.1l-1.1,3.4l-0.9,0.2c-3.8,0.8-9.7,0.6-13.1-0.2c-4.2-1.1-7-3.4-8.1-6.9
			c-0.6-1.9-0.6-5,0-7.1c1.4-4.4,5.4-8,10.5-9.6c3-0.9,3.8-1,9.6-1h5.4l1-3c0.5-1.7,0.9-3.1,0.8-3.2c-0.6-0.6-10.4-0.8-13.9-0.3
			c-6.4,0.9-11.6,3.3-15.8,7.1c-0.8,0.7-1.5,1.3-1.5,1.3s0.4-1.6,1-3.4c1.3-4.4,1.3-4.6,0.8-4.7c-0.5-0.1-5.8-0.1-6.7,0l-0.7,0.1
			l-0.7,2.1c-0.4,1.2-2.3,6.8-4.1,12.6c-1.9,5.8-3.4,10.5-3.4,10.5s-0.6-1.2-1.2-2.7c-2.2-5.2-4.7-10-7.8-14.7
			c-1.5-2.3-4.3-6.3-5.2-7.3l-0.7-0.9l-3.2-0.1c-1.8-0.1-3.6,0-4.2,0l-0.9,0.1l-1.6,5c-0.9,2.7-2.3,6.9-3,9.4
			c-0.8,2.4-1.4,4.5-1.4,4.6s0.6,0.8,1.3,1.6c1.6,1.6,2.3,2.5,3,4.1c0.4,0.9,0.6,1.1,0.9,1c0.3,0,0.7-0.9,3-8c1.4-4.4,2.7-8,2.7-8
			c0.1-0.1,0.6,0.7,1.3,1.7c4.5,6.9,8.3,14.8,11.1,23.1l1.1,3.2h4.5h4.5l2.1-6.4c1.1-3.5,2.1-6.6,2.2-6.8c0.1-0.3,0.2-0.2,0.6,1.1
			c1.6,5.2,5.3,8.8,11.2,11c1.5,0.6,4.5,1.3,6.1,1.5C-660,536.6-653.1,536.5-650.7,536.1L-650.7,536.1L-650.7,536.1z"/>
	</g>
	<g id="Calque_1_2_" class="st0">
		<path id="path9752_1_" class="st4" d="M30.7,84.8c-0.2-0.2-0.5-0.5-0.7-0.8l-0.4-0.4V42.9c0-38.4,0-40.8,0.3-41.3
			c0.6-1.2,0.7-1.2,5.3-1.4c11.4-0.4,24.6,0,38,1C110.6,4,144,11.5,169.9,22.9c8.3,3.7,20.7,10.5,22.1,12.1c0.8,1,1.1-0.2-6.7,24.4
			c-6.7,20.9-7.9,24.7-8.3,25.1c-0.2,0.3-0.6,0.4-1.3,0.5c-0.5,0.1-33.3,0.1-72.9,0.1C35.2,85.1,31,85.1,30.7,84.8L30.7,84.8z
			 M57,74c4.6-0.3,7.7-1.1,10.5-2.5c3.1-1.5,5.2-3.6,6.4-6.4c0.5-1.1,0.5-1.4,0.6-2.9c0-1.5,0-1.7-0.5-2.7c-0.7-1.4-2.4-3.2-4.4-4.5
			c-0.8-0.5-4.2-2.4-7.5-4c-4.8-2.4-6.2-3.2-6.9-3.9c-0.8-0.8-0.9-0.9-0.9-1.6c0-1.3,0.9-2.3,3-3.3c1.3-0.6,3-1,5.4-1.2
			c2-0.2,2.9-0.1,6.3,0.3c2,0.2,2.3,0.2,2.4,0c0.3-0.4,1.5-4.4,1.6-5c0-0.6-0.1-0.7-3.3-1.1c-3.2-0.4-9.3-0.3-12,0.2
			c-6.5,1.2-10.7,3.6-12.3,7c-1.5,3.2-1,5.8,1.7,8.5c1.6,1.6,2.9,2.4,7.3,4.7c7.4,3.9,8.6,4.6,9.6,6.2c0.5,0.9,0.6,1.3,0.2,2.2
			c-0.8,1.9-2.9,2.9-6.7,3.3C52,67.8,47.4,67,39.6,64c-0.2-0.1-0.4,0.2-1,1.4c-1.1,2.3-2,4.5-1.8,4.6c0.2,0.2,3.5,1.4,5.5,2
			c2.8,0.8,6.2,1.4,9.5,1.8C52.9,74.1,54.7,74.1,57,74L57,74L57,74z M139.1,73.5c1.2-0.2,2.9-0.5,3.8-0.7c1.6-0.4,5.1-1.4,5.4-1.6
			c0.1-0.1,1.2-3.3,2.4-7.1c1.2-3.8,2.3-7.1,2.3-7.1c0.1-0.1,4-0.1,8.8-0.2l8.7-0.1l0.8-2.5c0.4-1.4,0.8-2.6,0.8-2.8
			c0-0.5-0.6-0.6-9.3-0.6c-4.3,0-7.8,0-7.8-0.1s2.7-8.6,2.8-8.7c0,0,4.7-0.1,10.5-0.2l10.4-0.1l0.8-2.6c0.4-1.4,0.8-2.8,0.8-3
			c0-0.4,0-0.4-1.4-0.5c-1.8-0.1-19.7-0.1-24.3,0l-3.6,0.1l-1.8,5.4c-1,2.9-2.7,8.4-3.9,12.1c-1.2,3.7-2.6,8.2-3.2,10.1l-1.1,3.4
			l-0.9,0.2c-3.8,0.8-9.7,0.6-13.1-0.2c-4.2-1.1-7-3.4-8.1-6.9c-0.6-1.9-0.6-5,0-7.1c1.4-4.4,5.4-8,10.5-9.6c3-0.9,3.8-1,9.6-1h5.4
			l1-3c0.5-1.7,0.9-3.1,0.8-3.2c-0.6-0.6-10.4-0.8-13.9-0.3c-6.4,0.9-11.6,3.3-15.8,7.1c-0.8,0.7-1.5,1.3-1.5,1.3s0.4-1.6,1-3.4
			c1.3-4.4,1.3-4.6,0.8-4.7s-5.8-0.1-6.7,0l-0.7,0.1l-0.7,2.1c-0.4,1.2-2.3,6.8-4.1,12.6c-1.9,5.8-3.4,10.5-3.4,10.5
			s-0.6-1.2-1.2-2.7c-2.2-5.2-4.7-10-7.8-14.7c-1.5-2.3-4.3-6.3-5.2-7.3l-0.7-0.9l-3.2-0.1c-1.8-0.1-3.6,0-4.2,0L78,35.6l-1.6,5
			c-0.9,2.7-2.3,6.9-3,9.4c-0.8,2.4-1.4,4.5-1.4,4.6s0.6,0.8,1.3,1.6c1.6,1.6,2.3,2.5,3,4.1c0.4,0.9,0.6,1.1,0.9,1
			c0.3,0,0.7-0.9,3-8c1.4-4.4,2.7-8,2.7-8c0.1-0.1,0.6,0.7,1.3,1.7c4.5,6.9,8.3,14.8,11.1,23.1l1.1,3.2h4.5h4.5l2.1-6.4
			c1.1-3.5,2.1-6.6,2.2-6.8c0.1-0.3,0.2-0.2,0.6,1.1c1.6,5.2,5.3,8.8,11.2,11c1.5,0.6,4.5,1.3,6.1,1.5
			C129.8,74,136.7,73.9,139.1,73.5L139.1,73.5L139.1,73.5z"/>
	</g>
	<g class="st0">
		<path class="st3" d="M165,50.5c0.6-2.6,1.7-6.2,2.4-9.1c0.2-1.1,0.4-2.1,0.4-2.8c0-1.2-0.4-1.9-1.8-1.9c-0.9,0-1.4,0.5-2.1,2
			c-1.6,3.2-2.9,6.7-5.7,9c-1.7,1.5-4.3,2.4-8.1,2.4c-3.5,0-4.4-0.2-4.4-0.9c0-0.4,0.4-1.7,1.2-5.2l3.9-14.6h2.6c2.2,0,3,1.1,3,3.4
			c0,1-0.1,2.1-0.1,3c0.1,1.2,0.6,2.1,1.9,2.1c1.6,0,1.9-0.7,2.2-2.4c1-4.4,1.7-8.1,3.2-12.6c0.4-1.5,1-3.3,1-4.2
			c0-1.3-0.6-2.2-1.6-2.2c-1.6,0-2.5,1.9-3.5,4.3c-1.1,2.3-2.7,4.1-5.6,4.2c-0.6,0-1.3-0.1-1.9-0.2l4.2-14.9c0.6-1.9,0.8-3,1.3-3.3
			c0.7-0.2,1.6-0.2,4-0.2c3.9,0,5.7,1.7,5.9,3.9c0.2,1.9,0.2,3.7,0.3,4.9c0.2,2.5,0.9,2.8,1.9,2.8c1.9,0,2.1-1.2,2.7-3.6
			c1.2-5.1,2.9-10.3,2.9-11c0-1.2-1-1.5-2.9-1.5c-3.3,0-9.1,0.3-16.5,0.3c-9.1,0-13-0.3-16.6-0.3c-2.1,0-3.2,0.6-3.2,2.1
			c0,1.4,1.1,1.6,2.3,1.9c1.2,0.2,2,0.9,2,2.7c0,0.7-0.3,1.8-1.2,5.1c-1.6,5.5-4.4,15-9.3,33.2c-0.6,2.2-1.5,3-2.6,3.5L165,50.5
			L165,50.5z"/>
		<path class="st3" d="M192.2,50.5c-0.2-0.1-0.5-0.1-0.8-0.2c-1-0.2-2.2-0.4-2.2-1.8c0-0.4,0.2-1.6,0.8-3.9l2.9-10.9
			c0.2-1,0.4-1.6,0.7-2.1c0.4-0.2,1-0.3,1.6-0.3c0.9,0.1,1.6,0.7,2.1,3.1c0.7,5.3,1.4,10.7,2.1,16h18.7c-1.2-0.6-2-1.7-2.4-4.2
			c-1-5.9-1.8-10-2.7-12.8c-1.2-3.9-2.8-4.4-6.3-4.9v-0.2c2.5-0.3,4.9-1,7.1-1.9c5.8-2.4,9.6-6.7,9.6-13.3V13
			c0-8-5.1-11.1-12.4-11.1c-5.3,0-10.1,0.3-15.1,0.3c-6.4,0-10-0.3-13.5-0.3c-2,0-3.5,0.5-3.5,2.1c0,1.4,1.2,1.6,2.5,1.9
			c1.2,0.4,2.1,0.9,2.1,2.5c0,0.9-0.3,1.9-0.7,3.4c-3.4,11.9-6.7,23.9-10.1,35.9c-0.5,1.7-1.4,2.3-2.5,2.7L192.2,50.5L192.2,50.5z
			 M195.4,23.5l4.1-14.6c0.4-1.5,0.7-2.9,2.5-2.9c2.6,0,4,1.6,4,5.3v0.1c0,4-1.5,8.3-3.6,11.4c-1.9,2.6-4.3,4.4-6.7,4.4
			c-0.7,0-1.1-0.2-1.2-0.6C194.7,26.1,195,24.7,195.4,23.5"/>
		<path class="st3" d="M122.2,50.5c0.9-3.2,3.2-9.5,3.2-11.5c0-1.2-0.8-1.7-2-1.7c-1.6,0-2.1,0.3-4.6,4.8c-3.5,5.8-5.8,8.1-12.4,8.1
			h-2.1c-1-0.2-1.4-0.5-1.4-1.2c0-0.4,0.8-3,1.7-6.4c3-10.3,8.4-27.8,9.7-32.6c0.8-3,2.3-3.5,4.1-3.9c1.6-0.3,2.9-0.5,2.9-2.1
			c0-1.5-1-1.9-2.9-1.9c-1.8,0-6.3,0.3-9.9,0.3c-4.4,0-7.8-0.3-11.2-0.3c-3,0-4.5,0.2-4.5,2.1c0,1.2,1.3,1.6,2.6,1.8
			c1.2,0.2,2.5,0.7,2.5,2.3v0.1c0,0.4-0.4,2.1-1.1,4.6C94,23,87.5,44.2,86.3,47.6c-0.7,2.1-2.1,2.5-3.9,2.9h-0.1H122.2L122.2,50.5z"
			/>
		<path class="st3" d="M0.9,68.1h6.5c2.5,0,3,1.7,3,3.9c0,1.1,0,3.9-3.1,3.9h-5v5H0.9V68.1z M2.3,69.4v5.2H6c1.9,0,2.9,0,2.9-2.5
			s-0.4-2.8-2.2-2.8L2.3,69.4L2.3,69.4z"/>
		<path class="st3" d="M13.4,72l-0.1,1.1l0,0c0.5-1,1.5-1.2,2.5-1.2c1.7,0,2.5,0.9,2.5,2.5V75H17v-0.6c0-1.1-0.4-1.5-1.5-1.5
			c-1.7,0-2.2,0.8-2.2,2.4v5.6H12V72H13.4L13.4,72z"/>
		<path class="st3" d="M23.4,71.9c3.3,0,4,0.8,4,4.6c0,3.8-0.6,4.6-4,4.6s-4-0.8-4-4.6S20,71.9,23.4,71.9 M23.4,79.9
			c2.4,0,2.6-0.4,2.6-3.5s-0.2-3.5-2.6-3.5s-2.6,0.4-2.6,3.5C20.8,79.6,21,79.9,23.4,79.9"/>
		<polygon class="st3" points="32.9,80.9 31,80.9 28.1,72 29.4,72 32,79.9 32,79.9 34.5,72 35.9,72 		"/>
		<path class="st3" d="M44.5,78.2v0.3c0,2.4-1.8,2.5-3.8,2.5c-3.5,0-4-1.2-4-4.6c0-3.7,0.8-4.6,4-4.6c2.9,0,3.8,0.7,3.8,4v0.9h-6.4
			c0,2.8,0.2,3.2,2.6,3.2c1.8,0,2.4-0.1,2.4-1.4v-0.3H44.5z M43.1,75.7C43,73.2,42.7,73,40.7,73c-2.4,0-2.5,0.6-2.6,2.7H43.1z"/>
		<path class="st3" d="M47.8,73.1L47.8,73.1c0.5-1.1,1.8-1.2,2.8-1.2c2.3,0,3.4,0.6,3.4,3.1v5.9h-1.3v-6c0-1.6-0.6-1.9-2.1-1.9
			c-2.2,0-2.7,0.7-2.7,2.7v5.2h-1.3V72h1.3L47.8,73.1L47.8,73.1z"/>
		<path class="st3" d="M63.7,77.7v0.5c0,2.5-1.7,2.8-3.8,2.8c-3.7,0-4-1.4-4-4.8c0-2.9,0.5-4.4,3.8-4.4c2.2,0,3.9,0.2,3.9,2.8v0.2
			h-1.3v-0.3c0-1.6-0.9-1.7-2.4-1.7c-2.4,0-2.4,0.8-2.4,3.7c0,2.5,0.1,3.3,2.7,3.3c1.7,0,2.3-0.2,2.3-1.8v-0.4L63.7,77.7L63.7,77.7z
			"/>
		<path class="st3" d="M73,78.2v0.3c0,2.4-1.8,2.5-3.8,2.5c-3.5,0-4-1.2-4-4.6c0-3.7,0.8-4.6,4-4.6c2.9,0,3.8,0.7,3.8,4v0.9h-6.4
			c0,2.8,0.2,3.2,2.6,3.2c1.8,0,2.4-0.1,2.4-1.4v-0.3H73z M71.6,75.7c-0.1-2.5-0.4-2.7-2.4-2.7c-2.4,0-2.5,0.6-2.6,2.7H71.6z"/>
		<rect x="73.9" y="75.6" class="st3" width="4.4" height="1.3"/>
		<path class="st3" d="M80.8,78.2l-1,2.7h-1.5l4.6-12.8h2l4.8,12.8h-1.5l-1-2.7H80.8z M84,69.3L81.2,77h5.7L84,69.3z"/>
		<rect x="91" y="68.1" class="st3" width="1.3" height="12.8"/>
		<path class="st3" d="M95.8,73.1L95.8,73.1c0.6-1,1.8-1.2,2.9-1.2c3.3,0,3.5,1.9,3.5,4.6c0,3.5-0.9,4.6-3.5,4.6
			c-1,0-2.4-0.1-2.9-1.2l0,0v4.9h-1.3V72h1.3V73.1z M95.8,76.5c0,2.1,0.1,3.5,2.5,3.5c2.1,0,2.5-0.6,2.5-3.5c0-2.7-0.2-3.5-2.5-3.5
			C95.8,73,95.8,74.1,95.8,76.5"/>
		<path class="st3" d="M111.8,78.2v0.3c0,2.4-1.8,2.5-3.8,2.5c-3.5,0-4-1.2-4-4.6c0-3.7,0.8-4.6,4-4.6c2.9,0,3.8,0.7,3.8,4v0.9h-6.4
			c0,2.8,0.2,3.2,2.6,3.2c1.8,0,2.4-0.1,2.4-1.4v-0.3H111.8z M110.4,75.7c-0.1-2.5-0.4-2.7-2.4-2.7c-2.4,0-2.5,0.6-2.6,2.7H110.4z"
			/>
		<path class="st3" d="M120.8,74.3h-1.4V74c0-0.9-0.7-0.9-2.1-0.9c-1.7,0-2.5,0-2.5,1.1c0,1.6,0.4,1.5,1.8,1.5
			c2.3,0.1,4.4-0.2,4.4,2.7c0,2.5-1.7,2.6-3.7,2.6c-1.9,0-4-0.1-4-2.1v-0.8h1.4v0.7c0,0.9,0.5,1,2.6,1c0.9,0,2.3,0.2,2.3-1.4
			c0-1.7-0.7-1.4-2.3-1.5c-1.9-0.1-3.9,0.1-3.9-2.5s1.5-2.6,3.9-2.6c1.6,0,3.5,0.1,3.5,2.1L120.8,74.3L120.8,74.3z"/>
		<rect x="121.6" y="75.6" class="st3" width="4.4" height="1.3"/>
		<path class="st3" d="M130.5,81c-2.3,0-3.7-1.5-3.7-4v-4.9c0-3.6,2.2-4,5.3-4h1.2c2.7,0,3.5,1.2,3.5,3.7v0.4h-1.4v-0.4
			c0-1.8-0.4-2.5-2.3-2.5h-0.8c-3,0-4.1,0.4-4.1,2.7v3.5c0,2.9,0.1,4.2,2.5,4.2h1.7c2.3,0,3-0.3,3-2.1v-1h1.5v1.2
			c0,2.9-1.9,3.3-4.4,3.3h-2V81z"/>
		<path class="st3" d="M142.1,71.9c3.3,0,4,0.8,4,4.6c0,3.8-0.6,4.6-4,4.6c-3.3,0-4-0.8-4-4.6S138.8,71.9,142.1,71.9 M145.1,70.2
			l-0.4,0.7l-2.5-1.3l-2.6,1.3l-0.4-0.7l3-1.8L145.1,70.2z M142.1,79.9c2.4,0,2.6-0.4,2.6-3.5s-0.2-3.5-2.6-3.5s-2.6,0.4-2.6,3.5
			C139.5,79.6,139.7,79.9,142.1,79.9"/>
		<path class="st3" d="M152.8,73.1h-3.5v5.7c0,1,0.3,1.2,1.3,1.2c1.3,0,1.3-0.7,1.3-1.5v-0.7h1.3v0.7c0,1.8-0.7,2.6-2.6,2.6
			c-2.1,0-2.6-0.6-2.6-2.7v-5.3h-1.2V72h1.2v-2.2h1.3V72h3.5L152.8,73.1L152.8,73.1z"/>
		<path class="st3" d="M161.7,78.2v0.3c0,2.4-1.8,2.5-3.8,2.5c-3.5,0-4-1.2-4-4.6c0-3.7,0.8-4.6,4-4.6c2.9,0,3.8,0.7,3.8,4v0.9h-6.4
			c0,2.8,0.2,3.2,2.6,3.2c1.8,0,2.4-0.1,2.4-1.4v-0.3H161.7z M160.3,75.7c-0.1-2.5-0.4-2.7-2.4-2.7c-2.4,0-2.5,0.6-2.6,2.7H160.3z"
			/>
		<path class="st3" d="M175.6,79.8L175.6,79.8c-0.6,1-1.7,1.2-2.9,1.2c-3.2,0-3.5-1.8-3.5-4.6c0-2.7,0.3-4.6,3.5-4.6
			c1,0,2.5,0.1,2.9,1.2l0,0v-4.9h1.3v12.8h-1.3V79.8z M175.6,76.5c0-2.5-0.3-3.5-2.5-3.5c-2.1,0-2.5,0.4-2.5,3.5s0.6,3.5,2.5,3.5
			C175.2,79.9,175.6,79.2,175.6,76.5"/>
		<path class="st3" d="M183.8,78.2l-1,2.7h-1.5l4.7-12.8h2l4.8,12.8h-1.5l-1-2.7H183.8z M187,69.3l-2.8,7.7h5.7L187,69.3z"/>
		<polygon class="st3" points="200.1,73.2 194.8,79.8 200.1,79.8 200.1,80.9 193.2,80.9 193.2,79.7 198.6,73.1 193.7,73.1 193.7,72 
			200.1,72 		"/>
		<path class="st3" d="M207.6,79.7L207.6,79.7c-0.5,1.1-1.7,1.3-2.8,1.3c-2.4,0-3.2-1-3.2-3.3V72h1.3v5.7c0,1.4,0.1,2.2,1.8,2.2
			c1.9,0,2.9-0.3,2.9-2.4V72h1.3v8.9h-1.4L207.6,79.7L207.6,79.7z"/>
		<path class="st3" d="M212.4,72l-0.1,1.1l0,0c0.5-1,1.5-1.2,2.5-1.2c1.7,0,2.5,0.9,2.5,2.5V75H216v-0.6c0-1.1-0.4-1.5-1.5-1.5
			c-1.7,0-2.2,0.8-2.2,2.4v5.6H211V72H212.4L212.4,72z"/>
		<path class="st3" d="M47.2,7c0-0.3-0.3-0.4-0.5-0.5c-0.3-0.1-0.5-0.1-0.5-0.4c0-0.4,0.3-0.4,0.9-0.4c0.7,0,1.4,0.1,2.3,0.1
			c0.7,0,1.6-0.1,2-0.1S52,5.8,52,6.1c0,0.3-0.3,0.4-0.6,0.4c-0.4,0.1-0.7,0.2-0.8,0.8c-0.3,1-1.3,4.5-2,6.6
			c-0.2,0.7-0.3,1.2-0.3,1.3s0.1,0.2,0.3,0.2H49c1.3,0,1.8-0.5,2.5-1.6c0.5-0.9,0.6-1,0.9-1c0.2,0,0.4,0.1,0.4,0.4
			c0,0.5-0.5,1.9-0.7,2.5c-0.2,0.5-0.2,0.6-0.8,0.6c-0.7,0-1.6-0.1-4-0.1c-1.3,0-2.3,0.1-3.3,0.1c-0.3,0-0.5,0-0.5-0.3
			s0.3-0.4,0.5-0.5c0.3-0.1,0.6-0.1,0.8-0.6c0.2-0.7,1.6-5,2.1-7C47.1,7.4,47.2,7.1,47.2,7L47.2,7L47.2,7z"/>
		<path class="st3" d="M58.4,9.4c0,0.2-0.1,0.7-0.3,1.3c-0.2,0.7-0.5,1.5-0.8,2.1c-0.2,0.6-0.4,1-0.4,1.2c0,0.1,0.1,0.2,0.2,0.2
			c0.2,0,0.5-0.4,0.7-0.8c0.3-0.5,0.3-0.8,0.5-0.8c0.1,0,0.2,0.1,0.2,0.3c0,0.3-0.3,1-0.7,1.6c-0.7,1-1.8,2-3.1,2
			c-0.8,0-1.2-0.4-1.2-1.2c0-0.3,0.1-0.9,0.3-1.4c0.2-0.8,0.6-1.7,0.8-2.4c0.2-0.5,0.3-0.9,0.3-1s-0.1-0.2-0.2-0.2
			c-0.2,0-0.5,0.4-0.7,0.7s-0.4,0.6-0.5,0.6s-0.2-0.1-0.2-0.2c0-0.3,0.3-1,0.9-1.6c0.7-0.7,1.7-1.3,2.8-1.3
			C57.8,8.4,58.4,8.7,58.4,9.4L58.4,9.4z M59.1,6.2c0,0.7-0.6,1.6-1.6,1.6c-0.8,0-1.3-0.5-1.3-1.1c0-1,0.7-1.7,1.6-1.7
			C58.5,5,59.1,5.3,59.1,6.2L59.1,6.2z"/>
		<path class="st3" d="M59.8,11.5c0-1.8,1.4-3.1,3.4-3.1c0.7,0,1.1,0.1,1.5,0.3c0.3,0.1,0.5,0.2,0.7,0.2c0.5,0,1.4-0.1,1.8-0.1
			c0.2,0,0.4,0,0.4,0.2c0,0.1-0.1,0.3-0.2,0.5c-0.1,0.1-0.1,0.3-0.3,0.3L66,9.9c0.1,0.4,0.2,0.7,0.2,1.2c0,1.7-1.2,3.2-3.4,3.2
			c-0.7,0-1.3-0.3-1.5-0.3c-0.1,0-0.2,0.2-0.2,0.3c0,0.6,1,0.7,2.2,1c1,0.2,2.2,0.7,2.2,2c0,1.6-1.7,2.8-4.3,2.8c-2.4,0-3.4-1-3.4-2
			s1.1-1.3,1.9-1.6c-0.4-0.3-0.6-0.7-0.6-1c0-0.9,0.7-1.4,1.6-1.9C60.1,13,59.8,12.5,59.8,11.5L59.8,11.5L59.8,11.5z M61.9,19.4
			c0.5,0,1-0.3,1-0.7c0-0.6-0.4-0.8-0.9-0.9c-0.5-0.1-1.2-0.3-1.7-0.6c-0.1,0.1-0.2,0.3-0.2,0.6C60,18.6,60.8,19.4,61.9,19.4
			L61.9,19.4z M64,9.5c0-0.2-0.1-0.4-0.3-0.4c-0.6,0-1.6,3.4-1.6,4.1c0,0.2,0.1,0.4,0.3,0.4C63,13.7,64,10.5,64,9.5L64,9.5L64,9.5z"
			/>
		<path class="st3" d="M76.6,9.8c0,0.3-0.1,0.6-0.2,1c-0.3,0.9-0.7,1.9-1,2.6c-0.2,0.4-0.3,0.7-0.3,0.8s0,0.2,0.2,0.2
			c0.3,0,0.7-0.6,0.9-0.8c0.3-0.5,0.4-0.8,0.7-0.8c0.1,0,0.3,0.1,0.3,0.3c0,0.3-0.3,1-0.9,1.7c-0.7,0.9-1.8,1.7-3.2,1.7
			c-0.6,0-1.1-0.3-1.1-1c0-0.4,0.1-0.9,0.3-1.5c0.3-0.8,0.7-1.7,0.9-2.4c0.1-0.3,0.3-0.7,0.3-0.8c0-0.3-0.1-0.3-0.3-0.3
			c-0.4,0-0.9,0.5-1.6,1.8c-0.3,0.6-1.1,2.6-1.5,3.6c-0.2,0.4-0.3,0.5-1.1,0.5h-1.2c-0.5,0-0.6-0.1-0.6-0.2c0-0.1,0.1-0.3,0.1-0.5
			c0.4-1.2,0.9-2.8,1.4-4.2c0.1-0.4,0.2-0.7,0.2-0.8s-0.1-0.2-0.2-0.2c-0.2,0-0.5,0.3-0.8,0.8c-0.2,0.4-0.3,0.5-0.5,0.5
			c-0.1,0-0.3-0.1-0.3-0.3c0-0.3,0.3-0.9,0.8-1.5c0.7-0.7,1.7-1.5,2.7-1.5c0.7,0,1.1,0.3,1.1,1c0,0.3,0,0.5-0.1,0.8
			c-0.1,0.5-0.3,0.9-0.4,1.3l0,0c0.8-1.5,2.2-3.1,3.9-3.1C76.2,8.4,76.6,9,76.6,9.8L76.6,9.8L76.6,9.8z"/>
		<path class="st3" d="M85,10.1c0,1.8-2.1,2.4-3.6,2.6c-0.2,0-0.3,0.1-0.5,0.1c-0.1,0.3-0.1,0.7-0.1,1c0,0.7,0.2,1.2,0.8,1.2
			c0.7,0,1.3-0.7,1.8-1.3c0.2-0.3,0.4-0.6,0.6-0.6s0.3,0.1,0.3,0.3s-0.1,0.5-0.4,0.9c-0.7,0.9-2,2.2-3.9,2.2c-1.6,0-2.4-1.2-2.4-2.6
			c0-2.6,2.4-5.4,5.1-5.4C83.8,8.4,85,8.8,85,10.1L85,10.1z M82.7,9.2c-0.5,0-1.2,1.2-1.7,3c0.7-0.1,1.4-1,1.8-1.8
			C83,10.1,83,9.8,83,9.6C83,9.3,82.9,9.2,82.7,9.2L82.7,9.2L82.7,9.2z"/>
		<path class="st3" d="M91.2,13.4c0,0.9-0.4,1.7-1.2,2.2c-0.7,0.5-1.6,0.9-2.7,0.9c-0.6,0-1.7-0.1-2.2-0.6c-0.2-0.2-0.3-0.4-0.3-0.6
			c0-0.2,0-0.6,0.1-1c0.1-0.5,0.4-0.9,0.8-0.9c0.2,0,0.4,0.1,0.6,0.4c0.4,0.7,0.7,1.9,1.4,1.9c0.4,0,0.5-0.4,0.5-0.7
			c0-0.7-0.5-1.2-1-1.8s-1.1-1.2-1.1-2.1c0-1.7,1.6-2.8,3.5-2.8c0.7,0,2.3,0,2.3,0.9c0,0.2-0.1,0.5-0.2,0.9
			c-0.2,0.4-0.4,0.7-0.7,0.7c-0.5,0-0.7-0.5-0.8-0.9C90.1,9.4,89.9,9,89.5,9s-0.6,0.4-0.6,0.7c0,0.6,0.4,1.1,1.1,1.6
			C90.5,12,91.2,12.6,91.2,13.4L91.2,13.4L91.2,13.4z"/>
		<path class="st3" d="M35.6,29.2c-0.2,0.7-0.3,1-0.3,1.1c0,0.2,0.2,0.2,0.9,0.2c0.8,0,1.3-0.2,1.6-0.5c0.6-0.5,0.8-1.2,1.2-1.8
			c0.1-0.3,0.3-0.4,0.4-0.4c0.3,0,0.4,0.1,0.4,0.4c0,0.1,0,0.3-0.1,0.6c-0.1,0.7-0.4,1.7-0.5,2.2c-0.1,0.4-0.2,0.4-0.9,0.4
			c-0.9,0-2.4-0.1-4.3-0.1c-1.7,0-2.1,0.1-2.7,0.1c-0.3,0-0.5-0.1-0.5-0.3c0-0.3,0.3-0.3,0.6-0.4c0.3-0.1,0.5-0.2,0.7-0.8
			c1-3.7,1.6-5.6,1.9-6.7c0.2-0.7,0.2-0.9,0.2-1c0-0.4-0.1-0.5-0.4-0.6s-0.5-0.1-0.5-0.4s0.2-0.4,0.7-0.4c0.7,0,1.5,0.1,3.4,0.1
			c1.5,0,2.7-0.1,3.3-0.1c0.4,0,0.6,0,0.6,0.3c0,0.2-0.3,1.2-0.6,2.2c-0.1,0.5-0.2,0.7-0.5,0.7c-0.2,0-0.3-0.1-0.4-0.6
			c0-0.3,0-0.6-0.1-1c-0.1-0.5-0.4-0.8-1.2-0.8c-0.5,0-0.7,0-0.8,0.1c-0.1,0.1-0.1,0.3-0.3,0.7l-0.9,3c0.1,0,0.3,0,0.4,0
			c0.6,0,0.9-0.4,1.1-0.9s0.4-0.9,0.7-0.9c0.2,0,0.3,0.2,0.3,0.5c0,0.2-0.1,0.5-0.2,0.9c-0.3,0.9-0.5,1.7-0.7,2.6
			c-0.1,0.3-0.1,0.5-0.5,0.5c-0.3,0-0.4-0.2-0.4-0.4c0-0.2,0-0.4,0-0.6c0-0.5-0.2-0.7-0.6-0.7h-0.5L35.6,29.2z"/>
		<path class="st3" d="M49.4,24.5c0,0.7-0.3,1.4-1,1.4c-0.2,0-0.3,0-0.5-0.1c-0.1-0.1-0.3-0.2-0.3-0.4c-0.1-0.1-0.1-0.2-0.2-0.2
			s-0.3,0.1-0.5,0.3c-0.3,0.3-0.6,0.9-0.6,1.1s0.1,0.5,0.4,1.4s0.3,1.1,0.5,1.1c0.3,0,0.5-0.3,0.7-0.8c0.1-0.3,0.2-0.5,0.4-0.5
			c0.1,0,0.2,0.1,0.2,0.4c0,0.9-1.2,3.3-2.8,3.3c-0.5,0-0.8-0.4-1.1-0.9c-0.2-0.5-0.4-1.1-0.6-1.8c-0.1,0.3-0.7,1.4-1.5,2.1
			c-0.4,0.3-0.8,0.6-1.3,0.6c-0.8,0-1.1-0.5-1.1-1.2c0-0.6,0.3-1.6,1-1.6c0.4,0,0.5,0.1,0.7,0.3c0,0.1,0.1,0.3,0.1,0.4
			c0,0.2,0.1,0.3,0.3,0.3c0.4,0,0.8-0.6,1.4-1.7c-0.2-0.7-0.4-1.4-0.5-1.9c-0.1-0.6-0.3-0.9-0.5-0.9c-0.3,0-0.5,0.3-0.6,0.7
			c-0.2,0.4-0.2,0.7-0.5,0.7c-0.2,0-0.3-0.2-0.3-0.4c0-0.8,1.2-2.9,2.8-2.9c0.8,0,1.1,0.2,1.4,1.1c0.1,0.3,0.3,0.8,0.4,1.3
			c1.2-1.6,1.4-2.4,2.4-2.4C49,23.4,49.4,23.9,49.4,24.5L49.4,24.5L49.4,24.5z"/>
		<path class="st3" d="M58.4,25.8c0,1.3-0.6,2.7-1.6,3.8c-0.9,1-2.1,1.7-3.4,1.7c-0.7,0-1,0-1.2,0.1c-0.1,0.1-0.2,0.6-0.3,0.9
			c-0.2,0.6-0.3,1.1-0.3,1.4c0,0.4,0.4,0.5,0.7,0.5c0.4,0.1,0.7,0.1,0.7,0.4c0,0.4-0.2,0.4-0.8,0.4c-0.7,0-1.5-0.1-2.3-0.1
			c-1,0-1.9,0.1-2.2,0.1c-0.5,0-0.8-0.1-0.8-0.4c0-0.4,0.3-0.4,0.7-0.4c0.4-0.1,0.7-0.1,0.9-0.7l2.5-8.2c0.1-0.3,0.1-0.4-0.1-0.4
			c-0.3,0-0.8,0.2-1,0.2c-0.1,0-0.2,0-0.2-0.2c0-0.3,0.1-0.4,0.3-0.6c0.3-0.3,0.9-0.3,1.2-0.4c0.1,0,0.2-0.1,0.2-0.3l0.6-1.9
			c0.1-0.3,0.2-0.4,0.5-0.4s0.8,0,1.2,0h1c0.2,0,0.3,0.1,0.3,0.3c0,0.1,0,0.2-0.1,0.4c-0.1,0.4-0.3,0.9-0.4,1.4c0.3,0,0.5,0,0.7,0
			c0.3,0,0.5,0,0.7,0C57.5,23.4,58.4,24.1,58.4,25.8L58.4,25.8L58.4,25.8z M54.7,24.3c-0.1,0-0.3,0.1-0.3,0.1
			c-0.1,0.1-0.1,0.3-0.2,0.4c-0.6,2.2-1.1,3.5-1.3,4.3c-0.2,0.8-0.3,1-0.3,1.1c0,0.2,0.1,0.3,0.3,0.3c0.4,0,1-0.8,1.4-1.6
			c0.6-1.3,1.1-3,1.1-3.8C55.4,24.6,55.2,24.3,54.7,24.3L54.7,24.3z"/>
		<path class="st3" d="M66.8,24.7c0,1.1-0.8,2.3-1.7,2.3c-0.2,0-0.4-0.1-0.5-0.1c-0.2-0.1-0.3-0.3-0.3-0.6c0-0.4,0-0.5-0.2-0.5
			c-0.2,0-0.6,0.6-0.9,1.4c-0.3,0.7-1.1,3-1.3,3.5c-0.2,0.4-0.2,0.4-1.3,0.4c-1.4,0-1.5,0-1.5-0.2c0-0.1,0.1-0.3,0.1-0.6
			c0.3-1,0.9-3,1.3-4.3c0.1-0.4,0.2-0.7,0.2-0.9c0-0.1-0.1-0.2-0.1-0.2c-0.2,0-0.4,0.3-0.7,0.7c-0.1,0.2-0.2,0.4-0.3,0.6
			c-0.1,0.1-0.2,0.1-0.3,0.1c-0.2,0-0.2-0.1-0.2-0.2c0-0.3,0.3-1.1,0.9-1.7c0.5-0.6,1.3-1.2,2.2-1.2c0.6,0,1.1,0.3,1.1,1.1
			c0,0.6-0.2,1.4-0.4,2.2l0,0c0.6-1.1,1.4-3.3,2.8-3.3C66.4,23.4,66.8,24,66.8,24.7L66.8,24.7L66.8,24.7z"/>
		<path class="st3" d="M73.9,25.1c0,1.8-2.1,2.4-3.6,2.6c-0.2,0-0.3,0.1-0.5,0.1c-0.1,0.3-0.1,0.7-0.1,1c0,0.7,0.2,1.2,0.8,1.2
			c0.7,0,1.3-0.7,1.8-1.3c0.2-0.3,0.4-0.6,0.6-0.6s0.3,0.1,0.3,0.3c0,0.2-0.1,0.5-0.4,0.9c-0.7,0.9-2,2.2-3.9,2.2
			c-1.6,0-2.4-1.2-2.4-2.6c0-2.6,2.4-5.4,5.1-5.4C72.7,23.4,73.9,23.8,73.9,25.1L73.9,25.1z M71.5,24.2c-0.5,0-1.2,1.2-1.7,3
			c0.7-0.1,1.4-1,1.8-1.8c0.2-0.3,0.2-0.6,0.2-0.8C71.9,24.4,71.7,24.2,71.5,24.2L71.5,24.2z"/>
		<path class="st3" d="M80,28.4c0,0.9-0.4,1.7-1.2,2.2c-0.7,0.5-1.6,0.9-2.7,0.9c-0.6,0-1.7-0.1-2.2-0.6c-0.2-0.2-0.3-0.4-0.3-0.6
			s0-0.6,0.1-1c0.1-0.5,0.4-0.9,0.8-0.9c0.2,0,0.4,0.1,0.6,0.4c0.4,0.7,0.7,1.9,1.4,1.9c0.4,0,0.5-0.4,0.5-0.7c0-0.7-0.5-1.2-1-1.8
			c-0.5-0.6-1.1-1.2-1.1-2.1c0-1.7,1.6-2.8,3.5-2.8c0.7,0,2.3,0.1,2.3,0.9c0,0.2-0.1,0.5-0.2,0.9s-0.4,0.7-0.7,0.7
			c-0.5,0-0.7-0.5-0.8-0.9c-0.1-0.5-0.3-0.9-0.7-0.9c-0.4,0-0.6,0.4-0.6,0.7c0,0.6,0.4,1.1,1.1,1.6C79.4,27,80,27.6,80,28.4L80,28.4
			L80,28.4z"/>
		<path class="st3" d="M86.9,28.4c0,0.9-0.4,1.7-1.2,2.2c-0.7,0.5-1.6,0.9-2.7,0.9c-0.6,0-1.7-0.1-2.2-0.6c-0.2-0.2-0.3-0.4-0.3-0.6
			s0-0.6,0.1-1c0.1-0.5,0.4-0.9,0.8-0.9c0.2,0,0.4,0.1,0.6,0.4c0.4,0.7,0.7,1.9,1.4,1.9c0.4,0,0.5-0.4,0.5-0.7c0-0.7-0.5-1.2-1-1.8
			c-0.5-0.6-1.1-1.2-1.1-2.1c0-1.7,1.6-2.8,3.5-2.8c0.7,0,2.3,0.1,2.3,0.9c0,0.2-0.1,0.5-0.2,0.9c-0.2,0.4-0.4,0.7-0.7,0.7
			c-0.5,0-0.7-0.5-0.8-0.9c-0.1-0.5-0.3-0.9-0.7-0.9s-0.6,0.4-0.6,0.7c0,0.6,0.4,1.1,1.1,1.6C86.2,27,86.9,27.6,86.9,28.4L86.9,28.4
			L86.9,28.4z"/>
		<path class="st3" d="M13.1,38c0,1.3-0.8,2.2-2,2.7c-0.4,0.2-0.9,0.3-1.4,0.4l0,0c0.7,0.1,1,0.2,1.3,1c0.2,0.6,0.3,1.4,0.6,2.6
			c0.1,0.6,0.3,0.8,0.6,0.9c0.2,0.1,0.4,0.1,0.4,0.3c0,0.3-0.2,0.4-0.6,0.4c-0.5,0-1.1-0.1-1.7-0.1c-0.7,0-1.1,0.1-1.6,0.1
			c-0.2,0-0.3-0.1-0.4-0.5c-0.1-1.2-0.3-2.3-0.5-3.5c-0.1-0.5-0.2-0.6-0.4-0.6c-0.1,0-0.2,0-0.3,0.1C7,41.9,7,42,7,42.2l-0.6,2.2
			c-0.1,0.5-0.2,0.7-0.2,0.8c0,0.3,0.3,0.3,0.5,0.4s0.4,0.1,0.4,0.4s-0.3,0.4-0.6,0.4c-0.7,0-1.6-0.1-2.5-0.1
			c-0.7,0-1.5,0.1-1.8,0.1s-0.6,0-0.6-0.3s0.2-0.3,0.5-0.4s0.5-0.1,0.7-0.6c0.7-2.4,1.4-4.9,2.1-7.3C5,37.5,5,37.3,5,37.1
			c0-0.3-0.2-0.4-0.4-0.5c-0.2-0.1-0.5-0.1-0.5-0.4s0.3-0.4,0.7-0.4c0.7,0,1.4,0.1,2.7,0.1c1,0,2-0.1,3.1-0.1
			C12,35.7,13.1,36.4,13.1,38L13.1,38L13.1,38z M9.6,37.6c0-0.8-0.3-1.1-0.8-1.1c-0.4,0-0.4,0.3-0.5,0.6l-0.8,3
			c-0.1,0.2-0.1,0.5-0.1,0.7c0,0.1,0.1,0.1,0.2,0.1c0.5,0,1-0.4,1.4-0.9C9.3,39.3,9.6,38.5,9.6,37.6L9.6,37.6z"/>
		<path class="st3" d="M20.6,40.1c0,1.8-2.1,2.4-3.6,2.6c-0.2,0-0.3,0-0.5,0.1c-0.1,0.3-0.1,0.7-0.1,1c0,0.7,0.2,1.2,0.8,1.2
			c0.7,0,1.4-0.6,1.8-1.3c0.2-0.3,0.4-0.6,0.6-0.6s0.3,0.1,0.3,0.3c0,0.2-0.1,0.5-0.4,0.9c-0.7,0.9-2,2.2-3.9,2.2
			c-1.6,0-2.4-1.2-2.4-2.6c0-2.6,2.4-5.4,5.1-5.4C19.4,38.4,20.6,38.8,20.6,40.1L20.6,40.1z M18.2,39.2c-0.5,0-1.2,1.2-1.7,3
			c0.7-0.1,1.4-1,1.8-1.8c0.1-0.3,0.2-0.6,0.2-0.8C18.6,39.4,18.4,39.2,18.2,39.2L18.2,39.2z M17.3,37.5c-0.1,0-0.2-0.1-0.2-0.2
			c0-0.2,0.2-0.3,0.4-0.6l1.7-1.8c0.4-0.3,0.7-0.6,1.1-0.6s0.8,0.2,0.8,0.8c0,0.5-0.3,0.7-0.7,0.9l-2.2,1
			C17.9,37.3,17.5,37.5,17.3,37.5L17.3,37.5L17.3,37.5z"/>
		<path class="st3" d="M21.4,41.5c0-1.8,1.3-3.1,3.4-3.1c0.7,0,1.1,0.1,1.5,0.3c0.4,0.1,0.5,0.2,0.7,0.2c0.5,0,1.4-0.1,1.8-0.1
			c0.2,0,0.4,0,0.4,0.2c0,0.1-0.1,0.3-0.2,0.5c-0.1,0.1-0.1,0.3-0.3,0.3l-1.1,0.1c0.1,0.4,0.2,0.7,0.2,1.2c0,1.7-1.2,3.2-3.4,3.2
			c-0.7,0-1.3-0.3-1.5-0.3c-0.1,0-0.2,0.2-0.2,0.3c0,0.6,1,0.7,2.2,1c1,0.2,2.2,0.7,2.2,2c0,1.6-1.7,2.8-4.3,2.8c-2.4,0-3.4-1-3.4-2
			s1.1-1.3,1.9-1.6c-0.4-0.3-0.6-0.7-0.6-1c0-0.9,0.7-1.4,1.6-1.9C21.7,43.1,21.4,42.5,21.4,41.5L21.4,41.5L21.4,41.5z M23.4,49.4
			c0.5,0,1-0.3,1-0.7c0-0.6-0.4-0.8-0.9-0.9s-1.2-0.3-1.7-0.6c-0.1,0.1-0.2,0.3-0.2,0.6C21.6,48.6,22.4,49.4,23.4,49.4L23.4,49.4z
			 M25.6,39.5c0-0.2-0.1-0.4-0.3-0.4c-0.6,0-1.6,3.4-1.6,4.1c0,0.2,0.1,0.4,0.3,0.4C24.6,43.7,25.6,40.5,25.6,39.5L25.6,39.5
			L25.6,39.5z"/>
		<path class="st3" d="M33.7,39.4c0,0.2-0.1,0.7-0.3,1.3c-0.2,0.7-0.5,1.5-0.8,2.1c-0.2,0.6-0.4,1-0.4,1.2c0,0.1,0.1,0.2,0.2,0.2
			c0.2,0,0.5-0.4,0.7-0.8c0.3-0.6,0.3-0.8,0.5-0.8c0.1,0,0.2,0.1,0.2,0.3c0,0.3-0.3,1-0.7,1.6c-0.7,1-1.8,2-3.1,2
			c-0.8,0-1.2-0.4-1.2-1.2c0-0.3,0.1-0.9,0.3-1.4c0.2-0.8,0.6-1.7,0.8-2.4c0.2-0.5,0.3-0.9,0.3-1s-0.1-0.2-0.2-0.2
			c-0.2,0-0.5,0.4-0.7,0.7c-0.2,0.3-0.4,0.6-0.5,0.6s-0.2-0.1-0.2-0.2c0-0.3,0.3-1,0.9-1.6c0.7-0.7,1.7-1.3,2.8-1.3
			C33.2,38.4,33.7,38.7,33.7,39.4L33.7,39.4L33.7,39.4z M34.4,36.2c0,0.7-0.6,1.6-1.6,1.6c-0.8,0-1.3-0.5-1.3-1.1
			c0-1,0.7-1.7,1.6-1.7C33.8,35,34.4,35.3,34.4,36.2L34.4,36.2z"/>
		<path class="st3" d="M42.5,41.7c0,1.3-0.5,2.4-1.3,3.3c-0.9,0.9-2.1,1.5-3.5,1.5c-2.1,0-3.3-1.5-3.3-3.4c0-2.6,2.1-4.6,4.7-4.6
			C41.2,38.4,42.5,39.7,42.5,41.7L42.5,41.7z M39.8,39.7c0-0.3-0.1-0.5-0.3-0.5c-0.5,0-0.8,0.6-1.4,2.3c-0.3,0.7-0.9,3-0.9,3.7
			c0,0.3,0.1,0.5,0.3,0.5c0.4,0,0.8-0.7,1.4-2.3C39.1,42.7,39.8,40.4,39.8,39.7L39.8,39.7L39.8,39.7z"/>
		<path class="st3" d="M52.6,39.8c0,0.3-0.1,0.6-0.2,1c-0.3,0.9-0.7,1.9-1,2.6c-0.2,0.4-0.3,0.7-0.3,0.8c0,0.1,0.1,0.2,0.2,0.2
			c0.3,0,0.7-0.5,0.9-0.8c0.3-0.5,0.4-0.8,0.7-0.8c0.1,0,0.3,0.1,0.3,0.3c0,0.3-0.3,1-0.9,1.7c-0.7,0.9-1.8,1.7-3.2,1.7
			c-0.6,0-1.1-0.3-1.1-1c0-0.4,0.1-0.9,0.3-1.5c0.3-0.8,0.7-1.7,0.9-2.4c0.1-0.3,0.3-0.7,0.3-0.8c0-0.3-0.1-0.3-0.3-0.3
			c-0.4,0-0.9,0.5-1.6,1.8c-0.3,0.6-1.1,2.6-1.5,3.6c-0.2,0.4-0.3,0.5-1.1,0.5h-1.2c-0.5,0-0.6-0.1-0.6-0.2s0.1-0.3,0.1-0.5
			c0.4-1.2,0.9-2.8,1.4-4.2c0.1-0.4,0.2-0.7,0.2-0.8c0-0.1,0-0.2-0.1-0.2c-0.2,0-0.5,0.3-0.8,0.8c-0.2,0.4-0.3,0.5-0.5,0.5
			s-0.3-0.1-0.3-0.3c0-0.3,0.3-0.9,0.8-1.5c0.7-0.7,1.7-1.5,2.7-1.5c0.7,0,1.1,0.3,1.1,1c0,0.3,0,0.5-0.1,0.8
			c-0.1,0.5-0.3,0.9-0.4,1.3l0,0c0.8-1.5,2.2-3.1,3.9-3.1C52.2,38.4,52.6,39,52.6,39.8L52.6,39.8L52.6,39.8z"/>
		<path class="st3" d="M53.4,44.8c0-1.3,0.7-2.9,1.6-4.1c1-1.2,2.2-2.1,3.2-2.1c0.8,0,1,0.3,1.3,0.3c0.2,0,0.2-0.1,0.3-0.3
			c0.1-0.2,0.4-0.3,0.7-0.3H62c0.3,0,0.6,0,0.6,0.4c0,0.1-0.1,0.5-0.2,0.9c-0.3,1-0.8,2.5-1.1,3.4c-0.1,0.4-0.2,0.7-0.2,0.9
			c0,0.2,0.1,0.2,0.2,0.2c0.2,0,0.4-0.2,0.7-0.7c0.3-0.5,0.4-0.7,0.6-0.7s0.3,0.1,0.3,0.3c0,0.4-0.5,1.3-1.2,2
			c-0.7,0.8-1.7,1.4-2.6,1.4c-0.7,0-1-0.4-1-0.9c0-0.2,0-0.5,0.1-0.7c0.1-0.5,0.2-1.2,0.3-1.5l0,0c-0.8,1.4-2,3.1-3.5,3.1
			C53.8,46.5,53.4,45.8,53.4,44.8L53.4,44.8L53.4,44.8z M59.4,39.9c0-0.1-0.1-0.3-0.3-0.3c-0.3,0-0.7,0.4-1.3,1.3
			c-0.9,1.6-1.2,2.4-1.2,2.7c0,0.2,0.1,0.3,0.3,0.3c0.3,0,0.9-0.8,1.5-1.6C59,41.4,59.4,40.4,59.4,39.9L59.4,39.9z"/>
		<path class="st3" d="M63.4,45.3c0-0.4,0.1-1.1,0.4-2c0.4-1.6,1.1-3.7,1.6-5.2c0.2-0.6,0.3-1.1,0.3-1.2c0-0.4-0.2-0.5-0.6-0.6
			c-0.2,0-0.5-0.1-0.5-0.3c0-0.3,0.2-0.3,0.8-0.4c1-0.1,2-0.4,2.9-0.7c0.3-0.1,0.5-0.2,0.7-0.2s0.3,0.1,0.3,0.2s-0.1,0.4-0.2,0.7
			c-0.5,1.6-1.6,4.9-2.2,7c-0.2,0.7-0.4,1.3-0.4,1.4c0,0.2,0.1,0.3,0.2,0.3c0.2,0,0.5-0.3,0.9-0.9c0.2-0.4,0.3-0.6,0.5-0.6
			s0.2,0.1,0.2,0.3c0,0.3-0.3,0.9-0.7,1.6c-0.7,0.9-1.8,1.9-3.1,1.9C63.8,46.5,63.4,46,63.4,45.3L63.4,45.3L63.4,45.3z"/>
		<path class="st3" d="M76.4,40.1c0,1.8-2.1,2.4-3.6,2.6c-0.2,0-0.3,0.1-0.5,0.1c-0.1,0.3-0.1,0.7-0.1,1c0,0.7,0.2,1.2,0.8,1.2
			c0.7,0,1.4-0.6,1.8-1.3c0.2-0.3,0.4-0.6,0.6-0.6s0.3,0.1,0.3,0.3c0,0.2-0.1,0.5-0.4,0.9c-0.7,0.9-2,2.2-3.9,2.2
			c-1.6,0-2.4-1.2-2.4-2.6c0-2.6,2.4-5.4,5.1-5.4C75.2,38.4,76.4,38.8,76.4,40.1L76.4,40.1z M74.1,39.2c-0.5,0-1.2,1.2-1.7,3
			c0.7-0.1,1.4-1,1.8-1.8c0.1-0.3,0.2-0.6,0.2-0.8C74.4,39.4,74.3,39.2,74.1,39.2L74.1,39.2z"/>
		<path class="st3" d="M82.6,43.4c0,0.9-0.4,1.7-1.2,2.2c-0.7,0.5-1.6,0.9-2.7,0.9c-0.6,0-1.7-0.1-2.2-0.6c-0.2-0.2-0.3-0.4-0.3-0.6
			s0-0.6,0.1-1c0.1-0.5,0.4-0.9,0.8-0.9c0.2,0,0.4,0.1,0.6,0.4c0.4,0.7,0.7,1.9,1.4,1.9c0.4,0,0.5-0.4,0.5-0.7c0-0.7-0.5-1.2-1-1.8
			c-0.5-0.6-1.1-1.2-1.1-2.1c0-1.7,1.6-2.8,3.5-2.8c0.7,0,2.3,0.1,2.3,0.9c0,0.2-0.1,0.5-0.2,0.9s-0.4,0.7-0.7,0.7
			c-0.5,0-0.7-0.5-0.8-0.9c-0.1-0.5-0.3-0.9-0.7-0.9s-0.6,0.4-0.6,0.7c0,0.6,0.4,1.1,1.1,1.6C81.9,42,82.6,42.6,82.6,43.4L82.6,43.4
			L82.6,43.4z"/>
		<rect x="-1.3" y="56" class="st3" width="221.3" height="3.8"/>
		<rect x="-1.3" y="59.8" class="st3" width="221.3" height="3.8"/>
		<text transform="matrix(1 0 0 1 177.5089 79.8848)" class="st3 st5 st6">‘</text>
	</g>
	<g>
		<path class="st2" d="M221.8,22c0,0-12.2,14.3-36.7,14.2c-24.5-0.2-27-0.6-50.4-5.8s-34.8-4.6-51.1-0.5c0,0,6-5.3,5.9-13.7
			c-0.1-8.3-5-11.8-5-11.8S73.4-6.1,51.3,6.7S24.8,53.4,24.8,53.4S6.3,60.5,0.4,59.1c0,0-2.6,4.7,5.9,5.4c8.5,0.7,17.9-3.3,17.9-3.3
			s0.2,13.4,4.9,17.5c4.7,4,10.9,6.8,26.1,0.5C70.4,73,84.4,58.1,84.4,58.1l-1.6-2.2c0,0-30.8,16-40.1,15.2c0,0-2.4-5.2-1.3-15.9
			c0,0,28.8-11.5,32.6-12.9c3.8-1.3,17.5-9.2,47-2.8s40.5,14.6,68.6,8C204.4,44,223,23.9,223,23.9L221.8,22z M70.8,31.3
			C63.9,36.5,43.5,45,43.5,45c4.7-18.3,19.8-32.9,19.8-32.9s5.6-4.5,7.7-4.2c2.1,0.2,4.7,4.8,5.8,8.9S77.7,26.2,70.8,31.3z"/>
		<g>
			<path class="st2" d="M93.2,73V59.2h9.3V61h-7.2v3.8h6.3v1.8h-6.3v4.5h7.6v1.8C103,73,93.2,73,93.2,73z M106.6,67.6v-8.5h2.1v8.2
				c0,2.3,1,4,4,4c2.9,0,3.8-1.6,3.8-4v-8.2h2.1v8.4c0,3.2-1.8,5.6-6.1,5.6C108.3,73.2,106.6,70.6,106.6,67.6 M122.9,73V59.2h4
				c3.8,0,5.8,1.3,5.8,4c0,1.6-1,3-2.8,3.8l4.3,5.8V73h-2.4l-3.8-5.2h-3V73H122.9z M128.7,66c1-0.5,1.8-1.3,1.8-2.7
				c0-1.7-1-2.3-3.7-2.3H125v5H128.7z M135.7,66.1c0-3.7,2.5-7.2,7.2-7.2s7.2,3.5,7.2,7.2c0,3.7-2.5,7.2-7.2,7.2
				C138.2,73.2,135.7,69.8,135.7,66.1 M147.9,66.1c0-3-1.7-5.3-5-5.3s-5,2.3-5,5.3c0,3,1.7,5.3,5,5.3S147.9,69.1,147.9,66.1
				 M152.7,72.3v-2h0.2c1.3,0.5,2.9,1,4.3,1c2.5,0,3.7-0.8,3.7-2c0-1.3-1-1.8-2.5-2.4l-2.3-0.8c-2-0.7-3-1.8-3-3.6
				c0-2.4,2.3-3.7,5.5-3.7c1.3,0,3.2,0.4,4.1,0.8v1.8h-0.2c-1.3-0.5-2.9-0.8-3.9-0.8c-2.1,0-3.3,0.4-3.3,1.7c0,1.2,1,1.6,2,1.9
				l2.1,0.8c2,0.7,3.6,1.7,3.6,4c0,2.5-2.3,4-5.8,4C155.5,73.2,154,72.9,152.7,72.3 M170.3,73V61h-5v-1.8h12V61h-4.9v12H170.3z
				 M177.4,73v-0.2l5.4-13.6h2.7l5.1,13.6V73h-2.3l-1.3-3.7h-6.1l-1.4,3.7H177.4z M186.4,67.5l-2.3-6.4l-2.4,6.4H186.4z M193.8,73
				V59.2h4c3.8,0,5.8,1.3,5.8,4c0,1.6-1,3-2.8,3.8l4.3,5.8V73h-2.4l-3.8-5.2h-3V73H193.8z M199.7,66c1-0.5,1.8-1.3,1.8-2.7
				c0-1.7-1-2.3-3.7-2.3H196v5H199.7z"/>
			<polygon class="st2" points="207.5,62.6 207.5,59.7 206.5,59.7 206.5,59.2 209.2,59.2 209.2,59.7 208.3,59.7 208.3,62.6 			"/>
			<polygon class="st2" points="212.9,62.6 212.9,60.3 211.9,61.7 211.5,61.7 210.7,60.3 210.7,62.6 209.9,62.6 209.9,59.2 
				210.8,59.2 211.8,60.8 212.9,59.2 213.6,59.2 213.6,62.6 			"/>
		</g>
	</g>
</g>
</svg>
