<?xml version="1.0" encoding="utf-8"?>
<!-- Generator: Adobe Illustrator 25.3.1, SVG Export Plug-In . SVG Version: 6.00 Build 0)  -->
<svg version="1.1"
	 id="svg19964" xmlns:cc="http://creativecommons.org/ns#" xmlns:dc="http://purl.org/dc/elements/1.1/" xmlns:inkscape="http://www.inkscape.org/namespaces/inkscape" xmlns:rdf="http://www.w3.org/1999/02/22-rdf-syntax-ns#" xmlns:sodipodi="http://sodipodi.sourceforge.net/DTD/sodipodi-0.dtd" xmlns:svg="http://www.w3.org/2000/svg"
	 xmlns="http://www.w3.org/2000/svg" xmlns:xlink="http://www.w3.org/1999/xlink" x="0px" y="0px" viewBox="0 0 142.9 47.6"
	 style="enable-background:new 0 0 142.9 47.6;" xml:space="preserve">
<style type="text/css">
	.st0{fill-rule:evenodd;clip-rule:evenodd;fill:#FFFFFF;}
</style>
<sodipodi:namedview  bordercolor="#FFFFFF" borderopacity="1.0" fit-margin-bottom="1" fit-margin-left="1" fit-margin-right="1" fit-margin-top="1" id="base" inkscape:current-layer="layer1" inkscape:cx="115.08926" inkscape:cy="56.982239" inkscape:document-units="px" inkscape:pageopacity="0.0" inkscape:pageshadow="2" inkscape:window-height="1017" inkscape:window-maximized="1" inkscape:window-width="1920" inkscape:window-x="-8" inkscape:window-y="-8" inkscape:zoom="5.6" pagecolor="#ffffff" showgrid="false">
	</sodipodi:namedview>
<g id="layer1" transform="translate(-109.80966,-786.72229)" inkscape:groupmode="layer" inkscape:label="Calque 1">
	<g id="g20001">
		<path id="path17352" inkscape:connector-curvature="0" class="st0" d="M201.6,831.7c-9.8,4.8-23.8,2.8-27-10.9l3-4.7
			C185,831.7,188.6,832.4,201.6,831.7L201.6,831.7L201.6,831.7z"/>
		<path id="path17354" inkscape:connector-curvature="0" class="st0" d="M164,813.2c-0.7-0.8-2.5-1.6-5-2c-2.4-0.4-7.3-0.6-12.7,2.1
			c-5.6,2.9-9.2,8.2-7.6,13.3c0,0-4.7,1.8-8.3,1c-1.9-0.4-3.7-1.8-4.3-3.7c-0.9-2.9-0.2-7.9,4.8-12.4c6.6-6,16.5-8.2,20.7-9.1
			c1.9-0.4,2.2-0.5,2.3-0.8c0-0.1,0.1-0.6-0.3-1c-0.6-0.7-2.3-1.4-7-0.9c-4.8,0.5-11.4,2.5-13.4,3.1c1.4-2.8,5.5-10.4,6.3-11.8
			c1.2-2.3,1.7-3.3,1.7-3.8c0-0.2,0-0.3-0.1-0.3c-0.7-0.6-4.6,1.5-7.6,5c-3,3.6-4.6,6.4-7,10.2c-2.6,4.2-10.9,6.3-14.9,7.4
			c-1.1,0.3-1.4,0.3-1.5,0.5c-0.1,0.1-0.2,0.3-0.1,0.5c0.3,1.2,2.4,2.4,4.5,2.5c1.5,0.1,3.3-0.2,6.2-1c-1.5,2.4-4.1,7.7-4.1,12.7
			c0,3.9,1.8,8.6,9.5,9.3c6,0.6,11.9-1.6,16-3.1c4.6,3.6,10.9,3.4,11,3.4c16.2,0,23.7-13,25.1-15.4c0,0,1.5,4.8,4.3,8.7
			c3.9,5.3,9.2,7,14.7,6.5c6.5-0.6,10.7-5.7,11.1-6.6c0.2-0.5,0-1-1.2-0.3c-1,0.5-2.1,1.4-4.8,1.9c-12.1,2.3-15.7-10.3-18.3-15.7
			c-0.4-0.8-0.7-1.3-1-1.5c-0.7-0.3-6.5,0.7-7.1,1.9c-6.4,11.8-14.6,14.5-20.9,14.5c-2.1,0-3.9-0.4-5.3-1.1c2.5-1.2,4.2-2.2,6-3.3
			c6.5-4.3,8.9-9,8.9-10.5C164.2,813.4,164.1,813.3,164,813.2L164,813.2 M145.1,822.3c0-0.3,0-0.6,0.1-0.9c0.4-1.7,1.7-3.5,3.4-4.6
			c5.5-3.3,10-2.4,10.7-2c0.1,0,0,0.1,0,0.2c-0.6,1.6-6.3,6.6-13.6,9.2C145.3,823.8,145.1,823,145.1,822.3L145.1,822.3L145.1,822.3z
			"/>
		<path id="path17356" inkscape:connector-curvature="0" class="st0" d="M204.2,819.5c-0.4,0.7-0.9,1.2-1.5,1.6
			c-0.6,0.4-1.4,0.5-2.2,0.5c-1.6,0-2.8-0.5-3.8-1.6c-1-1.1-1.5-2.5-1.5-4.2c0-1.5,0.5-2.8,1.4-3.8c0.9-1,2.1-1.5,3.4-1.5
			c0.6,0,1.3,0.1,1.9,0.4c0.6,0.3,0.9,0.4,1,0.4c0.1,0,0.2,0,0.2-0.1c0.1,0,0.1-0.1,0.2-0.3h0.7v3h-0.4c-0.2,0-0.3,0-0.4-0.1
			c-0.1-0.1-0.2-0.2-0.3-0.3l-0.1-0.1c-0.7-1.3-1.4-1.9-2.2-1.9c-0.8,0-1.5,0.4-2,1.1c-0.5,0.8-0.7,1.8-0.7,3.1
			c0,1.5,0.3,2.7,0.9,3.6c0.6,0.9,1.4,1.3,2.4,1.3c0.5,0,0.9-0.1,1.3-0.3c0.4-0.2,0.8-0.6,1.2-1.2L204.2,819.5L204.2,819.5
			 M205.2,821.4v-0.4c0-0.2,0.1-0.3,0.3-0.5c0.1,0,0.1-0.1,0.2-0.1c0.1-0.1,0.2-0.2,0.2-0.3c0-0.1,0.1-0.3,0.1-0.5v-0.4v-6.9
			c0-0.2,0-0.4-0.1-0.5c0-0.1-0.1-0.2-0.2-0.3c0,0-0.1-0.1-0.2-0.1c-0.2-0.1-0.3-0.3-0.3-0.5v-0.4h6.3c0.4,0,0.7,0,0.9-0.1
			c0.2,0,0.4-0.1,0.7-0.2v2.8h-0.4c-0.3,0-0.5-0.2-0.7-0.7c-0.1-0.2-0.2-0.4-0.2-0.5c-0.1-0.2-0.3-0.3-0.5-0.4
			c-0.2-0.1-0.5-0.1-0.9-0.1h-0.2h-1.6v3.8h0.7c0.3,0,0.5,0,0.7-0.1c0.1,0,0.2-0.1,0.3-0.2c0-0.1,0.1-0.2,0.2-0.3
			c0.1-0.3,0.3-0.5,0.5-0.5h0.4v3h-0.4c-0.2,0-0.3-0.2-0.5-0.5c-0.1-0.2-0.1-0.3-0.2-0.3c-0.1-0.1-0.2-0.2-0.3-0.2
			c-0.1,0-0.3-0.1-0.7-0.1h-0.7v4.2h2.2c0.6,0,1-0.1,1.2-0.2c0.2-0.1,0.4-0.3,0.5-0.6c0-0.1,0.1-0.3,0.2-0.5
			c0.1-0.5,0.3-0.7,0.6-0.7h0.4v2.9H205.2L205.2,821.4 M223.8,810.6v0.4c0,0.2-0.1,0.4-0.3,0.5c-0.1,0-0.1,0.1-0.2,0.1
			c-0.1,0.1-0.2,0.2-0.3,0.3c0,0.1-0.1,0.3-0.1,0.6v0.3v8.7h-1l-5.7-8.9v7c0,0.4,0,0.6,0.1,0.7c0.1,0.1,0.2,0.2,0.3,0.3
			c0,0,0.1,0,0.1,0.1c0.2,0.1,0.3,0.3,0.3,0.5v0.4h-2.6v-0.4c0-0.2,0.1-0.3,0.3-0.5c0.1,0,0.1-0.1,0.2-0.1c0.1-0.1,0.2-0.2,0.2-0.3
			c0-0.1,0.1-0.3,0.1-0.5v-0.4v-6.9c0-0.2,0-0.4-0.1-0.5c0-0.1-0.1-0.2-0.2-0.3c0,0-0.1-0.1-0.2-0.1c-0.2-0.1-0.3-0.3-0.3-0.5v-0.4
			h3.4l4,6.3v-4.5c0-0.2,0-0.4-0.1-0.5c0-0.1-0.1-0.2-0.2-0.3c0,0-0.1-0.1-0.2-0.1c-0.2-0.1-0.3-0.3-0.3-0.5v-0.4H223.8L223.8,810.6
			 M226.9,821.4v-0.4c0-0.2,0.1-0.3,0.3-0.5c0.1,0,0.1-0.1,0.2-0.1c0.1-0.1,0.2-0.2,0.2-0.3c0-0.1,0.1-0.3,0.1-0.6v-0.3v-7.8H227
			c-0.3,0-0.6,0.1-0.8,0.2c-0.2,0.1-0.4,0.3-0.5,0.6c0,0.1-0.1,0.2-0.1,0.4c-0.1,0.4-0.4,0.6-0.7,0.6h-0.3v-2.9
			c0.3,0.1,0.6,0.1,0.9,0.2c0.3,0,0.6,0.1,1,0.1h5.2c0.4,0,0.7,0,1-0.1c0.3,0,0.6-0.1,0.9-0.2v2.9h-0.3c-0.3,0-0.6-0.2-0.7-0.6
			c0-0.2-0.1-0.3-0.1-0.4c-0.1-0.3-0.3-0.5-0.5-0.6c-0.2-0.1-0.5-0.2-0.8-0.2h-0.7v8v0.1c0,0.3,0,0.5,0.1,0.6
			c0.1,0.1,0.2,0.2,0.3,0.3c0,0,0,0,0.1,0.1c0.2,0.1,0.3,0.3,0.3,0.5v0.4L226.9,821.4L226.9,821.4 M237.6,819.3v0.2
			c0,0.4,0,0.6,0.1,0.7c0.1,0.1,0.2,0.2,0.3,0.3c0,0,0.1,0,0.1,0.1c0.2,0.1,0.3,0.3,0.3,0.5v0.4h-4.1v-0.4c0-0.2,0.1-0.3,0.3-0.5
			c0.1,0,0.1-0.1,0.2-0.1c0.1-0.1,0.2-0.2,0.2-0.3c0-0.1,0.1-0.3,0.1-0.5v-0.4v-6.9c0-0.2,0-0.4-0.1-0.5c0-0.1-0.1-0.2-0.2-0.3
			c0,0-0.1-0.1-0.2-0.1c-0.2-0.1-0.3-0.3-0.3-0.5v-0.4h5c0.6,0,1.1,0,1.5,0.1c0.4,0.1,0.7,0.2,0.9,0.4c0.3,0.2,0.6,0.5,0.8,0.9
			c0.2,0.4,0.3,0.8,0.3,1.3c0,0.9-0.2,1.5-0.7,2c-0.5,0.5-1.2,0.7-2.1,0.7c0,0-0.1,0-0.1,0c-0.1,0-0.1,0-0.2,0
			c0.8,0.1,1.4,0.6,1.8,1.4c0,0,0,0.1,0.1,0.1l1.2,2.2c0.1,0.3,0.3,0.4,0.4,0.6c0.1,0.1,0.2,0.2,0.3,0.3c0.1,0,0.1,0.1,0.3,0.1
			c0.3,0.1,0.4,0.3,0.4,0.5v0.4h-3.1l-2.7-5h-0.5V819.3L237.6,819.3 M237.5,811.6v3.9c0,0,0.1,0,0.1,0c0.1,0,0.1,0,0.2,0
			c0.8,0,1.3-0.2,1.7-0.5c0.4-0.3,0.5-0.8,0.5-1.5c0-0.6-0.2-1.1-0.5-1.4c-0.3-0.3-0.8-0.5-1.3-0.5c-0.2,0-0.3,0-0.5,0
			C237.7,811.6,237.6,811.6,237.5,811.6L237.5,811.6 M244.3,821.4v-0.4c0-0.2,0.1-0.3,0.3-0.5c0.1,0,0.1-0.1,0.2-0.1
			c0.1-0.1,0.2-0.2,0.2-0.3c0-0.1,0.1-0.3,0.1-0.5v-0.4v-6.9c0-0.2,0-0.4-0.1-0.5c0-0.1-0.1-0.2-0.2-0.3c0,0-0.1-0.1-0.2-0.1
			c-0.2-0.1-0.3-0.3-0.3-0.5v-0.4h6.3c0.4,0,0.7,0,0.9-0.1c0.2,0,0.4-0.1,0.7-0.2v2.8h-0.4c-0.3,0-0.5-0.2-0.7-0.7
			c-0.1-0.2-0.2-0.4-0.2-0.5c-0.1-0.2-0.3-0.3-0.5-0.4c-0.2-0.1-0.5-0.1-0.9-0.1h-0.2h-1.6v3.8h0.7c0.3,0,0.5,0,0.7-0.1
			c0.1,0,0.2-0.1,0.3-0.2c0.1-0.1,0.1-0.2,0.2-0.3c0.1-0.3,0.3-0.5,0.5-0.5h0.4v3h-0.4c-0.2,0-0.3-0.2-0.5-0.5
			c-0.1-0.2-0.1-0.3-0.2-0.3c-0.1-0.1-0.2-0.2-0.3-0.2c-0.1,0-0.3-0.1-0.7-0.1h-0.7v4.2h2.2c0.6,0,1-0.1,1.2-0.2
			c0.2-0.1,0.4-0.3,0.5-0.6c0-0.1,0.1-0.3,0.2-0.5c0.1-0.5,0.3-0.7,0.6-0.7h0.4v2.9L244.3,821.4L244.3,821.4L244.3,821.4z"/>
	</g>
</g>
</svg>
