<?xml version="1.0" encoding="utf-8"?>
<!-- Generator: Adobe Illustrator 25.3.1, SVG Export Plug-In . SVG Version: 6.00 Build 0)  -->
<svg version="1.1"
	 id="Calque_1" xmlns:cc="http://creativecommons.org/ns#" xmlns:dc="http://purl.org/dc/elements/1.1/" xmlns:inkscape="http://www.inkscape.org/namespaces/inkscape" xmlns:rdf="http://www.w3.org/1999/02/22-rdf-syntax-ns#" xmlns:sodipodi="http://sodipodi.sourceforge.net/DTD/sodipodi-0.dtd" xmlns:svg="http://www.w3.org/2000/svg"
	 xmlns="http://www.w3.org/2000/svg" xmlns:xlink="http://www.w3.org/1999/xlink" x="0px" y="0px" viewBox="0 0 598.6 715.5"
	 style="enable-background:new 0 0 598.6 715.5;" xml:space="preserve">
<style type="text/css">
	.st0{fill:#FFFFFF;}
</style>
<sodipodi:namedview  bordercolor="#666666" borderopacity="1" gridtolerance="10" guidetolerance="10" id="namedview101" inkscape:current-layer="Calque_1" inkscape:cx="100" inkscape:cy="212.60001" inkscape:pageopacity="0" inkscape:pageshadow="2" inkscape:window-height="790" inkscape:window-maximized="1" inkscape:window-width="1440" inkscape:window-x="0" inkscape:window-y="1" inkscape:zoom="0.27751646" objecttolerance="10" pagecolor="#ffffff" showgrid="false">
	</sodipodi:namedview>
<g id="g4277" transform="matrix(4.0000001,0,0,4.0000001,0,-450.40006)">
	<g id="g5">
		<path id="path7" inkscape:connector-curvature="0" class="st0" d="M85,129.4c-1.8,0-3.3,1.5-3.3,3.3v77.9c0,1.8,1.5,3.3,3.3,3.3
			c1.8,0,3.3-1.5,3.3-3.3v-77.9C88.3,130.9,86.8,129.4,85,129.4L85,129.4z"/>
		<path id="path9" inkscape:connector-curvature="0" class="st0" d="M99.4,135.1c-1.8,0-3.3,1.5-3.3,3.3V205c0,1.8,1.5,3.3,3.3,3.3
			s3.3-1.5,3.3-3.3v-66.6C102.7,136.6,101.2,135.1,99.4,135.1z"/>
		<path id="path11" inkscape:connector-curvature="0" class="st0" d="M113.8,147.7c-1.8,0-3.3,1.5-3.3,3.3v41.4
			c0,1.8,1.5,3.3,3.3,3.3s3.3-1.5,3.3-3.3V151C117.1,149.1,115.6,147.7,113.8,147.7z"/>
		<circle id="circle13" class="st0" cx="128.4" cy="171.6" r="5.1"/>
		<path id="path15" inkscape:connector-curvature="0" class="st0" d="M79.2,120.7c0.6-0.8,1-1.9,1-3c0-2.8-2.3-5.1-5.1-5.1
			c-2.8,0-5.1,2.3-5.1,5.1c0,1.3,0.5,2.5,1.3,3.4c-4.4,5.4-10.3,8.6-12.5,9.7c-0.8-1.8-2.6-3.1-4.8-3.1c-2.8,0-5.1,2.3-5.1,5.1
			s2.3,5.1,5.1,5.1c1.2,0,2.2-0.4,3.1-1c5.7,8.8,7.3,19.2,7.8,24.4c-5.2-0.4-15.6-2-24.3-7.7c0.6-0.8,1-1.9,1-3
			c0-2.8-2.3-5.1-5.1-5.1s-5.1,2.3-5.1,5.1c0,2.1,1.3,4,3.2,4.8c-1.3,2.6-5,9.3-10.1,12.7c-0.9-1-2.3-1.6-3.8-1.6
			c-2.8,0-5.1,2.3-5.1,5.1c0,2.8,2.3,5.1,5.1,5.1c1.5,0,2.8-0.6,3.8-1.6c5.1,3.5,8.8,10.2,10.1,12.8c-1.8,0.8-3.2,2.6-3.2,4.8
			c0,2.8,2.3,5.1,5.1,5.1s5.1-2.3,5.1-5.1c0-1.1-0.4-2.2-1-3c8.7-5.7,19.1-7.3,24.3-7.7c-0.4,5.2-2,15.5-7.8,24.3
			c-0.8-0.7-1.9-1-3.1-1c-2.8,0-5.1,2.3-5.1,5.1c0,2.8,2.3,5.1,5.1,5.1c2.1,0,4-1.3,4.8-3.1c2.3,1.1,8,4.4,12.5,9.7
			c-0.8,0.9-1.4,2.1-1.4,3.4c0,2.8,2.3,5.1,5.1,5.1c2.8,0,5.1-2.3,5.1-5.1c0-1.1-0.4-2.2-1-3c-4.4-7.6-11.5-12.4-15.7-14.8
			c7.8-13.4,7.8-28.5,7.8-29.2v-3.1l-3.1,0c-0.7,0-15.8,0-29.2,7.8c-1.7-3.2-4.8-7.9-9-11.6c4.2-3.6,7.2-8.4,9-11.5
			c13.4,7.8,28.5,7.8,29.2,7.8l3.1,0v-3.1c0-0.7,0-15.8-7.8-29.2C67.7,133.2,74.8,128.4,79.2,120.7L79.2,120.7z"/>
	</g>
	<g id="g4233">
		<g id="g17">
			<path id="path19" inkscape:connector-curvature="0" class="st0" d="M11.5,274.5c-6.4,0-11.5-4.8-11.5-11
				c0-6.2,4.9-10.9,11.5-10.9c6.4,0,11.5,4.8,11.5,10.9C23,269.7,17.9,274.5,11.5,274.5z M11.5,255.6c-4.4,0-8,3.5-8,7.9
				c0,4.4,3.6,7.9,8,7.9c4.4,0,7.9-3.5,7.9-7.9C19.4,259.1,15.9,255.6,11.5,255.6z"/>
			<path id="path21" inkscape:connector-curvature="0" class="st0" d="M34.2,274.4c-4.8,0-8.3-3.4-8.3-8.3c0-4.9,3.4-8.4,8.3-8.4
				c2.9,0,5.2,0.9,6.7,2.6l-1.8,2.2c-1.2-1.2-2.8-1.8-4.6-1.8h-0.1c-3,0-5.1,2.3-5.1,5.4c0,3.2,2.1,5.4,5,5.4c2.1,0,3.8-0.7,4.9-1.9
				l1.8,1.8C39.6,273.4,37.2,274.4,34.2,274.4L34.2,274.4z"/>
			<path id="path23" inkscape:connector-curvature="0" class="st0" d="M51.7,274.4c-4.8,0-8.3-3.4-8.3-8.3c0-4.9,3.4-8.4,8.3-8.4
				c2.9,0,5.2,0.9,6.7,2.6l-1.8,2.2c-1.2-1.2-2.8-1.8-4.6-1.8h-0.1c-3,0-5.1,2.3-5.1,5.4c0,3.2,2.1,5.4,5,5.4c2.1,0,3.8-0.7,4.9-1.9
				l1.8,1.8C57.1,273.4,54.8,274.4,51.7,274.4L51.7,274.4z"/>
			<path id="path25" inkscape:connector-curvature="0" class="st0" d="M62.7,274.3v-16.4H66v16.4H62.7z M64.3,255.1
				c-1.1,0-2-0.9-2-2c0-1.2,0.8-2.1,2-2.1c1.1,0,2,0.9,2,2.1C66.3,254.2,65.5,255.1,64.3,255.1z"/>
			<path id="path27" inkscape:connector-curvature="0" class="st0" d="M77.3,274.5c-1.1,0-4.6-0.3-4.6-4.8V261h-2.4v-2.4h2.4v-4.6
				h3.3v4.6H81v2.4h-4.9v8.1c0,1.6,0.6,2.4,1.9,2.4c0.7,0,1.5-0.2,2.4-0.7l0.8,2.5C80,274.1,78.6,274.5,77.3,274.5L77.3,274.5z"/>
			<path id="path29" inkscape:connector-curvature="0" class="st0" d="M89.8,274.5c-3.4,0-5.7-2.1-5.7-5s2.4-4.8,6.2-4.9h5.1v-0.6
				c0-2.2-1.5-3.5-4.1-3.5c-1.6,0-3.2,0.6-4.9,1.6l-1.4-2.3c2.3-1.4,4-2,7-2c4.2,0,6.6,2.1,6.6,5.7l0,10.8h-3.3v-2.1l-0.8,0.7
				C93.5,273.9,91.9,274.5,89.8,274.5L89.8,274.5z M90.8,266.9c-2.4,0-3.6,0.7-3.6,2.4c0,1.6,1.3,2.6,3.3,2.6c2.6,0,4.7-1.4,4.8-3.2
				V267L90.8,266.9L90.8,266.9z"/>
			<path id="path31" inkscape:connector-curvature="0" class="st0" d="M116.7,274.3v-9.2c0-2.5-1.6-4.1-4.1-4.1
				c-2.7,0-4.6,1.8-4.8,4.7v8.7h-3.4v-16.4h3.4v3.2l0.8-1c1.2-1.6,3-2.4,5.5-2.4c3.8,0,6.1,2.4,6.1,6.3v10.3L116.7,274.3
				L116.7,274.3z"/>
			<path id="path33" inkscape:connector-curvature="0" class="st0" d="M125.6,274.3v-16.4h3.3v16.4H125.6z M127.3,255.1
				c-1.1,0-2-0.9-2-2c0-1.2,0.8-2.1,2-2.1c1.1,0,2,0.9,2,2.1C129.3,254.2,128.5,255.1,127.3,255.1z"/>
			<path id="path35" inkscape:connector-curvature="0" class="st0" d="M141.9,274.4c-5,0-8.4-3.3-8.4-8.3c0-4.9,3.4-8.3,8.3-8.4
				c2.5,0,4.4,0.7,5.7,2.1c1.5,1.6,2.2,4.1,1.9,7.5h-12.7l0.2,0.6c0.7,2.4,2.7,3.8,5.2,3.8c1.8,0,3.4-0.7,4.7-1.9l1.7,1.9
				C147,273.5,144.7,274.4,141.9,274.4L141.9,274.4z M141.9,260.4c-2.5,0-4.4,1.5-4.9,4l-0.1,0.5h9.8l0-0.5
				C146.3,261.9,144.5,260.4,141.9,260.4L141.9,260.4z"/>
		</g>
		<g id="g37">
			<polygon id="polygon39" class="st0" points="2.2,244.3 7.3,244.3 7.2,246.3 0,246.3 0,234.3 2.2,234.4 			"/>
			<path id="path41" inkscape:connector-curvature="0" class="st0" d="M11.5,246.4c-1.9,0-3.2-1.2-3.2-2.9c0-1.7,1.3-2.8,3.5-2.8
				h2.6l0-0.2c0-1.1-0.7-1.7-2-1.7c-0.8,0-1.7,0.3-2.6,0.9l-0.1,0.1l-0.8-1.6h0.1c1.3-0.8,2.2-1.1,3.9-1.1c2.4,0,3.7,1.2,3.7,3.2v6
				l-2.1,0l0-0.8v-0.1l0,0C13.7,246,12.7,246.4,11.5,246.4L11.5,246.4z M12,242.3c-1.3,0-1.7,0.3-1.7,1.1s0.6,1.2,1.6,1.2
				c1.3,0,2.4-0.7,2.4-1.6v-0.7H12z"/>
			<path id="path43" inkscape:connector-curvature="0" class="st0" d="M23.3,246.3l0-12l4.8,0c3.1,0,4.8,1.5,4.8,4.1
				c0,1.8-0.8,3.2-2.4,3.9l2.6,4h-2.5l-2.1-3.5c-0.2,0-0.3,0-0.5,0h-2.7l0,3.6L23.3,246.3L23.3,246.3z M25.5,240.8l2.7,0
				c1.8,0,2.8-0.8,2.8-2.3c0-1.5-0.9-2.2-2.8-2.2h-2.7V240.8z"/>
			<path id="path45" inkscape:connector-curvature="0" class="st0" d="M39.2,246.4c-2.8,0-4.7-1.8-4.7-4.6c0-2.7,1.9-4.6,4.6-4.7
				c1.4,0,2.4,0.4,3.2,1.2c0.8,0.9,1.2,2.3,1.1,4.2v0.1l-6.7,0c0.3,1.3,1.3,2.1,2.6,2.1c0.9,0,1.8-0.4,2.4-1l0.1-0.1l1.1,1.3l-0.1,0
				C42,245.9,40.7,246.4,39.2,246.4z M39.1,238.8c-1.3,0-2.3,0.8-2.5,2.1l4.8,0C41.4,239.6,40.5,238.8,39.1,238.8z M37.7,236.1
				l1.9-2.7l2.2,1l-2.3,1.7L37.7,236.1L37.7,236.1z"/>
			<path id="path47" inkscape:connector-curvature="0" class="st0" d="M49.1,249.6c-1.3,0-2.6-0.4-3.8-1.2l-0.1,0l0.9-1.6l0,0.1
				c0.9,0.7,1.7,0.9,2.7,0.9c1.6,0,2.7-0.9,2.7-2.4v-0.8l0,0.1c-0.7,0.8-1.6,1.2-2.8,1.2c-2.4,0-4.1-1.8-4.1-4.4
				c0-2.6,1.6-4.3,4-4.3c1.2,0,2.2,0.4,2.9,1.2l0,0.1v-1.3l2.1,0l0,8.1C53.8,247.9,51.9,249.6,49.1,249.6L49.1,249.6z M49.2,238.8
				c-1.5,0-2.5,1.1-2.5,2.6c0,1.6,1,2.7,2.5,2.7s2.5-1.1,2.5-2.7C51.7,239.9,50.7,238.8,49.2,238.8z"/>
			<path id="path49" inkscape:connector-curvature="0" class="st0" d="M56.3,246.3l0-9.2l2.1,0l0,9.1H56.3z M57.3,236
				c-0.7,0-1.2-0.5-1.2-1.3c0-0.7,0.5-1.3,1.2-1.3s1.2,0.6,1.2,1.3S58,236,57.3,236z"/>
			<path id="path51" inkscape:connector-curvature="0" class="st0" d="M65,246.4c-2.8,0-4.8-1.9-4.8-4.6c0-2.8,1.9-4.6,4.8-4.6
				c2.8,0,4.8,1.9,4.8,4.6C69.7,244.4,67.8,246.4,65,246.4z M65,238.9c-1.6,0-2.6,1.1-2.6,2.8c0,1.7,1.1,2.8,2.6,2.8
				c1.6,0,2.6-1.2,2.6-2.8C67.6,240.1,66.5,238.9,65,238.9z"/>
			<path id="path53" inkscape:connector-curvature="0" class="st0" d="M71.5,246.3l0-9.2l2.2,0l0,1.4v0.1l0-0.1
				c0.7-0.9,1.7-1.5,3.2-1.5c2.1,0,3.4,1.4,3.4,3.5v5.6h-2.2l0-5.1c0-1.3-0.8-2.1-2.1-2.1c-1.4,0-2.3,0.9-2.4,2.4v4.9H71.5
				L71.5,246.3z"/>
		</g>
		<g id="g55">
			<g id="g57">
				<path id="path59" inkscape:connector-curvature="0" class="st0" d="M3.7,280.2c2.2,0,3.5,1.1,3.5,3c0,2-1.3,3.1-3.5,3.1h-2v2.6
					H0.2v-8.7H3.7z M1.7,285h1.9c1.4,0,2.1-0.6,2.1-1.8c0-1.1-0.8-1.7-2.1-1.7H1.7V285z"/>
				<path id="path61" inkscape:connector-curvature="0" class="st0" d="M11.5,289.9c-0.4,1-1.2,1.6-2.2,1.6c-0.6,0-1.1-0.2-1.6-0.6
					l0.6-1.1c0.3,0.2,0.6,0.3,0.8,0.3c0.4,0,0.8-0.2,1-0.8l0.2-0.5l-2.8-6.5h1.6l2,5l1.8-5h1.5L11.5,289.9z"/>
				<path id="path63" inkscape:connector-curvature="0" class="st0" d="M17,283.7c0.5-0.9,1.3-1.4,2.3-1.4v1.4
					c-1.3-0.1-2.2,0.7-2.3,1.8v3.5h-1.5v-6.6H17V283.7L17,283.7z"/>
				<path id="path65" inkscape:connector-curvature="0" class="st0" d="M26.4,286.2h-5c0.2,1,1,1.6,2.1,1.6c0.7,0,1.4-0.3,1.9-0.8
					l0.8,0.8c-0.7,0.7-1.6,1.1-2.8,1.1c-2.1,0-3.4-1.4-3.4-3.4s1.4-3.4,3.4-3.4C25.6,282.3,26.6,283.8,26.4,286.2L26.4,286.2z
					 M25.1,285.1c0-1.1-0.8-1.7-1.8-1.7c-1,0-1.8,0.7-1.9,1.7H25.1z M22.3,281.4l1.3-1.8l1.5,0.6l-1.5,1.2H22.3L22.3,281.4z"/>
				<path id="path67" inkscape:connector-curvature="0" class="st0" d="M34.2,284.8v4.1h-1.5v-3.8c0-1-0.6-1.6-1.6-1.6
					c-1.1,0-1.8,0.8-1.9,1.8v3.5h-1.5v-6.6h1.5v1.3c0.5-0.9,1.3-1.3,2.4-1.3C33.3,282.3,34.2,283.2,34.2,284.8z"/>
				<path id="path69" inkscape:connector-curvature="0" class="st0" d="M42.1,286.2h-5c0.2,1,1,1.6,2.1,1.6c0.7,0,1.4-0.3,1.9-0.8
					l0.8,0.8c-0.7,0.7-1.6,1.1-2.8,1.1c-2.1,0-3.4-1.4-3.4-3.4s1.4-3.4,3.4-3.4C41.3,282.3,42.2,283.8,42.1,286.2L42.1,286.2z
					 M40.8,285.1c0-1.1-0.8-1.7-1.8-1.7c-1,0-1.8,0.7-1.9,1.7H40.8z M38,281.4l1.3-1.8l1.5,0.6l-1.5,1.2H38L38,281.4z"/>
				<path id="path71" inkscape:connector-curvature="0" class="st0" d="M49.4,286.2h-5c0.2,1,1,1.6,2.1,1.6c0.7,0,1.4-0.3,1.9-0.8
					l0.8,0.8c-0.7,0.7-1.6,1.1-2.8,1.1c-2.1,0-3.4-1.4-3.4-3.4s1.4-3.4,3.4-3.4C48.6,282.3,49.6,283.8,49.4,286.2L49.4,286.2z
					 M48.1,285.1c0-1.1-0.8-1.7-1.8-1.7c-1,0-1.8,0.7-1.9,1.7H48.1z"/>
				<path id="path73" inkscape:connector-curvature="0" class="st0" d="M55.2,282.9l-0.5,1.1c-0.6-0.4-1.3-0.6-1.9-0.6
					c-0.6,0-1,0.2-1,0.7c0,1.2,3.5,0.6,3.5,3c0,1.4-1.2,2-2.5,2c-1,0-2-0.3-2.7-0.9l0.5-1c0.6,0.5,1.5,0.8,2.2,0.8
					c0.6,0,1.1-0.2,1.1-0.7c0-1.4-3.5-0.6-3.5-3c0-1.4,1.2-1.9,2.4-1.9C53.7,282.3,54.6,282.5,55.2,282.9L55.2,282.9z"/>
				<path id="path75" inkscape:connector-curvature="0" class="st0" d="M59.7,285.6v-1h3.1v1H59.7z"/>
				<path id="path77" inkscape:connector-curvature="0" class="st0" d="M75.8,289v-6.5l-2.8,5.6h-0.9l-2.8-5.6v6.5h-1.4v-8.7h1.7
					l2.9,5.8l2.9-5.8h1.7v8.7H75.8L75.8,289z"/>
				<path id="path79" inkscape:connector-curvature="0" class="st0" d="M85.2,286.2h-5c0.2,1,1,1.6,2.1,1.6c0.7,0,1.4-0.3,1.9-0.8
					l0.8,0.8c-0.7,0.7-1.6,1.1-2.8,1.1c-2.1,0-3.4-1.4-3.4-3.4s1.4-3.4,3.4-3.4C84.5,282.3,85.4,283.8,85.2,286.2L85.2,286.2z
					 M84,285.1c0-1.1-0.8-1.7-1.8-1.7c-1,0-1.8,0.7-1.9,1.7H84z M81.2,281.4l1.3-1.8l1.5,0.6l-1.5,1.2H81.2L81.2,281.4z"/>
				<path id="path81" inkscape:connector-curvature="0" class="st0" d="M93.1,289h-1.5v-1.1c-0.5,0.8-1.3,1.2-2.4,1.2
					c-1.9,0-3.2-1.4-3.2-3.4c0-2,1.3-3.4,3.2-3.4c1.1,0,1.9,0.4,2.4,1.2v-3.8H93L93.1,289L93.1,289z M91.6,285.7
					c0-1.3-0.8-2.2-2-2.2s-2,0.9-2.1,2.2c0,1.3,0.8,2.2,2.1,2.2C90.8,287.9,91.6,286.9,91.6,285.7z"/>
				<path id="path83" inkscape:connector-curvature="0" class="st0" d="M96.8,280.4c0,0.5-0.4,0.8-0.8,0.8s-0.8-0.4-0.8-0.8
					c0-0.5,0.4-0.9,0.8-0.9C96.5,279.5,96.8,279.9,96.8,280.4z M95.2,289v-6.6h1.4v6.6H95.2L95.2,289z"/>
				<path id="path85" inkscape:connector-curvature="0" class="st0" d="M102.6,288.6c-0.5,0.3-1.1,0.5-1.6,0.5c-1,0-1.9-0.6-1.9-1.9
					v-3.4h-0.9v-1.1h0.9v-1.8h1.4v1.8h2v1.1h-1.9v3.2c0,0.7,0.3,0.9,0.7,0.9c0.3,0,0.6-0.1,1-0.3L102.6,288.6L102.6,288.6z"/>
				<path id="path87" inkscape:connector-curvature="0" class="st0" d="M109.7,286.2h-5c0.2,1,1,1.6,2.1,1.6c0.7,0,1.4-0.3,1.9-0.8
					l0.8,0.8c-0.7,0.7-1.6,1.1-2.8,1.1c-2.1,0-3.4-1.4-3.4-3.4s1.4-3.4,3.4-3.4C108.9,282.3,109.9,283.8,109.7,286.2L109.7,286.2z
					 M108.5,285.1c0-1.1-0.8-1.7-1.8-1.7c-1,0-1.8,0.7-1.9,1.7H108.5z"/>
				<path id="path89" inkscape:connector-curvature="0" class="st0" d="M112.7,283.7c0.5-0.9,1.3-1.4,2.3-1.4v1.4
					c-1.3-0.1-2.2,0.7-2.3,1.8v3.5h-1.5v-6.6h1.5V283.7L112.7,283.7z"/>
				<path id="path91" inkscape:connector-curvature="0" class="st0" d="M117.5,283.7c0.5-0.9,1.3-1.4,2.3-1.4v1.4
					c-1.3-0.1-2.2,0.7-2.3,1.8v3.5h-1.5v-6.6h1.5V283.7L117.5,283.7z"/>
				<path id="path93" inkscape:connector-curvature="0" class="st0" d="M124.8,288.2c-0.5,0.6-1.2,0.9-2.2,0.9
					c-1.5,0-2.4-0.9-2.4-2.1c0-1.2,0.9-2,2.5-2h2v-0.2c0-0.8-0.5-1.3-1.6-1.3c-0.7,0-1.3,0.2-2,0.7l-0.6-1c0.9-0.6,1.6-0.8,2.9-0.8
					c1.7,0,2.7,0.9,2.7,2.4v4.4h-1.4L124.8,288.2L124.8,288.2z M124.8,286.6V286H123c-0.9,0-1.4,0.2-1.4,0.9c0,0.6,0.5,1,1.3,1
					C123.9,287.9,124.7,287.4,124.8,286.6L124.8,286.6z"/>
				<path id="path95" inkscape:connector-curvature="0" class="st0" d="M134.5,284.8v4.1H133v-3.8c0-1-0.6-1.6-1.6-1.6
					c-1.1,0-1.8,0.8-1.9,1.8v3.5h-1.5v-6.6h1.5v1.3c0.5-0.9,1.3-1.3,2.4-1.3C133.5,282.3,134.5,283.2,134.5,284.8z"/>
				<path id="path97" inkscape:connector-curvature="0" class="st0" d="M142.3,286.2h-5c0.2,1,1,1.6,2.1,1.6c0.7,0,1.4-0.3,1.9-0.8
					l0.8,0.8c-0.7,0.7-1.6,1.1-2.8,1.1c-2.1,0-3.4-1.4-3.4-3.4s1.4-3.4,3.4-3.4C141.5,282.3,142.4,283.8,142.3,286.2L142.3,286.2z
					 M141,285.1c0-1.1-0.8-1.7-1.8-1.7c-1,0-1.8,0.7-1.9,1.7H141z M138.2,281.4l1.3-1.8l1.5,0.6l-1.5,1.2H138.2L138.2,281.4z"/>
				<path id="path99" inkscape:connector-curvature="0" class="st0" d="M149.6,286.2h-5c0.2,1,1,1.6,2.1,1.6c0.7,0,1.4-0.3,1.9-0.8
					l0.8,0.8c-0.7,0.7-1.6,1.1-2.8,1.1c-2.1,0-3.4-1.4-3.4-3.4s1.4-3.4,3.4-3.4C148.8,282.3,149.8,283.8,149.6,286.2L149.6,286.2z
					 M148.4,285.1c0-1.1-0.8-1.7-1.8-1.7c-1,0-1.8,0.7-1.9,1.7H148.4z"/>
			</g>
		</g>
	</g>
</g>
</svg>
