<?xml version="1.0" encoding="utf-8"?>
<!-- Generator: Adobe Illustrator 25.3.1, SVG Export Plug-In . SVG Version: 6.00 Build 0)  -->
<svg version="1.1" id="Layer_1" xmlns="http://www.w3.org/2000/svg" xmlns:xlink="http://www.w3.org/1999/xlink" x="0px" y="0px"
	 viewBox="0 0 152.6 76.3" style="enable-background:new 0 0 152.6 76.3;" xml:space="preserve">
<style type="text/css">
	.st0{fill:#FFFFFF;}
</style>
<path class="st0" d="M116.4,23.5c5.4,0,6.9,4,5.5,10.7s-4.7,10.6-10,10.6c-5.3,0-6.8-3.9-5.4-10.6C107.9,27.5,111.1,23.5,116.4,23.5
	 M151.1,16.4h-19.9v0H123v0h-2.9c-1-0.1-2-0.2-3.2-0.2c-10.9,0-17,7.7-18.9,16.9c-0.7,3.4-0.9,6.6-0.3,9.4c-0.3,0.7-0.8,1-1.1,1.2
	l-0.9,0.2c-1,0.2-2.1,0.3-3.1,0.5c-0.3,0.1-1.2,0.2-1.4,0.2c-0.9,0.1-1.6,0.2-1.6,0.2h-0.1c-1.2,0-1.6-0.8-1.3-2.5l5.1-23.8
	c0.3-1.4,0-1.8-1.3-1.8h-4.7c-1.3,0-1.8,0.4-2,1.8L82,33.2c-1.6,7.6-5.2,11.9-10.5,11.9c-3.8,0-4.6-2.4-3.9-5.6l4.5-20.9
	c0.3-1.4,0-1.8-1.3-1.8h-4.7c-1.3,0-1.8,0.4-2.1,1.8l-1.8,8.5l-2.9,13.1c-0.1,0.6-0.2,1.2-0.3,1.8c0,0.1-0.1,0.2-0.1,0.4
	c-0.4,1.5-3.4,1.6-5.4,2c-1,0.2-1.6,0.3-2,0.3c-0.7-0.3-0.9-1.2-0.6-2.8L59,3.7C59.3,2.3,59,2,57.7,2H53c-1.3,0-1.8,0.3-2.1,1.8
	l-8.7,40.8c-0.9,4.3,0.7,6.2,2.8,6.9c0.3,0.2,0.7,0.3,1.1,0.3c0.6,0,1.3,0,2.2,0c1.3,0,2.2-0.1,2.9-0.2c4.2-0.4,9.2-1.2,10.1-1.4
	c1.7,1.2,4.1,1.8,7,1.8c4.4,0,8.3-1.2,11-4.2c0.3,3.3,3,4.1,5.4,4.1h0.3c0,0,0.1,0,0.1,0c2.1,0.2,7.5-0.5,11.3-1.1v0l1-0.2
	c1.8-0.3,3.1-0.5,3.1-0.5l1.6-0.2c2.2,1.5,5.2,2.4,9.2,2.4c11,0,17.1-8,19.1-17.4c0.9-4.3,0.9-8.3-0.4-11.5h19.7
	c1.2,0,1.7-0.5,1.9-1.4l0.9-4.2C152.7,16.6,152.4,16.4,151.1,16.4"/>
<path class="st0" d="M112.9,72.5h6.6v3.3h-6.6V72.5z M37.6,67.6L37.6,67.6c0-4.8,3.7-8.7,8.8-8.7c3,0,4.8,0.8,6.6,2.3L50.6,64
	c-1.3-1.1-2.4-1.7-4.4-1.7c-2.7,0-4.8,2.4-4.8,5.2v0.1c0,3.1,2.1,5.3,5.1,5.3c1.3,0,2.5-0.3,3.5-1v-2.4h-3.7v-3.2h7.3v7.3
	c-1.7,1.5-4.1,2.7-7.2,2.7C41.2,76.3,37.6,72.6,37.6,67.6 M55.5,63.1h3.6v2.6c0.7-1.8,1.9-2.9,4.1-2.8v3.8h-0.2
	c-2.4,0-3.9,1.5-3.9,4.5V76h-3.6V63.1z M71.3,71.5v-0.7c-0.6-0.3-1.4-0.5-2.3-0.5c-1.6,0-2.5,0.6-2.5,1.8v0.1c0,1,0.8,1.6,2,1.6
	C70.2,73.7,71.3,72.8,71.3,71.5 M63,72.3L63,72.3c0-2.9,2.1-4.1,5.2-4.1c1.3,0,2.2,0.2,3.1,0.5v-0.2c0-1.5-0.9-2.4-2.8-2.4
	c-1.4,0-2.4,0.3-3.6,0.7L64.1,64c1.4-0.6,2.8-1,5-1c2,0,3.4,0.5,4.3,1.4c1,1,1.4,2.4,1.4,4.1V76h-3.5v-1.4c-0.9,1-2.1,1.6-3.9,1.6
	C65,76.2,63,74.8,63,72.3 M76.7,63.1h3.6V65c0.8-1.1,1.9-2.1,3.8-2.1c2.8,0,4.4,1.8,4.4,4.8V76h-3.6v-7.2c0-1.7-0.8-2.6-2.2-2.6
	s-2.3,0.9-2.3,2.6V76h-3.6L76.7,63.1L76.7,63.1z M99.8,69.6L99.8,69.6c0-2.2-1.4-3.6-3.1-3.6c-1.7,0-3.1,1.4-3.1,3.6v0.1
	c0,2.1,1.4,3.6,3.1,3.6C98.4,73.1,99.8,71.7,99.8,69.6 M89.9,69.6L89.9,69.6c0-4.3,2.8-6.7,5.9-6.7c1.9,0,3.1,0.9,4,1.9v-6.3h3.6V76
	h-3.6v-1.8c-0.9,1.2-2.1,2.1-4,2.1C92.7,76.2,89.9,73.9,89.9,69.6 M121.2,74.1l1.6-2.4c1.4,1,2.9,1.5,4.1,1.5c1.1,0,1.5-0.4,1.5-1
	v-0.1c0-0.8-1.2-1.1-2.7-1.5c-1.8-0.5-3.8-1.4-3.8-3.9v-0.1c0-2.6,2.1-4.1,4.7-4.1c1.6,0,3.4,0.6,4.8,1.5l-1.4,2.5
	c-1.3-0.7-2.5-1.2-3.5-1.2c-0.9,0-1.3,0.4-1.3,0.9v0.1c0,0.7,1.2,1.1,2.6,1.5c1.8,0.6,3.9,1.5,3.9,3.8v0.1c0,2.9-2.1,4.1-4.9,4.1
	C124.9,76.1,122.9,75.5,121.2,74.1 M133.4,72.2v-6.1h-1.5V63h1.5v-3.3h3.6V63h3v3.1h-3v5.5c0,0.8,0.4,1.2,1.2,1.2
	c0.7,0,1.3-0.2,1.8-0.5v2.9c-0.8,0.5-1.6,0.7-2.9,0.7C134.9,76,133.4,75.2,133.4,72.2 M113,65.7h6.6V69H113V65.7z M113,59h6.6v3.3
	H113V59z M108,59h3.7v16.8H108V59z"/>
<g>
	<path class="st0" d="M46.5,1.6C45.1,1,42.6,0,38.1,0C29.4,0,25,4.6,23.2,13.3l-0.7,3.3h-4.2c-1,0-1.5,0.5-1.7,1.7l-0.8,3.7
		c-0.3,1.3,0.1,1.5,1.5,1.5H21L14.1,56c-0.9,3.9-2.4,6-5,5.9c-0.1,0-0.3,0-0.4,0.1H4.5v0l-1.9,0c-1,0-1.5,0.5-1.7,1.7l-0.8,3.7
		c-0.3,1.3,0.1,1.4,1.3,1.5h8.3c0.1,0,0.2,0,0.4,0c6.7-0.2,10.5-4.4,11.9-10.9l7.3-34.4h6.7c1.2,0,1.7-0.5,1.9-1.4l0.9-4.2
		c0.2-1.1-0.1-1.3-1.4-1.3h-6.6l0.5-2.6c1.1-5.4,3.4-7.4,6.9-7.4c3.2,0,4.5,0.5,6.5,1.3c0.7,0.3,1.3,0.3,1.5-0.8l0.9-4
		C47.3,2.1,47.2,1.9,46.5,1.6"/>
</g>
</svg>
