<?xml version="1.0" encoding="utf-8"?>
<!-- Generator: Adobe Illustrator 25.3.1, SVG Export Plug-In . SVG Version: 6.00 Build 0)  -->
<svg version="1.1" id="Calque_1" xmlns="http://www.w3.org/2000/svg" xmlns:xlink="http://www.w3.org/1999/xlink" x="0px" y="0px"
	 viewBox="0 0 38.3 20.6" style="enable-background:new 0 0 38.3 20.6;" xml:space="preserve">
<style type="text/css">
	.st0{fill:#FFFFFF;}
	.st1{clip-path:url(#SVGID_2_);fill:#FFFFFF;}
	.st2{clip-path:url(#SVGID_4_);fill:#FFFFFF;}
</style>
<path class="st0" d="M0,12.7c0,0,0.1-0.1,0.2-0.2c0.5-0.1,1.1-0.1,1.9-0.1c0.4,0,0.7-0.1,0.9-0.1c0.4,0,0.9,0.1,1.6,0.1
	c0.4,0.1,1,0.3,1.7,0.5c0.5-0.1,1-0.2,1.5-0.3l1.5-0.3c0.4,0,0.9,0,1.6,0.1l0.2,0.6c-0.2,0.1-0.4,0.1-0.6,0.2
	c-0.2,0.1-0.5,0.1-0.8,0.1c-0.4,0-1,0-1.9,0l-1.9,0c-0.5,0.1-1.2,0.2-1.9,0.3c-0.1,0-0.2-0.1-0.2-0.1c-0.1,0-0.3,0.1-0.6,0.1
	l-0.4-0.2c-0.2,0-0.4,0-0.6,0L2,13.1c-0.3,0-0.9,0-1.5,0.1C0.4,13.1,0.2,13,0,12.8L0,12.7C0,12.7,0,12.7,0,12.7"/>
<path class="st0" d="M21,17.7c0,0-0.1,0-0.2-0.1c0,0,0,0-0.1-0.1L20.4,17c0,0-0.1-0.1-0.1-0.2c0-0.1,0-0.2,0-0.2c0,0,0,0,0-0.1
	c-0.1-0.1-0.2-0.3-0.3-0.5c0-0.2-0.1-0.3-0.1-0.4c0-0.1,0-0.2,0-0.2c0-0.1,0-0.2,0-0.3l0.1-0.3c0-0.1,0-0.2,0.1-0.3
	c0.1-0.1,0.2-0.1,0.2-0.2l0.2-0.1c0,0,0.1,0.1,0.2,0.1c0.1,0.1,0.1,0.1,0.2,0.2l0.2,0.2l0.4,0.6c0.1,0.2,0.1,0.3,0.2,0.5
	c0,0,0,0.1,0,0.1c0,0,0,0.1,0.1,0.2c0,0,0,0.1,0,0.1c0,0,0,0.1,0,0.2c0,0.1,0,0.2,0,0.3c0,0,0,0.1,0,0.1c0,0.2-0.1,0.3-0.1,0.4
	l-0.2,0.5c0,0-0.1,0.1-0.2,0.2C21.1,17.7,21,17.7,21,17.7"/>
<path class="st0" d="M24.5,2.9c0,0,0,0.1,0.1,0.2c0,0,0,0,0,0.1l-0.2,0.6c0,0-0.1,0.1-0.1,0.2c-0.1,0.1-0.1,0.1-0.1,0.2
	c0,0,0,0-0.1,0c0,0.1-0.1,0.3-0.2,0.5c-0.1,0.1-0.1,0.2-0.2,0.3C23.6,4.9,23.5,5,23.5,5c0,0.1-0.1,0.1-0.2,0.2l-0.2,0.1
	c-0.1,0-0.2,0.1-0.2,0.1c-0.1,0-0.2,0-0.3,0l-0.2-0.1c0,0,0-0.1,0-0.2c0-0.1,0-0.1,0-0.2l0-0.2L22.5,4c0.1-0.1,0.2-0.3,0.3-0.4
	c0,0,0,0,0.1-0.1c0,0,0-0.1,0.1-0.2c0,0,0,0,0.1,0c0,0,0-0.1,0.1-0.1c0.1-0.1,0.2-0.1,0.2-0.1c0,0,0,0,0.1-0.1
	c0.2-0.1,0.3-0.2,0.4-0.2l0.5-0.1c0,0,0.1,0,0.3,0.1C24.5,2.8,24.5,2.9,24.5,2.9"/>
<path class="st0" d="M20,1.3c0,0,0.1,0,0.2,0.1c0,0,0,0,0.1,0.1l0.3,0.7c0,0.1,0,0.1,0.1,0.3c0,0.1,0,0.2,0,0.3c0,0,0,0,0,0.1
	c0.1,0.1,0.1,0.3,0.2,0.6c0,0.2,0,0.3,0,0.4c0,0.1-0.1,0.2-0.1,0.2c0,0.1,0,0.2,0,0.3l-0.1,0.3c0,0.1-0.1,0.2-0.1,0.3
	c-0.1,0.1-0.2,0.1-0.3,0.2l-0.3,0.1c0,0-0.1-0.1-0.2-0.1c0-0.1-0.1-0.1-0.2-0.2l-0.2-0.2l-0.3-0.7c0-0.2-0.1-0.4-0.1-0.6
	c0,0,0-0.1,0-0.1c0,0,0-0.1,0-0.2c0,0,0,0,0-0.1c0,0,0-0.1,0-0.2c0-0.1,0.1-0.2,0.1-0.3c0,0,0-0.1,0-0.1c0.1-0.2,0.1-0.4,0.2-0.5
	l0.4-0.5c0.1,0,0.1-0.1,0.3-0.1C20,1.2,20,1.3,20,1.3"/>
<path class="st0" d="M15.1,3.9c0,0,0.1,0,0.2,0c0,0,0.1,0,0.1,0l0.7,0.5c0.1,0,0.1,0.1,0.2,0.2c0.1,0.1,0.1,0.2,0.2,0.2
	c0,0,0,0,0,0.1C16.6,5,16.8,5.1,17,5.3c0.1,0.2,0.2,0.3,0.3,0.4c0,0.1,0.1,0.2,0.1,0.3c0.1,0.1,0.1,0.2,0.2,0.3l0.1,0.3
	c0,0.1,0,0.2,0.1,0.3c-0.1,0.1-0.1,0.2-0.2,0.4l-0.2,0.3c-0.1,0-0.1,0-0.2,0c-0.1,0-0.2-0.1-0.3-0.1l-0.3-0.1l-0.7-0.5
	c-0.2-0.1-0.3-0.3-0.5-0.5c0,0,0-0.1,0-0.1c0,0-0.1-0.1-0.2-0.2c0,0,0-0.1,0-0.1c0,0-0.1-0.1-0.1-0.2c-0.1-0.1-0.1-0.2-0.1-0.3
	c0,0,0-0.1-0.1-0.1c-0.1-0.2-0.1-0.4-0.1-0.5l0-0.7c0-0.1,0.1-0.2,0.2-0.3C15,3.8,15,3.8,15.1,3.9"/>
<path class="st0" d="M14.5,17.7c0,0-0.1-0.1-0.1-0.2c0,0,0-0.1,0-0.1l0.2-0.7c0-0.1,0.1-0.1,0.1-0.3c0.1-0.1,0.1-0.2,0.2-0.2
	c0,0,0,0,0.1,0c0-0.2,0.1-0.4,0.2-0.6c0.1-0.2,0.2-0.3,0.2-0.4c0.1-0.1,0.2-0.1,0.2-0.1c0-0.1,0.1-0.1,0.2-0.2l0.3-0.2
	c0.1-0.1,0.2-0.1,0.3-0.2c0.1,0,0.2,0,0.4,0l0.3,0.1c0,0,0,0.1,0.1,0.2c0,0.1,0,0.2,0,0.3l0,0.3l-0.2,0.8c-0.1,0.2-0.2,0.4-0.3,0.6
	c0,0,0,0-0.1,0.1c0,0,0,0.1-0.1,0.2c0,0-0.1,0-0.1,0c0,0,0,0.1-0.1,0.2c-0.1,0.1-0.2,0.2-0.2,0.2c0,0,0,0.1-0.1,0.1
	c-0.2,0.1-0.3,0.2-0.4,0.3l-0.6,0.2c-0.1,0-0.2,0-0.3,0C14.5,17.8,14.5,17.7,14.5,17.7"/>
<path class="st0" d="M11.9,14.4c-0.1-0.1-0.1-0.1-0.2-0.1l0-0.5c0-0.4,0-0.6,0-0.6c0.1-1.2,0.2-2.3,0.3-3.5c0,0,0.1-0.1,0.1-0.2
	c0-0.2,0.1-0.6,0.2-1.2c0-0.2,0-0.6,0.1-1.2c0-0.3,0.1-0.6,0.2-1C12.9,6,12.9,5.9,13,5.8l0.3-0.3c0,0,0.1,0.1,0.3,0.2l-0.1,0.8
	c-0.1,0.1-0.1,0.2-0.2,0.4c0,0.8-0.1,1.5-0.1,2.3L13,11.4c-0.1,0.1-0.1,0.3-0.2,0.5c0,0.5,0,0.9-0.1,1.2c0.2,0,0.3,0,0.4,0
	c0.1-0.1,0.2-0.2,0.3-0.3c0.4-0.1,0.7-0.2,0.8-0.3c0,0,0.4-0.1,1.2-0.3h0.4c0,0,0.2,0.1,0.5,0.2c0,0.2,0,0.3,0,0.3
	c-0.6,0.1-1.2,0.2-1.8,0.3l-0.7,0.3c-0.2,0.1-0.5,0.2-0.7,0.3c0,0.1-0.1,0.2-0.1,0.3c-0.2,0.1-0.5,0.2-0.8,0.3L11.9,14.4"/>
<path class="st0" d="M18.4,14.7c0.1-0.1,0.3-0.1,0.6-0.1c0.4-0.3,0.9-0.6,1.6-1c0.1-0.1,0.3-0.3,0.5-0.5c0.2-0.3,0.4-0.7,0.5-1.1
	c0.1-0.1,0.1-0.1,0.1-0.1c0.1-0.2,0.1-0.3,0.1-0.3c0.2-0.2,0.3-0.3,0.4-0.4c0.1-0.2,0.1-0.4,0.1-0.6c0.1,0,0.1-0.1,0.1-0.1
	c0.1-0.7,0.2-1.2,0.3-1.6c0-0.7,0-1.3-0.1-1.9c-0.2-0.3-0.3-0.5-0.4-0.6c-0.1-0.2-0.1-0.4-0.1-0.5C22,6.1,21.9,6,21.7,5.8
	c-0.2-0.1-0.3-0.3-0.4-0.3c-0.3,0-0.7,0.1-1.3,0.2C19.6,5.9,19.4,6,19.4,6c-0.4,0.4-0.7,0.8-0.9,1c-0.1,0.4-0.2,0.8-0.2,1
	c-0.4,0.4-0.7,0.8-0.9,1c-0.1,0.3-0.1,0.4-0.1,0.6L17,9.7c0,0.1,0,0.3-0.1,0.4l-0.1,0.4c-0.1,0.3-0.2,0.5-0.2,0.6v2.3
	c0.1,0.2,0.1,0.3,0.2,0.5c0.1,0.1,0.2,0.2,0.4,0.3c0,0.1,0,0.2,0,0.3c0.1,0,0.2,0,0.4,0c0.1,0.1,0.3,0.1,0.3,0.2L18.4,14.7
	 M18.1,13.7c-0.1-0.1-0.2-0.2-0.3-0.3c0,0,0-0.1-0.1-0.3v-1.6c0-0.1,0-0.3,0.1-0.6c0.1-0.2,0.2-0.4,0.2-0.5c0,0,0.1,0,0.1-0.1
	c0-0.3,0-0.8,0.1-1.3c0.1-0.4,0.2-0.7,0.2-0.9c0.1-0.2,0.3-0.3,0.4-0.4c0-0.2,0.1-0.4,0.2-0.6l0.4-0.4c0.2-0.1,0.3-0.3,0.5-0.5
	c0.3,0,0.5-0.1,0.7-0.1h0.6c0,0.1,0.1,0.2,0.2,0.3c0,0.2,0.1,0.4,0.2,0.5L22,7.7v1.6c-0.1,0.4-0.2,0.8-0.3,1.3c0,0-0.1,0.1-0.1,0.2
	c0,0.1,0,0.2-0.1,0.5c-0.1,0-0.1,0.1-0.1,0.1c0,0.1,0,0.2-0.1,0.4c-0.2,0.3-0.3,0.4-0.4,0.5c0,0,0,0.1-0.1,0.3
	c-0.3,0.3-0.5,0.6-0.7,0.8L18.9,14c-0.1,0-0.4,0-0.7,0.1C18.1,13.9,18.1,13.8,18.1,13.7z"/>
<path class="st0" d="M28.3,14.4c0.1-0.2,0.2-0.3,0.2-0.4c-0.1-0.1-0.2-0.2-0.2-0.3c-0.2-0.1-0.4-0.2-0.5-0.3l-0.5-0.2
	c-0.2-0.1-0.3-0.3-0.5-0.4c-0.7-0.5-1.3-0.8-1.7-1.1c-0.1-0.1-0.2-0.2-0.3-0.3c0-0.1,0-0.3,0-0.4c0.2-0.1,0.5-0.3,0.7-0.4
	c1.2-0.8,2.1-1.3,2.6-1.8l0.7-0.7c0.2-0.2,0.5-0.5,0.7-0.7c0.1-0.4,0.3-0.7,0.3-0.9V5.7c-0.4-0.1-0.7-0.2-1-0.4h-1.8l-0.7,0.1
	c-0.3,0.1-0.4,0.2-0.5,0.2c-1,0.2-1.5,0.4-1.6,0.4c-0.1-0.4-0.1-0.6-0.2-0.8c-0.1,0-0.2,0-0.4,0c0,0.5,0,1.1,0,1.8
	c-0.1,0.1-0.1,0.2-0.1,0.4c0.1,0.2,0.2,0.3,0.2,0.4v1c-0.1,0.8-0.2,1.3-0.3,1.6c-0.2,0.2-0.4,0.4-0.5,0.6c-0.1,0.1-0.3,0.1-0.5,0.2
	v0.6c0.2,0.1,0.3,0.1,0.4,0.1c0.1,0.1,0.2,0.2,0.2,0.2v1.9l0.2,0.2h0.4c0.1-0.2,0.1-0.3,0.1-0.4c0-0.3,0-0.5-0.1-0.6
	c0-0.2,0-0.6,0-1.1c0.1,0,0.3,0,0.5,0c0.1,0.1,0.1,0.1,0.1,0.1c0.2,0.1,0.4,0.1,0.5,0.1l1.2,0.7c0.4,0.2,0.8,0.5,1.1,0.7
	c0.2,0.2,0.3,0.3,0.5,0.5L28.3,14.4 M24.2,9c0-0.6,0.1-1.1,0.1-1.7c0.2-0.2,0.4-0.3,0.6-0.4c0.2-0.1,0.4-0.1,0.6-0.2
	c0.4-0.2,0.7-0.4,0.8-0.4c0.6-0.1,1.1-0.2,1.5-0.3c0.1,0,0.6,0,1.4,0.1l0,0c0,0,0,0,0.1,0.1c0,0.3,0,0.6,0,0.7
	c-0.3,0.4-0.6,0.7-0.7,1c-0.2,0.2-0.3,0.3-0.4,0.3c-0.2,0.1-0.3,0.2-0.4,0.2l-0.1,0.2c-0.1,0.1-0.2,0.2-0.4,0.3c0,0,0,0.1-0.1,0.2
	c-0.7,0.5-1.3,0.9-2,1.3c-0.6,0.3-1,0.4-1.1,0.5L24.2,9z"/>
<path class="st0" d="M9.6,11.4c0.1,0,0.1,0,0.2-0.1c0.2-0.1,0.4-0.2,0.6-0.4c0,0,0.1-0.1,0.2-0.2c0.1-0.1,0.2-0.3,0.2-0.4
	c0,0,0,0,0.1,0c0-0.1,0-0.1,0-0.1C11,10,11.1,10,11.1,9.9c0-0.1,0-0.2,0-0.2c0,0,0,0,0.1,0c0.1-0.3,0.1-0.5,0.1-0.6
	c0-0.3,0-0.6,0-0.8C11.2,8.1,11.2,8,11.1,8c0-0.1,0-0.2,0-0.2c0,0-0.1-0.1-0.1-0.1c-0.1-0.1-0.1-0.1-0.1-0.1c-0.1,0-0.3,0-0.5,0.1
	c-0.1,0.1-0.2,0.2-0.2,0.2C9.9,7.9,9.8,8.1,9.7,8.2C9.6,8.4,9.6,8.5,9.6,8.6C9.4,8.8,9.3,8.9,9.2,9c0,0.1,0,0.2,0,0.2L9.1,9.3
	c0,0.1,0,0.1,0,0.2l0,0.2C9,9.7,9,9.8,9,9.9v1C9,10.9,9,11,9,11c0,0,0.1,0.1,0.2,0.1c0,0,0,0.1,0,0.1c0,0,0.1,0,0.1,0
	c0.1,0,0.1,0.1,0.1,0.1L9.6,11.4 M9.5,10.9c0,0-0.1-0.1-0.1-0.1c0,0,0-0.1,0-0.1v-0.6c0-0.1,0-0.1,0-0.2c0-0.1,0.1-0.2,0.1-0.2
	c0,0,0,0,0.1,0c0-0.1,0-0.3,0-0.5c0-0.2,0.1-0.3,0.1-0.4c0.1-0.1,0.1-0.1,0.1-0.2c0-0.1,0-0.1,0.1-0.2l0.2-0.2
	c0.1-0.1,0.1-0.1,0.2-0.2c0.1,0,0.2,0,0.3-0.1h0.2c0,0,0,0.1,0.1,0.1c0,0.1,0,0.1,0.1,0.2l0.1,0.2v0.7c0,0.2-0.1,0.3-0.1,0.5
	c0,0,0,0-0.1,0.1c0,0,0,0.1,0,0.2c0,0,0,0-0.1,0c0,0,0,0.1,0,0.2c-0.1,0.1-0.1,0.2-0.1,0.2c0,0,0,0.1,0,0.1
	c-0.1,0.1-0.2,0.2-0.3,0.3l-0.4,0.3c-0.1,0-0.1,0-0.3,0C9.5,11,9.5,11,9.5,10.9z"/>
<path class="st0" d="M3.6,8.7C3.5,8.7,3.5,8.8,3.6,8.7v0.2c0,0,0,0,0,0c0,0,0,0,0,0l0,0c0,0.1,0,0.1,0,0.2v0.3c0,0,0,0,0,0v0.4
	c0,0,0,0,0,0.1v0.5c0,0,0,0.1,0,0.1l0,0v0c0,0,0,0,0,0v0c0,0,0,0,0,0.1c0,0,0,0.1,0,0.1l0,0.1c0,0,0,0,0,0.1v0l0,0c0,0,0,0-0.1,0.1
	l-0.1,0.1c0,0,0,0-0.1-0.1V11c0,0,0,0,0-0.1c0,0,0-0.2,0-0.5c0,0,0,0,0-0.1c0-0.1,0-0.3,0-0.5c0-0.3,0-0.4,0-0.4c0,0,0,0,0,0
	c0,0,0-0.1,0-0.2c0-0.1,0-0.1,0-0.1c0-0.2,0-0.3-0.1-0.4L3,8.6c0,0-0.1,0.1-0.3,0.3c0,0.1-0.1,0.2-0.1,0.2v0c0,0.1-0.1,0.2-0.1,0.3
	l0,0v0.1c0,0,0,0.1,0,0.2l0,0.1c0,0,0,0.1,0,0.2l-0.1,0.2v0c-0.1,0.1-0.2,0.3-0.4,0.6l-0.1,0c0,0-0.1,0-0.1-0.1v0c0,0,0,0,0,0l0,0
	v-0.1c0,0,0-0.1,0-0.1l0,0v-0.1c0,0,0-0.1,0-0.1c0,0,0,0,0,0l0,0c0,0,0,0,0,0c0.1-0.3,0.1-0.4,0.1-0.4c0,0,0,0,0-0.1l0-0.1
	c0,0,0,0,0-0.1c0-0.2,0-0.4,0-0.5c0-0.2,0-0.4-0.1-0.6c0,0,0,0-0.1,0l-0.1,0c0,0-0.1,0.1-0.1,0.2C1.1,9.2,1,9.6,1,9.7c0,0,0,0,0,0
	l0,0v0.1c0,0,0,0.1,0,0.1c0,0.1,0,0.2-0.1,0.3c0,0,0,0.1-0.1,0.2c0,0.1,0,0.1,0,0.2c0,0,0,0,0,0v0c0,0,0,0,0,0l-0.2,0.5l0,0
	c0,0,0,0-0.1,0c0,0,0,0,0,0v-0.8c0,0,0,0,0,0v0c0,0,0,0,0,0c0,0,0,0,0-0.1c0-0.2,0-0.3,0-0.3s0-0.3-0.1-0.9c0,0,0,0,0-0.1v0l0-0.3
	c0-0.1,0-0.2,0-0.3c0-0.1,0-0.1,0-0.3s0-0.2,0-0.2c0-0.2,0-0.3,0.1-0.5c0,0,0,0,0,0c0,0,0.1,0,0.1,0.1v0.9c0,0,0,0,0,0.1
	c0,0,0,0.1,0,0.1l0,0.1v0.6c0,0,0.1,0.1,0.1,0.1c0,0,0,0,0.1,0C1,9.1,1.1,8.8,1.1,8.7c0,0,0,0,0-0.1c0,0,0,0,0,0
	c0,0,0.1-0.1,0.1-0.2c0-0.1,0-0.2,0-0.2l0,0c0,0,0,0,0,0l0-0.1c0-0.1,0.1-0.2,0.1-0.3V7.7c0-0.1,0.1-0.1,0.1-0.2
	c0-0.1,0.1-0.1,0.2-0.1l0.1,0c0.1,0.1,0.1,0.1,0.1,0.2c0,0,0,0,0,0.1C1.9,7.8,2,8,2,8.4l0,0.1l0,0.2c0,0,0,0,0,0.1
	C2,8.8,2,8.9,2,9.2l0.1,0c0.1,0,0.1-0.1,0.3-0.3c0,0,0-0.1,0.1-0.1l0,0c0,0,0,0,0,0l0.1-0.1c0,0,0,0,0,0c0.1-0.2,0.2-0.3,0.3-0.4
	c0,0,0,0,0,0l0,0c0,0,0,0,0,0c0,0,0.1-0.1,0.3-0.3c0,0,0,0,0,0c0,0,0,0,0.1,0l0.1,0c0.1,0.2,0.1,0.3,0.1,0.3l0,0.2l0,0.1L3.6,8.7"/>
<path class="st0" d="M5,11c-0.1-0.1-0.2-0.1-0.2-0.1c-0.2-0.2-0.3-0.4-0.3-0.5c0-0.1,0-0.1,0-0.1c0-0.1-0.1-0.2-0.1-0.3
	c0,0,0-0.1,0-0.1v0c0,0,0-0.1,0-0.2c0-0.1,0-0.2,0.1-0.3l0.2-0.2C4.7,9,4.8,9,4.8,9c0,0,0.1,0,0.2-0.1s0.1-0.1,0.2-0.1
	c0.2-0.2,0.4-0.3,0.5-0.5c0.1-0.2,0.1-0.3,0-0.4c0,0,0,0,0,0L5.3,7.6H5c0,0,0,0-0.1,0c0,0-0.1,0-0.1,0c-0.1,0-0.1,0-0.1,0.1
	C4.6,7.8,4.5,7.9,4.4,8c0,0.1-0.1,0.1-0.1,0.1c0,0.1-0.1,0.2-0.1,0.3v0.1C4.2,8.6,4.1,8.8,4.1,8.8L3.7,9.3v0.1c0,0,0.1,0.1,0.2,0.1
	c0.1,0,0.2,0,0.2,0l0.1,0.1v0c0,0,0,0,0,0.1c0,0.2,0,0.3,0.1,0.3c0,0.1,0,0.1,0.1,0.2c0,0,0,0.1,0,0.1c0,0.1,0,0.1,0.1,0.2
	c0,0,0,0,0,0.1v0c0.1,0.1,0.1,0.3,0.2,0.4c0,0,0.1,0.1,0.1,0.1c0,0.1,0.1,0.2,0.3,0.3c0.1,0,0.2-0.1,0.2-0.1c0,0,0.3-0.1,0.4-0.3
	l0-0.1l-0.1-0.1l-0.2,0l0,0.1L5.2,11L5,11 M5.3,8.3C5.2,8.4,5.2,8.4,5.3,8.3C5.1,8.5,5,8.6,5,8.6C4.8,8.7,4.7,8.7,4.6,8.8h0l-0.1,0
	l0-0.1c0,0,0,0,0-0.1l0.2-0.4c0,0,0.1-0.1,0.1-0.1c0.1-0.1,0.1-0.1,0.2-0.1h0.2l0.1,0.1l0.1,0.1C5.3,8.1,5.3,8.2,5.3,8.3z"/>
<path class="st0" d="M7.2,7C7.1,7,7,7,6.9,7.1C6.8,7.2,6.7,7.2,6.7,7.3v0c0,0.1,0,0.1,0,0.1l0,0v0.2c0,0,0,0,0,0.1c0,0,0,0.1,0,0.1
	c0,0.1,0,0.1,0,0.2l0,0.1c0,0,0,0,0,0.1v0c0,0,0,0.1,0,0.1v0.1c0,0,0,0.1,0,0.2c0,0,0,0,0,0.1l0,0.5c0,0,0,0,0,0v0c0,0,0,0,0,0
	c0,0.1,0,0.2,0,0.4c0,0.2,0,0.3,0,0.4l0,0.9c0,0,0,0,0,0v0c0,0,0,0.1,0,0.1c0,0-0.1,0.1-0.1,0.2l-0.1,0.1c0,0,0,0-0.1,0l0,0l-0.1,0
	c-0.1-0.2-0.2-0.4-0.2-0.5c0,0,0-0.1,0-0.1c0,0,0,0,0-0.1c0,0,0.1-0.1,0.1-0.1l0,0c0,0,0.1-0.1,0.1-0.1v0c0,0,0,0,0,0l0-0.2V9.7l0,0
	c0,0,0-0.1,0-0.2c0-0.1,0-0.1,0-0.1V9.3l0,0V8.8l0,0c0-0.1,0-0.2,0-0.4l0-0.1c0.1-0.1,0.1-0.2,0-0.5L6.4,7.4c0,0,0,0,0,0l0,0
	c0,0-0.1,0-0.1,0c-0.1,0-0.2,0-0.3,0.1c-0.1,0.1-0.1,0-0.1,0.1l-0.2,0l-0.1,0c0-0.1,0.1-0.2,0.1-0.2l0.1-0.1C5.8,7.2,5.9,7.1,6,7
	c0,0,0,0.1,0.1,0c0.1-0.1,0.2-0.1,0.2-0.2c0-0.1,0-0.2,0-0.3c0-0.1,0-0.2,0-0.3c0-0.1,0-0.2,0-0.3c0-0.1,0-0.2,0-0.2l0.1-0.1
	c0.1,0,0.1,0,0.1,0.1c0,0.2,0,0.4,0,0.8c0,0,0,0,0,0.1c0,0.1,0,0.2,0.1,0.3l0.2,0c0.1,0,0.1,0,0.2-0.1c0,0,0,0,0.1,0l0.2,0.1
	l0.1,0.1l0,0v0c0,0.1,0,0.1-0.1,0.1C7.4,7,7.3,7,7.2,7"/>
<path class="st0" d="M8.9,7.8C8.7,7.9,8.6,8,8.6,8C8.5,8.1,8.4,8.2,8.3,8.3C8.1,8.4,8,8.5,7.9,8.5L7.8,8.7v0.1c0,0,0,0.1,0,0.1
	c0,0.2,0,0.5,0.1,0.9c0,0.4,0.1,0.7,0.1,0.9c0,0.3,0,0.4-0.1,0.6l0,0H7.7c0,0-0.1,0-0.1-0.1c0-0.1,0-0.2,0-0.3c0-0.1,0-0.3,0-0.3
	c0,0,0-0.1,0-0.2c0-0.1,0-0.1,0-0.2V9.6c0-0.1-0.1-0.1-0.1-0.2V9.4c0,0,0,0,0-0.1c0,0,0-0.1,0-0.1c0-0.1,0-0.1,0-0.1L7.5,8.9V8.7
	c0-0.1-0.1-0.2-0.1-0.3c0-0.1,0-0.3,0.1-0.4l0-0.1c0,0,0-0.1,0.1-0.2l0.1,0l0.1,0c0,0,0.1,0.1,0.2,0.2c0.2-0.1,0.6-0.3,1-0.5
	c0.1,0,0.1,0,0.2,0.1c0,0,0,0,0,0.1v0l0.1,0.3l0,0.1H9.2L9,7.9L8.9,7.8L8.9,7.8"/>
<path class="st0" d="M9.5,10.9c0,0-0.1-0.1-0.1-0.1c0,0,0,0,0-0.1v-0.6c0-0.1,0-0.1,0-0.2c0-0.1,0.1-0.2,0.1-0.2c0,0,0,0,0.1,0
	c0-0.1,0-0.3,0-0.5c0-0.2,0.1-0.3,0.1-0.4c0.1-0.1,0.1-0.1,0.1-0.2c0-0.1,0-0.1,0.1-0.2l0.2-0.2c0.1-0.1,0.1-0.1,0.2-0.2
	c0.1,0,0.2,0,0.3-0.1h0.2c0,0,0,0.1,0.1,0.1c0,0.1,0,0.1,0.1,0.2l0.1,0.2v0.7c0,0.2-0.1,0.3-0.1,0.5c0,0,0,0-0.1,0.1
	c0,0,0,0.1,0,0.2c0,0,0,0-0.1,0c0,0,0,0.1,0,0.2c-0.1,0.1-0.1,0.2-0.1,0.2c0,0,0,0.1,0,0.1c-0.1,0.1-0.2,0.2-0.3,0.3l-0.4,0.3
	c-0.1,0-0.1,0-0.3,0C9.6,11,9.5,11,9.5,10.9"/>
<path class="st0" d="M18.1,13.7c-0.1-0.1-0.2-0.2-0.3-0.3c0,0,0-0.1-0.1-0.3v-1.6c0-0.1,0-0.3,0.1-0.6c0.1-0.2,0.2-0.4,0.2-0.5
	c0,0,0.1,0,0.1-0.1c0-0.3,0-0.8,0.1-1.3c0.1-0.4,0.2-0.7,0.2-0.9c0.2-0.2,0.3-0.3,0.4-0.4c0-0.2,0.1-0.4,0.2-0.6l0.4-0.4
	c0.2-0.1,0.3-0.3,0.5-0.5c0.3,0,0.5-0.1,0.7-0.1h0.6c0,0.1,0.1,0.2,0.2,0.3c0,0.2,0.1,0.4,0.2,0.5L22,7.7v1.6
	c-0.1,0.4-0.2,0.8-0.3,1.3c0,0-0.1,0.1-0.1,0.2c0,0.1,0,0.2-0.1,0.5c-0.1,0-0.1,0.1-0.1,0.1c0,0.1,0,0.2-0.1,0.4
	c-0.2,0.3-0.3,0.4-0.4,0.5c0,0,0,0.1-0.1,0.3c-0.3,0.3-0.5,0.6-0.7,0.8l-1.1,0.7c-0.1,0-0.4,0-0.7,0.1C18.1,14,18.1,13.8,18.1,13.7"
	/>
<path class="st0" d="M5.3,8.3C5.2,8.4,5.2,8.4,5.3,8.3C5.1,8.5,5.1,8.6,5,8.6C4.8,8.7,4.7,8.7,4.6,8.8h0l0,0l0-0.1c0,0,0,0,0-0.1
	l0.2-0.4c0,0,0.1-0.1,0.1-0.1c0.1-0.1,0.1-0.1,0.2-0.1h0.2l0.1,0.1l0.1,0.1C5.3,8.1,5.3,8.2,5.3,8.3"/>
<path class="st0" d="M24.2,9c0-0.6,0.1-1.1,0.1-1.7c0.2-0.2,0.4-0.3,0.6-0.4c0.2-0.1,0.4-0.1,0.6-0.2c0.4-0.2,0.7-0.4,0.8-0.4
	c0.6-0.1,1.1-0.2,1.5-0.3c0.1,0,0.6,0,1.4,0.1l0,0c0,0,0,0,0.1,0.1c0,0.3,0,0.6,0,0.7c-0.3,0.4-0.6,0.7-0.7,1
	c-0.2,0.2-0.3,0.3-0.4,0.3c-0.2,0.1-0.3,0.2-0.4,0.2l-0.1,0.2c-0.1,0.1-0.2,0.2-0.4,0.3c0,0,0,0.1-0.1,0.2c-0.7,0.5-1.3,0.9-2,1.3
	c-0.6,0.3-1,0.4-1.1,0.5L24.2,9"/>
<polyline class="st0" points="34.2,1.1 35.8,0.4 38,2.2 38.2,4.2 37.2,5.1 37.2,2.6 34.2,1.1 "/>
<polyline class="st0" points="32.3,3.4 34.4,4 35.2,6.7 35.7,7.3 35.7,4.1 33.1,2.5 32.3,2.5 32.3,3.4 "/>
<polyline class="st0" points="30.1,4.4 29.5,4.8 31.5,6.4 31.3,8.6 32.5,7.7 32.6,5.4 30.1,4.4 "/>
<polyline class="st0" points="29.3,5 31.7,6.6 31.9,8.1 33.6,7.7 32.6,6.2 30.9,4.8 29.4,4.8 29.3,5 "/>
<polyline class="st0" points="31.8,2.6 31.7,3 33.6,4.6 34.4,4.8 34.6,5.5 35.9,6.6 35.5,3.9 31.8,2.6 "/>
<g>
	<g>
		<defs>
			<rect id="SVGID_1_" width="38.3" height="20.6"/>
		</defs>
		<clipPath id="SVGID_2_">
			<use xlink:href="#SVGID_1_"  style="overflow:visible;"/>
		</clipPath>
		<polyline class="st1" points="34.9,1 35.8,0.9 37.6,0.9 38,3.6 37.8,4.4 37.2,4.9 36.6,3.9 37.1,2.6 35.8,2.4 34.9,1 		"/>
	</g>
	<g>
		<defs>
			<rect id="SVGID_3_" width="38.3" height="20.6"/>
		</defs>
		<clipPath id="SVGID_4_">
			<use xlink:href="#SVGID_3_"  style="overflow:visible;"/>
		</clipPath>
		<path class="st2" d="M31.9,5.9c-0.1,0.1-0.3,0.2-0.4,0.3c0,0,0,0,0,0c0,0,0,0,0.1,0c0,0,0,0,0-0.1C31.7,6,31.8,6,31.9,5.9
			L31.9,5.9c0,0.1-0.1,0.2-0.2,0.3c-0.1,0.2-0.3,0.3-0.4,0.4c-0.1,0-0.1-0.1-0.2-0.1c0,0-0.1-0.1,0-0.1c0.1,0,0.1-0.1,0.2-0.1
			c0,0,0.1,0,0.1-0.1c0.1,0,0.1-0.1,0.2-0.1C31.6,6,31.7,6,31.8,5.9C31.8,5.9,31.9,5.9,31.9,5.9 M32.6,5.6c0,0,0.1,0.1,0.1,0.1
			c0,0,0,0,0.1,0c0.1,0.1,0.2,0.1,0.3,0.1c0.1,0,0.2,0,0.2,0.1l0,0c0.1,0,0.1,0.1,0.1,0.2c0,0.1-0.1,0.2-0.1,0.3
			c0,0.1-0.1,0.2-0.2,0.3c-0.1,0.3-0.3,0.5-0.4,0.8c-0.1,0.2-0.2,0.3-0.3,0.5c0,0.1-0.1,0.2-0.1,0.3c0,0,0,0.1-0.1,0
			C32.1,8.1,32,8,32,7.8c0,0,0-0.1,0-0.1c0-0.1,0-0.2,0.1-0.3c0.1-0.2,0.1-0.4,0.2-0.6c0-0.2,0.2-0.5,0.1-0.7
			c-0.1-0.1-0.1-0.2-0.2-0.3c0,0-0.1,0-0.1-0.1c0.1,0,0.1-0.1,0.2-0.2c0-0.1,0.1-0.1,0.2-0.1C32.5,5.5,32.5,5.6,32.6,5.6z M33.1,5
			c-0.1,0.1-0.1,0.2-0.1,0.2c0,0,0-0.1-0.1-0.1C32.9,5.1,33,5,33.1,5C33,5,33.1,5,33.1,5z M33,5c-0.1,0.1-0.1,0.1-0.2,0.1
			c0,0-0.1-0.1,0-0.1C32.8,5,32.9,5,33,5L33,5z M31.8,4.6c0.1,0,0.3,0,0.4,0.1c0,0,0.1,0,0.1,0c0.1,0.1,0.1,0.3,0.1,0.4
			c0,0.1,0,0.1,0,0.2c0,0.1,0,0.1,0,0.1c-0.1,0.1-0.2,0.2-0.3,0.3c-0.1-0.1-0.2-0.1-0.3-0.2c-0.2-0.1-0.3-0.2-0.6-0.2
			c-0.3-0.1-0.6-0.1-0.9-0.1c-0.2,0-0.3,0-0.5,0c0,0-0.1,0,0,0c0.1-0.1,0.3-0.1,0.4-0.2c0.1,0,0.1-0.1,0.2-0.1
			c0.1,0,0.2-0.1,0.3-0.1c0.2-0.1,0.3-0.1,0.5-0.2c0,0,0,0,0.1,0c0.1,0,0.2,0,0.3,0C31.6,4.6,31.7,4.6,31.8,4.6z M33.4,4.9
			C33.4,4.8,33.4,4.8,33.4,4.9C33.4,4.8,33.3,4.8,33.4,4.9c-0.1,0-0.1-0.1-0.1-0.1c0.1-0.1,0.1-0.1,0.2-0.2c0,0,0,0,0.1-0.1
			c0,0,0.1-0.1,0.1-0.1c0.2-0.1,0.3-0.2,0.5-0.3C33.9,4.4,33.7,4.6,33.4,4.9z M34.2,4.1L34.2,4.1c-0.2,0.1-0.4,0.3-0.6,0.4
			c-0.1,0.1-0.2,0.2-0.3,0.3c0,0,0-0.1,0-0.1c0,0-0.1,0-0.1-0.1c0,0,0.1-0.1,0.1-0.1c0.1-0.1,0.3-0.1,0.4-0.2
			c0.1-0.1,0.2-0.1,0.3-0.1C34.1,4.1,34.1,4,34.2,4.1L34.2,4.1z M34.8,3.7C35,3.8,35.1,3.9,35.3,4c0.2,0,0.4,0,0.5,0.1
			C35.9,4.1,36,4.2,36,4.3c0,0,0,0.1,0,0.2c0,0,0,0.1,0,0.1c-0.1,0.3-0.2,0.5-0.3,0.7c-0.1,0.2-0.1,0.4-0.1,0.7c0,0.1,0,0.2,0,0.3
			c0,0.1,0,0.2-0.1,0.2c-0.1-0.1-0.2-0.2-0.2-0.4c-0.1-0.3-0.2-0.6-0.3-0.9c0-0.2-0.1-0.4-0.2-0.5c0-0.1-0.1-0.2-0.1-0.3
			c-0.1-0.1-0.1-0.2-0.2-0.3l-0.1-0.1C34.6,3.8,34.7,3.7,34.8,3.7C34.8,3.6,34.8,3.7,34.8,3.7z M36.7,0.3c-0.1-0.1-0.2,0-0.3,0
			c0,0-0.1,0-0.1,0c0,0-0.1,0-0.1,0c0,0-0.1,0-0.1,0c-0.1,0-0.1,0.1-0.2,0.1c-0.1,0-0.2,0.1-0.3,0.1c0,0-0.1,0-0.1,0
			c-0.1,0-0.2,0.1-0.2,0.1c-0.1,0-0.2,0.1-0.3,0.1c0,0-0.1,0-0.2,0.1C34.7,1,34.5,1,34.3,1l0,0c0,0,0,0,0,0c0,0.1,0.2,0.1,0.2,0.1
			c0.1,0,0.1,0.1,0.2,0c0,0,0.1,0,0.2,0c0.1,0,0.2,0,0.3,0c0.1,0,0.1,0,0.2,0c0.1,0,0.1,0,0.2,0l0,0c0,0,0.1,0,0.1,0
			c0.1,0,0.1,0,0.2,0.1c0,0,0.1,0,0.1,0c0,0,0.1,0,0.1,0c0,0,0.1,0,0.1,0.1c0.1,0,0.1,0.1,0.2,0.1c0.1,0,0.1,0.1,0.2,0.1
			c0.1,0,0.1,0.1,0.2,0.1c0,0,0,0,0,0c0,0-0.1,0-0.1,0c-0.2-0.1-0.4,0-0.6,0c-0.2,0.1-0.4,0.2-0.6,0.3c0,0,0,0.1,0,0.1
			c0,0,0,0.1,0.1,0.1c0,0.1,0.1,0,0.1,0c0,0,0.1,0,0.1-0.1c0,0,0-0.1-0.1-0.1c0,0,0,0,0,0c0,0.1,0,0,0.1,0.1c0,0,0,0,0,0.1
			c0,0-0.1,0-0.1,0c0,0,0-0.1,0-0.1c0,0,0-0.1,0.1-0.1c0.1-0.1,0.2-0.1,0.2-0.1c0.1,0,0.1-0.1,0.2-0.1c0,0,0.1,0,0.1,0
			c0.1,0,0.1,0,0.2,0c0,0,0.1,0,0.1,0c0,0,0.1,0,0.1,0c0,0-0.1,0-0.1,0c-0.2,0-0.3,0.1-0.5,0.1c0,0,0,0,0,0c0,0,0,0,0,0
			c0.1-0.1,0.1,0,0.2-0.1c0,0,0.1,0,0.1,0c0.1,0,0.1-0.1,0.2,0c-0.3,0.1-0.5,0.3-0.8,0.5c0,0-0.1,0.1-0.1,0.1c0,0,0.1,0.1,0.1,0.1
			c0,0,0.1,0,0.1,0.1l-0.1,0.1c-0.2,0-0.3,0.1-0.5,0.2c0,0,0,0.1,0,0.1c0,0,0.1,0,0.1,0.1c-0.1,0.1-0.2,0.1-0.2,0.2c0,0,0,0,0,0
			c-0.1-0.2-0.1-0.3-0.1-0.5c0-0.2-0.1-0.3-0.2-0.5c-0.1-0.1-0.3-0.2-0.4-0.2c-0.2,0-0.4,0-0.7,0.1c-0.3,0.1-0.5,0.2-0.7,0.2
			c-0.2,0.1-0.3,0.1-0.5,0.2c-0.1,0,0,0.1,0.1,0.1c0.1,0,0.2,0.1,0.3,0.1c0,0,0.1,0,0.1,0.1c0.1,0,0.1,0,0.2,0c0,0,0.1,0,0.1,0
			c0.1,0,0.2,0.1,0.3,0.1c0.2,0.1,0.5,0.2,0.7,0.3c0.1,0.1,0.2,0.2,0.3,0.3c0,0,0,0,0,0c0,0,0,0,0,0L34.3,4
			c-0.1-0.1-0.2-0.2-0.4-0.2c-0.3,0-0.6,0-0.8,0.2C33,4.1,33,4.2,33,4.3c0,0.1,0.1,0,0.1,0.1c0,0,0.1,0,0.1,0c0,0,0-0.1,0-0.1
			c0,0-0.1,0-0.1,0c0,0,0,0,0.1,0c0,0,0,0.1,0,0.1c-0.1,0-0.1,0-0.1,0c0-0.1,0.1-0.2,0.1-0.2c0,0,0.1,0,0.1-0.1
			c0.1,0,0.2-0.1,0.3-0.1c0,0,0.1,0,0.1,0c0.1,0,0.2,0,0.3,0c0,0,0.1,0,0.1,0c0.1,0,0.1,0.1,0.2,0.1c0,0,0,0,0,0
			c-0.3,0-0.6,0.2-0.8,0.2c0,0-0.1,0,0,0.1c0,0,0,0,0,0c0.1,0,0.2-0.1,0.2-0.1c0.1,0,0.2-0.1,0.3-0.1c0,0,0.1,0,0.1,0
			c0,0-0.1,0-0.1,0c-0.3,0.1-0.5,0.3-0.8,0.4c0,0-0.1,0-0.1,0c0,0.1,0.1,0.1,0.1,0.1c0,0,0.1,0.1,0.1,0.1c0,0-0.1,0.1-0.2,0.1
			c-0.1,0-0.3,0.1-0.4,0.1c0,0,0,0,0,0.1c0,0,0.1,0.1,0.1,0.1c-0.1,0.1-0.2,0.2-0.3,0.2c0,0,0-0.1,0-0.1c0-0.3,0-0.5-0.1-0.7
			c-0.1-0.1-0.2-0.1-0.3-0.1c-0.2,0-0.3-0.1-0.5,0l0,0v0c-0.1,0-0.2,0.1-0.3,0.1s-0.2,0.1-0.3,0.1c-0.2,0.1-0.4,0.1-0.5,0.2
			C30.3,5,30,5.1,29.7,5.2c0,0,0,0.1,0,0.1c0,0,0.1,0,0.1,0c0,0,0.1,0,0.1,0c0.1,0,0.3,0,0.4-0.1c0.1,0,0.1,0,0.1,0
			c0.1,0,0.1,0,0.2,0c0.2,0,0.3,0,0.5,0c0,0,0.1,0,0.2,0c0.1,0,0.1,0,0.1,0.1c0.1,0,0.1,0.1,0.2,0.1c0.1,0.1,0.2,0.1,0.3,0.2l0,0
			c-0.3-0.1-0.7-0.1-1,0.1c-0.1,0-0.1,0.1-0.1,0.2c0,0.1,0.1,0.1,0.2,0.1l0.1-0.1c0,0,0,0,0,0c0,0,0-0.1,0-0.1c0,0,0-0.1-0.1,0
			c0,0-0.1,0,0,0c0,0,0,0,0.1,0c0,0,0.1,0.1,0.1,0.1c0,0-0.1,0.1-0.1,0c0,0-0.1,0-0.1,0c0,0,0-0.1,0-0.1c0-0.1,0-0.1,0.1-0.1
			c0.1-0.1,0.3-0.1,0.5-0.1c0,0,0.1,0,0.1,0c0.1,0,0.2,0,0.3,0c0,0,0.1,0,0.1,0.1c-0.1,0-0.2,0-0.2,0.1c-0.2,0-0.3,0.1-0.5,0.1
			c0,0,0,0,0,0c0,0,0,0,0.1,0c0.1,0,0.3-0.1,0.4-0.1c0,0,0,0,0,0c-0.2,0.1-0.4,0.2-0.6,0.3c-0.1,0-0.2,0.1-0.2,0.1
			c0,0,0,0.1,0.1,0.1c0,0.1,0.1,0.1,0.2,0.2l0,0c0,0,0,0,0,0c0,0,0,0,0,0c0.1-0.1,0.2-0.2,0.2-0.2c0.1,0,0.1-0.1,0.2-0.2
			c0.1-0.1,0.2-0.2,0.2-0.3c0,0,0-0.1,0.1-0.1c0,0.1-0.1,0.2-0.2,0.3c0,0.1-0.2,0.1-0.1,0.2c0.1,0,0-0.1,0.1-0.1
			c0,0,0.1-0.1,0.1-0.1c0,0,0,0,0-0.1C32,6.1,32,6,32,6c0,0,0,0,0,0c0,0.1-0.1,0.3-0.1,0.4c-0.1,0.2-0.2,0.3-0.3,0.4
			c0,0-0.1,0-0.1,0c0,0,0-0.1,0-0.1c0,0,0,0,0.1-0.1c0,0,0,0,0.1,0c0,0,0,0,0-0.1c0,0-0.1,0-0.1,0c-0.1,0-0.1,0.1-0.1,0.2
			c0,0,0,0.1,0.1,0.1c0,0,0.1,0,0.2,0c0.1-0.1,0.1-0.2,0.2-0.3c0,0,0.1-0.1,0.1-0.1c0,0,0-0.1,0.1-0.1c0.1-0.1,0.1-0.2,0.1-0.3
			c0,0,0-0.1,0-0.1c0,0,0,0,0,0c0,0,0.1,0.1,0.1,0.1C32.2,6,32.3,6,32.3,6.1c0.1,0.2,0,0.4-0.1,0.7c0,0,0,0.1,0,0.1
			C32.2,7,32.1,7.2,32,7.4C32,7.5,32,7.6,32,7.8c0,0.1,0.1,0.2,0.1,0.3c0,0.1,0.1,0.1,0.1,0.2c0,0,0.1,0,0.1,0.1c0,0,0-0.1,0.1-0.1
			c0.1,0,0-0.1,0.1-0.2c0-0.1,0.1-0.2,0.2-0.3c0-0.1,0.1-0.2,0.2-0.2c0-0.1,0.1-0.1,0.1-0.1c0,0,0.1-0.1,0.1-0.1
			C32.9,7.1,33,7,33,6.9c0,0,0-0.1,0.1-0.1c0.1-0.1,0.1-0.3,0.3-0.4c0,0,0,0,0,0c0,0,0.1-0.1,0.1-0.1c0,0,0,0,0-0.1
			c0-0.1,0-0.1,0-0.2l-0.1-0.1c0,0,0-0.1-0.1-0.1c0,0-0.1,0.1-0.1,0c0,0,0,0,0,0c0,0,0,0-0.1,0c-0.1,0-0.2-0.1-0.3-0.1
			c-0.2-0.1-0.3-0.2-0.4-0.3c0.1-0.1,0.2-0.2,0.3-0.2c0,0,0.1,0.1,0.1,0.1c0,0,0,0.1,0,0.1c0,0,0,0,0,0c0-0.2,0.1-0.3,0.2-0.4
			c0,0,0,0,0,0c0-0.1,0.1-0.1,0.1-0.1c0,0,0,0,0.1,0.1c0,0,0,0,0,0c0,0,0,0.1,0,0.1c0.1,0,0.1,0,0.1-0.1c0.1-0.1,0.2-0.2,0.3-0.4
			c0.1-0.1,0.3-0.3,0.4-0.4l0,0c0,0.1-0.1,0.2-0.2,0.3c0,0.1-0.1,0.2-0.1,0.3c0,0,0,0,0,0c0,0,0,0,0-0.1c0-0.1,0-0.2,0.1-0.3
			c0-0.1,0.1-0.2,0.1-0.4c0,0,0,0,0,0c0,0.1,0,0.1,0,0.2c0,0.1,0.1,0.3,0,0.4c0,0.1-0.1,0.2-0.1,0.2c-0.1,0.1-0.2,0.2-0.4,0.3
			c0,0-0.1,0-0.1,0c0,0,0,0,0-0.1c0,0,0.1-0.1,0.1-0.1c0,0,0.1,0,0.1,0c0,0,0,0,0-0.1c0,0-0.1,0-0.1,0c0,0-0.1,0.1-0.1,0.1
			c0,0.1,0,0.1,0.1,0.1c0.1,0,0.2,0,0.2,0c0,0,0.1,0,0.1-0.1c0,0,0.1-0.1,0.1-0.1c0.1,0,0.1-0.1,0.1-0.1c0-0.1,0-0.1,0.1-0.2
			c0-0.1,0-0.1,0-0.2c0-0.2,0-0.3-0.1-0.5c0,0,0.1-0.1,0.1-0.1c0,0,0,0,0.1,0.1c0,0.1,0.1,0.1,0.1,0.1c0,0.1,0.1,0.1,0.1,0.2
			c0,0.1,0.1,0.3,0.2,0.4c0.1,0.3,0.2,0.6,0.2,0.9c0,0.2,0.1,0.3,0.2,0.4c0,0.1,0.1,0.1,0.1,0.2c0,0,0,0.1,0,0.1
			c0,0,0.1,0.1,0.1,0.1c0,0,0-0.1,0-0.1c0.1-0.1,0-0.2,0.1-0.2c0-0.2,0-0.4,0.1-0.6c0-0.1,0-0.2,0.1-0.2c0.1-0.2,0.1-0.3,0.2-0.5
			c0-0.1,0.1-0.1,0.1-0.2c0.1-0.1,0.1-0.4,0-0.5C35.9,4,35.8,4,35.7,4c-0.1,0-0.2,0-0.3,0l0,0c-0.1,0-0.1-0.1-0.2-0.1
			c-0.1-0.1-0.2-0.2-0.3-0.3c0.1-0.1,0.1-0.1,0.2-0.2c0,0,0,0,0.1,0c0,0,0.1,0.1,0.1,0.1c0,0,0,0,0,0c0.1,0,0-0.1,0.1-0.1
			c0,0,0-0.1,0.1-0.1c0,0,0-0.1,0.1-0.1c0-0.1,0.1-0.1,0.1-0.1l0.1,0.2c0,0,0,0.1,0.1,0c0,0,0.1,0,0,0C35.9,3,36,2.9,36.1,2.7
			c0.1-0.2,0.3-0.3,0.4-0.5l0,0c0,0.1-0.1,0.2-0.1,0.3c0,0.1-0.1,0.2-0.1,0.3c0,0,0,0,0.1-0.1c0,0,0,0,0-0.1
			c0.1-0.1,0.1-0.2,0.1-0.3c0-0.1,0-0.2,0.1-0.2c0,0,0,0,0,0c0,0.1,0,0.2,0,0.3c0,0.2,0,0.3-0.1,0.5c-0.1,0.1-0.2,0.2-0.3,0.2l0,0
			c0,0-0.1-0.1,0-0.1c0,0,0,0,0,0c0,0,0,0,0.1,0c0,0,0,0,0,0c0-0.1-0.1,0-0.1,0l0,0c0,0.1,0,0.2,0.1,0.2c0,0,0.1,0,0.1,0
			c0.1,0,0.1-0.1,0.1-0.1c0,0,0.1,0,0.1-0.1c0.1-0.1,0.1-0.2,0.1-0.3c0.1-0.2,0-0.4,0-0.6c0,0,0-0.1,0-0.1c0,0,0-0.1,0.1,0
			c0.1,0,0.1,0.1,0.2,0.2l0,0c0.1,0.1,0.2,0.2,0.2,0.4c0.1,0.3,0,0.7,0.1,1c0,0.1,0,0.2,0.1,0.3c0,0.1,0,0.1,0.1,0.2
			c0,0.1,0.1,0.2,0.1,0.3c0,0.1,0.1,0.2,0.1,0.3v0c0,0,0,0,0,0c0,0,0-0.1,0-0.2c0,0,0-0.1,0-0.1c0,0,0-0.1,0-0.1
			c0-0.1,0-0.2,0.1-0.4c0.1-0.3,0.2-0.4,0.4-1.1c0-0.1,0.1-0.3,0.1-0.4c0.1-0.2,0-0.3,0-0.5c0,0,0,0,0-0.1c-0.1-0.1-0.2-0.1-0.3-0.1
			c-0.1,0-0.2,0-0.4-0.1c0,0-0.1,0-0.1-0.1c-0.1,0-0.1,0-0.2-0.1c0,0,0,0,0,0c0.1-0.1,0.1-0.1,0.2-0.2c0.1,0,0.1,0.1,0.1,0.1
			c0,0,0,0,0,0c0,0,0,0,0,0c0-0.1,0-0.1,0-0.2c0,0,0.1-0.1,0-0.1c0,0,0-0.1,0-0.1c0,0-0.1,0-0.1,0c-0.1,0-0.2,0-0.2,0.1
			c-0.1,0-0.1,0-0.2,0.1c0,0,0,0,0,0c0,0,0.1,0,0.1,0c0,0,0.1,0,0.1,0.1l-0.2,0.2L37,1.5c-0.1-0.1-0.1-0.1-0.1-0.2c0,0,0-0.1,0-0.1
			C36.8,0.9,36.9,0.5,36.7,0.3L36.7,0.3z M35.3,3.2C35.3,3.2,35.3,3.3,35.3,3.2c-0.1,0.1-0.1,0.2-0.1,0.2c0,0,0-0.1-0.1-0.1
			C35.2,3.3,35.2,3.3,35.3,3.2C35.3,3.2,35.3,3.2,35.3,3.2z M34,2.4c0.1,0,0.1,0,0.2,0c0.1,0,0.2,0,0.2,0.1l0.1,0
			c0,0.1,0.1,0.1,0.1,0.2c0,0,0,0.1,0,0.2c0,0.1,0.1,0.2,0.1,0.3c0,0.1,0,0.1,0,0.2c0,0,0,0.1,0,0.1c0,0,0,0.1,0,0.1
			c-0.1,0.1-0.2,0.2-0.3,0.3c-0.1-0.1-0.1-0.1-0.2-0.2c-0.1-0.1-0.3-0.2-0.5-0.3c-0.3-0.1-0.5-0.3-0.8-0.3C32.9,3,32.8,3,32.6,3
			c-0.1,0-0.2-0.1-0.3-0.1c0,0,0,0,0,0c0.1,0,0.2,0,0.3-0.1c0,0,0.1,0,0.1,0c0.1,0,0.2,0,0.3-0.1c0.1,0,0.1,0,0.2-0.1
			c0.1,0,0.1,0,0.2,0c0,0,0,0,0.1,0c0.1,0,0.1,0,0.2,0c0,0,0,0,0.1,0C33.7,2.4,33.8,2.4,34,2.4z M36.5,2.2
			C36.5,2.2,36.5,2.2,36.5,2.2c-0.3,0.4-0.5,0.7-0.8,1c0,0,0,0,0,0C35.7,3.1,35.6,3,35.6,3c0.1-0.1,0.2-0.1,0.2-0.2
			c0.1-0.1,0.2-0.2,0.3-0.3l0,0C36.3,2.4,36.4,2.3,36.5,2.2C36.5,2.2,36.5,2.2,36.5,2.2z M36.5,2.2L36.5,2.2
			c-0.2,0.2-0.4,0.4-0.6,0.5c-0.1,0.1-0.2,0.2-0.3,0.3c0-0.1-0.1-0.1-0.1-0.2c0,0,0.1-0.1,0.1-0.1c0,0,0.1-0.1,0.1-0.1
			c0.1,0,0.1-0.1,0.1-0.1c0,0,0.1,0,0.1-0.1c0.1,0,0.1-0.1,0.1-0.1C36,2.4,36,2.4,36.1,2.3c0,0,0,0,0,0c0.1,0,0.1-0.1,0.2-0.1
			C36.4,2.2,36.4,2.1,36.5,2.2z M37.2,1.7c0,0.1,0.1,0,0.2,0.1c0.1,0,0.1,0,0.2,0c0,0,0,0,0.1,0c0.1,0,0.2,0,0.3,0.1
			c0,0,0.1,0,0.2,0c0.1,0,0.1,0.2,0.2,0.3c0,0.1,0,0.2,0,0.3c-0.1,0.3-0.2,0.6-0.3,0.9c0,0.1-0.1,0.2-0.1,0.3
			c-0.1,0.2-0.2,0.4-0.2,0.7c0,0.1-0.1,0.1-0.1,0.2c0,0,0-0.1-0.1-0.1c-0.1-0.2-0.1-0.4-0.2-0.6c-0.2-0.5,0.1-1.2-0.3-1.6
			c0,0-0.1-0.1-0.1-0.1C36.9,2.1,36.8,2,36.8,2C36.9,1.9,37,1.7,37.2,1.7C37.2,1.6,37.2,1.7,37.2,1.7z M36.7,0.4
			c0.1,0,0.1,0.1,0.1,0.2c0,0.1,0,0.2,0,0.3c0,0.1,0,0.2,0.1,0.3c0,0.1,0.1,0.2,0.2,0.3c0,0,0,0,0,0c0,0,0.1,0,0.1,0.1
			c-0.1,0.1-0.2,0.2-0.4,0.3c-0.2-0.1-0.4-0.3-0.7-0.4c-0.2-0.1-0.3-0.2-0.5-0.2c-0.1,0-0.2,0-0.2-0.1c-0.2,0-0.5-0.1-0.7-0.1l0,0
			c-0.1,0-0.1,0-0.2,0c0,0-0.1,0-0.1,0c0,0,0.1,0,0.1,0c0.1,0,0.2,0,0.2,0c0.1,0,0.1,0,0.2,0c0.1,0,0.2,0,0.2-0.1c0.1,0,0.1,0,0.1,0
			c0.2-0.1,0.4-0.1,0.5-0.2c0.1-0.1,0.3-0.1,0.4-0.2c0.2,0,0.3-0.1,0.5-0.1C36.6,0.3,36.6,0.4,36.7,0.4z M37.6,1.4
			C37.6,1.4,37.6,1.5,37.6,1.4C37.5,1.5,37.5,1.5,37.6,1.4c-0.1,0-0.1,0-0.1,0c0-0.1,0.1-0.1,0.2-0.1l0,0
			C37.6,1.3,37.6,1.3,37.6,1.4z M37.6,1.2c-0.1,0.1-0.1,0.1-0.2,0.2c0,0-0.1,0-0.1,0c0,0-0.1,0-0.1-0.1c0,0,0.1,0,0.1,0
			c0,0,0.1,0,0.1,0C37.5,1.2,37.5,1.1,37.6,1.2z"/>
	</g>
</g>
<polyline class="st0" points="35.5,6.5 35.5,6.5 35.5,6.4 35.5,6.4 35.5,6.5 "/>
<path class="st0" d="M3.6,17.1c0,0,0,0.1,0,0.1v0.7c0,0,0,0,0,0H4c0,0,0,0,0,0v-0.7c0,0,0-0.1,0-0.1h0.2c0,0,0,0.1,0,0.1v0.7
	C4.2,18,4.1,18,4,18H3.5c-0.1,0-0.2-0.1-0.2-0.2v-0.7c0,0,0-0.1,0-0.1L3.6,17.1"/>
<path class="st0" d="M4.6,17.3L4.6,17.3L4.6,17.3C4.6,17.4,4.6,17.3,4.6,17.3H5c0.1,0,0.2,0.1,0.2,0.2v0.4c0,0.1,0,0.1,0,0.2H4.9
	c0,0,0-0.1,0-0.2v-0.4c0,0,0-0.1,0-0.1H4.6c0,0,0,0,0,0.1v0.4c0,0.1,0,0.1,0,0.2H4.3c0,0,0-0.1,0-0.2v-0.4c0-0.1,0-0.1,0-0.2
	L4.6,17.3"/>
<path class="st0" d="M6.6,17.9C6.6,18,6.6,18,6.4,18H5.8l0-0.1c0,0,0.1,0,0.2,0h0.3c0,0,0.1,0,0.1,0v0c0,0,0,0-0.1,0H6
	c-0.1,0-0.2-0.1-0.2-0.2v-0.1c0-0.1,0.1-0.2,0.2-0.2h0.6l0,0.1c0,0-0.1,0-0.2,0H6.1c0,0,0,0,0,0v0c0,0,0,0,0,0h0.3
	c0.1,0,0.2,0.1,0.2,0.2L6.6,17.9"/>
<path class="st0" d="M7,17.8v0.1c0,0,0,0,0,0h0.4c0,0,0.1,0,0.1,0l0,0.1H6.9c-0.1,0-0.2-0.1-0.2-0.2v-0.3c0-0.1,0.1-0.2,0.2-0.2h0.5
	c0.1,0,0.2,0.1,0.2,0.2v0.2H7 M7.3,17.6v-0.1c0,0,0-0.1,0-0.1H7c0,0,0,0,0,0.1v0.1H7.3z"/>
<path class="st0" d="M8.2,17.5c0,0-0.1,0-0.2,0H8c0,0,0,0,0,0v0.4c0,0.1,0,0.1,0,0.2H7.6c0,0,0-0.1,0-0.2v-0.4c0-0.1,0-0.1,0-0.2
	h0.2l0,0.1h0c0-0.1,0-0.1,0.1-0.1h0.2L8.2,17.5"/>
<path class="st0" d="M8.6,18l-0.1-0.2c-0.1-0.2-0.2-0.5-0.2-0.5h0.3c0,0,0,0,0,0c0,0,0,0.1,0.2,0.5C8.9,17.6,9,17.4,9,17.4
	c0,0,0,0,0,0h0.2c0,0,0,0-0.1,0.1L8.8,18H8.6"/>
<path class="st0" d="M9.5,17.3v0.5c0,0.1,0,0.1,0,0.2H9.2c0,0,0-0.1,0-0.2v-0.4c0-0.1,0-0.1,0-0.2H9.5 M9.2,17.1h0.2v0.2H9.2V17.1z"
	/>
<path class="st0" d="M9.9,17.5C9.9,17.5,9.9,17.5,9.9,17.5l0,0.4c0,0,0,0,0,0h0.3c0,0,0.1,0,0.1,0l0,0.1H9.8c-0.1,0-0.2-0.1-0.2-0.2
	v-0.3c0-0.1,0.1-0.2,0.2-0.2h0.5l0,0.1c0,0-0.1,0-0.1,0L9.9,17.5"/>
<path class="st0" d="M10.7,17.8v0.1c0,0,0,0,0,0h0.4c0,0,0.1,0,0.1,0l0,0.1h-0.6c-0.1,0-0.2-0.1-0.2-0.2v-0.3c0-0.1,0.1-0.2,0.2-0.2
	h0.5c0.1,0,0.2,0.1,0.2,0.2v0.2H10.7 M11,17.6v-0.1c0,0,0-0.1,0-0.1h-0.2c0,0,0,0,0,0.1v0.1H11z"/>
<path class="st0" d="M12.5,18L12.5,18C12.5,18,12.5,18,12.5,18L12.1,18c-0.1,0-0.2-0.1-0.2-0.2v-0.3c0-0.1,0.1-0.2,0.2-0.2h0.3
	c0,0,0,0,0,0c0,0,0,0,0,0.1h0v-0.2c0-0.1,0-0.1,0-0.2h0.3v0.8c0,0.1,0,0.1,0,0.2L12.5,18L12.5,18 M12.5,17.9
	C12.5,17.9,12.5,17.9,12.5,17.9l0-0.4c0,0,0-0.1,0-0.1h-0.2c0,0,0,0,0,0.1v0.4c0,0,0,0,0,0H12.5z"/>
<path class="st0" d="M13.5,18L13.5,18L13.5,18C13.4,18,13.4,18,13.5,18h-0.4c-0.1,0-0.2-0.1-0.2-0.2v-0.4c0-0.1,0-0.1,0-0.2h0.3v0.5
	c0,0,0,0,0,0h0.2c0,0,0,0,0,0v-0.4c0-0.1,0-0.1,0-0.2h0.3v0.5c0,0.1,0,0.1,0,0.2L13.5,18"/>
<path class="st0" d="M3.5,19.9c-0.1,0-0.2-0.1-0.2-0.2v-0.6c0-0.1,0.1-0.2,0.2-0.2H4l0,0.1c0,0-0.1,0-0.1,0H3.6c0,0-0.1,0-0.1,0.1
	v0.6c0,0,0,0.1,0.1,0.1h0.3c0,0,0.1,0,0.1,0l0,0.1L3.5,19.9"/>
<path class="st0" d="M4.3,19.9c-0.1,0-0.2-0.1-0.2-0.2v-0.3c0-0.1,0.1-0.2,0.2-0.2h0.5c0.1,0,0.2,0.1,0.2,0.2v0.3
	c0,0.1-0.1,0.2-0.2,0.2H4.3 M4.6,19.8C4.7,19.8,4.7,19.7,4.6,19.8l0-0.4c0,0,0-0.1,0-0.1H4.4c0,0,0,0,0,0.1v0.4c0,0,0,0,0,0H4.6z"/>
<path class="st0" d="M5.3,19.2L5.3,19.2L5.3,19.2C5.3,19.2,5.3,19.2,5.3,19.2h0.4c0.1,0,0.2,0.1,0.2,0.2v0.4c0,0.1,0,0.1,0,0.2H5.6
	c0,0,0-0.1,0-0.2v-0.4c0,0,0-0.1,0-0.1H5.4c0,0,0,0,0,0.1v0.4c0,0.1,0,0.1,0,0.2H5c0,0,0-0.1,0-0.2v-0.4c0-0.1,0-0.1,0-0.2L5.3,19.2
	"/>
<path class="st0" d="M6.8,19.7c0,0.1-0.1,0.2-0.2,0.2H6l0-0.1c0,0,0.1,0,0.2,0h0.3c0,0,0.1,0,0.1,0v0c0,0,0,0-0.1,0H6.2
	C6,19.6,6,19.6,6,19.4v-0.1c0-0.1,0.1-0.2,0.2-0.2h0.6l0,0.1c0,0-0.1,0-0.2,0H6.3c0,0,0,0,0,0v0c0,0,0,0,0,0h0.3
	c0.1,0,0.2,0.1,0.2,0.2V19.7"/>
<path class="st0" d="M7.1,19.6v0.1c0,0,0,0,0,0h0.4c0,0,0.1,0,0.1,0l0,0.1H7.1c-0.1,0-0.2-0.1-0.2-0.2v-0.3c0-0.1,0.1-0.2,0.2-0.2
	h0.5c0.1,0,0.2,0.1,0.2,0.2v0.2L7.1,19.6 M7.5,19.5v-0.1c0,0,0-0.1,0-0.1H7.2c0,0,0,0,0,0.1v0.1H7.5z"/>
<path class="st0" d="M8.1,19.2v0.5c0,0.1,0,0.1,0,0.2H7.8c0,0,0-0.1,0-0.2v-0.4c0-0.1,0-0.1,0-0.2L8.1,19.2 M7.9,18.9h0.2v0.2H7.9
	V18.9z"/>
<path class="st0" d="M8.6,19.7c0,0.1,0,0.1,0,0.2H8.3c0,0,0-0.1,0-0.2v-0.6c0-0.1,0-0.1,0-0.2h0.3L8.6,19.7"/>
<path class="st0" d="M9.5,19.7c0,0,0,0.1,0,0.1H9.2c0,0,0-0.1,0-0.1V19c0,0,0-0.1,0-0.1H10c0.1,0,0.2,0.1,0.2,0.2v0.2
	c0,0.1,0,0.1-0.1,0.2l0.1,0.3c0,0,0,0.1,0.1,0.1H9.9l-0.2-0.4H9.5V19.7 M9.5,19.3h0.3c0,0,0.1,0,0.1-0.1v-0.2c0,0,0-0.1-0.1-0.1H9.5
	V19.3z"/>
<path class="st0" d="M10.6,19.6v0.1c0,0,0,0,0,0h0.4c0,0,0.1,0,0.1,0l0,0.1h-0.6c-0.1,0-0.2-0.1-0.2-0.2v-0.3c0-0.1,0.1-0.2,0.2-0.2
	H11c0.1,0,0.2,0.1,0.2,0.2v0.2L10.6,19.6 M10.9,19.5v-0.1c0,0,0-0.1,0-0.1h-0.2c0,0,0,0,0,0.1v0.1H10.9z M10.6,19.1l0.1-0.2H11
	l-0.2,0.2H10.6z"/>
<path class="st0" d="M11.2,20c0,0,0.1,0,0.2,0h0.3c0,0,0.1,0,0.1-0.1v-0.2h0c0,0,0,0,0,0.1c0,0,0,0-0.1,0h-0.3
	c-0.1,0-0.2-0.1-0.2-0.2v-0.3c0-0.1,0.1-0.2,0.2-0.2h0.3c0,0,0.1,0,0.1,0.1h0l0-0.1h0.3c0,0,0,0.1,0,0.2v0.6c0,0.1-0.1,0.2-0.2,0.2
	h-0.6L11.2,20 M11.8,19.8C11.8,19.8,11.8,19.7,11.8,19.8l0-0.4c0,0,0-0.1,0-0.1h-0.2c0,0,0,0,0,0.1v0.4c0,0,0,0,0,0H11.8z"/>
<path class="st0" d="M12.5,19.2v0.5c0,0.1,0,0.1,0,0.2h-0.3c0,0,0-0.1,0-0.2v-0.4c0-0.1,0-0.1,0-0.2L12.5,19.2 M12.2,18.9h0.2v0.2
	h-0.2V18.9z"/>
<path class="st0" d="M12.8,19.9c-0.1,0-0.2-0.1-0.2-0.2v-0.3c0-0.1,0.1-0.2,0.2-0.2h0.5c0.1,0,0.2,0.1,0.2,0.2v0.3
	c0,0.1-0.1,0.2-0.2,0.2H12.8 M13.1,19.8C13.2,19.8,13.2,19.7,13.1,19.8l0-0.4c0,0,0-0.1,0-0.1h-0.2c0,0,0,0,0,0.1v0.4c0,0,0,0,0,0
	H13.1z"/>
<path class="st0" d="M13.8,19.2L13.8,19.2L13.8,19.2C13.8,19.2,13.8,19.2,13.8,19.2h0.4c0.1,0,0.2,0.1,0.2,0.2v0.4
	c0,0.1,0,0.1,0,0.2h-0.3c0,0,0-0.1,0-0.2v-0.4c0,0,0-0.1,0-0.1h-0.2c0,0,0,0,0,0.1v0.4c0,0.1,0,0.1,0,0.2h-0.3c0,0,0-0.1,0-0.2v-0.4
	c0-0.1,0-0.1,0-0.2L13.8,19.2"/>
<path class="st0" d="M15.3,19.7c0,0.1,0,0.1,0,0.2h-0.2l0-0.1h0c0,0.1,0,0.1-0.1,0.1h-0.3c-0.1,0-0.2-0.1-0.2-0.2
	c0-0.2,0.1-0.2,0.2-0.2H15c0,0,0,0,0,0v0c0,0,0,0,0,0h-0.4c0,0-0.1,0-0.1,0l0-0.1h0.6c0.1,0,0.2,0.1,0.2,0.2L15.3,19.7 M14.8,19.5
	C14.8,19.5,14.8,19.5,14.8,19.5l0,0.2c0,0,0,0,0,0H15c0,0,0,0,0,0v-0.2H14.8z"/>
<path class="st0" d="M15.7,19.7c0,0.1,0,0.1,0,0.2h-0.3c0,0,0-0.1,0-0.2v-0.6c0-0.1,0-0.1,0-0.2h0.3V19.7"/>
<path class="st0" d="M17,19.8L17,19.8C17,19.8,16.9,19.9,17,19.8l-0.4,0.1c-0.1,0-0.2-0.1-0.2-0.2v-0.3c0-0.1,0.1-0.2,0.2-0.2h0.3
	c0,0,0,0,0,0c0,0,0,0,0,0.1h0v-0.2c0-0.1,0-0.1,0-0.2h0.3v0.8c0,0.1,0,0.1,0,0.2L17,19.8L17,19.8 M16.9,19.8
	C17,19.8,17,19.7,16.9,19.8l0-0.4c0,0,0-0.1,0-0.1h-0.2c0,0,0,0,0,0.1v0.4c0,0,0,0,0,0H16.9z"/>
<path class="st0" d="M17.6,19.6v0.1c0,0,0,0,0,0h0.4c0,0,0,0,0.1,0l0,0.1h-0.6c-0.1,0-0.2-0.1-0.2-0.2v-0.3c0-0.1,0.1-0.2,0.2-0.2
	H18c0.1,0,0.2,0.1,0.2,0.2v0.2L17.6,19.6 M17.9,19.5v-0.1c0,0,0-0.1,0-0.1h-0.2c0,0,0,0,0,0.1v0.1H17.9z"/>
<path class="st0" d="M19.1,18.9c0,0,0,0.1,0,0.1v0.7h0.4c0,0,0.1,0,0.1,0l0,0.1h-0.8c0,0,0-0.1,0-0.1V19c0,0,0-0.1,0-0.1L19.1,18.9"
	/>
<path class="st0" d="M19.9,19.9c-0.1,0-0.2-0.1-0.2-0.2v-0.3c0-0.1,0.1-0.2,0.2-0.2h0.5c0.1,0,0.2,0.1,0.2,0.2v0.3
	c0,0.1-0.1,0.2-0.2,0.2H19.9 M20.2,19.8C20.3,19.8,20.3,19.7,20.2,19.8l0-0.4c0,0,0-0.1,0-0.1H20c0,0,0,0,0,0.1v0.4c0,0,0,0,0,0
	H20.2z"/>
<path class="st0" d="M21.2,19.3c0,0-0.1,0-0.2,0H21c0,0,0,0,0,0v0.4c0,0.1,0,0.1,0,0.2h-0.3c0,0,0-0.1,0-0.2v-0.4c0-0.1,0-0.1,0-0.2
	h0.2l0,0.1h0c0-0.1,0-0.1,0.1-0.1h0.2L21.2,19.3"/>
<path class="st0" d="M21.9,19.3c0,0-0.1,0-0.2,0h-0.1c0,0,0,0,0,0v0.4c0,0.1,0,0.1,0,0.2h-0.3c0,0,0-0.1,0-0.2v-0.4
	c0-0.1,0-0.1,0-0.2h0.2l0,0.1h0c0-0.1,0-0.1,0.1-0.1h0.2L21.9,19.3"/>
<path class="st0" d="M22.8,19.7c0,0.1,0,0.1,0,0.2h-0.2l0-0.1h0c0,0.1,0,0.1-0.1,0.1h-0.3c-0.1,0-0.2-0.1-0.2-0.2
	c0-0.2,0.1-0.2,0.2-0.2h0.4c0,0,0,0,0,0v0c0,0,0,0,0,0h-0.4c0,0-0.1,0-0.1,0l0-0.1h0.6c0.1,0,0.2,0.1,0.2,0.2L22.8,19.7 M22.2,19.5
	C22.2,19.5,22.2,19.5,22.2,19.5l0,0.2c0,0,0,0,0,0h0.2c0,0,0,0,0,0v-0.2H22.2z"/>
<path class="st0" d="M23.2,19.2v0.5c0,0.1,0,0.1,0,0.2h-0.3c0,0,0-0.1,0-0.2v-0.4c0-0.1,0-0.1,0-0.2L23.2,19.2 M22.9,18.9h0.2v0.2
	h-0.2V18.9z"/>
<path class="st0" d="M23.6,19.2L23.6,19.2L23.6,19.2C23.6,19.2,23.6,19.2,23.6,19.2H24c0.1,0,0.2,0.1,0.2,0.2v0.4c0,0.1,0,0.1,0,0.2
	h-0.3c0,0,0-0.1,0-0.2v-0.4c0,0,0-0.1,0-0.1h-0.2c0,0,0,0,0,0.1v0.4c0,0.1,0,0.1,0,0.2h-0.3c0,0,0-0.1,0-0.2v-0.4c0-0.1,0-0.1,0-0.2
	L23.6,19.2"/>
<path class="st0" d="M24.5,19.6v0.1c0,0,0,0,0,0H25c0,0,0,0,0.1,0l0,0.1h-0.6c-0.1,0-0.2-0.1-0.2-0.2v-0.3c0-0.1,0.1-0.2,0.2-0.2
	h0.5c0.1,0,0.2,0.1,0.2,0.2v0.2L24.5,19.6 M24.9,19.5v-0.1c0,0,0-0.1,0-0.1h-0.2c0,0,0,0,0,0.1v0.1H24.9z"/>
</svg>
