<svg id="Layer_1" data-name="Layer 1" xmlns="http://www.w3.org/2000/svg" viewBox="0 0 399.05 193.17"><defs><style>.cls-1{fill:#fff;}</style></defs><title>ter</title><path id="path11" class="cls-1" d="M143.2,144.6a14.72,14.72,0,0,1,.4-3.6c1.5-7,6.9-14.3,13.9-18.6,22.2-13.6,40.6-9.6,43.3-8.1.3.2.1.4-.1.9-2.5,6.4-25.6,26.7-55.2,37.5a16.5,16.5,0,0,1-2.3-8.1M220,107.4c-2.8-3.1-10.2-6.5-20.2-8.1a85.2,85.2,0,0,0-51.6,8.6c-22.8,11.7-37.5,33.4-30.9,54,.1,0-19.2,7.1-33.6,4.2-7.8-1.6-15.1-7.3-17.4-15-3.6-11.8-.6-32,19.6-50.4,26.7-24.4,66.8-33.1,83.9-36.8,7.9-1.7,8.9-2,9.1-3.1a4.88,4.88,0,0,0-1.2-4.2c-2.4-2.8-9.3-5.8-28.3-3.8C129.8,55,103,62.9,95,65.4c5.5-11.5,22.5-42.1,25.5-47.9,4.9-9.4,6.7-13.4,6.7-15.6a2,2,0,0,0-.5-1.4c-2.8-2.6-18.8,6.1-31,20.5S76.9,47,67.2,62.2c-10.7,17-44.3,25.6-60.5,30-4.3,1.2-5.6,1.4-6.2,2A2.47,2.47,0,0,0,0,96.4c1.4,4.8,9.6,9.9,18.1,10.3,6.2.3,13.5-.7,25-3.9C37,112.5,26.6,134,26.6,154.4c0,15.9,7.3,34.8,38.4,37.8,24.5,2.3,48.2-6.4,64.9-12.8,18.8,14.6,44.4,13.8,44.5,13.8,65.7,0,96.2-52.6,101.8-62.4,0,.1,6,19.6,17.5,35.4,15.7,21.7,37.5,28.5,59.8,26.4,26.5-2.5,43.6-23,45.2-26.8.8-1.9,0-3.9-4.9-1.3-4.1,2.2-8.6,5.5-19.6,7.6-49.2,9.3-63.9-41.8-74.4-63.7-1.4-3.1-2.7-5.4-4.1-6-3-1.2-26.2,2.9-28.7,7.8-25.8,48-59.4,58.7-84.8,59.1-8.5.1-15.7-1.6-21.4-4.6A199.81,199.81,0,0,0,185,151.2c26.4-17.6,36-36.4,36-42.5A5,5,0,0,0,220,107.4Z" transform="translate(0.08 -0.04)"/></svg>