<?xml version="1.0" encoding="utf-8"?>
<!-- Generator: Adobe Illustrator 25.3.1, SVG Export Plug-In . SVG Version: 6.00 Build 0)  -->
<svg version="1.1" id="Capa_1" xmlns="http://www.w3.org/2000/svg" xmlns:xlink="http://www.w3.org/1999/xlink" x="0px" y="0px"
	 viewBox="0 0 2084.4 944.8" style="enable-background:new 0 0 2084.4 944.8;" xml:space="preserve">
<style type="text/css">
	.st0{fill:#FFFFFF;}
</style>
<g>
	<g>
		<path id="path2451_1_" class="st0" d="M938,600.7c0.1-0.3,3.9-5.9,8.4-12.3c8.1-11.6,8.2-11.8,10.5-12.1
			c10.3-1.2,13.4-1.8,18.9-3.6c11.9-3.9,20.6-9.4,30.4-19.3c18.7-18.9,25.4-38.3,37.2-107.8c1.3-7.7,3.6-20.9,5.1-29.3
			c3.4-19.3,6.2-35.7,10.7-61.5c2-11.3,4.7-27.2,6.2-35.4s5-28.6,7.9-45.4c5.9-33.9,9.2-52.6,11.7-67.1c0.9-5.3,2.6-15.1,3.8-21.7
			c8.6-48.8,17.6-74.9,35.3-101.8c19.5-29.7,52.3-56.3,85.7-69.4c23.3-9.2,43.7-13.1,71.4-13.7l15.4-0.3l-8.8,12.6l-8.8,12.6
			l-5.1,0.4c-23.2,1.9-44.9,16.2-58.8,38.7c-7.6,12.4-12.7,29.1-18.7,61.2c-2.6,14-9.4,53-9.4,54.1c0,0.9,2.6,1,33,1.1l33,0.2
			l-8.6,12.3l-8.6,12.3l-5.5,0.4c-28.3,2.1-44.9,14.2-53.5,38.9c-2.6,7.6-3.4,11.2-9.8,48.2c-2.9,16.9-6.9,39.6-8.8,50.4
			s-5.6,31.9-8.2,46.9c-6,34.6-7.6,42.8-11.2,56.5c-11.2,43.5-28.7,75.7-55.7,102c-29.2,28.5-64.1,45.1-107.2,51
			C968.1,600.8,937.7,601.6,938,600.7z M406,424.8c-25.2-0.8-55.6-2.9-64.7-4.4c-28-4.8-44.6-21.1-49.9-49.1
			c-4.4-23.5,0.5-66.8,11.2-100.3c8.1-25.3,17.3-40.2,33.6-54.1c25.5-22,64.7-34.1,126.6-39.3c14.1-1.2,25.1-1.5,43.1-1.1
			c24.4,0.5,46,3,63.1,7.3c26.7,6.6,43.1,20.8,48.6,41.9c1.7,6.6,1.9,21.6,0.3,29.4c-2.4,11.9-6.4,23.3-11.1,31.2
			c-4.2,7.2-13.9,16.9-21.9,22.2c-24.3,15.9-56.8,22.7-117.9,24.9c-27,1-47.8,0.6-73.1-1.5c-6.5-0.5-12-0.8-12.2-0.6
			c-0.7,0.7-0.9,13.3-0.2,18.3c2,15.4,7.4,26.6,16.1,33.5c8.9,7.1,15.2,9.1,35.6,11c13.1,1.2,56,1.8,73.2,0.9
			c21.1-1.1,48-3.7,59.5-5.9c1.6-0.3,3-0.5,3.1-0.4s-4.2,6.3-9.5,13.9l-9.6,13.8l-6,1C504.9,423.6,454.7,426.3,406,424.8z
			 M441.1,305.2c29.5-1.7,52.1-6.5,64.6-13.8c10-5.8,17.5-14.4,23.6-26.9c3.9-8.1,5.1-13.2,5.2-22.3c0.1-9-0.8-12.9-4.4-20.1
			c-6.9-13.7-19.4-19.5-44-20.4c-12.2-0.4-17.9,0.3-30.6,4c-33.5,9.6-52.2,32.2-64.8,78.5c-2.9,10.6-4.8,19.5-4.2,20
			c0.2,0.2,5.6,0.6,11.8,0.8c6.3,0.2,11.5,0.5,11.7,0.6C410.5,306.1,430.7,305.8,441.1,305.2z M1358.9,424.7
			c-24.2-1-54.5-3-61.8-4.1c-30.1-4.7-47.3-22.2-51.8-52.9c-3.1-20.6,0.9-58.9,9.1-87.9c8.4-29.6,17.8-46.5,34.3-61.3
			c26.4-23.7,68.5-36.6,135.8-41.5c10.5-0.8,42.8-0.8,53,0c17.1,1.3,38,4.5,49.2,7.6c20,5.5,34.3,16.2,41.4,30.8
			c3.1,6.4,4.2,10.4,5,18.6c1.5,14.1-2.9,35.5-10.2,49c-10.7,19.9-32.4,34.3-63.3,41.9c-23,5.6-60.9,8.9-102.4,8.9
			c-20.3,0-31.2-0.4-49.1-1.9c-6.5-0.5-12-0.8-12.2-0.6s-0.5,3.5-0.6,7.3c-0.8,20.9,6.8,38.9,20,47.3c7.3,4.7,14.6,6.5,32.2,8.3
			c15.3,1.5,70,1.5,88.2,0c18.1-1.5,42.9-4.4,46.4-5.5c0.6-0.2,1-0.2,1,0c0,0.4-19.4,27.9-19.6,27.9c-0.1,0-4.6,0.6-10.1,1.4
			c-18.6,2.7-42.3,5-63.8,6.2C1415.2,425,1373.7,425.3,1358.9,424.7z M1407.5,304.4c25.6-2.5,44.2-7.4,55.3-14.6
			c10.6-6.9,21.1-21.9,24.7-35.2c1.8-6.8,1.9-18.1,0.1-24.5c-5.5-19.3-18.8-27.3-46.9-28.3c-10.1-0.4-15.4,0.1-24.6,2.3
			c-34.4,8-54.4,28-67.1,67c-4.5,13.8-9.1,32.3-8.2,33.2c0.3,0.2,5.6,0.6,11.9,0.9c6.3,0.2,11.6,0.5,11.7,0.7
			C1365.1,306.3,1398.4,305.3,1407.5,304.4z M0,420.5c0-0.1,1-6.1,2.3-13.3s4.2-23.8,6.5-36.8s5.1-28.9,6.2-35.2
			c1.1-6.3,3-17,4.1-23.7s3.4-19.7,5-28.7s3.4-19.6,4.1-23.4c2.7-15.6,3.6-20,5-24.6c8.7-27.9,28.1-41.2,73.4-50.4
			c33-6.7,56.1-8.3,108.7-7.7c18.4,0.2,34.4,0.5,35.7,0.6s6.3,0.4,11.1,0.6c12.2,0.5,37.6,2,40.6,2.4c1.4,0.2,2.4,0.5,2.3,0.8
			c-0.1,0.3-4.7,6.9-10.1,14.7l-10,14.2l-4.1-0.4c-14.4-1.3-23.5-2.1-32.5-2.8c-13.9-1-56.9-1-65,0c-32.2,4-46.7,14-54.4,37.6
			c-2.4,7.4-2.9,9.9-7.7,37.5c-2.3,13-5,28.9-6.1,35.2c-5.8,33.4-8.7,49.6-9.7,55.7c-0.6,3.7-1.7,9.6-2.3,13.2
			c-4.4,25.2-5.9,33.7-5.9,34.2s-14.1,0.6-48.6,0.6C21.9,420.7,0,420.6,0,420.5z M644.7,419.4c0.3-1.2,2.3-12.9,8.3-47.3
			c1.1-6.6,2.7-15.6,3.5-19.9c0.8-4.4,2.5-14.2,3.8-22c1.3-7.7,2.9-16.8,3.5-20.2c0.6-3.4,2.4-13.8,4.1-23.1
			c3-17.1,14.7-84.3,17.2-98.4l1.3-7.6h121.8H930l7.3,1.3c29.8,5.5,49,20.6,56.6,44.5c2.6,8.4,3,11,3,23.6c0,11.2-0.2,12.8-2.2,24
			c-3.3,18.5-12.3,69.6-21.8,124.8c-1.8,10.5-3.4,19.6-3.6,20.4l-0.3,1.3h-48.3c-45.7,0-48.3-0.1-48.3-1c0-1,0.7-5.3,9.7-56.4
			c7.7-44.1,8.3-47.8,13-73.8c4.1-23,4.5-26.2,4.5-33.1c0-5.9-0.3-8.8-1.3-12.8c-4.7-18.9-19.2-30.8-40.4-33.2
			c-3.7-0.4-18.7-0.6-42.5-0.5l-36.9,0.2l-1.6,9.1c-2.4,13.9-7.1,40.7-11.4,65c-2.1,12.1-5.9,34-8.5,48.6
			c-5.6,31.7-11.2,64.1-14.3,82.2c-0.5,2.9-0.9,5.3-0.9,5.4s-21.9,0.2-48.6,0.2h-48.8L644.7,419.4z"/>
	</g>
	<g id="layer1" transform="translate(1365.7277,-74.353256)">
		<path id="path9266" class="st0" d="M283,1019.2L102,767.3h80.3L282.5,902l86.2-134.7H449L283,1019.2"/>
		<path class="st0" d="M22.7,764.9h-64.8l-141.6,195h82.8l17.4-24H61.1l17.5,24.9h85.8L22.7,764.9z M-49.6,889l38.9-54.8L27.7,889
			H-49.6z"/>
		<path id="path9270" class="st0" d="M565.7,836.7h148.5v46.9H565.7v29.5h152.6V960H485.4V766h233.3v44.4h-153V836.7"/>
		<path id="path9272" class="st0" d="M175.9,790.5l7.3-0.6c4.4,6.6,12.9,11,13.3,16.4c0.5,7.1,7.1,15.9,9.6,19.6
			c1.1,2-0.6,7.6,1.4,7.9c11.4,1.8,4.5,8,12.9,7.7c10.8-0.4,18.5-21.1,25.9-28.1c6.2-12.7,13.4-22.1,21.3-30.5l3.6-0.3l12.4-3.2
			c1.6,4,0.4,6.4-1.6,10.4c-5.6,11.6-15.9,24-22,36.3c-3.6,7.6-3.2,12-6.8,19.5c-2,4.4-6,5.2-7.2,9.6c-2.3,7.6-4.7,14.7-10.4,18.4
			l-20.9,0.3l-1.1-0.3c-8.8,0-14-22.3-16.3-29.9c-1.2-3.6-3.9-7.1-5-10.7c-3.2-9.9-8.9-21.3-14.9-30.4c-1.6-2.4-4-3.2-4-7.2
			C173.5,793.7,175.1,792.1,175.9,790.5"/>
		<path id="path9274" class="st0" d="M223.9,768.3c-4-4-5-12.9-7.2-15.9c-6.8-10-17.6-26-17.6-26c-6.2-6.9-12.7-16.4-29.1-28
			c-8.3-5.8-15.5-9-25.5-16.8c-9.8-7.7-24.9-7.7-37.3-13.7c-3.6-1.6-15.7-7.9-19.7-7.9c-2,0-6.2-1.6-12.7-3.6
			c-9.1,0-9.2-1.2-17.2-1.2c-2,0-3.5,0.8-4.4,2.8c9.4,2.8,0.2,12.9,13.6,13.5v0.5c14.5,1.9,3,8.4,17.6,13.6
			c6,3.6,13.1,5.6,17.9,10.4c4.8,4.8,7.6,12,15.9,12c4,16.4,11.5,19.2,20.3,28c5.9,6,9.9,13.6,15.5,19.2c2,2,4.8,2,8,2.8
			c6,2.1,6.8,7.6,10.7,11.6c4.8,4.8,6.8,15.1,10,19.9c4.4,6.8,13.1,11.3,13.5,16.8c0.5,7.1,7.1,15.9,9.6,19.6c1.1,2-0.6,7.6,1.4,7.9
			c11.4,1.8,4.5,8,12.9,7.7c10.8-0.4,18.5-21.1,25.9-28.1c8.4-17.2,18.7-28.3,29.8-39.4c3.6-3.6,2-6.8,5.6-9.2c-2-6.4,7-5.4,11-7.4
			c5.9-2.8,6.9-4.5,6.9-4.5c2.8-0.4,6.2-0.3,7.2-1.7c2.3-3.1,2.7-3.7,5.2-6.8c2.5-5.5,7.9-5.5,9.3-11.1c2.8-3.4,1.7-8.1,7.7-10.8
			c4.6-6.1,9.1-11.3,11.3-16.4c1.6-3.6,7.2-7.6,13.1-9.6c1.2-0.4,4.4-1.2,4.4-2c0-3.2,7.6-3.6,10-5.2c3.5-2.4,8.7-6,12.7-10
			c1.6-1.7,3.2-2.4,4.8-4c3.2-3.2,5.6-7.1,8-12.3c3.2-6.8,9.2-6.5,13.9-11.3c0-2.4,2.8-4.4,4.4-6.5v-0.8c6.8,0,19.1-6,19.9-11.2
			l6.8-5.6c1.6-1.6,2.8-3.5,2.8-6c0-1.2,0-2,0-3.2h-5.6c-17.9,3-26.4,2.5-44.8,8.5c-6.3,2-15,7.1-18.6,10.6
			c-4.3,4.4-10.8,4.4-15.5,6.8c-2.8,1.2-4,3.2-6.8,3.2c-8,4.1-11.5,8.4-17.9,11.6c-8.8,5.2-16.5,10.7-24.9,14.7
			c-12.3,6-15.3,19.4-26.9,24.9c-10.9,11-27.9,20-33.5,32.3c-4.3,9.4-0.4,2.9-4.3,10.2c-6.4,2-15.7,23.9-17.4,26.5l0.2-1.9
			L223.9,768.3"/>
	</g>
</g>
</svg>
