<?xml version="1.0" encoding="UTF-8" standalone="no"?>
<!-- Created with Inkscape (http://www.inkscape.org/) -->

<svg
   xmlns:dc="http://purl.org/dc/elements/1.1/"
   xmlns:cc="http://creativecommons.org/ns#"
   xmlns:rdf="http://www.w3.org/1999/02/22-rdf-syntax-ns#"
   xmlns:svg="http://www.w3.org/2000/svg"
   xmlns="http://www.w3.org/2000/svg"
   xmlns:sodipodi="http://sodipodi.sourceforge.net/DTD/sodipodi-0.dtd"
   xmlns:inkscape="http://www.inkscape.org/namespaces/inkscape"
   width="34.693779mm"
   height="9.7422428mm"
   viewBox="0 0 122.93071 34.519758"
   id="svg8148"
   version="1.1"
   inkscape:version="0.91 r13725"
   sodipodi:docname="TER Nord Pas-de-Calais.svg">
  <defs
     id="defs8150">
    <clipPath
       clipPathUnits="userSpaceOnUse"
       id="clipPath7534">
      <path
         d="m 0,0 595.276,0 0,841.89 L 0,841.89 0,0 Z"
         id="path7536"
         inkscape:connector-curvature="0" />
    </clipPath>
    <clipPath
       clipPathUnits="userSpaceOnUse"
       id="clipPath7554">
      <path
         d="m 0,0 595.276,0 0,841.89 L 0,841.89 0,0 Z"
         id="path7556"
         inkscape:connector-curvature="0" />
    </clipPath>
    <clipPath
       clipPathUnits="userSpaceOnUse"
       id="clipPath7578">
      <path
         d="m 0,0 595.276,0 0,841.89 L 0,841.89 0,0 Z"
         id="path7580"
         inkscape:connector-curvature="0" />
    </clipPath>
    <clipPath
       clipPathUnits="userSpaceOnUse"
       id="clipPath7598">
      <path
         d="m 0,0 595.276,0 0,841.89 L 0,841.89 0,0 Z"
         id="path7600"
         inkscape:connector-curvature="0" />
    </clipPath>
    <clipPath
       clipPathUnits="userSpaceOnUse"
       id="clipPath7624">
      <path
         d="m 0,0 595.276,0 0,841.89 L 0,841.89 0,0 Z"
         id="path7626"
         inkscape:connector-curvature="0" />
    </clipPath>
  </defs>
  <sodipodi:namedview
     id="base"
     pagecolor="#ffffff"
     bordercolor="#FFFFFF"
     borderopacity="1.0"
     inkscape:pageopacity="0.0"
     inkscape:pageshadow="2"
     inkscape:zoom="5.6"
     inkscape:cx="70.575313"
     inkscape:cy="-5.8743751"
     inkscape:document-units="px"
     inkscape:current-layer="layer1"
     showgrid="false"
     fit-margin-left="1"
     fit-margin-top="1"
     fit-margin-bottom="1"
     fit-margin-right="1"
     inkscape:window-width="1920"
     inkscape:window-height="1017"
     inkscape:window-x="-8"
     inkscape:window-y="-8"
     inkscape:window-maximized="1" />
  <metadata
     id="metadata8153">
    <rdf:RDF>
      <cc:Work
         rdf:about="">
        <dc:format>image/svg+xml</dc:format>
        <dc:type
           rdf:resource="http://purl.org/dc/dcmitype/StillImage" />
        <dc:title></dc:title>
      </cc:Work>
    </rdf:RDF>
  </metadata>
  <g
     inkscape:label="Calque 1"
     inkscape:groupmode="layer"
     id="layer1"
     transform="translate(-127.10607,-452.24509)">
    <g
       transform="matrix(1.875,0,0,-1.875,-133.4674,1856.385)"
       id="g8039">
      <g
         transform="translate(176.5567,733.3654)"
         id="g7570">
        <path
           inkscape:connector-curvature="0"
           id="path7572"
           style="fill:#FFFFFF;fill-opacity:1;fill-rule:nonzero;stroke:none"
           d="m 0,0 0.32,-0.706 0.377,0 -1.342,2.934 -1.345,-2.934 0.375,0 L -1.291,0 0,0 Z m -0.146,0.32 -1,0 0.501,1.139 0.499,-1.139 z" />
      </g>
      <g
         id="g7936">
        <g
           id="g7530">
          <g
             id="g7532"
             clip-path="url(#clipPath7534)">
            <g
               id="g7538"
               transform="translate(168.5013,733.0629)">
              <path
                 d="m 0,0 c -2.95,-1.439 -7.164,-0.853 -8.119,3.295 l 0.913,1.413 C -5.775,1.37 -3.67,-0.197 0,0"
                 style="fill:#ffffff;fill-opacity:1;fill-rule:nonzero;stroke:none"
                 id="path7540"
                 inkscape:connector-curvature="0" />
            </g>
            <g
               id="g7542"
               transform="translate(151.4846,736.2596)">
              <path
                 d="M 0,0 C 0,0.087 0.008,0.177 0.028,0.268 0.137,0.79 0.541,1.333 1.058,1.648 2.703,2.657 4.074,2.36 4.272,2.251 4.296,2.238 4.283,2.223 4.268,2.183 4.079,1.708 2.365,0.205 0.171,-0.596 0.071,-0.432 0,-0.203 0,0 M 5.701,2.755 C 5.491,2.986 4.941,3.238 4.201,3.357 3.483,3.471 1.992,3.548 0.372,2.716 c -1.69,-0.868 -2.781,-2.48 -2.29,-4.004 0.003,0.001 -1.425,-0.53 -2.494,-0.313 -0.578,0.119 -1.119,0.545 -1.291,1.111 -0.268,0.873 -0.047,2.373 1.452,3.742 1.981,1.81 4.955,2.457 6.226,2.733 C 2.557,6.111 2.631,6.131 2.652,6.214 2.661,6.252 2.682,6.386 2.565,6.522 2.387,6.734 1.876,6.951 0.462,6.803 -0.99,6.647 -2.98,6.059 -3.574,5.875 c 0.409,0.858 1.665,3.123 1.893,3.555 0.364,0.695 0.498,0.996 0.498,1.159 0,0.045 -0.014,0.08 -0.042,0.103 -0.207,0.19 -1.393,-0.45 -2.301,-1.516 C -4.437,8.102 -4.919,7.242 -5.634,6.11 -6.428,4.85 -8.917,4.212 -10.123,3.883 -10.442,3.794 -10.54,3.779 -10.58,3.736 -10.619,3.692 -10.632,3.634 -10.615,3.571 -10.513,3.217 -9.9,2.835 -9.27,2.806 -8.81,2.785 -8.265,2.857 -7.418,3.092 -7.873,2.369 -8.642,0.78 -8.642,-0.74 c 0,-1.183 0.546,-2.585 2.85,-2.802 1.817,-0.173 3.577,0.471 4.813,0.946 1.395,-1.083 3.296,-1.027 3.3,-1.027 4.871,0 7.136,3.907 7.554,4.63 C 9.872,1 10.32,-0.449 11.169,-1.621 c 1.165,-1.606 2.78,-2.112 4.433,-1.958 1.97,0.181 3.234,1.706 3.354,1.989 0.058,0.138 -0.004,0.289 -0.364,0.096 -0.306,-0.165 -0.635,-0.409 -1.452,-0.564 -3.65,-0.689 -4.737,3.102 -5.523,4.724 -0.106,0.234 -0.203,0.4 -0.3,0.44 C 11.091,3.193 9.373,2.892 9.182,2.527 7.268,-1.038 4.781,-1.828 2.891,-1.857 2.258,-1.866 1.729,-1.736 1.303,-1.515 2.041,-1.149 2.561,-0.868 3.095,-0.512 5.054,0.792 5.767,2.189 5.767,2.639 5.761,2.689 5.733,2.72 5.701,2.755"
                 style="fill:#FFFFFF;fill-opacity:1;fill-rule:nonzero;stroke:none"
                 id="path7544"
                 inkscape:connector-curvature="0" />
            </g>
          </g>
        </g>
        <g
           id="g7546"
           transform="translate(166.7136,739.8203)">
          <path
             d="m 0,0 2.112,-2.213 0,2.078 0.351,0 0,-2.929 -2.112,2.212 0,-2.096 L 0,-2.948 0,0 Z"
             style="fill:#FFFFFF;fill-opacity:1;fill-rule:nonzero;stroke:none"
             id="path7548"
             inkscape:connector-curvature="0" />
        </g>
        <g
           id="g7550">
          <g
             id="g7552"
             clip-path="url(#clipPath7554)">
            <g
               id="g7558"
               transform="translate(171.5119,739.7457)">
              <path
                 d="m 0,0 c -0.805,0 -1.473,-0.661 -1.473,-1.467 0,-0.836 0.66,-1.467 1.473,-1.467 0.814,0 1.475,0.631 1.475,1.467 C 1.475,-0.661 0.807,0 0,0 m 0,-2.604 c -0.607,0 -1.123,0.495 -1.123,1.137 0,0.619 0.463,1.139 1.123,1.139 0.662,0 1.124,-0.52 1.124,-1.139 0,-0.642 -0.515,-1.137 -1.124,-1.137"
                 style="fill:#FFFFFF;fill-opacity:1;fill-rule:nonzero;stroke:none"
                 id="path7560"
                 inkscape:connector-curvature="0" />
            </g>
            <g
               id="g7562"
               transform="translate(176.4974,736.8726)">
              <path
                 d="m 0,0 0.571,0 c 0.889,0 1.59,0.463 1.59,1.421 0,0.937 -0.716,1.392 -1.579,1.392 L 0,2.813 0,0 Z m 0.351,2.492 0.124,0 C 1.191,2.492 1.81,2.227 1.81,1.406 1.81,0.589 1.191,0.32 0.475,0.32 l -0.124,0 0,2.172 z"
                 style="fill:#FFFFFF;fill-opacity:1;fill-rule:nonzero;stroke:none"
                 id="path7564"
                 inkscape:connector-curvature="0" />
            </g>
            <g
               id="g7566"
               transform="translate(173.0705,733.8389)">
              <path
                 d="m 0,0 0.201,0 c 0.534,0 0.986,0.228 0.986,0.821 0,0.514 -0.27,0.813 -1.135,0.813 l -0.403,0 0,-2.813 0.351,0 L 0,0 Z m 0,1.321 0.092,0 C 0.44,1.321 0.857,1.269 0.857,0.828 0.857,0.38 0.469,0.313 0.112,0.313 L 0,0.313 0,1.321 Z"
                 style="fill:#FFFFFF;fill-opacity:1;fill-rule:nonzero;stroke:none"
                 id="path7568"
                 inkscape:connector-curvature="0" />
            </g>
          </g>
        </g>
        <g
           id="g7574">
          <g
             id="g7576"
             clip-path="url(#clipPath7578)">
            <g
               id="g7582"
               transform="translate(179.2242,734.9392)">
              <path
                 d="m 0,0 c -0.105,0.176 -0.239,0.265 -0.452,0.265 -0.223,0 -0.469,-0.152 -0.469,-0.399 0,-0.221 0.215,-0.335 0.39,-0.404 l 0.203,-0.077 c 0.399,-0.156 0.698,-0.377 0.698,-0.847 0,-0.511 -0.396,-0.877 -0.901,-0.877 -0.453,0 -0.808,0.336 -0.87,0.787 l 0.356,0.075 c -0.003,-0.311 0.243,-0.534 0.546,-0.534 0.301,0 0.517,0.253 0.517,0.549 0,0.302 -0.241,0.434 -0.485,0.534 l -0.194,0.081 c -0.321,0.139 -0.612,0.321 -0.612,0.713 0,0.455 0.403,0.727 0.829,0.727 0.314,0 0.571,-0.152 0.723,-0.424 L 0,0 Z"
                 style="fill:#FFFFFF;fill-opacity:1;fill-rule:nonzero;stroke:none"
                 id="path7584"
                 inkscape:connector-curvature="0" />
            </g>
            <g
               id="g7586"
               transform="translate(181.6273,732.6594)">
              <path
                 d="m 0,0 0.572,0 c 0.888,0 1.589,0.463 1.589,1.421 0,0.938 -0.716,1.393 -1.578,1.393 L 0,2.814 0,0 Z m 0.351,2.494 0.122,0 c 0.718,0 1.338,-0.265 1.338,-1.087 0,-0.817 -0.62,-1.086 -1.338,-1.086 l -0.122,0 0,2.173 z"
                 style="fill:#FFFFFF;fill-opacity:1;fill-rule:nonzero;stroke:none"
                 id="path7588"
                 inkscape:connector-curvature="0" />
            </g>
          </g>
        </g>
        <g
           id="g7590"
           transform="translate(184.6982,735.4732)">
          <path
             d="m 0,0 1.511,0 0,-0.32 -1.16,0 0,-0.789 1.129,0 0,-0.319 -1.129,0 0,-1.065 1.16,0 0,-0.321 L 0,-2.814 0,0 Z"
             style="fill:#FFFFFF;fill-opacity:1;fill-rule:nonzero;stroke:none"
             id="path7592"
             inkscape:connector-curvature="0" />
        </g>
        <g
           id="g7594">
          <g
             id="g7596"
             clip-path="url(#clipPath7598)">
            <g
               id="g7602"
               transform="translate(190.3712,734.9359)">
              <path
                 d="m 0,0 c -0.201,0.179 -0.477,0.277 -0.743,0.277 -0.63,0 -1.111,-0.527 -1.111,-1.15 0,-0.616 0.477,-1.142 1.104,-1.142 0.277,0 0.542,0.105 0.75,0.29 l 0,-0.413 c -0.216,-0.127 -0.493,-0.198 -0.74,-0.198 -0.801,0 -1.466,0.639 -1.466,1.452 0,0.832 0.668,1.481 1.498,1.481 0.245,0 0.495,-0.06 0.708,-0.19 L 0,0 Z"
                 style="fill:#FFFFFF;fill-opacity:1;fill-rule:nonzero;stroke:none"
                 id="path7604"
                 inkscape:connector-curvature="0" />
            </g>
          </g>
        </g>
        <g
           id="g7606"
           transform="translate(192.9653,733.3654)">
          <path
             d="m 0,0 0.32,-0.706 0.378,0 -1.343,2.934 -1.345,-2.934 0.377,0 L -1.291,0 0,0 Z m -0.146,0.32 -1.001,0 0.502,1.139 0.499,-1.139 z"
             style="fill:#FFFFFF;fill-opacity:1;fill-rule:nonzero;stroke:none"
             id="path7608"
             inkscape:connector-curvature="0" />
        </g>
        <g
           id="g7610"
           transform="translate(194.7532,732.9803)">
          <path
             d="m 0,0 0.855,0 0,-0.321 -1.207,0 0,2.814 L 0,2.493 0,0 Z"
             style="fill:#FFFFFF;fill-opacity:1;fill-rule:nonzero;stroke:none"
             id="path7612"
             inkscape:connector-curvature="0" />
        </g>
        <g
           id="g7614"
           transform="translate(198.1265,733.3654)">
          <path
             d="m 0,0 0.32,-0.706 0.377,0 -1.342,2.934 -1.345,-2.934 0.377,0 L -1.291,0 0,0 Z m -0.146,0.32 -1.001,0 0.502,1.139 0.499,-1.139 z"
             style="fill:#FFFFFF;fill-opacity:1;fill-rule:nonzero;stroke:none"
             id="path7616"
             inkscape:connector-curvature="0" />
        </g>
        <path
           d="m 199.624,732.659 0.352,0 0,2.813 -0.352,0 0,-2.813 z"
           style="fill:#FFFFFF;fill-opacity:1;fill-rule:nonzero;stroke:none"
           id="path7618"
           inkscape:connector-curvature="0" />
        <g
           id="g7620">
          <g
             id="g7622"
             clip-path="url(#clipPath7624)">
            <g
               id="g7628"
               transform="translate(202.2758,734.9392)">
              <path
                 d="m 0,0 c -0.105,0.176 -0.241,0.265 -0.451,0.265 -0.225,0 -0.47,-0.152 -0.47,-0.399 0,-0.221 0.216,-0.335 0.391,-0.404 l 0.202,-0.077 c 0.399,-0.156 0.698,-0.377 0.698,-0.847 0,-0.511 -0.396,-0.877 -0.9,-0.877 -0.455,0 -0.81,0.336 -0.869,0.787 l 0.353,0.075 c -0.003,-0.311 0.242,-0.534 0.545,-0.534 0.302,0 0.52,0.253 0.52,0.549 0,0.302 -0.243,0.434 -0.485,0.534 l -0.195,0.081 c -0.321,0.139 -0.612,0.321 -0.612,0.713 0,0.455 0.404,0.727 0.829,0.727 0.314,0 0.571,-0.152 0.723,-0.424 L 0,0 Z"
                 style="fill:#FFFFFF;fill-opacity:1;fill-rule:nonzero;stroke:none"
                 id="path7630"
                 inkscape:connector-curvature="0" />
            </g>
            <g
               id="g7632"
               transform="translate(174.7667,738.0962)">
              <path
                 d="m 0,0 c 0.407,0.049 0.677,0.385 0.677,0.787 0,0.268 -0.136,0.535 -0.371,0.672 -0.224,0.127 -0.493,0.13 -0.742,0.13 l -0.425,0 0,-2.813 0.35,0 0,1.19 0.146,0 0.827,-1.19 0.427,0 L 0,0 Z m -0.511,1.276 0.092,0 c 0.348,0 0.765,-0.064 0.765,-0.503 0,-0.45 -0.387,-0.516 -0.745,-0.516 l -0.112,0 0,1.019 z"
                 style="fill:#FFFFFF;fill-opacity:1;fill-rule:nonzero;stroke:none"
                 id="path7634"
                 inkscape:connector-curvature="0" />
            </g>
          </g>
        </g>
      </g>
    </g>
  </g>
</svg>
