<?xml version="1.0" encoding="utf-8"?>
<!-- Generator: Adobe Illustrator 25.3.1, SVG Export Plug-In . SVG Version: 6.00 Build 0)  -->
<svg version="1.1" id="svg" xmlns="http://www.w3.org/2000/svg" xmlns:xlink="http://www.w3.org/1999/xlink" x="0px" y="0px"
	 viewBox="0 0 361.6 286.4" style="enable-background:new 0 0 361.6 286.4;" xml:space="preserve">
<style type="text/css">
	.st0{fill-rule:evenodd;clip-rule:evenodd;fill:#FFFFFF;}
</style>
<g id="svgg">
	<path id="path0" class="st0" d="M171,3.1c-2.3,0.2-6.1,0.6-8.4,0.8c-2.7,0.2-4.7,0.6-5.6,1c-0.8,0.4-3.2,1-5.2,1.4
		c-2.1,0.4-4.1,1-4.6,1.3c-0.9,0.6-4.2,1.7-5.4,1.7c-0.3,0-1.2,0.4-1.9,1c-0.7,0.5-1.8,1.1-2.4,1.2c-0.6,0.1-1.9,0.7-2.7,1.2
		c-0.8,0.5-2,1.2-2.7,1.5c-2.3,1-5.9,2.9-6,3.2c-0.3,0.4-2.7,1.7-3.1,1.7c-0.2,0-0.7,0.4-1.1,0.8c-0.4,0.5-1.2,1-1.8,1.3
		c-0.6,0.3-1.5,0.8-2,1.3c-0.5,0.4-1.3,1-1.8,1.3c-0.5,0.3-1.5,1-2.2,1.7c-0.7,0.7-1.8,1.7-2.6,2.4c-1.9,1.6-2.2,1.9-2.7,2.4
		c-0.2,0.2-1,1-1.8,1.6c-2.5,2.1-5.7,5.3-5.7,5.6c0,0.2-0.5,0.6-1,1.1s-1,0.9-1,1.1s-0.5,0.9-1.1,1.6c-0.6,0.7-1.5,1.8-2.1,2.5
		c-1.3,1.6-3,3.6-3.2,3.9c-0.1,0.1-0.5,0.8-0.9,1.5c-0.4,0.7-1,1.5-1.3,1.7c-0.4,0.2-0.8,0.8-0.9,1.3c-0.1,0.5-0.7,1.5-1.2,2.1
		c-0.5,0.7-1.2,1.9-1.6,2.7c-0.4,0.8-1.1,2.1-1.5,2.8c-0.5,0.7-1,1.8-1.1,2.4c-0.1,0.6-0.6,1.5-1,2.1c-0.4,0.6-1.1,2-1.5,3.2
		c-0.4,1.2-0.9,2.5-1.2,2.9c-0.3,0.4-0.5,1-0.5,1.2c0,0.3-0.5,1.5-1.1,2.8c-0.6,1.3-1.2,2.9-1.4,3.7c-0.4,2.6-1.3,5.4-1.9,6.3
		c-0.5,0.7-0.7,1.9-1,5.1c-0.2,2.3-0.6,5.7-1,7.5c-1.7,8-1.7,21.3,0,28.3c0.4,1.6,0.8,4.8,1,7.2c0.2,3.2,0.5,4.5,0.9,4.9
		c0.7,0.7,1.4,3.1,1.8,5.8c0.2,1.1,0.8,3,1.5,4.4c2,4.2,3.2,7.2,3.2,7.7c0,0.3,0.5,1.2,1,2.1c0.6,0.9,1,1.8,1,2
		c0,0.7,0.9,2.8,1.4,3.1c0.2,0.1,0.8,1.2,1.3,2.3c0.5,1.1,1.3,2.5,1.8,3c0.5,0.5,0.9,1.4,1.1,1.9c0.1,0.5,0.7,1.3,1.2,1.7
		c0.5,0.4,1,0.9,1,1.2c0,0.6,2.3,3.7,6.2,8.1c0.7,0.8,1.2,1.5,1.2,1.7c0,0.2,0.5,0.7,1,1.1c0.6,0.4,1,0.9,1,1c0,0.2,1,1.3,2.3,2.5
		c3.1,3,3.8,3.7,4.7,4.1c0.4,0.2,0.8,0.7,0.9,1c0.1,0.4,0.4,0.7,0.6,0.7c0.2,0,1.1,0.6,1.9,1.4c3.7,3.3,7.6,6.4,8.1,6.4
		c0.2,0,0.9,0.5,1.6,1.2c0.7,0.6,1.5,1.2,1.7,1.2c0.2,0,1.1,0.5,2.1,1.1c1,0.6,2.3,1.4,3,1.7c0.7,0.3,1.7,0.8,2.1,1.2
		c0.5,0.4,1.4,0.8,2.1,1c0.7,0.2,1.8,0.7,2.4,1.1c0.6,0.4,1.6,0.9,2.1,1c0.5,0.1,1.5,0.6,2.2,1.1c0.7,0.5,2.2,1.1,3.4,1.3
		c1.2,0.3,2.8,0.9,3.5,1.4c0.9,0.6,2.2,1,4.1,1.3c3.3,0.5,5,1,5.8,1.7c0.3,0.3,2,0.6,4.5,0.8c2.2,0.2,5.9,0.7,8.2,1.1
		c6.1,1.1,18.4,1.1,24.5,0c2.3-0.4,6-0.9,8.3-1.1c3.5-0.3,4.3-0.5,5.3-1.2c0.7-0.5,1.4-0.8,1.6-0.8c2.1,0,6.6-1,7.3-1.6
		c0.7-0.6,3.5-1.7,4.5-1.7c0.2,0,1.4-0.5,2.7-1.2c1.3-0.6,3.8-1.9,5.7-2.8c1.8-0.9,4.1-2,5-2.5c1-0.5,1.9-0.9,2.2-0.9
		c0.2,0,0.4-0.2,0.4-0.4c0-0.2,1-0.8,2.1-1.4c1.2-0.5,2.5-1.4,2.9-1.8c0.4-0.5,1-0.8,1.2-0.8c0.2,0,1-0.5,1.6-1.1
		c0.6-0.6,2.2-1.9,3.6-2.9c1.3-1,2.8-2.3,3.3-2.8c0.5-0.5,1.1-0.9,1.5-0.9s0.8-0.4,1-0.9c0.2-0.5,0.9-1.1,1.5-1.3
		c0.6-0.3,1.1-0.7,1.1-1c0-0.3,0.6-0.9,1.3-1.5c0.7-0.6,1.5-1.4,1.7-1.9c0.3-0.5,0.7-0.9,0.9-0.9c0.3,0,0.6-0.4,0.8-1
		c0.2-0.5,0.8-1.2,1.3-1.5c0.5-0.3,0.9-0.8,0.9-1s0.4-0.8,0.9-1.2c0.5-0.4,1.3-1.3,1.7-2c0.4-0.6,1.3-1.7,1.9-2.3
		c0.7-0.6,1.2-1.4,1.2-1.8c0-0.3,0.4-0.8,0.8-1c0.5-0.2,1-0.8,1.2-1.6c0.2-0.6,0.6-1.5,1-1.9c0.4-0.4,1-1.4,1.4-2.2s1-1.9,1.4-2.4
		c0.3-0.5,1.1-1.8,1.6-2.9s1.1-2.2,1.3-2.5c0.2-0.3,0.6-1.2,1-2c0.4-0.8,0.9-1.7,1.1-1.8c0.2-0.2,0.6-1.2,0.8-2.2
		c0.2-1.1,0.8-2.4,1.4-3.1c0.7-0.8,1.1-2,1.5-4.1c0.3-1.6,0.8-3.2,1.1-3.5c0.7-0.8,1.1-2.2,1.5-5.2c0.2-1.5,0.6-3.6,1-4.7
		c2.5-6.9,2.5-39.1,0-44.9c-0.4-0.9-0.9-3-1.1-4.7c-0.3-2.8-0.7-4.2-1.6-5.6c-0.2-0.3-0.6-1.8-1-3.5c-0.4-1.9-1-3.3-1.5-3.9
		c-0.4-0.5-1-1.8-1.2-2.7c-0.2-1-0.9-2.4-1.4-3.1s-1-1.8-1.2-2.4c-0.1-0.6-0.4-1.3-0.6-1.4c-0.2-0.1-0.8-1-1.2-1.9
		c-0.4-0.9-1.2-2.3-1.7-3.1c-0.5-0.8-0.9-1.5-0.9-1.7c0-0.2-0.6-1.2-1.3-2.2c-0.7-1.1-1.3-2.1-1.3-2.4c0-0.3-0.5-0.9-1-1.4
		c-0.6-0.5-1-1.1-1-1.3c0-0.2-0.5-0.8-1-1.4c-0.6-0.5-1.4-1.6-1.9-2.3c-0.5-0.7-1.3-1.7-1.8-2.1c-0.5-0.4-0.9-1-0.9-1.2
		c0-0.2-0.5-0.8-1-1.2c-0.6-0.4-1.1-1.1-1.2-1.5c-0.1-0.4-0.6-0.9-1-1.1c-0.4-0.2-1-0.8-1.3-1.4c-0.3-0.6-0.7-1-0.9-1
		c-0.2,0-1-0.6-1.8-1.4c-0.8-0.8-2-1.9-2.8-2.5c-0.7-0.6-2.4-2-3.8-3.2c-1.4-1.2-3.2-2.6-3.9-3.1c-0.8-0.5-1.4-1.1-1.4-1.4
		c0-0.2-0.5-0.6-1.2-0.8c-0.7-0.2-1.7-0.8-2.3-1.3c-0.6-0.5-1.5-1-2-1.1c-0.5-0.1-1.3-0.6-1.9-1.1c-0.5-0.5-2-1.3-3.1-1.9
		c-1.2-0.6-3.3-1.7-4.8-2.6c-1.5-0.8-3.4-1.7-4.3-2c-0.9-0.2-2-0.8-2.5-1.3c-0.6-0.5-1.5-0.9-2.6-1c-0.9-0.1-2.7-0.7-4-1.3
		c-1.3-0.6-3-1.2-3.9-1.4c-2.8-0.4-4.9-0.9-6.4-1.5c-0.9-0.4-3.2-0.8-5.5-1c-2.2-0.2-6.3-0.6-9-0.8C184.3,2.5,176.8,2.5,171,3.1
		 M182.2,73.3c0.7,0.4,1.5,0.9,1.9,1c3,0.9,2.3,9.9-0.9,11.3c-0.8,0.4-1.5,0.8-1.7,1c-0.3,0.5-3,0.4-3.7-0.2c-0.4-0.3-1-0.5-1.4-0.5
		c-0.8,0-3.7-3.3-4-4.6c-0.6-2.4,1-6.3,3-7.2c0.6-0.2,1.4-0.7,1.8-1.1C178.5,72.2,180.7,72.3,182.2,73.3 M109.1,89.5
		c1,0.1,2.2,0.5,3,1c0.7,0.5,1.8,1,2.5,1.1c2.5,0.6,7.9,4.7,9.1,6.9c0.2,0.4,0.8,1.2,1.3,1.9c0.5,0.6,1.1,1.9,1.3,2.9
		c0.2,0.9,0.8,2.4,1.3,3.4c1.3,2.6,1.3,9.5,0,12.3c-0.5,1-1.1,2.7-1.3,3.6c-0.2,1-0.9,2.2-1.4,2.8s-0.9,1.2-0.9,1.4
		c0,0.2-0.4,0.7-0.8,1.1c-0.4,0.4-0.9,0.9-1.1,1.2c-0.4,0.6-2.6,2.3-4.3,3.3c-0.8,0.5-2,1.3-2.6,1.8c-0.9,0.7-1.7,1-3.5,1.1
		c-1.3,0.1-3.2,0.5-4.2,0.8c-2.4,0.8-4.8,0.8-7.1,0c-1-0.4-2.8-0.7-4-0.8c-2.1-0.1-3.4-0.7-4.8-2.1c-0.2-0.2-1-0.6-1.7-1
		c-0.7-0.3-1.5-1-1.8-1.4c-0.2-0.4-0.8-0.9-1.2-1c-0.4-0.1-0.8-0.4-0.8-0.5c0-0.2-0.6-0.9-1.3-1.7c-1.5-1.5-3.6-5.6-4.1-7.8
		c-0.2-0.8-0.5-2.3-0.7-3.2c-0.4-1.8-0.5-5.9-0.1-6.5c0.1-0.2,0.3-1.3,0.5-2.6c0.3-2.5,2.6-7.4,3.8-8.4c0.4-0.3,0.9-1,1.3-1.5
		c0.7-1.2,3.3-3.6,3.8-3.6c0.2,0,0.8-0.4,1.4-1c0.6-0.6,1.7-1.1,2.8-1.4c1-0.2,2.1-0.7,2.5-1.1C97.3,89.3,103.2,88.8,109.1,89.5
		 M219.4,89.6c0.7,0.2,1.9,0.7,2.6,1.2s1.6,0.9,2.1,0.9c4.4,0,8.2,8,5,10.5c-0.5,0.4-1.4,1.2-2,1.7c-1.4,1.2-3.4,1.3-5.1,0.1
		c-0.7-0.5-1.5-0.8-1.8-0.8c-0.3,0-1.5-0.5-2.8-1.1c-5.2-2.5-11.9-0.4-14.5,4.6c-0.4,0.7-1,1.6-1.4,1.9c-0.7,0.5-0.7,0.9-0.7,4.2
		v3.6l1.3,1.8c0.7,1,1.3,2,1.3,2.3c0,0.2,0.4,0.6,0.9,0.9c0.5,0.3,1.2,0.9,1.6,1.3c1.9,2.2,12.7,2.6,14,0.4c1.4-2.2,0.3-3.6-2.8-3.6
		c-1.9,0-5.2-1.7-5.6-2.9c-1.1-3-1.1-3-0.2-5c1.1-2.7,1.3-2.8,7.1-3.1c5.9-0.3,10.3,0,11.5,0.9c0.5,0.3,1.4,0.9,2.1,1.3l1.3,0.7
		l0.3-1.2c0.2-0.7,0.5-2.1,0.7-3.2c0.5-2.2,2.7-7,3.4-7.5c0.3-0.1,0.7-0.8,1-1.4c0.3-0.6,0.7-1.1,0.9-1.1c0.2,0,0.9-0.7,1.7-1.5
		c0.8-0.8,1.6-1.5,1.8-1.5s0.7-0.3,1-0.7c0.8-0.9,2-1.5,3.4-1.7c0.6-0.1,1.6-0.6,2.3-1c2.7-1.8,14.2-1.8,16.2,0
		c0.5,0.5,1.5,0.9,2.3,1.1c2.2,0.4,8.9,5.2,8.9,6.4c0,0.1,0.4,0.6,0.8,1.1c0.4,0.5,1.1,1.7,1.5,2.8c0.4,1.1,1.1,2.5,1.5,3.1
		c0.7,1.1,0.7,1.6,0.7,7.6v6.4l-1.1,2.4c-2.1,4.5-2.4,5.1-3.2,5.9c-0.4,0.5-0.9,1.1-1,1.4s-0.5,0.7-0.8,0.8c-0.3,0.1-1,0.7-1.6,1.2
		c-0.6,0.5-1.8,1.3-2.7,1.8c-0.9,0.4-2,1.1-2.3,1.5c-0.7,0.8-2.5,1.4-4.2,1.4c-0.6,0-2.1,0.3-3.3,0.7c-2.7,0.9-5.5,0.9-7.4,0
		c-0.8-0.4-2.1-0.7-3-0.7c-1.9,0-3.9-0.6-4.8-1.4c-0.4-0.4-1.5-1-2.4-1.5c-0.9-0.4-1.8-1.1-2-1.5c-0.2-0.4-0.9-1-1.6-1.4
		c-0.7-0.4-1.5-1.2-1.7-1.8c-0.3-0.5-0.9-1.5-1.4-2.1c-0.5-0.6-1-1.6-1.1-2.1c-0.1-0.5-0.4-1-0.6-1c-0.6,0-1.4-1-1.7-2.2
		c-0.4-1.5-0.8-0.2-0.8,2.8c-0.1,4.8-1.5,7.3-5.3,9.1c-1,0.5-2.2,1.2-2.5,1.6c-0.9,0.8-2.9,1.4-5.1,1.4c-0.9,0-2.2,0.3-2.8,0.6
		c-1.8,0.9-5.6,1-8.2,0.2c-1.2-0.4-2.8-0.7-3.5-0.7c-1.9,0-3.8-0.6-4.8-1.5c-0.5-0.4-1.5-1.1-2.2-1.5c-0.8-0.4-1.8-1.1-2.3-1.5
		c-4-3.6-5.9-6.5-6.8-10.8c-0.4-1.6-0.8-3.5-1-4.2c-0.5-1.6-0.4-4.4,0.1-6.1c0.3-0.8,0.6-2.4,0.9-3.6c0.2-1.2,0.8-2.8,1.2-3.5
		c0.4-0.7,1-1.8,1.3-2.4c0.7-1.5,5-5.7,6.4-6.3c0.6-0.3,1.1-0.6,1.1-0.8c0-0.5,1.6-1.3,3.3-1.5c0.8-0.1,1.4-0.3,1.4-0.5
		C203.9,89.4,214.4,88.4,219.4,89.6 M138.6,90.6c0.7,0.6,1.4,1,1.5,1c0.9,0,1.1,1.8,1.3,13.8l0.2,12.3l1.3,2.9
		c1.3,2.8,1.4,2.9,2.9,3.3c3.9,1,7.5,0.4,9.6-1.6l1.5-1.4l0.2-13.2c0.2-14.7,0-13.8,2.7-16.4c1.6-1.6,1.7-1.6,3.7-1.6h2l1.9,2
		c1.4,1.4,2,2.3,2.2,3.3c0.4,1.9,0.3,22.9-0.1,24.6c-0.8,3.5-2.1,7.9-2.5,8.2c-0.2,0.2-0.8,0.9-1.2,1.6c-0.9,1.4-2.9,3.3-3.6,3.3
		c-0.3,0-0.9,0.4-1.4,1c-1.1,1.1-2.7,1.7-4.6,1.7c-0.8,0-2.1,0.2-2.9,0.5c-2,0.7-5.9,0.7-7.5,0c-0.7-0.3-2-0.6-2.9-0.6
		c-2.2,0-3.7-0.5-5-1.7c-0.6-0.6-1.3-1-1.4-1c-0.7,0-3.7-3.4-4.5-5.1c-0.5-1-1.1-2.3-1.4-2.8c-1.8-3.2-1.1-33.1,0.7-33.1
		c0.2,0,0.9-0.5,1.4-1c0.8-0.9,1.2-1,2.7-1C137,89.6,137.6,89.8,138.6,90.6 M182.5,90.5c0.4,0.5,1.1,1.1,1.5,1.3
		c1.6,0.9,1.7,1,1.7,20.8c0,20.6,0,20.3-2.2,21.8c-1.2,0.9-1.5,0.9-4.3,0.8c-5.8-0.2-5.8-0.2-5.8-22.1c0-11.7,0.1-17.3,0.4-18.1
		c0.9-2.7,1.1-3.1,2.6-4.2C178.4,89.2,181.2,89.1,182.5,90.5 M99.9,101.8c-1.3,0.7-2.6,1.2-2.8,1.2c-0.2,0-0.5,0.3-0.7,0.8
		c-0.2,0.4-0.7,1-1.1,1.3c-1.3,1-2.9,5.5-2.7,7.8c0.3,5.7,4,10.5,8.6,11.1c5.7,0.8,8.3,0,11.2-3.2c0.4-0.4,1.1-1.2,1.6-1.8
		c1.4-1.6,1.8-9.2,0.5-11.5c-0.8-1.5-3.3-4.6-3.7-4.6c-0.2,0-1.3-0.5-2.4-1C105.2,100.4,102.9,100.4,99.9,101.8 M256,101
		c-0.6,0.1-2,0.6-2.9,1.1c-1,0.5-2,0.9-2.2,0.9s-0.7,0.5-1,1.2c-0.3,0.7-0.8,1.3-1.1,1.4c-0.7,0.3-2.2,5.2-2.2,7.2
		c-0.1,2.8,2.9,9.4,4.3,9.4c0.2,0,0.6,0.3,0.9,0.7c1.2,1.8,9.9,1.8,12.3,0c4.1-3.1,5-5.2,4.6-11.2c-0.2-4.3-0.6-5.8-1.7-6.4
		c-0.5-0.2-1-0.9-1.2-1.4c-0.2-0.5-0.6-1-0.9-1c-0.3,0-1.4-0.4-2.6-1C260,101,257.8,100.6,256,101 M111.9,222.1c0,1.3,0.8,2.4,2,3
		c0.7,0.3,1.7,1,2.2,1.4c0.5,0.5,1.2,0.8,1.5,0.8c0.3,0,1.1,0.5,1.8,1c0.7,0.6,2,1.3,2.8,1.6c1.7,0.6,2.4,0.9,3.8,1.8
		c0.5,0.3,1.7,0.7,2.7,0.9c1.2,0.2,2.2,0.7,2.7,1.2c0.4,0.5,1.2,0.8,1.6,0.8c2,0,5.1,0.9,5.6,1.6c0.3,0.4,0.7,0.7,1,0.7
		c1,0,5.3,1.4,5.8,1.9c0.3,0.3,0.9,0.5,1.3,0.5c1.7,0,6.4,1.2,7.3,1.8c0.8,0.6,1.8,0.7,5.5,1c2.5,0.2,7,0.7,9.9,1.1
		c7.2,1.2,17,1.2,22.2,0.2c1.8-0.4,5.7-0.8,8.6-1c6.3-0.4,7.3-0.6,8.3-1.2c0.9-0.6,3.3-1.3,5.4-1.6c0.8-0.1,2-0.4,2.5-0.7
		c0.6-0.3,2.3-0.9,3.8-1.3c1.5-0.5,3.1-1.1,3.5-1.4c0.4-0.3,2-0.8,3.5-1.1c1.7-0.4,3.1-0.9,3.6-1.4c0.4-0.4,1.7-1,2.9-1.2
		c1.2-0.3,2.4-0.8,2.7-1.1s1.4-0.9,2.5-1.2c1.2-0.4,2.4-1,2.9-1.6c0.5-0.5,1.6-1.2,2.4-1.4c1-0.3,1.6-0.7,1.8-1.2
		c0.2-0.4,0.6-0.8,0.9-0.8c1.5,0,2.3-1.8,1.3-2.6c-0.4-0.3-0.5-0.3-0.6,0.1c-0.1,0.3-0.6,0.6-1.1,0.7c-1.4,0.3-2.8,1-2.8,1.3
		c0,0.3-2.5,1.6-3.1,1.6c-0.3,0-1.1,0.5-1.9,1c-0.8,0.6-2.2,1.2-3.1,1.5c-0.9,0.3-2.1,0.9-2.7,1.3c-0.6,0.5-2,1-3.1,1.2
		c-1.1,0.2-2.3,0.7-2.6,1c-0.3,0.3-1.3,0.9-2.2,1.2c-0.9,0.3-2.4,0.9-3.3,1.2c-0.9,0.4-2.9,1-4.3,1.4c-1.5,0.4-2.9,1-3.2,1.3
		c-0.6,0.6-0.9,0.7-7.2,1.3c-2.2,0.2-4.2,0.6-5,1c-4.1,1.9-39.5,1.9-42.7,0c-0.7-0.4-2.3-0.7-4.9-1c-2.1-0.2-4.5-0.4-5.3-0.5
		c-0.8-0.1-1.7-0.4-2-0.8c-0.3-0.4-1.9-0.9-3.8-1.4c-1.8-0.4-3.4-1-3.6-1.2c-0.2-0.2-1.1-0.6-2.1-0.8c-1.8-0.4-3.9-1.5-3.9-2
		c0-0.1-0.9-0.5-2.1-0.7c-1.3-0.3-2.4-0.8-3.2-1.4c-0.6-0.5-1.3-1-1.6-1c-0.9,0-3.4-1-4.1-1.6c-0.4-0.3-1.6-0.9-2.7-1.3
		c-1.1-0.4-2.2-1-2.4-1.3c-0.2-0.3-1-0.8-1.7-1c-0.7-0.2-1.8-0.8-2.4-1.2C112.3,221.5,111.9,221.4,111.9,222.1 M44.8,263.3
		c-0.9,0.3-0.9,0.4-0.2,1.7c0.5,0.9,0.6,2.3,0.7,8.6c0.2,11.3,0.1,10.4,0.4,9.4c0.1-0.5,0.3-3.9,0.3-7.6c0-7.3,0.4-9.3,1.7-10.8
		c0.4-0.4,0.7-0.9,0.5-1C47.9,263.3,45.5,263,44.8,263.3 M129,263.6c-0.4,0.7-0.5,19-0.1,19.9c0.2,0.6,13,0.8,13.4,0.2
		c0.3-0.4-2.4-0.7-6.7-0.7c-5.2,0-5.4-0.1-5.4-4.5c0-2.9,0.1-3.3,0.8-4c0.6-0.6,0.7-1,0.4-1.3c-1.3-1.6-1.9-6.6-0.9-8.4
		c0.6-1.1,0.5-1.4-0.5-1.7C129.6,263,129.2,263.2,129,263.6 M3.3,263.5c-0.3,0.3-0.3,3.2,0.1,3.8c0.6,0.9,1-0.3,0.8-2
		C4,263.7,3.7,263.1,3.3,263.5 M62.6,263.9c-0.3,0.7-0.3,18.9,0,19.6c0.3,0.7,13.4,0.9,13.4,0.3c0-0.5-1.2-0.7-6.5-0.8
		c-6.2-0.1-6.3-0.2-6.3-4.5c0-3,0.7-4.5,2.2-4.5c0.5,0,0.5-0.1-0.2-0.5c-1.8-1.3-2.7-6.4-1.6-8.6c0.6-1.2,0.6-1.1-0.2-1.3
		C63.1,263.4,62.7,263.5,62.6,263.9 M215.5,263.8c-0.8,2,0.4,3.5,3,3.5c1.4,0,0.5-3.5-0.9-3.8C216.1,263.1,215.8,263.2,215.5,263.8
		 M279.7,265.7c-0.3,2.5-0.2,15.4,0.1,16.4c0.2,0.5,0.3-3.4,0.3-8.6C280.2,263.8,280.1,262.5,279.7,265.7 M257.6,265.8
		c-0.1,0.5,0,1.1,0.1,1.2c0.2,0.2,0.3-0.2,0.3-0.9C258,264.7,257.8,264.6,257.6,265.8 M30.4,273.7c0,4.5,0,6.4,0.1,4.1s0.1-6,0-8.2
		C30.5,267.3,30.4,269.1,30.4,273.7 M84.8,266c-0.1,0.3-0.1,1.5-0.1,2.8l0.1,2.3l1.4,0.7c1.1,0.6,1.5,0.7,2.1,0.3
		c1.1-0.6,0.9-1-0.8-1.6c-1.8-0.6-1.9-0.8-1.9-2.9C85.7,266,85.2,265.1,84.8,266 M17.9,267.7c-0.5,2.2-0.5,3.9,0.1,4.1
		c0.5,0.2,1.2-2.3,1.2-4.3C19.2,265.6,18.4,265.7,17.9,267.7 M306.9,266.3c-0.1,0.3-0.1,0.9,0.1,1.3l0.3,0.8l0.2-0.9
		C307.8,266.5,307.2,265.4,306.9,266.3 M106.9,267.1c0,0.5,0.1,0.8,0.1,0.8s0.2-0.4,0.3-0.8c0.1-0.5,0-0.8-0.1-0.8
		C107,266.3,106.9,266.6,106.9,267.1 M213.2,268.5c-0.5,2.7-0.6,3.4-0.2,3.6c0.6,0.4,0.7,0.2,0.9-2.1
		C214.1,268,213.6,266.7,213.2,268.5 M308.4,268.5c-0.4,0.1-0.4,0.3,0,0.7c0.6,0.7,0.5,7.2,0,8c-0.2,0.3-1.1,0.6-2,0.7
		c-2.8,0.4-3.2,0.6-2.9,2.3c0.4,2.5-0.7,3-5.5,2.9c-3-0.1-4.1,0.2-3,0.9c0.9,0.6,7.8,0.2,9.1-0.5c0.7-0.4,1.9-0.8,2.7-0.9
		c1.6-0.2,1.9-0.6,1.9-1.9c0-0.5,0.3-1.5,0.7-2.2c0.8-1.6,1.2-5.3,0.8-8.1C309.9,268.5,309.5,268.1,308.4,268.5 M5.4,269.7
		c0,2.5,0.4,4.6,0.9,4.4c0.6-0.2,0.6-1.1,0.1-3.6C6,268.4,5.4,268,5.4,269.7 M289.6,269.3c0,0.4,0.2,0.6,0.3,0.5s0.3-0.4,0.3-0.7
		c0-0.3-0.2-0.5-0.3-0.5S289.6,268.9,289.6,269.3 M161.5,269.5c-0.3,0.9-0.2,7,0.1,7.5c0.2,0.3,0.3-0.9,0.3-3.8
		C161.9,269,161.9,268.4,161.5,269.5 M106.9,270.3c0.1,1.4,2.5,2.5,3.5,1.7c0.7-0.6,0.4-0.9-1.1-1.1c-0.7-0.1-1.5-0.5-1.9-1
		l-0.6-0.8L106.9,270.3 M235.3,269.7c-0.5,1.6-0.4,1.8,1.8,2.6c0.9,0.3,1.3,0.3,1.6-0.1c0.6-0.6,0.2-1.2-0.8-1.2
		c-0.5,0-1.2-0.4-1.7-0.8C235.8,269.6,235.4,269.4,235.3,269.7 M257.2,270c-0.5,1.5,0.1,2.1,1.9,1.9c1.9-0.1,2.2-0.6,0.6-1
		c-0.6-0.1-1.2-0.6-1.4-0.9C257.7,269.1,257.4,269.1,257.2,270 M346.3,271.2c-1.4,0.3-1.6,3.1-0.3,3.4c1.2,0.3,2.6-0.7,1.8-1.4
		c-0.3-0.2-0.6-0.8-0.7-1.3C346.9,271.4,346.6,271.2,346.3,271.2 M15.8,273.5c-0.1,0.1-0.3,1-0.3,1.9c0,1.2,0.1,1.6,0.4,1.3
		c0.2-0.2,0.3-1.1,0.3-1.9C16.1,274,15.9,273.4,15.8,273.5 M91.6,273.6c-0.6,0.3-0.5,0.3,0.3,0.3c0.6,0,1.5,0.2,2.1,0.3
		c0.8,0.2,1.2,0.2,1.5-0.2c0.3-0.4,0.3-0.5-0.2-0.5c-0.3,0-1.2-0.1-1.8-0.2C92.8,273.4,92,273.5,91.6,273.6 M113.1,273.6
		c-0.5,0.2-0.2,0.3,1.3,0.5c1.1,0.1,2.1,0.5,2.4,0.7c0.4,0.4,0.5,0.4,0.7-0.2c0.1-0.4,0.1-0.8,0.1-0.9
		C117.2,273.5,113.7,273.3,113.1,273.6 M241,273.6c-0.5,0.2-0.1,0.3,1.3,0.5c1.1,0.1,2.4,0.5,2.8,0.7c0.7,0.5,0.8,0.4,0.8-0.3
		C245.9,273.5,242.8,272.9,241,273.6 M263.4,273.6c-0.7,0.2-0.4,0.3,1.3,0.5c2.1,0.3,3.1,0.8,3.1,1.7c0,0.3,0.1,0.5,0.3,0.6
		c0.2,0.1,0.1-2.5-0.1-2.7C267.7,273.6,264,273.4,263.4,273.6 M210.5,275.1c-1.1,3.1-0.1,4.3,1.9,2.4l1.3-1.2l-1.4-1.3l-1.4-1.3
		L210.5,275.1 M222.6,274.6c-0.3,0.5-1,1-1.4,1.2c-1.1,0.5-1,0.6,0.7,1.7c2.3,1.4,2.7,0.9,1.7-2.3l-0.4-1.4L222.6,274.6
		 M289.6,276.4c0,0.7,0.1,0.9,0.3,0.6c0.3-0.4,0.1-1.7-0.2-1.7C289.6,275.3,289.6,275.8,289.6,276.4 M119.1,276.2
		c-0.3,0.1-0.3,2.5,0,4.1c0.3,1.4,0.8,0.1,0.8-2.1C120,276.4,119.8,276,119.1,276.2 M269.1,277.9c0.4,2.7,1.3,3.1,1.3,0.6
		c0-2,0-2.1-0.8-2.1C268.9,276.3,268.9,276.4,269.1,277.9 M319.6,278.4c0,1,0.1,1.4,0.1,0.9s0.1-1.3,0-1.8S319.6,277.3,319.6,278.4
		 M334.3,278c0,0.8,0.1,1.2,0.1,0.8c0.1-0.4,0.1-1.1,0-1.5C334.4,276.8,334.3,277.2,334.3,278 M225.2,280.3c0.5,2.2,0.9,2.5,0.9,0.8
		c0-1.7-0.3-2.4-0.8-2.4C224.9,278.7,224.9,279,225.2,280.3 M10,279.6c-0.4,0.4-0.2,1.7,0.4,2.9l0.6,1.1l1.3-0.8
		c1.1-0.7,1.3-1,1.3-2.1v-1.3h-1.6C11,279.4,10.1,279.5,10,279.6 M188.3,281.8c-0.1,0.9-0.1,1.7,0,1.9c0.3,0.4,12.5,0.5,12.7,0.1
		c0.3-0.4-2.4-0.7-6.2-0.7c-4,0-5.3-0.4-5.9-1.8l-0.4-1L188.3,281.8 M292.1,280.9c-0.1,0.4,0,0.5,0.7,0.5c0.5,0,0.8,0,0.7-0.1
		s-0.4-0.3-0.7-0.5C292.4,280.4,292.3,280.4,292.1,280.9 M321.5,281.7c0.4,0.4,0.7,1,0.7,1.3c0,1,2.2,1.5,5.3,1.2
		c5.2-0.4,4.8-1.2-0.6-1.2c-3.7,0-4.8-0.3-4.8-1.4c0-0.4-0.2-0.7-0.7-0.7h-0.7L321.5,281.7 M345.9,282.8c-0.6,0.6-0.6,0.8-0.2,1
		c0.6,0.4,12.7,0.4,12.7,0c0-0.5-2.2-0.7-6.2-0.7c-2.6,0-4-0.2-4.6-0.5C346.7,282.1,346.6,282.1,345.9,282.8 M116.7,282.8
		c-0.3,0.3-1.5,0.4-3.8,0.4c-4.9,0-4.7,0.6,0.2,0.8c4.1,0.1,4.9-0.1,4.3-1.1C117.1,282.5,117,282.5,116.7,282.8 M241.9,283
		c-4.1,0.1-5.3,0.3-4.8,0.8c0.4,0.4,7.8,0.4,8.2,0C246,283.1,245.3,282.9,241.9,283 M265,283.1c-1.4,0.1-2.9,0.1-3.4,0
		c-1.3-0.2-3.5,0.2-2.9,0.6c0.6,0.4,8.1,0.4,8.7,0C268.3,283.1,267.5,282.9,265,283.1 M308.8,283.3c0.1,0.3,0.4,0.7,0.7,0.7
		c0.4,0.1,0.6-0.1,0.5-0.5c-0.1-0.3-0.4-0.7-0.7-0.7C308.8,282.7,308.7,282.8,308.8,283.3 M86.9,283.3c-0.5,0.5,0.7,0.7,4.4,0.7
		c3.3,0,4.2-0.1,4.2-0.5C95.4,283.2,87.3,282.9,86.9,283.3 M167.7,283.4c0,0.6,0.6,0.7,4.1,0.8c3.5,0.1,5.1-0.2,4.8-0.8
		C176.3,283,167.7,283,167.7,283.4"/>
	<path id="path1" class="st0" d="M171.3,0.3c-1.9,0.2-4.8,0.5-6.4,0.8c-1.6,0.3-4.9,0.9-7.3,1.3c-2.7,0.5-5.2,1.1-6.2,1.7
		c-1,0.5-3,1.1-4.6,1.4c-1.9,0.3-3.1,0.8-3.6,1.2c-0.4,0.4-1.5,0.8-2.3,1c-0.9,0.2-2.5,0.7-3.6,1.3c-1.1,0.5-2.9,1.3-3.9,1.7
		c-1,0.4-2.2,1-2.8,1.4c-0.5,0.4-1.4,0.8-2,1c-0.6,0.2-1.7,0.8-2.4,1.3c-0.7,0.5-1.5,1-1.6,1c-0.2,0-0.9,0.4-1.7,1
		c-0.8,0.5-2,1.4-2.7,1.9c-2.4,1.6-3.7,2.6-4.8,3.6c-0.6,0.5-1.3,1-1.6,1c-0.3,0-0.8,0.5-1.2,1c-0.4,0.6-0.9,1-1.1,1
		c-1.3,0-14.5,13-16.4,16.1c-0.4,0.6-0.8,1.1-1,1.1s-0.4,0.3-0.5,0.7c-0.1,0.4-0.8,1.4-1.5,2.2c-0.7,0.8-1.3,1.6-1.3,1.8
		c0,0.1-0.4,0.7-0.8,1.2c-0.5,0.5-1.2,1.7-1.6,2.5c-0.4,0.8-1,1.7-1.3,1.9c-0.3,0.2-0.7,0.9-1,1.5s-0.8,1.6-1.2,2.2
		c-1.2,1.6-6,11.5-6.3,12.8c-0.1,0.6-0.6,1.8-1.1,2.6c-0.5,0.8-1.1,2.5-1.3,3.9c-0.3,1.3-0.9,3.2-1.3,4.2c-0.4,1-1.1,3.3-1.3,5.2
		c-0.3,1.9-0.9,4.5-1.3,5.9c-2.1,6.5-2.1,34,0,40.5c0.4,1.3,1,4,1.4,6.1c0.3,2.1,0.9,4.5,1.4,5.5c0.5,1,1,2.9,1.3,4.1
		c0.2,1.3,0.8,2.7,1.1,3.3c0.4,0.5,0.9,1.7,1,2.5c0.3,1.5,1.1,3.3,1.7,4.3c0.2,0.3,1.1,2.1,2,4.1c0.9,2,2.1,4.1,2.7,4.8
		c0.5,0.7,1.1,1.6,1.2,2.2c0.1,0.5,0.6,1.3,1,1.7c0.5,0.4,0.8,0.9,0.8,1.1c0,0.2,0.6,1.1,1.3,2c0.7,0.9,1.7,2.3,2.2,3.1
		c0.5,0.8,1.1,1.4,1.2,1.4c0.2,0,0.5,0.4,0.7,0.9c0.6,1.3,3.1,4.4,5.7,7.1c1.3,1.3,2.5,2.6,2.7,2.8c3.2,3.5,9.6,9.1,12.3,10.8
		c0.6,0.4,1.5,1.1,2.1,1.6c0.5,0.5,1.1,0.9,1.3,0.9c0.2,0,1,0.6,1.8,1.3c0.8,0.7,1.8,1.3,2.2,1.3c0.3,0,0.9,0.4,1.3,0.8
		c0.4,0.4,1.3,1.1,2.1,1.4c0.8,0.3,1.9,0.9,2.4,1.3c1.1,0.8,6.3,3.5,6.7,3.5c0.1,0,1.2,0.5,2.3,1c1.1,0.6,2.9,1.3,3.9,1.5
		c1,0.3,2.2,0.8,2.8,1.1c0.5,0.4,2.3,1,3.9,1.3c1.6,0.4,3.8,1,4.8,1.5c1.2,0.6,3,1,5.2,1.2c1.8,0.2,4.5,0.8,5.8,1.2
		c6,2,31.3,2.1,36.8,0.1c1.1-0.4,2.5-0.8,3.2-0.9c0.6-0.1,2.4-0.3,4-0.5c1.9-0.2,3.6-0.7,4.9-1.3c1.2-0.5,2.3-1,2.6-1
		c1.1,0,5.4-1.3,5.9-1.8c0.3-0.3,1.6-0.8,2.8-1.1c1.2-0.3,2.4-0.8,2.7-1c0.3-0.3,1.5-0.8,2.7-1.3c1.2-0.5,3.3-1.5,4.7-2.2
		c1.4-0.8,3.4-1.9,4.6-2.5c1.1-0.6,2.3-1.4,2.7-1.8s0.8-0.7,1.1-0.7c0.2,0,0.9-0.4,1.5-1c0.6-0.5,1.9-1.4,2.8-1.9
		c0.9-0.5,1.7-1.1,1.8-1.2c0.1-0.1,0.7-0.6,1.3-1c0.7-0.4,1.4-1,1.7-1.4c0.2-0.3,0.8-0.8,1.3-1.1c1.9-1,15-14.4,16.1-16.5
		c0.2-0.4,0.6-0.8,0.7-0.8c0.2,0,0.5-0.4,0.8-1c0.3-0.5,1.1-1.6,1.7-2.4c0.7-0.8,1.4-1.9,1.7-2.5c0.2-0.6,0.8-1.3,1.3-1.8
		c0.5-0.4,0.9-0.9,0.9-1.1c0-0.2,0.4-0.9,1-1.6c0.5-0.7,1.1-1.6,1.2-2c0.1-0.4,0.6-1.3,1-1.9c0.4-0.7,1.2-2,1.6-3
		c0.4-1,1.1-2.2,1.5-2.8c0.4-0.6,0.9-1.8,1.2-2.7c0.2-0.9,0.8-2,1.2-2.5c0.4-0.5,1-2,1.3-3.5c0.3-1.4,0.9-3,1.2-3.5
		c0.4-0.5,0.9-2,1.2-3.3c0.3-1.3,1-3.7,1.5-5.4c0.5-1.7,1.1-4.2,1.3-5.5c0.2-1.4,0.5-3.1,0.7-3.8c1.8-6.7,1.7-28.7-0.1-37.4
		c-0.3-1.3-0.6-3-0.7-3.9c-0.1-0.9-0.6-2.9-1.2-4.4c-0.5-1.5-1.2-3.9-1.5-5.3c-0.3-1.4-0.8-2.9-1.2-3.4c-0.3-0.4-0.9-2-1.3-3.5
		c-0.4-1.5-1-3.1-1.3-3.5c-0.3-0.5-0.8-1.6-1.1-2.5c-0.2-0.9-0.8-2.1-1.2-2.7c-0.4-0.6-0.9-1.6-1.1-2.3c-0.2-0.7-0.8-1.7-1.2-2.4
		c-0.4-0.7-1.1-1.9-1.5-2.7c-0.4-0.8-0.8-1.6-1-1.7c-0.2-0.1-0.7-1-1.2-1.9c-0.5-0.9-1.1-1.8-1.3-1.9c-0.3-0.1-0.8-0.8-1.2-1.6
		c-0.4-0.8-1-1.7-1.3-2.1c-0.8-0.8-2.8-3.6-3.8-5.1c-0.4-0.6-0.8-1.1-1-1.1s-0.7-0.5-1.1-1.2c-1.6-2.3-11.8-12.4-14.1-13.8
		c-0.7-0.4-1.3-0.9-1.3-1.1c0-0.2-0.5-0.5-1.1-0.8c-0.6-0.3-1.3-0.8-1.6-1.1c-0.2-0.3-1.1-0.9-2-1.4c-0.8-0.5-2-1.3-2.5-1.7
		s-1.4-1.2-2.1-1.5c-0.6-0.4-2.3-1.4-3.7-2.3c-1.4-0.9-2.6-1.6-2.7-1.6c-0.4,0-3.1-1.4-3.3-1.7c-0.1-0.2-1.3-0.7-2.6-1.2
		s-2.7-1.1-2.9-1.3c-0.6-0.5-3.5-1.5-4.3-1.5c-0.3,0-1.3-0.4-2.1-0.9c-1-0.6-2.4-1.1-4-1.4c-1.4-0.2-3.3-0.8-4.2-1.2
		c-1-0.5-3-1.1-4.6-1.4c-1.5-0.3-4.3-0.8-6.2-1.2C192.3,0.2,179.2-0.4,171.3,0.3 M193.2,1.8c7.2,0.9,14,2.2,16.1,3
		c1.2,0.5,3.1,1,4.3,1.2c1.2,0.2,2.7,0.7,3.3,1s2.2,1,3.5,1.3c1.3,0.4,3.4,1.2,4.6,1.9c1.2,0.6,2.5,1.2,2.9,1.2c0.4,0,1.3,0.5,1.9,1
		c0.6,0.5,1.3,1,1.6,1c0.2,0,1.2,0.5,2.1,1c0.9,0.6,1.8,1,2,1c0.2,0,0.7,0.4,1.2,0.8c0.5,0.4,1.5,1.1,2.1,1.4c1.1,0.6,1.7,1,5.3,3.6
		c0.8,0.6,2,1.4,2.5,1.8c4.4,2.7,18.3,16.3,20.1,19.6c0.2,0.3,0.6,0.8,0.9,1.2c1.7,1.9,7.2,10,8.4,12.6c0.2,0.5,0.7,1.3,1.1,1.8
		c0.4,0.6,0.9,1.6,1.1,2.2c0.2,0.7,0.7,1.6,1.1,2.1c0.4,0.5,1,1.9,1.5,3.1c0.5,1.3,1.3,3.2,1.8,4.3c0.5,1.1,1,2.4,1,2.9
		c0,0.5,0.4,1.6,0.8,2.5c0.5,0.9,1.2,3,1.5,4.7c0.4,1.7,1,4.2,1.5,5.7c3.6,12.1,3.5,44.4-0.2,51.3c-0.2,0.3-0.7,2.3-1.1,4.3
		c-0.5,2-1.1,4.2-1.5,4.8c-0.4,0.6-0.8,1.9-1,2.8c-0.2,1-0.8,2.6-1.3,3.7c-0.5,1.1-1.2,2.7-1.5,3.7c-0.3,0.9-0.9,2.2-1.4,2.8
		c-0.5,0.6-1,1.7-1.2,2.3c-0.2,0.7-0.7,1.7-1.2,2.3c-0.4,0.6-0.8,1.2-0.8,1.3c0,0.1-0.4,0.9-0.9,1.6c-0.5,0.8-1.1,1.7-1.2,2.1
		c-0.1,0.4-0.7,1.3-1.3,2c-1,1.3-2.4,3.4-4.2,6.1c-2.5,3.8-10.8,12.5-16.4,17.5c-1.3,1.1-2.9,2.5-3.6,3.1c-0.7,0.6-1.4,1.1-1.6,1.1
		c-0.2,0-0.7,0.4-1.1,0.8c-0.4,0.5-1.4,1.2-2.2,1.5c-0.8,0.4-1.8,1.1-2.2,1.5c-0.5,0.4-1.4,1-2,1.4c-0.6,0.3-1.5,0.9-1.9,1.2
		c-0.4,0.3-1.3,0.8-2,1.1c-0.7,0.3-1.6,0.7-1.8,1c-0.3,0.2-1.9,1.1-3.7,2c-1.8,0.9-4.1,2-5.2,2.6c-1.1,0.6-2.9,1.3-4.1,1.7
		c-1.2,0.3-2.7,0.9-3.4,1.3c-0.7,0.4-2.1,0.9-3.2,1c-1.1,0.2-2.9,0.7-4,1.1c-2,0.8-2.9,1-9.9,2.2c-2.1,0.4-5.1,0.9-6.5,1.2
		c-3.9,0.8-22.3,0.8-26.2,0c-1.5-0.3-5.3-1-8.4-1.5c-3.1-0.5-6.4-1.3-7.3-1.7c-0.9-0.4-2.8-0.9-4.3-1.2c-1.5-0.3-3.3-0.9-3.9-1.3
		c-0.7-0.4-1.8-0.9-2.6-1s-2.4-0.8-3.6-1.4c-1.2-0.6-2.9-1.4-3.8-1.8c-0.9-0.4-2.6-1.2-3.8-1.9c-1.2-0.7-3-1.7-4.1-2.2
		s-2-1.1-2.1-1.3c-0.1-0.2-0.8-0.7-1.6-1.1c-0.8-0.4-2.1-1.3-3-2c-0.9-0.7-1.8-1.3-2.1-1.3c-0.2,0-0.6-0.3-0.9-0.6
		c-0.2-0.3-0.9-0.9-1.4-1.2c-0.6-0.3-1.4-1-1.8-1.4c-0.5-0.4-1.9-1.6-3.2-2.7c-4.5-3.7-10.6-10-15-15.6c-0.4-0.5-1.2-1.5-1.8-2.2
		c-0.6-0.8-1.2-1.5-1.2-1.6c0-0.1-0.4-0.8-0.9-1.4c-1.5-1.9-3.7-5.5-4.6-7.3c-0.5-1-1-1.8-1.1-1.9c-0.4-0.3-4.3-8.2-5.5-11.2
		c-0.5-1.4-1.3-3.3-1.8-4.1c-0.5-0.9-1.1-2.7-1.3-4c-0.3-1.4-0.8-3.2-1.2-4c-0.4-0.8-0.9-2.9-1.2-4.7c-0.3-1.8-0.9-4.9-1.4-7
		c-2-9.2-2-27.5,0-36.9c0.4-2,1.1-5.2,1.4-7c0.3-1.8,0.9-4.1,1.4-5c0.4-0.9,0.8-2.1,0.8-2.5c0-1.1,0.9-3.9,1.5-4.8
		c0.2-0.4,0.9-1.8,1.4-3.2c1.2-3.1,5.4-12,5.9-12.3c0.2-0.1,0.7-1,1.1-2c0.4-1,1-2,1.2-2.2c0.2-0.2,1.4-1.9,2.6-3.8
		c1.2-1.8,2.6-3.9,3.2-4.5c0.5-0.6,2.3-2.8,4-4.9c4.6-5.6,13.1-13.7,17.6-16.7c0.7-0.5,1.6-1.2,1.8-1.6c0.3-0.4,0.6-0.7,0.8-0.7
		s1.2-0.6,2.2-1.3c2.6-1.8,5.6-3.6,7.7-4.8c1-0.5,2.6-1.4,3.6-2c1-0.5,2.1-1.1,2.4-1.3c0.3-0.2,1.4-0.6,2.3-0.9
		c0.9-0.3,1.9-0.8,2.2-1c0.3-0.2,1.8-0.8,3.4-1.3c1.6-0.5,3.4-1.2,4.1-1.5c0.7-0.3,2.3-0.8,3.7-1.1c1.4-0.3,3.2-0.8,4.2-1.2
		c2.1-0.9,13.2-2.7,21.3-3.5C177.2,0.9,189.3,1.3,193.2,1.8 M176.5,75c-3.9,1.7-3.2,8.2,1,9.8c4.8,1.8,9.1-2.9,7.1-7.7
		C183.7,74.8,179.5,73.7,176.5,75 M182.1,75.8c4.9,2.5,2,8.7-3.8,8.1c-2.1-0.2-3.6-3.8-2.8-6.3C176.3,75.3,179.4,74.5,182.1,75.8
		 M100,90.8c-0.7,0.3-2.2,0.7-3.3,1C84.3,95,77.8,109.5,83.1,122c1.6,3.8,5.6,8.5,8.2,9.7c0.8,0.3,1.9,0.9,2.4,1.3
		c3.8,2.7,16.5,2.5,21-0.3c0.9-0.6,1.8-1,2-1c0.2,0,0.9-0.5,1.6-1.1c0.6-0.6,1.3-1.2,1.4-1.3c0.5-0.2,3.3-3.7,4.4-5.5
		c3.5-5.9,3.5-16.4,0-21.8c-1.9-2.9-4.6-5.9-6.3-7c-0.6-0.4-1.4-1-1.8-1.3c-0.3-0.3-1.7-0.9-3-1.3c-1.3-0.4-3.3-1-4.4-1.4
		C106.5,90.1,102,90.1,100,90.8 M209.1,90.6c-7.2,2-7.4,2.1-9.9,3.9c-1.6,1.1-4.7,4-4.7,4.3c0,0.1-0.5,0.8-1,1.3
		c-0.6,0.6-1,1.2-1,1.4c0,0.2-0.4,0.9-0.8,1.5c-5.4,8-0.6,24.8,8.2,28.7c1,0.5,2.1,1,2.4,1.3c2.8,2.6,17.6,2.3,21.9-0.4
		c0.7-0.4,1.6-0.9,2.1-1c3.2-0.8,5.2-4.7,5.4-10.8c0.3-6.3,0.1-7.2-1.8-9.4l-1.6-1.8l-4.9-0.2c-9.5-0.3-12.2,0.8-11.5,5
		c0.4,2.3,1.7,2.9,7.2,3.5c1.8,0.2,1.9,0.3,2.5,1.5c3.1,6.9-10.5,9.4-17.7,3.2c-0.9-0.8-1.6-1.5-1.6-1.7c0-0.2-0.4-0.8-1-1.4
		c-1.5-1.7-1.9-10-0.7-12.3c4.3-7.7,10.9-9.8,18.9-6c4,1.9,5.7,2.1,7.4,0.7c4.2-3.3,1.4-8.3-5.7-10.2c-1.1-0.3-2.8-0.8-3.9-1.1
		C215.4,90.2,210.8,90.2,209.1,90.6 M253.1,90.9c-1.1,0.3-2.9,0.9-3.9,1.2c-5.4,1.5-11.5,7.9-13.1,13.7c-1.8,6.5-1.8,8.3-0.4,12.6
		c0.4,1.4,0.8,2.7,0.8,3.1c0,2,6.1,8.9,9.2,10.5c1,0.5,2.2,1.1,2.8,1.5c3.9,2,16.8,1.8,19.2-0.3c0.3-0.3,1.2-0.8,1.9-1.1
		c10.9-4.9,14.5-22.3,6.6-32.6C271.1,92.5,260.4,88.7,253.1,90.9 M110.6,92.5c3.1,0.7,4.1,1.1,4.9,1.8c0.6,0.5,1.2,1,1.4,1
		c1,0,5.6,5.4,7.3,8.6c3.1,5.7,1.6,17-2.9,22.1c-0.5,0.6-1,1.3-1,1.5c0,0.2-0.6,0.7-1.3,1.2c-0.7,0.5-1.4,1-1.6,1.3
		c-0.3,0.6-2.2,1.6-2.9,1.6c-0.3,0-1,0.4-1.5,0.9c-2.4,2-15.6,2.1-17.7,0.2c-0.4-0.4-1.4-0.9-2.2-1.2c-2.3-0.8-5.9-4-6.9-6.1
		c-0.3-0.6-0.7-1.2-1-1.3c-0.4-0.2-2.1-4.5-2.9-7.6c-0.6-2.1-0.1-7,0.9-9.7c0.5-1.3,0.9-2.5,0.9-2.8c0-1.4,5.4-7.6,7.4-8.6
		c0.7-0.3,1.5-0.9,1.8-1.2c0.4-0.4,1.9-1,4.5-1.5C104,91.1,104.3,91.1,110.6,92.5 M133.4,91.9c-2.6,1.4-2.5,0.9-2.5,15.3
		c0,13.5,0.2,15.2,1.6,17.5c0.3,0.6,0.8,1.6,1,2.2c0.6,2.3,5.7,6.3,9.2,7.3c4.6,1.3,14.7,0.5,17.1-1.4c0.6-0.4,1.4-0.9,1.8-1
		c2.5-0.8,5.7-6.3,6.4-11c0.7-4.6,0.5-26.2-0.2-27.4c-1.2-2.1-5.6-2.6-7.2-0.8c-1.6,1.8-1.7,2.5-1.9,15.1c-0.2,13-0.3,13.6-2.2,15.5
		c-4.8,4.9-13.6,2.9-15.4-3.6c-0.2-0.6-0.4-6.6-0.5-13.5c-0.2-13.7-0.1-13.1-2.5-14.3C136.5,91.1,134.9,91.1,133.4,91.9 M178.2,91.5
		c-0.4,0.1-1.2,0.6-1.8,1.1l-1.1,1l-0.1,18.1c-0.1,20.7-0.1,21.4,1.9,22.2c2.8,1.2,5.3,0.5,6.7-1.9l0.9-1.5v-17.3
		c0-19,0-19.2-2-20.6C181.6,91.7,179.5,91.2,178.2,91.5 M219.9,92.5c2.3,0.5,4.1,1.1,4.3,1.3c0.2,0.3,0.7,0.7,1.3,1.1
		c0.5,0.3,1.3,1.3,1.8,2.1l0.8,1.5l-1,1.6l-1,1.6l-2.3-0.2c-1.8-0.1-2.7-0.4-3.9-1.2c-3.6-2.3-11.5-2.4-14-0.2c-0.4,0.3-1.3,1-2,1.4
		c-0.7,0.4-1.5,1.2-1.8,1.7c-0.3,0.5-0.8,1.2-1.1,1.6c-2.7,2.6-2.5,12.4,0.3,16.2c3.6,4.9,8.4,6.8,14.6,6c5.2-0.7,7.4-2.7,7.1-6.2
		c-0.3-3.5-1.6-4.4-7.3-4.4c-2.2,0-2.6-0.3-2.8-2.4c-0.4-2.9,1.1-3.6,8.3-3.6c4.7,0,7.4,0.3,7.6,0.9c0.1,0.3,0.5,0.9,0.9,1.3
		c1.2,1.4,1.3,11.9,0,14.3c-1,2.1-3.3,4.1-4.9,4.4c-0.6,0.1-1.8,0.6-2.6,1.1c-3.4,2-16.2,1.9-18.9-0.2c-0.6-0.5-1.3-0.9-1.5-0.9
		c-2.4,0-7.3-5.2-9.6-10.2c-1.7-3.7-1.8-13.1-0.2-16.3c0.4-0.8,1-1.9,1.3-2.5c1.1-2.2,5.6-7.2,6.5-7.2c0.2,0,0.9-0.4,1.6-1
		c1-0.8,2.1-1.2,5.1-1.8C212.5,91.1,213.3,91.1,219.9,92.5 M265,92.6c1.8,0.4,3.3,1,3.5,1.2c0.1,0.2,0.9,0.8,1.7,1.2
		c1.6,0.8,5.3,4.6,6.1,6.2c0.3,0.6,0.7,1.2,1,1.5c0.3,0.2,0.6,1,0.7,1.6c0.1,0.7,0.7,2.4,1.2,3.9c1.2,3.3,1.3,6.6,0.3,8.6
		c-0.4,0.7-0.9,2.2-1.2,3.2c-0.8,2.9-4.4,8.1-6.4,9.2c-0.4,0.2-0.9,0.7-1,1.1c-0.1,0.4-0.8,0.8-1.7,1c-0.8,0.2-1.9,0.7-2.5,1.2
		c-1.4,1.2-4.1,1.6-10.5,1.4l-5.6-0.1l-1.4-1c-0.8-0.6-1.9-1.1-2.6-1.3c-2.3-0.5-8.1-7.2-9.3-10.6c-1.8-5.2-1.1-15.5,1.2-18.3
		c0.3-0.4,0.8-1.2,1.2-1.8c0.9-1.5,3.9-4.6,5.3-5.3c0.6-0.3,1.5-0.9,1.9-1.3C249.5,91.8,258.7,91.1,265,92.6 M138.2,93.1
		c1.2,0.5,1.4,1.8,1.5,14.6c0.2,13.7,0.1,12.8,2.4,15.9c3.9,5.2,14.6,4.1,16.2-1.5c0.2-0.8,0.7-2.3,1-3.3c0.6-1.7,0.6-3.1,0.6-11.3
		c0-10.1,0.3-13.7,1.3-14.4c1.9-1.4,5.5-0.4,5.9,1.5c0.8,4.2,0.1,27.4-0.9,29.4c-0.3,0.5-0.5,1.1-0.5,1.2c0,0.4-1.3,2.1-2.6,3.7
		c-0.6,0.7-1.1,1.4-1.1,1.6c0,0.2-0.6,0.5-1.3,0.7c-0.7,0.2-1.9,0.9-2.7,1.4c-2.3,1.6-15.5,1.7-16.7,0.1c-0.2-0.2-1-0.8-1.8-1.2
		c-2.1-1-4.9-4.1-5.5-6c-0.3-0.9-0.9-2.3-1.4-3.3l-0.8-1.7l0-13.1c0-14,0-13.6,1.8-14.6C134.4,92.4,136.7,92.5,138.2,93.1
		 M181.8,93.1c1.9,1.2,2,2.4,1.9,20.2c-0.1,17.1-0.1,16.7-1.6,19.1c-1,1.7-4,1.7-5.3-0.1l-1-1.3v-18c0-9.9,0.1-18.3,0.2-18.8
		C176.6,92.6,179.9,91.9,181.8,93.1 M100.1,99c-1.8,0.4-5.8,3.2-6.7,4.8c-0.4,0.7-0.9,1.3-1,1.3c-1.2,0-2.1,7.1-1.5,11.5
		c0.9,6.6,8.7,11.7,15.8,10.4c4-0.8,9.6-5.1,9.7-7.5c0-0.4,0.4-1.8,0.8-3.1c1-2.9,1-3.8,0.2-6.4c-0.4-1.1-0.8-2.6-1-3.4
		c-0.3-1.4-3-4.4-5.3-6.2C108.9,98.9,103.5,98.2,100.1,99 M253.5,99.2c-0.9,0.2-2,0.8-2.4,1.1c-0.4,0.4-0.9,0.7-1.1,0.7
		c-0.7,0-3.7,3.6-4.8,5.9c-6.6,13.5,11.6,27.1,22,16.4C277.7,112.6,267.8,95.3,253.5,99.2 M109.2,100.8c4.4,2.2,6.7,5.4,7.2,10.3
		c1.7,14.8-15.7,20.7-23.7,8.1l-1.2-1.8v-4.6v-4.6l1.7-2.5C97.2,99.8,103.4,97.9,109.2,100.8 M263,100.8c6.2,3,9.2,10.6,6.7,16.5
		c-0.6,1.3-1,2.5-1,2.8c0,0.8-3.4,3.9-5.2,4.7c-12.8,5.9-24.4-9.6-15.4-20.6C251.8,99.6,257.9,98.3,263,100.8 M110.5,219.4
		c-2.1,1.2-2.4,4.1-0.5,5.7c1.6,1.3,3.3,2.4,4.9,3.2c0.8,0.4,2.1,1.2,2.7,1.7c0.7,0.5,1.5,0.9,1.9,0.9c0.4,0,1.3,0.4,2,0.9
		c0.7,0.5,2,1.2,2.8,1.5c0.8,0.4,2.6,1.2,3.9,1.8c3.4,1.6,7.3,3.2,8,3.2c0.3,0,1.3,0.4,2.3,0.9c0.9,0.5,2.9,1.1,4.3,1.3
		c1.4,0.3,3.7,0.9,5,1.3c1.4,0.5,4.6,1.2,7.2,1.5c2.6,0.4,5,0.8,5.4,1c4.5,2.1,33.5,2.4,40.1,0.5c1.7-0.5,3.8-0.9,9.4-1.8
		c1.2-0.2,3.2-0.7,4.5-1.2c1.3-0.4,3.3-1,4.5-1.2c1.2-0.2,2.7-0.7,3.3-1c0.6-0.3,2.3-0.9,3.7-1.3c1.4-0.4,2.9-0.9,3.4-1.1
		c2.8-1.4,7.4-3.5,7.9-3.5c0.3,0,1.2-0.5,2-1.2c0.8-0.6,2.1-1.3,2.8-1.4c0.7-0.1,1.7-0.6,2.3-1.1s1.6-1.1,2.2-1.4
		c1.1-0.4,2.9-1.6,5-3.3c2.2-1.7,1.6-5.7-0.8-6.3c-0.8-0.2-3.7,0.8-5.7,2c-0.7,0.5-2.1,1.2-2.9,1.7c-0.9,0.5-1.7,1-1.8,1.2
		c-0.1,0.2-0.9,0.6-1.8,0.9c-0.9,0.3-2,0.9-2.4,1.3c-0.5,0.4-1.6,1-2.6,1.3c-1,0.3-2.5,1-3.4,1.5c-0.9,0.5-2.3,1.1-3.2,1.4
		c-0.9,0.2-2.5,0.8-3.4,1.2c-1,0.5-2.6,1-3.7,1.2c-1.1,0.2-2.8,0.7-3.9,1.1c-3.7,1.5-11.6,3-26.3,5c-4.8,0.7-13.2,0.7-18,0
		c-13.9-1.9-21.9-3.5-26-5.1c-1.2-0.5-3.1-1-4.2-1.2c-1.1-0.2-2.4-0.6-2.9-0.9c-0.4-0.3-2.1-0.9-3.6-1.5c-1.6-0.5-3.2-1.3-3.7-1.6
		s-1.7-0.9-2.8-1.2c-1-0.3-2.2-0.9-2.7-1.3c-0.4-0.4-1.2-0.9-1.7-1s-1.3-0.5-1.7-0.8c-0.4-0.3-1.5-1-2.4-1.5
		c-0.9-0.5-2.9-1.6-4.4-2.4C112.5,218.8,111.9,218.7,110.5,219.4 M114.1,220.8c1.1,0.5,2,1,2.1,1.1c0.3,0.4,4.1,2.6,5.4,3.2
		c0.6,0.3,1.6,0.7,2,1s1.7,0.9,2.7,1.4c1,0.5,2.9,1.4,4.2,2c1.3,0.6,3,1.3,3.7,1.5c0.7,0.2,1.8,0.6,2.4,1s2.3,1,3.8,1.4
		c1.5,0.4,3.3,1,3.9,1.2c2.9,1.2,11.1,3.1,16.7,3.8c1.4,0.2,3.5,0.6,4.7,0.9c5.7,1.4,24.1,1.3,30.9-0.1c1.8-0.4,4.4-0.8,5.9-1
		c4.3-0.6,11.5-2.3,14.8-3.5c1.7-0.6,3.9-1.3,4.9-1.5c1-0.2,2.3-0.7,2.9-1.1c0.6-0.4,1.9-0.9,3-1.1c1.1-0.3,2.3-0.8,2.8-1.1
		c0.5-0.3,1.7-0.9,2.8-1.4c1.1-0.4,2.8-1.3,3.9-1.9c1-0.6,2.1-1.2,2.4-1.2c0.3,0,1.1-0.5,1.8-1s1.4-1,1.6-1s0.9-0.4,1.7-0.9
		c4.3-2.9,7.6-2.4,6.6,1c-0.3,0.8-0.8,1.6-1.1,1.8c-0.4,0.2-1.2,0.8-1.8,1.2c-0.6,0.5-2,1.3-3,1.8s-2.2,1.2-2.6,1.5
		c-0.4,0.3-1.5,0.8-2.4,1.1c-0.9,0.3-1.9,0.8-2.2,1.2s-0.8,0.7-1.1,0.7c-0.3,0-2.3,0.8-4.5,1.9c-2.2,1-5.5,2.4-7.4,3
		c-1.9,0.6-3.9,1.4-4.4,1.6c-0.6,0.3-2.5,0.8-4.2,1.2c-1.8,0.4-3.7,0.9-4.3,1.2c-0.6,0.3-3.1,0.8-5.5,1.2c-2.4,0.4-6.1,1-8.1,1.3
		c-8.6,1.6-26.4,1.7-33.9,0.2c-1.5-0.3-5.1-0.9-8.1-1.3c-3-0.4-6.1-1.1-6.9-1.5c-0.9-0.4-2.9-0.9-4.5-1.2c-1.6-0.3-3.5-0.8-4.2-1.2
		c-0.7-0.4-1.5-0.7-1.7-0.7c-0.6,0-8.5-3-10.4-4c-1-0.5-2.5-1.1-3.2-1.4c-0.7-0.2-1.7-0.7-2.2-1c-0.5-0.3-1.7-0.9-2.8-1.3
		c-1-0.4-2-0.9-2.1-1c-0.1-0.2-1-0.7-1.9-1.2c-6.1-3.1-8.1-5.6-6-7.6C112.1,219.7,111.7,219.7,114.1,220.8 M88.2,260.2
		c-0.7,0.2-1.6,0.6-2,0.9c-0.4,0.3-1.1,0.9-1.6,1.2c-3,1.9-3.4,9.2-0.5,10.7c0.4,0.2,1.3,0.8,1.8,1.3c0.7,0.6,1.9,1.1,3.7,1.5
		c3.9,0.9,5.3,2.5,3.7,4.3c-1.1,1.3-2.5,1.2-5.4-0.3c-2.5-1.2-3.4-1.4-4.6-0.8c-5.8,3,3.4,8.3,11.6,6.7c2.2-0.4,4.3-1.5,4.3-2.1
		c0-0.2,0.5-0.9,1-1.5c1.4-1.6,1.2-7.5-0.3-7.5c-0.2,0-0.5-0.3-0.6-0.8c-0.2-0.4-0.7-0.9-1.1-1.1c-4.5-2.1-6-2.8-6.9-3
		c-2.4-0.5-2.9-1.6-1.7-3.5c0.4-0.6,3.1-0.4,4.6,0.3c2.9,1.5,5,0.8,5-1.7C99.1,261.4,93.4,259,88.2,260.2 M110.4,260.2
		c-6.3,1-9.4,10.4-4.4,13.1c0.5,0.3,0.9,0.6,0.9,0.7c0,0.4,3,1.6,5.4,2.2c3,0.7,4,2,3,3.7c-0.9,1.4-1.9,1.4-5.1,0.2
		c-4.1-1.6-5.3-1.7-6.2-0.5c-3.5,4.5,8.3,8.8,15,5.4c4.3-2.2,5-8.7,1.3-11.8c-0.5-0.5-1.1-0.8-1.3-0.8c-0.2,0-1.4-0.5-2.7-1.2
		c-1.3-0.6-2.6-1.2-2.9-1.2c-0.4,0-2.3-0.9-2.7-1.2c-0.4-0.3,0.4-2.5,1.1-2.7c1.2-0.4,3-0.1,4,0.6c1.1,0.8,4.3,0.9,4.9,0.2
		C123.5,263.2,117.2,259.1,110.4,260.2 M169.2,260.2c-4.5,0.8-8.1,4.2-9.8,9.2l-1.2,3.6l1.1,3.8c2,6.5,5.7,9.4,12.2,9.4
		c4.6,0,7.4-1,9-3.3l1.2-1.6l-0.7-1c-1.1-1.6-2-1.8-4.4-0.9c-4.6,1.6-5,1.7-6.6,1c-5.6-2.3-6.7-9-2.2-12.8c2.2-1.8,5.1-2.2,7-0.9
		c2.6,1.9,6.3,1.1,6.3-1.4C181.1,261.9,174.7,259.2,169.2,260.2 M238.3,260.2c-6,1.3-9.2,9.9-4.7,12.7c0.6,0.4,1.6,1.1,2.2,1.5
		c0.6,0.5,1.9,1,2.9,1.2c4.3,1,5.4,1.9,5,3.7c-0.4,1.9-2.6,2.1-6,0.5c-3.3-1.5-4.6-1.5-5.7,0l-0.9,1.2l0.8,1.4
		c1.3,2.4,5.6,3.8,10.8,3.5c4.5-0.3,6.1-1.4,7.6-4.8l0.9-2.2l-0.6-1.9c-1.1-3.4-1.3-3.6-5.1-5.4c-1.9-0.9-3.7-1.7-4-1.7
		c-0.4,0-2.9-0.9-3.2-1.2c-0.4-0.3,0.8-2.5,1.5-2.8c1-0.5,3.6,0,4.4,0.7c1.5,1.5,4.7,0.5,5-1.5C249.7,261.9,243.7,259.1,238.3,260.2
		 M260.7,260.2c-6.4,1-9.7,9.5-5,12.8c0.6,0.4,1.2,0.9,1.4,1.1c0.5,0.6,2.6,1.5,4.1,1.7c4.3,0.8,5.8,3.4,2.8,4.8
		c-0.7,0.4-1.4,0.5-1.5,0.4c-0.1-0.2-0.7-0.4-1.3-0.5c-0.6-0.1-1.4-0.4-1.8-0.6c-2.9-1.8-5.1-1.6-5.8,0.4c-2.1,6,13.5,8.2,17.5,2.5
		c1.3-1.8,1.5-6.2,0.3-8.1c-0.7-1.3-4.6-3.5-8.7-4.9c-2.8-1-2.7-0.9-2.4-2.2c0.4-1.9,3.4-2.4,5.4-1c1.2,0.9,4.1,0.9,4.8,0
		C273.2,263.3,267,259.3,260.7,260.2 M296.5,260.2c-0.9,0.2-2.2,0.7-2.9,1.2c-0.7,0.5-1.4,0.9-1.6,0.9c-0.6,0-3.7,3.4-3.9,4.2
		c-0.1,0.4-0.3,0.8-0.4,0.8c-0.7,0-1.5,2.3-1.6,4.7c-0.6,8.9,5.5,14.7,14.7,14c4.4-0.4,7.8-0.4,8.7-0.1c1.1,0.4,3-1.5,2.6-2.6
		c-0.6-1.8-0.6-4,0-6.5c1.1-5.1,0.1-9.5-2.9-12.6C305.9,261,301,259.4,296.5,260.2 M1.9,260.8c-1.9,0.7-2.4,2.9-1.2,5
		c0.3,0.6,0.8,1.9,1.1,2.9c0.2,1,0.8,2.3,1.2,2.9c0.4,0.6,1,2,1.3,3c0.3,1.1,0.8,2.5,1.2,3.1c0.4,0.6,1.1,2.2,1.5,3.5
		c1.6,4.5,5.1,6.1,7.5,3.4c0.6-0.7,1-1.4,1-1.6s0.3-0.9,0.8-1.6c0.4-0.6,1-1.9,1.2-2.8c0.2-0.9,0.8-2.2,1.2-2.9c0.4-0.6,1-2,1.3-3.1
		c0.3-1.1,1-2.9,1.7-4.1c2.2-3.9,1.4-8.9-1.3-8.1c-1.4,0.4-3.2,2.5-3.6,4.3c-0.2,0.9-1,2.9-1.7,4.2c-0.7,1.4-1.4,3.1-1.5,3.7
		c-0.2,1-0.4,1.3-1.4,1.6c-1.4,0.4-1.5,0.4-2.1-1.3c-0.2-0.6-0.8-1.7-1.2-2.4c-0.4-0.7-0.9-2-1.1-3c-0.2-1-0.6-2.2-1-2.7
		c-0.4-0.5-0.9-1.4-1.2-2c-0.5-1.2-1.8-2.7-2.1-2.7C3.3,260.3,2.6,260.5,1.9,260.8 M37.8,260.7c-1.1,0.5-1.5,1.1-1.5,2.4
		c0,1.8,0.9,2.5,4.2,3c2.7,0.4,2.7,0.4,2.9,9.6c0.2,10.3,0.5,11.2,3.9,9.5c2.1-1.1,2-0.6,2.1-9.9c0.1-9,0-8.7,3.4-9.5
		c3.6-0.9,4.8-3.3,2.3-4.9C54,260.2,39.5,260,37.8,260.7 M62.1,260.6c-0.3,0.2-1.1,1-1.6,1.9l-1.1,1.6l-0.1,6.6c0,3.6,0,8,0.1,9.8
		l0.1,3.3l1.4,1l1.4,1h7c7.2,0,8.6-0.2,9.6-1.4c1.6-1.9-2-3.6-7.6-3.6c-4,0-4,0-4.9-1l-0.9-1l0.7-1.3l0.7-1.3l4.3-0.2
		c5.2-0.2,6-0.7,5.4-3.4c-0.5-2-1-2.3-5.6-2.5c-4.9-0.3-5.7-0.6-4.9-2.4c0.7-1.7,0.8-1.7,5.2-1.7c5.8,0,7.5-0.8,7.1-3.4
		c-0.3-2-1.5-2.3-9.3-2.3C65.5,260.2,62.4,260.4,62.1,260.6 M127.5,261.8c-1.7,1.9-1.8,2.6-1.7,14.1c0.1,10.3-0.3,9.9,10.1,9.9
		c8.7,0,11-0.7,9.4-3c-1-1.3-2.7-1.8-7.5-2c-4.8-0.3-6-0.7-6-2.3c0-1.8,0.9-2.2,5.8-2.4c5.3-0.3,6.1-0.8,5.6-3.3
		c-0.4-2.2-1.4-2.6-6.5-2.7c-4.5,0-5.8-1-4.3-3c0.6-0.8,0.9-0.8,5.3-1c6.2-0.3,7.2-0.7,7.2-2.9c0-2.5-0.8-2.7-9.3-2.7h-6.6
		L127.5,261.8 M214.7,261.4c-0.6,0.7-1.1,1.4-1.1,1.6c0,0.2-0.4,0.7-0.8,1.3c-0.4,0.5-1,1.8-1.2,2.8c-0.2,1-0.7,2.1-1,2.4
		c-0.4,0.3-0.8,1.1-1,1.8c-0.2,0.7-1.6,3.7-3,6.7c-3.1,6.3-3,6.2-1.4,6.9c3.2,1.3,3.6,1.2,5.4-1.6c1.8-2.8,1.9-2.8,6.4-2.8
		c4.5,0,5.2,0.3,6.5,2.7c1.2,2.2,2,2.8,3.7,2.5c2.5-0.4,3.6-3.7,1.7-5c-0.6-0.4-1.1-1.3-1.6-2.9c-0.4-1.3-1-2.7-1.3-3.1
		c-0.3-0.4-0.8-1.6-1.2-2.7c-0.3-1.1-0.8-2.2-1-2.5c-0.2-0.3-0.7-1.1-1-1.8C220,260.4,217.2,258.4,214.7,261.4 M278.4,260.8
		c-2,0.9-2.1,1.3-2.1,12.9c0,11.6-0.2,10.9,2.6,11.7c1.2,0.4,1.3,0.3,2.2-0.5l0.9-0.9l0.1-8.3c0.1-9.8-0.2-14-1.3-14.9
		C280,260.1,280,260.1,278.4,260.8 M344.7,260.7c-2.1,0.7-2.2,1.2-2.3,12.3c-0.1,11,0,11.5,1.8,12.2c2.2,0.9,14.9,0.7,16.3-0.3
		c3.2-2.2-0.5-4.3-7.3-4.3c-4.1,0-4.6-0.3-4.5-2.5c0.1-2.2,0.1-2.2,4.3-2.2c4.6,0,7.2-1.1,6.6-2.9c-1-2.7-2-3.2-6.9-3.2
		c-4,0-4.3-0.2-3.9-2.5l0.2-1.3l4.9-0.2c5.5-0.2,6.1-0.4,6.7-1.4c0.8-1.4,0.3-3-1-3.6C358,260.1,346.7,260,344.7,260.7 M28.4,261
		c-1.7,0.7-1.8,1.6-1.8,12.7v10l0.8,0.8c4.4,4.4,6.1-1.9,5-18.3C32,260.4,31.5,259.7,28.4,261 M186.9,260.8c-1.7,0.3-1.9,1.2-2,10.3
		c-0.1,4.6,0,9.5,0.1,10.8l0.2,2.4l1.4,0.7c2.2,1.1,14.4,1,15.8,0c2.7-2.1-0.3-4.3-5.7-4.3c-5.7,0-5.8-0.2-5.8-9.5
		C190.8,261,190.5,260.1,186.9,260.8 M317.5,260.8c-1.8,0.5-2.7,13.5-1.3,18.2c2.7,9,16.2,10,20.6,1.5l1.3-2.6v-7.4
		c0-8.7-0.2-9.4-2.5-9.8c-2.8-0.5-3.4,1.1-3.6,9.1c-0.2,7.9-0.7,9.3-3.7,10.6c-2.1,0.9-3.6,0.3-5.3-2.2l-1.3-1.9l-0.1-6.3
		C321.4,261,320.9,259.9,317.5,260.8 M95.7,261.9c0.5,0.4,1.3,1,1.7,1.3c0.7,0.5,0.8,0.7,0.4,1.8l-0.4,1.2l-1.6-0.5
		c-3.6-1.1-6.1-1.1-7.2-0.1c-2,1.9-0.9,4.5,2.2,5.2c0.6,0.1,1.7,0.6,2.6,1c0.9,0.5,2.1,0.9,2.8,1c1.3,0.2,3.3,2.9,3.8,5
		c0.5,2.1-2,6.1-4.1,6.8c-4,1.2-12,0.1-12-1.8c0-0.2-0.3-0.7-0.7-1c-1.9-1.7,1.2-2.5,4.1-1c3.2,1.6,5.1,1.6,6.8,0.2
		c2.6-2.3,0.8-5.2-3.7-6c-2.2-0.4-4.2-1.3-6.1-2.9c-1.7-1.4-1.3-7.8,0.6-8.8c0.4-0.2,1.1-0.8,1.6-1.2
		C88.2,260.7,93.9,260.5,95.7,261.9 M117.6,262.1c0.7,0.5,1.5,1.1,1.8,1.2c0.7,0.3,0.8,1.6,0.2,2.2c-0.5,0.5-2.1,0.5-3,0
		c-2.2-1.2-6.7-0.7-7.2,0.8c-0.8,2.5-0.4,3.1,2.8,4.3c0.6,0.2,1.7,0.7,2.4,1c0.6,0.3,1.6,0.7,2.2,0.8c5.5,1.2,6.2,9.5,1.1,12
		c-3.1,1.5-10.8,0.5-12.7-1.6c-2.4-2.8,0.3-3.8,4.5-1.7c3.1,1.6,5.7,1.1,6.7-1.1c1.1-2.4-0.5-4.4-4.1-5.1c-6.3-1.2-10-6.4-7.1-9.9
		C108.7,260.8,114.2,259.5,117.6,262.1 M177.3,262.4l2.1,1.3l-0.1,1.5c-0.1,1.8-1.5,2-3.4,0.6c-2-1.5-7.3-1.1-8.4,0.6
		c-0.3,0.5-0.7,0.8-1,0.8c-1,0-2.6,3.6-2.7,5.8c-0.1,5.9,7,11.1,11.1,8.1c1.6-1.2,5.1-1.3,5.1-0.1c0,5-11.8,5.8-16.7,1.1
		c-5.8-5.6-4.6-15.8,2.4-19.3c0.7-0.4,1.6-0.9,1.8-1.1C169.3,260.3,174.6,260.7,177.3,262.4 M245.8,262.3c0.9,0.7,1.7,1.3,2,1.4
		c0.5,0.2-0.1,1.2-1.2,2c-0.8,0.6-0.9,0.6-1.7,0.1c-3.1-2-7.5-1-7.7,1.9c-0.2,1.6,0.1,1.8,3.6,3.2c1.3,0.5,3.2,1.2,4.3,1.6
		c4.4,1.7,5.8,6.3,3.1,10.1c-2.5,3.4-11.3,3.7-14.5,0.4c-2.5-2.5,0-3.9,3.7-2c4.8,2.5,8.9,0.3,7-3.8c-0.6-1.3-1.3-1.7-4.5-2.3
		c-1.2-0.3-2.6-0.8-3.2-1.2c-0.5-0.4-1.1-0.7-1.3-0.7c-0.2,0-0.8-0.4-1.3-0.9c-3.2-3.4-1.4-8.3,4.1-10.9
		C239.7,260.4,244.2,261.1,245.8,262.3 M266.7,261.7c0.3,0.3,0.8,0.6,0.9,0.6c0.6,0,2.1,1.8,1.9,2.3c-0.5,1.5-1.5,2.1-2.4,1.4
		c-3.2-2.3-7.7-1.1-7.7,1.9c0,1.8,0.2,1.9,7.7,4.7c4.8,1.8,6.1,6.9,2.7,10.7c-3.3,3.6-15.4,2.1-15.4-1.9c0-1.7,3.6-1.7,5.4,0
		c1.2,1.1,5.1,1.1,6.1,0c2.4-2.6,0.8-5.4-3.8-6.3c-5.5-1.1-8.8-5-7.4-8.8c0.4-1.1,3-3.9,3.5-3.9c0.2,0,0.6-0.2,0.8-0.5
		C259.8,260.7,265.6,260.7,266.7,261.7 M303.1,261.5c0.3,0.2,1.3,0.8,2.3,1.3c1.1,0.6,2.5,1.7,3.5,2.9c2.6,2.9,2.8,4.6,1.8,13.5
		c-0.1,1.1-0.1,2.6,0.1,3.3c0.4,2-0.4,2.7-2.5,2.2c-1.3-0.3-2.1-0.3-4.3,0c-6.1,1-9.5,0.5-12-1.7c-0.8-0.7-1.6-1.3-1.7-1.3
		c-0.1,0-0.5-0.4-0.7-0.9s-1-1.8-1.5-2.8c-1.6-2.8-1.5-6.4,0.1-9.6c1.1-2.1,3.7-5.2,4.4-5.2c0.2,0,0.9-0.4,1.7-1
		C296.1,260.9,301.8,260.4,303.1,261.5 M5.4,264.4c0.8,1.7,1.8,3.9,2.1,5.1c0.3,1.2,0.9,2.5,1.2,3c0.4,0.5,0.8,1.5,1,2.2
		c1.1,3.3,5,1.4,5.1-2.4c0-0.3,0.5-1.4,1-2.5c0.6-1.1,1.2-2.8,1.4-3.7c0.4-1.7,2.7-4.9,3.5-5c1.5-0.1,1.5,3.9,0,7
		c-0.4,0.9-1,2.4-1.4,3.5c-0.3,1-0.9,2.3-1.2,2.7s-0.9,1.7-1.1,2.6c-0.6,2.3-3.1,7.1-3.8,7.4c-2.5,1-4.7-0.7-5.6-4.4
		c-0.3-1-0.8-2.3-1.1-2.8c-0.3-0.5-1-2-1.5-3.4c-0.5-1.4-1.3-3.4-1.9-4.5c-0.5-1.1-1-2.3-1-2.7c0-0.4-0.2-1.2-0.4-1.7
		c-0.4-1.1-0.2-2.3,0.7-3.2C3.4,260.9,3.7,261.1,5.4,264.4 M54.3,262.5c0.7,1.6,0,2.3-2.6,2.6c-3.1,0.4-3.5,1.9-3.5,11.3
		c0,7.4,0,7.6-1.7,8.3c-1.9,0.8-2.1,0.1-2.3-9.7c-0.2-10,0-9.4-3.6-10c-2.8-0.5-2.9-0.6-2.4-2.4l0.4-1.4H46h7.6L54.3,262.5
		 M76.3,261.7c0,0.3,0.1,0.9,0.2,1.4c0.3,1.4-0.8,1.8-5.4,1.8c-5.1,0-6.1,0.4-6.4,2.5c-0.4,2.9,1.1,3.9,6.1,3.9
		c3.5,0,4.1,0.2,4.7,1.4c0.9,1.7,0.3,1.9-4,2c-6,0-7.6,1.3-6.7,5c0.5,1.9,1.8,2.4,6.8,2.4c5.8,0,8.6,1.4,5.2,2.5
		c-1.9,0.7-12.8,0.7-14.4,0c-1.5-0.6-1.6-1.3-1.5-12.1c0.1-8.5,0.1-8.8,0.9-10l0.8-1.3h6.9C75,261.2,76.3,261.3,76.3,261.7
		 M142.6,261.5c1.6,2.6,0.7,3.1-5.6,3.4c-5.4,0.3-5.4,0.3-5.8,2.3c-0.6,3,0.3,3.7,4.9,4c4.4,0.2,5.5,0.5,6,1.7
		c0.7,1.4,0,1.8-3.3,1.8c-3.5,0-6.8,0.5-7.2,1.1c-0.8,1.3-0.7,4.2,0.2,5.5c0.4,0.5,1.1,0.6,5.8,0.8c5.4,0.2,7.4,0.7,7.1,1.8
		c-0.5,1.4-14.2,1.9-16.3,0.6c-1.4-0.8-1.6-2.7-1.4-13l0.1-7.4l0.9-1.4l0.9-1.4h6.7C139.4,261.2,142.5,261.3,142.6,261.5
		 M218.6,261.8c0.4,0.3,0.7,0.7,0.7,1c0,0.2,0.2,0.6,0.5,0.8c0.3,0.2,0.9,1.4,1.3,2.6s1.2,2.8,1.7,3.5s1.1,2.2,1.5,3.3
		c0.4,1.2,1,2.5,1.3,3c0.3,0.5,0.8,1.5,1,2.4c0.2,0.8,0.8,2.4,1.3,3.5c1,2.4,0.5,2.9-2.5,2.6c-0.2,0-0.7-0.9-1.1-1.9
		c-1.8-4.3-12.6-4.7-14.3-0.5c-0.3,0.7-0.6,1.5-0.8,1.8c-0.3,0.7-3.3,0.9-3.6,0.2c-0.2-0.5,1.9-5.9,3.1-8.1c0.4-0.7,0.8-1.6,0.8-1.9
		c0-0.6,0.9-2.6,1.4-2.9c0.1-0.1,0.6-1.1,1-2.3C214,262.7,216.4,260.2,218.6,261.8 M280.7,262.4c0.4,1,0.5,3,0.5,11.2
		c0,11-0.1,11.3-2,10.9c-1.8-0.4-1.7-0.2-1.7-10.8v-10l1-1.3C279.8,260.9,280,260.9,280.7,262.4 M358.7,261.7c1.8,2.1,0,3.2-5.6,3.2
		c-4.3,0-4.9,0.2-5.4,1.7c-1.1,3.3,0,4.4,5.1,4.6l3.9,0.2l0.7,1.1c1.1,1.8,0.6,2-4.3,2.2c-4.7,0.2-5.2,0.4-5.7,2.8
		c-0.7,3.5,0.6,4.5,5.8,4.5c5.5,0,7.8,0.7,6.9,2c-0.6,1-12.4,1.5-15,0.6c-2.1-0.7-2-0.3-2.1-10.9c-0.1-13.3-0.6-12.5,8.7-12.5
		C357,261.2,358.4,261.3,358.7,261.7 M31.1,262.6c0.6,1.2,0.8,20.4,0.2,21.5c-0.4,0.8-2.5,0.6-3.3-0.3c-0.5-0.7-0.6-19.2-0.1-20.3
		c0.3-0.5,2.2-2,2.6-2C30.6,261.6,30.8,262,31.1,262.6 M189.8,271.3c0.2,10.7,0.3,10.7,7.3,10.8c3.6,0,4.9,0.4,5.1,1.6
		c0.4,2.5-15.4,1.9-16.1-0.6c-0.4-1.6-0.3-19.4,0.1-19.8C189.3,260.5,189.6,261.2,189.8,271.3 M320.5,269.5
		c0.3,9.3,1.8,12.4,6.1,12.4c4.8,0,6.4-2.8,6.6-11.9c0.2-8.2,0.4-8.8,2.8-7.2l1.3,0.9l0,6.5c0,6.1-0.1,6.6-0.8,8.5
		c-0.5,1.1-0.8,2.2-0.8,2.4c0,2.9-7.9,5.2-13,3.8c-1.4-0.4-4.4-3-4.4-3.8c0-0.2-0.3-1-0.7-1.9c-0.6-1.4-0.8-2.3-0.9-7
		c-0.2-7.6,0.1-8.8,1.8-9.8C320.2,261.3,320.2,261.5,320.5,269.5 M296.7,265.1c-1.1,0.2-4,3.2-4.8,5c-2.1,4.3,1.5,10.8,6.5,11.7
		c2.2,0.4,2.6-0.1,2.6-3.2c0-3.2,0.4-3.6,2.7-3c2.4,0.6,4.2-0.9,3.8-3.1C306.6,267.4,301.7,264,296.7,265.1 M303.2,267.4
		c1.8,1.4,2.7,3.1,2.8,5.1c0,1.8-0.4,2.1-3.1,2.1c-1.8,0-2.4,0.1-3,0.6c-0.7,0.6-0.7,0.9-0.1,3.3c0.5,2-1.4,2.5-3.9,1.1
		c-2.9-1.6-4.6-6.8-3-8.9c0.4-0.5,0.7-1.1,0.7-1.3c0-0.5,1.3-2,1.8-2c0.2,0,0.7-0.3,1.2-0.7C298,265.4,301.1,265.8,303.2,267.4
		 M215.3,269.9c-1.3,3.3-1.4,4.2-0.6,4.8c1.5,1.2,5.7,0.5,5.7-0.9C220.4,270.8,216.2,267.6,215.3,269.9 M217.6,271
		c1,0,2,2.7,1.2,3.3c-1.6,1.2-3.9,0.3-3.6-1.4c0.4-2.6,0.4-2.6,1.1-2.2C216.7,270.8,217.3,271,217.6,271"/>
	<path id="path2" class="st0" d="M174.4,1.1c-8.2,0.8-19.2,2.6-21.3,3.5c-0.9,0.4-2.8,0.9-4.2,1.2c-1.4,0.3-3,0.8-3.7,1.1
		c-0.7,0.3-2.5,1-4.1,1.5c-1.6,0.5-3.1,1.1-3.4,1.3c-0.3,0.2-1.3,0.7-2.2,1c-0.9,0.3-2,0.7-2.3,0.9c-0.3,0.2-1.4,0.8-2.4,1.3
		c-1,0.5-2.6,1.4-3.6,2c-2.1,1.1-5.1,3-7.7,4.8c-1,0.7-2.1,1.3-2.2,1.3s-0.6,0.3-0.8,0.7c-0.3,0.4-1.1,1.1-1.8,1.6
		c-4.4,3-13,11.1-17.6,16.7c-1.7,2-3.5,4.2-4,4.9c-0.5,0.6-2,2.7-3.2,4.5c-1.2,1.8-2.3,3.6-2.6,3.8c-0.2,0.2-0.7,1.2-1.2,2.2
		c-0.4,1-1,1.9-1.1,2c-0.5,0.3-4.7,9.1-5.9,12.3c-0.5,1.4-1.2,2.8-1.4,3.2c-0.6,0.9-1.4,3.8-1.5,4.8c0,0.5-0.4,1.6-0.8,2.5
		c-0.4,0.9-1,3.2-1.4,5c-0.3,1.8-0.9,5-1.4,7c-2.1,9.3-2.1,27.6,0,36.9c0.5,2.1,1.1,5.2,1.4,7c0.3,1.8,0.8,3.9,1.2,4.7
		c0.4,0.8,0.9,2.6,1.2,4c0.3,1.4,0.9,3.2,1.3,4c0.4,0.9,1.3,2.7,1.8,4.1c1.2,3.1,5,11,5.5,11.2c0.2,0.1,0.7,1,1.1,1.9
		c0.9,1.9,3.1,5.4,4.6,7.3c0.5,0.6,0.9,1.3,0.9,1.4c0,0.1,0.5,0.9,1.2,1.6c0.6,0.8,1.5,1.8,1.8,2.2c4.4,5.6,10.5,11.9,15,15.6
		c1.3,1.1,2.7,2.3,3.2,2.7c0.5,0.4,1.3,1,1.8,1.4c0.6,0.3,1.2,0.9,1.4,1.2c0.2,0.3,0.6,0.6,0.9,0.6c0.2,0,1.2,0.6,2.1,1.3
		c0.9,0.7,2.3,1.6,3,2c0.8,0.4,1.5,0.9,1.6,1.1c0.1,0.2,1.1,0.8,2.1,1.3s2.9,1.5,4.1,2.2c1.2,0.7,2.9,1.6,3.8,1.9
		c0.9,0.4,2.6,1.2,3.8,1.8c1.2,0.6,2.8,1.2,3.6,1.4s2,0.6,2.6,1c0.7,0.4,2.4,1,3.9,1.3c1.5,0.3,3.5,0.9,4.3,1.2
		c0.9,0.4,4.2,1.1,7.3,1.7c3.1,0.5,6.9,1.2,8.4,1.5c3.9,0.8,22.3,0.8,26.2,0c1.5-0.3,4.4-0.8,6.5-1.2c7-1.2,7.9-1.4,9.9-2.2
		c1.1-0.4,2.9-0.9,4-1.1c1.1-0.2,2.6-0.6,3.2-1c0.7-0.4,2.2-1,3.4-1.3c1.2-0.3,3.1-1.1,4.1-1.7c1.1-0.6,3.4-1.7,5.2-2.6
		c1.8-0.9,3.4-1.8,3.7-2c0.3-0.2,1.1-0.7,1.8-1c0.7-0.3,1.6-0.8,2-1.1c0.4-0.3,1.2-0.9,1.9-1.2c0.6-0.3,1.6-1,2-1.4
		c0.5-0.4,1.5-1.1,2.2-1.5c0.8-0.4,1.7-1.1,2.2-1.5c0.4-0.5,0.9-0.8,1.1-0.8c0.2,0,0.9-0.5,1.6-1.1c0.7-0.6,2.3-2,3.6-3.1
		c5.6-4.9,13.9-13.7,16.4-17.5c1.8-2.7,3.2-4.7,4.2-6.1c0.5-0.7,1.1-1.7,1.3-2c0.1-0.4,0.7-1.3,1.2-2.1c0.5-0.8,0.9-1.5,0.9-1.6
		c0-0.1,0.4-0.7,0.8-1.3c0.4-0.6,1-1.6,1.2-2.3c0.2-0.7,0.8-1.7,1.2-2.3c0.5-0.6,1.1-1.9,1.4-2.8c0.3-0.9,1-2.6,1.5-3.7
		c0.5-1.1,1.1-2.7,1.3-3.7c0.2-1,0.6-2.2,1-2.8c0.4-0.6,1-2.8,1.5-4.8c0.5-2,1-3.9,1.1-4.3c3.7-6.8,3.8-39.2,0.2-51.3
		c-0.4-1.5-1.1-4-1.5-5.7c-0.4-1.7-1.1-3.8-1.5-4.7c-0.5-0.9-0.8-2-0.8-2.5c0-0.5-0.4-1.8-1-2.9c-0.5-1.1-1.4-3-1.8-4.3
		c-0.5-1.3-1.2-2.7-1.5-3.1c-0.4-0.5-0.8-1.4-1.1-2.1c-0.2-0.7-0.7-1.7-1.1-2.2c-0.4-0.6-0.9-1.4-1.1-1.8
		c-1.3-2.6-6.7-10.7-8.4-12.6c-0.3-0.4-0.8-0.9-0.9-1.2c-1.8-3.3-15.7-16.9-20.1-19.6c-0.6-0.4-1.7-1.2-2.5-1.8
		c-3.6-2.6-4.2-3.1-5.3-3.6c-0.6-0.3-1.6-0.9-2.1-1.4c-0.5-0.4-1.1-0.8-1.2-0.8c-0.2,0-1.1-0.5-2-1c-0.9-0.6-1.9-1-2.1-1
		c-0.2,0-0.9-0.4-1.6-1c-0.6-0.5-1.5-1-1.9-1c-0.4,0-1.7-0.5-2.9-1.2c-1.2-0.6-3.2-1.5-4.6-1.9c-1.3-0.4-2.9-1-3.5-1.3
		s-2.1-0.8-3.3-1c-1.2-0.2-3.2-0.8-4.3-1.2C203.6,2.5,182.6,0.4,174.4,1.1 M190.3,3.1c2.8,0.3,6.8,0.6,9,0.8c2.4,0.2,4.6,0.6,5.5,1
		c1.6,0.6,3.6,1.1,6.4,1.5c0.8,0.1,2.6,0.7,3.9,1.4c1.3,0.6,3.1,1.2,4,1.3c1.1,0.1,2,0.5,2.6,1c0.5,0.4,1.6,1,2.5,1.3
		c0.9,0.2,2.9,1.1,4.3,2c1.5,0.8,3.6,2,4.8,2.6c1.2,0.6,2.6,1.4,3.1,1.9c0.5,0.5,1.4,0.9,1.9,1.1c0.5,0.1,1.4,0.6,2,1.1
		c0.6,0.5,1.6,1.1,2.3,1.3c0.7,0.2,1.2,0.6,1.2,0.8c0,0.2,0.6,0.9,1.4,1.4c0.8,0.5,2.6,1.9,3.9,3.1c1.4,1.2,3.1,2.6,3.8,3.2
		c0.7,0.6,2,1.7,2.8,2.5c0.8,0.8,1.6,1.4,1.8,1.4c0.2,0,0.6,0.5,0.9,1c0.3,0.6,0.9,1.2,1.3,1.4c0.4,0.2,0.9,0.7,1,1.1
		c0.1,0.4,0.6,1.1,1.2,1.5c0.6,0.4,1,0.9,1,1.2c0,0.2,0.4,0.8,0.9,1.2c0.5,0.4,1.3,1.4,1.8,2.1c0.5,0.7,1.4,1.8,1.9,2.3
		c0.6,0.5,1,1.1,1,1.4c0,0.2,0.5,0.8,1,1.3c0.6,0.5,1,1.1,1,1.4c0,0.3,0.6,1.3,1.3,2.4c0.7,1.1,1.3,2.1,1.3,2.2
		c0,0.2,0.4,0.9,0.9,1.7c0.5,0.8,1.3,2.1,1.7,3.1c0.4,0.9,1,1.8,1.2,1.9c0.2,0.1,0.5,0.8,0.6,1.4c0.1,0.6,0.6,1.7,1.2,2.4
		s1.1,2.1,1.4,3.1c0.2,1,0.8,2.2,1.2,2.7c0.5,0.6,1.1,2,1.5,3.9c0.4,1.6,0.8,3.2,1,3.5c0.9,1.4,1.3,2.8,1.6,5.6
		c0.2,1.7,0.7,3.8,1.1,4.7c2.5,5.8,2.5,38,0,44.9c-0.4,1.1-0.9,3.2-1,4.7c-0.4,3.1-0.8,4.5-1.5,5.2c-0.3,0.3-0.7,1.9-1.1,3.5
		c-0.4,2.1-0.8,3.3-1.5,4.1c-0.5,0.7-1.1,2-1.4,3.1c-0.2,1.1-0.6,2.1-0.8,2.2c-0.2,0.2-0.7,1-1.1,1.8c-0.4,0.8-0.9,1.7-1,2
		c-0.2,0.3-0.8,1.4-1.3,2.5s-1.3,2.4-1.6,2.9c-0.3,0.5-1,1.6-1.4,2.4s-1.1,1.8-1.4,2.2c-0.4,0.4-0.8,1.2-1,1.9
		c-0.2,0.7-0.6,1.3-1.2,1.6c-0.5,0.2-0.8,0.7-0.8,1c0,0.3-0.5,1.1-1.2,1.8c-0.7,0.6-1.5,1.7-1.9,2.3c-0.4,0.6-1.2,1.5-1.7,2
		c-0.5,0.4-0.9,1-0.9,1.2s-0.4,0.7-0.9,1c-0.5,0.3-1.1,1-1.3,1.5c-0.2,0.5-0.6,1-0.8,1c-0.3,0-0.7,0.4-0.9,0.9
		c-0.3,0.5-1,1.3-1.7,1.9c-0.7,0.6-1.3,1.2-1.3,1.5c0,0.3-0.5,0.7-1.1,1c-0.6,0.3-1.3,0.9-1.5,1.3c-0.2,0.5-0.7,0.9-1,0.9
		s-1,0.4-1.5,0.9c-0.5,0.5-1.9,1.8-3.3,2.8c-1.3,1-2.9,2.3-3.6,2.9c-0.6,0.6-1.3,1.1-1.6,1.1c-0.2,0-0.8,0.4-1.2,0.8
		c-0.4,0.5-1.7,1.3-2.9,1.8c-1.2,0.5-2.1,1.2-2.1,1.4c0,0.2-0.2,0.4-0.4,0.4c-0.2,0-1.2,0.4-2.2,0.9c-1,0.5-3.2,1.6-5,2.5
		c-1.8,0.9-4.4,2.1-5.7,2.8c-1.3,0.6-2.5,1.2-2.7,1.2c-0.9,0-3.8,1.1-4.5,1.7c-0.7,0.6-5.2,1.6-7.3,1.6c-0.2,0-0.9,0.4-1.6,0.8
		c-1.1,0.7-1.9,0.9-5.3,1.2c-2.3,0.2-6,0.7-8.3,1.1c-6.1,1.1-18.4,1.1-24.5,0c-2.3-0.4-6-0.9-8.2-1.1c-2.5-0.2-4.2-0.5-4.5-0.8
		c-0.8-0.7-2.4-1.2-5.8-1.7c-2-0.3-3.3-0.7-4.1-1.3c-0.7-0.5-2.3-1.1-3.5-1.4c-1.2-0.3-2.8-0.9-3.4-1.3c-0.7-0.5-1.7-1-2.2-1.1
		c-0.5-0.1-1.5-0.6-2.1-1c-0.6-0.4-1.7-0.9-2.4-1.1c-0.7-0.2-1.6-0.6-2.1-1c-0.5-0.4-1.4-0.9-2.1-1.2c-0.7-0.3-2.1-1-3-1.7
		c-1-0.6-1.9-1.1-2.1-1.1c-0.2,0-0.9-0.5-1.7-1.2c-0.7-0.6-1.5-1.2-1.6-1.2c-0.6,0-4.5-3-8.1-6.4c-0.8-0.7-1.7-1.4-1.9-1.4
		c-0.2,0-0.5-0.3-0.6-0.7c-0.1-0.4-0.5-0.8-0.9-1c-0.9-0.4-1.6-1.1-4.7-4.1c-1.2-1.2-2.3-2.4-2.3-2.5c0-0.2-0.5-0.6-1-1
		c-0.6-0.4-1-0.9-1-1.1c0-0.2-0.5-1-1.2-1.7c-3.9-4.5-6.2-7.5-6.2-8.1c0-0.2-0.4-0.8-1-1.2c-0.5-0.4-1.1-1.2-1.2-1.7
		c-0.1-0.5-0.6-1.4-1.1-1.9c-0.5-0.5-1.3-1.9-1.8-3c-0.5-1.1-1.1-2.2-1.3-2.3c-0.4-0.3-1.4-2.4-1.4-3.1c0-0.2-0.5-1.2-1-2
		c-0.6-0.9-1-1.8-1-2.1c0-0.5-1.2-3.5-3.2-7.7c-0.6-1.3-1.3-3.3-1.5-4.4c-0.4-2.7-1.2-5-1.8-5.8c-0.4-0.5-0.6-1.7-0.9-4.9
		c-0.2-2.4-0.6-5.6-1-7.2c-1.7-7-1.7-20.4,0-28.3c0.4-1.8,0.9-5.2,1-7.5c0.2-3.2,0.5-4.4,1-5.1c0.6-0.9,1.5-3.7,1.9-6.3
		c0.1-0.7,0.7-2.4,1.4-3.7c0.6-1.3,1.1-2.5,1.1-2.8c0-0.3,0.2-0.8,0.5-1.2c0.3-0.4,0.8-1.7,1.2-2.9c0.4-1.2,1.1-2.6,1.5-3.2
		c0.4-0.6,0.9-1.5,1-2.1c0.1-0.6,0.6-1.7,1.1-2.4c0.5-0.7,1.2-2,1.5-2.8c0.4-0.8,1.1-2,1.6-2.7c0.5-0.7,1-1.6,1.2-2.1
		c0.1-0.5,0.5-1.1,0.9-1.3c0.4-0.2,1-1,1.3-1.7c0.4-0.7,0.8-1.4,0.9-1.5c0.3-0.2,1.9-2.2,3.2-3.9c0.6-0.7,1.5-1.8,2.1-2.5
		c0.6-0.7,1.1-1.4,1.1-1.6s0.5-0.7,1-1.1s1-0.9,1-1.1c0-0.3,3.2-3.5,5.7-5.6c0.8-0.6,1.6-1.4,1.8-1.6c0.5-0.5,0.8-0.8,2.7-2.4
		c0.8-0.6,1.9-1.7,2.6-2.4c0.7-0.7,1.6-1.4,2.2-1.7c0.5-0.3,1.3-0.9,1.8-1.3c0.5-0.4,1.4-1,2-1.3c0.6-0.3,1.4-0.8,1.8-1.3
		c0.4-0.5,0.9-0.8,1.1-0.8c0.4,0,2.9-1.3,3.1-1.7c0.2-0.2,3.8-2.1,6-3.2c0.6-0.3,1.9-1,2.7-1.5c0.8-0.5,2-1,2.7-1.2
		c0.6-0.1,1.7-0.7,2.4-1.2c0.7-0.5,1.5-1,1.9-1c1.2,0,4.5-1,5.4-1.7c0.5-0.4,2.5-0.9,4.6-1.3c2.1-0.4,4.4-1,5.2-1.4
		c1-0.4,2.9-0.8,5.6-1c2.3-0.2,6-0.6,8.4-0.8C176.8,2.5,184.3,2.5,190.3,3.1 M177.4,73.1c-0.4,0.3-1.3,0.8-1.8,1.1
		c-2,0.9-3.6,4.7-3,7.2c0.3,1.3,3.2,4.6,4,4.6c0.4,0,1,0.2,1.4,0.5c0.7,0.6,3.4,0.7,3.7,0.2c0.1-0.2,0.9-0.6,1.7-1
		c3.2-1.4,3.8-10.4,0.9-11.3c-0.4-0.1-1.3-0.6-1.9-1C180.7,72.3,178.5,72.2,177.4,73.1 M183,75.2c3,1.9,2.8,7-0.4,9
		c-4.9,3-10.8-2.1-8.1-7.1C176.1,74.4,180.2,73.5,183,75.2 M100.1,89.3c-2.9,0.3-3.4,0.5-4.2,1.2c-0.4,0.3-1.5,0.8-2.5,1.1
		c-1.1,0.3-2.2,0.8-2.8,1.4c-0.6,0.5-1.2,1-1.4,1c-0.5,0-3.1,2.5-3.8,3.6c-0.3,0.5-0.9,1.2-1.3,1.5c-1.2,1-3.5,6-3.8,8.4
		c-0.2,1.2-0.4,2.4-0.5,2.6c-0.4,0.6-0.3,4.7,0.1,6.5c0.2,1,0.5,2.4,0.7,3.2c0.5,2.2,2.6,6.3,4.1,7.8c0.7,0.7,1.3,1.5,1.3,1.7
		c0,0.2,0.4,0.4,0.8,0.5c0.4,0.1,1,0.6,1.2,1c0.2,0.4,1,1.1,1.8,1.4c0.7,0.3,1.5,0.8,1.7,1c1.4,1.4,2.7,1.9,4.8,2.1
		c1.2,0.1,3,0.4,4,0.8c2.2,0.8,4.6,0.8,7.1,0c1.1-0.3,3-0.7,4.2-0.8c1.8-0.2,2.6-0.4,3.5-1.1c0.6-0.5,1.8-1.3,2.6-1.8
		c1.7-1,3.9-2.7,4.3-3.3c0.2-0.2,0.6-0.8,1.1-1.2c0.4-0.4,0.8-0.9,0.8-1.1c0-0.2,0.4-0.9,0.9-1.4s1.1-1.8,1.4-2.8
		c0.2-1,0.8-2.6,1.3-3.6c1.3-2.8,1.3-9.7,0-12.3c-0.5-0.9-1.1-2.4-1.3-3.4c-0.2-0.9-0.9-2.2-1.3-2.9c-0.5-0.6-1.1-1.5-1.3-1.9
		c-1.2-2.2-6.6-6.3-9.1-6.9c-0.7-0.2-1.9-0.7-2.5-1.1C110.4,89.3,105,88.8,100.1,89.3 M208.4,89.3c-2.2,0.3-4.4,1.1-4.4,1.7
		c0,0.1-0.6,0.3-1.4,0.5c-1.7,0.3-3.3,1-3.3,1.5c0,0.2-0.5,0.6-1.1,0.8c-1.4,0.6-5.7,4.8-6.4,6.3c-0.3,0.6-0.9,1.7-1.3,2.4
		c-0.4,0.7-1,2.3-1.2,3.5c-0.2,1.2-0.6,2.9-0.9,3.6c-0.6,1.7-0.6,4.5-0.1,6.1c0.2,0.6,0.6,2.5,1,4.2c1,4.3,2.8,7.2,6.8,10.8
		c0.5,0.4,1.5,1.1,2.3,1.5c0.8,0.4,1.8,1.1,2.2,1.5c1,0.9,2.9,1.5,4.8,1.5c0.7,0,2.3,0.3,3.5,0.7c2.6,0.8,6.3,0.8,8.2-0.2
		c0.6-0.3,1.9-0.6,2.8-0.6c2.2,0,4.2-0.6,5.1-1.4c0.4-0.4,1.5-1.1,2.5-1.6c3.8-1.9,5.3-4.4,5.3-9.1c0-3.1,0.4-4.4,0.8-2.8
		c0.3,1.1,1.1,2.2,1.7,2.2c0.2,0,0.5,0.4,0.6,1c0.1,0.5,0.6,1.5,1.1,2.1c0.5,0.6,1.2,1.6,1.4,2.1c0.3,0.5,1.1,1.3,1.7,1.8
		c0.7,0.4,1.4,1.1,1.6,1.4c0.2,0.4,1.1,1,2,1.5c0.9,0.4,2,1.1,2.4,1.5c0.9,0.9,2.9,1.4,4.8,1.4c0.8,0,2.2,0.3,3,0.7
		c1.9,0.9,4.7,0.9,7.4,0c1.2-0.4,2.7-0.7,3.3-0.7c1.7,0,3.5-0.6,4.2-1.4c0.3-0.4,1.4-1.1,2.3-1.5c0.9-0.4,2.1-1.2,2.7-1.8
		c0.5-0.5,1.3-1.1,1.6-1.2c0.3-0.1,0.7-0.5,0.8-0.8s0.6-1,1-1.4c0.8-0.8,1.1-1.4,3.2-5.9l1.1-2.4v-6.4c0-6,0-6.5-0.7-7.6
		c-0.4-0.6-1.1-2.1-1.5-3.1c-0.4-1.1-1.1-2.3-1.5-2.8c-0.4-0.5-0.8-1-0.8-1.1c0-1.2-6.7-6-8.9-6.4c-0.8-0.1-1.8-0.6-2.3-1.1
		c-2-1.8-13.5-1.8-16.2,0c-0.7,0.5-1.7,0.9-2.3,1c-1.4,0.3-2.6,0.9-3.4,1.7c-0.4,0.4-0.8,0.7-1,0.7s-1,0.7-1.8,1.5
		c-0.8,0.8-1.6,1.5-1.7,1.5c-0.2,0-0.5,0.5-0.9,1.1c-0.3,0.6-0.8,1.2-1,1.4c-0.7,0.4-3,5.3-3.4,7.5c-0.2,1.1-0.6,2.6-0.7,3.2
		l-0.3,1.2l-1.3-0.7c-0.7-0.4-1.7-1-2.1-1.3c-1.2-0.8-5.6-1.2-11.5-0.9c-5.8,0.3-6,0.4-7.1,3.1c-0.8,2-0.8,2,0.2,5
		c0.4,1.2,3.7,2.9,5.6,2.9c3.1,0,4.2,1.4,2.8,3.6c-1.3,2.1-12.1,1.8-14-0.4c-0.4-0.5-1.1-1.1-1.6-1.3c-0.5-0.3-0.9-0.7-0.9-0.9
		c0-0.2-0.6-1.2-1.3-2.3l-1.3-1.8v-3.6c0-3.3,0.1-3.7,0.7-4.2c0.4-0.3,1-1.2,1.4-1.9c2.7-5,9.3-7.1,14.5-4.6
		c1.2,0.6,2.5,1.1,2.8,1.1c0.3,0,1.1,0.4,1.8,0.8c1.7,1.2,3.7,1.1,5.1-0.1c0.6-0.5,1.5-1.3,2-1.7c3.3-2.5-0.5-10.5-5-10.5
		c-0.5,0-1.4-0.4-2.1-0.9C219.9,89.3,214,88.7,208.4,89.3 M132.9,90.6c-0.5,0.6-1.2,1-1.4,1c-1.8,0-2.5,29.9-0.7,33.1
		c0.3,0.6,0.9,1.8,1.4,2.8c0.8,1.7,3.8,5.1,4.5,5.1c0.2,0,0.8,0.5,1.4,1c1.3,1.2,2.9,1.7,5,1.7c0.9,0,2.1,0.2,2.9,0.6
		c1.7,0.7,5.5,0.7,7.5,0c0.8-0.3,2.1-0.5,2.9-0.5c1.9,0,3.5-0.6,4.6-1.7c0.5-0.5,1.2-1,1.4-1c0.7,0,2.7-1.9,3.6-3.3
		c0.4-0.7,0.9-1.4,1.2-1.6c0.4-0.3,1.7-4.7,2.5-8.2c0.4-1.8,0.5-22.7,0.1-24.6c-0.2-0.9-0.8-1.8-2.2-3.3l-1.9-2h-2
		c-2,0-2.1,0-3.7,1.6c-2.7,2.7-2.6,1.8-2.7,16.4l-0.2,13.2l-1.5,1.4c-2.1,2-5.8,2.6-9.6,1.6c-1.5-0.4-1.6-0.4-2.9-3.3l-1.3-2.9
		l-0.2-12.3c-0.2-12-0.4-13.8-1.3-13.8c-0.2,0-0.8-0.5-1.5-1c-1-0.8-1.6-1-3-1C134.1,89.6,133.7,89.7,132.9,90.6 M176.3,90.8
		c-1.5,1.1-1.7,1.5-2.6,4.2c-0.3,0.8-0.4,6.4-0.4,18.1c0,21.9,0,21.9,5.8,22.1c2.8,0.1,3.1,0.1,4.3-0.8c2.2-1.5,2.2-1.2,2.2-21.8
		c0-19.8,0-19.9-1.7-20.8c-0.4-0.2-1-0.8-1.5-1.3C181.2,89.1,178.4,89.2,176.3,90.8 M108.8,90.9c1.1,0.4,3,1,4.4,1.4
		c1.3,0.4,2.7,1,3,1.3c0.3,0.3,1.1,0.9,1.8,1.3c1.7,1,4.4,4,6.3,7c3.5,5.5,3.5,16,0,21.8c-1.1,1.8-3.9,5.3-4.4,5.5
		c-0.2,0.1-0.8,0.6-1.4,1.3c-0.6,0.6-1.3,1.1-1.6,1.1c-0.2,0-1.2,0.5-2,1c-4.5,2.8-17.2,3-21,0.3c-0.5-0.4-1.6-1-2.4-1.3
		c-2.6-1.1-6.6-5.8-8.2-9.7c-5.3-12.5,1.2-27,13.6-30.2c1.1-0.3,2.5-0.7,3.3-1C102,90.1,106.5,90.1,108.8,90.9 M217.4,90.8
		c1,0.3,2.7,0.8,3.9,1.1c7.1,1.9,9.9,6.9,5.7,10.2c-1.8,1.4-3.4,1.3-7.4-0.7c-7.9-3.8-14.6-1.7-18.9,6c-1.3,2.3-0.8,10.6,0.7,12.3
		c0.5,0.6,1,1.2,1,1.4c0,0.5,3.2,3,5.1,4c3.7,1.9,11.7,1.2,13.9-1.2c1.9-2.1,0.6-5.6-2.2-5.8c-5.5-0.6-6.9-1.2-7.2-3.5
		c-0.7-4.2,2-5.4,11.5-5l4.9,0.2l1.6,1.8c1.9,2.2,2.1,3.1,1.8,9.4c-0.3,6.2-2.2,10-5.4,10.8c-0.5,0.1-1.4,0.6-2.1,1
		c-4.3,2.7-19,2.9-21.9,0.4c-0.3-0.3-1.4-0.8-2.4-1.3c-8.8-4-13.6-20.7-8.2-28.7c0.4-0.6,0.8-1.3,0.8-1.5c0-0.2,0.5-0.8,1-1.4
		c0.6-0.6,1-1.2,1-1.3c0-0.3,3.1-3.2,4.7-4.3c2.5-1.8,2.7-1.9,9.9-3.9C210.8,90.2,215.4,90.2,217.4,90.8 M264.2,91.5
		c7.8,2.3,12,6.1,15,13.4c4,9.7-0.8,23.2-9.6,27.2c-0.8,0.3-1.7,0.8-1.9,1.1c-2.4,2.1-15.3,2.4-19.2,0.3c-0.6-0.3-1.9-1-2.8-1.5
		c-3.1-1.6-9.2-8.5-9.2-10.5c0-0.3-0.4-1.7-0.8-3.1c-1.4-4.3-1.4-6.1,0.4-12.6c1.6-5.8,7.7-12.2,13.1-13.7c1-0.3,2.8-0.8,3.9-1.2
		C256.4,89.9,259.5,90.1,264.2,91.5 M138,91.9c2.3,1.2,2.2,0.6,2.5,14.3c0.1,6.9,0.3,12.9,0.5,13.5c1.8,6.5,10.6,8.5,15.4,3.6
		c1.8-1.9,1.9-2.5,2.2-15.5c0.2-12.6,0.3-13.3,1.9-15.1c1.6-1.8,6-1.4,7.2,0.8c0.7,1.2,0.8,22.8,0.2,27.4c-0.7,4.7-3.9,10.2-6.4,11
		c-0.4,0.1-1.2,0.6-1.8,1c-2.5,1.9-12.5,2.7-17.1,1.4c-3.5-1-8.6-5-9.2-7.3c-0.2-0.7-0.6-1.7-1-2.2c-1.8-2.9-2.5-29.1-0.9-31.3
		C133.1,91.4,135.8,90.8,138,91.9 M182.7,92.5c1.9,1.5,2,1.7,2,20.6v17.3l-0.9,1.5c-1.4,2.4-3.9,3.1-6.7,1.9c-2-0.8-2-1.5-1.9-22.2
		l0.1-18.1l1.1-1C178.2,91.1,180.7,91,182.7,92.5 M101,99.7c-2.5,0.6-5.9,3.2-7.7,6l-1.7,2.5v4.6v4.6l1.2,1.8
		c8,12.7,25.4,6.7,23.7-8.1C115.5,103.3,108.2,97.9,101,99.7 M256,99.6c-2.9,0.5-6,2.3-7.9,4.6c-9,11,2.6,26.5,15.4,20.6
		c1.8-0.8,5.2-3.9,5.2-4.7c0-0.2,0.4-1.5,1-2.8C273.4,108.8,265,97.9,256,99.6 M108.4,102c1.1,0.5,2.2,1,2.4,1
		c0.4,0,2.9,3.1,3.7,4.6c1.2,2.3,0.9,9.9-0.5,11.5c-0.5,0.5-1.2,1.4-1.6,1.8c-2.9,3.2-5.5,3.9-11.2,3.2c-4.5-0.6-8.2-5.4-8.6-11.1
		c-0.1-2.3,1.5-6.8,2.7-7.8c0.4-0.3,0.9-0.9,1.1-1.3c0.2-0.4,0.5-0.8,0.7-0.8c0.2,0,1.4-0.5,2.8-1.2
		C102.9,100.4,105.2,100.4,108.4,102 M262.2,102.1c1.1,0.5,2.3,1,2.6,1c0.3,0,0.7,0.4,0.9,1c0.2,0.5,0.8,1.2,1.2,1.4
		c1.1,0.6,1.5,2.1,1.7,6.4c0.3,6-0.5,8.1-4.6,11.2c-2.4,1.8-11.1,1.8-12.3,0c-0.3-0.4-0.6-0.7-0.9-0.7c-1.3,0-4.4-6.6-4.3-9.4
		c0-2,1.6-6.9,2.2-7.2c0.3-0.1,0.8-0.7,1.1-1.4c0.3-0.7,0.8-1.2,1-1.2s1.2-0.4,2.2-0.9C256.3,100.5,258.8,100.4,262.2,102.1
		 M110.9,220.9c-2.2,1.9-0.1,4.5,6,7.6c1,0.5,1.8,1,1.9,1.2c0.1,0.2,1,0.6,2.1,1c1,0.4,2.3,1,2.8,1.3c0.5,0.3,1.5,0.8,2.2,1
		c0.7,0.2,2.2,0.9,3.2,1.4c1.9,1,9.8,4,10.4,4c0.2,0,0.9,0.3,1.7,0.7c0.7,0.4,2.6,0.9,4.2,1.2c1.6,0.3,3.6,0.8,4.5,1.2
		c0.9,0.4,4,1,6.9,1.5c3,0.4,6.6,1,8.1,1.3c7.5,1.5,25.3,1.4,33.9-0.2c2-0.4,5.7-1,8.1-1.3c2.4-0.4,4.9-0.9,5.5-1.2
		c0.6-0.3,2.5-0.8,4.3-1.2c1.8-0.4,3.7-0.9,4.2-1.2c0.6-0.3,2.6-1,4.4-1.6c1.9-0.6,5.2-2,7.4-3c2.2-1,4.2-1.9,4.5-1.9
		c0.3,0,0.8-0.3,1.1-0.7s1.3-0.9,2.2-1.2c0.9-0.3,2-0.8,2.4-1.1c0.4-0.3,1.6-1,2.6-1.5s2.4-1.3,3-1.8c0.6-0.5,1.5-1,1.8-1.2
		c0.4-0.2,0.9-1,1.1-1.8c1.1-3.4-2.3-3.9-6.6-1c-0.8,0.5-1.5,0.9-1.7,0.9s-0.9,0.5-1.6,1s-1.5,1-1.8,1c-0.3,0-1.4,0.5-2.4,1.2
		c-1,0.6-2.8,1.5-3.9,1.9c-1.1,0.4-2.4,1-2.8,1.4c-0.5,0.3-1.7,0.8-2.8,1.1c-1.1,0.3-2.4,0.8-3,1.1c-0.6,0.4-1.9,0.8-2.9,1.1
		c-1,0.2-3.2,0.9-4.9,1.5c-3.3,1.2-10.5,2.9-14.8,3.5c-1.5,0.2-4.1,0.7-5.9,1c-6.8,1.4-25.2,1.5-30.9,0.1c-1.2-0.3-3.3-0.7-4.7-0.9
		c-5.6-0.7-13.8-2.6-16.7-3.8c-0.6-0.3-2.4-0.8-3.9-1.2c-1.5-0.4-3.2-1-3.8-1.4s-1.6-0.8-2.4-1c-0.7-0.2-2.4-0.9-3.7-1.5
		c-1.3-0.6-3.2-1.5-4.2-2c-1-0.5-2.2-1.1-2.7-1.4s-1.4-0.7-2-1c-1.3-0.5-5.1-2.8-5.4-3.2c-0.2-0.2-4-2-4.2-2
		C112,219.9,111.4,220.3,110.9,220.9 M113.6,222.4c0.6,0.5,1.7,1,2.4,1.2c0.7,0.2,1.5,0.7,1.7,1c0.2,0.3,1.3,0.9,2.4,1.3
		c1.1,0.4,2.3,1,2.7,1.3c0.7,0.6,3.2,1.6,4.1,1.6c0.3,0,1,0.4,1.6,1c0.7,0.6,1.8,1.1,3.2,1.4c1.1,0.2,2.1,0.6,2.1,0.7
		c0,0.5,2.2,1.6,3.9,2c1,0.2,1.9,0.6,2.1,0.8c0.2,0.2,1.8,0.8,3.6,1.2c1.9,0.5,3.5,1,3.8,1.4c0.3,0.3,1.2,0.7,2,0.8
		c0.8,0.1,3.2,0.3,5.3,0.5c2.5,0.2,4.2,0.6,4.9,1c3.2,1.9,38.6,1.9,42.7,0c0.8-0.4,2.9-0.8,5-1c6.2-0.6,6.6-0.7,7.2-1.3
		c0.3-0.3,1.8-0.9,3.2-1.3c1.5-0.4,3.4-1,4.3-1.4c0.9-0.4,2.4-0.9,3.3-1.2c0.9-0.3,1.9-0.8,2.2-1.2c0.3-0.3,1.5-0.8,2.6-1
		c1.1-0.2,2.5-0.8,3.1-1.2c0.6-0.5,1.8-1,2.7-1.3c0.9-0.3,2.3-0.9,3.1-1.5c0.8-0.6,1.7-1,1.9-1c0.6,0,3.1-1.3,3.1-1.6
		c0-0.3,1.4-0.9,2.8-1.3c0.5-0.1,1-0.4,1.1-0.7c0.1-0.4,0.3-0.4,0.6-0.1c1,0.9,0.2,2.6-1.3,2.6c-0.3,0-0.8,0.4-0.9,0.8
		c-0.2,0.5-0.8,0.9-1.8,1.2c-0.8,0.2-1.9,0.8-2.4,1.4c-0.6,0.6-1.8,1.2-2.9,1.6c-1.1,0.3-2.2,0.9-2.5,1.2s-1.5,0.8-2.7,1.1
		c-1.2,0.3-2.5,0.8-2.9,1.2c-0.5,0.4-1.9,1-3.6,1.4c-1.5,0.4-3.1,0.9-3.5,1.1c-0.4,0.3-2,0.9-3.5,1.4c-1.5,0.5-3.3,1.1-3.8,1.3
		c-0.6,0.3-1.7,0.6-2.5,0.7c-2.1,0.3-4.5,1-5.4,1.6c-1,0.7-2.1,0.8-8.3,1.2c-2.9,0.2-6.7,0.7-8.6,1c-5.2,1.1-15,1-22.2-0.2
		c-3-0.5-7.4-1-9.9-1.1c-3.8-0.2-4.7-0.4-5.5-1c-0.9-0.6-5.6-1.8-7.3-1.8c-0.4,0-1-0.2-1.3-0.5c-0.5-0.5-4.9-1.9-5.8-1.9
		c-0.3,0-0.8-0.3-1-0.7c-0.5-0.7-3.6-1.6-5.6-1.6c-0.5,0-1.2-0.4-1.6-0.8c-0.5-0.5-1.4-1-2.7-1.2c-1-0.2-2.3-0.6-2.7-0.9
		c-1.4-0.9-2.1-1.3-3.8-1.8c-0.9-0.3-2.1-1-2.8-1.6c-0.7-0.6-1.5-1-1.8-1c-0.3,0-1-0.4-1.5-0.8c-0.5-0.5-1.5-1.1-2.2-1.4
		c-1.2-0.6-2-1.7-2-3C111.9,221.4,112.3,221.5,113.6,222.4 M88.4,261.1c-0.5,0.1-1.2,0.6-1.7,1c-0.5,0.5-1.2,1-1.6,1.2
		c-1.9,1-2.3,7.4-0.6,8.8c1.9,1.5,3.9,2.5,6.1,2.9c4.5,0.8,6.3,3.8,3.7,6c-1.7,1.5-3.7,1.5-6.8-0.2c-2.9-1.5-6-0.7-4.1,1
		c0.4,0.3,0.7,0.8,0.7,1c0,1.8,8,3,12,1.8c2.2-0.7,4.6-4.7,4.1-6.8c-0.5-2.1-2.5-4.8-3.8-5c-0.6-0.1-1.9-0.6-2.8-1
		c-0.9-0.5-2.1-0.9-2.6-1c-3.2-0.7-4.3-3.2-2.2-5.2c1.1-1,3.6-1,7.2,0.1l1.6,0.5l0.4-1.2c0.4-1.1,0.3-1.2-0.4-1.8
		c-0.4-0.3-1.2-0.9-1.7-1.3C94.7,261.1,90.5,260.7,88.4,261.1 M110,261.2c-1.3,0.5-3.4,2.2-4.8,3.9c-2.9,3.5,0.8,8.7,7.1,9.9
		c3.6,0.7,5.2,2.7,4.1,5.1c-1,2.2-3.7,2.7-6.7,1.1c-4.1-2.1-6.9-1.1-4.5,1.7c1.9,2.2,9.6,3.2,12.7,1.6c5.1-2.6,4.4-10.9-1.1-12
		c-0.6-0.1-1.6-0.5-2.2-0.8c-0.6-0.3-1.7-0.8-2.4-1c-3.2-1.2-3.6-1.8-2.8-4.3c0.4-1.5,5-1.9,7.2-0.8c0.9,0.5,2.5,0.5,3,0
		c0.6-0.6,0.5-1.9-0.2-2.2c-0.3-0.1-1.1-0.7-1.8-1.2C116.3,261.1,111.8,260.5,110,261.2 M169,261.1c-0.5,0.1-1.1,0.4-1.3,0.6
		c-0.3,0.2-1.1,0.7-1.8,1.1c-3.2,1.6-5.1,4.2-5.7,7.9c-1.5,9.5,4.7,15.8,14.1,14.4c3.4-0.5,5.8-2.2,5.8-4c0-1.2-3.5-1.1-5.1,0.1
		c-4.1,3-11.2-2.2-11.1-8.1c0.1-2.2,1.7-5.8,2.7-5.8c0.2,0,0.7-0.4,1-0.8c1.1-1.7,6.4-2,8.4-0.6c1.9,1.4,3.3,1.1,3.4-0.6l0.1-1.5
		l-2.1-1.3C175.2,261.1,171.8,260.6,169,261.1 M238.2,261.1c-5.5,2.6-7.3,7.5-4.1,10.9c0.5,0.5,1.1,0.9,1.3,0.9
		c0.2,0,0.8,0.3,1.3,0.7c0.5,0.4,1.9,0.9,3.2,1.2c3.2,0.7,3.9,1,4.5,2.3c1.9,4.1-2.2,6.4-7,3.8c-3.6-1.9-6.1-0.6-3.7,2
		c3.2,3.3,12,3,14.5-0.4c2.7-3.8,1.3-8.4-3.1-10.1c-1.1-0.4-3.1-1.2-4.3-1.6c-3.5-1.3-3.8-1.5-3.6-3.2c0.3-2.8,4.6-3.9,7.7-1.9
		c0.8,0.5,0.9,0.5,1.7-0.1c1.1-0.8,1.7-1.8,1.2-2c-0.2-0.1-1.1-0.7-2-1.4C244.2,261.1,239.7,260.4,238.2,261.1 M260.1,261.1
		c-0.4,0.1-0.9,0.4-1.1,0.6c-0.2,0.3-0.6,0.5-0.8,0.5c-0.6,0-3.1,2.8-3.5,3.9c-1.4,3.8,1.8,7.8,7.4,8.8c4.6,0.9,6.3,3.6,3.8,6.3
		c-1,1.1-4.9,1.1-6.1,0c-1.9-1.7-5.4-1.7-5.4,0c0,4,12.1,5.5,15.4,1.9c3.5-3.8,2.2-8.9-2.7-10.7c-7.5-2.7-7.7-2.9-7.7-4.7
		c0-3,4.6-4.1,7.7-1.9c0.9,0.7,1.9,0.1,2.4-1.4c0.2-0.5-1.3-2.3-1.9-2.3c-0.2,0-0.6-0.3-0.9-0.6C266,261.1,261.8,260.7,260.1,261.1
		 M296.3,261.1c-0.4,0.1-1.4,0.6-2.1,1.1c-0.7,0.5-1.5,1-1.7,1c-0.7,0-3.3,3.1-4.4,5.2c-1.7,3.2-1.7,6.8-0.1,9.6
		c0.6,1,1.3,2.3,1.5,2.8s0.6,0.9,0.7,0.9c0.1,0,0.9,0.6,1.7,1.3c2.5,2.2,6,2.7,12,1.7c2.3-0.4,3.1-0.4,4.3,0
		c2.1,0.6,2.9-0.2,2.5-2.2c-0.1-0.7-0.2-2.2-0.1-3.3c1-8.9,0.8-10.6-1.8-13.5c-1-1.2-2.4-2.3-3.5-2.9c-1-0.5-2.1-1.1-2.3-1.3
		C302.6,261.1,297.7,260.8,296.3,261.1 M2.4,261.9c-0.9,0.9-1.2,2-0.7,3.2c0.2,0.5,0.4,1.3,0.4,1.7c0,0.4,0.4,1.7,1,2.7
		c0.5,1.1,1.4,3.1,1.9,4.5c0.5,1.4,1.2,2.9,1.5,3.4c0.3,0.5,0.8,1.7,1.1,2.8c0.5,1.8,0.9,2.5,2.3,4c0.6,0.6,2.2,0.8,3.3,0.3
		c0.7-0.3,3.2-5.1,3.8-7.4c0.3-1,0.8-2.2,1.1-2.6s0.9-1.7,1.2-2.7c0.3-1,0.9-2.6,1.4-3.5c1.5-3,1.6-7.1,0-7c-0.9,0.1-3.2,3.3-3.5,5
		c-0.2,0.9-0.8,2.6-1.4,3.7c-0.6,1.1-1,2.2-1,2.5c0,3.8-4,5.6-5.1,2.4c-0.2-0.7-0.7-1.6-1-2.2c-0.4-0.5-0.9-1.9-1.2-3
		c-0.7-2.4-3.4-8-4-8.2C3.3,261.2,2.8,261.5,2.4,261.9 M38,262.6c-0.5,1.8-0.4,1.9,2.4,2.4c3.6,0.6,3.4,0,3.6,10
		c0.2,9.8,0.4,10.5,2.3,9.7c1.7-0.7,1.7-0.9,1.7-8.3c0-9.4,0.5-10.9,3.5-11.3c2.7-0.3,3.4-1.1,2.6-2.6l-0.6-1.2H46h-7.7L38,262.6
		 M61.8,262.5c-0.8,1.2-0.8,1.5-0.9,10c-0.1,10.9-0.1,11.5,1.5,12.1c1.6,0.7,12.5,0.7,14.4,0c3.4-1.2,0.6-2.5-5.2-2.5
		c-5.1,0-6.4-0.5-6.8-2.4c-0.9-3.7,0.8-5,6.7-5c4.3,0,4.9-0.3,4-2c-0.6-1.2-1.3-1.4-4.7-1.4c-5,0-6.5-1-6.1-3.9
		c0.3-2.1,1.3-2.5,6.4-2.5c4.7,0,5.7-0.3,5.4-1.8c-0.1-0.5-0.2-1.2-0.2-1.4c0-0.4-1.3-0.5-6.9-0.5h-6.9L61.8,262.5 M128.1,262.6
		l-0.9,1.4l-0.1,7.4c-0.2,10.3,0,12.2,1.4,13c2.1,1.3,15.8,0.8,16.3-0.6c0.4-1.1-1.6-1.6-7.1-1.8c-4.7-0.2-5.4-0.3-5.8-0.8
		c-0.9-1.2-1-4.2-0.2-5.5c0.4-0.6,3.6-1.1,7.2-1.1c3.3,0,3.9-0.3,3.3-1.8c-0.5-1.2-1.6-1.5-6-1.7c-4.6-0.3-5.5-0.9-4.9-4
		c0.4-2,0.4-2,5.8-2.3c6.3-0.3,7.2-0.9,5.6-3.4c-0.1-0.1-3.2-0.3-6.8-0.3H129L128.1,262.6 M214.2,263.9c-0.8,1.4-1.8,3.6-2.2,4.8
		c-0.4,1.2-0.8,2.2-1,2.3c-0.4,0.3-1.4,2.3-1.4,2.9c0,0.3-0.4,1.2-0.8,1.9c-1.3,2.2-3.3,7.6-3.1,8.1c0.3,0.7,3.2,0.5,3.6-0.2
		c0.1-0.3,0.5-1.1,0.8-1.8c1.8-4.1,12.6-3.7,14.3,0.5c0.4,1,0.9,1.9,1.1,1.9c3,0.3,3.5-0.3,2.5-2.6c-0.5-1.1-1-2.6-1.3-3.5
		c-0.2-0.8-0.7-1.9-1-2.4c-0.3-0.5-0.9-1.8-1.3-3c-0.4-1.2-1.1-2.7-1.5-3.3s-1.2-2.2-1.7-3.5s-1.1-2.4-1.3-2.6
		c-0.3-0.2-0.5-0.6-0.5-0.8c0-0.7-1.4-1.5-2.6-1.5C215.8,261.2,215.6,261.4,214.2,263.9 M278.5,262.5l-1,1.3v10
		c0,10.7,0,10.4,1.7,10.8c1.9,0.5,2,0.2,2-10.9C281.2,261.2,280.8,259.7,278.5,262.5 M344.8,261.8c-1.6,1.3-1.6,1.7-1.6,12
		c0.1,10.6,0,10.2,2.1,10.9c2.5,0.8,14.4,0.4,15-0.6c0.8-1.4-1.4-2-6.9-2c-5.2,0-6.5-1-5.8-4.5c0.4-2.4,0.9-2.6,5.7-2.8
		c4.9-0.2,5.4-0.4,4.3-2.2l-0.7-1.1l-3.9-0.2c-5.1-0.2-6.3-1.3-5.1-4.6c0.5-1.5,1.1-1.7,5.4-1.7c5.6,0,7.4-1.1,5.6-3.2
		C358.1,260.9,345.7,261,344.8,261.8 M29.4,262.2c-1.8,1.1-1.8,1.3-1.8,11.5c0,10.5,0,10.4,2.1,10.8c1.9,0.3,1.9,0.1,1.9-11.1
		C31.6,261.7,31.5,260.9,29.4,262.2 M187.6,262.3c-1.9,1.2-1.8,0.7-1.8,10.6c0,12.9-0.5,12.1,8.4,12.1c6.3,0,8.2-0.3,8-1.4
		c-0.2-1.2-1.5-1.6-5.1-1.6c-7,0-7-0.1-7.3-10.8C189.6,262.1,189.4,261.2,187.6,262.3 M318.3,262.3c-1.7,1-1.9,2.2-1.8,9.8
		c0.1,4.7,0.2,5.6,0.9,7c0.4,0.9,0.7,1.7,0.7,1.9c0,0.8,3.1,3.4,4.4,3.8c5.2,1.4,13-0.9,13-3.8c0-0.2,0.4-1.3,0.8-2.4
		c0.8-1.9,0.8-2.4,0.8-8.5l0-6.5l-1.3-0.9c-2.3-1.6-2.6-1-2.8,7.2c-0.2,9.1-1.8,11.9-6.6,11.9c-4.3,0-5.8-3.2-6.1-12.4
		C320.2,261.5,320.2,261.3,318.3,262.3 M48.3,263.7c0.1,0.1-0.1,0.6-0.5,1c-1.4,1.5-1.7,3.5-1.7,10.8c0,3.7-0.2,7.1-0.3,7.6
		c-0.3,1-0.3,1.9-0.4-9.4c-0.1-6.3-0.2-7.7-0.7-8.6c-0.7-1.4-0.7-1.4,0.2-1.7C45.5,263,47.9,263.3,48.3,263.7 M130.9,263.6
		c0.1,0.1-0.1,0.7-0.3,1.2c-0.9,1.8-0.4,6.9,0.9,8.4c0.3,0.3,0.1,0.7-0.4,1.3c-0.7,0.8-0.8,1.1-0.8,4c0,4.3,0.2,4.5,5.4,4.5
		c4.3,0,7,0.3,6.7,0.7c-0.4,0.6-13.1,0.4-13.4-0.2c-0.3-0.9-0.2-19.3,0.1-19.9C129.3,263,130.5,263,130.9,263.6 M4.2,265.3
		c0.2,1.7-0.2,2.9-0.8,2c-0.4-0.6-0.5-3.5-0.1-3.8C3.7,263.1,4,263.7,4.2,265.3 M64.2,263.7c0,0-0.2,0.5-0.5,1.1
		c-1.2,2.3-0.3,7.4,1.6,8.6c0.6,0.5,0.7,0.5,0.2,0.5c-1.5,0-2.2,1.5-2.2,4.5c0,4.4,0.1,4.4,6.3,4.5c5.3,0.1,6.5,0.2,6.5,0.8
		c0,0.7-13.1,0.4-13.4-0.3c-0.3-0.8-0.3-18.9,0-19.6C62.8,263.4,64.2,263.3,64.2,263.7 M217.6,263.4c1.4,0.3,2.3,3.8,0.9,3.8
		c-1.8,0-3.2-0.8-3.2-1.9C215.3,263.3,215.6,263,217.6,263.4 M280.1,273.4c0,5.3-0.2,9.1-0.3,8.6c-0.5-1.7-0.3-18.1,0.2-18.1
		C280.1,263.9,280.1,268.2,280.1,273.4 M258,266.2c0,0.8-0.1,1.1-0.3,0.9c-0.3-0.3-0.1-2.2,0.2-2.2C257.9,264.9,258,265.5,258,266.2
		 M304,266.6c4.8,4.1,4.5,10.3-0.3,9c-2.3-0.6-2.7-0.1-2.7,3c0,3.7-1.6,4.3-5.4,2c-7.5-4.8-4.5-16,4.3-15.6
		C302.2,265.2,302.4,265.3,304,266.6 M30.5,277.8c-0.1,2.3-0.1,0.4-0.1-4.1c0-4.5,0-6.4,0.1-4.1C30.6,271.8,30.6,275.5,30.5,277.8
		 M85.7,267.7c0,2.1,0.1,2.3,1.9,2.9c1.6,0.6,1.8,1,0.8,1.6c-0.6,0.3-1,0.3-2.1-0.3l-1.4-0.7l-0.1-2.3c-0.1-1.3,0-2.5,0.1-2.8
		C85.2,265.1,85.7,266,85.7,267.7 M19.2,267.5c0,2-0.7,4.5-1.2,4.3c-0.6-0.2-0.6-1.8-0.1-4.1C18.4,265.7,19.2,265.6,19.2,267.5
		 M307.5,267.5l-0.2,0.9l-0.3-0.8c-0.4-1-0.1-2,0.4-1.4C307.6,266.4,307.7,266.9,307.5,267.5 M107.3,267.1c-0.1,0.5-0.2,0.8-0.3,0.8
		s-0.1-0.4-0.1-0.8c0-0.5,0.1-0.8,0.3-0.8C107.3,266.3,107.4,266.6,107.3,267.1 M213.9,270.1c-0.2,2.2-0.3,2.4-0.9,2.1
		c-0.4-0.2-0.3-0.9,0.2-3.6C213.6,266.7,214.1,268,213.9,270.1 M310.2,270.3c0.4,2.7,0.1,6.5-0.8,8.1c-0.4,0.7-0.7,1.7-0.7,2.2
		c0,1.3-0.3,1.6-1.9,1.9c-0.8,0.1-2,0.5-2.7,0.9c-1.3,0.7-8.2,1.1-9.1,0.5c-1.1-0.7,0-1,3-0.9c4.7,0.1,5.8-0.4,5.5-2.9
		c-0.2-1.6,0.1-1.9,2.9-2.3c0.9-0.1,1.8-0.4,2-0.7c0.6-0.7,0.6-7.3,0-8c-0.4-0.4-0.4-0.6,0-0.7C309.5,268.1,309.9,268.5,310.2,270.3
		 M6.4,270.5c0.5,2.5,0.5,3.4-0.1,3.6c-0.3,0.1-0.5-0.3-0.7-1.6C5.2,268.5,5.7,267.1,6.4,270.5 M290.2,269.1c0,0.3-0.2,0.6-0.3,0.7
		s-0.3-0.1-0.3-0.5c0-0.4,0.2-0.7,0.3-0.7S290.2,268.8,290.2,269.1 M161.9,273.2c0,2.9-0.1,4.1-0.3,3.8c-0.6-0.9-0.4-8.1,0.2-8.1
		C161.9,269,161.9,270.9,161.9,273.2 M218,269.6c2,1.2,2.9,4.3,1.6,5.2c-2.6,1.7-5.9,0.2-5.1-2.3C215.6,268.6,215.9,268.4,218,269.6
		 M109.3,270.9c1.5,0.2,1.8,0.5,1.1,1.1c-1,0.8-3.3-0.3-3.5-1.7l-0.1-1.1l0.6,0.8C107.8,270.3,108.6,270.7,109.3,270.9 M238,271
		c1,0,1.4,0.6,0.8,1.2c-0.4,0.4-0.7,0.4-1.6,0.1c-1.9-0.6-2.2-0.8-2.1-1.5c0.2-1.4,0.4-1.5,1.2-0.6C236.8,270.6,237.5,271,238,271
		 M258.2,269.9c0.2,0.4,0.9,0.8,1.4,0.9c1.5,0.4,1.2,0.9-0.6,1c-1.8,0.1-2.3-0.5-1.9-1.9C257.4,269.1,257.7,269.1,258.2,269.9
		 M347.8,273.3c0.8,0.6-0.6,1.7-1.8,1.4c-1-0.3-1.2-1-0.7-2.4c0.5-1.3,1.4-1.4,1.8-0.3C347.2,272.5,347.6,273.1,347.8,273.3
		 M15.9,276.8c-0.3,0.3-0.4-0.1-0.4-1.3c0-2.2,0.5-2.7,0.6-0.6C16.2,275.7,16.1,276.6,15.9,276.8 M95.2,273.7c0.5,0,0.5,0.1,0.2,0.5
		c-0.3,0.4-0.7,0.4-1.5,0.2c-0.6-0.2-1.5-0.3-2.1-0.3c-0.9,0-0.9-0.1-0.3-0.3c0.4-0.2,1.2-0.2,1.8-0.1
		C94.1,273.6,94.9,273.6,95.2,273.7 M117.5,273.8c0.1,0.1,0.1,0.5-0.1,0.9c-0.2,0.6-0.3,0.6-0.7,0.2c-0.3-0.3-1.3-0.6-2.4-0.7
		c-1.5-0.2-1.8-0.3-1.3-0.5C113.7,273.3,117.2,273.5,117.5,273.8 M244.3,273.5c1.4,0.2,1.6,0.3,1.6,1c0,0.8,0,0.8-0.8,0.3
		c-0.4-0.3-1.7-0.6-2.8-0.7c-1.5-0.2-1.8-0.3-1.3-0.5C241.9,273.3,242.5,273.3,244.3,273.5 M267.9,273.8c0.2,0.3,0.3,2.8,0.1,2.7
		c-0.2-0.1-0.3-0.4-0.3-0.6c0-0.9-1-1.4-3.1-1.7c-1.7-0.2-1.9-0.3-1.3-0.5C264,273.4,267.7,273.6,267.9,273.8 M212.5,277.5
		c-2,1.9-3,0.7-1.9-2.4l0.5-1.4l1.4,1.3l1.4,1.3L212.5,277.5 M224.1,277.4c0,1.2-0.3,1.2-2.2,0c-1.8-1.1-1.8-1.2-0.7-1.7
		c0.4-0.2,1.1-0.7,1.4-1.2l0.6-0.8l0.4,1.4C223.9,275.9,224.1,276.9,224.1,277.4 M290,276c0.1,0.3,0,0.8-0.1,1.1
		c-0.2,0.3-0.3,0.1-0.3-0.6C289.6,275.2,289.7,275,290,276 M120,278.3c0,2.2-0.5,3.4-0.8,2.1c-0.3-1.6-0.4-4,0-4.1
		C119.8,276,120,276.4,120,278.3 M270.4,278.4c0,2.5-0.9,2.1-1.3-0.6c-0.2-1.5-0.2-1.5,0.6-1.5C270.4,276.3,270.4,276.5,270.4,278.4
		 M319.7,279.3c-0.1,0.5-0.1,0.1-0.1-0.9c0-1,0.1-1.4,0.1-0.9S319.8,278.8,319.7,279.3 M334.5,278.8c-0.1,0.4-0.1,0.1-0.1-0.8
		c0-0.8,0.1-1.2,0.1-0.8C334.6,277.7,334.6,278.4,334.5,278.8 M225.9,279.2c0.3,0.8,0.3,3.3,0,3c-0.5-0.5-1-3.6-0.6-3.6
		C225.5,278.7,225.8,278.9,225.9,279.2 M13.5,280.6c0,1.1-0.2,1.4-1.3,2.1l-1.3,0.8l-0.6-1.1c-1.2-2.3-0.8-3.1,1.5-3.1h1.6V280.6
		 M190.5,282.7c0.6,0.2,2.6,0.4,4.4,0.4c3.8,0,6.4,0.3,6.2,0.7c-0.3,0.4-12.5,0.4-12.7-0.1c-0.1-0.2-0.1-1.1,0-1.9l0.2-1.6l0.4,1
		C189.3,281.9,189.8,282.4,190.5,282.7 M293.6,281.3c0.1,0.1-0.3,0.1-0.7,0.1c-0.7,0-0.8-0.1-0.7-0.5c0.2-0.4,0.3-0.4,0.7-0.1
		C293.2,281,293.5,281.2,293.6,281.3 M322.1,281.7c0,1.1,1.1,1.4,4.8,1.4c5.4,0,5.7,0.7,0.6,1.2c-3.2,0.3-5.3-0.2-5.3-1.2
		c0-0.4-0.3-1-0.7-1.3l-0.7-0.7h0.7C321.9,281,322.1,281.3,322.1,281.7 M352.2,283.1c4,0,6.2,0.3,6.2,0.7c0,0.4-12.1,0.4-12.7,0
		c-1-0.6,0.8-1.8,1.9-1.2C348.2,282.9,349.6,283.1,352.2,283.1 M117.4,283.8c-0.4,0.4-8.4,0.2-8.2-0.2c0.1-0.2,1.6-0.3,3.6-0.3
		c2.3,0,3.6-0.1,3.8-0.4c0.3-0.3,0.5-0.3,0.7,0.1C117.6,283.2,117.6,283.6,117.4,283.8 M245.3,283.8c-0.4,0.4-7.8,0.4-8.2,0
		c-0.5-0.5,0.7-0.7,4.8-0.8C245.3,282.9,246,283.1,245.3,283.8 M267.4,283.8c-0.6,0.4-8.1,0.4-8.7,0c-0.6-0.4,1.6-0.8,2.9-0.6
		c0.5,0.1,2,0.1,3.4,0C267.5,282.9,268.3,283.1,267.4,283.8 M310,283.5c0.1,0.4-0.1,0.6-0.5,0.5c-0.3-0.1-0.7-0.4-0.7-0.7
		c-0.1-0.4,0.1-0.6,0.5-0.5C309.6,282.8,309.9,283.2,310,283.5 M95.4,283.6c0,0.5-8.2,0.7-8.5,0.2c-0.3-0.5,0.1-0.6,4.3-0.6
		C94.6,283.2,95.4,283.2,95.4,283.6 M176.5,283.4c0.3,0.6-1.3,0.8-4.8,0.8c-3.5-0.1-4.1-0.2-4.1-0.8
		C167.7,283,176.3,283,176.5,283.4"/>
</g>
</svg>
