<?xml version="1.0" encoding="utf-8"?>
<!-- Generator: Adobe Illustrator 25.3.1, SVG Export Plug-In . SVG Version: 6.00 Build 0)  -->
<svg version="1.1"
	 id="svg2" xmlns:cc="http://creativecommons.org/ns#" xmlns:dc="http://purl.org/dc/elements/1.1/" xmlns:inkscape="http://www.inkscape.org/namespaces/inkscape" xmlns:rdf="http://www.w3.org/1999/02/22-rdf-syntax-ns#" xmlns:sodipodi="http://sodipodi.sourceforge.net/DTD/sodipodi-0.dtd" xmlns:svg="http://www.w3.org/2000/svg"
	 xmlns="http://www.w3.org/2000/svg" xmlns:xlink="http://www.w3.org/1999/xlink" x="0px" y="0px" viewBox="0 0 97.5 52.3"
	 style="enable-background:new 0 0 97.5 52.3;" xml:space="preserve">
<style type="text/css">
	.st0{fill:#FFFFFF;}
</style>
<sodipodi:namedview  bordercolor="#FFFFFF" borderopacity="1" fit-margin-bottom="5" fit-margin-left="5" fit-margin-right="5" fit-margin-top="5" gridtolerance="10" guidetolerance="10" id="namedview4" inkscape:current-layer="g10" inkscape:cx="41.887514" inkscape:cy="36.15082" inkscape:pageopacity="0" inkscape:pageshadow="2" inkscape:window-height="1017" inkscape:window-maximized="1" inkscape:window-width="1920" inkscape:window-x="-8" inkscape:window-y="-8" inkscape:zoom="5.3283476" objecttolerance="10" pagecolor="#ffffff" showgrid="false">
	</sodipodi:namedview>
<g id="g10" transform="matrix(1.25,0,0,-1.25,-195.31278,2637.6615)" inkscape:groupmode="layer" inkscape:label="SNCF 60x80 CarteReÌseauSimplifieÌ">
	<g id="g5552" transform="matrix(0.25,0,0,0.25,149.44005,1563.9183)">
		<path id="path178" inkscape:connector-curvature="0" class="st0" d="M339.3,2028.2l-5.9,0.3v97.9l-187.8-17l0,5.7l193.7,19.4
			V2028.2z"/>
		<path id="path182" inkscape:connector-curvature="0" class="st0" d="M333.4,2017.7l-241.2,13.8v37.7l5.9-1V2042l235.3-13.4V2017.7
			L333.4,2017.7z"/>
		<path id="path186" inkscape:connector-curvature="0" class="st0" d="M333.4,2028.6L98.1,2042v26.2l47.7-7.9l-0.2,49.1l187.8,17
			L333.4,2028.6L333.4,2028.6z"/>
		<path id="path190" inkscape:connector-curvature="0" class="st0" d="M85.4,2059.2l-26.8,3.9v8.5l26.8-4.9V2059.2z"/>
		<path id="path194" inkscape:connector-curvature="0" class="st0" d="M27.4,2017.6l0.1,50l31-4.5V2039l26.8,7.1v13l3.8-0.6
			l-0.2-17.2L27.4,2017.6z"/>
		<path id="path198" inkscape:connector-curvature="0" class="st0" d="M58.6,2039v24.1l26.8-3.9v-13L58.6,2039L58.6,2039z"/>
		<path id="path202" inkscape:connector-curvature="0" class="st0" d="M286.5,2140.1l-0.2,25.1l45,9.8l0.4-29.2L286.5,2140.1z"/>
		<path id="path206" inkscape:connector-curvature="0" class="st0" d="M92.2,2069.2l-65,10.8v104.9l118.2-47.4l0.1-22.3l-47.4-4.8
			v-5.3l-5.9-0.5L92.2,2069.2L92.2,2069.2z"/>
		<path id="path210" inkscape:connector-curvature="0" class="st0" d="M98.1,2105.1v5.3l47.4,4.8l0-5.7L98.1,2105.1L98.1,2105.1z"/>
		<path id="path214" inkscape:connector-curvature="0" class="st0" d="M98.1,2068.2l-5.9,1v35.4l5.9,0.5V2068.2L98.1,2068.2z"/>
		<path id="path218" inkscape:connector-curvature="0" class="st0" d="M145.8,2060.2l-47.7,7.9v36.9l47.5,4.3L145.8,2060.2
			L145.8,2060.2z"/>
		<path id="path222" inkscape:connector-curvature="0" class="st0" d="M108.6,2054.5c0-4.9,1.3-9,3.8-12.2c2.5-3.2,5.7-4.8,9.6-4.8
			c2.6,0,4.7,0.7,6.4,2.1c1.8,1.4,2.9,3.3,3.4,5.6c0.1-0.3,0.3-1,0.6-2.1c-0.6-2.7-1.8-4.7-3.7-6.2c-1.9-1.4-4.3-2.1-7.2-2.1
			c-5,0-9.2,1.9-12.7,5.6c-3.4,3.7-5.1,8.4-5.1,13.9c0,5.4,1.8,10,5.4,13.8c3.5,3.8,7.8,5.8,12.8,5.8c1.6,0,3.5-0.4,5.4-1.1
			c1-0.4,2-0.9,2.9-1.3c0.5,0,0.8,0.3,1.1,1h0.6c0-3.9-0.2-6.7-0.5-8.4c-2.3,4.8-5.5,7.2-9.5,7.2c-4.1,0-7.4-1.5-9.7-4.6
			C109.8,2063.7,108.6,2059.6,108.6,2054.5"/>
		<path id="path226" inkscape:connector-curvature="0" class="st0" d="M108.6,2054.5H108c0-5,1.3-9.3,3.9-12.6l0,0
			c2.6-3.3,6-5.1,10.1-5.1c2.7,0,5,0.8,6.8,2.3l0,0c1.9,1.5,3.1,3.5,3.6,6l-0.6,0.1l-0.6-0.2c0.1-0.3,0.3-1,0.6-2l0.6,0.2l-0.6,0.1
			c-0.5-2.6-1.7-4.5-3.5-5.8h0c-1.7-1.3-4-2-6.9-2c-4.9,0-8.9,1.8-12.2,5.4h0c-3.3,3.6-5,8.1-5,13.5c0,5.2,1.8,9.6,5.2,13.4
			c3.4,3.7,7.5,5.6,12.3,5.6c1.5,0,3.3-0.4,5.2-1.1l0.2,0.6l-0.3-0.6c1-0.4,2-0.9,3-1.3l0.3-0.1c0.4,0,0.8,0.1,1,0.4
			c0.3,0.3,0.5,0.6,0.6,1l-0.6,0.2v-0.6h0.6v0.6h-0.6c0-3.9-0.2-6.7-0.5-8.3l0.6-0.1l0.6,0.3c-2.3,4.9-5.8,7.5-10.1,7.5
			c-4.3,0-7.7-1.6-10.2-4.8c-2.4-3.2-3.7-7.4-3.7-12.6L108.6,2054.5l0.6,0c0,5,1.2,8.9,3.4,11.8c2.2,2.9,5.3,4.3,9.2,4.3
			c3.7,0,6.7-2.2,8.9-6.8l0.6-0.3l0.5,0.5c0.3,1.7,0.5,4.5,0.5,8.5l-0.2,0.4l-0.4,0.2h-0.6l-0.6-0.4l-0.3-0.5l-0.2-0.1v-0.6l0.3,0.6
			c-1,0.4-2,0.9-2.9,1.3l0,0c-2,0.7-3.9,1.1-5.6,1.1c-5.1,0-9.6-2-13.2-6c-3.6-3.9-5.5-8.7-5.5-14.2c0-5.6,1.8-10.5,5.3-14.3h0
			c3.5-3.8,7.9-5.8,13.1-5.8c3,0,5.6,0.7,7.6,2.2h0c2.1,1.5,3.4,3.7,4,6.6l0,0.3c-0.3,1.1-0.5,1.8-0.6,2.1l-0.6,0.4l-0.6-0.5
			c-0.5-2.2-1.5-3.9-3.2-5.3l0.4-0.5l-0.4,0.5c-1.6-1.3-3.6-2-6.1-2c-3.7,0-6.7,1.5-9.1,4.6h0c-2.4,3-3.6,7-3.6,11.8L108.6,2054.5
			L108.6,2054.5z"/>
		<path id="path230" inkscape:connector-curvature="0" class="st0" d="M159.3,2038.1c0-0.8,0.4-1.2,1.2-1.2h0.7v-0.9
			c-2.6-0.1-4.7-0.3-6.1-0.6v18.5c0,4.3-1.9,6.4-5.7,6.4c-2,0-3.7-0.8-5.1-2.5c-1.4-1.6-2.1-3.6-2.1-6v-13.8c0-0.8,0.4-1.2,1.3-1.2
			h0.8l-0.1-0.9c-0.4-0.1-1.4-0.1-3-0.3c-1.3-0.1-2.4-0.2-3.1-0.2c-0.2,0-0.8,0-2-0.1v0.9h0.7c0.8,0,1.2,0.4,1.2,1.2v33.9
			c0,0.7-0.3,1.1-0.9,1.1c-0.7,0.3-1,0.6-1,0.9c1.3,0.1,3.4,0.4,6.1,0.7v-16.5c1.8,3.4,4.6,5.1,8.2,5.1c2.8,0,5-0.9,6.5-2.6
			c1.6-1.7,2.3-4.2,2.3-7.3L159.3,2038.1L159.3,2038.1z"/>
		<path id="path234" inkscape:connector-curvature="0" class="st0" d="M159.3,2038.1h-0.6c0-0.5,0.1-1,0.5-1.3
			c0.3-0.4,0.8-0.5,1.3-0.5h0.1v-0.3h0.6l0,0.6c-2.6-0.1-4.7-0.3-6.1-0.6l0.1-0.6h0.6v18.5c0,2.2-0.5,4-1.6,5.2
			c-1.1,1.2-2.7,1.8-4.7,1.8c-2.2,0-4.1-0.9-5.6-2.7l0.5-0.4l-0.5,0.4c-1.5-1.8-2.3-3.9-2.3-6.4v-13.8c0-0.5,0.1-1,0.5-1.3
			c0.4-0.3,0.9-0.5,1.4-0.5h0.1l0-0.3l0.6-0.1l-0.1,0.6c-0.4-0.1-1.4-0.1-3-0.3l0,0c-1.3-0.1-2.4-0.2-3-0.2c-0.2,0-0.8,0-2-0.1
			l0-0.6h0.6v0.3h0.1c0.5,0,1,0.1,1.3,0.5s0.5,0.8,0.5,1.3v33.9c0,0.4-0.1,0.9-0.4,1.2c-0.3,0.3-0.7,0.5-1.2,0.5v-0.6l0.3,0.6
			l-0.6,0.3l-0.1,0.1l-0.1,0h0.1l0,0l-0.1,0h0.1h-0.6l0.1-0.6c1.4,0.1,3.4,0.4,6.1,0.7l-0.1,0.6h-0.6v-16.5l0.5-0.6l0.7,0.3
			c1.8,3.3,4.3,4.7,7.7,4.8c2.7,0,4.7-0.8,6.1-2.4l0,0c1.4-1.6,2.2-3.8,2.2-6.9v-14.8L159.3,2038.1l0.6,0v14.8
			c0,3.3-0.8,5.9-2.5,7.8l-0.5-0.4l0.5,0.4c-1.6,1.9-4.1,2.8-7,2.8c-3.8,0-6.9-1.8-8.8-5.4l0.5-0.3h0.6v16.5l-0.2,0.5l-0.5,0.2
			c-2.7-0.3-4.7-0.6-6.1-0.7l-0.6-0.6c0-0.4,0.2-0.7,0.4-0.9c0.2-0.2,0.5-0.4,0.9-0.6l0.3-0.1l0.2,0l0.1-0.4v-33.9l-0.1-0.5
			l-0.4-0.1h-0.7l-0.4-0.2l-0.2-0.4v-0.9l0.2-0.5l0.5-0.2c1.2,0.1,1.8,0.1,1.9,0.1c0.8,0,1.8,0.1,3.2,0.2l-0.1,0.6l0.1-0.6
			c1.6,0.1,2.6,0.2,3.1,0.3l0.5,0.6l0.1,0.9l-0.2,0.5l-0.5,0.2h-0.8c-0.4,0-0.5,0.1-0.6,0.1l-0.1,0.4v13.8c0,2.2,0.7,4,2,5.6l0,0
			c1.3,1.6,2.8,2.2,4.7,2.3c1.8,0,3-0.5,3.8-1.4c0.8-0.9,1.3-2.4,1.3-4.4v-18.5l0.2-0.5l0.5-0.1c1.4,0.2,3.4,0.4,6,0.5l0.6,0.6v0.9
			l-0.2,0.4l-0.4,0.2h-0.7l-0.4,0.1l-0.1,0.5L159.3,2038.1L159.3,2038.1z"/>
		<path id="path238" inkscape:connector-curvature="0" class="st0" d="M180,2045v2.4c-0.2,1.1-0.7,1.9-1.5,2.5
			c-0.8,0.6-1.6,0.8-2.3,0.7l-0.6-0.1c-2.2-0.2-4-1-5.5-2.4c-1.4-1.4-2.1-3.1-2.1-5c0-1.5,0.5-2.8,1.5-3.8c1-1,2.4-1.5,4.1-1.5
			c1.9,0,3.4,0.7,4.6,2.1C179.4,2041.3,180,2043,180,2045 M180.2,2039.7c-1.4-3.1-4.1-4.7-7.7-4.7c-2.8,0-5,0.8-6.6,2.3
			c-1.6,1.5-2.5,3.5-2.5,5.8c0,2.3,1,4.4,2.9,6.1c2,1.8,4.4,2.9,7.2,3.4c0.5,0.1,1.1,0.1,1.9,0l1.1,0c1,0,2.1-0.3,3.5-0.8v4.4
			c0,1.3-0.5,2.4-1.7,3.1c-1.1,0.7-2.5,1.1-4.2,1.1c-1.2,0-2.5-0.2-4-0.6c-1.2-0.4-2.1-0.8-2.6-1.1c0.8-0.2,1.2-0.7,1.2-1.5
			c0-0.5-0.2-0.7-0.7-0.7c-0.1,0-0.3,0-0.7,0.1c-0.9,0.3-1.4,0.8-1.4,1.6c0,1.1,0.8,2.2,2.4,3.2c1.8,1.1,3.8,1.6,6.3,1.6
			c6.4,0,9.6-2.6,9.6-7.7v-16.6c0-1,0.3-1.5,0.8-1.5c0.7,0,1.1,0.6,1.1,1.9h0.7c0-1-0.4-1.8-1.3-2.5c-0.9-0.7-1.9-1.1-3.1-1.1
			C181.2,2035.2,180.5,2036.7,180.2,2039.7"/>
		<path id="path242" inkscape:connector-curvature="0" class="st0" d="M180,2045h0.6v2.4l0,0.1c-0.2,1.2-0.8,2.2-1.7,2.9l0,0
			c-0.8,0.5-1.6,0.9-2.4,0.9l-0.3,0h0l-0.6-0.1l0.1-0.6l-0.1,0.6c-2.3-0.2-4.3-1.1-5.9-2.6l0,0c-1.6-1.5-2.3-3.4-2.3-5.4
			c0-1.7,0.5-3.1,1.6-4.3l0,0c1.1-1.2,2.7-1.7,4.5-1.7c2,0,3.7,0.8,5.1,2.3l-0.5,0.4l0.5-0.4c1.4,1.5,2,3.5,2,5.6L180,2045l-0.6,0
			c0-1.9-0.6-3.5-1.7-4.8l0,0c-1.1-1.3-2.4-1.9-4.1-1.9c-1.6,0-2.8,0.4-3.7,1.3l-0.4-0.4l0.4,0.4c-0.9,0.9-1.3,2-1.3,3.4
			c0,1.8,0.6,3.2,1.9,4.6l0,0c1.4,1.3,3.1,2.1,5.1,2.3h0l0.6,0.1l-0.1,0.6l0.1-0.6l0.2,0c0.5,0,1.1-0.2,1.7-0.6l0.4,0.5l-0.4-0.5
			c0.6-0.5,1-1.1,1.2-2.1l0.6,0.1h-0.6v-2.4L180,2045L180,2045z M180.2,2039.7l-0.6,0.3c-1.4-2.9-3.7-4.3-7.2-4.3
			c-2.7,0-4.7,0.7-6.2,2.1h0c-1.5,1.4-2.3,3.1-2.3,5.4c0,2.1,0.9,4,2.7,5.7c1.9,1.7,4.2,2.8,6.9,3.2l-0.1,0.6l0.1-0.6
			c0.3,0,0.6,0.1,1,0.1l0.8,0l0,0.6l0-0.6l1.1,0h0c0.9,0,2-0.3,3.3-0.7l0.6,0.1l0.3,0.5v4.4c0,1.5-0.6,2.8-1.9,3.6l-0.3-0.5l0.3,0.5
			c-1.2,0.8-2.8,1.2-4.5,1.2c-1.3,0-2.7-0.2-4.2-0.7l0,0c-1.2-0.4-2.1-0.8-2.7-1.2l-0.3-0.6l0.4-0.5l0.6-0.3l0.2-0.6l0-0.1l0,0l0,0
			l0,0l0,0l0,0l0.1-0.1l0,0.1l0,0l0.1-0.1l0,0.1l-0.1,0h0l-0.6,0.1l-0.1-0.6l0.2,0.6c-0.8,0.3-0.9,0.5-1,1c0,0.8,0.6,1.7,2.1,2.7
			l-0.3,0.5l0.3-0.5c1.7,1,3.6,1.5,6,1.5c3.1,0,5.4-0.6,6.8-1.8c1.4-1.2,2.1-2.9,2.1-5.3v-16.6c0-0.6,0.1-1,0.3-1.4
			c0.2-0.4,0.7-0.7,1.1-0.7c0.6,0,1.1,0.3,1.4,0.8c0.3,0.5,0.4,1.1,0.4,1.8h-0.6v-0.6h0.7v0.6h-0.6c0-0.8-0.3-1.4-1.1-2
			c-0.8-0.6-1.7-1-2.7-1c-0.3,0-0.5,0.1-0.9,0.8c-0.3,0.6-0.5,1.7-0.7,3.1l-0.5,0.6l-0.7-0.4L180.2,2039.7l-0.6-0.1
			c0.1-1.5,0.4-2.7,0.8-3.5c0.4-0.8,1.1-1.5,2-1.5c1.3,0,2.5,0.4,3.5,1.2c1,0.8,1.6,1.9,1.6,3l-0.2,0.4l-0.4,0.2h-0.7l-0.4-0.2
			l-0.2-0.4c0-0.6-0.1-1-0.2-1.1l-0.3-0.2h0l-0.1,0.2c0,0.1-0.1,0.4-0.1,0.7v16.6c0,2.7-0.8,4.9-2.6,6.3c-1.8,1.4-4.3,2.1-7.6,2.1
			c-2.5,0-4.7-0.5-6.6-1.7l0,0c-1.6-1.1-2.6-2.3-2.6-3.7c0-1.1,0.8-1.9,1.8-2.2l0.1,0c0.4-0.1,0.6-0.1,0.8-0.1l1,0.4l0.3,1
			c0,0.5-0.1,1-0.4,1.3c-0.3,0.4-0.7,0.6-1.2,0.7l-0.2-0.6l0.3-0.5c0.5,0.3,1.3,0.7,2.5,1.1l-0.2,0.6l0.2-0.6
			c1.4,0.4,2.7,0.6,3.8,0.6c1.6,0,2.8-0.3,3.8-1h0c0.9-0.6,1.3-1.4,1.4-2.6v-4.4h0.6l0.2,0.6c-1.4,0.5-2.6,0.8-3.6,0.8h0l-1.1,0h0
			l-0.8,0c-0.4,0-0.8,0-1.2-0.1h0c-2.9-0.5-5.5-1.7-7.5-3.5c-2-1.8-3.1-4.1-3.1-6.6c0-2.5,0.9-4.7,2.7-6.3h0c1.8-1.6,4.1-2.4,7-2.4
			c3.9,0,6.8,1.7,8.3,5.1L180.2,2039.7l-0.6-0.1L180.2,2039.7L180.2,2039.7z"/>
		<path id="path246" inkscape:connector-curvature="0" class="st0" d="M195.2,2038.1c0-0.7,0.3-1,0.9-1.2c0.1,0,0.6,0,1.7,0v-0.9
			c-1-0.1-2.5-0.1-4.5-0.3c-1.9-0.1-3.4-0.3-4.4-0.3v0.9c0.8,0,1.2,0,1.4,0c0.4,0.2,0.6,0.5,0.6,1.1v22.5c0,0.7-0.3,1.1-1,1.1
			c-0.6,0.4-1,0.7-1,1c2.4,0.2,4.4,0.4,5.9,0.6v-7.1c1.5,4.9,4.3,7.3,8.4,7.3c1.8,0,2.6-0.6,2.6-1.9c0-0.6-0.3-1.1-0.9-1.7
			c-0.6-0.5-1.1-0.7-1.8-0.7c-0.5,0-0.8,0.2-0.8,0.6c0,0.4,0.2,0.8,0.6,1.1l-0.4,0h-0.4c-2.5,0-4.4-1.8-5.7-5.4
			c-1-2.6-1.5-5.5-1.5-8.5V2038.1L195.2,2038.1z"/>
		<path id="path250" inkscape:connector-curvature="0" class="st0" d="M195.2,2038.1H195c0-0.7,0.4-1.3,1.1-1.4l0,0.2l-0.1-0.2
			l0.5,0c0.3,0,0.7,0,1.2,0v0.2h-0.2v-0.9h0.2l0,0.2c-1-0.1-2.5-0.1-4.5-0.3h0c-1.9-0.1-3.4-0.3-4.4-0.3l0-0.2h0.2v0.9H189v-0.2
			c0.8,0,1.2,0,1.5,0l0.1,0c0.5,0.2,0.7,0.7,0.7,1.3v22.5c0,0.4-0.1,0.7-0.3,1c-0.2,0.2-0.5,0.4-0.9,0.4v-0.2l0.1,0.2
			c-0.6,0.3-0.9,0.7-0.9,0.8h-0.2l0-0.2c2.4,0.2,4.4,0.4,6,0.6l0,0.2h-0.2v-7.1l0.2-0.2l0.2,0.2c1.5,4.8,4.2,7.1,8.2,7.1
			c1.7,0,2.4-0.5,2.4-1.7c0-0.5-0.2-1-0.8-1.5c-0.6-0.5-1.1-0.7-1.6-0.7c-0.5,0-0.5,0.1-0.6,0.4c0,0.4,0.1,0.6,0.5,0.9l0.1,0.2
			l-0.2,0.2l-0.4,0h0h-0.4c-2.6,0-4.6-1.9-5.9-5.5l0.2-0.1l-0.2,0.1c-1-2.7-1.5-5.5-1.5-8.6v-8.3L195.2,2038.1l0.2,0v8.3
			c0,3,0.5,5.8,1.5,8.4h0c1.3,3.5,3.1,5.2,5.5,5.2h0.4l0.4,0l0,0.2l-0.1,0.2c-0.5-0.3-0.7-0.8-0.7-1.3l0.3-0.6l0.7-0.2
			c0.7,0,1.3,0.2,1.9,0.8c0.6,0.5,1,1.1,1,1.8c0,0.7-0.3,1.2-0.8,1.6c-0.5,0.4-1.2,0.5-2.1,0.5c-4.2,0-7.1-2.5-8.6-7.4l0.2-0.1h0.2
			v7.1l-0.1,0.2l-0.2,0c-1.5-0.3-3.5-0.5-5.9-0.6l-0.2-0.2c0-0.5,0.5-0.8,1.1-1.2l0.1,0c0.6,0,0.7-0.2,0.8-0.9v-22.5
			c0-0.5-0.2-0.8-0.5-0.9l0.1-0.2l0,0.2c-0.2,0-0.6,0-1.4,0l-0.2-0.1l-0.1-0.2v-0.9l0.1-0.2l0.2-0.1c1,0,2.5,0.1,4.4,0.3h0
			c2,0.1,3.5,0.2,4.5,0.3l0.2,0.2v0.9l-0.1,0.2l-0.2,0.1c-0.5,0-0.9,0-1.2,0l-0.3,0l-0.1,0l0,0v0l0,0l0,0v0l0,0
			c-0.6,0.1-0.7,0.3-0.8,0.9L195.2,2038.1L195.2,2038.1z"/>
		<path id="path254" inkscape:connector-curvature="0" class="st0" d="M210.6,2048.7c3.2,1.2,8.1,3.1,14.6,5.6c-0.7,4-2.6,6.1-6,6.1
			c-2.8,0-4.8-1-6.4-2.9c-1.5-1.9-2.2-4.6-2.2-8V2048.7z M229.9,2039.9c-2.6-3.3-6.1-4.9-10.7-4.9c-3.6,0-6.8,1.4-9.3,4
			c-2.5,2.7-3.8,6-3.8,9.9c0,3.9,1.2,7.3,3.7,9.9c2.5,2.7,5.6,4,9.3,4c3.1,0,5.6-1,7.7-2.9c2-1.8,3.2-4.1,3.5-6.9l-19.6-6.7
			c0.5-2.3,1.2-4.1,2.3-5.5c1.7-2.2,4-3.3,6.8-3.3c3.5,0,6.6,1.6,9.3,4.7c0.1-0.3,0.2-0.7,0.3-1.2
			C229.7,2040.5,229.8,2040.1,229.9,2039.9"/>
		<path id="path258" inkscape:connector-curvature="0" class="st0" d="M210.6,2048.7l0.2-0.6c3.2,1.2,8.1,3.1,14.6,5.6l0.4,0.7
			c-0.3,2.1-1,3.7-2.2,4.9c-1.1,1.1-2.7,1.7-4.5,1.7c-2.9,0-5.2-1.1-6.8-3.2h0c-1.6-2.1-2.3-4.9-2.3-8.4v-0.8l0.3-0.5l0.6-0.1
			L210.6,2048.7l0.6,0v0.8c0,3.3,0.7,5.8,2.1,7.6h0c1.4,1.8,3.2,2.7,5.9,2.7c1.6,0,2.7-0.4,3.6-1.3c0.9-0.9,1.5-2.3,1.8-4.2l0.6,0.1
			l-0.2,0.6c-6.5-2.5-11.4-4.4-14.6-5.6L210.6,2048.7l0.6,0L210.6,2048.7L210.6,2048.7z M229.9,2039.9l-0.5,0.4
			c-2.5-3.1-5.8-4.6-10.2-4.7c-3.5,0-6.4,1.3-8.8,3.8c-2.4,2.6-3.6,5.7-3.6,9.5c0,3.8,1.2,7,3.5,9.5c2.4,2.5,5.3,3.8,8.9,3.8
			c2.9,0,5.3-0.9,7.3-2.7c1.9-1.7,3-3.9,3.3-6.6l0.6,0.1l-0.2,0.6l-19.6-6.7l-0.4-0.7c0.5-2.3,1.3-4.3,2.5-5.8l0,0
			c1.8-2.3,4.4-3.5,7.3-3.5c3.7,0,7,1.7,9.8,4.9l-0.5,0.4l-0.6-0.3c0.1-0.2,0.2-0.5,0.3-1l0,0c0.1-0.5,0.2-0.9,0.4-1.3L229.9,2039.9
			l-0.5,0.4L229.9,2039.9l0.5,0.3c0,0.1-0.2,0.5-0.3,1l-0.6-0.1l0.6,0.1c-0.1,0.6-0.2,1-0.4,1.4l-0.5,0.3l-0.5-0.2
			c-2.6-3.1-5.5-4.5-8.8-4.5c-2.6,0-4.7,1-6.3,3l-0.5-0.4l0.5,0.4c-1.1,1.3-1.8,3.1-2.2,5.3l-0.6-0.1l0.2-0.6l19.6,6.7l0.4,0.7
			c-0.4,2.9-1.6,5.4-3.7,7.3c-2.2,2-5,3.1-8.1,3.1c-3.9,0-7.2-1.4-9.8-4.2c-2.6-2.8-3.9-6.3-3.9-10.4c0-4,1.3-7.5,3.9-10.3
			c2.6-2.8,5.9-4.2,9.7-4.2c4.7,0,8.5,1.7,11.2,5.1l0,0.7L229.9,2039.9L229.9,2039.9z"/>
		<path id="path262" inkscape:connector-curvature="0" class="st0" d="M256.1,2038.1c0-0.8,0.4-1.2,1.2-1.2h0.7l0.1-0.9
			c-2.7-0.1-4.7-0.4-6.1-0.6v18.4c0,4.3-1.9,6.4-5.6,6.4c-2,0-3.8-0.8-5.2-2.5c-1.4-1.6-2.1-3.6-2.1-6v-13.7c0-0.8,0.4-1.2,1.3-1.2
			h0.8v-0.9c-0.9-0.1-2.3-0.1-4.1-0.3c-1.8-0.1-3.2-0.3-4.1-0.3v0.9h0.7c0.8,0,1.2,0.4,1.2,1.1v22.4c0,0.7-0.3,1.1-0.9,1.1
			c-0.6,0.3-1,0.7-1,1c0.3,0.1,0.8,0.1,1.5,0.2c0.6,0.1,1.1,0.1,1.4,0.1c1,0.1,1.9,0.2,3,0.3v-4.9c2.2,3.4,5,5.1,8.5,5.1
			c2.8,0,5-0.9,6.6-2.6c1.6-1.7,2.3-4.2,2.3-7.3L256.1,2038.1L256.1,2038.1z"/>
		<path id="path266" inkscape:connector-curvature="0" class="st0" d="M256.1,2038.1h-0.6c0-0.5,0.1-1,0.5-1.3
			c0.4-0.3,0.8-0.5,1.3-0.5h0.1l0-0.3l0.6,0l0,0.6c-2.7-0.1-4.8-0.4-6.2-0.6l0.1-0.6h0.6v18.4c0,2.2-0.5,4-1.6,5.2
			c-1.1,1.2-2.7,1.8-4.7,1.8c-2.2,0-4.2-0.9-5.7-2.7h0c-1.5-1.7-2.3-3.9-2.3-6.4v-13.7c0-0.5,0.1-1,0.5-1.4c0.4-0.3,0.9-0.4,1.4-0.4
			h0.2v-0.3h0.6l0,0.6c-0.9-0.1-2.3-0.1-4.1-0.3l0,0c-1.8-0.1-3.2-0.3-4.1-0.3l0-0.6h0.6v0.3h0.1c0.5,0,1,0.1,1.3,0.5
			c0.4,0.3,0.5,0.8,0.5,1.3v22.4c0,0.4-0.1,0.9-0.4,1.2c-0.3,0.4-0.7,0.5-1.2,0.5v-0.6l0.3,0.6l-0.6,0.4l-0.1,0.1l-0.1,0h0.1l0,0
			l-0.1,0h0.1h-0.6l0.1-0.6c0.3,0.1,0.8,0.1,1.4,0.2h0c0.6,0.1,1.1,0.1,1.3,0.1l0,0c1,0.1,2,0.2,3,0.3l-0.1,0.6h-0.6v-4.9l0.4-0.6
			l0.7,0.3c2.1,3.3,4.7,4.8,7.9,4.8c2.7,0,4.7-0.8,6.1-2.4h0c1.4-1.6,2.2-3.8,2.2-6.9v-14.8L256.1,2038.1l0.6,0v14.8
			c0,3.3-0.8,5.9-2.5,7.8h0c-1.7,1.9-4.1,2.8-7,2.8c-3.6,0-6.7-1.8-9-5.4l0.5-0.3h0.6v4.9l-0.2,0.5l-0.5,0.1c-1-0.2-1.9-0.3-2.9-0.3
			l0-0.6v0.6c-0.3,0-0.8,0-1.5-0.1l0.1-0.6l-0.1,0.6c-0.7-0.1-1.2-0.1-1.5-0.2l-0.5-0.6c0-0.4,0.2-0.7,0.4-0.9
			c0.2-0.2,0.5-0.4,0.9-0.6l0.3-0.1l0.2-0.1l0.1-0.4v-22.4l-0.1-0.4l-0.5-0.1h-0.7l-0.4-0.2l-0.2-0.4v-0.9l0.2-0.4l0.4-0.2
			c0.9,0,2.3,0.1,4.1,0.3h0c1.8,0.1,3.1,0.2,4.1,0.3l0.6,0.6v0.9l-0.2,0.4l-0.4,0.2h-0.8c-0.4,0-0.5,0.1-0.6,0.1l-0.1,0.4v13.7
			c0,2.2,0.7,4,2,5.6l0,0c1.3,1.5,2.9,2.3,4.7,2.3c1.8,0,3-0.5,3.8-1.4c0.8-0.9,1.3-2.4,1.3-4.4v-18.4l0.2-0.5l0.5-0.1
			c1.4,0.2,3.4,0.4,6.1,0.5l0.4,0.2l0.2,0.5l-0.1,0.9l-0.6,0.6h-0.7l-0.5,0.1l-0.1,0.5L256.1,2038.1L256.1,2038.1z"/>
		<path id="path270" inkscape:connector-curvature="0" class="st0" d="M267.2,2041.9c0-1.6,0.3-2.7,0.9-3.4c0.6-0.6,1.7-1,3.2-1
			c1.2,0,2.2,1.2,3.1,3.7l0.8-1.5c-0.3-0.8-0.7-1.5-1.2-2.1c-1-1.5-2.3-2.3-3.7-2.5c-0.4,0-0.8-0.1-1.2-0.1c-2,0-3.5,0.7-4.5,2
			c-1.1,1.3-1.6,3.1-1.6,5.3v17.3h-3.8l0.4,2.5c1.9,0,3.2,0.6,4,1.7c0.6,0.5,1.1,1.6,1.6,3.3c0.5,2.1,0.9,3.2,0.9,3.4h0.9v-8.4h7.5
			v-2.5h-7.5L267.2,2041.9L267.2,2041.9z"/>
		<path id="path274" inkscape:connector-curvature="0" class="st0" d="M267.2,2041.9h-0.6c0-1.7,0.3-2.9,1.1-3.8l0,0
			c0.8-0.8,2-1.1,3.7-1.1c0.8,0,1.6,0.4,2.1,1.1c0.6,0.7,1.1,1.7,1.5,2.9l-0.6,0.2l-0.5-0.3l0.8-1.5l0.5,0.3l-0.6,0.2
			c-0.3-0.8-0.7-1.4-1.1-2l0.5-0.4l-0.5,0.4c-1-1.4-2-2-3.3-2.2l0.1-0.6l0,0.6c-0.4,0-0.8-0.1-1.1-0.1c-1.8,0-3.1,0.6-4.1,1.8h0
			c-1,1.2-1.5,2.8-1.5,4.9v17.3l-0.2,0.4l-0.4,0.2h-3l0.3,1.8l-0.6,0.1v-0.6c2,0,3.6,0.6,4.5,2l-0.5,0.4l0.4-0.5
			c0.8,0.7,1.3,1.8,1.9,3.7l0,0c0.3,1,0.5,1.8,0.6,2.4l0.2,0.7l0.1,0.2l0,0l-0.2,0.1l0.2-0.1l0,0l-0.2,0.1l0.2-0.1l-0.5,0.3v-0.6
			h0.3v-7.8l0.2-0.4l0.4-0.2h6.9v-1.3h-6.9l-0.4-0.2l-0.2-0.4v-17.8L267.2,2041.9l0.6,0v17.2h6.9l0.4,0.2l0.2,0.4v2.5l-0.2,0.4
			l-0.4,0.2h-6.9v7.8l-0.2,0.4l-0.4,0.2h-0.9l-0.5-0.3l-0.2-0.4c-0.2-0.5-0.5-1.6-0.8-3.1l0.6-0.2l-0.6,0.2c-0.5-1.7-1.1-2.8-1.4-3
			l-0.1-0.1c-0.7-1-1.8-1.5-3.5-1.5l-0.6-0.5l-0.4-2.5l0.1-0.5l0.5-0.2h3.2v-16.7c0-2.3,0.6-4.2,1.8-5.7h0c1.2-1.5,2.9-2.2,5-2.2
			c0.4,0,0.8,0,1.2,0.1h0c1.6,0.2,3,1.1,4.1,2.7l0,0c0.5,0.7,0.9,1.4,1.2,2.2l0,0.5l-0.8,1.5l-0.6,0.3l-0.5-0.4
			c-0.4-1.2-0.9-2-1.3-2.6c-0.4-0.5-0.8-0.7-1.2-0.7c-1.5,0-2.4,0.3-2.8,0.8l-0.4-0.4l0.5,0.4c-0.4,0.5-0.8,1.4-0.8,2.9
			L267.2,2041.9L267.2,2041.9z"/>
		<path id="path278" inkscape:connector-curvature="0" class="st0" d="M280.9,2048.7c3.2,1.2,8.1,3.1,14.6,5.6c-0.6,4-2.6,6.1-6,6.1
			c-2.8,0-4.9-1-6.3-2.9c-1.5-1.9-2.3-4.6-2.3-8C280.9,2049.4,280.9,2048.7,280.9,2048.7z M300.2,2039.9c-2.6-3.3-6.1-4.9-10.7-4.9
			c-3.7,0-6.8,1.4-9.3,4c-2.5,2.7-3.8,6-3.8,9.9c0,3.9,1.2,7.3,3.7,9.9c2.5,2.7,5.6,4,9.4,4c3,0,5.6-1,7.7-2.9
			c2-1.8,3.2-4.1,3.6-6.9l-19.6-6.7c0.5-2.3,1.2-4.1,2.3-5.5c1.7-2.2,4-3.3,6.8-3.3c3.4,0,6.6,1.6,9.3,4.7c0.1-0.3,0.2-0.7,0.3-1.2
			C300,2040.5,300.1,2040.1,300.2,2039.9"/>
		<path id="path282" inkscape:connector-curvature="0" class="st0" d="M280.9,2048.7l0.2-0.6c3.2,1.2,8.1,3.1,14.6,5.6l0.4,0.7
			c-0.3,2.1-1,3.7-2.1,4.9c-1.1,1.1-2.6,1.7-4.4,1.7c-2.9,0-5.3-1.1-6.8-3.2l0.5-0.4l-0.5,0.4c-1.6-2.1-2.4-4.9-2.4-8.4v-0.8
			l0.3-0.5l0.6-0.1L280.9,2048.7h0.6v0.8c0,3.3,0.7,5.8,2.1,7.6l0,0c1.4,1.8,3.2,2.7,5.8,2.7c1.6,0,2.7-0.4,3.6-1.3
			c0.9-0.9,1.5-2.3,1.8-4.2l0.6,0.1l-0.2,0.6c-6.5-2.5-11.3-4.4-14.6-5.6L280.9,2048.7h0.6H280.9z M300.2,2039.9l-0.5,0.4
			c-2.5-3.1-5.8-4.6-10.2-4.7c-3.5,0-6.4,1.3-8.9,3.8c-2.4,2.6-3.6,5.7-3.6,9.5c0,3.8,1.2,7,3.5,9.5c2.4,2.5,5.3,3.8,8.9,3.8
			c2.9,0,5.3-0.9,7.3-2.7h0c1.9-1.7,3-3.9,3.4-6.6l0.6,0.1l-0.2,0.6l-19.6-6.7l-0.4-0.7c0.5-2.3,1.3-4.3,2.5-5.8l0,0
			c1.8-2.3,4.3-3.5,7.3-3.5c3.6,0,7,1.7,9.8,4.9l-0.5,0.4l-0.6-0.2c0.1-0.2,0.2-0.6,0.3-1.1c0.1-0.5,0.2-0.9,0.4-1.4L300.2,2039.9
			l-0.5,0.4L300.2,2039.9l0.5,0.3c0,0-0.2,0.4-0.3,0.9c-0.1,0.5-0.2,0.9-0.3,1.3l-0.5,0.4l-0.6-0.2c-2.7-3.1-5.6-4.5-8.8-4.5
			c-2.6,0-4.7,1-6.3,3l-0.5-0.4l0.5,0.4c-1,1.4-1.8,3.1-2.2,5.3l-0.6-0.1l0.2-0.6l19.6,6.7l0.4,0.7c-0.4,2.9-1.6,5.4-3.8,7.3h0
			c-2.2,2-5,3.1-8.1,3.1c-3.9,0-7.2-1.4-9.8-4.2c-2.6-2.8-3.9-6.3-3.9-10.4c0-4,1.3-7.5,3.9-10.3c2.6-2.8,5.9-4.2,9.8-4.2
			c4.7,0,8.5,1.7,11.2,5.1l0,0.7L300.2,2039.9L300.2,2039.9z"/>
		<path id="path286" inkscape:connector-curvature="0" class="st0" d="M322.4,2043.5c0-2.6-0.9-4.6-2.7-6.2
			c-1.8-1.6-4.2-2.3-7.2-2.3c-3.1,0-5.9,1.1-8.3,3.2c-0.4,0-0.7-0.3-0.7-0.9h-0.8v4.7c0.2,0.1,0.6,0.3,1,0.6c0.4,0.2,0.8,0.4,1,0.5
			c1.6-3.7,4.2-5.5,8.1-5.5c1.7,0,3.1,0.5,4.3,1.3c1.2,0.9,1.8,2,1.8,3.3c0,1.5-0.6,2.7-1.7,3.4c-1.1,0.8-2.9,1.5-5.4,2
			c-5.7,1.2-8.5,3.7-8.5,7.7c0,2.2,0.9,4,2.7,5.5c1.8,1.4,3.9,2.1,6.4,2.1c1.5,0,3.2-0.3,4.8-0.9c1.3-0.5,2.3-1.1,3-1.7
			c0.3,0,0.5,0.2,0.6,0.7h0.8v-4c-0.6-0.4-1.2-0.8-1.8-1.3c-1.4,3.1-3.9,4.6-7.4,4.6c-1.8,0-3.1-0.4-4-1.1c-0.9-0.7-1.4-1.7-1.4-3
			c0-1.2,0.5-2.1,1.4-2.8c1-0.7,2.6-1.4,5-1.9c3.4-0.8,5.8-1.8,7.1-3C321.7,2047.2,322.4,2045.5,322.4,2043.5"/>
		<path id="path290" inkscape:connector-curvature="0" class="st0" d="M322.4,2043.5h-0.6c0-2.4-0.8-4.2-2.5-5.7h0
			c-1.7-1.5-3.9-2.2-6.8-2.2c-3,0-5.6,1-7.9,3l-0.4,0.1c-0.4,0-0.8-0.2-1-0.4c-0.2-0.3-0.3-0.6-0.4-1l0.6-0.1v0.6h-0.2v4.1h-0.6
			l0.4-0.5c0.1,0.1,0.5,0.3,0.9,0.5l0,0c0.4,0.2,0.7,0.3,1,0.5l-0.3,0.5l-0.6-0.2c1.6-3.9,4.6-5.9,8.6-5.9c1.8,0,3.4,0.5,4.7,1.5h0
			c1.3,1,2,2.3,2,3.8c0,1.7-0.7,3.1-1.9,4l-0.4-0.5l0.4,0.5c-1.2,0.9-3.1,1.6-5.6,2.1c-2.8,0.6-4.8,1.5-6.1,2.7
			c-1.3,1.2-1.9,2.6-1.9,4.4c0,2,0.8,3.6,2.4,5l0,0c1.7,1.3,3.6,2,6,2c1.5,0,3-0.3,4.6-0.9l0.2,0.6l-0.2-0.6c1.3-0.5,2.2-1,2.9-1.6
			l0.4-0.1l0.9,0.4l0.4,0.8l-0.6,0.1v-0.6h0.2v-3.4h0.6l-0.4,0.5c-0.6-0.4-1.2-0.8-1.8-1.2l0.4-0.5l0.6,0.3c-1.5,3.3-4.3,5-7.9,5
			c-1.8,0-3.3-0.4-4.4-1.3l0,0c-1.1-0.8-1.6-2.1-1.6-3.5c0-1.3,0.6-2.5,1.6-3.3l0,0c1.1-0.8,2.8-1.5,5.3-2l0.1,0.6l-0.1-0.6
			c3.4-0.8,5.6-1.8,6.9-2.9l0.4,0.5l-0.4-0.4c1.2-1.2,1.8-2.6,1.8-4.5L322.4,2043.5l0.6,0c0,2.1-0.7,4-2.2,5.4l0,0
			c-1.5,1.4-4,2.4-7.4,3.2l0,0c-2.4,0.5-4,1.1-4.8,1.8l-0.4-0.5l0.4,0.5c-0.8,0.7-1.2,1.4-1.2,2.4c0,1.1,0.4,1.9,1.1,2.5l-0.4,0.5
			l0.4-0.5c0.8,0.6,2,1,3.7,1c3.3,0,5.5-1.4,6.8-4.3l0.4-0.3l0.5,0.1c0.6,0.4,1.2,0.8,1.8,1.3l0.2,0.5v4l-0.2,0.4l-0.4,0.2h-0.8
			l-0.6-0.5l-0.1-0.2l0.1-0.1v0.1l-0.1,0l0.1-0.1v0.1v-0.6l0.4,0.5c-0.8,0.6-1.8,1.2-3.2,1.8h0c-1.7,0.6-3.4,1-5,1
			c-2.6,0-4.9-0.7-6.7-2.3h0c-1.9-1.5-2.9-3.6-2.9-5.9c0-2.1,0.8-4,2.3-5.3c1.5-1.4,3.8-2.3,6.7-2.9c2.4-0.5,4.2-1.1,5.1-1.9l0,0
			c1-0.7,1.4-1.6,1.4-2.9c0-1.1-0.5-2-1.5-2.8h0c-1.1-0.8-2.3-1.2-3.9-1.2c-3.6,0-6,1.7-7.5,5.2l-0.4,0.3l-0.5-0.1
			c-0.1-0.1-0.5-0.2-0.9-0.4l0.3-0.6l-0.3,0.6c-0.5-0.2-0.8-0.4-1.1-0.6l-0.3-0.5v-4.7l0.2-0.4l0.4-0.2h0.8l0.6,0.6l0.1,0.3l0,0l0,0
			h0l0,0l0,0h0v0.6l-0.4-0.5c2.5-2.2,5.5-3.3,8.7-3.3c3.1,0,5.7,0.8,7.6,2.5h0c2,1.7,3,3.9,3,6.7L322.4,2043.5L322.4,2043.5z"/>
		<path id="path294" inkscape:connector-curvature="0" class="st0" d="M85.3,2095.9c0,0.4,0.1,0.8,0.1,1.3c0.5,2.5,2.4,5,4.9,6.6
			c7.8,4.8,14.3,3.4,15.2,2.8l0-0.3c-0.9-2.2-9-9.4-19.4-13.1C85.7,2093.9,85.3,2094.9,85.3,2095.9 M112.3,2109
			c-1,1.1-3.6,2.3-7.1,2.8c-3.5,0.6-10.5,1-18.2-3c-8-4.1-13.2-11.7-10.8-18.9c0,0-6.7-2.5-11.8-1.5c-2.7,0.6-5.3,2.6-6.1,5.2
			c-1.3,4.2-0.2,11.3,6.9,17.8c9.4,8.6,23.5,11.6,29.5,12.9c2.7,0.6,3.1,0.7,3.2,1.1c0.1,0.2,0.2,0.8-0.4,1.4c-0.8,1-3.2,2-9.9,1.3
			c-6.9-0.7-16.3-3.5-19.1-4.4c2,4,7.9,14.8,9,16.8c1.7,3.3,2.4,4.7,2.4,5.5l-0.2,0.5c-1,0.9-6.6-2.1-10.9-7.2
			c-4.3-5.1-6.6-9.2-10-14.5c-3.8-6-15.6-9-21.2-10.5c-1.5-0.4-2-0.5-2.2-0.7l-0.2-0.8c0.5-1.7,3.4-3.5,6.4-3.6
			c2.2-0.1,4.8,0.2,8.8,1.4c-2.2-3.4-5.8-11-5.8-18.2c0-5.6,2.6-12.2,13.5-13.2c8.6-0.8,16.9,2.2,22.8,4.5
			c6.6-5.2,15.6-4.9,15.6-4.9c23.1,0,33.8,18.5,35.8,21.9c0,0,2.1-6.9,6.1-12.4c5.5-7.6,13.2-10,21-9.3c9.3,0.9,15.3,8.1,15.9,9.4
			c0.3,0.7,0,1.4-1.7,0.5c-1.5-0.8-3-1.9-6.9-2.6c-17.3-3.3-22.4,14.7-26.2,22.4c-0.5,1.1-1,1.9-1.4,2.1c-1.1,0.4-9.2-1-10.1-2.7
			c-9.1-16.9-20.8-20.6-29.8-20.7c-3-0.1-5.5,0.6-7.5,1.6c3.5,1.7,6,3.1,8.5,4.7c9.3,6.2,12.7,12.8,12.7,14.9L112.3,2109"/>
		<path id="path298" inkscape:connector-curvature="0" class="st0" d="M189.2,2097.3h2.4h2.4c2.9,0.1,5.1,0.8,6.5,2.2
			c1.4,1.4,2,3.6,2,6.6c0,2.6-0.7,4.7-2.2,6.3c-1.4,1.5-3.4,2.3-5.9,2.3c-2.8,0-4.6-0.7-5.3-2L189.2,2097.3L189.2,2097.3z
			 M189.2,2094.6v-12c0-1.2,0.6-1.7,1.6-1.7h1.1v-1.3h-9.7v0.9h1c1,0,1.5,0.6,1.5,1.8v32.2c0,1.2-0.5,1.8-1.4,1.8h-1v0.9h12
			c4.2,0,7.4-1,9.7-2.9c2.3-2,3.5-4.7,3.5-8.3c0-3.6-1.1-6.4-3.4-8.4c-2.3-2-5.4-3-9.4-3C194.8,2094.6,189.2,2094.6,189.2,2094.6z"
			/>
		<path id="path302" inkscape:connector-curvature="0" class="st0" d="M189.2,2097.3v-0.6h2.4h2.4h0c3,0.1,5.4,0.8,6.9,2.3l0,0
			c1.6,1.5,2.2,3.9,2.2,7c0,2.7-0.7,5-2.3,6.7h0c-1.5,1.7-3.7,2.5-6.4,2.5c-2.9,0-4.9-0.7-5.8-2.4l-0.1-0.3v-15.3l0.2-0.4l0.4-0.2
			L189.2,2097.3l0.6,0v15.3h-0.6l0.6-0.3c0.5,1,2,1.7,4.7,1.7c2.4,0,4.2-0.7,5.4-2.1h0c1.4-1.4,2-3.4,2-5.9c0-2.9-0.7-4.9-1.9-6.1
			l0.4-0.4l-0.4,0.4c-1.2-1.2-3.3-1.9-6.1-2l0-0.6v0.6h-2.4h-2.4V2097.3l0.6,0L189.2,2097.3L189.2,2097.3z M189.2,2094.6h-0.6v-12
			c0-0.7,0.2-1.3,0.6-1.7c0.4-0.4,1-0.6,1.7-0.6h0.5v0h-8.5v0.3h-0.6v-0.6h1c0.6,0,1.2,0.2,1.6,0.7c0.4,0.5,0.5,1.1,0.5,1.7v32.2
			c0,0.7-0.1,1.3-0.5,1.7c-0.4,0.5-0.9,0.7-1.5,0.7H183v0.3h-0.6v-0.6h12c4.1,0,7.2-1,9.3-2.8l0,0c2.2-1.8,3.2-4.3,3.3-7.8
			c0-3.5-1.1-6.1-3.2-8h0c-2.1-1.9-5.1-2.8-9-2.8h-5.6l-0.4-0.2l-0.2-0.4L189.2,2094.6v-0.6h5.6c4.1,0,7.4,1,9.8,3.1h0
			c2.4,2.1,3.6,5.2,3.6,8.9c0,3.7-1.2,6.7-3.7,8.8h0c-2.4,2.1-5.8,3.1-10.1,3.1h-12l-0.4-0.2l-0.2-0.4v-0.9l0.2-0.4l0.4-0.2h1
			l0.5-0.2c0.1-0.1,0.2-0.5,0.2-1v-32.2c0-0.5-0.1-0.8-0.2-0.9c-0.1-0.1-0.3-0.2-0.7-0.2h-1l-0.4-0.2l-0.2-0.4v-0.9l0.2-0.4l0.4-0.2
			h9.7l0.4,0.2l0.2,0.4v1.3l-0.2,0.4l-0.4,0.2h-1.1c-0.4,0-0.6,0.1-0.7,0.2c-0.1,0.1-0.2,0.4-0.2,0.9v12L189.2,2094.6v-0.6V2094.6
			L189.2,2094.6z"/>
		<path id="path306" inkscape:connector-curvature="0" class="st0" d="M232,2093c0,3.5-0.8,6.3-2.5,8.3c-1.6,2.1-3.8,3.1-6.7,3.1
			c-2.9,0-5.1-1.1-6.7-3.1c-1.6-2.1-2.4-4.9-2.4-8.3c0-3.5,0.8-6.3,2.4-8.3c1.6-2,3.8-3.1,6.7-3.1c2.8,0,5.1,1,6.7,3.1
			C231.2,2086.7,232,2089.4,232,2093 M236.5,2093c0-3.9-1.3-7.2-3.9-9.9c-2.6-2.7-5.9-4-9.7-4c-3.8,0-7,1.3-9.7,4
			c-2.6,2.7-4,6-4,9.9c0,3.9,1.4,7.2,4,9.9c2.6,2.7,5.9,4,9.7,4c3.8,0,7.1-1.3,9.7-4C235.2,2100.1,236.5,2096.8,236.5,2093"/>
		<path id="path310" inkscape:connector-curvature="0" class="st0" d="M232,2093h0.6c0,3.6-0.8,6.5-2.6,8.7l-0.5-0.4l0.5,0.4
			c-1.7,2.2-4.2,3.4-7.2,3.3c-3,0-5.5-1.1-7.2-3.3c-1.7-2.2-2.6-5.1-2.6-8.7c0-3.6,0.9-6.5,2.6-8.7h0c1.7-2.2,4.2-3.3,7.2-3.3
			c3,0,5.5,1.1,7.2,3.3l-0.5,0.4l0.5-0.4c1.8,2.2,2.6,5.1,2.6,8.7L232,2093l-0.6,0c0-3.4-0.8-6-2.3-8l0,0c-1.5-1.9-3.5-2.8-6.2-2.8
			c-2.7,0-4.7,0.9-6.2,2.8h0c-1.5,2-2.3,4.5-2.3,8c0,3.4,0.8,6,2.3,7.9c1.5,1.9,3.5,2.9,6.2,2.9c2.7,0,4.7-1,6.2-2.9l0,0
			c1.6-1.9,2.3-4.6,2.3-7.9L232,2093L232,2093z M236.5,2093h-0.6c0-3.8-1.2-6.9-3.8-9.5c-2.5-2.6-5.6-3.8-9.2-3.8
			c-3.7,0-6.7,1.3-9.2,3.8h0c-2.5,2.6-3.8,5.7-3.8,9.5c0,3.7,1.3,6.8,3.8,9.4c2.5,2.6,5.6,3.8,9.2,3.9c3.7,0,6.8-1.3,9.3-3.9h0
			c2.5-2.6,3.7-5.7,3.7-9.4L236.5,2093l0.6,0c0,4-1.3,7.5-4.1,10.3h0c-2.7,2.8-6.2,4.2-10.2,4.2c-4,0-7.4-1.4-10.1-4.2
			c-2.7-2.8-4.2-6.3-4.2-10.3c0-4,1.4-7.5,4.2-10.3h0c2.7-2.8,6.2-4.2,10.1-4.2c3.9,0,7.4,1.4,10.1,4.2c2.8,2.8,4.1,6.3,4.1,10.3
			L236.5,2093L236.5,2093z"/>
		<path id="path314" inkscape:connector-curvature="0" class="st0" d="M240.8,2115.2c0,0.4,0.4,0.9,1.1,1.7c0.8,0.8,1.3,1.2,1.7,1.2
			c0.4,0,0.9-0.4,1.7-1.2c0.7-0.8,1.1-1.4,1.1-1.7c0-0.4-0.4-0.9-1.1-1.7c-0.7-0.8-1.3-1.2-1.7-1.2c-0.4,0-0.9,0.4-1.7,1.2
			C241.2,2114.2,240.8,2114.8,240.8,2115.2 M246.1,2082.2c0-0.8,0.4-1.2,1.3-1.2h0.7l0.1-0.9c-0.9-0.1-2.3-0.1-4.2-0.3
			c-1.8-0.1-3.2-0.2-4.2-0.3v0.9h0.7c0.8,0,1.3,0.4,1.3,1.1v22.2c0,0.7-0.3,1.1-1,1.1c-0.7,0.3-1,0.6-1,1c1.4,0.2,3.4,0.4,6.2,0.8
			V2082.2z"/>
		<path id="path318" inkscape:connector-curvature="0" class="st0" d="M241,2115.2c0,0.2,0.3,0.8,1,1.6l-0.2,0.2l0.2-0.2
			c0.8,0.8,1.3,1.2,1.5,1.1c0.2,0,0.8-0.3,1.5-1.1c0.7-0.8,1.1-1.4,1.1-1.6c0-0.2-0.3-0.8-1.1-1.6h0c-0.7-0.8-1.3-1.2-1.5-1.1
			c-0.2,0-0.8,0.3-1.5,1.1C241.4,2114.4,241,2114.9,241,2115.2l-0.2,0.2l-0.2-0.2c0-0.5,0.4-1.1,1.2-1.9c0.8-0.8,1.4-1.3,1.9-1.3
			c0.5,0,1,0.5,1.8,1.3l-0.2,0.1l0.2-0.2c0.7,0.8,1.2,1.4,1.2,1.9c0,0.5-0.4,1.1-1.2,1.9c-0.8,0.8-1.3,1.3-1.8,1.3
			c-0.5,0-1.1-0.5-1.9-1.3h0c-0.8-0.8-1.2-1.4-1.2-1.9l0.2-0.2L241,2115.2L241,2115.2z M246.1,2082.2h-0.2c0-0.4,0.1-0.8,0.4-1.1
			c0.3-0.3,0.7-0.4,1.1-0.4h0.5l0-0.7l0.2,0l0,0.2c-0.9-0.1-2.3-0.1-4.2-0.3c-1.8-0.1-3.2-0.2-4.2-0.3l0-0.2h0.2v0.7h0.5
			c0.5,0,0.8,0.1,1.1,0.3s0.4,0.6,0.4,1v22.2c0,0.4-0.1,0.7-0.3,1c-0.2,0.2-0.6,0.3-1,0.3v-0.2l0.1,0.2c-0.7,0.3-0.9,0.6-0.9,0.8
			h-0.2l0-0.2c1.4,0.2,3.4,0.4,6.2,0.8l0,0.2h-0.2v-24.5L246.1,2082.2l0.2,0v24.5l-0.1,0.2l-0.2,0.1c-2.8-0.4-4.8-0.7-6.2-0.8
			l-0.2-0.2c0-0.5,0.4-0.9,1.1-1.2l0.1,0c0.6,0,0.8-0.2,0.8-0.8v-22.2c0-0.6-0.3-0.9-1.1-0.9h-0.7l-0.2-0.1l-0.1-0.2v-0.9l0.1-0.2
			l0.2-0.1c1,0,2.3,0.1,4.2,0.3c1.9,0.1,3.3,0.2,4.2,0.3l0.2,0.2l-0.1,0.9l-0.2,0.2h-0.7c-0.8,0-1.1,0.3-1.1,1L246.1,2082.2
			L246.1,2082.2z"/>
		<path id="path322" inkscape:connector-curvature="0" class="st0" d="M258.3,2085.9c0-1.6,0.3-2.7,0.9-3.3c0.6-0.6,1.7-1,3.2-1
			c1.2,0,2.2,1.2,3.1,3.7l0.8-1.5c-0.4-0.8-0.7-1.5-1.2-2.1c-1-1.5-2.2-2.3-3.7-2.5c-0.4,0-0.8-0.1-1.2-0.1c-1.9,0-3.5,0.7-4.5,2
			c-1.1,1.3-1.6,3.1-1.6,5.3v17.3h-3.7l0.4,2.5c1.9,0,3.2,0.6,4.1,1.8c0.6,0.4,1.1,1.5,1.6,3.3c0.5,2.1,0.9,3.2,1,3.4h0.9v-8.4h7.5
			v-2.5h-7.5C258.3,2103.8,258.3,2085.9,258.3,2085.9z"/>
		<path id="path326" inkscape:connector-curvature="0" class="st0" d="M258.3,2085.9h-0.6c0-1.7,0.3-2.9,1.1-3.8l0.4,0.4l-0.5-0.4
			c0.8-0.8,2-1.2,3.6-1.2c0.8,0,1.6,0.4,2.2,1.1c0.6,0.7,1.1,1.7,1.5,2.9l-0.6,0.2l-0.6-0.3l0.8-1.5l0.6,0.3l-0.6,0.3
			c-0.3-0.8-0.7-1.4-1.1-2l0,0c-1-1.4-2-2.1-3.2-2.2l0.1-0.6l0,0.6c-0.4,0-0.8-0.1-1.1-0.1c-1.8,0-3.1,0.6-4.1,1.8h0
			c-1,1.2-1.5,2.8-1.5,4.9v17.3l-0.2,0.4l-0.4,0.2h-3l0.3,1.8l-0.6,0.1v-0.6c2,0,3.6,0.7,4.6,2l-0.5,0.4l0.4-0.5
			c0.8,0.6,1.3,1.8,1.9,3.6l0,0c0.3,1,0.5,1.8,0.6,2.4l0.2,0.6l0.1,0.2l0,0l0,0l0,0h0l0,0l0,0l-0.5,0.3v-0.6h0.2v-7.8l0.2-0.4
			l0.4-0.2h6.9v-1.3h-6.9l-0.4-0.2l-0.2-0.4v-17.8L258.3,2085.9l0.6,0v17.2h6.9l0.4,0.2l0.2,0.4v2.5l-0.2,0.4l-0.4,0.2h-6.9v7.8
			l-0.2,0.4l-0.4,0.2h-0.9l-0.5-0.3c-0.1-0.2-0.2-0.5-0.4-1.1c-0.2-0.6-0.4-1.4-0.7-2.4l0.6-0.2l-0.6,0.2c-0.5-1.8-1-2.7-1.4-3
			l-0.1-0.1c-0.7-1-1.8-1.5-3.6-1.5l-0.6-0.5l-0.4-2.5l0.1-0.5l0.5-0.2h3.1v-16.7c0-2.3,0.6-4.2,1.8-5.7h0c1.2-1.5,2.9-2.2,5-2.2
			c0.4,0,0.8,0,1.2,0.1h0c1.7,0.2,3.1,1.2,4.1,2.7l-0.5,0.3l0.5-0.4c0.5,0.7,0.9,1.4,1.2,2.2l0,0.5l-0.8,1.5l-0.6,0.3l-0.5-0.4
			c-0.4-1.2-0.9-2-1.3-2.6c-0.5-0.5-0.8-0.7-1.2-0.7c-1.4,0-2.3,0.3-2.7,0.8l0,0c-0.4,0.4-0.8,1.4-0.8,2.9L258.3,2085.9
			L258.3,2085.9z"/>
		<path id="path330" inkscape:connector-curvature="0" class="st0" d="M290.2,2093c0,3.5-0.8,6.3-2.5,8.3c-1.6,2.1-3.9,3.1-6.7,3.1
			c-2.8,0-5.1-1.1-6.7-3.1c-1.6-2.1-2.4-4.9-2.4-8.3c0-3.5,0.8-6.3,2.4-8.3c1.6-2,3.9-3.1,6.7-3.1c2.8,0,5.1,1,6.7,3.1
			C289.4,2086.7,290.2,2089.4,290.2,2093 M294.7,2093c0-3.9-1.3-7.2-4-9.9c-2.6-2.7-5.9-4-9.7-4c-3.8,0-7,1.3-9.7,4
			c-2.6,2.7-3.9,6-3.9,9.9c0,3.9,1.3,7.2,3.9,9.9c2.6,2.7,5.8,4,9.7,4c3.9,0,7.1-1.3,9.7-4C293.4,2100.1,294.7,2096.8,294.7,2093"/>
		<path id="path334" inkscape:connector-curvature="0" class="st0" d="M290.2,2093h0.6c0,3.6-0.9,6.5-2.6,8.7
			c-1.7,2.2-4.2,3.4-7.2,3.3c-3,0-5.5-1.1-7.2-3.3h0c-1.7-2.2-2.6-5.1-2.6-8.7c0-3.6,0.8-6.5,2.5-8.7c1.7-2.2,4.2-3.3,7.2-3.3
			c3,0,5.5,1.1,7.2,3.3h0c1.7,2.2,2.6,5.1,2.6,8.7L290.2,2093l-0.6,0c0-3.4-0.8-6-2.3-8h0c-1.5-1.9-3.5-2.8-6.2-2.8
			c-2.7,0-4.7,0.9-6.2,2.8c-1.5,1.9-2.3,4.5-2.3,8c0,3.4,0.8,6,2.3,7.9h0c1.5,1.9,3.5,2.9,6.2,2.9c2.7,0,4.7-1,6.2-2.9
			c1.5-1.9,2.3-4.6,2.3-7.9L290.2,2093L290.2,2093z M294.7,2093h-0.6c0-3.8-1.2-6.9-3.8-9.5h0c-2.5-2.6-5.6-3.8-9.2-3.8
			c-3.7,0-6.7,1.3-9.2,3.8c-2.5,2.6-3.8,5.7-3.8,9.5c0,3.7,1.2,6.8,3.8,9.4h0c2.5,2.6,5.5,3.8,9.2,3.9c3.7,0,6.7-1.3,9.3-3.9h0
			c2.5-2.6,3.8-5.7,3.8-9.4L294.7,2093l0.6,0c0,4-1.4,7.5-4.1,10.3h0c-2.7,2.8-6.1,4.2-10.2,4.2c-4,0-7.4-1.4-10.1-4.2h0
			c-2.8-2.8-4.1-6.3-4.1-10.3c0-4,1.4-7.5,4.1-10.3c2.7-2.8,6.1-4.2,10.1-4.2c3.9,0,7.4,1.4,10.1,4.2h0c2.8,2.8,4.2,6.3,4.2,10.3
			L294.7,2093L294.7,2093z"/>
		<path id="path338" inkscape:connector-curvature="0" class="st0" d="M320.5,2082.1c0-0.8,0.6-1.2,1.9-1.2v-0.9
			c-1.3-0.1-3.3-0.2-5.8-0.4v4.8c-2.2-3.6-5.1-5.4-8.7-5.4c-2.8,0-4.9,0.9-6.4,2.6c-1.5,1.7-2.2,4.3-2.2,7.5v14.6
			c0,0.8-0.4,1.2-1.2,1.1h-0.7v1c0.7,0,1.7,0.1,3,0.2c1.4,0.1,2.4,0.1,3,0.2v-17.9c0-2.4,0.5-4.1,1.3-5.2c0.9-1.1,2.3-1.6,4.3-1.6
			c2.3,0,4.1,0.8,5.3,2.4c1.2,1.6,1.9,4.1,2.2,7.4v12.4c0,0.7-0.5,1.1-1.4,1.1h-0.7v1c1.4,0.1,3.5,0.2,6.3,0.5V2082.1z"/>
		<path id="path342" inkscape:connector-curvature="0" class="st0" d="M320.5,2082.1h-0.6c0-0.6,0.3-1.1,0.8-1.4
			c0.5-0.3,1-0.4,1.7-0.4v0.6h-0.6v-0.9h0.6l-0.1,0.6c-1.3-0.1-3.2-0.2-5.8-0.4l0-0.6h0.6v4.8l-0.5,0.6l-0.7-0.3
			c-2.1-3.4-4.7-5-8.2-5.1c-2.7,0-4.6,0.8-6,2.4l-0.5-0.4l0.5,0.4c-1.4,1.6-2.1,3.9-2.1,7.1v14.6c0,0.4-0.1,0.9-0.4,1.2
			c-0.3,0.3-0.8,0.5-1.2,0.5l-0.3,0l0.1-0.6v0.6h-0.1v0.4h-0.6l0-0.6c0.7,0,1.8,0.1,3,0.2l-0.1,0.6l0-0.6c1.3,0.1,2.4,0.1,3.1,0.2
			l-0.1,0.6h-0.6v-17.9c0-2.5,0.5-4.3,1.4-5.6l0,0c1-1.3,2.7-1.9,4.7-1.9c2.4,0,4.5,0.9,5.8,2.7h0c1.3,1.7,2,4.3,2.3,7.7l0,0.1v12.4
			c0,0.5-0.2,1-0.6,1.3c-0.4,0.3-0.9,0.4-1.4,0.4h-0.1v0.4h-0.6l0-0.6c1.4,0.1,3.5,0.2,6.3,0.5l0,0.6h-0.6v-24.2L320.5,2082.1l0.6,0
			v24.2l-0.2,0.5l-0.5,0.2c-2.8-0.2-4.9-0.4-6.3-0.5l-0.6-0.6v-1l0.2-0.4l0.4-0.2h0.7c0.4,0,0.6-0.1,0.7-0.1l0.1-0.3v-12.4h0.6
			l-0.6,0c-0.3-3.3-1-5.7-2.1-7.1l0,0c-1.1-1.4-2.6-2.1-4.8-2.1c-1.9,0-3,0.5-3.8,1.4l-0.5-0.4l0.5,0.4c-0.7,0.9-1.2,2.5-1.2,4.8
			v17.9l-0.2,0.5l-0.5,0.2c-0.6-0.1-1.7-0.1-3-0.2h0c-1.3-0.1-2.3-0.2-3-0.2l-0.6-0.6v-1l0.2-0.4l0.4-0.2h0.7l0.1,0l0.2,0l0.3-0.1
			l0.1-0.4v-14.6c0-3.3,0.8-6,2.4-7.9l0,0c1.6-1.9,4-2.8,6.9-2.8c3.9,0,7,1.9,9.2,5.7l-0.5,0.3h-0.6v-4.8l0.2-0.5l0.5-0.2
			c2.6,0.1,4.5,0.3,5.8,0.4l0.6,0.6v0.9l-0.2,0.4l-0.4,0.2c-0.6,0-0.9,0.1-1.1,0.2l-0.2,0.3L320.5,2082.1L320.5,2082.1z"/>
		<path id="path346" inkscape:connector-curvature="0" class="st0" d="M186.4,2145.5c-0.8-0.1-1.3-0.3-1.8-0.6l0.1-7.7
			c0.2-0.1,0.8-0.1,1.3,0c2.7,0.3,4,2,4,4.7C190,2144.6,189,2145.8,186.4,2145.5 M190.2,2128l-5.4,8.3l0,0l0.1-9l-3.5-0.4l-0.1,18.9
			c1.2,0.8,3,1.5,5.2,1.8c4.7,0.6,7-1.4,7.1-5.1c0.1-3-2.1-5.3-5-5.9v0l5.7-8.1L190.2,2128L190.2,2128z"/>
		<path id="path350" inkscape:connector-curvature="0" class="st0" d="M186.4,2145.5l0,0.2c-0.8-0.1-1.4-0.3-1.8-0.6l-0.1-0.2
			l0.1-7.7l0.1-0.2l0.6-0.1l0.8,0.1l0,0.2l0-0.2c2.8,0.3,4.2,2.2,4.2,4.9c0,1.3-0.2,2.2-0.7,2.9c-0.5,0.7-1.3,1-2.3,1l-0.8-0.1
			L186.4,2145.5l0-0.2l0.7,0c1.9,0,2.6-1,2.6-3.5c0-2.6-1.2-4.1-3.8-4.5h0l-0.7-0.1l-0.4,0.1l-0.1-0.2h0.2l-0.1,7.7h-0.2l0.1-0.2
			c0.4,0.3,0.9,0.5,1.7,0.6L186.4,2145.5L186.4,2145.5z M190.2,2128l0.2,0.1l-5.4,8.3l-0.2,0.1l0,0l-0.2-0.2l0.1-8.8l-3.1-0.4
			l-0.1,18.7h-0.2l0.1-0.2c1.2,0.8,3,1.5,5.1,1.8c0.5,0.1,1.1,0.1,1.5,0.1c3.6,0,5.3-1.9,5.3-5l0-0.1c0-2.8-2-5-4.9-5.6l-0.2-0.2v0
			l0-0.1l5.5-7.8l-3.6-0.4L190.2,2128l0.2,0.1L190.2,2128l0-0.2l3.9,0.5l0.2,0.1l0,0.2l-5.7,8.1l-0.2-0.1h0.2v0h-0.2l0-0.2
			c3,0.6,5.2,3,5.2,6l0,0.1c0,3.3-1.9,5.5-5.7,5.4c-0.5,0-1,0-1.6-0.1c-2.2-0.3-4.1-1-5.3-1.8l-0.1-0.2l0.1-18.9l0.1-0.1l0.2,0
			l3.5,0.4l0.2,0.2l-0.1,9h-0.2l0-0.2l0,0l0,0.2l-0.2-0.1l5.4-8.3l0.2-0.1L190.2,2128L190.2,2128z"/>
		<path id="path354" inkscape:connector-curvature="0" class="st0" d="M206.6,2147.2l-1.9-0.2l1.9,4.3c1.1,0.8,3,1.1,3.3,0.3
			L206.6,2147.2z M206,2143.6c-1.9-0.2-3.3-2.1-3.2-5.8l6.2,1.8C209,2142.7,207.9,2143.8,206,2143.6 M203,2136.1
			c0.3-2.8,1.6-4.1,4.1-3.8c1.7,0.2,3,0.8,3.8,1.3l0.8-2.1c-1-0.8-2.6-1.4-4.9-1.7c-4.2-0.5-6.9,2-7,7.2c0,5.1,2.4,8.3,6.3,8.8
			c4,0.5,6.1-2,6-7.2C212.2,2138.6,203,2136.1,203,2136.1z"/>
		<path id="path358" inkscape:connector-curvature="0" class="st0" d="M206.6,2147.2l0,0.2l-1.6-0.2l1.8,4l-0.2,0.1l0.1-0.2
			c0.6,0.5,1.5,0.8,2.2,0.8c0.5,0,0.7-0.1,0.8-0.3l0.2,0.1l-0.2,0.1l-3.3-4.4L206.6,2147.2l0,0.2L206.6,2147.2l0.2-0.1l3.3,4.4
			l0,0.2c-0.2,0.4-0.7,0.6-1.2,0.6c-0.8,0-1.7-0.3-2.4-0.8l-0.1-0.1l-1.9-4.3l0-0.2l0.2-0.1l1.9,0.2l0.1,0.1
			C206.8,2147.1,206.6,2147.2,206.6,2147.2z M206,2143.6l0,0.2c-2-0.3-3.4-2.1-3.4-5.6l0-0.4l0.1-0.2l0.2,0l6.2,1.8l0.1,0.2
			c0,2.9-1,4.3-2.8,4.3l-0.5,0h0L206,2143.6l0-0.2l0.4,0c1.5,0,2.3-1,2.4-3.9h0.2l-0.1,0.2l-6.2-1.8l0.1-0.2l0.2,0l0,0.4
			c0,3.4,1.3,5,3,5.2L206,2143.6l0-0.2L206,2143.6L206,2143.6z M203,2136.1l-0.2,0c0.2-2.6,1.5-4.1,3.6-4l0.7,0
			c1.8,0.2,3,0.8,3.9,1.4l-0.1,0.2l-0.2-0.1l0.8-2.1l0.2,0.1l-0.1,0.2c-1-0.7-2.5-1.4-4.8-1.7l0-0.2l0,0.2c-0.4,0-0.7-0.1-1-0.1
			c-3.5,0-5.7,2.3-5.7,7.1l0,0l0,0.1c0,4.9,2.4,8,6.1,8.5h0l0.9,0.1c3.2,0,4.9-2.2,4.9-6.8l0-0.3h0.2l-0.1,0.2l-9.1-2.5l-0.1-0.2
			L203,2136.1l0.1-0.2l9.1,2.5l0.1,0.2l0,0.3c0,2.3-0.5,4.1-1.4,5.3c-0.9,1.2-2.3,1.8-3.9,1.8l-1-0.1h0c-3.9-0.5-6.5-3.8-6.5-8.9
			l0-0.1l0,0c0-2.4,0.6-4.3,1.7-5.6c1.1-1.3,2.6-1.9,4.4-1.9c0.4,0,0.7,0,1.1,0.1h0c2.3,0.3,3.9,1,5,1.8l0.1,0.2l-0.8,2.1l-0.1,0.1
			l-0.2,0c-0.8-0.5-2-1.1-3.7-1.3l-0.7,0c-1.9,0-2.9,1.1-3.2,3.7L203,2136.1l0.1-0.2L203,2136.1L203,2136.1z"/>
		<path id="path362" inkscape:connector-curvature="0" class="st0" d="M227.4,2146c-0.4,0.2-1,0.2-1.7,0.1c-2.6-0.3-3.7-2.7-3.7-6.6
			c0-3.8,1.1-5.6,3.6-5.3c0.7,0.1,1.4,0.4,1.9,0.7L227.4,2146z M224.7,2125.8c-2.1-0.2-4-0.1-5.1,0.5l0.9,2.4
			c0.9-0.4,2.2-0.7,3.6-0.5c2.5,0.3,3.4,1.8,3.4,3.9v1c-0.6-0.4-1.5-0.8-2.8-0.9c-3.6-0.4-6,2.1-6,6.8c0,5,2.4,8.6,7.2,9.3
			c2.2,0.3,3.9,0,4.9-0.5l0.1-14.9C230.9,2128.7,228.4,2126.2,224.7,2125.8"/>
		<path id="path366" inkscape:connector-curvature="0" class="st0" d="M227.4,2146l0.1,0.2c-0.3,0.2-0.7,0.2-1.1,0.2l-0.7-0.1
			c-2.8-0.3-3.9-2.8-3.8-6.6l0-0.2c0-1.8,0.2-3.1,0.8-4c0.5-0.9,1.4-1.5,2.5-1.4l0.6,0h0c0.8,0.1,1.5,0.4,2,0.8l0.1,0.2l-0.1,11
			l-0.1,0.2L227.4,2146l-0.2,0l0.1-11h0.2l-0.1,0.2c-0.4-0.3-1.1-0.6-1.8-0.7l0-0.2l0,0.2l-0.5,0c-1,0-1.7,0.4-2.1,1.2
			c-0.5,0.8-0.7,2.1-0.7,3.9l0,0.2c0,3.8,1,5.9,3.5,6.2l0.7,0.1c0.4,0,0.7-0.1,0.9-0.2L227.4,2146l-0.2,0L227.4,2146L227.4,2146z
			 M224.7,2125.8l0,0.2c-0.6-0.1-1.2-0.1-1.7-0.1c-1.4,0-2.5,0.2-3.3,0.6l-0.1-0.2l0.2-0.1l0.9,2.4l-0.2,0.1l-0.1-0.2
			c0.7-0.3,1.7-0.6,2.7-0.6l1,0.1l0,0.2l0-0.2c2.6,0.3,3.6,2,3.6,4.1v0l0,0v1l-0.1,0.2l-0.2,0c-0.6-0.4-1.4-0.8-2.7-0.9l-0.7,0
			c-3,0-5,2.4-5.1,6.7v0.1c0,4.9,2.3,8.4,7,9c0.6,0.1,1.1,0.1,1.6,0.1c1.4,0,2.4-0.2,3.1-0.6l0.1,0.2h-0.2l0.1-14.9l0,0l0-0.1
			c0-4-2.3-6.2-5.9-6.7L224.7,2125.8l0-0.2c3.7,0.5,6.3,2.9,6.2,7.1l0,0.1l0,0l-0.1,14.9l-0.1,0.2c-0.7,0.4-1.9,0.6-3.3,0.6
			c-0.5,0-1.1,0-1.7-0.1c-4.9-0.6-7.3-4.4-7.3-9.4v-0.1c0-4.4,2.2-7.1,5.5-7.1l0.8,0c1.3,0.2,2.2,0.5,2.9,1l-0.1,0.2h-0.2v-1h0.2
			h-0.2v0c0-2-0.8-3.4-3.2-3.7l0,0l-0.9-0.1c-1,0-1.9,0.2-2.6,0.5l-0.2,0l-0.1-0.1l-0.9-2.4l0.1-0.3c0.8-0.4,2-0.6,3.4-0.6
			c0.6,0,1.2,0,1.8,0.1L224.7,2125.8L224.7,2125.8z"/>
		<path id="path370" inkscape:connector-curvature="0" class="st0" d="M238.5,2134l-0.1,15.5l3.4,0.4l0.1-15.5L238.5,2134
			L238.5,2134z M240.1,2152.4c-1-0.1-1.9,0.6-1.9,1.5c0,1,0.8,1.9,1.8,2c1,0.1,1.8-0.6,1.9-1.5
			C241.9,2153.4,241.1,2152.5,240.1,2152.4"/>
		<path id="path374" inkscape:connector-curvature="0" class="st0" d="M238.5,2134h0.2l-0.1,15.3l3,0.4l0.1-15.1l-3.2-0.4
			L238.5,2134l0.2,0L238.5,2134l0-0.2l3.3,0.4l0.2,0.2l-0.1,15.5l-0.1,0.1l-0.2,0l-3.4-0.4l-0.2-0.2l0.1-15.5l0.1-0.1l0.2,0
			L238.5,2134L238.5,2134z M240.1,2152.4l0,0.2l-0.2,0c-0.8,0-1.4,0.6-1.4,1.3v0l0,0.1c0,0.8,0.7,1.6,1.6,1.7h0l0.2,0
			c0.8,0,1.4-0.6,1.4-1.4l0.2,0h-0.2v0c0-0.8-0.7-1.6-1.6-1.7L240.1,2152.4l0-0.2c1.1,0.2,2,1.1,2,2.1v0l0,0c0,1-0.8,1.8-1.8,1.8
			l-0.3,0l0-0.2l0,0.2c-1.1-0.1-2-1-2-2.1l0-0.1l0.2,0H238c0-1,0.8-1.7,1.8-1.7l0.3,0L240.1,2152.4L240.1,2152.4z"/>
		<path id="path378" inkscape:connector-curvature="0" class="st0" d="M255.1,2149.7c-2.4-0.3-2.8-3.2-2.8-6.2
			c0-2.9,0.6-5.6,2.9-5.3c2.4,0.3,2.8,3.1,2.8,6C258,2147.2,257.6,2150,255.1,2149.7 M255.2,2135.8c-4.2-0.5-6.2,2.7-6.3,7.3
			c0,4.6,2,8.3,6.1,8.8c4.2,0.5,6.2-2.7,6.2-7.3C261.4,2140.1,259.4,2136.3,255.2,2135.8"/>
		<path id="path382" inkscape:connector-curvature="0" class="st0" d="M255.1,2149.7l0,0.2c-1.3-0.2-2.1-1.1-2.5-2.2
			c-0.4-1.2-0.5-2.7-0.5-4.2l0,0c0-1.4,0.1-2.7,0.5-3.8c0.4-1,1.1-1.8,2.2-1.7l0.4,0c1.2,0.1,2,0.9,2.4,2c0.4,1.1,0.5,2.4,0.5,3.8
			l0,0.4H258h0.2c0,1.4-0.1,2.8-0.5,3.9c-0.4,1.1-1.1,1.8-2.2,1.8l-0.4,0L255.1,2149.7l0-0.2l0.3,0c1,0,1.5-0.6,1.9-1.6
			c0.4-1,0.5-2.3,0.5-3.7l0,0l0-0.4c0-1.4-0.1-2.7-0.5-3.7c-0.4-1-1-1.6-2.1-1.7l-0.3,0c-0.9,0-1.5,0.5-1.8,1.5
			c-0.4,0.9-0.5,2.3-0.5,3.6l0,0c0,1.5,0.1,2.9,0.5,4c0.4,1.1,1,1.8,2.1,2L255.1,2149.7L255.1,2149.7z M255.2,2135.8l0,0.2l-0.8-0.1
			c-3.4,0-5.2,2.9-5.2,7.1v0c0,4.6,1.9,8.1,6,8.6l0.8,0.1c3.5,0,5.1-2.9,5.2-7.1l0-0.2c0-4.4-1.9-7.9-6-8.4L255.2,2135.8l0-0.2
			c4.3,0.5,6.3,4.3,6.3,8.8v0.2c0,4.3-1.8,7.5-5.6,7.5l-0.9-0.1c-4.3-0.5-6.3-4.3-6.3-9v-0.1c0-4.3,1.9-7.5,5.6-7.5l0.9,0.1
			L255.2,2135.8L255.2,2135.8z"/>
		<path id="path386" inkscape:connector-curvature="0" class="st0" d="M276.9,2138.8l-0.1,11c0,1.3-0.6,2.5-2.6,2.2
			c-1.1-0.1-1.7-0.4-2.4-0.7l0.1-13.1l-3.4-0.4l-0.1,14.7c1.4,0.9,3.3,1.5,5.8,1.9c4.4,0.6,5.9-1.5,5.9-4l0.1-11L276.9,2138.8
			L276.9,2138.8z"/>
		<path id="path390" inkscape:connector-curvature="0" class="st0" d="M276.9,2138.8h0.2l-0.1,11h-0.2h0.2c0,0.6-0.1,1.2-0.5,1.7
			c-0.4,0.5-1,0.8-1.9,0.8l-0.5,0c-1.2-0.1-1.8-0.4-2.4-0.7l-0.1-0.2l0.1-13l-3-0.4l-0.1,14.4l-0.2,0l0.1-0.2
			c1.4,0.8,3.2,1.5,5.8,1.8c0.5,0.1,1,0.1,1.4,0.1c3.3,0,4.3-1.7,4.3-3.9l0,0l0.1-10.9l-3.2-0.4L276.9,2138.8l0.2,0L276.9,2138.8
			l0-0.2l3.3,0.4l0.2,0.2l-0.1,11v0c0,1.1-0.3,2.2-1.1,3c-0.8,0.8-2,1.3-3.7,1.3c-0.4,0-0.9,0-1.4-0.1c-2.6-0.3-4.5-1-5.9-1.9
			l-0.1-0.2l0.1-14.7l0.1-0.2l0.2,0l3.4,0.4l0.2,0.2l-0.1,13.1h-0.2l0.1-0.2c0.6,0.3,1.2,0.6,2.3,0.7l0.5,0c1.6,0,1.9-1,1.9-2.1l0,0
			l0.1-11l0.1-0.1l0.2,0L276.9,2138.8L276.9,2138.8z"/>
		<path id="path394" inkscape:connector-curvature="0" class="st0" d="M151.4,2123l-0.1,12.6l20.2,4.4l0.1-14.5
			C171.6,2125.6,151.4,2123,151.4,2123z"/>
	</g>
</g>
</svg>
