<?xml version="1.0" encoding="utf-8"?>
<!-- Generator: Adobe Illustrator 25.3.1, SVG Export Plug-In . SVG Version: 6.00 Build 0)  -->
<svg version="1.1"
	 id="svg24358" xmlns:cc="http://creativecommons.org/ns#" xmlns:dc="http://purl.org/dc/elements/1.1/" xmlns:inkscape="http://www.inkscape.org/namespaces/inkscape" xmlns:rdf="http://www.w3.org/1999/02/22-rdf-syntax-ns#" xmlns:sodipodi="http://sodipodi.sourceforge.net/DTD/sodipodi-0.dtd" xmlns:svg="http://www.w3.org/2000/svg"
	 xmlns="http://www.w3.org/2000/svg" xmlns:xlink="http://www.w3.org/1999/xlink" x="0px" y="0px" viewBox="0 0 65 45.4"
	 style="enable-background:new 0 0 65 45.4;" xml:space="preserve">
<style type="text/css">
	.st0{fill:#FFFFFF;}
</style>
<sodipodi:namedview  bordercolor="#FFFFFF" borderopacity="1.0" fit-margin-bottom="1" fit-margin-left="1" fit-margin-right="1" fit-margin-top="1" id="base" inkscape:current-layer="layer1" inkscape:cx="106.872" inkscape:cy="67.217054" inkscape:document-units="px" inkscape:pageopacity="0.0" inkscape:pageshadow="2" inkscape:window-height="1017" inkscape:window-maximized="1" inkscape:window-width="1920" inkscape:window-x="-8" inkscape:window-y="-8" inkscape:zoom="3.959798" pagecolor="#ffffff" showgrid="false">
	</sodipodi:namedview>
<g id="layer1" transform="translate(-67.964279,-897.69425)" inkscape:groupmode="layer" inkscape:label="Calque 1">
	<g id="g24538">
		<path id="path19536" inkscape:connector-curvature="0" class="st0" d="M112.6,905.9c2.2-1.3,7.3-5.9,8.6-8.2l1.4,2.6
			c-0.9,1.1-5,5.4-9.3,7.3L112.6,905.9z"/>
		<path id="path19538" inkscape:connector-curvature="0" class="st0" d="M114.3,909.8l-0.6-1.4c1.9-0.5,7.7-3.1,10.1-5.6l1.2,2.4
			C123.9,906.3,119.9,908.7,114.3,909.8"/>
		<path id="path19540" inkscape:connector-curvature="0" class="st0" d="M114.6,910.7c1.8,0.1,8.6-1.3,11.5-3.1
			c0.2,0.3,1.5,2.9,1.5,2.9c-1.1,0.7-7.4,2.3-12.3,2L114.6,910.7z"/>
		<path id="path19542" inkscape:connector-curvature="0" class="st0" d="M115.7,913.3c4,0.2,8.7,0.1,12.9-0.9c0.2,0.4,1.5,3,1.5,3
			c-2.4,0.6-10.6,0.2-13.7-0.6L115.7,913.3z"/>
		<path id="path19544" inkscape:connector-curvature="0" class="st0" d="M116.8,916c3.3,0.9,10.8,2,14.4,1.8
			c0.2,0.3,1.6,3.2,1.6,3.2c-2,0-12.8-2.1-15.3-3.1L116.8,916z"/>
		<path id="path19546" inkscape:connector-curvature="0" class="st0" d="M110.9,914.7l-2.5-6.1v0l-4.4,1.7
			C104.7,911,109,914.2,110.9,914.7"/>
		<path id="path19548" inkscape:connector-curvature="0" class="st0" d="M108.4,897.7h-3.7c0,3.4-3.1,17-7.9,23.2h4.6
			c1.9-3,3.6-7.3,4-8.7l-2.8-2l3.8-1.4c0.3-0.9,0.9-3.8,0.9-3.8l6.6,15.9h4.1L108.4,897.7z"/>
		<path id="path19550" inkscape:connector-curvature="0" class="st0" d="M88.4,930.5l1.2-4.3c0.1-0.5-0.1-0.8-0.5-0.8
			c-0.4,0-0.8,0.4-1,0.8l0,0.1c-0.2-0.6-0.6-0.9-1.2-0.9c-1.1,0-2.5,1.5-3,3.3c-0.5,1.8,0,3.3,1.1,3.3c0.6,0,1.2-0.4,1.8-1
			c0,0.6,0.4,1,0.9,1c0.7,0,1.5-0.7,1.7-1.5l0.2-0.6h-0.5l-0.2,0.6c0,0.2-0.2,0.3-0.4,0.3C88.5,930.9,88.4,930.7,88.4,930.5
			 M85.9,930.9c-0.5,0-0.6-1-0.3-2.2c0.3-1.2,1-2.2,1.5-2.2c0.5,0,0.6,1,0.3,2.2C87.1,929.9,86.4,930.9,85.9,930.9"/>
		<path id="path19552" inkscape:connector-curvature="0" class="st0" d="M93.4,931.1l-1,3.6h1.5l2.3-8.5c0.1-0.5-0.1-0.8-0.5-0.8
			c-0.4,0-0.8,0.4-1,0.8l0,0.1c-0.2-0.6-0.6-0.9-1.2-0.9c-1.1,0-2.5,1.5-3,3.3c-0.5,1.8,0,3.3,1.2,3.3
			C92.3,932,92.9,931.6,93.4,931.1 M92.5,930.9c-0.5,0-0.6-1-0.3-2.2c0.3-1.2,1-2.2,1.5-2.2c0.5,0,0.6,1,0.3,2.2
			C93.7,929.9,93,930.9,92.5,930.9"/>
		<path id="path19554" inkscape:connector-curvature="0" class="st0" d="M99.8,930.8c-0.4,0.5-1,1.2-1.8,1.2c-0.8,0-1.2-0.7-1-1.6
			l0.9-3.4c0.1-0.2,0-0.4-0.2-0.4c-0.2,0-0.4,0.2-0.4,0.4l-0.2,0.5h-0.5l0.2-0.5c0.2-0.8,1-1.5,1.7-1.5c0.7,0,1.1,0.7,0.9,1.5
			l-0.9,3.3c-0.1,0.3,0.1,0.5,0.3,0.5c0.2,0,0.5-0.2,1.1-0.9l0.4-0.5l1-3.7l1.5,0l-1.3,4.9c0,0.2,0,0.4,0.2,0.4
			c0.2,0,0.4-0.2,0.4-0.4l0.2-0.6h0.5l-0.2,0.6c-0.2,0.8-1,1.5-1.7,1.5c-0.7,0-1.1-0.6-0.9-1.4L99.8,930.8z"/>
		<path id="path19556" inkscape:connector-curvature="0" class="st0" d="M104.3,932c-0.7,0-1.1-0.6-0.9-1.5l1.3-4.9h1.5l-1.3,4.9
			c-0.1,0.2,0,0.3,0.2,0.3c0.2,0,0.3-0.2,0.4-0.3l0.2-0.6l0.5,0l-0.2,0.6C105.7,931.3,105,932,104.3,932 M106.6,924
			c-0.1,0.4-0.6,0.8-1,0.8c-0.4,0-0.6-0.4-0.5-0.8c0.1-0.5,0.6-0.8,1-0.8C106.5,923.2,106.8,923.6,106.6,924"/>
		<path id="path19558" inkscape:connector-curvature="0" class="st0" d="M107,926.5l0.2-0.9h1.1l0.4-1.5h1.5l-0.4,1.5h1.5l-0.2,0.9
			l-1.5,0l-1.1,4.1c0,0.2,0.1,0.4,0.2,0.4c0.2,0,0.4-0.2,0.4-0.4l0.2-0.6h0.5l-0.2,0.6c-0.2,0.8-1,1.5-1.7,1.5
			c-0.7,0-1.1-0.7-0.9-1.5l1.1-4.1L107,926.5z"/>
		<path id="path19560" inkscape:connector-curvature="0" class="st0" d="M115.4,930.5l1.2-4.3c0.1-0.5-0.1-0.8-0.5-0.8
			c-0.4,0-0.8,0.4-1,0.8l0,0.1c-0.2-0.6-0.6-0.9-1.2-0.9c-1.1,0-2.5,1.5-2.9,3.3c-0.5,1.8,0,3.3,1.1,3.3c0.6,0,1.2-0.4,1.8-1
			c0,0.6,0.4,1,0.9,1c0.7,0,1.5-0.7,1.7-1.5l0.2-0.6h-0.5l-0.2,0.6c0,0.2-0.2,0.4-0.4,0.4C115.4,930.9,115.3,930.7,115.4,930.5
			 M112.9,930.9c-0.5,0-0.6-1-0.3-2.2c0.3-1.2,1-2.2,1.5-2.2c0.5,0,0.6,1,0.3,2.2C114.1,929.9,113.4,930.9,112.9,930.9"/>
		<path id="path19562" inkscape:connector-curvature="0" class="st0" d="M118.2,932c-0.7,0-1.1-0.6-0.9-1.5l1.3-4.9l1.5,0l-1.3,4.9
			c-0.1,0.2,0,0.3,0.2,0.3c0.2,0,0.3-0.2,0.4-0.3l0.2-0.6h0.5l-0.2,0.6C119.7,931.4,118.9,932,118.2,932 M120.5,924
			c-0.1,0.4-0.6,0.8-1,0.8c-0.4,0-0.6-0.4-0.5-0.8c0.1-0.5,0.6-0.8,1-0.8C120.4,923.2,120.7,923.6,120.5,924"/>
		<path id="path19564" inkscape:connector-curvature="0" class="st0" d="M123.9,926.6c0.4-0.5,1-1.2,1.8-1.2c0.8,0,1.2,0.7,1,1.6
			l-1,3.6c-0.1,0.2,0,0.3,0.2,0.3c0.2,0,0.3-0.2,0.4-0.3l0.2-0.6h0.5l-0.2,0.6c-0.2,0.8-1,1.4-1.7,1.4c-0.7,0-1.1-0.7-0.9-1.5
			l0.9-3.5c0.1-0.3-0.1-0.5-0.3-0.5c-0.2,0-0.5,0.2-1.1,0.9l-0.5,0.6l-1,3.7h-1.5l1.3-4.8c0.1-0.2,0-0.4-0.2-0.4
			c-0.2,0-0.4,0.2-0.4,0.3l-0.2,0.5l-0.5,0l0.2-0.5c0.2-0.8,1-1.4,1.7-1.4c0.7,0,1.1,0.6,0.9,1.3L123.9,926.6z"/>
		<path id="path19566" inkscape:connector-curvature="0" class="st0" d="M132.9,927.1c0.2-0.7,0-1.7-1.5-1.7c-1.6,0-3.1,1.6-3.6,3.3
			c-0.5,1.7,0.2,3.3,1.7,3.3c1.4,0,2.3-1.1,2.6-2l-0.6-0.1c-0.2,0.6-0.8,1.4-1.5,1.4c-0.6,0-1-0.5-0.6-2.2
			C131.4,929,132.6,928.1,132.9,927.1 M129.7,928.3c0.2-0.9,0.8-2.2,1.6-2.2c0.3,0,0.3,0.3,0.2,0.8
			C131.3,927.4,130.7,928.3,129.7,928.3"/>
		<path id="path19568" inkscape:connector-curvature="0" class="st0" d="M82.7,915.9c0-0.1,0-0.2,0-0.4c0.2-0.7,0.7-1.5,1.4-1.9
			c2.3-1.4,4.2-1,4.5-0.8c0,0,0,0,0,0.1c-0.3,0.7-2.6,2.7-5.7,3.9C82.8,916.5,82.7,916.2,82.7,915.9 M90.6,912.1
			c-0.3-0.3-1.1-0.7-2.1-0.8c-1-0.2-3.1-0.3-5.3,0.9c-2.3,1.2-3.9,3.4-3.2,5.6c0,0-2,0.7-3.5,0.4c-0.8-0.2-1.6-0.8-1.8-1.5
			c-0.4-1.2-0.1-3.3,2-5.2c2.8-2.5,6.9-3.4,8.7-3.8c0.8-0.2,0.9-0.2,0.9-0.3c0-0.1,0-0.2-0.1-0.4c-0.2-0.3-1-0.6-2.9-0.4
			c-2,0.2-4.8,1-5.6,1.3c0.6-1.2,2.3-4.3,2.6-4.9c0.5-1,0.7-1.4,0.7-1.6c0-0.1,0-0.1-0.1-0.1c-0.3-0.3-1.9,0.6-3.2,2.1
			c-1.3,1.5-1.9,2.7-2.9,4.3c-1.1,1.8-4.6,2.6-6.2,3.1c-0.4,0.1-0.6,0.1-0.6,0.2c-0.1,0.1-0.1,0.1,0,0.2c0.1,0.5,1,1,1.9,1.1
			c0.6,0,1.4-0.1,2.6-0.4c-0.6,1-1.7,3.2-1.7,5.3c0,1.6,0.8,3.6,4,3.9c2.5,0.2,5-0.7,6.7-1.3c1.9,1.5,4.6,1.4,4.6,1.4
			c6.8,0,9.9-5.4,10.5-6.4c0,0,0.6,2,1.8,3.7c1.6,2.2,3.9,2.9,6.2,2.7c2.7-0.3,4.5-2.4,4.7-2.8c0.1-0.2,0-0.4-0.5-0.1
			c-0.4,0.2-0.9,0.6-2,0.8c-5.1,1-6.6-4.3-7.7-6.6c-0.1-0.3-0.3-0.6-0.4-0.6c-0.3-0.1-2.7,0.3-3,0.8c-2.7,5-6.1,6.1-8.7,6.1
			c-0.9,0-1.6-0.2-2.2-0.5c1-0.5,1.8-0.9,2.5-1.4c2.7-1.8,3.7-3.8,3.7-4.4C90.7,912.2,90.7,912.1,90.6,912.1"/>
		<path id="path19570" inkscape:connector-curvature="0" class="st0" d="M107.8,934.8c8.3,0,16.5,0.4,24.6,1.1v-0.3
			c-8.1-1.1-16.3-1.7-24.6-1.7c-8.4,0-16.6,0.6-24.6,1.7v0.3C91.3,935.2,99.5,934.8,107.8,934.8"/>
		<path id="path19572" inkscape:connector-curvature="0" class="st0" d="M73.2,938.4h1l0.8,2.7h0l0.8-2.7h1v3.6h-0.6v-2.9h0
			l-0.9,2.9h-0.6l-0.9-2.9l0,0v2.9h-0.6L73.2,938.4z"/>
		<path id="path19574" inkscape:connector-curvature="0" class="st0" d="M78.2,941.6c0.2,0,0.3-0.1,0.4-0.2c0.1-0.1,0.1-0.3,0.1-0.5
			h-0.3c-0.3,0-0.7,0.1-0.7,0.5C77.8,941.5,78,941.6,78.2,941.6 M77.5,939.5c0.2-0.1,0.6-0.2,0.8-0.2c0.7,0,1,0.3,1,1.1v0.3
			c0,0.3,0,0.5,0,0.7c0,0.2,0,0.4,0,0.6h-0.5c0-0.1,0-0.3,0-0.4h0c-0.1,0.3-0.4,0.5-0.7,0.5c-0.4,0-0.8-0.3-0.8-0.8
			c0-0.4,0.2-0.6,0.4-0.7c0.2-0.1,0.5-0.2,0.8-0.2h0.3c0-0.4-0.2-0.6-0.5-0.6c-0.3,0-0.5,0.1-0.7,0.3L77.5,939.5z"/>
		<path id="path19576" inkscape:connector-curvature="0" class="st0" d="M81.7,940h0.2c0.3,0,0.7-0.1,0.7-0.5c0-0.4-0.4-0.5-0.7-0.5
			h-0.2V940z M81.1,938.4h0.7c0.7,0,1.5,0,1.5,1c0,0.4-0.2,0.8-0.7,0.8v0c0.2,0,0.3,0.2,0.3,0.4l0.5,1.4h-0.7l-0.4-1.1
			c-0.1-0.3-0.2-0.4-0.4-0.4h-0.2v1.5h-0.6L81.1,938.4z"/>
		<path id="path19578" inkscape:connector-curvature="0" class="st0" d="M84.8,938.3h0.6l-0.6,0.7h-0.4L84.8,938.3z M85.3,940.4
			c0-0.3-0.2-0.6-0.5-0.6c-0.3,0-0.5,0.3-0.5,0.6H85.3z M85.7,941.8c-0.2,0.1-0.5,0.2-0.8,0.2c-0.8,0-1.2-0.5-1.2-1.4
			c0-0.8,0.4-1.4,1.1-1.4c0.9,0,1.1,0.7,1.1,1.6h-1.6c0,0.4,0.3,0.7,0.7,0.7c0.3,0,0.5-0.1,0.8-0.3L85.7,941.8z"/>
		<path id="path19580" inkscape:connector-curvature="0" class="st0" d="M87.8,940.7c0-0.4-0.2-0.8-0.5-0.8c-0.4,0-0.5,0.4-0.5,0.8
			c0,0.4,0.2,0.8,0.5,0.8C87.7,941.5,87.8,941.1,87.8,940.7 M88.5,939.4v2.4c0,0.7-0.3,1.4-1.2,1.4c-0.2,0-0.5,0-0.8-0.2l0.1-0.6
			c0.2,0.1,0.5,0.2,0.7,0.2c0.7,0,0.7-0.6,0.7-1h0c-0.1,0.2-0.4,0.4-0.7,0.4c-0.7,0-1-0.6-1-1.3c0-0.6,0.3-1.4,1-1.4
			c0.3,0,0.6,0.1,0.7,0.4h0v-0.4H88.5z"/>
		<path id="path19582" inkscape:connector-curvature="0" class="st0" d="M89.1,939.4h0.6v2.6h-0.6V939.4z M89.1,938.2h0.6v0.6h-0.6
			V938.2z"/>
		<path id="path19584" inkscape:connector-curvature="0" class="st0" d="M91.3,941.5c0.5,0,0.6-0.5,0.6-0.9c0-0.4-0.2-0.8-0.6-0.8
			c-0.4,0-0.6,0.4-0.6,0.8C90.7,941,90.9,941.5,91.3,941.5 M91.3,939.3c0.7,0,1.2,0.5,1.2,1.4c0,0.8-0.4,1.4-1.2,1.4
			c-0.8,0-1.2-0.6-1.2-1.4C90.1,939.8,90.6,939.3,91.3,939.3"/>
		<path id="path19586" inkscape:connector-curvature="0" class="st0" d="M93,939.4h0.6v0.4h0c0.2-0.3,0.4-0.4,0.8-0.4
			c0.6,0,0.8,0.4,0.8,1v1.7h-0.6v-1.4c0-0.3,0-0.8-0.4-0.8c-0.4,0-0.5,0.5-0.5,0.9v1.3H93L93,939.4z"/>
		<path id="path19588" inkscape:connector-curvature="0" class="st0" d="M95.8,941.3h0.7l-0.4,1.3h-0.5L95.8,941.3z"/>
		<path id="path19590" inkscape:connector-curvature="0" class="st0" d="M98.1,939.4h0.6v0.4h0c0.2-0.3,0.5-0.4,0.7-0.4
			c0.3,0,0.6,0.1,0.7,0.5c0.1-0.3,0.4-0.5,0.7-0.5c0.6,0,0.7,0.4,0.7,1v1.7H101v-1.6c0-0.2,0-0.6-0.3-0.6c-0.4,0-0.5,0.5-0.5,0.9
			v1.3h-0.6v-1.6c0-0.2,0-0.6-0.4-0.6c-0.4,0-0.5,0.5-0.5,0.9v1.3h-0.6L98.1,939.4z"/>
		<path id="path19592" inkscape:connector-curvature="0" class="st0" d="M103.2,941.5c0.5,0,0.6-0.5,0.6-0.9c0-0.4-0.2-0.8-0.6-0.8
			c-0.4,0-0.6,0.4-0.6,0.8C102.6,941,102.7,941.5,103.2,941.5 M103.2,939.3c0.7,0,1.2,0.5,1.2,1.4c0,0.8-0.4,1.4-1.2,1.4
			c-0.8,0-1.2-0.6-1.2-1.4C102,939.8,102.5,939.3,103.2,939.3"/>
		<path id="path19594" inkscape:connector-curvature="0" class="st0" d="M104.9,939.4h0.6v0.4h0c0.2-0.3,0.4-0.4,0.8-0.4
			c0.6,0,0.8,0.4,0.8,1v1.7h-0.6v-1.4c0-0.3,0-0.8-0.4-0.8c-0.4,0-0.5,0.5-0.5,0.9v1.3h-0.6L104.9,939.4z"/>
		<path id="path19596" inkscape:connector-curvature="0" class="st0" d="M109,939.9h-0.4v-0.5h0.4v-0.5l0.6-0.2v0.7h0.5v0.5h-0.5
			v1.2c0,0.2,0.1,0.4,0.3,0.4c0.1,0,0.2,0,0.3-0.1l0,0.5c-0.1,0-0.3,0.1-0.4,0.1c-0.5,0-0.7-0.3-0.7-0.9L109,939.9z"/>
		<path id="path19598" inkscape:connector-curvature="0" class="st0" d="M110.5,939.4h0.5v0.6h0c0-0.2,0.3-0.7,0.6-0.7
			c0.1,0,0.1,0,0.2,0v0.7c-0.1,0-0.2-0.1-0.3-0.1c-0.5,0-0.5,0.7-0.5,1.1v1h-0.6L110.5,939.4z"/>
		<path id="path19600" inkscape:connector-curvature="0" class="st0" d="M113.1,941.6c0.2,0,0.3-0.1,0.4-0.2
			c0.1-0.1,0.1-0.3,0.1-0.5h-0.3c-0.3,0-0.7,0.1-0.7,0.5C112.7,941.5,112.8,941.6,113.1,941.6 M112.3,939.5c0.2-0.1,0.6-0.2,0.8-0.2
			c0.7,0,1,0.3,1,1.1v0.3c0,0.3,0,0.5,0,0.7c0,0.2,0,0.4,0,0.6h-0.5c0-0.1,0-0.3,0-0.4h0c-0.1,0.3-0.4,0.5-0.7,0.5
			c-0.4,0-0.8-0.3-0.8-0.8c0-0.4,0.2-0.6,0.4-0.7c0.2-0.1,0.5-0.2,0.8-0.2h0.3c0-0.4-0.2-0.6-0.5-0.6c-0.3,0-0.5,0.1-0.7,0.3
			L112.3,939.5z"/>
		<path id="path19602" inkscape:connector-curvature="0" class="st0" d="M114.7,939.4h0.6v2.6h-0.6V939.4z M114.7,938.2h0.6v0.6
			h-0.6V938.2z"/>
		<path id="path19604" inkscape:connector-curvature="0" class="st0" d="M115.9,939.4h0.6v0.4h0c0.2-0.3,0.4-0.4,0.8-0.4
			c0.6,0,0.8,0.4,0.8,1v1.7h-0.6v-1.4c0-0.3,0-0.8-0.4-0.8c-0.4,0-0.5,0.5-0.5,0.9v1.3h-0.6L115.9,939.4z"/>
		<path id="path19606" inkscape:connector-curvature="0" class="st0" d="M121.3,940.4c0-0.3-0.2-0.6-0.5-0.6c-0.3,0-0.5,0.3-0.5,0.6
			H121.3z M121.8,941.8c-0.2,0.1-0.5,0.2-0.8,0.2c-0.8,0-1.2-0.5-1.2-1.4c0-0.8,0.4-1.4,1.1-1.4c0.9,0,1.1,0.7,1.1,1.6h-1.6
			c0,0.4,0.3,0.7,0.7,0.7c0.3,0,0.6-0.1,0.8-0.3L121.8,941.8z"/>
		<path id="path19608" inkscape:connector-curvature="0" class="st0" d="M122.6,939.9h-0.4v-0.5h0.4v-0.5l0.6-0.2v0.7h0.5v0.5h-0.5
			v1.2c0,0.2,0.1,0.4,0.3,0.4c0.1,0,0.2,0,0.3-0.1l0,0.5c-0.1,0-0.3,0.1-0.4,0.1c-0.5,0-0.7-0.3-0.7-0.9L122.6,939.9z"/>
		<path id="path19610" inkscape:connector-curvature="0" class="st0" d="M125.3,939.4h0.6v0.4h0c0.2-0.3,0.5-0.4,0.7-0.4
			c0.3,0,0.6,0.1,0.7,0.5c0.1-0.3,0.4-0.5,0.7-0.5c0.6,0,0.7,0.4,0.7,1v1.7h-0.6v-1.6c0-0.2,0-0.6-0.4-0.6c-0.4,0-0.5,0.5-0.5,0.9
			v1.3h-0.6v-1.6c0-0.2,0-0.6-0.4-0.6c-0.4,0-0.5,0.5-0.5,0.9v1.3h-0.6L125.3,939.4z"/>
		<path id="path19612" inkscape:connector-curvature="0" class="st0" d="M130.4,941.5c0.5,0,0.6-0.5,0.6-0.9c0-0.4-0.2-0.8-0.6-0.8
			c-0.4,0-0.6,0.4-0.6,0.8C129.8,941,129.9,941.5,130.4,941.5 M130.4,939.3c0.7,0,1.2,0.5,1.2,1.4c0,0.8-0.4,1.4-1.2,1.4
			c-0.8,0-1.2-0.6-1.2-1.4C129.1,939.8,129.7,939.3,130.4,939.3"/>
		<path id="path19614" inkscape:connector-curvature="0" class="st0" d="M132,939.4h0.6v2.6H132V939.4z M132,938.2h0.6v0.6H132
			V938.2z"/>
	</g>
</g>
</svg>
