<svg width="504" height="329" viewBox="0 0 504 329" fill="none" xmlns="http://www.w3.org/2000/svg">
<g clip-path="url(#clip0_12_12)">
<path d="M252 312C137 312 43 245.8 43 165C43 84.2 136.7 18 252 18C367.3 18 461 84.2 461 165C461 245.8 367.3 312 252 312ZM252 0C113 0 0 73.2 0 165C0 256.8 113 330 252 330C391 330 504 256 504 165C504 74 391 0 252 0Z" fill="white"/>
<path d="M263 251H235.4C226.7 251 222 247.1 222 240V177C222 173.1 223.6 171.5 227.5 171.5H263C285.3 171.5 303.5 189.4 303.9 211.7C304.2 233.2 287 250.8 265.5 251.1C264.7 251.1 263.9 251.1 263 251ZM222.1 90C222.1 82.9 226.8 79 235.5 79H253.6C272.3 78.2 288.2 92.7 289 111.4V112.9C288.7 132.2 272.9 147.7 253.6 147.5H227.6C223.7 147.5 222.1 145.9 222.1 142V90ZM333.1 160.1C327.6 157.7 327.6 156.9 333.1 153.8C347.2 145.1 355.6 129.5 355.1 112.9C355.1 82.2 314.2 51.5 249.1 51.5C211.3 51.3 174.6 63.5 144.1 86.1C138.6 90.8 139.4 93.2 141 94.8L150.5 105.8C153.6 109 155.2 108.2 156.8 106.6C163.9 101.1 164.7 104.2 164.7 110.5V219.5C164.7 225.8 163.9 229 156.8 223.4C155.2 221.8 153.7 221 150.5 224.2L140.3 236C138.7 238.4 137.2 240.7 143.5 244.7C175.1 266.3 212.3 278.1 250.5 278.6C323.7 278.6 369.5 247.9 369.5 206.9C370.1 179.3 347.3 165.9 333.1 160.4" fill="white"/>
</g>
<defs>
<clipPath id="clip0_12_12">
<rect width="504" height="329" fill="white"/>
</clipPath>
</defs>
</svg>
