<?xml version="1.0" encoding="utf-8"?>
<!-- Generator: Adobe Illustrator 19.1.0, SVG Export Plug-In . SVG Version: 6.00 Build 0)  -->
<svg version="1.1" id="Calque_1" xmlns="http://www.w3.org/2000/svg" xmlns:xlink="http://www.w3.org/1999/xlink" x="0px" y="0px"
	 viewBox="0 0 300 300" style="enable-background:new 0 0 300 300;" xml:space="preserve">
<style type="text/css">
	.st0{fill:#FFFFFF;}
</style>
<g id="g3023" transform="translate(220.2141,3260.4739)">
	<path id="path3025" class="st0" d="M-153.3-3205.1c0.1-0.3,0.4-2,1.4-4.4H11.3
		c0.9,2.4,1.3,4.1,1.4,4.4c6.6,31.7,10.1,61.8,10.6,89.4H7.9c-4.3-14.3-17.5-24.2-32.5-24.2c-15,0-28.3,9.9-32.6,24.2h-106.7
		C-163.4-3143.3-159.8-3173.4-153.3-3205.1 M-125.3-3232h109.9v14.9h-109.9V-3232z M6.1-3055.8c-8.8,0-15.9-7.1-15.9-15.9
		c0-8.8,7.1-15.9,15.9-15.9c8.8,0,15.9,7.1,15.9,15.9C22-3063,14.8-3055.8,6.1-3055.8 M-16-3115.7v-12.6c5.8,2.3,10.6,6.8,13.2,12.6
		H-16z M-33.5-3115.7h-13c2.6-5.7,7.3-10.2,13-12.5V-3115.7z M-147.8-3055.8c-8.8,0-15.9-7.1-15.9-15.9c0-8.8,7.1-15.9,15.9-15.9
		c8.8,0,15.9,7.1,15.9,15.9C-131.9-3063-139.1-3055.8-147.8-3055.8 M-179.8-3168.8c2.5,0.4,4.8-0.3,6.7-1.8
		c-10.3,73.4-1,112.8-0.5,114.7c1.2,6.7,4.2,10.6,9.1,12c0,5.3,0,22.6,0,22.6c0,6.5,5.3,11.8,11.8,11.8h9.2
		c6.5,0,11.8-5.3,11.8-11.8c0,0,0-16,0-21.9h121.1c0,6,0,21.9,0,21.9c0,6.5,5.3,11.8,11.8,11.8l11,0c6.1,0,10.1-4.6,10.1-11.8v-22.7
		c5.8-1.6,10.1-6.2,10.9-12.4l-0.1,0.5c0.3-1.2,4.3-18.2,4.3-50c0-17.2-1.2-38.9-4.8-64.7c1.8,1.4,4.2,2.1,6.6,1.7
		c4.7-0.7,7.9-5.2,7.2-9.9l-2.6-16.1c-0.7-4.7-5.2-7.9-9.9-7.2c-2.6,0.4-4.6,1.9-5.9,3.9c-0.7-3.7-1.4-7.4-2.2-11.2v0l0,0
		c-2-10.4-12.4-30.1-37.5-30.2h-58.1l-59.1,0c-25.2,0.1-35.5,19.9-37.5,30.3c-0.8,3.8-1.5,7.5-2.2,11.2c-1.3-2-3.4-3.6-5.9-4
		c-4.7-0.7-9.2,2.5-9.9,7.2l-2.6,16.1C-187.7-3174-184.5-3169.6-179.8-3168.8"/>
</g>
<circle class="st0" cx="195.4" cy="102.5" r="12.3"/>
<path class="st0" d="M274.6,285.4H26.5c-3.4,0-6.2-2.8-6.2-6.2v0c0-3.4,2.8-6.2,6.2-6.2h248.2c3.4,0,6.2,2.8,6.2,6.2v0
	C280.8,282.6,278,285.4,274.6,285.4z"/>
</svg>
