<svg enable-background="new 0 0 190.44 70" viewBox="0 0 190.44 70" xmlns="http://www.w3.org/2000/svg" focusable="false" aria-hidden="true">
    <g fill="#FFFFFF">
        <path d="m15.66 33.2c1.98 0 2.72-1.66 2.72-3.18s-.74-3.18-2.72-3.18c-1.99 0-2.73 1.66-2.73 3.18.01 1.52.74 3.18 2.73 3.18zm0-5.07c1.01 0 1.33 1.03 1.33 1.9 0 .82-.36 1.89-1.33 1.89-1.01 0-1.34-1.04-1.34-1.89 0-.83.33-1.9 1.34-1.9z"></path>
        <path d="m25.42 31.57-1.22-.46c-.28.47-.6.79-1.04.79-.84 0-1.2-1.01-1.2-1.88 0-.84.29-1.88 1.2-1.88.48 0 .75.26 1.06.73l1.19-.54c-.3-.75-1.07-1.47-2.25-1.47-1.91 0-2.59 1.76-2.59 3.16 0 1.52.66 3.16 2.59 3.16 1.12 0 1.82-.66 2.26-1.61z"></path>
        <path d="m32.2 31.57-1.22-.46c-.28.47-.6.79-1.04.79-.84 0-1.2-1.01-1.2-1.88 0-.84.29-1.88 1.2-1.88.48 0 .75.26 1.06.73l1.19-.54c-.3-.75-1.07-1.47-2.25-1.47-1.91 0-2.59 1.76-2.59 3.16 0 1.52.66 3.16 2.59 3.16 1.13 0 1.83-.66 2.26-1.61z"></path>
        <path d="m34.5 26.95h1.33v6.14h-1.33z"></path>
        <path d="m42.96 26.95h-4.86v1.29h1.77v4.86h1.33v-4.86h1.76z"></path>
        <path d="m46.19 26.95-2.42 6.14h1.46l.46-1.19h2.31l.46 1.19h1.46l-2.43-6.14zm-.07 3.72.53-1.32c.06-.15.15-.36.18-.52.04.16.12.37.18.52l.53 1.32z"></path>
        <path d="m57.03 26.95h-1.33v3.21c0 .1.01.34.03.46-.05-.13-.19-.37-.25-.46l-2.25-3.22h-1.23v6.14h1.32v-3.25c0-.11 0-.32-.03-.46.07.14.2.39.26.46l2.32 3.25h1.17v-6.13z"></path>
        <path d="m59.7 26.95h1.33v6.14h-1.33z"></path>
        <path d="m65.03 30.56h1.72v-1.26h-1.72v-1.08h3.08v-1.27h-4.41v6.15h4.58v-1.28h-3.25z"></path>
        <path d="m0 41.12h1.76v4.86h1.34v-4.86h1.76v-1.28h-4.86z"></path>
        <path d="m12.02 41.82c0-1.06-.53-1.98-2.1-1.98h-2.99v6.14h1.33v-2.17h1.18l1.11 2.17h1.49l-1.15-2.37c.73-.3 1.13-1.12 1.13-1.79zm-2.08.73h-1.68v-1.45h1.68c.54 0 .69.36.69.72 0 .38-.17.73-.69.73z"></path>
        <path d="m16.1 39.84-2.42 6.14h1.46l.46-1.19h2.31l.46 1.19h1.46l-2.43-6.14zm-.07 3.72.53-1.33c.06-.15.15-.36.18-.52.04.16.12.37.18.52l.53 1.33z"></path>
        <path d="m25.45 43.05c0 .1.01.34.03.47-.05-.13-.19-.37-.25-.46l-2.25-3.22h-1.22v6.14h1.32v-3.26c0-.11 0-.32-.03-.46.07.14.2.39.26.46l2.32 3.26h1.17v-6.14h-1.33v3.21z"></path>
        <path d="m31.52 42.15c-.57-.19-1.04-.34-1.04-.66s.26-.5.75-.5c.55 0 .84.28 1.01.66l1.19-.39c-.24-.87-1-1.54-2.13-1.54-1.37 0-2.15.79-2.15 1.74 0 1.28 1.09 1.62 2.01 1.92.64.2 1.17.37 1.17.8 0 .42-.37.63-.92.63-.56 0-1.04-.4-1.31-.98l-1.19.45c.37 1.12 1.27 1.8 2.46 1.8 1.28 0 2.29-.69 2.29-1.89-.01-1.35-1.21-1.74-2.14-2.04z"></path>
        <path d="m38.57 39.84h-2.72v6.14h1.33v-2.2h1.39c1.53 0 2.14-1.05 2.14-1.97 0-.98-.56-1.97-2.14-1.97zm.05 2.68h-1.44v-1.42h1.44c.54 0 .7.4.7.71.01.33-.19.71-.7.71z"></path>
        <path d="m45.06 39.73c-1.99 0-2.73 1.66-2.73 3.18s.74 3.18 2.73 3.18c1.98 0 2.72-1.66 2.72-3.18s-.74-3.18-2.72-3.18zm0 5.06c-1.01 0-1.34-1.04-1.34-1.89 0-.82.32-1.9 1.34-1.9 1.01 0 1.33 1.03 1.33 1.9 0 .82-.36 1.89-1.33 1.89z"></path>
        <path d="m55.11 41.82c0-1.06-.53-1.98-2.1-1.98h-2.99v6.14h1.33v-2.17h1.18l1.11 2.17h1.49l-1.13-2.37c.72-.3 1.11-1.12 1.11-1.79zm-2.08.73h-1.68v-1.45h1.68c.54 0 .69.36.69.72.01.38-.16.73-.69.73z"></path>
        <path d="m56.91 41.12h1.76v4.86h1.33v-4.86h1.77v-1.28h-4.86z"></path>
        <path d="m66.11 42.15c-.57-.19-1.04-.34-1.04-.66s.26-.5.75-.5c.55 0 .84.28 1.01.66l1.19-.39c-.24-.87-1-1.54-2.13-1.54-1.37 0-2.15.79-2.15 1.74 0 1.28 1.09 1.62 2.01 1.92.64.2 1.17.37 1.17.8 0 .42-.37.63-.92.63-.56 0-1.04-.4-1.31-.98l-1.19.45c.37 1.12 1.27 1.8 2.46 1.8 1.28 0 2.29-.69 2.29-1.89-.01-1.35-1.21-1.74-2.14-2.04z"></path>
        <path d="m28.37 6.72c-.68 0-1.19-.37-1.44-.91l-.72.26c.27.79 1.07 1.37 2.14 1.37 1.16 0 2.02-.64 2.02-1.77 0-1.21-1-1.66-1.86-1.98-.69-.25-1.32-.51-1.32-1.08 0-.5.4-.81 1.04-.81.6 0 1 .28 1.15.62l.7-.24c-.18-.63-.82-1.1-1.8-1.1-1.19 0-1.89.69-1.89 1.52 0 1.07.94 1.47 1.8 1.78.72.26 1.39.59 1.39 1.3 0 .68-.48 1.04-1.21 1.04z"></path>
        <path d="m36.97 6.61h-3.08v-2.09h1.9v-.72h-1.9v-1.89h2.89v-.72h-3.65v6.14h3.84z"></path>
        <path d="m40.46 4.7h1.36l1.26 2.63h.86l-1.32-2.68c1.03-.21 1.43-.98 1.43-1.71 0-.87-.46-1.75-1.94-1.75h-2.41v6.14h.76zm0-2.8h1.68c.9 0 1.15.6 1.15 1.05 0 .51-.29 1.04-1.15 1.04h-1.68z"></path>
        <path d="m49.19 7.33 2.1-6.14h-.82l-1.42 4.44c-.05.18-.12.4-.18.62-.06-.23-.13-.45-.18-.62l-1.47-4.44h-.82l2.11 6.14z"></path>
        <path d="m53.74 1.19h.76v6.14h-.76z"></path>
        <path d="m59.83 6.72c-1.23 0-1.75-1.24-1.75-2.46 0-1.12.44-2.47 1.75-2.47.68 0 1.01.32 1.3.75l.68-.35c-.27-.55-.85-1.11-1.98-1.11-1.82 0-2.54 1.63-2.54 3.18 0 1.56.68 3.18 2.54 3.18 1.08 0 1.72-.55 2.04-1.24l-.7-.26c-.29.46-.66.78-1.34.78z"></path>
        <path d="m68.38 6.61h-3.08v-2.09h1.91v-.72h-1.91v-1.89h2.89v-.72h-3.65v6.14h3.84z"></path>
        <path d="m33.64 17.75h1.59c1.44 0 1.98-.99 1.98-1.83 0-.91-.49-1.84-1.98-1.84h-2.35v6.14h.76zm0-2.97h1.64c.92 0 1.17.65 1.17 1.13 0 .53-.3 1.12-1.17 1.12h-1.64z"></path>
        <path d="m41.8 20.32c1.32 0 2.21-.65 2.21-2.41v-3.83h-.76v3.83c0 1.35-.66 1.69-1.45 1.69s-1.44-.34-1.44-1.69v-3.83h-.76v3.83c0 1.77.91 2.41 2.2 2.41z"></path>
        <path d="m51.09 15.7c0-.82-.46-1.62-1.91-1.62h-2.18v6.14h2.32c1.5 0 1.99-.93 1.99-1.76 0-.7-.41-1.25-1.12-1.47.57-.26.9-.73.9-1.29zm-.54 2.8c0 .49-.25 1.01-1.15 1.01h-1.64v-2.14h1.36c1.15 0 1.43.55 1.43 1.13zm-1.52-1.82h-1.26v-1.91h1.46c.92 0 1.11.49 1.11.94-.01.58-.44.97-1.31.97z"></path>
        <path d="m54.07 14.07v6.15h3.78v-.74h-3.02v-5.41z"></path>
        <path d="m60.3 14.07h.76v6.14h-.76z"></path>
        <path d="m66.4 20.32c1.08 0 1.72-.55 2.04-1.24l-.7-.26c-.28.46-.66.78-1.33.78-1.23 0-1.75-1.24-1.75-2.46 0-1.12.44-2.47 1.75-2.47.68 0 1.01.32 1.3.75l.68-.35c-.27-.55-.85-1.11-1.98-1.11-1.82 0-2.54 1.63-2.54 3.18-.01 1.57.67 3.18 2.53 3.18z"></path>
    </g>
    <g fill="#FFFFFF">
        <path d="m155.44 0c-19.3 0-35.01 15.7-35.01 35s15.7 35 35.01 35c19.3 0 35-15.7 35-35s-15.7-35-35-35zm0 59.04c-13.26 0-24.04-10.78-24.04-24.04 0-13.25 10.79-24.04 24.04-24.04s24.04 10.78 24.04 24.04c0 13.25-10.78 24.04-24.04 24.04z"></path>
        <path d="m87.3.45c-3.03 0-5.48 2.45-5.48 5.48v58.14c0 3.03 2.45 5.48 5.48 5.48s5.48-2.45 5.48-5.48v-58.14c.01-3.03-2.45-5.48-5.48-5.48z"></path>
        <path d="m106.55 16.18c-3.03 0-5.48 2.45-5.48 5.48v42.41c0 3.03 2.45 5.48 5.48 5.48s5.48-2.45 5.48-5.48v-42.41c0-3.03-2.46-5.48-5.48-5.48z"></path>
    </g>
    <path d="m112.47 6.36c0 3.27-2.65 5.93-5.93 5.93-3.27 0-5.93-2.65-5.93-5.93s2.65-5.93 5.93-5.93 5.93 2.66 5.93 5.93z" fill="#c90c0f"></path>
    <ellipse cx="68.05" cy="63.62" fill="#fd0" rx="5.93" ry="5.93" transform="matrix(.7071 -.7071 .7071 .7071 -25.0587 66.7508)"></ellipse>
</svg>