<?xml version="1.0" encoding="UTF-8" standalone="no"?>
<!-- Created with Inkscape (http://www.inkscape.org/) -->

<svg
   xmlns:dc="http://purl.org/dc/elements/1.1/"
   xmlns:cc="http://creativecommons.org/ns#"
   xmlns:rdf="http://www.w3.org/1999/02/22-rdf-syntax-ns#"
   xmlns:svg="http://www.w3.org/2000/svg"
   xmlns="http://www.w3.org/2000/svg"
   xmlns:sodipodi="http://sodipodi.sourceforge.net/DTD/sodipodi-0.dtd"
   xmlns:inkscape="http://www.inkscape.org/namespaces/inkscape"
   width="52.419338mm"
   height="18.806433mm"
   viewBox="0 0 185.73781 66.636966"
   id="svg19964"
   version="1.1"
   inkscape:version="0.91 r13725"
   sodipodi:docname="TER Centre.svg">
  <defs
     id="defs19966" />
  <sodipodi:namedview
     id="base"
     pagecolor="#ffffff"
     bordercolor="#666666"
     borderopacity="1.0"
     inkscape:pageopacity="0.0"
     inkscape:pageshadow="2"
     inkscape:zoom="5.6"
     inkscape:cx="115.08926"
     inkscape:cy="56.982239"
     inkscape:document-units="px"
     inkscape:current-layer="layer1"
     showgrid="false"
     fit-margin-left="1"
     fit-margin-top="1"
     fit-margin-bottom="1"
     fit-margin-right="1"
     inkscape:window-width="1920"
     inkscape:window-height="1017"
     inkscape:window-x="-8"
     inkscape:window-y="-8"
     inkscape:window-maximized="1" />
  <metadata
     id="metadata19969">
    <rdf:RDF>
      <cc:Work
         rdf:about="">
        <dc:format>image/svg+xml</dc:format>
        <dc:type
           rdf:resource="http://purl.org/dc/dcmitype/StillImage" />
        <dc:title></dc:title>
      </cc:Work>
    </rdf:RDF>
  </metadata>
  <g
     inkscape:label="Calque 1"
     inkscape:groupmode="layer"
     id="layer1"
     transform="translate(-109.80966,-786.72229)">
    <g
       id="g20001">
      <path
         inkscape:connector-curvature="0"
         id="path17352"
         style="fill:#00adef;fill-opacity:1;fill-rule:evenodd;stroke:none"
         d="m 228.05892,846.52892 c -12.24121,5.9668 -29.73388,3.5376 -33.69506,-13.67431 l 3.78784,-5.8667 c 9.15528,19.48486 13.67188,20.41381 29.90722,19.54101 l 0,0 z" />
      <path
         inkscape:connector-curvature="0"
         id="path17354"
         style="fill:#254aa5;fill-opacity:1;fill-rule:evenodd;stroke:none"
         d="m 181.0936,823.34288 c -0.86426,-0.95459 -3.14697,-2.00561 -6.2146,-2.49022 -2.98951,-0.47364 -9.17115,-0.79957 -15.89966,2.6538 -7.01173,3.59986 -11.54053,10.29297 -9.50561,16.61865 0.0208,-0.009 -5.91188,2.19727 -10.34913,1.29638 -2.39624,-0.48827 -4.64111,-2.26073 -5.36011,-4.61303 -1.10839,-3.61205 -0.19165,-9.84497 6.0315,-15.52857 8.22021,-7.5122 20.56274,-10.19531 25.83251,-11.33911 2.41823,-0.52734 2.73073,-0.60669 2.81373,-0.95336 0.039,-0.15625 0.12695,-0.71045 -0.3601,-1.28053 -0.74342,-0.8728 -2.85889,-1.781 -8.7317,-1.156 -6.02295,0.64332 -14.28467,3.0835 -16.7456,3.84765 1.69555,-3.55835 6.91406,-12.96263 7.854,-14.75341 1.5149,-2.88207 2.06543,-4.13086 2.06543,-4.80957 0,-0.19409 -0.0561,-0.33203 -0.16968,-0.43335 -0.85938,-0.78369 -5.78247,1.8689 -9.54834,6.3025 -3.78174,4.45312 -5.78613,8.02245 -8.74878,12.7185 -3.29712,5.22827 -13.62792,7.87476 -18.63158,9.24195 -1.32692,0.36132 -1.7273,0.42723 -1.89577,0.61035 -0.16601,0.18066 -0.2185,0.4248 -0.14403,0.68481 0.42236,1.46484 2.96265,3.05297 5.57738,3.17505 1.9104,0.0879 4.17115,-0.21363 7.69165,-1.19019 -1.88963,2.99805 -5.08056,9.59716 -5.08056,15.9021 0,4.91333 2.26074,10.72998 11.82618,11.63574 7.53906,0.71655 14.84618,-1.96045 19.9707,-3.92456 5.7959,4.49097 13.68163,4.25537 13.69628,4.25537 20.21729,0 29.61427,-16.20727 31.34767,-19.21386 -0.01,0.0281 1.85302,6.0437 5.37597,10.9021 4.83399,6.66991 11.53564,8.76831 18.39844,8.13476 8.16893,-0.75684 13.41552,-7.0874 13.91112,-8.25561 0.24415,-0.57861 -0.0125,-1.2024 -1.49901,-0.40406 -1.27686,0.6836 -2.64649,1.70045 -6.03028,2.3401 -15.15137,2.86132 -19.66308,-12.87354 -22.92236,-19.60084 -0.4419,-0.97168 -0.84351,-1.65771 -1.25,-1.83228 -0.93017,-0.35766 -8.06397,0.88989 -8.85253,2.41212 -7.948,14.79003 -18.27149,18.07006 -26.11452,18.18725 -2.62572,0.0379 -4.82421,-0.49804 -6.59301,-1.41602 3.0664,-1.51611 5.23315,-2.68921 7.44629,-4.1626 8.12622,-5.40893 11.08642,-11.20848 11.08642,-13.07617 -0.0233,-0.21484 -0.13916,-0.33325 -0.27831,-0.48584 l 0,0 m -23.65967,11.43678 c 0,-0.36255 0.039,-0.73365 0.11712,-1.1145 0.45289,-2.16188 2.13135,-4.4104 4.28101,-5.72877 6.82495,-4.1858 12.51098,-2.9541 13.33862,-2.49512 0.0952,0.0537 0.039,0.11712 -0.0256,0.27589 -0.77638,1.97631 -7.88942,8.20922 -16.99952,11.53197 -0.41382,-0.67992 -0.71167,-1.63574 -0.71167,-2.46947 l 0,0 z" />
      <path
         inkscape:connector-curvature="0"
         id="path17356"
         style="fill:#1c63b7;fill-opacity:1;fill-rule:evenodd;stroke:none"
         d="m 231.36704,831.25671 c -0.47853,0.87036 -1.11818,1.53076 -1.90919,1.97631 -0.79101,0.44434 -1.72363,0.66651 -2.79785,0.66651 -1.9519,0 -3.55225,-0.68116 -4.80958,-2.04712 -1.25487,-1.3623 -1.88232,-3.11279 -1.88232,-5.24903 0,-1.9043 0.57374,-3.49854 1.71875,-4.77661 1.14502,-1.2793 2.58057,-1.92139 4.30665,-1.92139 0.78857,0 1.56494,0.16969 2.31934,0.50781 0.75682,0.3418 1.18163,0.51027 1.27685,0.51027 0.11225,0 0.20507,-0.0292 0.27466,-0.083 0.072,-0.0574 0.14526,-0.16235 0.2185,-0.3186 l 0.86181,0 0,3.72802 -0.45897,0 c -0.20997,0 -0.38087,-0.0415 -0.50049,-0.12087 -0.12088,-0.0805 -0.23438,-0.22339 -0.3418,-0.43092 l -0.0915,-0.17577 c -0.84961,-1.61988 -1.76026,-2.43043 -2.7356,-2.43043 -1.05225,0 -1.88965,0.47608 -2.50489,1.42945 -0.61522,0.95337 -0.92529,2.24487 -0.92529,3.87818 0,1.89696 0.36622,3.38256 1.09742,4.45556 0.73486,1.07178 1.7395,1.60644 3.01391,1.60644 0.59082,0 1.11695,-0.14281 1.57226,-0.42969 0.45899,-0.28807 0.94483,-0.77514 1.45509,-1.46727 l 0.84229,0.69213 0,0 m 1.20361,2.41089 0,-0.44067 c 0,-0.2356 0.13427,-0.43702 0.40282,-0.60548 0.0879,-0.0574 0.15625,-0.10137 0.20753,-0.14037 0.14892,-0.11225 0.24902,-0.23682 0.30272,-0.37354 0.0538,-0.13671 0.0781,-0.3601 0.0781,-0.66284 l 0,-0.44067 0,-8.62305 c 0,-0.31007 -0.0269,-0.53589 -0.083,-0.6726 -0.0561,-0.13795 -0.15381,-0.2588 -0.29785,-0.36378 -0.0512,-0.0379 -0.11475,-0.0794 -0.19776,-0.13061 -0.27588,-0.17579 -0.41259,-0.37964 -0.41259,-0.61524 l 0,-0.44067 7.81982,0 c 0.50537,0 0.89599,-0.022 1.17675,-0.0696 0.28077,-0.0489 0.55909,-0.12818 0.83374,-0.23927 l 0,3.56202 -0.55297,0 c -0.35889,0 -0.65552,-0.2832 -0.88623,-0.85205 -0.11225,-0.28077 -0.21241,-0.48463 -0.3003,-0.61768 -0.14892,-0.22949 -0.33691,-0.39306 -0.56274,-0.49195 -0.22827,-0.0953 -0.58716,-0.14281 -1.07788,-0.14281 l -0.25147,0 -2.01171,0 0,4.78271 0.85938,0 c 0.40526,0 0.68481,-0.022 0.84106,-0.0708 0.15625,-0.0464 0.28076,-0.12695 0.37475,-0.23804 0.0623,-0.0794 0.1355,-0.22338 0.22217,-0.42725 0.17578,-0.39916 0.37719,-0.59936 0.60058,-0.59936 l 0.5127,0 0,3.80493 -0.5127,0 c -0.22339,0 -0.4248,-0.20385 -0.60058,-0.61035 -0.0866,-0.20997 -0.15991,-0.35644 -0.22217,-0.43702 -0.094,-0.11837 -0.2185,-0.20018 -0.37475,-0.2417 -0.15625,-0.0451 -0.4358,-0.0671 -0.84106,-0.0671 l -0.85938,0 0,5.25879 2.75756,0 c 0.73364,0 1.23413,-0.0696 1.49293,-0.20995 0.26122,-0.14039 0.4663,-0.37599 0.61645,-0.70557 0.0549,-0.14282 0.1245,-0.35034 0.20386,-0.61768 0.16358,-0.58349 0.41991,-0.87769 0.77026,-0.87769 l 0.531,0 0,3.61695 -10.55907,0 0,0 m 23.208,-13.50952 0,0.44067 c 0,0.2417 -0.13305,0.44678 -0.40283,0.61524 -0.0842,0.0574 -0.15137,0.0989 -0.19287,0.13061 -0.15136,0.105 -0.25635,0.22949 -0.31373,0.37232 -0.0599,0.14405 -0.0891,0.40283 -0.0891,0.77637 l 0,0.32714 0,10.84717 -1.24389,0 -7.07886,-11.15601 0,8.70728 c 0,0.46875 0.0341,0.77392 0.1025,0.91797 0.0696,0.14038 0.2002,0.28076 0.39062,0.41748 0.033,0.0195 0.0684,0.0415 0.1025,0.0671 0.26857,0.16846 0.40284,0.36987 0.40284,0.60547 l 0,0.44068 -3.23486,0 0,-0.44068 c 0,-0.2356 0.13427,-0.43701 0.40282,-0.60547 0.0891,-0.0574 0.15625,-0.10138 0.20753,-0.14038 0.14892,-0.11225 0.24659,-0.23681 0.30274,-0.37354 0.0538,-0.13671 0.0794,-0.3601 0.0794,-0.66283 l 0,-0.44068 0,-8.62305 c 0,-0.31006 -0.0281,-0.53589 -0.0842,-0.6726 -0.0561,-0.13795 -0.15625,-0.2588 -0.29785,-0.36377 -0.0512,-0.0379 -0.11475,-0.0794 -0.2002,-0.13062 -0.27221,-0.17578 -0.41015,-0.37963 -0.41015,-0.61523 l 0,-0.44068 4.30908,0 5.00611,7.8479 0,-5.625 c 0,-0.31006 -0.0281,-0.53589 -0.0817,-0.6726 -0.0586,-0.13795 -0.15625,-0.2588 -0.29908,-0.36377 -0.0464,-0.0317 -0.10862,-0.0733 -0.19775,-0.13062 -0.26245,-0.16846 -0.39428,-0.37353 -0.39428,-0.61523 l 0,-0.44068 3.21532,0 0,0 m 3.96485,13.50953 0,-0.44068 c 0,-0.22949 0.12695,-0.42725 0.3833,-0.5957 0.0855,-0.0574 0.15869,-0.105 0.2124,-0.15015 0.15015,-0.105 0.2539,-0.22949 0.3125,-0.37354 0.061,-0.14282 0.0879,-0.40161 0.0879,-0.77392 l 0,-0.32959 0,-9.73266 -0.84717,0 c -0.43701,0 -0.78125,0.0733 -1.03027,0.22339 -0.2478,0.14892 -0.44923,0.40771 -0.59815,0.77392 -0.0415,0.11225 -0.0953,0.25879 -0.15625,0.44068 -0.1709,0.47851 -0.47241,0.71777 -0.91064,0.71777 l -0.36377,0 0,-3.57789 c 0.34912,0.105 0.70312,0.18555 1.06445,0.23194 0.35645,0.0512 0.7544,0.0769 1.19141,0.0769 l 6.47949,0 c 0.43946,0 0.84228,-0.0256 1.20361,-0.0769 0.36255,-0.0464 0.72022,-0.12695 1.07056,-0.23194 l 0,3.57789 -0.36255,0 c -0.43457,0 -0.7312,-0.23071 -0.89111,-0.69215 -0.061,-0.19165 -0.11713,-0.3479 -0.16846,-0.4663 -0.15014,-0.36621 -0.34912,-0.625 -0.60303,-0.77392 -0.25146,-0.15015 -0.59936,-0.22339 -1.0376,-0.22339 l -0.8435,0 0,9.9475 0,0.14892 c 0,0.38575 0.0317,0.64698 0.0915,0.78492 0.0648,0.13672 0.19288,0.271 0.38575,0.40161 0.0232,0.0195 0.0561,0.0415 0.0927,0.0671 0.26856,0.16846 0.40284,0.36987 0.40284,0.60547 l 0,0.44068 -5.16601,0 0,0 m 13.2959,-2.66358 0,0.21484 c 0,0.46875 0.0341,0.77393 0.10012,0.91798 0.0708,0.14037 0.20264,0.28076 0.39308,0.41747 0.0317,0.0195 0.0659,0.0415 0.1025,0.0671 0.26855,0.16846 0.40038,0.36988 0.40038,0.60548 l 0,0.44067 -5.1831,0 0,-0.44067 c 0,-0.2356 0.13184,-0.43702 0.40039,-0.60548 0.0904,-0.0574 0.15625,-0.10137 0.20751,-0.14037 0.14894,-0.11225 0.24782,-0.23682 0.30274,-0.37354 0.0538,-0.13671 0.0806,-0.3601 0.0806,-0.66284 l 0,-0.44067 0,-8.62305 c 0,-0.3125 -0.0293,-0.53589 -0.083,-0.6726 -0.0586,-0.13795 -0.15748,-0.2588 -0.3003,-0.36378 -0.0512,-0.0379 -0.11475,-0.0794 -0.19775,-0.13061 -0.27344,-0.17579 -0.41015,-0.37964 -0.41015,-0.61524 l 0,-0.44067 6.29638,0 c 0.7727,0 1.38183,0.0476 1.82129,0.14038 0.44434,0.0927 0.81786,0.24537 1.12304,0.45654 0.41749,0.28076 0.74707,0.66895 0.99121,1.16455 0.24293,0.49316 0.36378,1.01563 0.36378,1.56494 0,1.07422 -0.31007,1.90674 -0.93018,2.4939 -0.61767,0.5835 -1.50269,0.87646 -2.65137,0.87646 -0.0281,0 -0.0854,-0.003 -0.16602,-0.01 -0.083,-0.005 -0.1416,-0.009 -0.18798,-0.009 0.9668,0.18189 1.71387,0.76173 2.24243,1.74805 0.033,0.0574 0.0549,0.0989 0.0671,0.13061 l 1.45751,2.69165 c 0.17579,0.31862 0.32471,0.56153 0.45166,0.72999 0.1294,0.16601 0.25269,0.28076 0.3711,0.34424 0.0756,0.039 0.18554,0.0855 0.32959,0.15015 0.33935,0.14281 0.51269,0.33447 0.51269,0.57739 l 0,0.45898 -3.92578,0 -3.34472,-6.25976 -0.63476,0 0,3.59619 0,0 m -0.0733,-9.60205 0,4.85474 c 0.0464,0.005 0.10737,0.0125 0.17333,0.0146 0.0708,0.004 0.16358,0.004 0.28199,0.004 0.94605,0 1.64551,-0.20143 2.09839,-0.60548 0.44922,-0.40527 0.67627,-1.03027 0.67627,-1.87989 0,-0.74462 -0.2002,-1.33543 -0.60791,-1.77245 -0.40284,-0.43701 -0.95825,-0.65307 -1.6626,-0.65307 -0.24414,0 -0.43091,0.002 -0.56885,0.009 -0.13671,0.008 -0.26855,0.0171 -0.39062,0.0293 l 0,0 m 8.47901,12.26562 0,-0.44067 c 0,-0.2356 0.13427,-0.43701 0.40282,-0.60548 0.0891,-0.0574 0.15625,-0.10137 0.20508,-0.14037 0.15137,-0.11225 0.24902,-0.23681 0.30517,-0.37354 0.0525,-0.13671 0.0781,-0.3601 0.0781,-0.66284 l 0,-0.44067 0,-8.62305 c 0,-0.31006 -0.0293,-0.53589 -0.083,-0.6726 -0.0574,-0.13795 -0.15625,-0.2588 -0.3003,-0.36378 -0.0489,-0.0379 -0.11475,-0.0794 -0.19531,-0.13061 -0.27465,-0.17579 -0.41259,-0.37964 -0.41259,-0.61524 l 0,-0.44067 7.81981,0 c 0.50294,0 0.896,-0.022 1.17676,-0.0696 0.28077,-0.0489 0.55787,-0.12818 0.83253,-0.23926 l 0,3.56201 -0.55176,0 c -0.35889,0 -0.65674,-0.2832 -0.88623,-0.85205 -0.11225,-0.28076 -0.21485,-0.48463 -0.3003,-0.61768 -0.15136,-0.22948 -0.33814,-0.39306 -0.56396,-0.49195 -0.22705,-0.0952 -0.58716,-0.14281 -1.0791,-0.14281 l -0.25146,0 -2.00929,0 0,4.78271 0.85694,0 c 0.4065,0 0.68726,-0.022 0.84351,-0.0707 0.15625,-0.0464 0.27954,-0.12695 0.37231,-0.23803 0.0635,-0.0794 0.13794,-0.22339 0.22461,-0.42725 0.17455,-0.39917 0.37598,-0.59937 0.59814,-0.59937 l 0.51391,0 0,3.80493 -0.51391,0 c -0.22216,0 -0.42359,-0.20385 -0.59814,-0.61035 -0.0866,-0.20996 -0.16113,-0.35644 -0.22461,-0.43701 -0.0928,-0.11838 -0.21606,-0.20019 -0.37231,-0.2417 -0.15625,-0.0451 -0.43701,-0.0671 -0.84351,-0.0671 l -0.85694,0 0,5.25878 2.75635,0 c 0.73242,0 1.23291,-0.0696 1.4917,-0.20995 0.26124,-0.14038 0.46875,-0.37598 0.6189,-0.70557 0.0549,-0.14281 0.12325,-0.35034 0.20386,-0.61768 0.16356,-0.58348 0.41748,-0.87768 0.76904,-0.87768 l 0.53222,0 0,3.61695 -10.55907,0 0,0 z" />
    </g>
  </g>
</svg>
