<?xml version="1.0" encoding="UTF-8" standalone="no"?>
<!-- Created with Inkscape (http://www.inkscape.org/) -->

<svg
   xmlns:dc="http://purl.org/dc/elements/1.1/"
   xmlns:cc="http://creativecommons.org/ns#"
   xmlns:rdf="http://www.w3.org/1999/02/22-rdf-syntax-ns#"
   xmlns:svg="http://www.w3.org/2000/svg"
   xmlns="http://www.w3.org/2000/svg"
   xmlns:sodipodi="http://sodipodi.sourceforge.net/DTD/sodipodi-0.dtd"
   xmlns:inkscape="http://www.inkscape.org/namespaces/inkscape"
   width="135.10841mm"
   height="35.855377mm"
   viewBox="0 0 478.7306 127.04661"
   id="svg13390"
   version="1.1"
   inkscape:version="0.91 r13725"
   sodipodi:docname="TER Basse-Normandie.svg">
  <defs
     id="defs13392">
    <clipPath
       id="clipPath9167"
       clipPathUnits="userSpaceOnUse">
      <path
         inkscape:connector-curvature="0"
         id="path9169"
         d="m 623.404,22.671 94.329,0 0,23.992 -94.329,0 0,-23.992 z" />
    </clipPath>
    <clipPath
       id="clipPath9179"
       clipPathUnits="userSpaceOnUse">
      <path
         inkscape:connector-curvature="0"
         id="path9181"
         d="m 623.404,19.158 94.329,0 0,31.018 -94.329,0 0,-31.018 z" />
    </clipPath>
    <clipPath
       id="clipPath9237"
       clipPathUnits="userSpaceOnUse">
      <path
         inkscape:connector-curvature="0"
         id="path9239"
         d="m 623.404,22.671 94.329,0 0,23.992 -94.329,0 0,-23.992 z" />
    </clipPath>
  </defs>
  <sodipodi:namedview
     id="base"
     pagecolor="#ffffff"
     bordercolor="#666666"
     borderopacity="1.0"
     inkscape:pageopacity="0.0"
     inkscape:pageshadow="2"
     inkscape:zoom="1.979899"
     inkscape:cx="152.35933"
     inkscape:cy="126.19566"
     inkscape:document-units="px"
     inkscape:current-layer="layer1"
     showgrid="false"
     fit-margin-left="1"
     fit-margin-bottom="1"
     fit-margin-top="1"
     fit-margin-right="1"
     inkscape:window-width="1920"
     inkscape:window-height="1017"
     inkscape:window-x="-8"
     inkscape:window-y="-8"
     inkscape:window-maximized="1" />
  <metadata
     id="metadata13395">
    <rdf:RDF>
      <cc:Work
         rdf:about="">
        <dc:format>image/svg+xml</dc:format>
        <dc:type
           rdf:resource="http://purl.org/dc/dcmitype/StillImage" />
        <dc:title></dc:title>
      </cc:Work>
    </rdf:RDF>
  </metadata>
  <g
     inkscape:label="Calque 1"
     inkscape:groupmode="layer"
     id="layer1"
     transform="translate(53.651047,-534.55319)">
    <g
       transform="matrix(4,0,0,4,-1584.6073,-4584.7933)"
       id="g13299">
      <g
         transform="matrix(1.25,0,0,-1.25,-395.63011,1339.0512)"
         id="g9163">
        <g
           clip-path="url(#clipPath9167)"
           id="g9165">
          <g
             transform="translate(668.728,23.8328)"
             id="g9171">
            <path
               inkscape:connector-curvature="0"
               id="path9173"
               style="fill:#59c134;fill-opacity:1;fill-rule:nonzero;stroke:none"
               d="m 0,0 c -4.837,-2.359 -11.748,-1.398 -13.314,5.403 l 1.497,2.318 C -9.471,2.247 -6.018,-0.324 0,0" />
          </g>
        </g>
      </g>
      <g
         transform="matrix(1.25,0,0,-1.25,-395.63011,1339.0512)"
         id="g9175">
        <g
           clip-path="url(#clipPath9179)"
           id="g9177">
          <g
             transform="translate(669.9911,32.0837)"
             id="g9183">
            <path
               inkscape:connector-curvature="0"
               id="path9185"
               style="fill:#59c134;fill-opacity:1;fill-rule:nonzero;stroke:none"
               d="m 0,0 c 0,-0.532 -0.354,-0.92 -0.987,-0.92 l -1.434,0 0,1.831 1.434,0 C -0.354,0.911 0,0.532 0,0 m 0.91,-0.043 c 0,0.76 -0.438,1.206 -0.901,1.393 0.405,0.16 0.809,0.623 0.809,1.273 0,1.013 -0.7,1.644 -1.813,1.644 l -2.337,0 0,-6.005 2.43,0 c 1.062,0 1.812,0.591 1.812,1.695 m -1.003,2.632 c 0,-0.556 -0.397,-0.86 -0.978,-0.86 l -1.35,0 0,1.72 1.35,0 c 0.581,0 0.978,-0.303 0.978,-0.86" />
          </g>
          <g
             transform="translate(675.2951,30.3458)"
             id="g9187">
            <path
               inkscape:connector-curvature="0"
               id="path9189"
               style="fill:#59c134;fill-opacity:1;fill-rule:nonzero;stroke:none"
               d="m 0,0 0,2.859 c 0,0.97 -0.589,1.468 -1.762,1.468 -0.709,0 -1.13,-0.143 -1.534,-0.616 L -2.732,3.18 c 0.237,0.304 0.464,0.413 0.936,0.413 0.667,0 0.936,-0.262 0.936,-0.801 l 0,-0.304 -1.131,0 c -0.977,0 -1.474,-0.514 -1.474,-1.231 0,-0.363 0.117,-0.692 0.337,-0.92 0.261,-0.261 0.616,-0.387 1.147,-0.387 0.531,0 0.826,0.126 1.138,0.438 L -0.843,0 0,0 Z m -0.86,1.544 c 0,-0.304 -0.057,-0.506 -0.186,-0.633 -0.227,-0.219 -0.471,-0.244 -0.8,-0.244 -0.54,0 -0.784,0.219 -0.784,0.606 0,0.389 0.261,0.617 0.768,0.617 l 1.002,0 0,-0.346 z" />
          </g>
          <g
             transform="translate(678.0024,30.2955)"
             id="g9191">
            <path
               inkscape:connector-curvature="0"
               id="path9193"
               style="fill:#59c134;fill-opacity:1;fill-rule:nonzero;stroke:none"
               d="M 0,0 C -0.699,0 -1.29,0.119 -1.795,0.615 L -1.23,1.18 C -0.885,0.827 -0.42,0.734 0,0.734 c 0.525,0 0.937,0.186 0.937,0.59 0,0.287 -0.159,0.472 -0.573,0.506 l -0.683,0.059 c -0.802,0.067 -1.266,0.431 -1.266,1.181 0,0.835 0.717,1.307 1.611,1.307 0.641,0 1.189,-0.134 1.586,-0.48 L 1.072,3.348 C 0.802,3.576 0.423,3.66 0.019,3.66 c -0.516,0 -0.778,-0.228 -0.778,-0.548 0,-0.252 0.136,-0.447 0.591,-0.489 L 0.508,2.564 C 1.308,2.497 1.781,2.117 1.781,1.357 1.781,0.464 1.02,0 0,0" />
          </g>
          <g
             transform="translate(682.1277,30.2955)"
             id="g9195">
            <path
               inkscape:connector-curvature="0"
               id="path9197"
               style="fill:#59c134;fill-opacity:1;fill-rule:nonzero;stroke:none"
               d="M 0,0 C -0.701,0 -1.29,0.119 -1.796,0.615 L -1.231,1.18 C -0.885,0.827 -0.422,0.734 0,0.734 c 0.522,0 0.936,0.186 0.936,0.59 0,0.287 -0.16,0.472 -0.573,0.506 l -0.684,0.059 c -0.801,0.067 -1.265,0.431 -1.265,1.181 0,0.835 0.718,1.307 1.611,1.307 0.641,0 1.189,-0.134 1.586,-0.48 L 1.072,3.348 C 0.801,3.576 0.422,3.66 0.018,3.66 c -0.516,0 -0.776,-0.228 -0.776,-0.548 0,-0.252 0.134,-0.447 0.589,-0.489 L 0.506,2.564 C 1.308,2.497 1.78,2.117 1.78,1.357 1.78,0.464 1.021,0 0,0" />
          </g>
          <g
             transform="translate(688.3613,32.2355)"
             id="g9199">
            <path
               inkscape:connector-curvature="0"
               id="path9201"
               style="fill:#59c134;fill-opacity:1;fill-rule:nonzero;stroke:none"
               d="m 0,0 0,0.38 c 0,1.214 -0.668,2.058 -1.814,2.058 -1.097,0 -1.814,-0.802 -1.814,-2.185 0,-1.628 0.852,-2.193 1.923,-2.193 0.752,0 1.164,0.228 1.603,0.667 L -0.65,-0.76 c -0.303,-0.303 -0.557,-0.438 -1.038,-0.438 -0.7,0 -1.088,0.464 -1.088,1.198 L 0,0 Z m -0.852,0.599 -1.924,0 c 0.008,0.261 0.026,0.388 0.111,0.581 0.135,0.322 0.446,0.541 0.851,0.541 0.405,0 0.709,-0.219 0.843,-0.541 0.085,-0.193 0.11,-0.32 0.119,-0.581" />
          </g>
          <g
             transform="translate(680.2423,22.8308)"
             id="g9203">
            <path
               inkscape:connector-curvature="0"
               id="path9205"
               style="fill:#59c134;fill-opacity:1;fill-rule:nonzero;stroke:none"
               d="m 0,0 -2.774,4.225 0,-4.225 -0.911,0 0,6.005 0.834,0 2.775,-4.217 0,4.217 0.912,0 L 0.836,0 0,0 Z" />
          </g>
          <g
             transform="translate(685.9102,24.9736)"
             id="g9207">
            <path
               inkscape:connector-curvature="0"
               id="path9209"
               style="fill:#59c134;fill-opacity:1;fill-rule:nonzero;stroke:none"
               d="m 0,0 c 0,0.716 -0.101,1.256 -0.506,1.678 -0.278,0.286 -0.7,0.506 -1.281,0.506 -0.582,0 -0.995,-0.22 -1.275,-0.506 C -3.466,1.256 -3.567,0.716 -3.567,0 c 0,-0.726 0.101,-1.265 0.505,-1.688 0.28,-0.286 0.693,-0.505 1.275,-0.505 0.581,0 1.003,0.219 1.281,0.505 C -0.101,-1.265 0,-0.726 0,0 m -0.859,0 c 0,-0.464 -0.036,-0.911 -0.296,-1.172 -0.161,-0.161 -0.38,-0.254 -0.632,-0.254 -0.253,0 -0.465,0.093 -0.625,0.254 -0.261,0.261 -0.295,0.708 -0.295,1.172 0,0.463 0.034,0.91 0.295,1.172 0.16,0.16 0.372,0.244 0.625,0.244 0.252,0 0.471,-0.084 0.632,-0.244 C -0.895,0.91 -0.859,0.463 -0.859,0" />
          </g>
          <g
             transform="translate(689.4276,26.1029)"
             id="g9211">
            <path
               inkscape:connector-curvature="0"
               id="path9213"
               style="fill:#59c134;fill-opacity:1;fill-rule:nonzero;stroke:none"
               d="m 0,0 c -0.195,0.194 -0.346,0.287 -0.64,0.287 -0.465,0 -0.853,-0.371 -0.853,-0.962 l 0,-2.597 -0.86,0 0,4.276 0.843,0 0,-0.464 c 0.218,0.303 0.659,0.515 1.138,0.515 0.414,0 0.726,-0.11 1.021,-0.404 L 0,0 Z" />
          </g>
          <g
             transform="translate(695.9896,22.8308)"
             id="g9215">
            <path
               inkscape:connector-curvature="0"
               id="path9217"
               style="fill:#59c134;fill-opacity:1;fill-rule:nonzero;stroke:none"
               d="m 0,0 0,2.606 c 0,0.666 -0.38,0.953 -0.86,0.953 -0.464,0 -0.886,-0.294 -0.886,-0.911 l 0,-2.648 -0.86,0 0,2.606 c 0,0.666 -0.379,0.953 -0.861,0.953 -0.48,0 -0.884,-0.294 -0.884,-0.953 l 0,-2.606 -0.861,0 0,4.276 0.843,0 0,-0.43 c 0.287,0.313 0.708,0.481 1.139,0.481 0.531,0 0.945,-0.211 1.213,-0.625 0.346,0.422 0.777,0.625 1.342,0.625 0.439,0 0.827,-0.144 1.08,-0.388 C 0.734,3.618 0.86,3.214 0.86,2.732 L 0.86,0 0,0 Z" />
          </g>
          <g
             transform="translate(701.3202,22.8308)"
             id="g9219">
            <path
               inkscape:connector-curvature="0"
               id="path9221"
               style="fill:#59c134;fill-opacity:1;fill-rule:nonzero;stroke:none"
               d="m 0,0 0,2.859 c 0,0.97 -0.591,1.468 -1.763,1.468 -0.709,0 -1.131,-0.144 -1.535,-0.616 l 0.565,-0.532 c 0.237,0.305 0.464,0.414 0.936,0.414 0.666,0 0.936,-0.261 0.936,-0.801 l 0,-0.304 -1.13,0 c -0.979,0 -1.475,-0.515 -1.475,-1.232 0,-0.362 0.117,-0.691 0.337,-0.919 0.26,-0.262 0.616,-0.387 1.146,-0.387 0.532,0 0.827,0.125 1.139,0.438 L -0.844,0 0,0 Z M -0.861,1.543 C -0.861,1.24 -0.92,1.037 -1.046,0.91 -1.273,0.691 -1.519,0.666 -1.848,0.666 c -0.538,0 -0.785,0.219 -0.785,0.607 0,0.389 0.263,0.616 0.768,0.616 l 1.004,0 0,-0.346 z" />
          </g>
          <g
             transform="translate(705.2495,22.8308)"
             id="g9223">
            <path
               inkscape:connector-curvature="0"
               id="path9225"
               style="fill:#59c134;fill-opacity:1;fill-rule:nonzero;stroke:none"
               d="m 0,0 0,2.606 c 0,0.666 -0.379,0.953 -0.859,0.953 -0.482,0 -0.887,-0.294 -0.887,-0.953 l 0,-2.606 -0.86,0 0,4.276 0.843,0 0,-0.43 c 0.297,0.321 0.709,0.481 1.139,0.481 0.439,0 0.802,-0.144 1.054,-0.388 C 0.76,3.618 0.862,3.214 0.862,2.732 L 0.862,0 0,0 Z" />
          </g>
          <g
             transform="translate(710.7319,22.8308)"
             id="g9227">
            <path
               inkscape:connector-curvature="0"
               id="path9229"
               style="fill:#59c134;fill-opacity:1;fill-rule:nonzero;stroke:none"
               d="m 0,0 0,6.005 -0.861,0 0,-2.159 c -0.31,0.371 -0.666,0.481 -1.12,0.481 -0.43,0 -0.802,-0.144 -1.037,-0.38 -0.43,-0.43 -0.481,-1.155 -0.481,-1.804 0,-0.65 0.051,-1.384 0.481,-1.814 0.235,-0.236 0.614,-0.379 1.045,-0.379 0.465,0 0.808,0.117 1.13,0.505 L -0.843,0 0,0 Z m -0.861,2.143 c 0,-0.759 -0.108,-1.426 -0.884,-1.426 -0.776,0 -0.895,0.667 -0.895,1.426 0,0.758 0.119,1.416 0.895,1.416 0.776,0 0.884,-0.658 0.884,-1.416" />
          </g>
          <path
             inkscape:connector-curvature="0"
             id="path9231"
             style="fill:#59c134;fill-opacity:1;fill-rule:nonzero;stroke:none"
             d="m 712.099,27.107 0.86,0 0,-4.276 -0.86,0 0,4.276 z m -0.025,1.754 0.91,0 0,-0.91 -0.91,0 0,0.91 z" />
        </g>
      </g>
      <g
         transform="matrix(1.25,0,0,-1.25,-395.63011,1339.0512)"
         id="g9233">
        <g
           clip-path="url(#clipPath9237)"
           id="g9235">
          <g
             transform="translate(717.7328,24.7197)"
             id="g9241">
            <path
               inkscape:connector-curvature="0"
               id="path9243"
               style="fill:#59c134;fill-opacity:1;fill-rule:nonzero;stroke:none"
               d="m 0,0 0,0.381 c 0,1.214 -0.666,2.057 -1.813,2.057 -1.097,0 -1.814,-0.801 -1.814,-2.184 0,-1.628 0.852,-2.193 1.924,-2.193 0.75,0 1.163,0.227 1.603,0.666 l -0.55,0.514 c -0.303,-0.303 -0.556,-0.439 -1.037,-0.439 -0.7,0 -1.088,0.464 -1.088,1.198 L 0,0 Z m -0.852,0.599 -1.923,0 c 0.009,0.261 0.026,0.389 0.111,0.583 0.133,0.319 0.445,0.538 0.851,0.538 0.404,0 0.708,-0.219 0.843,-0.538 0.084,-0.194 0.11,-0.322 0.118,-0.583" />
          </g>
          <g
             transform="translate(640.822,29.0746)"
             id="g9245">
            <path
               inkscape:connector-curvature="0"
               id="path9247"
               style="fill:#254aa5;fill-opacity:1;fill-rule:nonzero;stroke:none"
               d="M 0,0 C 0,0.144 0.015,0.289 0.046,0.44 0.225,1.294 0.888,2.182 1.737,2.703 4.435,4.358 6.682,3.871 7.008,3.69 7.047,3.669 7.024,3.643 6.999,3.581 6.691,2.8 3.881,0.338 0.281,-0.977 0.117,-0.707 0,-0.33 0,0 M 9.349,4.519 C 9.007,4.896 8.106,5.311 6.892,5.503 5.712,5.69 3.269,5.819 0.611,4.454 -2.16,3.032 -3.949,0.387 -3.146,-2.112 c 0.009,0.003 -2.335,-0.869 -4.089,-0.514 -0.947,0.195 -1.834,0.894 -2.118,1.824 -0.437,1.427 -0.075,3.89 2.384,6.136 3.248,2.968 8.125,4.029 10.207,4.481 0.955,0.208 1.079,0.239 1.112,0.376 0.016,0.061 0.049,0.281 -0.143,0.507 -0.293,0.344 -1.129,0.703 -3.45,0.455 -2.38,-0.253 -5.644,-1.218 -6.617,-1.52 0.67,1.406 2.732,5.123 3.104,5.831 0.599,1.138 0.816,1.632 0.816,1.9 0,0.077 -0.022,0.131 -0.067,0.171 -0.339,0.309 -2.285,-0.739 -3.773,-2.491 -1.494,-1.759 -2.286,-3.169 -3.457,-5.025 -1.303,-2.066 -5.385,-3.112 -7.362,-3.652 -0.523,-0.142 -0.683,-0.169 -0.749,-0.241 -0.066,-0.071 -0.087,-0.168 -0.056,-0.271 0.166,-0.578 1.17,-1.206 2.203,-1.254 0.754,-0.035 1.648,0.084 3.038,0.47 -0.746,-1.185 -2.007,-3.793 -2.007,-6.283 0,-1.94 0.894,-4.24 4.674,-4.598 2.978,-0.283 5.866,0.775 7.891,1.551 2.29,-1.775 5.406,-1.682 5.412,-1.682 7.988,0 11.701,6.404 12.386,7.592 -0.004,-0.011 0.732,-2.388 2.125,-4.308 1.911,-2.634 4.558,-3.465 7.269,-3.213 3.229,0.298 5.301,2.799 5.498,3.261 0.096,0.228 -0.007,0.475 -0.594,0.16 -0.503,-0.27 -1.044,-0.672 -2.383,-0.925 C 22.122,-4.504 20.34,1.713 19.051,4.372 18.877,4.755 18.718,5.026 18.557,5.095 18.19,5.236 15.371,4.743 15.059,4.142 11.919,-1.702 7.84,-2.999 4.742,-3.044 3.704,-3.059 2.835,-2.847 2.136,-2.484 3.348,-1.886 4.203,-1.421 5.078,-0.84 8.29,1.297 9.458,3.589 9.458,4.328 9.45,4.412 9.404,4.459 9.349,4.519" />
          </g>
        </g>
      </g>
    </g>
  </g>
</svg>
