<?xml version="1.0" encoding="UTF-8" standalone="no"?>
<!-- Created with Inkscape (http://www.inkscape.org/) -->

<svg
   xmlns:dc="http://purl.org/dc/elements/1.1/"
   xmlns:cc="http://creativecommons.org/ns#"
   xmlns:rdf="http://www.w3.org/1999/02/22-rdf-syntax-ns#"
   xmlns:svg="http://www.w3.org/2000/svg"
   xmlns="http://www.w3.org/2000/svg"
   xmlns:sodipodi="http://sodipodi.sourceforge.net/DTD/sodipodi-0.dtd"
   xmlns:inkscape="http://www.inkscape.org/namespaces/inkscape"
   width="124.82549mm"
   height="36.618317mm"
   viewBox="0 0 442.29505 129.74994"
   id="svg22107"
   version="1.1"
   inkscape:version="0.91 r13725"
   sodipodi:docname="TER Bourgogne.svg">
  <defs
     id="defs22109" />
  <sodipodi:namedview
     id="base"
     pagecolor="#ffffff"
     bordercolor="#666666"
     borderopacity="1.0"
     inkscape:pageopacity="0.0"
     inkscape:pageshadow="2"
     inkscape:zoom="0.7"
     inkscape:cx="485.7077"
     inkscape:cy="58.460353"
     inkscape:document-units="px"
     inkscape:current-layer="layer1"
     showgrid="false"
     fit-margin-left="1"
     fit-margin-top="1"
     fit-margin-bottom="1"
     fit-margin-right="1"
     inkscape:window-width="1920"
     inkscape:window-height="1017"
     inkscape:window-x="-8"
     inkscape:window-y="-8"
     inkscape:window-maximized="1" />
  <metadata
     id="metadata22112">
    <rdf:RDF>
      <cc:Work
         rdf:about="">
        <dc:format>image/svg+xml</dc:format>
        <dc:type
           rdf:resource="http://purl.org/dc/dcmitype/StillImage" />
        <dc:title></dc:title>
      </cc:Work>
    </rdf:RDF>
  </metadata>
  <g
     inkscape:label="Calque 1"
     inkscape:groupmode="layer"
     id="layer1"
     transform="translate(169.71895,-644.63006)">
    <g
       transform="matrix(4,0,0,4,-632.89151,-2704.3238)"
       id="g22074">
      <path
         d="m 173.295,856.72868 0,-1.83026 0.59275,0 c 0.84462,0 1.25775,0.26413 1.25775,0.88075 0,0.59363 -0.44663,0.94951 -1.21238,0.94951 l -0.63812,0 z m -1.76325,4.89662 2.19312,0 c 2.277,0 3.419,-0.81338 3.419,-2.359 0,-0.99537 -0.58275,-1.7375 -1.57525,-1.96538 0.875,-0.32137 1.32663,-0.89049 1.32663,-1.72675 0,-1.33737 -0.9605,-2.04662 -2.8615,-2.04662 l -2.502,0 0,8.09775 z m 1.76325,-1.46525 0,-2.08175 0.79762,0 c 0.81276,0 1.246,0.37712 1.246,1.01675 0,0.6665 -0.46687,1.065 -1.246,1.065 l -0.79762,0"
         style="fill:#254aa5;fill-opacity:1;fill-rule:nonzero;stroke:none"
         id="path16726"
         inkscape:connector-curvature="0" />
      <path
         d="m 179.75675,859.10568 c 0,-0.90113 0.44487,-1.42675 0.98062,-1.42675 0.54913,0 0.98238,0.54924 0.98238,1.42675 0,0.88312 -0.43325,1.42912 -0.98238,1.42912 -0.53575,0 -0.98062,-0.52475 -0.98062,-1.42912 z m -1.79013,0 c 0,1.61287 1.19225,2.75749 2.77075,2.75749 1.59025,0 2.7775,-1.14462 2.7775,-2.75749 0,-1.62188 -1.18725,-2.75263 -2.7775,-2.75263 -1.5785,0 -2.77075,1.13075 -2.77075,2.75263"
         style="fill:#254aa5;fill-opacity:1;fill-rule:nonzero;stroke:none"
         id="path16728"
         inkscape:connector-curvature="0" />
      <path
         d="m 189.54175,856.59167 0,5.03363 -1.61212,0.23787 0,-0.98325 c -0.53738,0.6635 -1.12338,0.98325 -1.83375,0.98325 -1.06126,0 -1.63063,-0.61662 -1.63063,-1.79487 l 0,-3.47663 1.74988,0 0,2.9855 c 0,0.52713 0.21662,0.80013 0.63975,0.80013 0.57087,0 0.94875,-0.378 0.94875,-1.20112 l 0,-2.58451 1.73812,0"
         style="fill:#254aa5;fill-opacity:1;fill-rule:nonzero;stroke:none"
         id="path16730"
         inkscape:connector-curvature="0" />
      <path
         d="m 190.85662,861.6253 0,-5.03363 1.6355,0 0.032,0.88225 c 0.41462,-0.72162 0.92862,-1.00862 1.71612,-1.00862 l 0.136,0 0,1.87525 -0.37612,0 c -1.27963,0 -1.38213,0.27475 -1.38213,1.08488 l 0,2.19987 -1.76137,0"
         style="fill:#254aa5;fill-opacity:1;fill-rule:nonzero;stroke:none"
         id="path16732"
         inkscape:connector-curvature="0" />
      <path
         d="m 198.5375,857.8733 0,2.29912 c -0.26037,0.25013 -0.5105,0.3755 -0.72712,0.3755 -0.54925,0 -1.03275,-0.55912 -1.03275,-1.38237 0,-0.88225 0.54912,-1.46363 1.1805,-1.46363 0.19475,0 0.37775,0.0581 0.57937,0.17138 z m 1.74975,-1.28163 -1.49625,0.0583 c -0.43325,-0.19425 -0.80937,-0.29688 -1.17712,-0.29688 -1.49788,0 -2.61625,1.17575 -2.61625,2.80013 0,1.58825 0.979,2.59512 2.37612,2.59512 0.445,0 0.8245,-0.11388 1.22413,-0.36325 l 0,0.34125 c 0,0.67475 -0.445,1.065 -1.23588,1.065 -0.56087,0 -1.16375,-0.20825 -1.87412,-0.58375 l 0.0203,1.394 c 0.74387,0.29663 1.43575,0.45825 2.13925,0.45825 1.14362,0 1.943,-0.42475 2.35437,-1.22587 0.27375,-0.52476 0.2855,-1.06263 0.2855,-1.68101 l 0,-4.56125"
         style="fill:#254aa5;fill-opacity:1;fill-rule:nonzero;stroke:none"
         id="path16734"
         inkscape:connector-curvature="0" />
      <path
         d="m 203.07975,859.10568 c 0,-0.90113 0.44675,-1.42675 0.98412,-1.42675 0.5475,0 0.98063,0.54924 0.98063,1.42675 0,0.88312 -0.43313,1.42912 -0.98063,1.42912 -0.53737,0 -0.98412,-0.52475 -0.98412,-1.42912 z m -1.78488,0 c 0,1.61287 1.18875,2.75749 2.769,2.75749 1.5885,0 2.7775,-1.14462 2.7775,-2.75749 0,-1.62188 -1.189,-2.75263 -2.7775,-2.75263 -1.58025,0 -2.769,1.13075 -2.769,2.75263"
         style="fill:#254aa5;fill-opacity:1;fill-rule:nonzero;stroke:none"
         id="path16736"
         inkscape:connector-curvature="0" />
      <path
         d="m 211.11,857.8733 0,2.29912 c -0.26862,0.25013 -0.51725,0.3755 -0.73725,0.3755 -0.54737,0 -1.02437,-0.55912 -1.02437,-1.38237 0,-0.88225 0.54587,-1.46363 1.17387,-1.46363 0.19988,0 0.3795,0.0581 0.58775,0.17138 z m 1.74638,-1.28163 -1.50125,0.0583 c -0.42988,-0.19425 -0.80938,-0.29688 -1.17538,-0.29688 -1.49962,0 -2.618,1.17575 -2.618,2.80013 0,1.58825 0.98238,2.59512 2.37775,2.59512 0.44838,0 0.82113,-0.11388 1.22763,-0.36325 l 0,0.34125 c 0,0.67475 -0.445,1.065 -1.23938,1.065 -0.55912,0 -1.16875,-0.20825 -1.874,-0.58375 l 0.0235,1.394 c 0.74225,0.29663 1.42738,0.45825 2.13775,0.45825 1.14013,0 1.9445,-0.42475 2.35588,-1.22587 0.27375,-0.52476 0.2855,-1.06263 0.2855,-1.68101 l 0,-4.56125"
         style="fill:#254aa5;fill-opacity:1;fill-rule:nonzero;stroke:none"
         id="path16738"
         inkscape:connector-curvature="0" />
      <path
         d="m 214.19313,861.6253 0,-5.03363 1.61037,0 0,0.847 c 0.54063,-0.6625 1.1335,-0.98299 1.84038,-0.98299 1.06812,0 1.62737,0.61812 1.62737,1.79149 l 0,3.37813 -1.73987,0 0,-2.8845 c 0,-0.524 -0.21663,-0.801 -0.63975,-0.801 -0.57263,0 -0.94875,0.378 -0.94875,1.19938 l 0,2.48612 -1.74975,0"
         style="fill:#254aa5;fill-opacity:1;fill-rule:nonzero;stroke:none"
         id="path16740"
         inkscape:connector-curvature="0" />
      <path
         d="m 221.8975,858.6383 c 0.12762,-0.665 0.57262,-1.05125 1.20575,-1.05125 0.5675,0 0.97888,0.378 0.97888,0.9045 l 0,0.0788 -2.18463,0.068 z m 3.34175,1.18812 c -0.791,0.49438 -1.46263,0.70838 -1.97812,0.70838 -0.791,0 -1.35013,-0.4665 -1.3955,-1.1405 l 3.434,-0.0944 0.15625,-0.227 c 0.01,-0.18038 0.0252,-0.35438 0.0252,-0.51338 0,-1.31688 -0.99763,-2.19575 -2.35788,-2.19575 -1.5885,0 -2.895,1.24712 -2.895,2.88287 0,1.52826 1.11175,2.60338 2.80438,2.60338 0.6835,0 1.33837,-0.1575 2.01,-0.47725 l 0.19662,-1.54638"
         style="fill:#254aa5;fill-opacity:1;fill-rule:nonzero;stroke:none"
         id="path16742"
         inkscape:connector-curvature="0" />
      <path
         d="m 174.60975,867.3068 c -6.183,3.01087 -15.0125,1.78587 -17.0175,-6.90962 l 1.90938,-2.96176 c 3.00574,6.99413 7.41725,10.28288 15.10812,9.87138"
         style="fill:#ed1c24;fill-opacity:1;fill-rule:nonzero;stroke:none"
         id="path16744"
         inkscape:connector-curvature="0" />
      <path
         d="m 150.89038,854.82717 c -0.43825,-0.4805 -1.5885,-1.01099 -3.14188,-1.25699 -1.50625,-0.24026 -4.62963,-0.40425 -8.02513,1.33899 -3.5415,1.8195 -5.83025,5.20101 -4.80262,8.39375 0.006,-0.004 -2.98412,1.1095 -5.2275,0.65438 -1.20738,-0.246 -2.33913,-1.1405 -2.70363,-2.32788 -0.55912,-1.82437 -0.10075,-4.97375 3.04288,-7.84274 4.151,-3.79388 10.38612,-5.14926 13.04612,-5.72738 1.22238,-0.2665 1.37863,-0.30575 1.42225,-0.4805 0.0201,-0.077 0.0671,-0.35825 -0.18475,-0.6485 -0.37112,-0.44112 -1.44075,-0.8995 -4.40974,-0.58138 -3.03763,0.32151 -7.21063,1.55713 -8.45338,1.9425 0.85488,-1.79737 3.48963,-6.54812 3.96488,-7.45249 0.764,-1.453 1.04437,-2.08601 1.04437,-2.42713 0,-0.0984 -0.0301,-0.16725 -0.084,-0.21887 -0.4365,-0.39438 -2.92187,0.943 -4.82275,3.183 -1.91087,2.24749 -2.92362,4.05062 -4.41637,6.42262 -1.66925,2.64112 -6.885,3.976 -9.41225,4.66637 -0.67,0.182 -0.87325,0.2165 -0.9555,0.30913 -0.0856,0.0919 -0.11413,0.21312 -0.0755,0.346 0.215,0.73875 1.49612,1.54237 2.81612,1.60463 0.96375,0.0435 2.109,-0.10901 3.88738,-0.60188 -0.9555,1.51363 -2.56913,4.84425 -2.56913,8.029 0,2.47863 1.14338,5.42225 5.973,5.87825 3.81025,0.36062 7.49613,-0.99062 10.08563,-1.98275 2.92687,2.268 6.91175,2.15 6.9185,2.15 10.2115,0 14.95875,-8.18725 15.832,-9.70325 -0.005,0.0131 0.93187,3.04938 2.71537,5.50513 2.4365,3.36825 5.8235,4.42762 9.29288,4.10625 4.12425,-0.37888 6.7725,-3.575 7.02262,-4.17025 0.12263,-0.28863 -0.005,-0.6035 -0.75575,-0.20163 -0.6465,0.345 -1.33825,0.85925 -3.04775,1.1855 -7.65237,1.43825 -9.92937,-6.50287 -11.57512,-9.90087 -0.22325,-0.49113 -0.42313,-0.83625 -0.633,-0.92488 -0.46688,-0.1795 -4.0705,0.44938 -4.47025,1.21613 -4.01175,7.47212 -9.22413,9.12837 -13.18875,9.18575 -1.32325,0.0214 -2.43325,-0.255 -3.32825,-0.71663 1.54987,-0.76575 2.64312,-1.35537 3.7615,-2.1015 4.104,-2.73037 5.59687,-5.6585 5.59687,-6.604 -0.0134,-0.10725 -0.0687,-0.16875 -0.13937,-0.24588 z m -11.94613,5.779 c 0,-0.18612 0.0184,-0.37312 0.0587,-0.56825 0.22675,-1.09049 1.073,-2.22362 2.15788,-2.88775 3.4475,-2.1155 6.32225,-1.49575 6.73712,-1.26199 0.0504,0.0279 0.0235,0.0582 -0.0112,0.13862 -0.393,0.99787 -3.98163,4.14713 -8.58275,5.82325 -0.2115,-0.34187 -0.35925,-0.824 -0.35925,-1.24388"
         style="fill:#254aa5;fill-opacity:1;fill-rule:nonzero;stroke:none"
         id="path16746"
         inkscape:connector-curvature="0" />
    </g>
  </g>
</svg>
