<?xml version="1.0" encoding="UTF-8" standalone="no"?>
<!-- Created with Inkscape (http://www.inkscape.org/) -->

<svg
   xmlns:dc="http://purl.org/dc/elements/1.1/"
   xmlns:cc="http://creativecommons.org/ns#"
   xmlns:rdf="http://www.w3.org/1999/02/22-rdf-syntax-ns#"
   xmlns:svg="http://www.w3.org/2000/svg"
   xmlns="http://www.w3.org/2000/svg"
   xmlns:sodipodi="http://sodipodi.sourceforge.net/DTD/sodipodi-0.dtd"
   xmlns:inkscape="http://www.inkscape.org/namespaces/inkscape"
   width="24.927364mm"
   height="18.025204mm"
   viewBox="0 0 88.325307 63.868832"
   id="svg24358"
   version="1.1"
   inkscape:version="0.91 r13725"
   sodipodi:docname="TER Aquitaine.svg">
  <defs
     id="defs24360" />
  <sodipodi:namedview
     id="base"
     pagecolor="#ffffff"
     bordercolor="#666666"
     borderopacity="1.0"
     inkscape:pageopacity="0.0"
     inkscape:pageshadow="2"
     inkscape:zoom="3.959798"
     inkscape:cx="106.872"
     inkscape:cy="67.217054"
     inkscape:document-units="px"
     inkscape:current-layer="layer1"
     showgrid="false"
     fit-margin-left="1"
     fit-margin-bottom="1"
     fit-margin-top="1"
     fit-margin-right="1"
     inkscape:window-width="1920"
     inkscape:window-height="1017"
     inkscape:window-x="-8"
     inkscape:window-y="-8"
     inkscape:window-maximized="1" />
  <metadata
     id="metadata24363">
    <rdf:RDF>
      <cc:Work
         rdf:about="">
        <dc:format>image/svg+xml</dc:format>
        <dc:type
           rdf:resource="http://purl.org/dc/dcmitype/StillImage" />
        <dc:title></dc:title>
      </cc:Work>
    </rdf:RDF>
  </metadata>
  <g
     inkscape:label="Calque 1"
     inkscape:groupmode="layer"
     id="layer1"
     transform="translate(-67.964279,-897.69425)">
    <g
       id="g24538">
      <path
         style="fill:#faba07;fill-opacity:1;fill-rule:nonzero;stroke:none"
         d="m 127.31889,911.511 c 2.74903,-1.5918 9.1504,-7.43164 10.79103,-10.2295 l 1.71386,3.30567 c -1.06934,1.37695 -6.23535,6.7041 -11.60645,9.11133 z"
         id="path19536"
         inkscape:connector-curvature="0" />
      <path
         style="fill:#faba07;fill-opacity:1;fill-rule:nonzero;stroke:none"
         d="m 129.38433,916.40357 -0.73242,-1.71386 c 2.32421,-0.56641 9.67285,-3.91114 12.63183,-7.0459 l 1.54297,3.04687 c -1.36719,1.33789 -6.44043,4.29688 -13.44238,5.71289"
         id="path19538"
         inkscape:connector-curvature="0" />
      <path
         style="fill:#faba07;fill-opacity:1;fill-rule:nonzero;stroke:none"
         d="m 129.81402,917.43873 c 2.27539,0.083 10.78612,-1.63574 14.39452,-3.91113 0.21485,0.38574 1.84083,3.6084 1.84083,3.6084 -1.37208,0.85449 -9.18945,2.83203 -15.33691,2.45117 z"
         id="path19540"
         inkscape:connector-curvature="0" />
      <path
         style="fill:#faba07;fill-opacity:1;fill-rule:nonzero;stroke:none"
         d="m 131.14214,920.70533 c 5.02929,0.20996 10.92285,0.12208 16.11817,-1.11816 0.29785,0.55176 1.84081,3.73535 1.84081,3.73535 -3.04688,0.69336 -13.22754,0.21484 -17.13379,-0.68848 z"
         id="path19542"
         inkscape:connector-curvature="0" />
      <path
         style="fill:#faba07;fill-opacity:1;fill-rule:nonzero;stroke:none"
         d="m 132.60698,924.094 c 4.08691,1.12305 13.44239,2.53906 18.04687,2.23633 0.25879,0.42969 2.0166,3.95508 2.0166,3.95508 -2.53417,0 -16.02538,-2.66602 -19.12597,-3.91113 z"
         id="path19544"
         inkscape:connector-curvature="0" />
      <path
         style="fill:#faba07;fill-opacity:1;fill-rule:nonzero;stroke:none"
         d="m 125.13139,922.54615 -3.18358,-7.64648 0,0.0488 -5.542,2.14844 c 1.03027,0.81543 6.40137,4.72168 8.72558,5.44921"
         id="path19546"
         inkscape:connector-curvature="0" />
      <path
         style="fill:#faba07;fill-opacity:1;fill-rule:nonzero;stroke:none"
         d="m 122.08941,901.23756 -4.57031,0 c 0,4.29199 -3.91114,21.22558 -9.8877,29.04785 l 5.80078,0 c 2.39258,-3.78418 4.44824,-9.13086 5.0293,-10.84961 l -3.4375,-2.55371 4.70703,-1.76758 c 0.38573,-1.13769 1.09375,-4.72656 1.09375,-4.72656 l 8.29101,19.89746 5.15625,0 z"
         id="path19548"
         inkscape:connector-curvature="0" />
      <path
         style="fill:#195cae;fill-opacity:1;fill-rule:nonzero;stroke:none"
         d="m 97.08941,942.28248 1.494137,-5.42969 c 0.146488,-0.58594 -0.15625,-1.05469 -0.6543,-1.05469 -0.512687,0 -1.0498,0.46875 -1.201162,1.04981 l -0.02925,0.0928 c -0.26855,-0.70801 -0.78125,-1.14746 -1.474613,-1.14746 -1.420899,0 -3.081049,1.87011 -3.691399,4.16015 -0.625,2.27051 0.0195,4.14063 1.435537,4.14551 0.72755,0 1.528325,-0.48828 2.20215,-1.25488 0.005,0.72754 0.473637,1.25976 1.18165,1.25976 0.888662,0 1.8457,-0.82031 2.104487,-1.82129 l 0.2002,-0.69335 -0.581062,0 -0.200188,0.69335 c -0.04888,0.23926 -0.302737,0.43457 -0.49805,0.43457 -0.224612,0 -0.3418,-0.20019 -0.288087,-0.43457 m -3.129887,0.45411 c -0.625,0 -0.7959,-1.25489 -0.3955,-2.78321 0.419912,-1.54297 1.284174,-2.79785 1.928712,-2.79785 0.625,0 0.795887,1.25488 0.390625,2.80274 -0.41505,1.52343 -1.29395,2.77832 -1.923837,2.77832"
         id="path19550"
         inkscape:connector-curvature="0" />
      <path
         style="fill:#195cae;fill-opacity:1;fill-rule:nonzero;stroke:none"
         d="m 103.30523,942.96119 -1.22071,4.5166 1.85059,0 2.89062,-10.625 c 0.15138,-0.58105 -0.14648,-1.0498 -0.64941,-1.05469 -0.5127,0 -1.0498,0.47364 -1.20117,1.05469 l -0.0293,0.0928 c -0.26857,-0.70801 -0.78125,-1.14746 -1.47462,-1.14746 -1.4209,0 -3.07617,1.87011 -3.691408,4.16015 -0.620112,2.27051 0.0195,4.14551 1.440438,4.14551 0.72265,0 1.43066,-0.43945 2.08496,-1.14258 m -1.09867,-0.21973 c -0.625,-0.005 -0.7959,-1.25488 -0.39552,-2.7832 0.42482,-1.54297 1.28419,-2.79297 1.92384,-2.79297 0.62988,0 0.80078,1.25488 0.3955,2.79785 -0.41992,1.52344 -1.29394,2.77832 -1.92382,2.77832"
         id="path19552"
         inkscape:connector-curvature="0" />
      <path
         style="fill:#195cae;fill-opacity:1;fill-rule:nonzero;stroke:none"
         d="m 111.30816,942.61939 c -0.49316,0.63477 -1.25976,1.48926 -2.2461,1.48926 -1.00098,0 -1.54296,-0.9082 -1.24511,-2.03613 l 1.15722,-4.2334 c 0.0635,-0.23438 -0.0489,-0.43945 -0.27831,-0.43945 -0.20509,0 -0.44923,0.20507 -0.5127,0.43945 l -0.2002,0.66894 -0.57616,0 0.19531,-0.66894 c 0.27344,-1.00098 1.21581,-1.81641 2.10449,-1.81641 0.88378,0 1.3916,0.81543 1.11816,1.81641 l -1.12305,4.12109 c -0.1025,0.36621 0.083,0.63965 0.39062,0.63965 0.30274,0 0.64454,-0.25391 1.32325,-1.12305 l 0.5371,-0.67382 1.25978,-4.65332 1.85546,0.005 -1.6748,6.13769 c -0.0537,0.23926 0.0586,0.43945 0.2832,0.43945 0.19531,0 0.4541,-0.20019 0.50293,-0.43945 l 0.2002,-0.68847 0.57617,0 -0.2002,0.68847 c -0.25879,1.00098 -1.21094,1.81641 -2.09961,1.81641 -0.85449,0 -1.38183,-0.78125 -1.14745,-1.72364 z"
         id="path19554"
         inkscape:connector-curvature="0" />
      <path
         style="fill:#195cae;fill-opacity:1;fill-rule:nonzero;stroke:none"
         d="m 116.90875,944.11353 c -0.88868,0 -1.39649,-0.80078 -1.12305,-1.8164 l 1.66503,-6.14258 1.85548,0 -1.66016,6.14258 c -0.0684,0.23437 0.044,0.43457 0.2832,0.43457 0.19531,0 0.43457,-0.2002 0.50293,-0.43457 l 0.20019,-0.69336 0.57617,0.005 -0.19531,0.68847 c -0.27831,1.00098 -1.2207,1.81641 -2.10448,1.81641 m 2.92968,-9.95605 c -0.14649,0.56152 -0.69825,1.03515 -1.20117,1.03515 -0.5127,0 -0.7959,-0.47363 -0.64941,-1.04004 0.16601,-0.58105 0.71288,-1.0498 1.21582,-1.0498 0.51757,0 0.80077,0.47363 0.63476,1.05469"
         id="path19556"
         inkscape:connector-curvature="0" />
      <path
         style="fill:#195cae;fill-opacity:1;fill-rule:nonzero;stroke:none"
         d="m 120.27299,937.22877 0.28809,-1.07422 1.43066,0 0.49318,-1.81641 1.85546,0 -0.49316,1.82129 1.85546,0 -0.30761,1.07422 -1.85059,-0.005 -1.37695,5.06836 c -0.0489,0.23437 0.0635,0.43945 0.29296,0.43945 0.19044,0 0.44434,-0.20508 0.49805,-0.43945 l 0.19532,-0.68848 0.58106,0 -0.19531,0.68848 c -0.26368,1.00098 -1.22072,1.82129 -2.1045,1.8164 -0.88379,0 -1.37695,-0.81542 -1.11817,-1.8164 l 1.37695,-5.06836 z"
         id="path19558"
         inkscape:connector-curvature="0" />
      <path
         style="fill:#195cae;fill-opacity:1;fill-rule:nonzero;stroke:none"
         d="m 130.77104,942.30201 1.48927,-5.42969 c 0.15136,-0.58105 -0.15138,-1.05468 -0.64942,-1.05468 -0.51758,0 -1.04981,0.47363 -1.19628,1.05468 l -0.0293,0.0879 c -0.26857,-0.708 -0.78614,-1.14257 -1.4795,-1.14746 -1.41602,0 -3.08105,1.87012 -3.68652,4.16016 -0.625,2.27051 0.0146,4.14551 1.43067,4.14551 0.72753,0.005 1.52831,-0.48829 2.20215,-1.25 0.005,0.72265 0.47362,1.25488 1.18163,1.25488 0.88868,0 1.8457,-0.81543 2.10449,-1.81641 l 0.2002,-0.69336 -0.58106,0 -0.20019,0.68848 c -0.0489,0.23926 -0.30274,0.43945 -0.49805,0.43945 -0.22461,0 -0.3418,-0.20019 -0.28809,-0.43945 m -3.12987,0.4541 c -0.625,0 -0.7959,-1.25488 -0.39551,-2.77832 0.41992,-1.54785 1.28417,-2.80273 1.92871,-2.79785 0.625,0 0.7959,1.25488 0.39062,2.79785 -0.41503,1.52344 -1.28906,2.77832 -1.92382,2.77832"
         id="path19560"
         inkscape:connector-curvature="0" />
      <path
         style="fill:#195cae;fill-opacity:1;fill-rule:nonzero;stroke:none"
         d="m 134.28667,944.1233 c -0.88379,0 -1.39649,-0.80078 -1.11328,-1.81641 l 1.66015,-6.14258 1.85059,0.005 -1.66015,6.1377 c -0.0684,0.23926 0.0489,0.43457 0.28808,0.43457 0.19531,0 0.42968,-0.19531 0.49805,-0.43457 l 0.2002,-0.68848 0.58105,0 -0.20019,0.68848 c -0.27344,1.00097 -1.21583,1.8164 -2.1045,1.8164 m 2.93457,-9.95605 c -0.15137,0.56152 -0.70312,1.03516 -1.20117,1.03516 -0.51758,0 -0.80078,-0.47364 -0.6543,-1.03516 0.1709,-0.58594 0.72266,-1.05469 1.22071,-1.05469 0.51269,0 0.80078,0.46875 0.63476,1.05469"
         id="path19562"
         inkscape:connector-curvature="0" />
      <path
         style="fill:#195cae;fill-opacity:1;fill-rule:nonzero;stroke:none"
         d="m 141.39604,937.31178 c 0.51758,-0.66895 1.26465,-1.48926 2.2461,-1.48438 1.00098,0 1.55762,0.9082 1.26465,2.03613 l -1.21582,4.45313 c -0.0684,0.22949 0.0489,0.43457 0.28809,0.43457 0.19531,0 0.42968,-0.20508 0.49805,-0.43457 l 0.20018,-0.69336 0.58107,0 -0.2002,0.69336 c -0.27833,0.99609 -1.21583,1.81152 -2.10449,1.81152 -0.8838,0 -1.39161,-0.81543 -1.11818,-1.81641 l 1.18653,-4.3457 c 0.1025,-0.34179 -0.083,-0.63476 -0.38574,-0.63476 -0.30761,0 -0.63965,0.27343 -1.32812,1.12793 l -0.59083,0.708 -1.25,4.68262 -1.85546,0 1.62597,-5.99121 c 0.0684,-0.23926 -0.0489,-0.43945 -0.27343,-0.43945 -0.20997,0 -0.44923,0.20019 -0.51758,0.43457 l -0.19531,0.67871 -0.57618,-0.005 0.19532,-0.67383 c 0.27343,-0.99609 1.21582,-1.81152 2.09961,-1.81152 0.82519,0 1.31835,0.70801 1.16699,1.59668 z"
         id="path19564"
         inkscape:connector-curvature="0" />
      <path
         style="fill:#195cae;fill-opacity:1;fill-rule:nonzero;stroke:none"
         d="m 152.67045,937.99049 c 0.24903,-0.92285 -0.0537,-2.16309 -1.84081,-2.16309 -2.03125,0 -3.88672,1.97754 -4.4629,4.16504 -0.58593,2.13867 0.19044,4.06738 2.09474,4.06738 1.75293,0 2.83202,-1.41601 3.27147,-2.53906 l -0.73241,-0.18555 c -0.26856,0.71289 -1.05468,1.70899 -1.86036,1.70899 -0.79101,0 -1.28417,-0.58106 -0.69824,-2.69043 2.33399,0 3.89649,-1.08887 4.22851,-2.36328 m -4.01366,1.54297 c 0.28808,-1.06934 1.05957,-2.73926 1.96776,-2.73926 0.33693,0 0.42969,0.34668 0.27833,0.94238 -0.17578,0.6543 -0.92285,1.80176 -2.24609,1.79688"
         id="path19566"
         inkscape:connector-curvature="0" />
      <path
         style="fill:#195cae;fill-opacity:1;fill-rule:nonzero;stroke:none"
         d="m 89.955623,923.99146 c 0,-0.15136 0.0195,-0.30761 0.04887,-0.46386 0.190425,-0.90821 0.89355,-1.84571 1.791987,-2.39746 2.85645,-1.75293 5.239262,-1.23536 5.581062,-1.04493 0.044,0.0244 0.0195,0.0488 -0.005,0.11719 -0.32715,0.8252 -3.305662,3.43262 -7.119137,4.82422 -0.175787,-0.2832 -0.29785,-0.68359 -0.29785,-1.03516 m 9.902337,-4.78515 c -0.361325,-0.40039 -1.31835,-0.83985 -2.59765,-1.04492 -1.25,-0.19532 -3.842774,-0.33203 -6.655274,1.11328 -2.934575,1.5039 -4.833987,4.30664 -3.979487,6.95312 0.01,0 -2.475588,0.92285 -4.331063,0.54199 -1.005862,-0.20019 -1.943362,-0.94238 -2.246087,-1.92871 -0.458987,-1.50879 -0.07813,-4.12109 2.524412,-6.49902 3.442375,-3.14453 8.6084,-4.26269 10.815425,-4.74609 1.010749,-0.21973 1.142574,-0.25391 1.176762,-0.39551 0.01462,-0.0684 0.05375,-0.29785 -0.151375,-0.53711 -0.3125,-0.36621 -1.196287,-0.74707 -3.652337,-0.4834 -2.524413,0.26856 -5.98145,1.28906 -7.006837,1.61133 0.703125,-1.48926 2.890625,-5.4248 3.286137,-6.17676 0.629875,-1.20605 0.859375,-1.72851 0.859375,-2.0166 0,-0.0781 -0.0195,-0.13672 -0.06837,-0.18066 -0.361325,-0.32715 -2.421875,0.78613 -3.994137,2.6416 -1.586913,1.86523 -2.426763,3.35449 -3.667,5.32226 -1.37695,2.1875 -5.698237,3.2959 -7.792962,3.86719 -0.556637,0.15137 -0.722662,0.18066 -0.7959,0.25391 -0.06838,0.0781 -0.09275,0.18066 -0.05863,0.28808 0.175788,0.61524 1.240238,1.27442 2.333988,1.32813 0.795899,0.0391 1.743162,-0.0879 3.217774,-0.49805 -0.791012,1.25977 -2.124025,4.01856 -2.124025,6.65527 0,2.05567 0.947263,4.49219 4.946288,4.87305 3.159187,0.29785 6.215824,-0.8252 8.359374,-1.64551 2.426762,1.88477 5.727537,1.78223 5.732425,1.78223 8.461912,0 12.392582,-6.78223 13.120112,-8.04199 -0.005,0.0146 0.77638,2.52929 2.25099,4.56543 2.02148,2.78808 4.82421,3.66699 7.70019,3.40332 3.41797,-0.31739 5.61523,-2.96875 5.82031,-3.45703 0.1025,-0.24415 -0.005,-0.50293 -0.625,-0.16602 -0.53711,0.2832 -1.1084,0.71289 -2.5293,0.97656 -6.33789,1.20117 -8.22754,-5.38574 -9.58984,-8.20312 -0.18555,-0.41016 -0.35156,-0.69336 -0.52246,-0.7666 -0.39062,-0.14649 -3.3789,0.37109 -3.70605,1.01074 -3.3252,6.19141 -7.64649,7.56347 -10.92774,7.6123 -1.098637,0.0146 -2.021487,-0.20996 -2.758787,-0.5957 1.2793,-0.63477 2.187499,-1.12305 3.115237,-1.74316 3.398437,-2.26075 4.638662,-4.6875 4.638662,-5.46875 -0.01,-0.0928 -0.05862,-0.14161 -0.117125,-0.20508"
         id="path19568"
         inkscape:connector-curvature="0" />
      <path
         id="path19570"
         d="m 121.28862,947.67799 c 10.38575,0 20.66406,0.46875 30.81055,1.38183 l 0,-0.32715 c -10.06836,-1.41113 -20.35644,-2.14355 -30.81055,-2.14355 -10.45897,0 -20.74219,0.7373 -30.810535,2.15332 l 0,0.32715 c 10.151365,-0.91797 20.424795,-1.3916 30.810535,-1.3916"
         style="fill:#faba07;fill-opacity:1;fill-rule:nonzero;stroke:none"
         inkscape:connector-curvature="0" />
      <path
         id="path19572"
         d="m 78.085499,952.17017 1.269537,0 0.942388,3.36426 0.01,0 0.942374,-3.36426 1.269538,0 0,4.43848 -0.756838,0 0,-3.66211 -0.01462,0 -1.064449,3.66211 -0.761725,0 -1.06445,-3.66211 -0.01462,0.0146 0,3.64746 -0.756838,0 z"
         style="fill:#595757;fill-opacity:1;fill-rule:nonzero;stroke:none"
         inkscape:connector-curvature="0" />
      <path
         id="path19574"
         d="m 84.335498,956.06177 c 0.234375,0 0.41505,-0.1123 0.532238,-0.29296 0.12695,-0.18067 0.161125,-0.41993 0.161125,-0.67383 l -0.332025,0 c -0.336913,0 -0.844725,0.0635 -0.844725,0.5664 0,0.27832 0.20995,0.40039 0.483387,0.40039 m -0.89355,-2.55371 c 0.29785,-0.15136 0.693363,-0.24902 1.020513,-0.24902 0.888662,0 1.254875,0.41504 1.254875,1.38184 l 0,0.41992 c 0,0.32715 0.01,0.57617 0.01463,0.81543 0.005,0.24902 0.01462,0.47851 0.03425,0.73242 l -0.66895,0 c -0.02925,-0.1709 -0.02925,-0.38574 -0.03412,-0.48828 l -0.01463,0 c -0.175788,0.36133 -0.551763,0.5664 -0.898438,0.5664 -0.517587,0 -1.0254,-0.35156 -1.0254,-0.97656 0,-0.48828 0.209963,-0.77148 0.502938,-0.93262 0.288087,-0.15625 0.664062,-0.19042 0.981437,-0.19042 l 0.419925,0 c 0,-0.52735 -0.209962,-0.70313 -0.659175,-0.70313 -0.322262,0 -0.644537,0.13672 -0.903325,0.35156 z"
         style="fill:#595757;fill-opacity:1;fill-rule:nonzero;stroke:none"
         inkscape:connector-curvature="0" />
      <path
         id="path19576"
         d="m 88.725148,954.0647 0.263675,0 c 0.390625,0 0.834962,-0.0635 0.834962,-0.61523 0,-0.53223 -0.43945,-0.57617 -0.834962,-0.57617 l -0.263675,0 z m -0.791013,-1.88964 0.854488,0 c 0.849612,0 1.865237,-0.0342 1.865237,1.20117 0,0.51758 -0.3125,0.95215 -0.815425,1.02539 l 0,0.0147 c 0.214838,0.0195 0.3418,0.25879 0.419925,0.45898 l 0.634763,1.7334 -0.883788,0 -0.478525,-1.38672 c -0.11225,-0.32715 -0.214837,-0.4541 -0.55175,-0.4541 l -0.253912,0 0,1.84082 -0.791013,0 z"
         style="fill:#595757;fill-opacity:1;fill-rule:nonzero;stroke:none"
         inkscape:connector-curvature="0" />
      <path
         id="path19578"
         d="m 92.577685,951.96509 0.776375,0 -0.776375,0.92774 -0.46875,0 z m 0.595713,2.68555 c -0.02438,-0.41504 -0.195313,-0.7666 -0.620125,-0.7666 -0.4248,0 -0.63965,0.32715 -0.673825,0.7666 z m 0.512687,1.77246 c -0.278312,0.17578 -0.5957,0.26367 -1.00585,0.26367 -0.9668,0 -1.528325,-0.625 -1.528325,-1.69921 0,-0.94727 0.449213,-1.72852 1.357425,-1.72852 1.083975,0 1.3916,0.83496 1.3916,1.97754 l -2.021487,0 c 0.03413,0.52734 0.361325,0.82519 0.834962,0.82519 0.366213,0 0.683588,-0.15136 0.971675,-0.33203 z"
         style="fill:#595757;fill-opacity:1;fill-rule:nonzero;stroke:none"
         inkscape:connector-curvature="0" />
      <path
         id="path19580"
         d="m 96.361872,954.93873 c 0,-0.56153 -0.190437,-1.02051 -0.634762,-1.02051 -0.517588,0 -0.6836,0.53711 -0.6836,1.04004 0,0.44433 0.209962,0.99121 0.649412,0.99121 0.478513,0 0.66895,-0.46387 0.66895,-1.01074 m 0.761713,-1.60156 0,2.9541 c 0,0.88867 -0.317375,1.72851 -1.542963,1.72851 -0.302737,0 -0.649412,-0.0488 -1.01075,-0.22461 l 0.0635,-0.72265 c 0.229488,0.1416 0.61035,0.28808 0.8496,0.28808 0.83985,0 0.878913,-0.70801 0.878913,-1.27441 l -0.01,0 c -0.141613,0.2832 -0.4834,0.52246 -0.908213,0.52246 -0.86425,0 -1.1914,-0.77637 -1.1914,-1.65039 0,-0.79102 0.361325,-1.69922 1.23535,-1.69922 0.385738,0 0.688475,0.14648 0.898438,0.52246 l 0.01,0 0,-0.44433 z"
         style="fill:#595757;fill-opacity:1;fill-rule:nonzero;stroke:none"
         inkscape:connector-curvature="0" />
      <path
         id="path19582"
         d="m 97.865772,953.33717 0.756838,0 0,3.27148 -0.756838,0 z m 0,-1.41114 0.756838,0 0,0.81055 -0.756838,0 z"
         style="fill:#595757;fill-opacity:1;fill-rule:nonzero;stroke:none"
         inkscape:connector-curvature="0" />
      <path
         id="path19584"
         d="m 100.70757,956.02271 c 0.58105,0 0.7373,-0.58105 0.7373,-1.12793 0,-0.50293 -0.23925,-0.97656 -0.7373,-0.97656 -0.49316,0 -0.732423,0.4834 -0.732423,0.97656 0,0.53711 0.151373,1.12793 0.732423,1.12793 m 0,-2.76367 c 0.86914,0 1.52833,0.6543 1.52833,1.7334 0,0.94238 -0.55665,1.69433 -1.52833,1.69433 -0.966798,0 -1.528323,-0.75195 -1.528323,-1.69433 0,-1.0791 0.664063,-1.7334 1.528323,-1.7334"
         style="fill:#595757;fill-opacity:1;fill-rule:nonzero;stroke:none"
         inkscape:connector-curvature="0" />
      <path
         id="path19586"
         d="m 102.77788,953.33717 0.71778,0 0,0.44433 0.0146,0 c 0.23925,-0.37598 0.56152,-0.52246 0.95702,-0.52246 0.69337,0 0.99122,0.54688 0.99122,1.28418 l 0,2.06543 -0.75684,0 0,-1.74805 c 0,-0.40039 -0.005,-0.9375 -0.49316,-0.9375 -0.55175,0 -0.66894,0.66407 -0.66894,1.08399 l 0,1.60156 -0.76173,0 z"
         style="fill:#595757;fill-opacity:1;fill-rule:nonzero;stroke:none"
         inkscape:connector-curvature="0" />
      <path
         id="path19588"
         d="m 106.28862,955.71998 0.82031,0 -0.51268,1.58691 -0.66895,0 z"
         style="fill:#595757;fill-opacity:1;fill-rule:nonzero;stroke:none"
         inkscape:connector-curvature="0" />
      <path
         id="path19590"
         d="m 109.21831,953.33717 0.70801,0 0,0.4541 0.01,0 c 0.23926,-0.40039 0.58594,-0.53223 0.86915,-0.53223 0.41015,0 0.69824,0.1709 0.86425,0.58105 0.1709,-0.3955 0.55176,-0.58105 0.9082,-0.58105 0.72266,0 0.92774,0.55176 0.92774,1.28418 l 0,2.06543 -0.76171,0 0,-1.95313 c 0,-0.30273 0,-0.73242 -0.43458,-0.73242 -0.50781,0 -0.57129,0.66895 -0.57129,1.09864 l 0,1.58691 -0.75683,0 0,-1.95313 c 0,-0.30273 0,-0.73242 -0.43945,-0.73242 -0.50294,0 -0.56642,0.66895 -0.56642,1.09864 l 0,1.58691 -0.75683,0 z"
         style="fill:#595757;fill-opacity:1;fill-rule:nonzero;stroke:none"
         inkscape:connector-curvature="0" />
      <path
         id="path19592"
         d="m 115.55132,956.02271 c 0.58594,0 0.7373,-0.58105 0.7373,-1.12793 0,-0.50293 -0.23925,-0.97656 -0.7373,-0.97656 -0.49316,0 -0.73242,0.4834 -0.73242,0.97656 0,0.53711 0.15625,1.12793 0.73242,1.12793 m 0,-2.76367 c 0.86914,0 1.5332,0.6543 1.5332,1.7334 0,0.94238 -0.56152,1.69433 -1.5332,1.69433 -0.96191,0 -1.52344,-0.75195 -1.52344,-1.69433 0,-1.0791 0.66407,-1.7334 1.52344,-1.7334"
         style="fill:#595757;fill-opacity:1;fill-rule:nonzero;stroke:none"
         inkscape:connector-curvature="0" />
      <path
         id="path19594"
         d="m 117.62163,953.33717 0.72267,0 0,0.44433 0.01,0 c 0.23925,-0.37598 0.56152,-0.52246 0.95702,-0.52246 0.69336,0 0.9961,0.54688 0.9961,1.28418 l 0,2.06543 -0.76173,0 0,-1.74805 c 0,-0.40039 -0.005,-0.9375 -0.49316,-0.9375 -0.55175,0 -0.66893,0.66407 -0.66893,1.08399 l 0,1.60156 -0.76173,0 z"
         style="fill:#595757;fill-opacity:1;fill-rule:nonzero;stroke:none"
         inkscape:connector-curvature="0" />
      <path
         id="path19596"
         d="m 122.80229,953.95728 -0.56152,0 0,-0.62011 0.56152,0 0,-0.6543 0.76173,-0.27344 0,0.92774 0.67382,0 0,0.62011 -0.67382,0 0,1.52832 c 0,0.27832 0.0684,0.53711 0.35644,0.53711 0.13672,0 0.26367,-0.0293 0.34668,-0.0879 l 0.0195,0.67383 c -0.15625,0.0488 -0.33202,0.0781 -0.56152,0.0781 -0.5957,0 -0.92285,-0.41504 -0.92285,-1.06445 z"
         style="fill:#595757;fill-opacity:1;fill-rule:nonzero;stroke:none"
         inkscape:connector-curvature="0" />
      <path
         id="path19598"
         d="m 124.72124,953.33717 0.67383,0 0,0.74218 0.01,0 c 0.0343,-0.30273 0.34669,-0.82031 0.80079,-0.82031 0.0733,0 0.15136,0 0.23437,0.0244 l 0,0.85938 c -0.0684,-0.0439 -0.20507,-0.0684 -0.3418,-0.0684 -0.62011,0 -0.62011,0.86425 -0.62011,1.333 l 0,1.20118 -0.75684,0 z"
         style="fill:#595757;fill-opacity:1;fill-rule:nonzero;stroke:none"
         inkscape:connector-curvature="0" />
      <path
         id="path19600"
         d="m 127.87554,956.06177 c 0.22949,0 0.41015,-0.1123 0.53223,-0.29296 0.122,-0.18067 0.15625,-0.41993 0.15625,-0.67383 l -0.32715,0 c -0.3418,0 -0.84473,0.0635 -0.84473,0.5664 0,0.27832 0.20997,0.40039 0.4834,0.40039 m -0.89356,-2.55371 c 0.29785,-0.15136 0.69336,-0.24902 1.01563,-0.24902 0.88867,0 1.25976,0.41504 1.25976,1.38184 l 0,0.41992 c 0,0.32715 0.005,0.57617 0.0146,0.81543 0.005,0.24902 0.0146,0.47851 0.0293,0.73242 l -0.66895,0 c -0.0292,-0.1709 -0.0292,-0.38574 -0.0341,-0.48828 l -0.01,0 c -0.17579,0.36133 -0.55664,0.5664 -0.90333,0.5664 -0.51757,0 -1.0205,-0.35156 -1.0205,-0.97656 0,-0.48828 0.20995,-0.77148 0.49804,-0.93262 0.29298,-0.15625 0.66406,-0.19042 0.98145,-0.19042 l 0.41993,0 c 0,-0.52735 -0.20997,-0.70313 -0.6543,-0.70313 -0.32715,0 -0.64942,0.13672 -0.90333,0.35156 z"
         style="fill:#595757;fill-opacity:1;fill-rule:nonzero;stroke:none"
         inkscape:connector-curvature="0" />
      <path
         id="path19602"
         d="m 129.96538,953.33717 0.76173,0 0,3.27148 -0.76173,0 z m 0,-1.41114 0.76173,0 0,0.81055 -0.76173,0 z"
         style="fill:#595757;fill-opacity:1;fill-rule:nonzero;stroke:none"
         inkscape:connector-curvature="0" />
      <path
         id="path19604"
         d="m 131.46929,953.33717 0.72265,0 0,0.44433 0.01,0 c 0.23927,-0.37598 0.56153,-0.52246 0.95704,-0.52246 0.69336,0 0.99609,0.54688 0.99609,1.28418 l 0,2.06543 -0.76171,0 0,-1.74805 c 0,-0.40039 -0.005,-0.9375 -0.49317,-0.9375 -0.55176,0 -0.66895,0.66407 -0.66895,1.08399 l 0,1.60156 -0.76171,0 z"
         style="fill:#595757;fill-opacity:1;fill-rule:nonzero;stroke:none"
         inkscape:connector-curvature="0" />
      <path
         id="path19606"
         d="m 138.23198,954.65064 c -0.0244,-0.41504 -0.19042,-0.7666 -0.62011,-0.7666 -0.42481,0 -0.63965,0.32715 -0.67383,0.7666 z m 0.50781,1.77246 c -0.27343,0.17578 -0.59081,0.26367 -1.00097,0.26367 -0.9668,0 -1.52344,-0.625 -1.52344,-1.69921 0,-0.94727 0.44434,-1.72852 1.35254,-1.72852 1.08399,0 1.3916,0.83008 1.3916,1.97754 l -2.02148,0 c 0.0341,0.52734 0.36133,0.82519 0.83495,0.82519 0.36622,0 0.68849,-0.15136 0.9668,-0.33203 z"
         style="fill:#595757;fill-opacity:1;fill-rule:nonzero;stroke:none"
         inkscape:connector-curvature="0" />
      <path
         id="path19608"
         d="m 139.74566,953.95728 -0.56153,0 0,-0.62011 0.56153,0 0,-0.6543 0.76171,-0.27344 0,0.92774 0.67384,0 0,0.62011 -0.67384,0 0,1.52832 c 0,0.27832 0.0684,0.53711 0.35645,0.53711 0.13672,0 0.26855,-0.0293 0.34667,-0.0879 l 0.0244,0.67383 c -0.16113,0.0488 -0.33692,0.0781 -0.56152,0.0781 -0.60059,0 -0.92774,-0.41504 -0.92774,-1.06445 z"
         style="fill:#595757;fill-opacity:1;fill-rule:nonzero;stroke:none"
         inkscape:connector-curvature="0" />
      <path
         id="path19610"
         d="m 143.15386,953.33717 0.71288,0 0,0.4541 0.01,0 c 0.23925,-0.40039 0.58594,-0.53223 0.86914,-0.53223 0.40528,0 0.69824,0.1709 0.85938,0.58105 0.17577,-0.3955 0.55663,-0.58105 0.91308,-0.58105 0.72265,0 0.92774,0.55176 0.92774,1.28418 l 0,2.06543 -0.76172,0 0,-1.95313 c 0,-0.30273 0,-0.73242 -0.43945,-0.73242 -0.50294,0 -0.56642,0.66895 -0.56642,1.09864 l 0,1.58691 -0.75683,0 0,-1.95313 c 0,-0.30273 0,-0.73242 -0.43945,-0.73242 -0.50293,0 -0.5664,0.66895 -0.5664,1.09864 l 0,1.58691 -0.76173,0 z"
         style="fill:#595757;fill-opacity:1;fill-rule:nonzero;stroke:none"
         inkscape:connector-curvature="0" />
      <path
         id="path19612"
         d="m 149.49174,956.02271 c 0.58594,0 0.73732,-0.58105 0.73732,-1.12793 0,-0.50293 -0.23927,-0.97656 -0.73732,-0.97656 -0.49316,0 -0.73241,0.4834 -0.73241,0.97656 0,0.53711 0.15625,1.12793 0.73241,1.12793 m 0,-2.76367 c 0.86915,0 1.53321,0.6543 1.53321,1.7334 0,0.94238 -0.56152,1.69433 -1.53321,1.69433 -0.96191,0 -1.52343,-0.75195 -1.52343,-1.69433 0,-1.0791 0.65918,-1.7334 1.52343,-1.7334"
         style="fill:#595757;fill-opacity:1;fill-rule:nonzero;stroke:none"
         inkscape:connector-curvature="0" />
      <path
         id="path19614"
         d="m 151.5767,953.33717 0.76173,0 0,3.27148 -0.76173,0 z m 0,-1.41114 0.76173,0 0,0.81055 -0.76173,0 z"
         style="fill:#595757;fill-opacity:1;fill-rule:nonzero;stroke:none"
         inkscape:connector-curvature="0" />
    </g>
  </g>
</svg>
