<?xml version="1.0" encoding="UTF-8" standalone="no"?>
<!-- Created with Inkscape (http://www.inkscape.org/) -->

<svg xmlns:dc="http://purl.org/dc/elements/1.1/" xmlns:cc="http://creativecommons.org/ns#" xmlns:rdf="http://www.w3.org/1999/02/22-rdf-syntax-ns#" xmlns:svg="http://www.w3.org/2000/svg" xmlns="http://www.w3.org/2000/svg" xmlns:sodipodi="http://sodipodi.sourceforge.net/DTD/sodipodi-0.dtd" xmlns:inkscape="http://www.inkscape.org/namespaces/inkscape" width="800" height="203.09006" id="svg3915" version="1.1" inkscape:version="0.48.1 " sodipodi:docname="Nouveau document 5">
  <defs id="defs3917">
    <clipPath clipPathUnits="userSpaceOnUse" id="clipPath3467">
      <path inkscape:connector-curvature="0" d="M 39.969,122.181 78.821,122.181 78.821,141.513 39.969,141.513 39.969,122.181 z" id="path3469" />
    </clipPath>
  </defs>
  <sodipodi:namedview id="base" pagecolor="#ffffff" bordercolor="#666666" borderopacity="1.0" inkscape:pageopacity="0.0" inkscape:pageshadow="2" inkscape:zoom="0.70683594" inkscape:cx="358.92819" inkscape:cy="-33.820283" inkscape:document-units="px" inkscape:current-layer="layer1" showgrid="false" fit-margin-top="0" fit-margin-left="0" fit-margin-right="0" fit-margin-bottom="0" inkscape:window-width="1366" inkscape:window-height="716" inkscape:window-x="-8" inkscape:window-y="-8" inkscape:window-maximized="1" />
  <metadata id="metadata3920">
    <rdf:RDF>
      <cc:Work rdf:about="">
        <dc:format>image/svg+xml</dc:format>
        <dc:type rdf:resource="http://purl.org/dc/dcmitype/StillImage" />
        <dc:title></dc:title>
      </cc:Work>
    </rdf:RDF>
  </metadata>
  <g inkscape:label="Calque 1" inkscape:groupmode="layer" id="layer1" transform="translate(-16.07181,-125.68119)">
    <g id="g4086" transform="matrix(8.4047408,0,0,8.4047408,-119.00757,-2434.4656)">
      <path id="path3461" style="fill:#c50e1f;fill-opacity:1;fill-rule:nonzero;stroke:none" d="M 96.011183,304.60885 92.298683,304.60885 92.298683,308.32135 96.011183,308.32135 96.011183,304.60885 z" inkscape:connector-curvature="0" />
      <g id="g3465" clip-path="url(#clipPath3467)" transform="matrix(1.25,0,0,-1.25,12.729933,481.49759)">
        <g id="g3471" transform="translate(63.6551,135.5731)">
          <path d="M 0,0 0,0 0,1.828 C -0.282,1.829 -3.094,2.165 -4.16,0.005 L -4.16,1.563 -8.912,1.563 -11.542,-6.326 -14.241,1.563 -17.43,1.563 -14.44,-6.355 -20.386,-6.355 -20.386,5.939 -23.687,5.939 -23.687,-9.064 -14.211,-9.064 -14.211,-6.963 -13.513,-8.813 C -13.169,-9.69 -13.513,-10.782 -14.567,-10.889 -15.17,-10.908 -15.772,-10.825 -16.355,-10.782 L -16.355,-13.285 C -15.728,-13.349 -15.105,-13.392 -14.48,-13.392 -12.371,-13.392 -11.234,-12.687 -10.568,-10.911 L -6.997,-1.277 -6.997,-9.062 -4.012,-9.062 -4.012,-4.53 C -4.012,-0.299 -0.336,-0.943 0,-0.948 L 0,-9.064 2.968,-9.064 2.968,0 0,0 z" style="fill:#c50e1f;fill-opacity:1;fill-rule:nonzero;stroke:none" id="path3473" inkscape:connector-curvature="0" />
        </g>
        <g id="g3475" transform="translate(75.4335,130.5566)">
          <path d="M 0,0 C 0,-0.628 -0.086,-2.407 -2.436,-2.407 -3.412,-2.407 -4.277,-2.145 -4.277,-1.072 -4.277,-0.02 -3.431,0.284 -2.499,0.466 -1.565,0.626 -0.509,0.647 0,1.073 L 0,0 z M 3.008,-1.72 3.008,3.942 C 3.008,6.452 0.382,6.917 -1.8,6.917 -2.186,6.917 -2.54,6.898 -2.87,6.863 L -2.87,5.016 -5.839,5.016 -5.839,2.864 -3.78,2.864 C -3.728,3.669 -3.378,4.775 -1.707,4.775 -1.097,4.775 0,4.593 0,3.359 0,2.186 -1.715,2.246 -3.56,1.983 -5.422,1.741 -7.286,1.173 -7.286,-1.194 -7.286,-3.339 -5.636,-4.33 -3.56,-4.33 -2.225,-4.33 -0.827,-3.986 0.127,-3.035 0.147,-3.38 0.234,-3.723 0.339,-4.047 L 3.388,-4.047 C 3.113,-3.623 3.008,-2.67 3.008,-1.72" style="fill:#c50e1f;fill-opacity:1;fill-rule:nonzero;stroke:none" id="path3477" inkscape:connector-curvature="0" />
        </g>
        <g id="g3479" transform="translate(70.1438,141.2883)">
          <path d="M 0,0 -0.225,0 -0.225,0.223 -0.327,0.223 -0.327,0 -0.549,0 -0.549,-0.101 -0.327,-0.101 -0.327,-0.325 -0.225,-0.325 -0.225,-0.101 0,-0.101 0,0 z" style="fill:#c50e1f;fill-opacity:1;fill-rule:nonzero;stroke:none" id="path3481" inkscape:connector-curvature="0" />
        </g>
        <g id="g3483" transform="translate(70.1438,138.8655)">
          <path d="M 0,0 -0.225,0 -0.225,0.224 -0.327,0.224 -0.327,0 -0.549,0 -0.549,-0.1 -0.327,-0.1 -0.327,-0.325 -0.225,-0.325 -0.225,-0.1 0,-0.1 0,0 z" style="fill:#c50e1f;fill-opacity:1;fill-rule:nonzero;stroke:none" id="path3485" inkscape:connector-curvature="0" />
        </g>
        <g id="g3487" transform="translate(70.1438,139.6741)">
          <path d="M 0,0 -0.225,0 -0.225,0.222 -0.327,0.222 -0.327,0 -0.549,0 -0.549,-0.102 -0.327,-0.102 -0.327,-0.325 -0.225,-0.325 -0.225,-0.102 0,-0.102 0,0 z" style="fill:#c50e1f;fill-opacity:1;fill-rule:nonzero;stroke:none" id="path3489" inkscape:connector-curvature="0" />
        </g>
        <g id="g3491" transform="translate(70.1438,140.4817)">
          <path d="M 0,0 -0.225,0 -0.225,0.223 -0.327,0.223 -0.327,0 -0.549,0 -0.549,-0.101 -0.327,-0.101 -0.327,-0.325 -0.225,-0.325 -0.225,-0.101 0,-0.101 0,0 z" style="fill:#c50e1f;fill-opacity:1;fill-rule:nonzero;stroke:none" id="path3493" inkscape:connector-curvature="0" />
        </g>
        <g id="g3495" transform="translate(71.7581,141.2883)">
          <path d="M 0,0 -0.222,0 -0.222,0.223 -0.325,0.223 -0.325,0 -0.548,0 -0.548,-0.101 -0.325,-0.101 -0.325,-0.325 -0.222,-0.325 -0.222,-0.101 0,-0.101 0,0 z" style="fill:#c50e1f;fill-opacity:1;fill-rule:nonzero;stroke:none" id="path3497" inkscape:connector-curvature="0" />
        </g>
        <g id="g3499" transform="translate(71.7581,138.8655)">
          <path d="M 0,0 -0.222,0 -0.222,0.224 -0.325,0.224 -0.325,0 -0.548,0 -0.548,-0.1 -0.325,-0.1 -0.325,-0.325 -0.222,-0.325 -0.222,-0.1 0,-0.1 0,0 z" style="fill:#c50e1f;fill-opacity:1;fill-rule:nonzero;stroke:none" id="path3501" inkscape:connector-curvature="0" />
        </g>
        <g id="g3503" transform="translate(71.7581,139.6741)">
          <path d="M 0,0 -0.222,0 -0.222,0.222 -0.325,0.222 -0.325,0 -0.548,0 -0.548,-0.102 -0.325,-0.102 -0.325,-0.325 -0.222,-0.325 -0.222,-0.102 0,-0.102 0,0 z" style="fill:#c50e1f;fill-opacity:1;fill-rule:nonzero;stroke:none" id="path3505" inkscape:connector-curvature="0" />
        </g>
        <g id="g3507" transform="translate(71.7581,140.4817)">
          <path d="M 0,0 -0.222,0 -0.222,0.223 -0.325,0.223 -0.325,0 -0.548,0 -0.548,-0.101 -0.325,-0.101 -0.325,-0.325 -0.222,-0.325 -0.222,-0.101 0,-0.101 0,0 z" style="fill:#c50e1f;fill-opacity:1;fill-rule:nonzero;stroke:none" id="path3509" inkscape:connector-curvature="0" />
        </g>
        <g id="g3511" transform="translate(70.9489,141.2883)">
          <path d="M 0,0 -0.222,0 -0.222,0.223 -0.322,0.223 -0.322,0 -0.547,0 -0.547,-0.101 -0.322,-0.101 -0.322,-0.325 -0.222,-0.325 -0.222,-0.101 0,-0.101 0,0 z" style="fill:#c50e1f;fill-opacity:1;fill-rule:nonzero;stroke:none" id="path3513" inkscape:connector-curvature="0" />
        </g>
        <g id="g3515" transform="translate(70.9489,138.8655)">
          <path d="M 0,0 -0.222,0 -0.222,0.224 -0.322,0.224 -0.322,0 -0.547,0 -0.547,-0.1 -0.322,-0.1 -0.322,-0.325 -0.222,-0.325 -0.222,-0.1 0,-0.1 0,0 z" style="fill:#c50e1f;fill-opacity:1;fill-rule:nonzero;stroke:none" id="path3517" inkscape:connector-curvature="0" />
        </g>
        <g id="g3519" transform="translate(70.9489,139.6741)">
          <path d="M 0,0 -0.222,0 -0.222,0.222 -0.322,0.222 -0.322,0 -0.547,0 -0.547,-0.102 -0.322,-0.102 -0.322,-0.325 -0.222,-0.325 -0.222,-0.102 0,-0.102 0,0 z" style="fill:#c50e1f;fill-opacity:1;fill-rule:nonzero;stroke:none" id="path3521" inkscape:connector-curvature="0" />
        </g>
        <g id="g3523" transform="translate(70.9489,140.4817)">
          <path d="M 0,0 -0.222,0 -0.222,0.223 -0.322,0.223 -0.322,0 -0.547,0 -0.547,-0.101 -0.322,-0.101 -0.322,-0.325 -0.222,-0.325 -0.222,-0.101 0,-0.101 0,0 z" style="fill:#c50e1f;fill-opacity:1;fill-rule:nonzero;stroke:none" id="path3525" inkscape:connector-curvature="0" />
        </g>
        <g id="g3527" transform="translate(72.5647,141.2883)">
          <path d="M 0,0 -0.223,0 -0.223,0.223 -0.324,0.223 -0.324,0 -0.546,0 -0.546,-0.101 -0.324,-0.101 -0.324,-0.325 -0.223,-0.325 -0.223,-0.101 0,-0.101 0,0 z" style="fill:#c50e1f;fill-opacity:1;fill-rule:nonzero;stroke:none" id="path3529" inkscape:connector-curvature="0" />
        </g>
        <g id="g3531" transform="translate(72.5647,138.8655)">
          <path d="M 0,0 -0.223,0 -0.223,0.224 -0.324,0.224 -0.324,0 -0.546,0 -0.546,-0.1 -0.324,-0.1 -0.324,-0.325 -0.223,-0.325 -0.223,-0.1 0,-0.1 0,0 z" style="fill:#c50e1f;fill-opacity:1;fill-rule:nonzero;stroke:none" id="path3533" inkscape:connector-curvature="0" />
        </g>
        <g id="g3535" transform="translate(72.5647,139.6741)">
          <path d="M 0,0 -0.223,0 -0.223,0.222 -0.324,0.222 -0.324,0 -0.546,0 -0.546,-0.102 -0.324,-0.102 -0.324,-0.325 -0.223,-0.325 -0.223,-0.102 0,-0.102 0,0 z" style="fill:#c50e1f;fill-opacity:1;fill-rule:nonzero;stroke:none" id="path3537" inkscape:connector-curvature="0" />
        </g>
        <g id="g3539" transform="translate(74.1794,138.8655)">
          <path d="M 0,0 -0.224,0 -0.224,0.224 -0.324,0.224 -0.324,0 -0.549,0 -0.549,-0.1 -0.324,-0.1 -0.324,-0.325 -0.224,-0.325 -0.224,-0.1 0,-0.1 0,0 z" style="fill:#c50e1f;fill-opacity:1;fill-rule:nonzero;stroke:none" id="path3541" inkscape:connector-curvature="0" />
        </g>
        <g id="g3543" transform="translate(74.1794,139.6741)">
          <path d="M 0,0 -0.224,0 -0.224,0.222 -0.324,0.222 -0.324,0 -0.549,0 -0.549,-0.102 -0.324,-0.102 -0.324,-0.325 -0.224,-0.325 -0.224,-0.102 0,-0.102 0,0 z" style="fill:#c50e1f;fill-opacity:1;fill-rule:nonzero;stroke:none" id="path3545" inkscape:connector-curvature="0" />
        </g>
        <g id="g3547" transform="translate(73.3728,139.6741)">
          <path d="M 0,0 -0.222,0 -0.222,0.222 -0.324,0.222 -0.324,0 -0.548,0 -0.548,-0.102 -0.324,-0.102 -0.324,-0.325 -0.222,-0.325 -0.222,-0.102 0,-0.102 0,0 z" style="fill:#c50e1f;fill-opacity:1;fill-rule:nonzero;stroke:none" id="path3549" inkscape:connector-curvature="0" />
        </g>
        <g id="g3551" transform="translate(73.3728,140.4817)">
          <path d="M 0,0 -0.222,0 -0.222,0.223 -0.324,0.223 -0.324,0 -0.548,0 -0.548,-0.101 -0.324,-0.101 -0.324,-0.325 -0.222,-0.325 -0.222,-0.101 0,-0.101 0,0 z" style="fill:#c50e1f;fill-opacity:1;fill-rule:nonzero;stroke:none" id="path3553" inkscape:connector-curvature="0" />
        </g>
        <g id="g3555" transform="translate(74.9871,141.2883)">
          <path d="M 0,0 -0.224,0 -0.224,0.223 -0.324,0.223 -0.324,0 -0.548,0 -0.548,-0.101 -0.324,-0.101 -0.324,-0.325 -0.224,-0.325 -0.224,-0.101 0,-0.101 0,0 z" style="fill:#c50e1f;fill-opacity:1;fill-rule:nonzero;stroke:none" id="path3557" inkscape:connector-curvature="0" />
        </g>
        <g id="g3559" transform="translate(74.9871,139.6741)">
          <path d="M 0,0 -0.224,0 -0.224,0.222 -0.324,0.222 -0.324,0 -0.548,0 -0.548,-0.102 -0.324,-0.102 -0.324,-0.325 -0.224,-0.325 -0.224,-0.102 0,-0.102 0,0 z" style="fill:#c50e1f;fill-opacity:1;fill-rule:nonzero;stroke:none" id="path3561" inkscape:connector-curvature="0" />
        </g>
        <g id="g3563" transform="translate(77.4094,139.6741)">
          <path d="M 0,0 -0.223,0 -0.223,0.222 -0.325,0.222 -0.325,0 -0.548,0 -0.548,-0.102 -0.325,-0.102 -0.325,-0.325 -0.223,-0.325 -0.223,-0.102 0,-0.102 0,0 z" style="fill:#c50e1f;fill-opacity:1;fill-rule:nonzero;stroke:none" id="path3565" inkscape:connector-curvature="0" />
        </g>
        <g id="g3567" transform="translate(75.7947,139.6741)">
          <path d="M 0,0 -0.225,0 -0.225,0.222 -0.325,0.222 -0.325,0 -0.55,0 -0.55,-0.102 -0.325,-0.102 -0.325,-0.325 -0.225,-0.325 -0.225,-0.102 0,-0.102 0,0 z" style="fill:#c50e1f;fill-opacity:1;fill-rule:nonzero;stroke:none" id="path3569" inkscape:connector-curvature="0" />
        </g>
        <g id="g3571" transform="translate(67.1711,132.3793)">
          <path d="M 0,0 -0.224,0 -0.224,0.224 -0.324,0.224 -0.324,0 -0.546,0 -0.546,-0.1 -0.324,-0.1 -0.324,-0.326 -0.224,-0.326 -0.224,-0.1 0,-0.1 0,0 z" style="fill:#c50e1f;fill-opacity:1;fill-rule:nonzero;stroke:none" id="path3573" inkscape:connector-curvature="0" />
        </g>
        <g id="g3575" transform="translate(67.1711,129.9563)">
          <path d="M 0,0 -0.224,0 -0.224,0.225 -0.324,0.225 -0.324,0 -0.546,0 -0.546,-0.101 -0.324,-0.101 -0.324,-0.323 -0.224,-0.323 -0.224,-0.101 0,-0.101 0,0 z" style="fill:#c50e1f;fill-opacity:1;fill-rule:nonzero;stroke:none" id="path3577" inkscape:connector-curvature="0" />
        </g>
        <g id="g3579" transform="translate(67.1711,130.7635)">
          <path d="M 0,0 -0.224,0 -0.224,0.226 -0.324,0.226 -0.324,0 -0.546,0 -0.546,-0.099 -0.324,-0.099 -0.324,-0.324 -0.224,-0.324 -0.224,-0.099 0,-0.099 0,0 z" style="fill:#c50e1f;fill-opacity:1;fill-rule:nonzero;stroke:none" id="path3581" inkscape:connector-curvature="0" />
        </g>
        <g id="g3583" transform="translate(67.1711,131.5706)">
          <path d="M 0,0 -0.224,0 -0.224,0.225 -0.324,0.225 -0.324,0 -0.546,0 -0.546,-0.1 -0.324,-0.1 -0.324,-0.322 -0.224,-0.322 -0.224,-0.1 0,-0.1 0,0 z" style="fill:#c50e1f;fill-opacity:1;fill-rule:nonzero;stroke:none" id="path3585" inkscape:connector-curvature="0" />
        </g>
        <g id="g3587" transform="translate(69.5944,132.3793)">
          <path d="M 0,0 -0.224,0 -0.224,0.224 -0.325,0.224 -0.325,0 -0.549,0 -0.549,-0.1 -0.325,-0.1 -0.325,-0.326 -0.224,-0.326 -0.224,-0.1 0,-0.1 0,0 z" style="fill:#c50e1f;fill-opacity:1;fill-rule:nonzero;stroke:none" id="path3589" inkscape:connector-curvature="0" />
        </g>
        <g id="g3591" transform="translate(68.7863,132.3793)">
          <path d="M 0,0 -0.223,0 -0.223,0.224 -0.325,0.224 -0.325,0 -0.547,0 -0.547,-0.1 -0.325,-0.1 -0.325,-0.326 -0.223,-0.326 -0.223,-0.1 0,-0.1 0,0 z" style="fill:#c50e1f;fill-opacity:1;fill-rule:nonzero;stroke:none" id="path3593" inkscape:connector-curvature="0" />
        </g>
        <g id="g3595" transform="translate(68.7863,131.5706)">
          <path d="M 0,0 -0.223,0 -0.223,0.225 -0.325,0.225 -0.325,0 -0.547,0 -0.547,-0.1 -0.325,-0.1 -0.325,-0.322 -0.223,-0.322 -0.223,-0.1 0,-0.1 0,0 z" style="fill:#c50e1f;fill-opacity:1;fill-rule:nonzero;stroke:none" id="path3597" inkscape:connector-curvature="0" />
        </g>
        <g id="g3599" transform="translate(67.9787,132.3793)">
          <path d="M 0,0 -0.222,0 -0.222,0.224 -0.324,0.224 -0.324,0 -0.548,0 -0.548,-0.1 -0.324,-0.1 -0.324,-0.326 -0.222,-0.326 -0.222,-0.1 0,-0.1 0,0 z" style="fill:#c50e1f;fill-opacity:1;fill-rule:nonzero;stroke:none" id="path3601" inkscape:connector-curvature="0" />
        </g>
        <g id="g3603" transform="translate(67.9787,130.7635)">
          <path d="M 0,0 -0.222,0 -0.222,0.226 -0.324,0.226 -0.324,0 -0.548,0 -0.548,-0.099 -0.324,-0.099 -0.324,-0.324 -0.222,-0.324 -0.222,-0.099 0,-0.099 0,0 z" style="fill:#c50e1f;fill-opacity:1;fill-rule:nonzero;stroke:none" id="path3605" inkscape:connector-curvature="0" />
        </g>
        <g id="g3607" transform="translate(67.9787,131.5706)">
          <path d="M 0,0 -0.222,0 -0.222,0.225 -0.324,0.225 -0.324,0 -0.548,0 -0.548,-0.1 -0.324,-0.1 -0.324,-0.322 -0.222,-0.322 -0.222,-0.1 0,-0.1 0,0 z" style="fill:#c50e1f;fill-opacity:1;fill-rule:nonzero;stroke:none" id="path3609" inkscape:connector-curvature="0" />
        </g>
      </g>
      <path d="M 20.708058,310.60147 16.071808,310.60147 16.071808,308.16522 28.036808,308.16522 28.036808,310.60147 23.401808,310.60147 23.401808,323.29397 20.708058,323.29397 20.708058,310.60147 z" style="fill:#6e5d55;fill-opacity:1;fill-rule:nonzero;stroke:none" id="path3613" inkscape:connector-curvature="0" />
      <g transform="matrix(1.25,0,0,-1.25,43.098433,322.18247)" id="g3623">
        <path inkscape:connector-curvature="0" id="path3625" style="fill:#6e5d55;fill-opacity:1;fill-rule:nonzero;stroke:none" d="M 0,0 C -1.47,-0.786 -3.144,-1.196 -5.008,-1.196 -8.735,-1.196 -11.401,1.333 -11.401,5.111 -11.401,8.992 -8.735,11.521 -5.008,11.521 -3.163,11.521 -1.504,11.127 -0.24,9.999 L -1.829,8.393 C -2.598,9.144 -3.778,9.572 -4.992,9.572 -7.487,9.572 -9.144,7.657 -9.144,5.248 -9.144,2.666 -7.487,0.753 -4.992,0.753 -3.898,0.753 -2.906,0.957 -2.155,1.384 L -2.155,4.239 -4.632,4.239 -4.632,6.187 0,6.187 0,0 z" />
      </g>
      <g transform="matrix(1.25,0,0,-1.25,44.099433,308.16585)" id="g3627">
        <path inkscape:connector-curvature="0" id="path3629" style="fill:#6e5d55;fill-opacity:1;fill-rule:nonzero;stroke:none" d="M 0,0 2.477,0 5.776,-9.144 9.178,0 11.503,0 6.615,-12.102 4.751,-12.102 0,0 z" />
      </g>
    </g>
  </g>
</svg>
