<?xml version="1.0" encoding="utf-8"?>
<!-- Generator: Adobe Illustrator 23.0.1, SVG Export Plug-In . SVG Version: 6.00 Build 0)  -->
<svg version="1.1"
	 id="svg2" xmlns:cc="http://creativecommons.org/ns#" xmlns:dc="http://purl.org/dc/elements/1.1/" xmlns:inkscape="http://www.inkscape.org/namespaces/inkscape" xmlns:rdf="http://www.w3.org/1999/02/22-rdf-syntax-ns#" xmlns:sodipodi="http://sodipodi.sourceforge.net/DTD/sodipodi-0.dtd" xmlns:svg="http://www.w3.org/2000/svg"
	 xmlns="http://www.w3.org/2000/svg" xmlns:xlink="http://www.w3.org/1999/xlink" x="0px" y="0px" viewBox="0 0 528.2 175"
	 style="enable-background:new 0 0 528.2 175;" xml:space="preserve">
<style type="text/css">
	.st0{fill:#009CB9;}
	.st1{fill:#BDD143;}
	.st2{fill:#7A1E72;}
	.st3{fill:#005CA5;}
	.st4{fill:url(#SVGID_1_);}
	.st5{fill:url(#SVGID_2_);}
</style>
<defs>
	
	
		<inkscape:perspective  id="perspective9" inkscape:persp3d-origin="372.04724 : 350.78739 : 1" inkscape:vp_x="0 : 526.18109 : 1" inkscape:vp_y="0 : 1000 : 0" inkscape:vp_z="744.09448 : 526.18109 : 1" sodipodi:type="inkscape:persp3d">
		</inkscape:perspective>
</defs>
<sodipodi:namedview  bordercolor="#666666" borderopacity="1.0" gridtolerance="10.0" guidetolerance="10.0" id="base" inkscape:current-layer="g11" inkscape:cx="265" inkscape:cy="75.625" inkscape:pageopacity="0.0" inkscape:pageshadow="2" inkscape:window-height="726" inkscape:window-width="645" inkscape:window-x="369" inkscape:window-y="25" inkscape:zoom="1.0509434" objecttolerance="10.0" pagecolor="#ffffff" showgrid="false">
	</sodipodi:namedview>
<g>
	<g>
		<g>
			<g>
				<g>
					<path class="st0" d="M420.6,94.1c0-13.5-5.2-25.8-13.8-35.1h-11.7c10.5,8.1,17.3,20.8,17.3,35.1c0,14.3-6.8,27-17.3,35.1h11.7
						C415.4,119.9,420.6,107.6,420.6,94.1z"/>
					<path class="st1" d="M426.5,94.2c0-13.1-4.2-25.3-11.3-35.2h16.1c5.9,10.4,9.3,22.4,9.3,35.2c0,12.7-3.3,24.6-9.1,34.9h-16.1
						C422.5,119.2,426.5,107.2,426.5,94.2z"/>
					<g>
						<path class="st2" d="M484.1,68.1h-1.4c-0.1,0-0.2-0.1-0.2-0.2l-1.7-3.1h-0.2c-0.3,0-0.8,0-1,0v3.2c0,0.1-0.1,0.2-0.2,0.2h-1.2
							c-0.1,0-0.2-0.1-0.2-0.2v-8c0-0.2,0.1-0.3,0.4-0.4c0.6-0.1,1.4-0.2,2.3-0.2c1.8,0,3.4,0.6,3.4,2.6v0.1c0,1.2-0.6,2-1.6,2.4
							l1.8,3.4c0,0,0,0.1,0,0.1C484.2,68,484.2,68.1,484.1,68.1z M482.3,62c0-0.9-0.6-1.2-1.7-1.2c-0.2,0-0.8,0-1,0v2.6
							c0.2,0,0.8,0,1,0c1.2,0,1.7-0.3,1.7-1.4V62z"/>
						<path class="st2" d="M490.5,65.3h-3.8v0c0,0.7,0.3,1.5,1.4,1.5c0.8,0,1.7-0.1,2.1-0.1h0c0.1,0,0.2,0.1,0.2,0.2v0.8
							c0,0.2,0,0.3-0.2,0.3c-0.8,0.1-1.2,0.2-2.3,0.2c-1.2,0-2.8-0.6-2.8-2.9v-0.9c0-1.8,1-3,2.8-3c1.8,0,2.8,1.2,2.8,3V65
							C490.8,65.2,490.7,65.3,490.5,65.3z M489.2,64.2c0-0.9-0.5-1.4-1.2-1.4c-0.7,0-1.2,0.5-1.2,1.4v0L489.2,64.2L489.2,64.2z
							 M489.9,59.2l-1.4,1.4c-0.1,0.1-0.1,0.2-0.3,0.2h-1c-0.1,0-0.1,0-0.1-0.1c0,0,0-0.1,0-0.1l1.1-1.4c0.1-0.1,0.2-0.2,0.3-0.2
							h1.2C489.9,59,489.9,59,489.9,59.2C489.9,59.1,489.9,59.1,489.9,59.2z"/>
						<path class="st2" d="M497.8,62.6l-0.4,0.2c0.2,0.3,0.3,0.5,0.3,0.9v0.1c0,1.5-1,2.1-2.8,2.1c-0.6,0-1-0.1-1.3-0.2
							c-0.1,0.1-0.2,0.2-0.2,0.3c0,0.2,0.1,0.3,0.4,0.4l1.4,0.3c1.6,0.4,2.6,0.6,2.6,1.9v0.1c0,1.2-0.9,1.8-2.9,1.8
							c-1.9,0-2.9-0.7-2.9-1.9v-0.1c0-0.5,0.2-0.9,0.6-1.3c-0.3-0.2-0.5-0.7-0.5-1.1v0c0-0.4,0.2-0.7,0.5-0.9
							c-0.4-0.4-0.5-0.8-0.5-1.4v-0.1c0-1.2,0.8-2.1,2.8-2.1h2.7c0.2,0,0.3,0.1,0.3,0.3v0.5C498,62.5,498,62.5,497.8,62.6z
							 M496.4,68.5c0-0.3-0.2-0.4-1.4-0.7l-1-0.2c-0.2,0.2-0.3,0.4-0.3,0.8v0.1c0,0.5,0.3,0.8,1.4,0.8
							C496.2,69.3,496.4,69,496.4,68.5L496.4,68.5z M496.2,63.7c0-0.6-0.2-1-1.2-1c-1,0-1.3,0.4-1.3,1v0.1c0,0.4,0.2,0.9,1.3,0.9
							C496,64.7,496.2,64.3,496.2,63.7L496.2,63.7z"/>
						<path class="st2" d="M500.7,60.6h-1.1c-0.1,0-0.2-0.1-0.2-0.2v-1c0-0.1,0.1-0.2,0.2-0.2h1.1c0.1,0,0.2,0.1,0.2,0.2v1
							C501,60.5,500.8,60.6,500.7,60.6z M500.7,68.1h-1.1c-0.1,0-0.2-0.1-0.2-0.2v-6.1c0-0.1,0.1-0.2,0.2-0.2h1.1
							c0.1,0,0.2,0.1,0.2,0.2v6.1C500.9,68,500.8,68.1,500.7,68.1z"/>
						<path class="st2" d="M505.3,68.2c-1.8,0-2.8-1.2-2.8-2.9v-0.9c0-1.7,1-2.9,2.8-2.9c1.8,0,2.8,1.2,2.8,2.9v0.9
							C508.1,66.9,507.1,68.2,505.3,68.2z M506.5,64.3c0-1-0.4-1.6-1.2-1.6c-0.8,0-1.2,0.6-1.2,1.6v0.9c0,1,0.4,1.6,1.2,1.6
							c0.8,0,1.2-0.6,1.2-1.6V64.3z"/>
						<path class="st2" d="M514.8,68.1h-1.1c-0.1,0-0.2-0.1-0.2-0.2V64c0-1-0.1-1.3-1-1.3c-0.4,0-0.8,0.2-1.3,0.4v4.7
							c0,0.1-0.1,0.2-0.2,0.2h-1.1c-0.1,0-0.2-0.1-0.2-0.2v-6.1c0-0.1,0.1-0.2,0.2-0.2h1c0.1,0,0.2,0.1,0.2,0.2V62
							c0.7-0.4,1.1-0.6,1.9-0.6c1.7,0,2,1.1,2,2.6v3.8C515,68,514.9,68.1,514.8,68.1z"/>
					</g>
					<g>
						<path class="st3" d="M462.9,85.7c-0.7,0-1.8-0.1-2.4-0.1v6.9c0,0.3-0.2,0.5-0.5,0.5h-2.6c-0.3,0-0.5-0.2-0.5-0.5V74.3
							c0-0.5,0.3-0.7,0.8-0.8c1.4-0.2,3.3-0.3,5.2-0.3c4.1,0,7.6,1.4,7.6,6.1v0.2C470.6,84.2,467,85.7,462.9,85.7z M466.9,79.3
							c0-2.2-1.3-3.1-4-3.1c-0.6,0-1.9,0-2.4,0.1v6.3c0.4,0,1.9,0.1,2.4,0.1c2.9,0,4-1.1,4-3.2V79.3z"/>
						<path class="st3" d="M486.2,93h-2.8c-0.2,0-0.5-0.2-0.5-0.5l-1.2-5h-6.1l-1.2,5c-0.1,0.2-0.3,0.5-0.5,0.5H471
							c-0.3,0-0.5-0.2-0.5-0.5c0,0,0-0.1,0-0.1l4.3-16.6c0.6-2.5,2.5-2.7,3.7-2.7c1.1,0,3,0.2,3.7,2.7l4.3,16.6c0,0.1,0,0.1,0,0.1
							C486.6,92.9,486.4,93,486.2,93z M479,76.7c-0.1-0.3-0.2-0.4-0.4-0.4c-0.3,0-0.3,0.1-0.4,0.4l-1.9,7.9h4.7L479,76.7z"/>
						<path class="st3" d="M508,93.3c-2,0-3.4-0.2-4.7-0.5c-0.3-0.1-0.5-0.2-0.5-0.5v-1.9c0-0.3,0.2-0.5,0.5-0.5c0,0,0,0,0,0
							c1.1,0.1,3.7,0.3,4.7,0.3c2.4,0,3.1-0.8,3.1-2.4c0-1-0.5-1.6-2.3-2.6l-3.5-2.1c-2.5-1.5-3.1-3-3.1-4.8c0-2.9,1.7-5,6.6-5
							c1.7,0,4.2,0.3,5.1,0.5c0.3,0.1,0.5,0.2,0.5,0.5v2c0,0.3-0.2,0.5-0.5,0.5c0,0,0,0-0.1,0c-1.8-0.2-3.5-0.3-5.2-0.3
							c-2,0-2.8,0.7-2.8,1.9c0,0.9,0.4,1.4,2.2,2.4l3.2,1.8c2.9,1.6,3.7,3.3,3.7,5.4C515,90.4,513.3,93.3,508,93.3z"/>
						<path class="st3" d="M458.9,129c-0.8,0.2-3.1,0.4-4.5,0.4c-3.4,0-6.1-0.9-6.1-5.4V110c0-0.3,0.2-0.5,0.5-0.5h2.6
							c0.3,0,0.5,0.2,0.5,0.5v13.9c0,1.7,0.5,2.3,2.1,2.3h4.9c0.3,0,0.5,0.2,0.5,0.5v1.7C459.4,128.8,459.3,128.9,458.9,129z"/>
						<path class="st3" d="M468,129.3c-4.4,0-7.6-2.4-7.6-8.3v-3.6c0-5.8,3.2-8.3,7.6-8.3c4.4,0,7.5,2.4,7.5,8.3v3.6
							C475.6,126.9,472.4,129.3,468,129.3z M471.9,117.5c0-3.5-1.2-5.1-3.8-5.1c-2.6,0-3.8,1.6-3.8,5.1v3.6c0,3.5,1.2,5.1,3.8,5.1
							c2.6,0,3.8-1.6,3.8-5.1V117.5z"/>
						<path class="st3" d="M482.2,129.1h-2.6c-0.3,0-0.5-0.2-0.5-0.5V110c0-0.3,0.2-0.5,0.5-0.5h2.6c0.3,0,0.5,0.2,0.5,0.5v18.7
							C482.7,128.9,482.5,129.1,482.2,129.1z"/>
						<path class="st3" d="M500.7,129.1h-3.2c-0.3,0-0.4-0.3-0.5-0.5l-3.8-7.1h-0.4c-0.7,0-1.8-0.1-2.4-0.1v7.2
							c0,0.3-0.2,0.5-0.5,0.5h-2.6c-0.3,0-0.5-0.2-0.5-0.5v-18.2c0-0.5,0.3-0.7,0.8-0.8c1.4-0.2,3.3-0.3,5.2-0.3
							c4.1,0,7.6,1.5,7.6,6v0.2c0,2.8-1.4,4.6-3.6,5.4l4.2,7.7c0.1,0.1,0.1,0.2,0.1,0.2C501,129,500.9,129.1,500.7,129.1z
							 M496.7,115.2c0-2-1.3-2.8-4-2.8c-0.6,0-1.9,0.1-2.4,0.1v6c0.4,0,1.9,0.1,2.4,0.1c2.7,0,4-0.7,4-3.1V115.2z"/>
						<path class="st3" d="M514.5,129c-0.8,0.1-1.9,0.4-5,0.4c-3.4,0-6.1-0.9-6.1-5.4v-9.2c0-4.5,2.7-5.4,6.1-5.4
							c3.2,0,4.2,0.2,5,0.4c0.4,0.1,0.5,0.2,0.5,0.6v1.7c0,0.3-0.2,0.5-0.5,0.5h-5.4c-1.5,0-2.1,0.5-2.1,2.3v2.9h7.2
							c0.3,0,0.5,0.2,0.5,0.5v1.9c0,0.3-0.2,0.5-0.5,0.5H507v3.4c0,1.7,0.6,2.3,2.1,2.3h5.4c0.3,0,0.5,0.2,0.5,0.5v1.7
							C515,128.8,514.9,128.9,514.5,129z"/>
						<path class="st3" d="M495.7,105c-0.7,0.2-1.6,0.3-2.3,0.3c-1.9,0-2.8-1.1-2.8-2.9v-0.9c0-1.8,0.9-2.9,2.8-2.9
							c0.3,0,0.7,0,1.1,0.1v-2c0-0.1,0.1-0.2,0.2-0.2h1.1c0.1,0,0.2,0.1,0.2,0.2v8C496,104.8,496,104.9,495.7,105z M494.5,99.9
							c-0.3,0-0.8-0.1-1.1-0.1c-1,0-1.2,0.7-1.2,1.6v0.9c0,0.9,0.2,1.6,1.2,1.6c0.4,0,0.9,0,1.1-0.1V99.9z"/>
						<path class="st3" d="M502.6,102.4h-3.8v0c0,0.7,0.3,1.5,1.4,1.5c0.8,0,1.6-0.1,2.1-0.1h0c0.1,0,0.2,0.1,0.2,0.2v0.8
							c0,0.2,0,0.3-0.2,0.3c-0.7,0.1-1.2,0.2-2.2,0.2c-1.2,0-2.8-0.6-2.8-2.9v-0.9c0-1.8,1-2.9,2.8-2.9c1.8,0,2.7,1.2,2.7,2.9v0.6
							C502.9,102.3,502.8,102.4,502.6,102.4z M501.3,101.3c0-0.9-0.5-1.4-1.2-1.4c-0.7,0-1.2,0.5-1.2,1.4v0L501.3,101.3L501.3,101.3
							z"/>
						<path class="st3" d="M508.4,105.2h-1.1c-0.1,0-0.2-0.1-0.2-0.2v-8.3c0-0.1,0.1-0.2,0.2-0.2h1.1c0.1,0,0.2,0.1,0.2,0.2v8.3
							C508.6,105.1,508.5,105.2,508.4,105.2z"/>
						<path class="st3" d="M514.8,105.2h-1c-0.1,0-0.2-0.1-0.2-0.2v-0.2c-0.5,0.3-1.1,0.5-1.6,0.5c-1,0-2-0.4-2-1.9v0
							c0-1.3,0.8-2,2.8-2h0.7v-0.5c0-0.7-0.3-0.9-1-0.9c-0.7,0-1.5,0-1.9,0.1h-0.1c-0.1,0-0.2,0-0.2-0.2V99c0-0.1,0.1-0.2,0.2-0.2
							c0.5-0.1,1.1-0.2,1.9-0.2c1.6,0,2.5,0.7,2.5,2.2v4.2C515,105.1,514.9,105.2,514.8,105.2z M513.5,102.3h-0.7
							c-1.1,0-1.3,0.3-1.3,1v0c0,0.6,0.3,0.7,0.8,0.7c0.4,0,0.8-0.1,1.2-0.3V102.3z"/>
						<path class="st3" d="M500.7,74c0-0.1,0.1-0.1,0.1-0.2c0-0.2-0.2-0.4-0.5-0.4h-2.9c-0.2,0-0.4,0.2-0.5,0.4l-3.2,7.9
							c-0.2,0.5-0.3,0.5-0.5,0.5c-0.1,0-0.3-0.1-0.5-0.5l-3.2-7.9c-0.1-0.2-0.3-0.4-0.5-0.4h-2.9c-0.3,0-0.4,0.2-0.4,0.4
							c0,0.1,0,0.1,0.1,0.2l2.7,6.2c0,0,0,0,0,0l2.9,6.7v5.6c0,0.3,0.2,0.5,0.5,0.5h2.6c0.3,0,0.5-0.2,0.5-0.5v-5.6l1.7-3.9
							L500.7,74z"/>
					</g>
				</g>
				<g>
					<g>
						<linearGradient id="SVGID_1_" gradientUnits="userSpaceOnUse" x1="41.2506" y1="63.0612" x2="395.482" y2="120.5543">
							<stop  offset="0.2355" style="stop-color:#005CA5"/>
							<stop  offset="0.4885" style="stop-color:#0089BF"/>
							<stop  offset="0.7783" style="stop-color:#009CB9"/>
						</linearGradient>
						<path class="st4" d="M352.8,128.6c17.7,0,31.5-13.2,31.5-34.4c0-20.7-11.7-34.8-29.9-34.9c-16.9,0-22.6,6.6-22.8,7.1l0-0.2
							c0-2.9-2.5-5.7-5.5-5.7h-6.6l0.1,14.2l0,14.6v11.1l0,15.6c0,0.7-0.4,1.3-1,1.6h-17c5.8-6.1,9.3-14.4,9.3-23.8
							c0-20-16-34.6-35.7-34.6c-19.8,0-35.6,14.5-35.6,34.6c0,8.7,3.1,16.5,7.8,22.2c0.2,0.2,0.2,0.3,0.4,0.5c0.4,0.5,0,0.9-0.5,1.1
							c-0.2,0-0.4,0.1-0.5,0.1h-0.5c-0.1,0-0.6,0-0.6,0l-35.2,0l0,0c-4.8,0-9.4-1.3-13.2-3.9c19.8-14.1,31.2-25.5,35.9-31.2
							c3-3.6,2-5.4,2-5.4c-3.7-12.4-12.7-18.5-27.4-18.5c-21.2,0-33.2,14.2-33.2,35.3c0,6.9,1.8,13.3,5,18.6
							c-2.7,1.6-5.8,2.8-10.5,4.3c-6,1.9-19.2,1-19.2,1h0.1c-10.2-0.2-14.1-2.3-16.6-8c-1.8-6.4-1.4-10.1-1.4-10.1h4.5
							c9.9-0.3,24-4.4,30.1-23.1c5.6-23.8,1.3-42.4,1.3-42.4c-2.7-16.5-18.1-24.9-25.6-24.8L133,9.4l-3.6,0c-6.1,0-11,4.9-11,11
							l0,1.2v29l0,0l0,38.1l-15,0.1L78,25.5c-2.1-4.7-8.8-4.2-8.8-4.2h-4.1c-1.9,0.1-6.7-0.3-8.9,5L26.7,99.7l-6.3,14.1l-6.6,15
							l8,0.3c5.4-0.1,8-1.7,10.7-8.2l4.2-9.4l9.1-23.1h0l1.2-3l19.8-50.7c0.1-0.3,0.3-0.4,0.5-0.5c0.2,0.1,0.4,0.3,0.5,0.5l20,51.4
							l-0.3-0.7l1.2,3.2H67.3l-2.2,0c0,0,0,3.3,0,4c0,3.1,2.8,7.1,7.4,7.1l6,0v0h14.1l9.5,21.2c2.7,6.5,5.3,8.1,10.7,8.2l8-0.3
							l-6.6-15l-6.3-14.1h10.6c0,0-0.2,4.2,1.1,10c2.9,11.2,10.1,17.5,20.2,19c0.7,0.1,1.4,0.2,2.1,0.2h4.2c10,0.3,20.3,0.5,25-0.8
							c6.9-2,12.2-4.1,15.8-7c5.9,4.8,13.8,7.6,22.8,7.6l0.4,0v0h36v0.1h73.5l0,34.1h4.8c0,0,7.6,0.4,8.2-7.2v-26.9h0v-14.4h0
							c0-5.2,0-14.8,0-19.2c0-17,9.1-24,19.2-24c11.3,0,19.2,9.3,19.2,23.8c0,15.1-8.5,22.7-19.2,22.7h-7v4.6c0,0-0.1,4.1,2.5,5.7
							C348.5,128.6,350.4,128.6,352.8,128.6z M132,25.7l0-0.5c0-2,1.6-3.6,3.6-3.6l0.5,0l3.7,0.2c8.8,0.3,13.7,10.1,15.1,15.9
							c0,0,2.6,13.9,0.1,29.5C152.8,80,149.8,82,149.8,82c-2.2,2.4-8.1,6.6-12.7,6.5H132V44.8c0-0.5,0-0.9,0-1.3V25.7z M188.1,99.2
							c-1.1-6.1-0.2-11.3-0.2-11.3c0.3-2.4,1-5,1.6-6.5c3.1-8,10-11.7,18.2-12.2c9.2-0.5,16.3,5.6,14.5,8.8
							c-6.2,7.3-22.2,19.6-32.2,27C189.1,103.3,188.5,101.3,188.1,99.2z M275.2,117.6c-12.4,0-22.7-10-22.7-23.8
							c0-13.7,10.2-23.6,22.7-23.6c12.6,0,22.8,9.8,22.8,23.6C298,107.6,287.8,117.6,275.2,117.6z"/>
					</g>
					<path class="st1" d="M217.6,49.9l11.6-15.8h-14.1l-15.4,19.5l10.7,0.1C213.4,53.7,216,52.3,217.6,49.9z"/>
				</g>
			</g>
			<g>
				<g>
					<linearGradient id="SVGID_2_" gradientUnits="userSpaceOnUse" x1="40.8883" y1="62.987" x2="395.9337" y2="120.6121">
						<stop  offset="0.2355" style="stop-color:#005CA5"/>
						<stop  offset="0.4885" style="stop-color:#0089BF"/>
						<stop  offset="0.7783" style="stop-color:#009CB9"/>
					</linearGradient>
					<path class="st5" d="M353.2,128.7c17.8,0,31.5-13.3,31.5-34.5c0-20.7-11.7-34.9-30-34.9c-16.9,0-22.7,6.6-22.8,7.1l0-0.2
						c0-2.9-2.5-5.7-5.5-5.7h-6.6l0.1,14.3l0,14.6v11.1l0,15.6c0,0.7-0.4,1.3-1,1.6h-17.1c5.8-6.1,9.4-14.4,9.4-23.9
						c0-20.1-16-34.6-35.8-34.6c-19.8,0-35.7,14.6-35.7,34.6c0,8.8,3.2,16.5,7.8,22.3c0.2,0.2,0.2,0.3,0.4,0.5
						c0.4,0.5,0,0.9-0.5,1.1c-0.2,0-0.4,0.1-0.5,0.1h-0.5c-0.1,0-0.6,0-0.6,0l-35.3,0l0,0c-4.8,0-9.4-1.3-13.2-3.9
						c19.8-14.1,31.2-25.5,36-31.3c3-3.6,2-5.4,2-5.4c-3.7-12.4-12.7-18.5-27.5-18.5c-21.2,0-33.3,14.3-33.3,35.4
						c0,6.9,1.8,13.3,5,18.6c-2.7,1.6-5.8,2.8-10.5,4.3c-6,1.9-19.2,1-19.2,1h0.1c-10.2-0.2-14.2-2.3-16.6-8
						c-1.8-6.4-1.4-10.1-1.4-10.1h4.5c9.9-0.3,24.1-4.4,30.2-23.2c5.6-23.8,1.3-42.5,1.3-42.5c-2.7-16.5-18.1-25-25.6-24.8l-9.3-0.1
						l-3.6,0c-6.1,0-11,4.9-11.1,11l0,1.2v29.1l0,0l0,38.1l-15,0.1L77.7,25.4c-2.1-4.7-8.8-4.3-8.8-4.3h-4.1c-1.9,0.1-6.7-0.3-8.9,5
						L26.3,99.7L20,113.9l-6.7,15l8,0.3c5.5-0.1,8-1.7,10.8-8.2l4.2-9.5l9.2-23.1h0l1.2-3l19.8-50.9c0.1-0.3,0.3-0.4,0.5-0.5
						c0.2,0.1,0.4,0.3,0.5,0.5L87.6,86l-0.3-0.7l1.2,3.2H61.3l-2.2,0c0,0,0,3.3,0,4.1c0,3.1,2.8,7.1,7.4,7.1l6.1,0v0h19.8l9.5,21.2
						c2.7,6.5,5.3,8.1,10.8,8.2l8-0.3l-6.7-15l-6.3-14.2h10.6c0,0-0.2,4.3,1.1,10c2.9,11.3,10.1,17.6,20.3,19
						c0.7,0.1,1.4,0.2,2.1,0.2h4.2c10,0.3,20.3,0.5,25.1-0.8c6.9-2,12.2-4.1,15.8-7c6,4.8,13.8,7.6,22.9,7.6l0.4,0v0h36.1v0.1h73.6
						l0,34.2h4.8c0,0,7.7,0.4,8.2-7.2v-27h0v-14.4h0c0-5.2,0-14.9,0-19.3c0-17,9.1-24,19.2-24c11.3,0,19.2,9.4,19.2,23.9
						c0,15.2-8.5,22.8-19.3,22.8h-7v4.6c0,0-0.1,4.1,2.6,5.7C348.9,128.7,350.8,128.7,353.2,128.7z M131.8,25.5l0-0.5
						c0-2,1.6-3.6,3.6-3.7l0.5,0l3.7,0.2c8.8,0.3,13.7,10.1,15.1,16c0,0,2.6,14,0.1,29.6c-2.1,12.9-5.1,14.8-5.1,14.8
						c-2.2,2.4-8.1,6.6-12.8,6.5h-5.1V44.7c0-0.5,0-0.9,0-1.3V25.5z M188,99.2c-1.1-6.2-0.2-11.3-0.2-11.3c0.3-2.4,1-5,1.6-6.5
						c3.1-8,10-11.8,18.2-12.2c9.2-0.5,16.4,5.6,14.6,8.8c-6.2,7.3-22.3,19.7-32.3,27C189.1,103.3,188.4,101.4,188,99.2z
						 M275.4,117.6c-12.5,0-22.7-10-22.7-23.9c0-13.8,10.2-23.6,22.7-23.6c12.6,0,22.8,9.8,22.8,23.6
						C298.2,107.6,288,117.6,275.4,117.6z"/>
				</g>
				<path class="st1" d="M217.7,49.8L229.3,34h-14.1l-15.5,19.5l10.8,0.1C213.4,53.6,216.1,52.2,217.7,49.8z"/>
			</g>
		</g>
	</g>
</g>
</svg>
