<svg width="25" height="25" viewBox="0 0 107 107" fill="none" xmlns="http://www.w3.org/2000/svg">
<rect x="39" y="57" width="56" height="23" fill="black"/>
<rect x="39" y="17" width="36" height="63" fill="black"/>
<path d="M76.658 5.51619C68.1058 1.345 59.0733 -0.394207 49.5604 0.298541C40.3317 1.0515 31.8495 3.97224 24.1136 9.06053C16.1908 14.3714 10.1284 21.3346 5.92632 29.9502C1.75513 38.5024 0.0159188 47.5349 0.708667 57.0479C1.46166 66.2766 4.3823 74.7587 9.47068 82.4946C14.7813 90.4178 21.713 96.4644 30.2652 100.636C38.8808 104.838 47.9449 106.593 57.458 105.9C66.6866 105.147 75.1688 102.226 82.9047 97.1376C90.8273 91.8266 96.8748 84.8954 101.046 76.3431C105.248 67.7276 107.002 58.6631 106.31 49.1502C105.557 39.9217 102.636 31.4393 97.5477 23.7035C92.2368 15.7807 85.3052 9.73371 76.753 5.56252L76.658 5.51619ZM80.2035 77.3524L79.6333 77.0743L48.9772 56.2409C48.6605 56.0864 48.4999 55.7727 48.4951 55.2999L48.5235 24.6126C48.5111 23.3518 48.9258 22.2602 49.7679 21.3377C50.7041 20.3828 51.8027 19.8991 53.0634 19.8867C53.8514 19.8789 54.5938 20.045 55.2906 20.3848C56.0508 20.7556 56.6395 21.3172 57.0567 22.0696C57.5682 22.7896 57.7969 23.6069 57.7429 24.5216L57.9946 50.0523C57.9978 50.3675 58.1584 50.6812 58.4768 50.9932L84.8985 69.1732C85.8504 69.7944 86.4738 70.6866 86.769 71.85C87.0641 73.0134 86.9646 74.102 86.4702 75.1155L86.1922 75.6856C85.5711 76.6375 84.6788 77.261 83.5154 77.5561C82.4153 77.8822 81.3114 77.8143 80.2035 77.3524Z" fill="white"/>
</svg>
