<?xml version="1.0" encoding="UTF-8" standalone="no"?>
<!-- Generator: Adobe Illustrator 19.1.0, SVG Export Plug-In . SVG Version: 6.00 Build 0)  -->

<svg
   xmlns:dc="http://purl.org/dc/elements/1.1/"
   xmlns:cc="http://creativecommons.org/ns#"
   xmlns:rdf="http://www.w3.org/1999/02/22-rdf-syntax-ns#"
   xmlns:svg="http://www.w3.org/2000/svg"
   xmlns="http://www.w3.org/2000/svg"
   xmlns:sodipodi="http://sodipodi.sourceforge.net/DTD/sodipodi-0.dtd"
   xmlns:inkscape="http://www.inkscape.org/namespaces/inkscape"
   version="1.1"
   id="Calque_1"
   x="0px"
   y="0px"
   viewBox="0 -1.6 23.1 89.6"
   style="enable-background:new 0 -1.6 23.1 89.6;"
   xml:space="preserve"
   inkscape:version="0.48.4 r9939"
   width="100%"
   height="100%"
   sodipodi:docname="row-background-departures.svg"><metadata
   id="metadata43"><rdf:RDF><cc:Work
       rdf:about=""><dc:format>image/svg+xml</dc:format><dc:type
         rdf:resource="http://purl.org/dc/dcmitype/StillImage" /></cc:Work></rdf:RDF></metadata><defs
   id="defs41" /><sodipodi:namedview
   pagecolor="#ffffff"
   bordercolor="#666666"
   borderopacity="1"
   objecttolerance="10"
   gridtolerance="10"
   guidetolerance="10"
   inkscape:pageopacity="0"
   inkscape:pageshadow="2"
   inkscape:window-width="1600"
   inkscape:window-height="837"
   id="namedview39"
   showgrid="false"
   inkscape:zoom="5.2678573"
   inkscape:cx="36.916811"
   inkscape:cy="51.976312"
   inkscape:window-x="-8"
   inkscape:window-y="-8"
   inkscape:window-maximized="1"
   inkscape:current-layer="Calque_1" />
<style
   type="text/css"
   id="style3">
	.st0{display:none;enable-background:new    ;}
	.st1{display:inline;fill:#135EB6;}
	.st2{fill:#135EB6;}
</style>
<g
   class="st0"
   id="g5">
	<path
   class="st1"
   d="M0.1,75.6h17.5v3.2h-2.2l0,0c0.7,0.3,1.3,0.8,1.8,1.4s0.7,1.4,0.7,2.3c0,0.8-0.2,1.5-0.5,2.1s-0.7,1.1-1.3,1.5   S15,87,14.3,87.2s-1.5,0.3-2.3,0.3c-2.2,0-3.9-0.6-5.1-1.8s-1.8-2.8-1.8-5c0-0.3,0-0.6,0-1c0-0.3,0.1-0.6,0.1-0.9H0.1V75.6z    M11.8,84.1c0.5,0,0.9,0,1.3-0.1c0.4-0.1,0.8-0.2,1.1-0.4c0.3-0.2,0.6-0.4,0.7-0.8c0.2-0.3,0.3-0.7,0.3-1.2s-0.1-0.9-0.2-1.2   c-0.2-0.3-0.4-0.6-0.6-0.8c-0.4-0.3-0.8-0.5-1.3-0.6s-1-0.2-1.6-0.2H7.7c-0.2,0.6-0.3,1.3-0.3,2c0,0.6,0.1,1.2,0.3,1.6   c0.2,0.4,0.5,0.8,0.9,1C9,83.7,9.5,83.9,10,84C10.6,84.1,11.2,84.1,11.8,84.1z"
   id="path7" />
	<path
   class="st1"
   d="M3.5,69.2l-3.4-2.5v-4.3l3.4,4V69.2z M11.8,61.2v8.2c1.2,0,2.1-0.3,2.7-0.8s1-1.4,1-2.7c0-0.7-0.1-1.2-0.2-1.7   c-0.1-0.5-0.3-1.1-0.6-1.6l2.3-0.8c0.4,0.9,0.6,1.6,0.7,2.3c0.1,0.7,0.2,1.4,0.2,2.2c0,1-0.1,1.9-0.4,2.7c-0.3,0.8-0.7,1.5-1.2,2   c-0.5,0.6-1.2,1-2,1.3s-1.7,0.4-2.6,0.4c-0.9,0-1.8-0.1-2.6-0.4S7.5,71.6,7,71c-0.6-0.5-1-1.2-1.4-2s-0.5-1.7-0.5-2.7   c0-0.9,0.1-1.7,0.4-2.4c0.3-0.7,0.7-1.2,1.2-1.6c0.5-0.4,1.1-0.7,1.7-0.9c0.7-0.2,1.4-0.3,2.1-0.3L11.8,61.2L11.8,61.2z M9.7,64.3   c-0.3,0-0.6,0-0.8,0.1c-0.3,0.1-0.5,0.2-0.8,0.4c-0.2,0.2-0.4,0.4-0.6,0.6s-0.2,0.6-0.2,1c0,0.8,0.2,1.4,0.6,1.9s1,0.8,1.7,1   L9.7,64.3L9.7,64.3z"
   id="path9" />
	<path
   class="st1"
   d="M22.9,58.4H5.4v-3.2h2.2l0,0c-0.7-0.3-1.3-0.8-1.8-1.4c-0.5-0.6-0.7-1.4-0.7-2.3c0-0.8,0.2-1.5,0.5-2.1   s0.7-1.1,1.3-1.5C7.3,47.3,8,47,8.7,46.8s1.5-0.3,2.3-0.3c2.2,0,3.9,0.6,5.1,1.8s1.8,2.9,1.8,5c0,0.3,0,0.6,0,1s-0.1,0.6-0.1,0.9   H23v3.2H22.9z M11.1,49.9c-0.5,0-0.9,0-1.3,0.1c-0.4,0.1-0.8,0.2-1.1,0.4S8.2,50.8,8,51.1s-0.3,0.7-0.3,1.2s0.1,0.9,0.2,1.2   c0.2,0.3,0.4,0.6,0.6,0.8c0.4,0.3,0.8,0.5,1.3,0.6s1,0.2,1.6,0.2h3.7c0.2-0.6,0.3-1.3,0.3-2c0-0.6-0.1-1.2-0.3-1.6s-0.5-0.7-0.9-1   s-0.9-0.4-1.4-0.5S11.8,49.9,11.1,49.9z"
   id="path11" />
	<path
   class="st1"
   d="M17.6,36.5c-0.1,0-0.2,0-0.4,0c-0.2,0-0.4,0-0.6,0s-0.4,0-0.6,0s-0.3,0-0.5,0c0.2,0.1,0.5,0.3,0.7,0.5   c0.3,0.2,0.5,0.5,0.7,0.8s0.4,0.7,0.6,1.1s0.2,0.9,0.2,1.3c0,0.6-0.1,1.1-0.3,1.7c-0.2,0.5-0.4,1-0.8,1.3c-0.3,0.4-0.7,0.7-1.2,0.9   s-1,0.3-1.6,0.3c-0.9,0-1.6-0.2-2.1-0.6c-0.5-0.4-0.8-0.9-1.1-1.6c-0.2-0.6-0.4-1.3-0.4-2s0-1.4,0-2v-1.5H9.5   c-0.7,0-1.2,0.1-1.5,0.4c-0.3,0.3-0.5,0.7-0.5,1.4c0,0.6,0.1,1.2,0.2,1.9c0.2,0.7,0.4,1.4,0.9,2.1l-2.3,0.9c-0.4-1-0.7-1.9-0.9-2.7   c-0.2-0.8-0.3-1.5-0.3-2.3c0-1.7,0.4-2.9,1.1-3.7s1.8-1.2,3.2-1.2h3.2c0.8,0,1.6,0,2.4-0.1s1.6-0.2,2.5-0.6v3.7H17.6z M12.4,36.9   v2.3c0,0.7,0.1,1.2,0.3,1.6s0.6,0.6,1.3,0.6c0.1,0,0.3,0,0.5-0.1s0.3-0.2,0.5-0.3s0.3-0.3,0.4-0.5c0.1-0.2,0.2-0.5,0.2-0.9   c0-0.8-0.2-1.5-0.7-2s-1.1-0.7-1.8-0.7C13.1,36.9,12.4,36.9,12.4,36.9z"
   id="path13" />
	<path
   class="st1"
   d="M8.5,22.8c-0.2,0.7-0.2,1.4-0.2,2s0.3,1.1,0.7,1.5c0.5,0.4,1.1,0.7,2,0.7h6.6v3.2H5.4V27h2.2l0,0   c-1-0.5-1.7-1.2-2.1-1.9s-0.5-1.8-0.4-3L8.5,22.8z"
   id="path15" />
	<path
   class="st1"
   d="M17.2,11.8c0.3,0.7,0.5,1.3,0.6,1.9c0.1,0.6,0.1,1.1,0.1,1.6c0,0.9-0.1,1.6-0.4,2.2s-0.6,1.1-1.1,1.4   c-0.5,0.4-1,0.6-1.6,0.7s-1.2,0.2-1.9,0.2H7.7v2H5.5v-2H2.8l-1.6-3.2h4.2v-4.3h2.2v4.3H13c0.2,0,0.5,0,0.7,0s0.5-0.1,0.8-0.2   c0.2-0.1,0.4-0.3,0.6-0.6c0.2-0.3,0.2-0.6,0.2-1.1c0-0.3,0-0.6-0.1-0.9c-0.1-0.3-0.3-0.6-0.5-1L17.2,11.8z"
   id="path17" />
	<path
   class="st1"
   d="M13.9,0.9c0.6,0,1.1,0.1,1.6,0.4s0.9,0.6,1.3,1.1s0.6,1,0.8,1.6c0.2,0.6,0.3,1.3,0.3,1.9   c0,0.8-0.1,1.6-0.2,2.4c-0.2,0.8-0.5,1.6-1,2.5l-2.5-1.2c0.4-0.6,0.8-1.1,1-1.7s0.3-1.2,0.3-1.8c0-0.5-0.1-0.9-0.3-1.3   s-0.5-0.6-1-0.6c-0.3,0-0.6,0.1-0.8,0.3c-0.2,0.2-0.4,0.5-0.5,1L12.4,7c-0.1,0.5-0.3,0.9-0.5,1.3c-0.2,0.4-0.4,0.8-0.7,1.1   s-0.6,0.6-1,0.7c-0.4,0.2-0.9,0.3-1.4,0.3c-0.7,0-1.3-0.2-1.8-0.5C6.6,9.6,6.3,9.2,5.9,8.7c-0.3-0.5-0.5-1-0.7-1.6   c0-0.5-0.1-1.1-0.1-1.6c0-0.9,0.1-1.6,0.2-2.2C5.5,2.7,5.7,2,6,1.4l2.4,1.2C8.1,3.1,7.8,3.5,7.7,3.9C7.6,4.3,7.5,4.8,7.5,5.3   c0,0.2,0,0.4,0.1,0.6c0,0.2,0.1,0.4,0.2,0.6S8,6.8,8.2,6.9C8.3,7,8.5,7.1,8.8,7.1c0.4,0,0.7-0.1,0.9-0.4s0.3-0.6,0.4-1l0.4-1.4   c0.1-0.4,0.3-0.9,0.4-1.3c0.2-0.4,0.4-0.8,0.6-1.1c0.3-0.3,0.6-0.6,1-0.7C12.9,1,13.4,0.9,13.9,0.9z"
   id="path19" />
</g>
<g
   id="g21"
   transform="translate(0,1.0915254)"
   style="fill:#4f8cc3;fill-opacity:1">
	<g
   id="g23"
   style="fill:#4f8cc3;fill-opacity:1">
		<path
   class="st2"
   d="m 0.7,75.2 h 17.2 v 3.2 h -2.2 v 0 c 0.7,0.3 1.3,0.8 1.8,1.4 0.5,0.6 0.7,1.4 0.7,2.3 0,0.8 -0.2,1.5 -0.5,2.1 -0.3,0.6 -0.7,1.1 -1.2,1.5 -0.5,0.4 -1.1,0.7 -1.8,0.9 -0.7,0.2 -1.4,0.3 -2.2,0.3 -2.2,0 -3.9,-0.6 -5,-1.7 C 6.3,84 5.7,82.4 5.7,80.3 c 0,-0.3 0,-0.6 0,-0.9 0,-0.3 0.1,-0.6 0.1,-0.9 H 0.7 v -3.3 z m 11.5,8.4 c 0.4,0 0.9,0 1.3,-0.1 0.4,-0.1 0.8,-0.2 1.1,-0.4 0.3,-0.2 0.5,-0.4 0.7,-0.7 0.2,-0.3 0.3,-0.7 0.3,-1.2 0,-0.5 -0.1,-0.8 -0.2,-1.2 C 15.2,79.7 15,79.4 14.8,79.2 14.4,78.9 14,78.7 13.5,78.6 13,78.5 12.5,78.4 11.9,78.4 H 8.2 C 8,79 7.9,79.7 7.9,80.4 7.9,81 8,81.5 8.2,82 c 0.2,0.4 0.5,0.7 0.9,1 0.4,0.3 0.9,0.4 1.4,0.5 0.5,0 1.1,0.1 1.7,0.1 z"
   id="path25"
   inkscape:connector-curvature="0"
   style="fill:#4f8cc3;fill-opacity:1" />
		<path
   class="st2"
   d="M 4,68.9 0.6,66.5 V 62.2 L 4,66.1 v 2.8 z M 12.2,61 v 8.1 c 1.1,0 2,-0.3 2.7,-0.8 0.6,-0.5 1,-1.4 1,-2.6 0,-0.6 -0.1,-1.2 -0.2,-1.7 -0.1,-0.5 -0.3,-1 -0.6,-1.6 l 2.3,-0.8 c 0.4,0.8 0.6,1.6 0.7,2.3 0.1,0.7 0.2,1.4 0.2,2.1 0,1 -0.1,1.9 -0.4,2.6 -0.3,0.8 -0.7,1.4 -1.2,2 -0.5,0.5 -1.2,1 -1.9,1.2 -0.8,0.3 -1.6,0.4 -2.6,0.4 -0.9,0 -1.8,-0.1 -2.5,-0.4 C 8.9,71.5 8.2,71.1 7.7,70.6 7.1,70.1 6.7,69.4 6.4,68.7 6.1,67.9 5.9,67 5.9,66 5.9,65.1 6,64.3 6.3,63.7 6.6,63.1 7,62.5 7.5,62.1 8,61.7 8.6,61.4 9.2,61.2 9.6,61.1 10.3,61 11,61 h 1.2 z m -2,3.1 c -0.3,0 -0.5,0 -0.8,0.1 -0.3,0.1 -0.5,0.2 -0.8,0.4 -0.2,0.2 -0.4,0.4 -0.6,0.6 -0.1,0.3 -0.2,0.6 -0.2,0.9 0,0.8 0.2,1.4 0.6,1.8 0.4,0.4 1,0.8 1.7,1 v -4.8 z"
   id="path27"
   inkscape:connector-curvature="0"
   style="fill:#4f8cc3;fill-opacity:1" />
		<path
   class="st2"
   d="M 23.1,58.3 H 5.9 v -3.2 h 2.2 v 0 C 7.4,54.8 6.8,54.3 6.3,53.7 5.8,53.1 5.6,52.3 5.6,51.4 c 0,-0.8 0.2,-1.5 0.5,-2.1 0.3,-0.6 0.7,-1.1 1.2,-1.5 0.5,-0.4 1.1,-0.7 1.8,-0.9 0.7,-0.2 1.4,-0.3 2.2,-0.3 2.2,0 3.9,0.6 5,1.7 1.2,1.2 1.8,2.8 1.8,4.9 0,0.3 0,0.6 0,0.9 0,0.3 -0.1,0.6 -0.1,0.9 h 5.1 v 3.3 z M 11.6,49.9 c -0.4,0 -0.9,0 -1.3,0.1 -0.4,0.1 -0.8,0.2 -1.1,0.4 -0.3,0.2 -0.5,0.4 -0.7,0.7 -0.2,0.3 -0.3,0.7 -0.3,1.2 0,0.5 0.1,0.8 0.2,1.2 0.2,0.3 0.4,0.6 0.6,0.8 0.4,0.3 0.8,0.5 1.3,0.6 0.5,0.1 1,0.2 1.6,0.2 h 3.6 c 0.2,-0.6 0.3,-1.3 0.3,-2 0,-0.6 -0.1,-1.1 -0.3,-1.5 -0.2,-0.4 -0.5,-0.7 -0.9,-1 -0.4,-0.2 -0.9,-0.4 -1.4,-0.5 -0.4,-0.1 -1,-0.2 -1.6,-0.2 z"
   id="path29"
   inkscape:connector-curvature="0"
   style="fill:#4f8cc3;fill-opacity:1" />
		<path
   class="st2"
   d="m 17.9,36.8 c -0.1,0 -0.2,0 -0.4,0 -0.2,0 -0.4,0 -0.6,0 -0.2,0 -0.4,0 -0.6,0 -0.2,0 -0.3,0 -0.4,0 0.2,0.1 0.5,0.3 0.7,0.5 0.3,0.2 0.5,0.5 0.7,0.8 0.2,0.3 0.4,0.7 0.6,1.1 0.1,0.4 0.2,0.8 0.2,1.3 0,0.6 -0.1,1.1 -0.3,1.6 -0.2,0.5 -0.4,1 -0.7,1.3 -0.3,0.3 -0.7,0.7 -1.2,0.9 -0.5,0.2 -1,0.3 -1.5,0.3 -0.9,0 -1.6,-0.2 -2.1,-0.6 -0.5,-0.4 -0.8,-0.9 -1.1,-1.5 -0.2,-0.6 -0.4,-1.3 -0.4,-2 0,-0.7 0,-1.4 0,-2 V 37.1 H 9.9 C 9.2,37.1 8.7,37.2 8.4,37.5 8.2,37.8 8,38.3 8,39 8,39.6 8.1,40.2 8.2,40.9 8.4,41.6 8.6,42.3 9,43 L 6.7,43.9 C 6.3,42.9 6,42 5.8,41.2 5.6,40.4 5.5,39.7 5.5,38.9 5.5,37.2 5.9,36 6.6,35.3 7.3,34.6 8.4,34.2 9.8,34.2 H 13 c 0.8,0 1.6,0 2.4,-0.1 0.8,0 1.6,-0.2 2.5,-0.6 v 3.3 z m -5.1,0.4 v 2.2 c 0,0.7 0.1,1.2 0.3,1.6 0.2,0.4 0.6,0.6 1.2,0.6 0.1,0 0.3,0 0.5,-0.1 0.2,-0.1 0.3,-0.1 0.5,-0.3 0.2,-0.1 0.3,-0.3 0.4,-0.5 0.1,-0.2 0.2,-0.5 0.2,-0.9 0,-0.8 -0.2,-1.5 -0.7,-1.9 -0.5,-0.5 -1.1,-0.7 -1.8,-0.7 h -0.6 z"
   id="path31"
   inkscape:connector-curvature="0"
   style="fill:#4f8cc3;fill-opacity:1" />
		<path
   class="st2"
   d="m 9,23.3 c -0.2,0.7 -0.2,1.4 -0.2,2 0,0.6 0.3,1.1 0.7,1.4 0.5,0.4 1.1,0.6 2,0.6 H 18 v 3.2 H 6 v -3.2 h 2.2 v 0 C 7.2,26.8 6.5,26.2 6.1,25.4 5.7,24.7 5.6,23.7 5.7,22.6 L 9,23.3 z"
   id="path33"
   inkscape:connector-curvature="0"
   style="fill:#4f8cc3;fill-opacity:1" />
		<path
   class="st2"
   d="m 17.5,12.5 c 0.3,0.7 0.5,1.3 0.6,1.9 0.1,0.6 0.1,1.1 0.1,1.6 0,0.9 -0.1,1.6 -0.4,2.2 -0.3,0.6 -0.6,1 -1.1,1.4 -0.4,0.3 -1,0.6 -1.6,0.7 -0.6,0.1 -1.2,0.2 -1.9,0.2 h -5 v 2 H 6 v -2 H 3.4 L 1.8,17.3 H 6 v -4.2 h 2.2 v 4.2 h 5.2 c 0.2,0 0.5,0 0.7,0 0.2,0 0.5,-0.1 0.7,-0.2 0.2,-0.1 0.4,-0.3 0.6,-0.6 0.2,-0.2 0.2,-0.6 0.2,-1 0,-0.3 0,-0.6 -0.1,-0.9 -0.1,-0.3 -0.2,-0.6 -0.5,-1 l 2.5,-1.1 z"
   id="path35"
   inkscape:connector-curvature="0"
   style="fill:#4f8cc3;fill-opacity:1" />
		<path
   class="st2"
   d="m 14.3,1.8 c 0.6,0 1.1,0.1 1.6,0.4 0.5,0.3 0.9,0.6 1.2,1.1 0.3,0.4 0.6,1 0.8,1.6 0.2,0.6 0.3,1.2 0.3,1.9 0,0.8 -0.1,1.6 -0.2,2.4 -0.2,0.8 -0.5,1.6 -1,2.5 L 14.6,10.5 C 15,10 15.4,9.4 15.6,8.8 15.8,8.2 15.9,7.6 15.9,7 15.9,6.5 15.8,6.1 15.6,5.8 15.3,5.2 15,5 14.5,5 c -0.3,0 -0.6,0.1 -0.8,0.3 -0.2,0.2 -0.4,0.5 -0.5,1 l -0.4,1.5 c -0.1,0.4 -0.3,0.9 -0.4,1.3 -0.2,0.4 -0.4,0.8 -0.6,1.1 -0.3,0.3 -0.6,0.5 -1,0.7 C 10.4,11.1 10,11.2 9.4,11.2 8.7,11.2 8.1,11 7.6,10.7 7.1,10.4 6.8,10 6.5,9.5 6.1,9 5.9,8.5 5.8,8 5.7,7.4 5.6,6.9 5.6,6.3 5.6,5.4 5.7,4.7 5.8,4.1 6,3.5 6.2,2.9 6.5,2.3 L 8.8,3.5 C 8.5,3.9 8.3,4.3 8.2,4.7 8,5.1 8,5.6 8,6.2 8,6.4 8,6.5 8,6.7 8,6.9 8.1,7.1 8.2,7.3 8.3,7.5 8.4,7.6 8.6,7.7 8.8,7.8 9,7.9 9.2,7.9 c 0.4,0 0.7,-0.1 0.9,-0.4 0.2,-0.3 0.3,-0.6 0.4,-1 L 10.9,5.2 C 11,4.8 11.1,4.3 11.3,3.9 11.5,3.5 11.7,3.1 11.9,2.8 12.1,2.5 12.5,2.3 12.8,2.1 13.3,1.9 13.7,1.8 14.3,1.8 z"
   id="path37"
   inkscape:connector-curvature="0"
   style="fill:#4f8cc3;fill-opacity:1" />
	</g>
</g>
</svg>