<?xml version="1.0" encoding="UTF-8" standalone="no"?>
<!-- Generator: Adobe Illustrator 19.1.0, SVG Export Plug-In . SVG Version: 6.00 Build 0)  -->

<svg
   xmlns:dc="http://purl.org/dc/elements/1.1/"
   xmlns:cc="http://creativecommons.org/ns#"
   xmlns:rdf="http://www.w3.org/1999/02/22-rdf-syntax-ns#"
   xmlns:svg="http://www.w3.org/2000/svg"
   xmlns="http://www.w3.org/2000/svg"
   xmlns:sodipodi="http://sodipodi.sourceforge.net/DTD/sodipodi-0.dtd"
   xmlns:inkscape="http://www.inkscape.org/namespaces/inkscape"
   version="1.1"
   id="Calque_1"
   x="0px"
   y="0px"
   viewBox="0 -1.6 23.1 89.6"
   style="enable-background:new 0 -1.6 23.1 89.6;"
   xml:space="preserve"
   inkscape:version="0.48.4 r9939"
   width="100%"
   height="100%"
   sodipodi:docname="row-background-arrivals.svg"><metadata
   id="metadata45"><rdf:RDF><cc:Work
       rdf:about=""><dc:format>image/svg+xml</dc:format><dc:type
         rdf:resource="http://purl.org/dc/dcmitype/StillImage" /></cc:Work></rdf:RDF></metadata><defs
   id="defs43" /><sodipodi:namedview
   pagecolor="#ffffff"
   bordercolor="#666666"
   borderopacity="1"
   objecttolerance="10"
   gridtolerance="10"
   guidetolerance="10"
   inkscape:pageopacity="0"
   inkscape:pageshadow="2"
   inkscape:window-width="1600"
   inkscape:window-height="837"
   id="namedview41"
   showgrid="false"
   inkscape:zoom="29.7995"
   inkscape:cx="10.806498"
   inkscape:cy="7.8240028"
   inkscape:window-x="-8"
   inkscape:window-y="-8"
   inkscape:window-maximized="1"
   inkscape:current-layer="Calque_1" />
<style
   type="text/css"
   id="style3">
	.st0{display:none;enable-background:new    ;}
	.st1{display:inline;fill:#135EB6;}
	.st2{fill:#259656;}
</style>
<g
   class="st0"
   id="g5">
	<path
   class="st1"
   d="M0.1,75.6h17.5v3.2h-2.2l0,0c0.7,0.3,1.3,0.8,1.8,1.4s0.7,1.4,0.7,2.3c0,0.8-0.2,1.5-0.5,2.1s-0.7,1.1-1.3,1.5   S15,87,14.3,87.2s-1.5,0.3-2.3,0.3c-2.2,0-3.9-0.6-5.1-1.8s-1.8-2.8-1.8-5c0-0.3,0-0.6,0-1c0-0.3,0.1-0.6,0.1-0.9H0.1V75.6z    M11.8,84.1c0.5,0,0.9,0,1.3-0.1c0.4-0.1,0.8-0.2,1.1-0.4c0.3-0.2,0.6-0.4,0.7-0.8c0.2-0.3,0.3-0.7,0.3-1.2s-0.1-0.9-0.2-1.2   c-0.2-0.3-0.4-0.6-0.6-0.8c-0.4-0.3-0.8-0.5-1.3-0.6s-1-0.2-1.6-0.2H7.7c-0.2,0.6-0.3,1.3-0.3,2c0,0.6,0.1,1.2,0.3,1.6   c0.2,0.4,0.5,0.8,0.9,1C9,83.7,9.5,83.9,10,84C10.6,84.1,11.2,84.1,11.8,84.1z"
   id="path7" />
	<path
   class="st1"
   d="M3.5,69.2l-3.4-2.5v-4.3l3.4,4V69.2z M11.8,61.2v8.2c1.2,0,2.1-0.3,2.7-0.8s1-1.4,1-2.7c0-0.7-0.1-1.2-0.2-1.7   c-0.1-0.5-0.3-1.1-0.6-1.6l2.3-0.8c0.4,0.9,0.6,1.6,0.7,2.3c0.1,0.7,0.2,1.4,0.2,2.2c0,1-0.1,1.9-0.4,2.7c-0.3,0.8-0.7,1.5-1.2,2   c-0.5,0.6-1.2,1-2,1.3s-1.7,0.4-2.6,0.4c-0.9,0-1.8-0.1-2.6-0.4S7.5,71.6,7,71c-0.6-0.5-1-1.2-1.4-2s-0.5-1.7-0.5-2.7   c0-0.9,0.1-1.7,0.4-2.4c0.3-0.7,0.7-1.2,1.2-1.6c0.5-0.4,1.1-0.7,1.7-0.9c0.7-0.2,1.4-0.3,2.1-0.3L11.8,61.2L11.8,61.2z M9.7,64.3   c-0.3,0-0.6,0-0.8,0.1c-0.3,0.1-0.5,0.2-0.8,0.4c-0.2,0.2-0.4,0.4-0.6,0.6s-0.2,0.6-0.2,1c0,0.8,0.2,1.4,0.6,1.9s1,0.8,1.7,1   L9.7,64.3L9.7,64.3z"
   id="path9" />
	<path
   class="st1"
   d="M22.9,58.4H5.4v-3.2h2.2l0,0c-0.7-0.3-1.3-0.8-1.8-1.4c-0.5-0.6-0.7-1.4-0.7-2.3c0-0.8,0.2-1.5,0.5-2.1   s0.7-1.1,1.3-1.5C7.3,47.3,8,47,8.7,46.8s1.5-0.3,2.3-0.3c2.2,0,3.9,0.6,5.1,1.8s1.8,2.9,1.8,5c0,0.3,0,0.6,0,1s-0.1,0.6-0.1,0.9   H23v3.2H22.9z M11.1,49.9c-0.5,0-0.9,0-1.3,0.1c-0.4,0.1-0.8,0.2-1.1,0.4S8.2,50.8,8,51.1s-0.3,0.7-0.3,1.2s0.1,0.9,0.2,1.2   c0.2,0.3,0.4,0.6,0.6,0.8c0.4,0.3,0.8,0.5,1.3,0.6s1,0.2,1.6,0.2h3.7c0.2-0.6,0.3-1.3,0.3-2c0-0.6-0.1-1.2-0.3-1.6s-0.5-0.7-0.9-1   s-0.9-0.4-1.4-0.5S11.8,49.9,11.1,49.9z"
   id="path11" />
	<path
   class="st1"
   d="M17.6,36.5c-0.1,0-0.2,0-0.4,0c-0.2,0-0.4,0-0.6,0s-0.4,0-0.6,0s-0.3,0-0.5,0c0.2,0.1,0.5,0.3,0.7,0.5   c0.3,0.2,0.5,0.5,0.7,0.8s0.4,0.7,0.6,1.1s0.2,0.9,0.2,1.3c0,0.6-0.1,1.1-0.3,1.7c-0.2,0.5-0.4,1-0.8,1.3c-0.3,0.4-0.7,0.7-1.2,0.9   s-1,0.3-1.6,0.3c-0.9,0-1.6-0.2-2.1-0.6c-0.5-0.4-0.8-0.9-1.1-1.6c-0.2-0.6-0.4-1.3-0.4-2s0-1.4,0-2v-1.5H9.5   c-0.7,0-1.2,0.1-1.5,0.4c-0.3,0.3-0.5,0.7-0.5,1.4c0,0.6,0.1,1.2,0.2,1.9c0.2,0.7,0.4,1.4,0.9,2.1l-2.3,0.9c-0.4-1-0.7-1.9-0.9-2.7   c-0.2-0.8-0.3-1.5-0.3-2.3c0-1.7,0.4-2.9,1.1-3.7s1.8-1.2,3.2-1.2h3.2c0.8,0,1.6,0,2.4-0.1s1.6-0.2,2.5-0.6v3.7H17.6z M12.4,36.9   v2.3c0,0.7,0.1,1.2,0.3,1.6s0.6,0.6,1.3,0.6c0.1,0,0.3,0,0.5-0.1s0.3-0.2,0.5-0.3s0.3-0.3,0.4-0.5c0.1-0.2,0.2-0.5,0.2-0.9   c0-0.8-0.2-1.5-0.7-2s-1.1-0.7-1.8-0.7C13.1,36.9,12.4,36.9,12.4,36.9z"
   id="path13" />
	<path
   class="st1"
   d="M8.5,22.8c-0.2,0.7-0.2,1.4-0.2,2s0.3,1.1,0.7,1.5c0.5,0.4,1.1,0.7,2,0.7h6.6v3.2H5.4V27h2.2l0,0   c-1-0.5-1.7-1.2-2.1-1.9s-0.5-1.8-0.4-3L8.5,22.8z"
   id="path15" />
	<path
   class="st1"
   d="M17.2,11.8c0.3,0.7,0.5,1.3,0.6,1.9c0.1,0.6,0.1,1.1,0.1,1.6c0,0.9-0.1,1.6-0.4,2.2s-0.6,1.1-1.1,1.4   c-0.5,0.4-1,0.6-1.6,0.7s-1.2,0.2-1.9,0.2H7.7v2H5.5v-2H2.8l-1.6-3.2h4.2v-4.3h2.2v4.3H13c0.2,0,0.5,0,0.7,0s0.5-0.1,0.8-0.2   c0.2-0.1,0.4-0.3,0.6-0.6c0.2-0.3,0.2-0.6,0.2-1.1c0-0.3,0-0.6-0.1-0.9c-0.1-0.3-0.3-0.6-0.5-1L17.2,11.8z"
   id="path17" />
	<path
   class="st1"
   d="M13.9,0.9c0.6,0,1.1,0.1,1.6,0.4s0.9,0.6,1.3,1.1s0.6,1,0.8,1.6c0.2,0.6,0.3,1.3,0.3,1.9   c0,0.8-0.1,1.6-0.2,2.4c-0.2,0.8-0.5,1.6-1,2.5l-2.5-1.2c0.4-0.6,0.8-1.1,1-1.7s0.3-1.2,0.3-1.8c0-0.5-0.1-0.9-0.3-1.3   s-0.5-0.6-1-0.6c-0.3,0-0.6,0.1-0.8,0.3c-0.2,0.2-0.4,0.5-0.5,1L12.4,7c-0.1,0.5-0.3,0.9-0.5,1.3c-0.2,0.4-0.4,0.8-0.7,1.1   s-0.6,0.6-1,0.7c-0.4,0.2-0.9,0.3-1.4,0.3c-0.7,0-1.3-0.2-1.8-0.5C6.6,9.6,6.3,9.2,5.9,8.7c-0.3-0.5-0.5-1-0.7-1.6   c0-0.5-0.1-1.1-0.1-1.6c0-0.9,0.1-1.6,0.2-2.2C5.5,2.7,5.7,2,6,1.4l2.4,1.2C8.1,3.1,7.8,3.5,7.7,3.9C7.6,4.3,7.5,4.8,7.5,5.3   c0,0.2,0,0.4,0.1,0.6c0,0.2,0.1,0.4,0.2,0.6S8,6.8,8.2,6.9C8.3,7,8.5,7.1,8.8,7.1c0.4,0,0.7-0.1,0.9-0.4s0.3-0.6,0.4-1l0.4-1.4   c0.1-0.4,0.3-0.9,0.4-1.3c0.2-0.4,0.4-0.8,0.6-1.1c0.3-0.3,0.6-0.6,1-0.7C12.9,1,13.4,0.9,13.9,0.9z"
   id="path19" />
</g>
<g
   id="g21"
   transform="translate(0,0.67115221)">
	<g
   id="g23">
		<path
   class="st2"
   d="m 17.9,79.3 c -0.1,0 -0.2,0 -0.4,0 -0.2,0 -0.4,0 -0.6,0 -0.2,0 -0.4,0 -0.6,0 -0.2,0 -0.3,0 -0.4,0 0.2,0.1 0.5,0.3 0.7,0.5 0.3,0.2 0.5,0.5 0.7,0.8 0.2,0.3 0.4,0.7 0.6,1.1 0.1,0.4 0.2,0.8 0.2,1.3 0,0.6 -0.1,1.1 -0.3,1.6 -0.2,0.5 -0.4,1 -0.7,1.3 -0.3,0.3 -0.7,0.8 -1.1,1.1 -0.4,0.3 -1,0.3 -1.5,0.3 -0.9,0 -1.6,-0.2 -2.1,-0.6 -0.5,-0.4 -0.8,-0.9 -1.1,-1.5 -0.2,-0.6 -0.4,-1.3 -0.4,-2 0,-0.7 0,-1.4 0,-2 v -1.4 h -1 c -0.7,0 -1.2,0.1 -1.5,0.4 -0.2,0.1 -0.4,0.6 -0.4,1.3 0,0.6 0.1,1.2 0.2,1.9 0.2,0.7 0.4,1.4 0.8,2.1 L 6.7,86.4 C 6.3,85.4 6,84.5 5.8,83.7 5.6,82.9 5.5,82.2 5.5,81.4 5.5,79.7 5.9,78.5 6.6,77.8 7.3,77 8.4,76.7 9.8,76.7 H 13 c 0.8,0 1.6,0 2.4,-0.1 0.8,0 1.6,-0.2 2.5,-0.6 v 3.3 z m -5.1,0.4 V 82 c 0,0.7 0.1,1.2 0.3,1.6 0.2,0.4 0.6,0.6 1.2,0.6 0.1,0 0.3,0 0.5,-0.1 0.2,-0.1 0.3,-0.1 0.5,-0.3 0.2,-0.2 0.3,-0.3 0.4,-0.5 0.1,-0.2 0.2,-0.5 0.2,-0.9 0,-0.8 -0.2,-1.5 -0.7,-1.9 -0.5,-0.5 -1.1,-0.7 -1.8,-0.7 h -0.6 z"
   id="path25"
   inkscape:connector-curvature="0"
   style="fill:#259656" />
		<path
   class="st2"
   d="m 9,65.9 c -0.2,0.7 -0.2,1.4 -0.2,2 0,0.6 0.3,1.1 0.7,1.4 0.5,0.4 1.1,0.6 2,0.6 H 18 v 3.2 H 6 v -3.2 h 2.2 v 0 C 7.2,69.4 6.5,68.8 6.1,68 5.7,67.3 5.6,66.3 5.7,65.2 L 9,65.9 z"
   id="path27"
   inkscape:connector-curvature="0"
   style="fill:#259656" />
		<path
   class="st2"
   d="m 9,56.3 c -0.2,0.7 -0.2,1.4 -0.2,2 0,0.6 0.3,1.1 0.7,1.4 0.5,0.4 1.1,0.6 2,0.6 H 18 v 3.2 H 6 v -3.2 h 2.2 v 0 C 7.2,59.8 6.5,59.2 6.1,58.4 5.7,57.7 5.6,56.7 5.7,55.6 L 9,56.3 z"
   id="path29"
   inkscape:connector-curvature="0"
   style="fill:#259656" />
		<path
   class="st2"
   d="m 2.4,50.3 c 0.6,0 1,0.2 1.4,0.6 0.4,0.4 0.6,0.9 0.6,1.4 0,0.6 -0.2,1 -0.6,1.4 -0.4,0.4 -0.9,0.6 -1.4,0.6 -0.5,0 -1,-0.2 -1.4,-0.6 -0.4,-0.4 -0.6,-0.9 -0.6,-1.4 0,-0.6 0.2,-1 0.6,-1.4 0.4,-0.4 0.9,-0.6 1.4,-0.6 z m 15.5,3.6 h -12 v -3.2 h 12 v 3.2 z"
   id="path31"
   inkscape:connector-curvature="0"
   style="fill:#259656" />
		<path
   class="st2"
   d="m 17.9,41.1 v 3.1 l -12,4.7 v -3.3 l 8.9,-3 v 0 l -8.9,-3 v -3.2 l 12,4.7 z"
   id="path33"
   inkscape:connector-curvature="0"
   style="fill:#259656" />
		<path
   class="st2"
   d="M 4,31.7 0.6,29.3 V 25 L 4,28.9 v 2.8 z m 8.2,-7.8 V 32 c 1.1,0 2,-0.3 2.7,-0.8 0.7,-0.5 1,-1.4 1,-2.6 0,-0.6 -0.1,-1.2 -0.2,-1.7 -0.1,-0.5 -0.3,-1 -0.6,-1.6 l 2.3,-0.8 c 0.4,0.8 0.6,1.6 0.7,2.3 0.1,0.7 0.2,1.4 0.2,2.1 0,1 -0.1,1.9 -0.4,2.6 -0.3,0.8 -0.7,1.4 -1.2,2 -0.5,0.5 -1.2,1 -1.9,1.2 C 13.9,35 13,35.2 12,35.2 11.1,35.2 10.2,35.1 9.5,34.8 8.7,34.5 8,34.1 7.5,33.6 6.9,33.1 6.5,32.4 6.2,31.7 5.9,30.9 5.7,30 5.7,29 5.7,28.1 5.8,27.3 6.1,26.7 6.3,26 6.7,25.4 7.2,25 7.7,24.6 8.3,24.3 8.9,24.1 9.6,23.9 10.3,23.8 11,23.8 h 1.2 z m -2,3.1 C 9.9,27 9.7,27 9.4,27.1 9.1,27.2 8.9,27.3 8.6,27.5 8.4,27.7 8.2,27.9 8,28.1 7.9,28.4 7.8,28.7 7.8,29 c 0,0.8 0.2,1.4 0.6,1.8 0.4,0.4 1,0.8 1.7,1 V 27 z"
   id="path35"
   inkscape:connector-curvature="0"
   style="fill:#259656" />
		<path
   class="st2"
   d="m 12.2,10.5 v 8.1 c 1.1,0 2,-0.3 2.7,-0.8 0.7,-0.5 1,-1.4 1,-2.6 0,-0.6 -0.1,-1.2 -0.2,-1.7 -0.1,-0.5 -0.3,-1 -0.6,-1.6 l 2.3,-0.8 c 0.4,0.8 0.6,1.6 0.7,2.3 0.1,0.7 0.2,1.4 0.2,2.1 0,1 -0.1,1.9 -0.4,2.6 -0.3,0.8 -0.7,1.4 -1.2,2 -0.5,0.5 -1.2,1 -1.9,1.2 -0.8,0.3 -1.6,0.4 -2.6,0.4 -0.9,0 -1.8,-0.1 -2.5,-0.4 C 8.9,21 8.2,20.6 7.7,20.1 7.1,19.6 6.7,18.9 6.4,18.2 6.1,17.4 5.9,16.5 5.9,15.5 5.9,14.6 6,13.8 6.3,13.2 6.6,12.6 7,12 7.5,11.6 8,11.2 8.6,10.9 9.2,10.7 c 0.7,-0.2 1.4,-0.3 2.1,-0.3 h 0.9 z m -2,3.1 c -0.3,0 -0.5,0 -0.8,0.1 -0.3,0.1 -0.5,0.2 -0.8,0.4 -0.2,0.2 -0.4,0.4 -0.6,0.6 -0.1,0.3 -0.2,0.6 -0.2,0.9 0,0.8 0.2,1.4 0.6,1.8 0.4,0.4 1,0.8 1.7,1 v -4.8 z"
   id="path37"
   inkscape:connector-curvature="0"
   style="fill:#259656" />
		<path
   class="st2"
   d="m 14.3,-1.1 c 0.6,0 1.1,0.1 1.6,0.4 0.5,0.3 0.9,0.6 1.2,1.1 0.3,0.4 0.6,1 0.8,1.6 0.2,0.6 0.3,1.2 0.3,1.9 0,0.8 -0.1,1.6 -0.2,2.4 -0.2,0.8 -0.5,1.6 -1,2.5 L 14.6,7.6 c 0.4,-0.5 0.8,-1.1 1,-1.7 0.2,-0.6 0.3,-1.2 0.3,-1.8 0,-0.5 -0.1,-0.9 -0.3,-1.2 -0.2,-0.4 -0.5,-0.6 -1,-0.6 -0.3,0 -0.6,0.1 -0.8,0.3 -0.2,0.2 -0.4,0.5 -0.5,1 L 12.8,5 C 12.7,5.4 12.5,5.9 12.4,6.3 12.2,6.6 12,7 11.7,7.3 11.4,7.6 11.1,7.8 10.7,8 10.3,8.2 9.9,8.3 9.3,8.3 8.6,8.3 8,8.1 7.5,7.8 7.1,7.5 6.8,7.1 6.5,6.7 6.2,6.2 6,5.7 5.9,5.2 5.7,4.5 5.6,4 5.6,3.5 5.6,2.6 5.7,1.9 5.8,1.3 6,0.7 6.2,0.1 6.5,-0.6 L 8.8,0.6 C 8.5,1.1 8.3,1.5 8.2,1.9 8,2.3 8,2.7 8,3.3 8,3.5 8,3.7 8,3.9 8,4.1 8.1,4.3 8.2,4.5 8.3,4.7 8.4,4.8 8.6,4.9 8.8,5 9,5 9.2,5 9.6,5 9.9,4.9 10.1,4.6 10.3,4.3 10.4,4 10.5,3.6 L 10.9,2.3 C 11,1.9 11.1,1.4 11.3,1 c 0.2,-0.4 0.4,-0.8 0.6,-1.1 0.2,-0.3 0.6,-0.5 0.9,-0.7 0.5,-0.2 0.9,-0.3 1.5,-0.3 z"
   id="path39"
   inkscape:connector-curvature="0"
   style="fill:#259656" />
	</g>
</g>
</svg>