<?xml version="1.0" encoding="UTF-8" standalone="no"?>
<!-- Created with Inkscape (http://www.inkscape.org/) -->

<svg
   xmlns:dc="http://purl.org/dc/elements/1.1/"
   xmlns:cc="http://creativecommons.org/ns#"
   xmlns:rdf="http://www.w3.org/1999/02/22-rdf-syntax-ns#"
   xmlns:svg="http://www.w3.org/2000/svg"
   xmlns="http://www.w3.org/2000/svg"
   xmlns:sodipodi="http://sodipodi.sourceforge.net/DTD/sodipodi-0.dtd"
   xmlns:inkscape="http://www.inkscape.org/namespaces/inkscape"
   width="125.25202mm"
   height="38.580208mm"
   viewBox="0 0 443.80638 136.70152"
   id="svg7585"
   version="1.1"
   inkscape:version="0.91 r13725"
   sodipodi:docname="TER Alsace.svg">
  <defs
     id="defs7587" />
  <sodipodi:namedview
     id="base"
     pagecolor="#ffffff"
     bordercolor="#FFFFFF"
     borderopacity="1.0"
     inkscape:pageopacity="0.0"
     inkscape:pageshadow="2"
     inkscape:zoom="1.979899"
     inkscape:cx="212.00627"
     inkscape:cy="158.79472"
     inkscape:document-units="px"
     inkscape:current-layer="layer1"
     showgrid="false"
     fit-margin-left="1"
     fit-margin-bottom="1"
     fit-margin-top="1"
     fit-margin-right="1"
     inkscape:window-width="1920"
     inkscape:window-height="1017"
     inkscape:window-x="-8"
     inkscape:window-y="-8"
     inkscape:window-maximized="1" />
  <metadata
     id="metadata7590">
    <rdf:RDF>
      <cc:Work
         rdf:about="">
        <dc:format>image/svg+xml</dc:format>
        <dc:type
           rdf:resource="http://purl.org/dc/dcmitype/StillImage" />
        <dc:title></dc:title>
      </cc:Work>
    </rdf:RDF>
  </metadata>
  <g
     inkscape:label="Calque 1"
     inkscape:groupmode="layer"
     id="layer1"
     transform="translate(27.617488,-626.86856)">
    <g
       transform="matrix(4,0,0,4,-764.9982,-3504.7002)"
       id="g7538">
      <g
         transform="matrix(1.25,0,0,-1.25,247.00818,1055.4049)"
         id="g5000">
        <path
           inkscape:connector-curvature="0"
           id="path5002"
           style="fill:#FFFFFF;fill-opacity:1;fill-rule:nonzero;stroke:none"
           d="M 0,0 -1.631,0 -0.854,2.05 0,0 Z m -1.64,3.327 -2.137,-5.302 1.398,0 0.4,1.05 2.368,0 0.437,-1.05 1.422,0 -2.355,5.302 -1.533,0 z" />
      </g>
      <g
         transform="matrix(1.25,0,0,-1.25,255.63856,1056.6305)"
         id="g5004">
        <path
           inkscape:connector-curvature="0"
           id="path5006"
           style="fill:#FFFFFF;fill-opacity:1;fill-rule:nonzero;stroke:none"
           d="m 0,0 0,-0.993 -4.041,0 0,5.302 1.337,0 L -2.704,0 0,0 Z" />
      </g>
      <g
         transform="matrix(1.25,0,0,-1.25,258.41681,1055.2401)"
         id="g5008">
        <path
           inkscape:connector-curvature="0"
           id="path5010"
           style="fill:#FFFFFF;fill-opacity:1;fill-rule:nonzero;stroke:none"
           d="m 0,0 c -0.408,0.146 -0.627,0.24 -0.875,0.382 -0.205,0.105 -0.369,0.239 -0.5,0.388 -0.22,0.249 -0.351,0.615 -0.351,0.988 0,0.911 0.795,1.507 2.004,1.507 0.593,0 1.119,-0.117 1.798,-0.411 l 0,-1.088 -0.095,0.046 c -0.635,0.32 -1.149,0.465 -1.616,0.465 -0.48,0 -0.794,-0.171 -0.794,-0.426 0,-0.225 0.277,-0.419 0.865,-0.63 l 0.42,-0.158 c 1.021,-0.365 1.459,-0.868 1.459,-1.669 0,-0.942 -0.83,-1.564 -2.073,-1.564 -0.453,0 -0.863,0.078 -1.396,0.278 -0.316,0.125 -0.338,0.134 -0.477,0.229 l 0,1.142 c 0.387,-0.244 0.592,-0.359 0.858,-0.458 0.332,-0.14 0.652,-0.203 0.976,-0.203 0.52,0 0.801,0.163 0.801,0.483 0,0.261 -0.178,0.409 -0.713,0.599 L 0,0 Z" />
      </g>
      <g
         transform="matrix(1.25,0,0,-1.25,266.44655,1055.4049)"
         id="g5012">
        <path
           inkscape:connector-curvature="0"
           id="path5014"
           style="fill:#FFFFFF;fill-opacity:1;fill-rule:nonzero;stroke:none"
           d="M 0,0 -1.635,0 -0.857,2.05 0,0 Z m -1.643,3.327 -2.136,-5.302 1.396,0 0.399,1.05 2.371,0 0.435,-1.05 1.422,0 -2.351,5.302 -1.536,0 z" />
      </g>
      <g
         transform="matrix(1.25,0,0,-1.25,276.20243,1055.7736)"
         id="g5016">
        <path
           inkscape:connector-curvature="0"
           id="path5018"
           style="fill:#FFFFFF;fill-opacity:1;fill-rule:nonzero;stroke:none"
           d="m 0,0 0,-1.221 c -0.701,-0.374 -1.315,-0.521 -2.086,-0.521 -1.819,0 -3.076,1.103 -3.076,2.695 0,0.999 0.552,1.892 1.476,2.364 0.483,0.251 1.059,0.374 1.719,0.374 0.553,0 0.924,-0.061 1.453,-0.254 0.217,-0.08 0.287,-0.109 0.45,-0.21 l 0,-1.22 c -0.466,0.348 -1.171,0.575 -1.811,0.575 -1.137,0 -1.92,-0.663 -1.92,-1.608 0,-0.957 0.779,-1.628 1.881,-1.628 0.515,0 1.111,0.18 1.597,0.466 L 0,0 Z" />
      </g>
      <g
         transform="matrix(1.25,0,0,-1.25,282.42193,1056.6597)"
         id="g5020">
        <path
           inkscape:connector-curvature="0"
           id="path5022"
           style="fill:#FFFFFF;fill-opacity:1;fill-rule:nonzero;stroke:none"
           d="m 0,0 0,-0.97 -3.91,0 0,5.309 3.852,0 0,-0.993 -2.516,0 0,-1.075 2.402,0 0,-0.994 -2.402,0 L -2.574,0 0,0 Z" />
      </g>
      <g
         transform="matrix(1.25,0,0,-1.25,246.44418,1064.6126)"
         id="g5024">
        <path
           inkscape:connector-curvature="0"
           id="path5026"
           style="fill:#FFFFFF;fill-opacity:1;fill-rule:nonzero;stroke:none"
           d="m 0,0 c -5.228,-2.548 -12.695,-1.51 -14.387,5.838 l 1.616,2.507 C -8.861,0.023 -6.932,-0.374 0,0" />
      </g>
      <g
         transform="matrix(1.25,0,0,-1.25,221.38193,1051.4302)"
         id="g5028">
        <path
           inkscape:connector-curvature="0"
           id="path5030"
           style="fill:#FFFFFF;fill-opacity:1;fill-rule:nonzero;stroke:none"
           d="m 0,0 c -0.369,0.408 -1.345,0.856 -2.654,1.064 -1.277,0.205 -3.916,0.34 -6.789,-1.132 -2.994,-1.536 -4.924,-4.394 -4.057,-7.094 0.008,0.003 -2.523,-0.941 -4.418,-0.556 -1.025,0.21 -1.982,0.966 -2.289,1.971 -0.474,1.542 -0.083,4.202 2.576,6.63 3.51,3.206 8.777,4.351 11.027,4.84 1.034,0.225 1.166,0.259 1.202,0.407 0.016,0.065 0.053,0.305 -0.154,0.548 -0.317,0.373 -1.221,0.759 -3.727,0.496 -2.572,-0.278 -6.098,-1.321 -7.152,-1.647 0.726,1.522 2.956,5.535 3.357,6.3 0.647,1.229 0.881,1.763 0.881,2.054 l -0.074,0.182 c -0.367,0.336 -2.467,-0.797 -4.076,-2.69 -1.614,-1.898 -2.471,-3.424 -3.733,-5.431 -1.408,-2.229 -5.82,-3.361 -7.955,-3.944 -0.568,-0.15 -0.738,-0.181 -0.81,-0.26 -0.073,-0.077 -0.093,-0.18 -0.061,-0.293 0.178,-0.627 1.264,-1.302 2.381,-1.355 0.814,-0.037 1.781,0.093 3.283,0.509 -0.805,-1.281 -2.17,-4.098 -2.17,-6.791 0,-2.098 0.965,-4.581 5.049,-4.965 3.219,-0.308 6.342,0.834 8.529,1.676 2.473,-1.918 5.84,-1.821 5.84,-1.821 8.637,0 12.647,6.922 13.389,8.202 -0.004,-0.008 0.791,-2.578 2.293,-4.65 2.066,-2.848 4.924,-3.742 7.857,-3.475 3.485,0.326 5.726,3.026 5.938,3.527 0.105,0.246 -0.006,0.512 -0.639,0.173 -0.547,-0.292 -1.129,-0.728 -2.578,-1.001 -6.465,-1.22 -8.391,5.496 -9.785,8.368 C 10.293,0.257 10.123,0.552 9.948,0.624 9.553,0.775 6.506,0.243 6.17,-0.404 2.774,-6.722 -1.631,-8.119 -4.979,-8.172 c -1.122,-0.016 -2.058,0.215 -2.816,0.608 1.311,0.645 2.233,1.145 3.18,1.776 3.469,2.307 4.734,4.786 4.734,5.584 L 0,0 m -10.103,-4.883 c 0,0.156 0.019,0.315 0.051,0.481 0.195,0.921 0.908,1.88 1.826,2.442 2.914,1.786 5.345,1.262 5.697,1.065 l -0.01,-0.119 c -0.332,-0.84 -3.369,-3.502 -7.258,-4.922 -0.179,0.29 -0.306,0.699 -0.306,1.053" />
      </g>
      <g
         transform="matrix(1.25,0,0,-1.25,292.71618,1045.3585)"
         id="g5032">
        <path
           inkscape:connector-curvature="0"
           id="path5034"
           style="fill:#FFFFFF;fill-opacity:1;fill-rule:nonzero;stroke:none"
           d="m 0,0 c -0.58,0.184 -1.188,0.093 -1.741,-0.253 -0.087,-0.055 -0.177,-0.119 -0.281,-0.203 l -0.006,-0.09 c 0.104,-0.124 0.209,-0.257 0.301,-0.394 l 0.09,-0.014 0.23,0.163 c 0.399,0.252 0.811,0.314 1.219,0.188 0.797,-0.25 1.11,-1.234 0.797,-2.508 -0.135,-0.557 -0.623,-1.327 -1.408,-1.825 -0.264,1.457 -0.717,2.687 -1.309,3.566 l 0,0.002 c -0.111,0.164 -0.213,0.298 -0.318,0.425 l -0.004,0 c -0.248,0.289 -0.508,0.521 -0.777,0.69 C -3.764,0.093 -4.369,0.184 -4.95,0 c -1.123,-0.35 -1.613,-1.663 -1.222,-3.261 0.222,-0.907 1.078,-2.103 2.437,-2.585 l 0.082,0.05 c 0.057,0.442 0.134,0.867 0.223,1.263 l 0.002,0 c 0.023,0.1 0.045,0.197 0.07,0.291 l 1.768,0 c 0.074,-0.31 0.146,-0.643 0.203,-0.99 -0.514,-0.195 -1.07,-0.25 -1.63,-0.15 L -3.092,-5.435 C -3.114,-5.59 -3.141,-5.762 -3.164,-5.939 l 0.05,-0.069 c 0.207,-0.036 0.418,-0.054 0.627,-0.054 l 0.024,0 c 2.071,0.006 3.4,1.642 3.685,2.801 C 1.615,-1.663 1.123,-0.35 0,0 m -5.56,-3.111 c -0.313,1.274 0,2.258 0.796,2.508 0.139,0.042 0.279,0.064 0.412,0.064 0.272,0 0.543,-0.083 0.809,-0.252 0.233,-0.143 0.461,-0.351 0.677,-0.616 -0.58,-0.877 -1.026,-2.094 -1.287,-3.529 -0.785,0.498 -1.269,1.268 -1.407,1.825 m 3.8,-0.535 -1.43,0 c 0.196,0.644 0.438,1.205 0.715,1.672 0.275,-0.467 0.518,-1.028 0.715,-1.672" />
      </g>
    </g>
  </g>
</svg>
