<?xml version="1.0" encoding="UTF-8" standalone="no"?>
<!-- Generator: Adobe Illustrator 19.1.0, SVG Export Plug-In . SVG Version: 6.00 Build 0)  -->

<svg
   xmlns:dc="http://purl.org/dc/elements/1.1/"
   xmlns:cc="http://creativecommons.org/ns#"
   xmlns:rdf="http://www.w3.org/1999/02/22-rdf-syntax-ns#"
   xmlns:svg="http://www.w3.org/2000/svg"
   xmlns="http://www.w3.org/2000/svg"
   xmlns:sodipodi="http://sodipodi.sourceforge.net/DTD/sodipodi-0.dtd"
   xmlns:inkscape="http://www.inkscape.org/namespaces/inkscape"
   version="1.1"
   id="Calque_1"
   x="0px"
   y="0px"
   viewBox="-395 225.7 168 110.7"
   xml:space="preserve"
   inkscape:version="0.48.4 r9939"
   width="100%"
   height="100%"
   sodipodi:docname="logo-thalys.svg"
   style="enable-background:new -395 225.7 168 110.7;"><metadata
   id="metadata26"><rdf:RDF><cc:Work
       rdf:about=""><dc:format>image/svg+xml</dc:format><dc:type
         rdf:resource="http://purl.org/dc/dcmitype/StillImage" /></cc:Work></rdf:RDF></metadata><defs
   id="defs24" /><sodipodi:namedview
   pagecolor="#ffffff"
   bordercolor="#666666"
   borderopacity="1"
   objecttolerance="10"
   gridtolerance="10"
   guidetolerance="10"
   inkscape:pageopacity="0"
   inkscape:pageshadow="2"
   inkscape:window-width="1600"
   inkscape:window-height="837"
   id="namedview22"
   showgrid="false"
   inkscape:zoom="2.9546962"
   inkscape:cx="134.29111"
   inkscape:cy="69.687302"
   inkscape:window-x="-8"
   inkscape:window-y="-8"
   inkscape:window-maximized="1"
   inkscape:current-layer="Calque_1" />
<style
   type="text/css"
   id="style3">
	.st0{display:none;}
	.st1{display:inline;}
	.st2{fill:#FFFFFF;}
	.st3{display:inline;fill:#FFFFFF;}
</style>
<g
   id="Calque_2"
   class="st0">
	<g
   class="st1"
   id="g6">
		<path
   class="st2"
   d="M-310.6,336.1"
   id="path8" />
		<g
   id="g10">
			<path
   class="st2"
   d="M-272.5,275c-3.8,0-6.5,3-6.5,6.7s2.7,6.8,6.6,6.8c3.8,0,6.5-3,6.5-6.7C-265.9,278.1-268.6,275-272.5,275z"
   id="path12" />
			<path
   class="st2"
   d="M-311,225.7c-30.5,0-55.3,24.8-55.3,55.3c0,30.5,24.7,55.3,55.3,55.3c30.5,0,55.3-24.7,55.3-55.3     C-255.7,250.5-280.5,225.7-311,225.7z M-349.6,292.9c-6.7,0-11.4-4.9-11.4-11.1c0-6.1,4.8-11.1,11.5-11.1     c6.7,0,11.4,4.9,11.4,11.1C-338.1,287.8-342.9,292.9-349.6,292.9z M-317.3,283.2c0,6.6-3.7,9.7-9.5,9.7s-9.4-3.2-9.4-9.6v-10.1     c0-1.3,1-2.4,2.4-2.4c1.3,0,2.4,1,2.4,2.4v10c0,3.5,1.8,5.3,4.7,5.3c2.9,0,4.7-1.8,4.7-5.2v-10.1c0-1.3,1-2.4,2.4-2.4     c1.4,0,2.4,1,2.4,2.4v10H-317.3z M-309.4,290.4c0,1.3-1,2.4-2.4,2.4c-1.3,0-2.4-1-2.4-2.4v-17.2c0-1.3,1-2.4,2.4-2.4     c1.3,0,2.4,1,2.4,2.4V290.4z M-311.8,268c-1.6,0-2.9-1.3-2.9-2.9s1.3-2.9,2.9-2.9s2.9,1.3,2.9,2.9S-310.1,268-311.8,268z      M-285.3,287.5c0,1.4-0.3,2-1.3,2.8c-2,1.6-4.8,2.7-8.2,2.7c-6.7,0-11.5-4.8-11.5-11.1c0-6.1,4.9-11.1,11.5-11.1     c3.3,0,5.4,0.8,7.3,2.2c0.5,0.4,1,1,1,1.9c0,1.3-1,2.3-2.4,2.3c-0.6,0-1.1-0.3-1.4-0.5c-1.3-0.9-2.7-1.5-4.7-1.5     c-3.4,0-6.3,3-6.3,6.7c0,3.9,2.9,6.8,6.7,6.8c2.2,0,3.8-0.4,4.8-1.4v-2.9h-3.4c-1.1,0-2-0.9-2-2s0.9-2,2-2h5.6     c1.3,0,2.4,1,2.4,2.4v4.9H-285.3z M-272.5,292.9c-6.7,0-11.4-4.9-11.4-11.1c0-6.1,4.8-11.1,11.5-11.1c6.7,0,11.4,4.9,11.4,11.1     C-261,287.8-265.8,292.9-272.5,292.9z"
   id="path14" />
			<path
   class="st2"
   d="M-349.6,275c-3.8,0-6.5,3-6.5,6.7s2.7,6.8,6.6,6.8c3.8,0,6.5-3,6.5-6.7C-343,278.1-345.8,275-349.6,275z"
   id="path16" />
		</g>
	</g>
</g>
<g
   id="Calque_1_1_"
   class="st0">
	<path
   id="path9752"
   class="st3"
   d="M-786.1,560.2c-0.2-0.2-0.5-0.5-0.7-0.8l-0.4-0.4v-40.7c0-38.4,0-40.8,0.3-41.3   c0.6-1.2,0.7-1.2,5.3-1.4c11.4-0.4,24.6,0,38,1c37.4,2.8,70.8,10.3,96.7,21.7c8.3,3.7,20.7,10.5,22.1,12.1c0.8,1,1.1-0.2-6.7,24.4   c-6.7,20.9-7.9,24.7-8.3,25.1c-0.2,0.3-0.6,0.4-1.3,0.5c-0.5,0.1-33.3,0.1-72.9,0.1C-781.6,560.5-785.8,560.5-786.1,560.2   L-786.1,560.2z M-759.8,549.4c4.6-0.3,7.7-1.1,10.5-2.5c3.1-1.5,5.2-3.6,6.4-6.4c0.5-1.1,0.5-1.4,0.6-2.9c0-1.5,0-1.7-0.5-2.7   c-0.7-1.4-2.4-3.2-4.4-4.5c-0.8-0.5-4.2-2.4-7.5-4c-4.8-2.4-6.2-3.2-6.9-3.9c-0.8-0.8-0.9-0.9-0.9-1.6c0-1.3,0.9-2.3,3-3.3   c1.3-0.6,3-1,5.4-1.2c2-0.2,2.9-0.1,6.3,0.3c2,0.2,2.3,0.2,2.4,0c0.3-0.4,1.5-4.4,1.6-5c0-0.6-0.1-0.7-3.3-1.1   c-3.2-0.4-9.3-0.3-12,0.2c-6.5,1.2-10.7,3.6-12.3,7c-1.5,3.2-1,5.8,1.7,8.5c1.6,1.6,2.9,2.4,7.3,4.7c7.4,3.9,8.6,4.6,9.6,6.2   c0.5,0.9,0.6,1.3,0.2,2.2c-0.8,1.9-2.9,2.9-6.7,3.3c-5.5,0.5-10.1-0.3-17.9-3.3c-0.2-0.1-0.4,0.2-1,1.4c-1.1,2.3-2,4.5-1.8,4.6   c0.2,0.2,3.5,1.4,5.5,2c2.8,0.8,6.2,1.4,9.5,1.8C-763.9,549.5-762.1,549.5-759.8,549.4L-759.8,549.4L-759.8,549.4z M-677.7,548.9   c1.2-0.2,2.9-0.5,3.8-0.7c1.6-0.4,5.1-1.4,5.4-1.6c0.1-0.1,1.2-3.3,2.4-7.1s2.3-7.1,2.3-7.1c0.1-0.1,4-0.1,8.8-0.2l8.7-0.1l0.8-2.5   c0.4-1.4,0.8-2.6,0.8-2.8c0-0.5-0.6-0.6-9.3-0.6c-4.3,0-7.8,0-7.8-0.1c0-0.1,2.7-8.6,2.8-8.7c0,0,4.7-0.1,10.5-0.2l10.4-0.1   l0.8-2.6c0.4-1.4,0.8-2.8,0.8-3c0-0.4,0-0.4-1.4-0.5c-1.8-0.1-19.7-0.1-24.3,0l-3.6,0.1l-1.8,5.4c-1,2.9-2.7,8.4-3.9,12.1   c-1.2,3.7-2.6,8.2-3.2,10.1l-1.1,3.4l-0.9,0.2c-3.8,0.8-9.7,0.6-13.1-0.2c-4.2-1.1-7-3.4-8.1-6.9c-0.6-1.9-0.6-5,0-7.1   c1.4-4.4,5.4-8,10.5-9.6c3-0.9,3.8-1,9.6-1h5.4l1-3c0.5-1.7,0.9-3.1,0.8-3.2c-0.6-0.6-10.4-0.8-13.9-0.3   c-6.4,0.9-11.6,3.3-15.8,7.1c-0.8,0.7-1.5,1.3-1.5,1.3s0.4-1.6,1-3.4c1.3-4.4,1.3-4.6,0.8-4.7s-5.8-0.1-6.7,0l-0.7,0.1l-0.7,2.1   c-0.4,1.2-2.3,6.8-4.1,12.6c-1.9,5.8-3.4,10.5-3.4,10.5s-0.6-1.2-1.2-2.7c-2.2-5.2-4.7-10-7.8-14.7c-1.5-2.3-4.3-6.3-5.2-7.3   l-0.7-0.9l-3.2-0.1c-1.8-0.1-3.6,0-4.2,0l-0.9,0.1l-1.6,5c-0.9,2.7-2.3,6.9-3,9.4c-0.8,2.4-1.4,4.5-1.4,4.6c0,0.1,0.6,0.8,1.3,1.6   c1.6,1.6,2.3,2.5,3,4.1c0.4,0.9,0.6,1.1,0.9,1c0.3,0,0.7-0.9,3-8c1.4-4.4,2.7-8,2.7-8c0.1-0.1,0.6,0.7,1.3,1.7   c4.5,6.9,8.3,14.8,11.1,23.1l1.1,3.2h4.5h4.5l2.1-6.4c1.1-3.5,2.1-6.6,2.2-6.8c0.1-0.3,0.2-0.2,0.6,1.1c1.6,5.2,5.3,8.8,11.2,11   c1.5,0.6,4.5,1.3,6.1,1.5C-687,549.4-680.1,549.3-677.7,548.9L-677.7,548.9L-677.7,548.9z" />
</g>

<path
   d="m -383.335,313.73235 c -1.20972,0.31058 -4.62513,-2.39645 -4.62513,-2.39645 l -3.03582,-2.52968 c 0,0 31.37329,-12.14519 77.67453,-18.21778 46.30122,-6.07163 80.46686,-6.16461 79.19195,-6.07163 0.9883,0.0364 0.96433,0.86751 0,1.01226 -0.29236,0.069 -33.39685,2.02355 -65.27723,6.83178 -30.86046,4.65389 -74.21023,15.99003 -83.9283,21.3715 z m 33.57995,-57.0469 c 0,0 5.65177,0.50613 11.97647,-2.53064 6.32565,-3.03581 24.71022,-11.38503 35.08299,-2.27663 6.19337,5.43802 10.12163,15.93924 3.28984,24.54248 0,0 42.75928,4.30113 45.79414,5.56646 l -51.3606,-0.50613 -5.06033,-6.07163 c 0,0 4.30209,0.16871 5.81857,0.33741 1.51838,0.16871 3.20548,0.50614 3.20548,-3.20452 0,0 -0.26361,-3.21795 0,-3.71161 0.26553,-0.49271 1.65355,-1.19343 1.6871,-1.34968 0.0354,-0.15625 -3.06649,-4.08163 -3.25725,-5.09484 -0.15529,-0.83013 -0.11599,-1.99002 -0.11599,-1.99002 0,0 0.16872,-8.93969 -7.42131,-8.93969 -6.57776,0 -12.31293,4.38549 -15.68617,5.73517 -1.47717,0.59049 -6.74743,3.87937 -13.4939,4.21678 -6.74839,0.33743 -10.45904,-4.72291 -10.45904,-4.72291 z m 12.14518,25.132 c 0,0 1.01225,0.33741 7.42131,-1.85581 6.41001,-2.19227 10.6268,-2.53064 11.63905,-2.02356 1.01226,0.50517 5.73421,5.3968 5.73421,5.3968 l -21.42133,1.68709 -3.37324,-3.20452 z m -44.08883,47.39593 c -0.13516,1.53851 -0.25211,2.59295 1.03335,3.42978 l -0.008,0.0805 h -5.07567 l 0.007,-0.0805 c 1.32667,-0.51283 1.34584,-2.48463 1.45129,-3.69914 l 1.05443,-12.04549 h -2.25649 c -1.10141,0 -2.28142,0.29811 -3.14413,1.08031 h -0.0776 l 1.17809,-3.21315 h 0.0776 c 0.2962,0.13516 0.62882,0.13516 0.95761,0.18884 h 10.2031 c 0.43616,0 0.8493,-0.0278 1.19631,-0.18884 h 0.0767 l -1.10141,3.21315 h -0.0767 c -0.25018,-0.94516 -1.26436,-1.08031 -2.10982,-1.08031 h -2.3073 l -1.0784,12.31485 z m 22.32048,-5.15812 -0.42752,4.88876 c -0.10544,1.21547 -0.43232,3.18631 0.80424,3.69914 l -0.008,0.0805 h -4.87053 l 0.008,-0.0805 c 1.32667,-0.51283 1.34488,-2.48463 1.45128,-3.69914 l 0.8934,-10.20886 c 0.10545,-1.21547 0.4582,-3.18631 -0.8052,-3.69915 l 0.008,-0.0805 h 4.87053 l -0.006,0.0805 c -1.32667,0.51284 -1.34584,2.48463 -1.45512,3.72791 l -0.29237,3.34735 h 9.25411 l 0.29333,-3.34735 c 0.10832,-1.24328 0.46011,-3.21507 -0.80137,-3.72791 l 0.007,-0.0805 h 4.89642 l -0.008,0.0805 c -1.3516,0.51284 -1.37077,2.48463 -1.47717,3.69915 l -0.89243,10.20886 c -0.10641,1.21547 -0.43328,3.18631 0.82916,3.69914 l -0.007,0.0805 h -4.89546 l 0.007,-0.0805 c 1.3516,-0.51283 1.34489,-2.48463 1.45128,-3.69914 l 0.42753,-4.88876 h -9.25507 z m 29.88942,1.99768 -1.66601,3.80843 c -0.671,1.51264 -0.91831,2.29579 0.26936,2.78179 l -0.008,0.0805 h -4.7162 l 0.007,-0.0805 c 1.55578,-0.78411 2.12326,-2.29579 2.82206,-3.83622 l 5.26643,-11.25946 c 0.44382,-0.97392 1.03047,-2.10791 -0.16488,-2.51243 l 0.007,-0.0806 h 4.05095 l 4.11996,13.8524 c 0.45533,1.54044 0.78413,3.05211 2.17694,3.83623 l -0.008,0.0805 h -5.25492 l 0.008,-0.0805 c 1.30751,-0.59336 1.12921,-0.89148 0.60199,-2.78179 l -1.0506,-3.80843 h -6.46081 z m 4.07587,-8.80262 -3.13359,6.80591 h 5.05075 l -1.91716,-6.80591 z m 28.1937,13.53033 c 1.73406,0.1064 3.30038,-0.51475 4.68264,-1.6478 h 0.0767 l -1.64779,3.59083 h -10.53478 l 0.006,-0.0805 c 1.3516,-0.48696 1.37269,-2.48463 1.47717,-3.69915 l 0.89148,-10.18105 c 0.10832,-1.24328 0.43616,-3.21508 -0.82725,-3.72791 l 0.008,-0.0806 h 4.89544 l -0.008,0.0806 c -1.3516,0.51283 -1.34776,2.51243 -1.45321,3.72791 l -1.03143,11.7742 3.46526,0.24348 z m 23.97786,-1.56727 c -0.13995,1.61904 -0.21185,2.42999 1.00747,3.42978 l -0.008,0.0805 h -4.99898 l 0.008,-0.0805 c 1.31612,-0.67579 1.29025,-2.43191 1.40048,-3.69914 l 0.34989,-3.99728 -3.62439,-7.20946 c -0.58761,-1.18864 -1.02184,-2.08012 -2.19227,-2.78179 h 2.33318 c 0.8215,0 1.57303,0.18884 1.85773,0.75632 l 3.48442,7.04746 3.61864,-5.02103 c 0.49463,-0.6758 1.19822,-1.9718 -0.17446,-2.70127 l 0.008,-0.0806 h 4.48614 l -7.17975,9.99222 -0.37576,4.26471 z m 29.97378,-11.04378 c -0.90585,-1.08224 -2.43958,-1.70148 -3.87553,-1.70148 -1.46183,0 -3.35886,0.59336 -3.52181,2.45588 -0.32401,3.70106 8.49779,3.64739 8.06164,8.64254 -0.25307,2.88916 -3.36078,5.59043 -7.35997,5.59043 -1.56345,0 -3.10579,-0.24349 -4.51778,-0.81097 l -0.44765,-3.37515 c 1.39089,1.37843 3.41828,2.24115 5.41789,2.24115 1.45991,0 3.74612,-0.91735 3.91099,-2.80863 0.36905,-4.21294 -8.51697,-3.45567 -8.01468,-9.18125 0.29812,-3.402 3.71834,-4.69896 6.84522,-4.69896 1.28258,0 2.57282,0.18884 3.76721,0.59337 l -0.26553,3.05307 z"
   id="path8-1"
   inkscape:connector-curvature="0"
   style="fill:#ffffff;fill-rule:evenodd" /></svg>