<svg id="Layer_1" data-name="Layer 1" xmlns="http://www.w3.org/2000/svg" viewBox="0 0 47.28 23.68"><defs><style>.cls-1{fill:#fff;}</style></defs><title>ice</title><g id="Ebene_1"><path class="cls-1" d="M12.35,14.11c-1.35,7.94,1.75,11.9,8.8,12a16.74,16.74,0,0,0,5.66-1l.65-3.53a12.86,12.86,0,0,1-4.85,1c-2.37,0-4.75-.67-4.81-4.92C17.71,11.49,20,6.42,25.53,6.31a9.84,9.84,0,0,1,4.51,1l.68-3.71a12.68,12.68,0,0,0-5.8-1.18C17.93,2.28,13.5,7.37,12.35,14.11ZM1.92,25.79H7.34L11.55,2.92H6.06Zm32-22.87L29.56,25.79H45.48l.68-3.69H35.63l.95-5.77h7.8l.7-3.83h-7.7l1.15-5.63h9.94l.73-3.95Z" transform="translate(-1.92 -2.4)"/></g></svg>