<?xml version="1.0" encoding="UTF-8" standalone="no"?>
<svg
   xmlns:dc="http://purl.org/dc/elements/1.1/"
   xmlns:cc="http://creativecommons.org/ns#"
   xmlns:rdf="http://www.w3.org/1999/02/22-rdf-syntax-ns#"
   xmlns:svg="http://www.w3.org/2000/svg"
   xmlns="http://www.w3.org/2000/svg"
   xmlns:sodipodi="http://sodipodi.sourceforge.net/DTD/sodipodi-0.dtd"
   xmlns:inkscape="http://www.inkscape.org/namespaces/inkscape"
   version="1.1"
   id="Calque_1"
   x="0px"
   y="0px"
   viewBox="0 0 1700.8 799.99998"
   enable-background="new 0 0 425.2 425.2"
   xml:space="preserve"
   width="800"
   inkscape:version="0.91 r13725"
   sodipodi:docname="Logo Occitanie 2016.svg"
   height="800"><metadata
     id="metadata105"><rdf:RDF><cc:Work
         rdf:about=""><dc:format>image/svg+xml</dc:format><dc:type
           rdf:resource="http://purl.org/dc/dcmitype/StillImage" /><dc:title></dc:title></cc:Work></rdf:RDF></metadata><defs
     id="defs103" /><sodipodi:namedview
     pagecolor="#ffffff"
     bordercolor="#666666"
     borderopacity="1"
     objecttolerance="10"
     gridtolerance="10"
     guidetolerance="10"
     inkscape:pageopacity="0"
     inkscape:pageshadow="2"
     inkscape:window-width="1440"
     inkscape:window-height="790"
     id="namedview101"
     showgrid="false"
     inkscape:zoom="0.27751646"
     inkscape:cx="100"
     inkscape:cy="212.60001"
     inkscape:window-x="0"
     inkscape:window-y="1"
     inkscape:window-maximized="1"
     inkscape:current-layer="Calque_1" /><g
     id="g4277"
     transform="matrix(4.0000001,0,0,4.0000001,0,-450.40006)"><g
       id="g5"><path
         id="path7"
         d="m 234.1,60.1 c -3.8,0 -7,3.1 -7,7 l 0,165.7 c 0,3.8 3.1,7 7,7 3.9,0 7,-3.1 7,-7 l 0,-165.7 c 0,-3.8 -3.2,-7 -7,-7 z"
         inkscape:connector-curvature="0"
         style="fill:#FFFFFF" /><path
         id="path9"
         d="m 264.7,72.2 c -3.8,0 -7,3.1 -7,7 l 0,141.5 c 0,3.8 3.1,7 7,7 3.9,0 7,-3.1 7,-7 l 0,-141.5 c -0.1,-3.8 -3.2,-7 -7,-7 z"
         inkscape:connector-curvature="0"
         style="fill:#FFFFFF" /><path
         id="path11"
         d="m 295.2,98.9 c -3.8,0 -7,3.1 -7,7 l 0,88.1 c 0,3.8 3.1,7 7,7 3.9,0 7,-3.1 7,-7 l 0,-88.1 c 0,-3.9 -3.1,-7 -7,-7 z"
         inkscape:connector-curvature="0"
         style="fill:#FFFFFF" /><circle
         id="circle13"
         r="10.9"
         cy="149.8"
         cx="326.29999"
         style="fill:#FFFFFF" /><path
         id="path15"
         d="m 221.6,41.6 c 1.3,-1.8 2.1,-4 2.1,-6.4 0,-6 -4.9,-10.9 -10.9,-10.9 -6,0 -10.9,4.9 -10.9,10.9 0,2.8 1.1,5.4 2.8,7.3 -9.4,11.4 -21.8,18.3 -26.6,20.7 -1.7,-3.9 -5.5,-6.6 -10.1,-6.6 -6,0 -10.9,4.9 -10.9,10.9 0,6 4.9,10.9 10.9,10.9 2.5,0 4.7,-0.8 6.6,-2.2 12.1,18.8 15.5,40.8 16.5,51.8 -11,-0.9 -33.1,-4.3 -51.7,-16.4 1.3,-1.8 2.1,-4 2.1,-6.4 0,-6 -4.9,-10.9 -10.9,-10.9 -6,0 -10.9,4.9 -10.9,10.9 0,4.5 2.8,8.4 6.7,10.1 -2.7,5.5 -10.6,19.7 -21.5,27.1 -2,-2.1 -4.8,-3.5 -8,-3.5 -6,0 -10.9,4.9 -10.9,10.9 0,6 4.9,10.9 10.9,10.9 3.2,0 6,-1.3 8,-3.5 10.9,7.4 18.8,21.7 21.5,27.2 -3.9,1.7 -6.7,5.5 -6.7,10.1 0,6 4.9,10.9 10.9,10.9 6,0 10.9,-4.9 10.9,-10.9 0,-2.4 -0.8,-4.6 -2.1,-6.4 18.6,-12.1 40.7,-15.5 51.7,-16.4 -0.9,11 -4.3,32.9 -16.5,51.6 -1.8,-1.4 -4.1,-2.2 -6.6,-2.2 -6,0 -10.9,4.9 -10.9,10.9 0,6 4.9,10.9 10.9,10.9 4.5,0 8.4,-2.7 10.1,-6.6 4.8,2.4 17.1,9.3 26.6,20.7 -1.8,1.9 -2.9,4.5 -2.9,7.3 0,6 4.9,10.9 10.9,10.9 6,0 10.9,-4.9 10.9,-10.9 0,-2.4 -0.8,-4.6 -2.1,-6.4 -9.4,-16.1 -24.5,-26.4 -33.3,-31.4 16.6,-28.4 16.5,-60.6 16.5,-62 l 0,-6.6 -6.6,-0.1 c -1.5,0 -33.6,-0.1 -62.1,16.5 -3.7,-6.7 -10.2,-16.9 -19.1,-24.6 8.9,-7.6 15.4,-17.8 19.1,-24.5 28.4,16.6 60.6,16.5 62.1,16.5 l 6.6,-0.1 0,-6.6 c 0,-1.5 0,-33.6 -16.5,-62 9,-4.9 24.1,-15.2 33.4,-31.4 z"
         inkscape:connector-curvature="0"
         style="fill:#FFFFFF" /></g><g
       id="g4233"><g
         id="g17"><path
           d="M 77.7,368.4 C 64,368.4 53.3,358.1 53.3,345 c 0,-13.2 10.5,-23.2 24.4,-23.2 13.7,0 24.4,10.2 24.4,23.2 0,13.2 -10.7,23.4 -24.4,23.4 z m 0,-40 c -9.4,0 -17,7.5 -17,16.7 0,9.3 7.6,16.8 17,16.8 9.3,0 16.8,-7.5 16.8,-16.8 0,-9.4 -7.3,-16.7 -16.8,-16.7 z"
           id="path19"
           inkscape:connector-curvature="0"
           style="fill:#ffffff" /><path
           d="m 126,368.3 c -10.3,0 -17.6,-7.3 -17.6,-17.6 0,-10.5 7.2,-17.8 17.6,-17.8 6.1,0 11,1.9 14.3,5.5 l -3.9,4.6 c -2.6,-2.5 -6,-3.9 -9.8,-3.9 l -0.3,0 c -6.3,0 -10.8,4.8 -10.8,11.5 0,6.8 4.4,11.5 10.7,11.5 4.4,0 8,-1.4 10.5,-4.1 l 3.9,3.9 c -3.2,4.3 -8.2,6.4 -14.6,6.4 z"
           id="path21"
           inkscape:connector-curvature="0"
           style="fill:#ffffff" /><path
           d="m 163.3,368.3 c -10.3,0 -17.6,-7.3 -17.6,-17.6 0,-10.5 7.2,-17.8 17.6,-17.8 6.1,0 11,1.9 14.3,5.5 l -3.9,4.6 c -2.6,-2.5 -6,-3.9 -9.8,-3.9 l -0.3,0 c -6.3,0 -10.8,4.8 -10.8,11.5 0,6.8 4.4,11.5 10.7,11.5 4.4,0 8,-1.4 10.5,-4.1 l 3.9,3.9 c -3.1,4.3 -8.2,6.4 -14.6,6.4 z"
           id="path23"
           inkscape:connector-curvature="0"
           style="fill:#ffffff" /><path
           d="m 186.5,368.1 0,-34.9 7.1,0 0,34.9 -7.1,0 z m 3.6,-40.9 c -2.4,0 -4.2,-1.9 -4.2,-4.3 0,-2.5 1.8,-4.4 4.2,-4.4 2.4,0 4.2,1.9 4.2,4.4 0,2.4 -1.8,4.3 -4.2,4.3 z"
           id="path25"
           inkscape:connector-curvature="0"
           style="fill:#ffffff" /><path
           d="m 217.7,368.4 c -2.3,0 -9.7,-0.7 -9.7,-10.1 l 0,-18.6 -5,0 0,-5.2 5,0 0,-9.7 7.1,0 0,9.7 10.4,0 0,5.2 -10.4,0 0,17.3 c 0,3.5 1.2,5 4,5 1.5,0 3.1,-0.4 5.2,-1.4 l 1.8,5.4 c -2.8,1.6 -5.6,2.4 -8.4,2.4 z"
           id="path27"
           inkscape:connector-curvature="0"
           style="fill:#ffffff" /><path
           d="m 244.2,368.4 c -7.2,0 -12.2,-4.4 -12.2,-10.7 0,-6.3 5,-10.3 13.1,-10.4 l 10.9,0 0,-1.3 c 0,-4.7 -3.1,-7.4 -8.7,-7.4 -3.4,0 -6.9,1.2 -10.4,3.5 l -2.9,-4.9 c 4.9,-2.9 8.5,-4.3 14.9,-4.3 8.9,0 14,4.4 14.1,12.2 l 0.1,23 -7,0 0,-4.5 -1.6,1.4 c -2.4,2.3 -5.9,3.4 -10.3,3.4 z m 2.1,-16 c -5.2,0 -7.6,1.5 -7.6,5 0,3.3 2.8,5.5 7.1,5.5 5.5,0 9.9,-2.9 10.3,-6.9 l 0,-3.5 -9.8,0 z"
           id="path29"
           inkscape:connector-curvature="0"
           style="fill:#ffffff" /><path
           d="m 301.3,368.1 0,-19.6 c 0,-5.4 -3.4,-8.8 -8.8,-8.8 -5.8,0.1 -9.7,3.8 -10.3,9.9 l 0,18.6 -7.2,0 0,-34.9 7.2,0 0,6.9 1.7,-2.2 c 2.5,-3.3 6.4,-5 11.6,-5 8,0 12.9,5.1 12.9,13.4 l 0,21.8 -7.1,0 z"
           id="path31"
           inkscape:connector-curvature="0"
           style="fill:#ffffff" /><path
           d="m 320.4,368.1 0,-34.9 7.1,0 0,34.9 -7.1,0 z m 3.6,-40.9 c -2.4,0 -4.2,-1.9 -4.2,-4.3 0,-2.5 1.8,-4.4 4.2,-4.4 2.4,0 4.2,1.9 4.2,4.4 0,2.4 -1.8,4.3 -4.2,4.3 z"
           id="path33"
           inkscape:connector-curvature="0"
           style="fill:#ffffff" /><path
           d="m 355,368.3 c -10.7,0 -17.8,-7.1 -17.8,-17.6 0,-10.4 7.3,-17.7 17.6,-17.8 5.3,0 9.4,1.5 12.2,4.5 3.2,3.5 4.6,8.8 4.1,15.9 l -26.9,0 0.4,1.2 c 1.5,5 5.7,8.1 11,8.1 3.8,0 7.3,-1.4 10,-4 l 3.7,4 c -3.5,3.8 -8.4,5.7 -14.3,5.7 z m -0.1,-29.7 c -5.4,0 -9.3,3.2 -10.5,8.5 l -0.2,1.1 20.8,0 -0.1,-1 c -0.5,-5.4 -4.3,-8.6 -10,-8.6 z"
           id="path35"
           inkscape:connector-curvature="0"
           style="fill:#ffffff" /></g><g
         id="g37"><polygon
           points="57.9,304.3 68.8,304.3 68.7,308.5 53.3,308.5 53.3,283.1 58,283.2 "
           id="polygon39"
           style="fill:#ffffff" /><path
           d="m 77.8,308.7 c -4,0 -6.9,-2.5 -6.9,-6.1 0,-3.7 2.8,-5.9 7.4,-5.9 l 5.5,0 0.1,-0.4 c 0,-2.4 -1.5,-3.6 -4.3,-3.6 -1.8,0 -3.6,0.6 -5.5,1.9 l -0.2,0.2 -1.8,-3.3 0.2,0 c 2.8,-1.6 4.7,-2.4 8.3,-2.4 5,0 7.8,2.5 7.9,6.9 l 0,12.7 -4.5,-0.1 0.1,-1.8 0,-0.2 -0.1,0.1 c -1.6,1.3 -3.6,2 -6.2,2 z m 1.1,-8.6 c -2.7,0 -3.7,0.7 -3.7,2.3 0,1.6 1.3,2.6 3.5,2.6 2.8,0 5,-1.4 5.2,-3.4 l 0,-1.5 -5,0 z"
           id="path41"
           inkscape:connector-curvature="0"
           style="fill:#ffffff" /><path
           d="m 102.8,308.5 0.1,-25.5 10.3,0.1 c 6.5,0 10.3,3.2 10.3,8.7 0,3.9 -1.8,6.8 -5,8.2 l 5.6,8.5 -5.3,0 -4.5,-7.5 c -0.4,0 -0.7,0 -1.1,0 l -5.7,0 -0.1,7.6 -4.6,-0.1 z m 4.7,-11.7 5.7,0.1 c 3.9,0 5.9,-1.6 5.9,-4.8 0,-3.1 -2,-4.7 -5.9,-4.7 l -5.7,0 0,9.4 z"
           id="path43"
           inkscape:connector-curvature="0"
           style="fill:#ffffff" /><path
           d="m 136.6,308.7 c -5.9,0 -9.9,-3.9 -9.9,-9.8 0,-5.8 4,-9.8 9.8,-9.9 3,0 5.2,0.8 6.8,2.5 1.8,1.9 2.6,4.9 2.3,8.9 l 0,0.2 -14.2,-0.1 c 0.6,2.7 2.8,4.4 5.6,4.4 2,0 3.9,-0.8 5.2,-2.2 l 0.2,-0.2 2.4,2.7 -0.2,0.1 c -2,2.3 -4.7,3.4 -8,3.4 z m -0.1,-16 c -2.7,0 -4.8,1.7 -5.3,4.5 l 10.3,0.1 c -0.2,-2.9 -2,-4.6 -5,-4.6 z m -3,-5.9 4.1,-5.8 4.7,2.1 -4.8,3.7 -4,0 z"
           id="path45"
           inkscape:connector-curvature="0"
           style="fill:#ffffff" /><path
           d="m 157.6,315.6 c -2.8,0 -5.5,-0.9 -8,-2.5 l -0.2,-0.1 2,-3.3 0.1,0.2 c 1.9,1.4 3.7,2 5.8,2 3.5,0 5.8,-2 5.8,-5.2 l 0,-1.8 -0.1,0.2 c -1.4,1.7 -3.4,2.6 -6,2.6 -5.2,0 -8.8,-3.8 -8.8,-9.4 0,-5.5 3.5,-9.2 8.6,-9.2 2.6,0 4.7,0.9 6.1,2.6 l 0.1,0.2 0,-2.7 4.5,0.1 -0.1,17.3 c 0.3,5.4 -3.7,9 -9.8,9 z m 0.3,-22.9 c -3.1,0 -5.3,2.3 -5.3,5.6 0,3.4 2.2,5.7 5.3,5.7 3.1,0 5.3,-2.3 5.3,-5.7 0,-3.3 -2.2,-5.6 -5.3,-5.6 z"
           id="path47"
           inkscape:connector-curvature="0"
           style="fill:#ffffff" /><path
           d="m 172.9,308.5 0.1,-19.5 4.5,0.1 -0.1,19.4 -4.5,0 z m 2.3,-21.9 c -1.5,0 -2.6,-1.1 -2.6,-2.7 0,-1.5 1.1,-2.7 2.6,-2.7 1.5,0 2.6,1.2 2.6,2.7 0,1.5 -1.1,2.7 -2.6,2.7 z"
           id="path49"
           inkscape:connector-curvature="0"
           style="fill:#ffffff" /><path
           d="m 191.5,308.7 c -6,0 -10.1,-4 -10.1,-9.8 0,-5.9 4.1,-9.8 10.1,-9.8 5.9,0 10.1,4 10.1,9.8 -0.1,5.7 -4.2,9.8 -10.1,9.8 z m 0,-15.8 c -3.3,0 -5.6,2.4 -5.6,6 0,3.6 2.3,6 5.6,6 3.3,0 5.6,-2.5 5.6,-6 -0.1,-3.5 -2.4,-6 -5.6,-6 z"
           id="path51"
           inkscape:connector-curvature="0"
           style="fill:#ffffff" /><path
           d="m 205.4,308.5 0.1,-19.5 4.6,0.1 -0.1,2.9 0,0.2 0.1,-0.2 c 1.4,-2 3.6,-3.1 6.7,-3.1 4.5,0 7.3,2.9 7.3,7.5 l 0,12 -4.6,0 0.1,-10.9 c 0,-2.8 -1.6,-4.4 -4.4,-4.4 -2.9,0 -4.9,2 -5.2,5 l 0,10.4 -4.6,0 z"
           id="path53"
           inkscape:connector-curvature="0"
           style="fill:#ffffff" /></g><g
         id="g55"><g
           id="g57"><path
             d="m 61.2,380.7 c 4.7,0 7.4,2.3 7.4,6.4 0,4.2 -2.7,6.6 -7.4,6.6 l -4.3,0 0,5.6 -3.1,0 0,-18.6 7.4,0 z m -4.3,10.2 4.1,0 c 2.9,0 4.5,-1.2 4.5,-3.8 0,-2.4 -1.6,-3.6 -4.5,-3.6 l -4.1,0 0,7.4 z"
             id="path59"
             inkscape:connector-curvature="0"
             style="fill:#ffffff" /><path
             d="m 77.7,401.2 c -0.9,2.2 -2.5,3.4 -4.6,3.4 -1.3,0 -2.3,-0.4 -3.3,-1.2 l 1.3,-2.4 c 0.7,0.5 1.2,0.7 1.8,0.7 0.9,0 1.7,-0.5 2.2,-1.6 l 0.5,-1.1 -5.9,-13.9 3.3,0 4.2,10.7 3.9,-10.7 3.1,0 -6.5,16.1 z"
             id="path61"
             inkscape:connector-curvature="0"
             style="fill:#ffffff" /><path
             d="m 89.5,388 c 1,-1.9 2.7,-2.9 4.9,-2.9 l 0,2.9 c -2.8,-0.2 -4.7,1.5 -4.9,3.9 l 0,7.4 -3.1,0 0,-14.1 3.1,0 0,2.8 z"
             id="path63"
             inkscape:connector-curvature="0"
             style="fill:#ffffff" /><path
             d="m 109.4,393.4 -10.7,0 c 0.5,2.2 2.2,3.5 4.4,3.5 1.5,0 3,-0.6 4,-1.6 l 1.6,1.7 c -1.4,1.5 -3.4,2.4 -5.9,2.4 -4.4,0 -7.2,-2.9 -7.2,-7.2 0,-4.3 3,-7.2 7.2,-7.2 4.9,0 7,3.3 6.6,8.4 z m -2.7,-2.3 c -0.1,-2.3 -1.6,-3.7 -3.9,-3.7 -2.2,0 -3.8,1.4 -4.1,3.7 l 8,0 z m -5.9,-8 2.8,-3.9 3.1,1.3 -3.2,2.6 -2.7,0 z"
             id="path65"
             inkscape:connector-curvature="0"
             style="fill:#ffffff" /><path
             d="m 126.1,390.5 0,8.8 -3.1,0 0,-8 c 0,-2.1 -1.3,-3.4 -3.4,-3.4 -2.3,0 -3.8,1.6 -4,3.9 l 0,7.5 -3.1,0 0,-14.1 3.1,0 0,2.7 c 1,-2 2.8,-2.8 5.2,-2.8 3.3,-0.1 5.3,2 5.3,5.4 z"
             id="path67"
             inkscape:connector-curvature="0"
             style="fill:#ffffff" /><path
             d="m 142.7,393.4 -10.7,0 c 0.5,2.2 2.2,3.5 4.4,3.5 1.5,0 3,-0.6 4,-1.6 l 1.6,1.7 c -1.4,1.5 -3.4,2.4 -5.9,2.4 -4.4,0 -7.2,-2.9 -7.2,-7.2 0,-4.3 3,-7.2 7.2,-7.2 4.9,0 6.9,3.3 6.6,8.4 z m -2.7,-2.3 c -0.1,-2.3 -1.6,-3.7 -3.9,-3.7 -2.2,0 -3.8,1.4 -4.1,3.7 l 8,0 z m -5.9,-8 2.8,-3.9 3.1,1.3 -3.2,2.6 -2.7,0 z"
             id="path69"
             inkscape:connector-curvature="0"
             style="fill:#ffffff" /><path
             d="m 158.3,393.4 -10.7,0 c 0.5,2.2 2.2,3.5 4.4,3.5 1.5,0 3,-0.6 4,-1.6 l 1.6,1.7 c -1.4,1.5 -3.4,2.4 -5.9,2.4 -4.4,0 -7.2,-2.9 -7.2,-7.2 0,-4.3 3,-7.2 7.2,-7.2 4.9,0 7,3.3 6.6,8.4 z m -2.7,-2.3 c -0.1,-2.3 -1.6,-3.7 -3.9,-3.7 -2.2,0 -3.8,1.4 -4.1,3.7 l 8,0 z"
             id="path71"
             inkscape:connector-curvature="0"
             style="fill:#ffffff" /><path
             d="m 170.7,386.4 -1.1,2.3 c -1.2,-0.8 -2.8,-1.2 -4.1,-1.2 -1.2,0 -2.1,0.4 -2.1,1.4 0,2.6 7.5,1.2 7.5,6.3 0,2.9 -2.6,4.2 -5.4,4.2 -2.1,0 -4.3,-0.7 -5.7,-2 l 1.1,-2.2 c 1.2,1.1 3.2,1.8 4.7,1.8 1.3,0 2.3,-0.5 2.3,-1.5 0,-2.9 -7.4,-1.3 -7.4,-6.4 0,-2.9 2.5,-4.1 5.2,-4.1 1.8,0 3.7,0.5 5,1.4 z"
             id="path73"
             inkscape:connector-curvature="0"
             style="fill:#ffffff" /><path
             d="m 180.2,392.2 0,-2.1 6.5,0 0,2.1 -6.5,0 z"
             id="path75"
             inkscape:connector-curvature="0"
             style="fill:#ffffff" /><path
             d="m 214.4,399.3 0,-13.9 -5.9,12 -2,0 -5.9,-12 0,13.9 -3,0 0,-18.6 3.7,0 6.1,12.4 6.1,-12.4 3.7,0 0,18.6 -2.8,0 z"
             id="path77"
             inkscape:connector-curvature="0"
             style="fill:#ffffff" /><path
             d="m 234.5,393.4 -10.7,0 c 0.5,2.2 2.2,3.5 4.4,3.5 1.5,0 3,-0.6 4,-1.6 l 1.6,1.7 c -1.4,1.5 -3.4,2.4 -5.9,2.4 -4.4,0 -7.2,-2.9 -7.2,-7.2 0,-4.3 3,-7.2 7.2,-7.2 5,0 7,3.3 6.6,8.4 z m -2.6,-2.3 c -0.1,-2.3 -1.6,-3.7 -3.9,-3.7 -2.2,0 -3.8,1.4 -4.1,3.7 l 8,0 z m -5.9,-8 2.8,-3.9 3.1,1.3 -3.2,2.6 -2.7,0 z"
             id="path79"
             inkscape:connector-curvature="0"
             style="fill:#ffffff" /><path
             d="m 251.2,399.3 -3.1,0 0,-2.4 c -1,1.6 -2.7,2.6 -5,2.6 -4.1,0 -6.8,-3 -6.8,-7.3 0,-4.3 2.7,-7.2 6.7,-7.2 2.3,0 4,0.9 5,2.6 l 0,-8 3.1,0 0,19.7 z m -3.1,-7 c 0,-2.7 -1.8,-4.7 -4.3,-4.7 -2.5,0 -4.3,1.9 -4.4,4.7 0,2.7 1.8,4.6 4.4,4.6 2.6,0 4.3,-2 4.3,-4.6 z"
             id="path81"
             inkscape:connector-curvature="0"
             style="fill:#ffffff" /><path
             d="m 259.1,381.1 c 0,1.1 -0.8,1.8 -1.8,1.8 -1,0 -1.8,-0.8 -1.8,-1.8 0,-1.1 0.8,-1.9 1.8,-1.9 1.1,0 1.8,0.8 1.8,1.9 z m -3.3,18.2 0,-14.1 3,0 0,14.1 -3,0 z"
             id="path83"
             inkscape:connector-curvature="0"
             style="fill:#ffffff" /><path
             d="m 271.4,398.4 c -1.1,0.7 -2.3,1 -3.5,1 -2.1,0 -4,-1.2 -4,-4.1 l 0,-7.3 -2,0 0,-2.3 2,0 0,-3.9 3,0 0,3.9 4.2,0 0,2.3 -4.1,0 0,6.8 c 0,1.5 0.6,1.9 1.5,1.9 0.6,0 1.3,-0.2 2.1,-0.6 l 0.8,2.3 z"
             id="path85"
             inkscape:connector-curvature="0"
             style="fill:#ffffff" /><path
             d="m 286.5,393.4 -10.7,0 c 0.5,2.2 2.2,3.5 4.4,3.5 1.5,0 3,-0.6 4,-1.6 l 1.6,1.7 c -1.4,1.5 -3.4,2.4 -5.9,2.4 -4.4,0 -7.2,-2.9 -7.2,-7.2 0,-4.3 3,-7.2 7.2,-7.2 5,0 7,3.3 6.6,8.4 z m -2.6,-2.3 c -0.1,-2.3 -1.6,-3.7 -3.9,-3.7 -2.2,0 -3.8,1.4 -4.1,3.7 l 8,0 z"
             id="path87"
             inkscape:connector-curvature="0"
             style="fill:#ffffff" /><path
             d="m 292.8,388 c 1,-1.9 2.7,-2.9 4.9,-2.9 l 0,2.9 c -2.8,-0.2 -4.7,1.5 -4.9,3.9 l 0,7.4 -3.1,0 0,-14.1 3.1,0 0,2.8 z"
             id="path89"
             inkscape:connector-curvature="0"
             style="fill:#ffffff" /><path
             d="m 303.2,388 c 1,-1.9 2.7,-2.9 4.9,-2.9 l 0,2.9 c -2.8,-0.2 -4.7,1.5 -4.9,3.9 l 0,7.4 -3.1,0 0,-14.1 3.1,0 0,2.8 z"
             id="path91"
             inkscape:connector-curvature="0"
             style="fill:#ffffff" /><path
             d="m 318.6,397.6 c -1,1.2 -2.6,1.9 -4.7,1.9 -3.1,0 -5,-1.9 -5,-4.4 0,-2.6 1.9,-4.2 5.3,-4.3 l 4.3,0 0,-0.4 c 0,-1.8 -1.1,-2.8 -3.4,-2.8 -1.4,0 -2.8,0.5 -4.2,1.4 l -1.2,-2.1 c 2,-1.2 3.4,-1.8 6.1,-1.8 3.6,0 5.7,1.9 5.7,5 l 0,9.3 -3,0 0,-1.8 z m 0,-3.3 0,-1.3 -3.8,0 c -2,0 -2.9,0.5 -2.9,1.9 0,1.3 1,2.1 2.7,2.1 2.1,0 3.8,-1.1 4,-2.7 z"
             id="path93"
             inkscape:connector-curvature="0"
             style="fill:#ffffff" /><path
             d="m 339.2,390.5 0,8.8 -3.1,0 0,-8 c 0,-2.1 -1.3,-3.4 -3.4,-3.4 -2.3,0 -3.8,1.6 -4,3.9 l 0,7.5 -3.1,0 0,-14.1 3.1,0 0,2.7 c 1,-2 2.8,-2.8 5.2,-2.8 3.3,-0.1 5.3,2 5.3,5.4 z"
             id="path95"
             inkscape:connector-curvature="0"
             style="fill:#ffffff" /><path
             d="m 355.8,393.4 -10.7,0 c 0.5,2.2 2.2,3.5 4.4,3.5 1.5,0 3,-0.6 4,-1.6 l 1.6,1.7 c -1.4,1.5 -3.4,2.4 -5.9,2.4 -4.4,0 -7.2,-2.9 -7.2,-7.2 0,-4.3 3,-7.2 7.2,-7.2 4.9,0 6.9,3.3 6.6,8.4 z m -2.7,-2.3 c -0.1,-2.3 -1.6,-3.7 -3.9,-3.7 -2.2,0 -3.8,1.4 -4.1,3.7 l 8,0 z m -5.9,-8 2.8,-3.9 3.1,1.3 -3.2,2.6 -2.7,0 z"
             id="path97"
             inkscape:connector-curvature="0"
             style="fill:#ffffff" /><path
             d="m 371.4,393.4 -10.7,0 c 0.5,2.2 2.2,3.5 4.4,3.5 1.5,0 3,-0.6 4,-1.6 l 1.6,1.7 c -1.4,1.5 -3.4,2.4 -5.9,2.4 -4.4,0 -7.2,-2.9 -7.2,-7.2 0,-4.3 3,-7.2 7.2,-7.2 4.9,0 7,3.3 6.6,8.4 z m -2.7,-2.3 c -0.1,-2.3 -1.6,-3.7 -3.9,-3.7 -2.2,0 -3.8,1.4 -4.1,3.7 l 8,0 z"
             id="path99"
             inkscape:connector-curvature="0"
             style="fill:#ffffff" /></g></g></g></g></svg>