<?xml version="1.0" encoding="UTF-8" standalone="no"?>
<!-- Created with Inkscape (http://www.inkscape.org/) -->

<svg
   xmlns:dc="http://purl.org/dc/elements/1.1/"
   xmlns:cc="http://creativecommons.org/ns#"
   xmlns:rdf="http://www.w3.org/1999/02/22-rdf-syntax-ns#"
   xmlns:svg="http://www.w3.org/2000/svg"
   xmlns="http://www.w3.org/2000/svg"
   xmlns:sodipodi="http://sodipodi.sourceforge.net/DTD/sodipodi-0.dtd"
   xmlns:inkscape="http://www.inkscape.org/namespaces/inkscape"
   width="349.85925"
   height="256.87305"
   viewBox="0 0 92.566931 67.96433"
   version="1.1"
   id="svg927"
   inkscape:version="0.92.2 (5c3e80d, 2017-08-06)"
   sodipodi:docname="tram.svg">
  <defs
     id="defs921" />
  <sodipodi:namedview
     id="base"
     pagecolor="#ffffff"
     bordercolor="#FFFFFF"
     borderopacity="1.0"
     inkscape:pageopacity="0.0"
     inkscape:pageshadow="2"
     inkscape:zoom="1.9964029"
     inkscape:cx="175"
     inkscape:cy="139.00009"
     inkscape:document-units="mm"
     inkscape:current-layer="layer1"
     showgrid="false"
     fit-margin-top="0"
     fit-margin-left="0"
     fit-margin-right="0"
     fit-margin-bottom="0"
     units="px"
     inkscape:window-width="1366"
     inkscape:window-height="705"
     inkscape:window-x="-8"
     inkscape:window-y="-8"
     inkscape:window-maximized="1" />
  <metadata
     id="metadata924">
    <rdf:RDF>
      <cc:Work
         rdf:about="">
        <dc:format>image/svg+xml</dc:format>
        <dc:type
           rdf:resource="http://purl.org/dc/dcmitype/StillImage" />
        <dc:title></dc:title>
      </cc:Work>
    </rdf:RDF>
  </metadata>
  <g
     inkscape:label="Calque 1"
     inkscape:groupmode="layer"
     id="layer1"
     transform="translate(-118.01843,-212.69286)">
    <path
       id="path818"
       d="m 118.01843,212.69286 h 92.56693 v 67.96433 h -92.56693 z"
       style="fill:#FFFFFF;fill-opacity:1;fill-rule:evenodd;stroke:none;stroke-width:8.61139393"
       inkscape:connector-curvature="0" />
    <path
       id="path820"
       d="m 132.7798,243.4462 c -1.84542,0 -3.38261,-0.61514 -4.30532,-1.53622 -0.92433,-1.23027 -1.53622,-2.46055 -1.53622,-3.99775 v -9.53366 h -2.15136 v -3.99775 h 2.15136 v -5.84316 h 4.92046 v 5.84316 h 3.69018 v 3.99775 h -3.69018 v 9.2261 c 0,1.23027 0.61514,1.84541 1.53622,1.84541 h 2.15135 v 3.99807 z"
       style="fill:#FFFFFF;fill-opacity:1;fill-rule:evenodd;stroke:none;stroke-width:8.61139393"
       inkscape:connector-curvature="0" />
    <path
       id="path822"
       d="m 150.61686,228.99208 c -0.61514,-0.29293 -0.92108,-0.61514 -1.23028,-0.92108 -0.29292,0 -0.92108,0 -1.53622,0 -0.92433,0 -1.84541,0 -2.46055,0.92108 -0.61514,0.29292 -0.92108,1.23027 -0.92108,2.46055 v 11.9939 h -4.61289 v -19.68215 h 4.61289 v 1.84541 c 0.29292,-0.61513 1.23027,-0.92433 2.15136,-1.53947 0.92108,-0.29292 1.84541,-0.61514 3.07569,-0.61514 0.92108,0 1.84541,0.29292 2.46055,0.61514 0.61514,0.29292 1.23028,0.61514 2.15136,1.23028 z"
       style="fill:#FFFFFF;fill-opacity:1;fill-rule:evenodd;stroke:none;stroke-width:8.61139393"
       inkscape:connector-curvature="0" />
    <path
       id="path824"
       d="m 166.30093,235.45038 h -3.6905 c -1.84542,0 -2.7665,0.61514 -2.7665,2.15136 0,0.61513 0.29293,1.23027 0.61514,1.53622 0.61514,0.29292 1.23028,0.61513 2.15136,0.61513 0.61514,0 1.23027,0 1.84541,-0.29292 0.29293,0 0.92108,-0.29292 1.23028,-0.61514 0.61514,-0.61514 0.61514,-1.23027 0.61514,-2.46055 z m 0.29293,7.99582 v -1.53622 c -0.92109,0.61514 -1.53622,0.92108 -2.15136,1.23028 -0.61514,0.29292 -1.53622,0.61514 -2.7665,0.61514 -2.15135,0 -3.6905,-0.61514 -5.22802,-1.84542 -0.92434,-1.23027 -1.53622,-2.46055 -1.53622,-4.30531 0,-1.53622 0.61514,-3.0757 1.53622,-3.99808 1.53622,-1.53622 3.07569,-1.84541 5.22802,-1.84541 h 4.61289 v -0.92108 c 0,-1.23028 -0.29292,-2.15461 -0.61514,-2.46056 -0.61514,-0.61513 -1.53622,-0.61513 -2.76649,-0.61513 -0.92434,0 -1.84542,0 -2.15136,0.29292 -0.61514,0.29292 -1.23028,0.61514 -1.84542,1.23027 l -3.38293,-3.07569 c 0.92433,-0.92108 2.46055,-1.84541 3.38293,-2.15135 0.92434,-0.29293 2.46056,-0.61514 3.99775,-0.61514 5.5356,0 8.30339,2.46055 8.30339,7.07344 v 12.91628 z"
       style="fill:#FFFFFF;fill-opacity:1;fill-rule:evenodd;stroke:none;stroke-width:8.61139393"
       inkscape:connector-curvature="0" />
    <path
       id="path826"
       d="m 198.59146,243.4462 v -11.99389 c 0,-1.23028 -0.29292,-2.15136 -0.92108,-2.7665 -0.61513,-0.61514 -1.23027,-0.92108 -2.15135,-0.92108 -0.92434,0 -1.53622,0.29292 -2.15136,0.92108 -0.61514,0.61514 -1.23028,1.53947 -1.23028,2.7665 v 11.99389 h -4.61288 v -11.99389 c 0,-1.23028 -0.29293,-2.15136 -0.92108,-2.7665 -0.61514,-0.61514 -1.53622,-0.92108 -2.46056,-0.92108 -0.61513,0 -1.53622,0.29292 -2.15135,0.92108 -0.61514,0.61514 -0.92434,1.53947 -0.92434,2.7665 v 11.99389 h -4.92013 v -19.68215 h 4.92046 v 1.84542 c 0.29292,-0.61514 1.23027,-1.23028 2.15135,-1.53948 0.61514,-0.29292 1.53622,-0.61513 2.46056,-0.61513 2.15135,0 3.99775,0.92433 5.22802,2.46055 0.92434,-0.61514 1.53622,-1.23028 2.46056,-1.84542 0.92433,-0.29292 2.15135,-0.61513 3.38293,-0.61513 0.92434,0 1.84542,0.29292 2.46055,0.61513 0.92434,0.29293 2.15136,0.61514 2.46056,1.23028 0.92108,0.61514 1.23027,1.53622 1.84541,2.46055 0.29293,0.92109 0.29293,1.84542 0.29293,3.0757 v 12.60871 z"
       style="fill:#FFFFFF;fill-opacity:1;fill-rule:evenodd;stroke:none;stroke-width:8.61139393"
       inkscape:connector-curvature="0" />
    <path
       id="path828"
       d="m 132.7798,274.50678 c -1.84542,0 -3.38261,-0.92108 -4.30532,-1.84541 -0.92433,-1.23028 -1.53622,-2.46056 -1.53622,-3.99775 v -9.53334 h -2.15136 v -3.69051 h 2.15136 v -5.84316 h 4.92046 v 5.84316 h 3.69018 v 3.69051 h -3.69018 v 9.22577 c 0,1.23028 0.61514,1.84542 1.53622,1.84542 h 2.15135 v 4.30564 z"
       style="fill:#FFFFFF;fill-opacity:1;fill-rule:evenodd;stroke:none;stroke-width:8.61139393"
       inkscape:connector-curvature="0" />
    <path
       id="path830"
       d="m 150.61686,260.36023 c -0.61514,-0.29292 -0.92108,-0.61514 -1.23028,-0.92108 -0.29292,0 -0.92108,-0.29293 -1.53622,-0.29293 -0.92433,0 -1.84541,0.29293 -2.46055,0.92109 -0.61514,0.92108 -0.92108,1.53621 -0.92108,2.76649 v 11.68633 h -4.61289 v -19.68215 h 4.61289 v 1.84541 c 0.29292,-0.61514 1.23027,-1.23027 2.15136,-1.53947 0.92108,-0.29292 1.84541,-0.61514 3.07569,-0.61514 0.92108,0 1.84541,0.29292 2.46055,0.61514 0.61514,0.29292 1.23028,0.61514 2.15136,1.23028 z"
       style="fill:#FFFFFF;fill-opacity:1;fill-rule:evenodd;stroke:none;stroke-width:8.61139393"
       inkscape:connector-curvature="0" />
    <path
       id="path832"
       d="m 166.30093,265.89582 h -3.6905 c -1.84542,0 -2.7665,0.92108 -2.7665,2.46056 0,0.61513 0.29293,1.23027 0.61514,1.53621 0.61514,0.29293 1.23028,0.61514 2.15136,0.61514 0.61514,0 1.23027,0 1.84541,-0.29292 0.29293,0 0.92108,-0.29292 1.23028,-0.61514 0.61514,-0.61514 0.61514,-1.23028 0.61514,-2.46055 z m 0.29293,8.61096 v -1.53622 c -0.92109,0.61514 -1.53622,0.92108 -2.15136,1.23028 -0.61514,0.29292 -1.53622,0.61514 -2.7665,0.61514 -2.15135,0 -3.6905,-0.61514 -5.22802,-1.84542 -0.92434,-0.92108 -1.53622,-2.76649 -1.53622,-4.61288 0,-1.53622 0.61514,-3.07569 1.53622,-3.99775 1.53622,-1.23028 3.07569,-1.53947 5.22802,-1.53947 h 4.61289 v -1.23028 c 0,-0.92108 -0.29292,-1.53622 -0.61514,-2.15136 -0.61514,-0.61514 -1.53622,-0.61514 -2.76649,-0.61514 -0.92434,0 -1.84542,0 -2.15136,0.29293 -0.61514,0.29292 -1.23028,0.61514 -1.84542,1.23027 l -3.38293,-3.07569 c 0.92433,-0.92108 2.46055,-1.84541 3.38293,-2.15135 0.92434,-0.29293 2.46056,-0.61514 3.99775,-0.61514 5.5356,0 8.30339,2.46055 8.30339,7.07344 v 12.91628 z"
       style="fill:#FFFFFF;fill-opacity:1;fill-rule:evenodd;stroke:none;stroke-width:8.61139393"
       inkscape:connector-curvature="0" />
    <path
       id="path834"
       d="m 176.14184,254.82463 h 5.22803 v 19.68215 h -5.22803 z m 0,-7.38068 h 5.22803 v 3.99807 h -5.22803 z"
       style="fill:#FFFFFF;fill-opacity:1;fill-rule:evenodd;stroke:none;stroke-width:8.61139393"
       inkscape:connector-curvature="0" />
    <path
       id="path836"
       d="m 197.97633,274.50678 v -11.68632 c 0,-1.23028 -0.29293,-2.15136 -0.92108,-2.7665 -0.61514,-0.61514 -1.53622,-0.92108 -2.15136,-0.92108 -0.92434,0 -1.84542,0.29292 -2.46055,0.92108 -0.61514,0.61514 -0.92434,1.53622 -0.92434,2.7665 v 11.68632 h -5.22802 v -19.68215 h 5.22802 v 1.84542 c 0.61514,-0.61514 1.23028,-1.23028 2.15136,-1.53947 0.92108,-0.29293 1.84541,-0.61514 2.46055,-0.61514 2.15136,0 3.69051,0.61514 4.61321,1.84541 0.92108,0.92108 1.23028,1.84542 1.84542,2.7665 0,0.92108 0.29292,1.84541 0.29292,3.07569 v 12.30146 z"
       style="fill:#FFFFFF;fill-opacity:1;fill-rule:evenodd;stroke:none;stroke-width:8.61139393"
       inkscape:connector-curvature="0" />
  </g>
</svg>
