<?xml version="1.0" encoding="utf-8"?>
<!-- Generator: Adobe Illustrator 19.1.0, SVG Export Plug-In . SVG Version: 6.00 Build 0)  -->
<svg version="1.1" id="Calque_1" xmlns="http://www.w3.org/2000/svg" xmlns:xlink="http://www.w3.org/1999/xlink" x="0px" y="0px"
	 viewBox="-395 225.7 168 110.7" style="enable-background:new -395 225.7 168 110.7;" xml:space="preserve">
<style type="text/css">
	.st0{fill:#FFFFFF;}
	.st1{display:none;}
	.st2{display:inline;fill:#FFFFFF;}
</style>
<g id="Calque_2">
	<g>
		<path class="st0" d="M-310.6,336.1"/>
		<g>
			<path class="st0" d="M-272.5,275c-3.8,0-6.5,3-6.5,6.7s2.7,6.8,6.6,6.8c3.8,0,6.5-3,6.5-6.7C-265.9,278.1-268.6,275-272.5,275z"
				/>
			<path class="st0" d="M-311,225.7c-30.5,0-55.3,24.8-55.3,55.3c0,30.5,24.7,55.3,55.3,55.3c30.5,0,55.3-24.7,55.3-55.3
				C-255.7,250.5-280.5,225.7-311,225.7z M-349.6,292.9c-6.7,0-11.4-4.9-11.4-11.1c0-6.1,4.8-11.1,11.5-11.1
				c6.7,0,11.4,4.9,11.4,11.1C-338.1,287.8-342.9,292.9-349.6,292.9z M-317.3,283.2c0,6.6-3.7,9.7-9.5,9.7s-9.4-3.2-9.4-9.6v-10.1
				c0-1.3,1-2.4,2.4-2.4c1.3,0,2.4,1,2.4,2.4v10c0,3.5,1.8,5.3,4.7,5.3c2.9,0,4.7-1.8,4.7-5.2v-10.1c0-1.3,1-2.4,2.4-2.4
				c1.4,0,2.4,1,2.4,2.4v10H-317.3z M-309.4,290.4c0,1.3-1,2.4-2.4,2.4c-1.3,0-2.4-1-2.4-2.4v-17.2c0-1.3,1-2.4,2.4-2.4
				c1.3,0,2.4,1,2.4,2.4V290.4z M-311.8,268c-1.6,0-2.9-1.3-2.9-2.9s1.3-2.9,2.9-2.9s2.9,1.3,2.9,2.9S-310.1,268-311.8,268z
				 M-285.3,287.5c0,1.4-0.3,2-1.3,2.8c-2,1.6-4.8,2.7-8.2,2.7c-6.7,0-11.5-4.8-11.5-11.1c0-6.1,4.9-11.1,11.5-11.1
				c3.3,0,5.4,0.8,7.3,2.2c0.5,0.4,1,1,1,1.9c0,1.3-1,2.3-2.4,2.3c-0.6,0-1.1-0.3-1.4-0.5c-1.3-0.9-2.7-1.5-4.7-1.5
				c-3.4,0-6.3,3-6.3,6.7c0,3.9,2.9,6.8,6.7,6.8c2.2,0,3.8-0.4,4.8-1.4v-2.9h-3.4c-1.1,0-2-0.9-2-2s0.9-2,2-2h5.6
				c1.3,0,2.4,1,2.4,2.4v4.9H-285.3z M-272.5,292.9c-6.7,0-11.4-4.9-11.4-11.1c0-6.1,4.8-11.1,11.5-11.1c6.7,0,11.4,4.9,11.4,11.1
				C-261,287.8-265.8,292.9-272.5,292.9z"/>
			<path class="st0" d="M-349.6,275c-3.8,0-6.5,3-6.5,6.7s2.7,6.8,6.6,6.8c3.8,0,6.5-3,6.5-6.7C-343,278.1-345.8,275-349.6,275z"/>
		</g>
	</g>
</g>
<g id="Calque_1_1_" class="st1">
	<path id="path9752" class="st2" d="M-786.1,560.2c-0.2-0.2-0.5-0.5-0.7-0.8l-0.4-0.4v-40.7c0-38.4,0-40.8,0.3-41.3
		c0.6-1.2,0.7-1.2,5.3-1.4c11.4-0.4,24.6,0,38,1c37.4,2.8,70.8,10.3,96.7,21.7c8.3,3.7,20.7,10.5,22.1,12.1c0.8,1,1.1-0.2-6.7,24.4
		c-6.7,20.9-7.9,24.7-8.3,25.1c-0.2,0.3-0.6,0.4-1.3,0.5c-0.5,0.1-33.3,0.1-72.9,0.1C-781.6,560.5-785.8,560.5-786.1,560.2
		L-786.1,560.2z M-759.8,549.4c4.6-0.3,7.7-1.1,10.5-2.5c3.1-1.5,5.2-3.6,6.4-6.4c0.5-1.1,0.5-1.4,0.6-2.9c0-1.5,0-1.7-0.5-2.7
		c-0.7-1.4-2.4-3.2-4.4-4.5c-0.8-0.5-4.2-2.4-7.5-4c-4.8-2.4-6.2-3.2-6.9-3.9c-0.8-0.8-0.9-0.9-0.9-1.6c0-1.3,0.9-2.3,3-3.3
		c1.3-0.6,3-1,5.4-1.2c2-0.2,2.9-0.1,6.3,0.3c2,0.2,2.3,0.2,2.4,0c0.3-0.4,1.5-4.4,1.6-5c0-0.6-0.1-0.7-3.3-1.1
		c-3.2-0.4-9.3-0.3-12,0.2c-6.5,1.2-10.7,3.6-12.3,7c-1.5,3.2-1,5.8,1.7,8.5c1.6,1.6,2.9,2.4,7.3,4.7c7.4,3.9,8.6,4.6,9.6,6.2
		c0.5,0.9,0.6,1.3,0.2,2.2c-0.8,1.9-2.9,2.9-6.7,3.3c-5.5,0.5-10.1-0.3-17.9-3.3c-0.2-0.1-0.4,0.2-1,1.4c-1.1,2.3-2,4.5-1.8,4.6
		c0.2,0.2,3.5,1.4,5.5,2c2.8,0.8,6.2,1.4,9.5,1.8C-763.9,549.5-762.1,549.5-759.8,549.4L-759.8,549.4L-759.8,549.4z M-677.7,548.9
		c1.2-0.2,2.9-0.5,3.8-0.7c1.6-0.4,5.1-1.4,5.4-1.6c0.1-0.1,1.2-3.3,2.4-7.1s2.3-7.1,2.3-7.1c0.1-0.1,4-0.1,8.8-0.2l8.7-0.1l0.8-2.5
		c0.4-1.4,0.8-2.6,0.8-2.8c0-0.5-0.6-0.6-9.3-0.6c-4.3,0-7.8,0-7.8-0.1c0-0.1,2.7-8.6,2.8-8.7c0,0,4.7-0.1,10.5-0.2l10.4-0.1
		l0.8-2.6c0.4-1.4,0.8-2.8,0.8-3c0-0.4,0-0.4-1.4-0.5c-1.8-0.1-19.7-0.1-24.3,0l-3.6,0.1l-1.8,5.4c-1,2.9-2.7,8.4-3.9,12.1
		c-1.2,3.7-2.6,8.2-3.2,10.1l-1.1,3.4l-0.9,0.2c-3.8,0.8-9.7,0.6-13.1-0.2c-4.2-1.1-7-3.4-8.1-6.9c-0.6-1.9-0.6-5,0-7.1
		c1.4-4.4,5.4-8,10.5-9.6c3-0.9,3.8-1,9.6-1h5.4l1-3c0.5-1.7,0.9-3.1,0.8-3.2c-0.6-0.6-10.4-0.8-13.9-0.3
		c-6.4,0.9-11.6,3.3-15.8,7.1c-0.8,0.7-1.5,1.3-1.5,1.3s0.4-1.6,1-3.4c1.3-4.4,1.3-4.6,0.8-4.7s-5.8-0.1-6.7,0l-0.7,0.1l-0.7,2.1
		c-0.4,1.2-2.3,6.8-4.1,12.6c-1.9,5.8-3.4,10.5-3.4,10.5s-0.6-1.2-1.2-2.7c-2.2-5.2-4.7-10-7.8-14.7c-1.5-2.3-4.3-6.3-5.2-7.3
		l-0.7-0.9l-3.2-0.1c-1.8-0.1-3.6,0-4.2,0l-0.9,0.1l-1.6,5c-0.9,2.7-2.3,6.9-3,9.4c-0.8,2.4-1.4,4.5-1.4,4.6c0,0.1,0.6,0.8,1.3,1.6
		c1.6,1.6,2.3,2.5,3,4.1c0.4,0.9,0.6,1.1,0.9,1c0.3,0,0.7-0.9,3-8c1.4-4.4,2.7-8,2.7-8c0.1-0.1,0.6,0.7,1.3,1.7
		c4.5,6.9,8.3,14.8,11.1,23.1l1.1,3.2h4.5h4.5l2.1-6.4c1.1-3.5,2.1-6.6,2.2-6.8c0.1-0.3,0.2-0.2,0.6,1.1c1.6,5.2,5.3,8.8,11.2,11
		c1.5,0.6,4.5,1.3,6.1,1.5C-687,549.4-680.1,549.3-677.7,548.9L-677.7,548.9L-677.7,548.9z"/>
</g>
<g id="Calque_1_2_" class="st1">
	<path id="path9752_1_" class="st2" d="M-392.1,322.2c-0.2-0.2-0.5-0.5-0.7-0.8l-0.4-0.4v-40.7c0-38.4,0-40.8,0.3-41.3
		c0.6-1.2,0.7-1.2,5.3-1.4c11.4-0.4,24.6,0,38,1c37.4,2.8,70.8,10.3,96.7,21.7c8.3,3.7,20.7,10.5,22.1,12.1c0.8,1,1.1-0.2-6.7,24.4
		c-6.7,20.9-7.9,24.7-8.3,25.1c-0.2,0.3-0.6,0.4-1.3,0.5c-0.5,0.1-33.3,0.1-72.9,0.1C-387.6,322.5-391.8,322.5-392.1,322.2
		L-392.1,322.2z M-365.8,311.4c4.6-0.3,7.7-1.1,10.5-2.5c3.1-1.5,5.2-3.6,6.4-6.4c0.5-1.1,0.5-1.4,0.6-2.9c0-1.5,0-1.7-0.5-2.7
		c-0.7-1.4-2.4-3.2-4.4-4.5c-0.8-0.5-4.2-2.4-7.5-4c-4.8-2.4-6.2-3.2-6.9-3.9c-0.8-0.8-0.9-0.9-0.9-1.6c0-1.3,0.9-2.3,3-3.3
		c1.3-0.6,3-1,5.4-1.2c2-0.2,2.9-0.1,6.3,0.3c2,0.2,2.3,0.2,2.4,0c0.3-0.4,1.5-4.4,1.6-5c0-0.6-0.1-0.7-3.3-1.1
		c-3.2-0.4-9.3-0.3-12,0.2c-6.5,1.2-10.7,3.6-12.3,7c-1.5,3.2-1,5.8,1.7,8.5c1.6,1.6,2.9,2.4,7.3,4.7c7.4,3.9,8.6,4.6,9.6,6.2
		c0.5,0.9,0.6,1.3,0.2,2.2c-0.8,1.9-2.9,2.9-6.7,3.3c-5.5,0.5-10.1-0.3-17.9-3.3c-0.2-0.1-0.4,0.2-1,1.4c-1.1,2.3-2,4.5-1.8,4.6
		c0.2,0.2,3.5,1.4,5.5,2c2.8,0.8,6.2,1.4,9.5,1.8C-369.9,311.5-368.1,311.5-365.8,311.4L-365.8,311.4L-365.8,311.4z M-283.7,310.9
		c1.2-0.2,2.9-0.5,3.8-0.7c1.6-0.4,5.1-1.4,5.4-1.6c0.1-0.1,1.2-3.3,2.4-7.1c1.2-3.8,2.3-7.1,2.3-7.1c0.1-0.1,4-0.1,8.8-0.2l8.7-0.1
		l0.8-2.5c0.4-1.4,0.8-2.6,0.8-2.8c0-0.5-0.6-0.6-9.3-0.6c-4.3,0-7.8,0-7.8-0.1s2.7-8.6,2.8-8.7c0,0,4.7-0.1,10.5-0.2l10.4-0.1
		l0.8-2.6c0.4-1.4,0.8-2.8,0.8-3c0-0.4,0-0.4-1.4-0.5c-1.8-0.1-19.7-0.1-24.3,0l-3.6,0.1l-1.8,5.4c-1,2.9-2.7,8.4-3.9,12.1
		c-1.2,3.7-2.6,8.2-3.2,10.1l-1.1,3.4l-0.9,0.2c-3.8,0.8-9.7,0.6-13.1-0.2c-4.2-1.1-7-3.4-8.1-6.9c-0.6-1.9-0.6-5,0-7.1
		c1.4-4.4,5.4-8,10.5-9.6c3-0.9,3.8-1,9.6-1h5.4l1-3c0.5-1.7,0.9-3.1,0.8-3.2c-0.6-0.6-10.4-0.8-13.9-0.3
		c-6.4,0.9-11.6,3.3-15.8,7.1c-0.8,0.7-1.5,1.3-1.5,1.3s0.4-1.6,1-3.4c1.3-4.4,1.3-4.6,0.8-4.7s-5.8-0.1-6.7,0l-0.7,0.1l-0.7,2.1
		c-0.4,1.2-2.3,6.8-4.1,12.6c-1.9,5.8-3.4,10.5-3.4,10.5s-0.6-1.2-1.2-2.7c-2.2-5.2-4.7-10-7.8-14.7c-1.5-2.3-4.3-6.3-5.2-7.3
		l-0.7-0.9l-3.2-0.1c-1.8-0.1-3.6,0-4.2,0l-0.9,0.1l-1.6,5c-0.9,2.7-2.3,6.9-3,9.4c-0.8,2.4-1.4,4.5-1.4,4.6s0.6,0.8,1.3,1.6
		c1.6,1.6,2.3,2.5,3,4.1c0.4,0.9,0.6,1.1,0.9,1c0.3,0,0.7-0.9,3-8c1.4-4.4,2.7-8,2.7-8c0.1-0.1,0.6,0.7,1.3,1.7
		c4.5,6.9,8.3,14.8,11.1,23.1l1.1,3.2h4.5h4.5l2.1-6.4c1.1-3.5,2.1-6.6,2.2-6.8c0.1-0.3,0.2-0.2,0.6,1.1c1.6,5.2,5.3,8.8,11.2,11
		c1.5,0.6,4.5,1.3,6.1,1.5C-293,311.4-286.1,311.3-283.7,310.9L-283.7,310.9L-283.7,310.9z"/>
</g>
</svg>
