<?xml version="1.0" encoding="UTF-8" standalone="no"?>
<!-- Created with Inkscape (http://www.inkscape.org/) -->

<svg
   xmlns:dc="http://purl.org/dc/elements/1.1/"
   xmlns:cc="http://creativecommons.org/ns#"
   xmlns:rdf="http://www.w3.org/1999/02/22-rdf-syntax-ns#"
   xmlns:svg="http://www.w3.org/2000/svg"
   xmlns="http://www.w3.org/2000/svg"
   xmlns:sodipodi="http://sodipodi.sourceforge.net/DTD/sodipodi-0.dtd"
   xmlns:inkscape="http://www.inkscape.org/namespaces/inkscape"
   id="svg2"
   version="1.1"
   inkscape:version="0.91 r13725"
   xml:space="preserve"
   width="107.50793"
   height="62.262001"
   viewBox="0 0 107.50793 62.262"
   sodipodi:docname="TER Poitou-Charentes (avant 2014).svg"><metadata
     id="metadata8"><rdf:RDF><cc:Work
         rdf:about=""><dc:format>image/svg+xml</dc:format><dc:type
           rdf:resource="http://purl.org/dc/dcmitype/StillImage" /><dc:title></dc:title></cc:Work></rdf:RDF></metadata><defs
     id="defs6"><clipPath
       clipPathUnits="userSpaceOnUse"
       id="clipPath52"><path
         d="m 0,1846.998 1700.784,0 0,420.719 -1700.784,0 0,-420.719 z"
         id="path54"
         inkscape:connector-curvature="0" /></clipPath><clipPath
       clipPathUnits="userSpaceOnUse"
       id="clipPath400"><path
         d="m 1654.371,2093.13 -575.316,-39.738 0,-95.964 575.316,0 0,135.702 z"
         id="path402"
         inkscape:connector-curvature="0" /></clipPath><clipPath
       clipPathUnits="userSpaceOnUse"
       id="clipPath412"><path
         d="m 1654.371,2253.546 -575.316,0 0,-200.154 575.316,39.738 0,160.416 z"
         id="path414"
         inkscape:connector-curvature="0" /></clipPath><clipPath
       clipPathUnits="userSpaceOnUse"
       id="clipPath424"><path
         d="m 0,0 1700.784,0 0,2267.717 L 0,2267.717 0,0 Z"
         id="path426"
         inkscape:connector-curvature="0" /></clipPath><clipPath
       clipPathUnits="userSpaceOnUse"
       id="clipPath436"><path
         d="m 237.411,119.547 c -4.891,-0.002 -8.584,-0.139 -10.697,-0.277 l 0,0 0,-65.545 113.598,0 12.324,38.57 c -35.661,23.753 -90.131,27.231 -114.883,27.252 l 0,0 -0.342,0 z"
         id="path438"
         inkscape:connector-curvature="0" /></clipPath><clipPath
       clipPathUnits="userSpaceOnUse"
       id="clipPath448"><path
         d="m 226.71,53.721 125.928,0 0,65.826 -125.928,0 0,-65.826 z"
         id="path450"
         inkscape:connector-curvature="0" /></clipPath><clipPath
       clipPathUnits="userSpaceOnUse"
       id="clipPath480"><path
         d="m 48.001,48.213 146.629,0 0,134.937 -146.629,0 0,-134.937 z"
         id="path482"
         inkscape:connector-curvature="0" /></clipPath><clipPath
       clipPathUnits="userSpaceOnUse"
       id="clipPath494"><path
         d="m 47.997,48.213 147.213,0 0,134.937 -147.213,0 0,-134.937 z"
         id="path496"
         inkscape:connector-curvature="0" /></clipPath><clipPath
       clipPathUnits="userSpaceOnUse"
       id="clipPath506"><path
         d="m 48.001,48.213 146.629,0 0,134.937 -146.629,0 0,-134.937 z"
         id="path508"
         inkscape:connector-curvature="0" /></clipPath><clipPath
       clipPathUnits="userSpaceOnUse"
       id="clipPath518"><path
         d="m 47.997,48.213 147.213,0 0,134.937 -147.213,0 0,-134.937 z"
         id="path520"
         inkscape:connector-curvature="0" /></clipPath><clipPath
       clipPathUnits="userSpaceOnUse"
       id="clipPath676"><path
         d="m 48.001,48.213 146.629,0 0,134.937 -146.629,0 0,-134.937 z"
         id="path678"
         inkscape:connector-curvature="0" /></clipPath><clipPath
       clipPathUnits="userSpaceOnUse"
       id="clipPath692"><path
         d="m 47.997,48.213 147.213,0 0,134.937 -147.213,0 0,-134.937 z"
         id="path694"
         inkscape:connector-curvature="0" /></clipPath><clipPath
       clipPathUnits="userSpaceOnUse"
       id="clipPath852"><path
         d="m 77.247,78.525 1571.148,0 0,1812.186 -1571.148,0 0,-1812.186 z"
         id="path854"
         inkscape:connector-curvature="0" /></clipPath><clipPath
       clipPathUnits="userSpaceOnUse"
       id="clipPath1078"><path
         d="m 77.247,78.525 1571.145,0 0,1812.182 -1571.145,0 0,-1812.182 z"
         id="path1080"
         inkscape:connector-curvature="0" /></clipPath><clipPath
       clipPathUnits="userSpaceOnUse"
       id="clipPath1090"><path
         d="m 77.247,78.525 1571.148,0 0,1812.186 -1571.148,0 0,-1812.186 z"
         id="path1092"
         inkscape:connector-curvature="0" /></clipPath><clipPath
       clipPathUnits="userSpaceOnUse"
       id="clipPath1750"><path
         d="m 0,0 1700.784,0 0,2267.717 L 0,2267.717 0,0 Z"
         id="path1752"
         inkscape:connector-curvature="0" /></clipPath><clipPath
       clipPathUnits="userSpaceOnUse"
       id="clipPath1792"><path
         d="m 0,0 1700.784,0 0,2267.717 L 0,2267.717 0,0 Z"
         id="path1794"
         inkscape:connector-curvature="0" /></clipPath></defs><sodipodi:namedview
     pagecolor="#ffffff"
     bordercolor="#FFFFFF"
     borderopacity="1"
     objecttolerance="10"
     gridtolerance="10"
     guidetolerance="10"
     inkscape:pageopacity="0"
     inkscape:pageshadow="2"
     inkscape:window-width="1920"
     inkscape:window-height="1017"
     id="namedview4"
     showgrid="false"
     fit-margin-left="5"
     fit-margin-bottom="5"
     fit-margin-top="5"
     fit-margin-right="5"
     inkscape:zoom="5.3283476"
     inkscape:cx="41.887514"
     inkscape:cy="36.15082"
     inkscape:window-x="-8"
     inkscape:window-y="-8"
     inkscape:window-maximized="1"
     inkscape:current-layer="g10" /><g
     id="g10"
     inkscape:groupmode="layer"
     inkscape:label="SNCF 60x80 CarteRéseauSimplifié"
     transform="matrix(1.25,0,0,-1.25,-195.31278,2637.6615)"><g
       id="g5552"
       transform="matrix(0.25,0,0,0.25,149.44005,1563.9183)"><path
         d="m 355.2661,2012.2139 -5.905,0.337 0,97.878 -187.789,-17.041 -0.027,5.746 193.721,19.401 0,-106.321 z"
         style="fill:#FFFFFF;fill-opacity:1;fill-rule:nonzero;stroke:none"
         id="path178"
         inkscape:connector-curvature="0" /><path
         d="m 349.3611,2001.6718 -241.166,13.778 0,37.706 5.904,-0.982 0,-26.182 235.262,-13.44 0,-10.88 z"
         style="fill:#FFFFFF;fill-opacity:1;fill-rule:nonzero;stroke:none"
         id="path182"
         inkscape:connector-curvature="0" /><path
         d="m 349.3611,2012.5513 -235.262,13.441 0,26.181 47.707,-7.933 -0.234,49.147 187.789,17.041 0,-97.877 z"
         style="fill:#FFFFFF;fill-opacity:1;fill-rule:nonzero;stroke:none"
         id="path186"
         inkscape:connector-curvature="0" /><path
         d="m 101.3891,2043.1643 -26.789,3.899 0,8.486 26.789,-4.904 0,-7.481 z"
         style="fill:#FFFFFF;fill-opacity:1;fill-rule:nonzero;stroke:none"
         id="path190"
         inkscape:connector-curvature="0" /><path
         d="m 43.441,2001.6051 0.133,49.975 31.026,-4.517 0,-24.074 26.789,7.14 0,13.035 3.837,-0.558 -0.201,-17.248 -61.584,-23.753 z"
         style="fill:#FFFFFF;fill-opacity:1;fill-rule:nonzero;stroke:none"
         id="path194"
         inkscape:connector-curvature="0" /><path
         d="m 74.6002,2022.9895 0,24.074 26.789,-3.899 0,-13.036 -26.789,-7.139 z"
         style="fill:#FFFFFF;fill-opacity:1;fill-rule:nonzero;stroke:none"
         id="path198"
         inkscape:connector-curvature="0" /><path
         d="m 302.4889,2124.1064 -0.233,25.054 44.97,9.808 0.434,-29.157 -45.171,-5.705 z"
         style="fill:#FFFFFF;fill-opacity:1;fill-rule:nonzero;stroke:none"
         id="path202"
         inkscape:connector-curvature="0" /><path
         d="m 108.1947,2053.1555 -64.954,10.801 0,104.887 118.198,-47.439 0.106,-22.271 -47.445,-4.752 0,-5.302 -5.905,-0.536 0,-35.388 z"
         style="fill:#FFFFFF;fill-opacity:1;fill-rule:nonzero;stroke:none"
         id="path206"
         inkscape:connector-curvature="0" /><path
         d="m 114.0996,2089.0798 0,5.302 47.445,4.752 0.027,-5.746 -47.472,-4.308 z"
         style="fill:#FFFFFF;fill-opacity:1;fill-rule:nonzero;stroke:none"
         id="path210"
         inkscape:connector-curvature="0" /><path
         d="m 114.0996,2052.1736 -5.905,0.982 0,35.388 5.905,0.536 0,-36.906 z"
         style="fill:#FFFFFF;fill-opacity:1;fill-rule:nonzero;stroke:none"
         id="path214"
         inkscape:connector-curvature="0" /><path
         d="m 161.8057,2044.2405 -47.706,7.933 0,36.906 47.472,4.308 0.234,-49.147 z"
         style="fill:#FFFFFF;fill-opacity:1;fill-rule:nonzero;stroke:none"
         id="path218"
         inkscape:connector-curvature="0" /><path
         d="m 124.6028,2038.5027 c 0,-4.945 1.263,-9.017 3.765,-12.188 2.483,-3.211 5.654,-4.836 9.578,-4.836 2.552,0 4.731,0.745 6.45,2.125 1.76,1.447 2.889,3.305 3.41,5.647 0.109,-0.323 0.297,-0.999 0.565,-2.075 -0.565,-2.7 -1.792,-4.738 -3.735,-6.182 -1.861,-1.408 -4.297,-2.115 -7.241,-2.115 -5.024,0 -9.223,1.861 -12.669,5.582 -3.421,3.736 -5.133,8.37 -5.133,13.879 0,5.375 1.835,9.969 5.375,13.806 3.541,3.83 7.812,5.778 12.75,5.778 1.647,0 3.453,-0.399 5.408,-1.108 0.973,-0.445 1.955,-0.876 2.95,-1.318 0.471,0 0.818,0.323 1.1,1.007 l 0.63,0 c 0,-3.942 -0.173,-6.744 -0.488,-8.369 -2.306,4.771 -5.51,7.152 -9.492,7.152 -4.105,0 -7.352,-1.502 -9.701,-4.561 -2.346,-3.047 -3.522,-7.12 -3.522,-12.224"
         style="fill:#ffffff;fill-opacity:1;fill-rule:nonzero;stroke:none"
         id="path222"
         inkscape:connector-curvature="0" /><path
         d="m 124.6028,2038.5027 -0.621,0 c -0.003,-5.047 1.296,-9.276 3.898,-12.573 l -0.004,0.01 c 2.568,-3.339 5.971,-5.089 10.07,-5.078 2.672,0 5.005,0.788 6.839,2.262 l 0.006,0.01 c 1.863,1.528 3.078,3.531 3.622,5.992 l -0.607,0.135 -0.588,-0.199 c 0.096,-0.284 0.285,-0.96 0.55,-2.026 l 0.603,0.15 -0.608,0.127 c -0.546,-2.587 -1.684,-4.457 -3.498,-5.811 l -0.005,0 c -1.729,-1.308 -4.018,-1.987 -6.865,-1.988 -4.869,0.01 -8.862,1.775 -12.213,5.383 l 0.002,0 c -3.313,3.624 -4.965,8.077 -4.97,13.459 0.005,5.233 1.77,9.648 5.211,13.385 3.448,3.72 7.522,5.571 12.293,5.577 1.546,0 3.286,-0.376 5.196,-1.07 l 0.212,0.584 -0.259,-0.565 c 0.98,-0.448 1.963,-0.88 2.957,-1.321 l 0.252,-0.053 c 0.378,-0.01 0.766,0.15 1.041,0.41 0.279,0.259 0.471,0.589 0.634,0.981 l -0.575,0.237 0,-0.622 0.63,0 0,0.622 -0.621,0 c 0.001,-3.921 -0.176,-6.709 -0.477,-8.251 l 0.61,-0.118 0.559,0.27 c -2.343,4.893 -5.794,7.517 -10.051,7.504 -4.253,0.011 -7.741,-1.594 -10.194,-4.804 -2.45,-3.184 -3.652,-7.408 -3.65,-12.603 l 0.621,0 0.621,0 c 0.001,5.013 1.153,8.934 3.393,11.845 2.247,2.908 5.253,4.308 9.209,4.319 3.707,-0.013 6.663,-2.154 8.932,-6.802 l 0.64,-0.346 0.53,0.498 c 0.329,1.708 0.498,4.524 0.499,8.488 l -0.181,0.439 -0.44,0.182 -0.63,0 -0.574,-0.384 -0.325,-0.539 -0.201,-0.083 0,-0.622 0.252,0.568 c -0.997,0.443 -1.976,0.872 -2.944,1.315 l -0.046,0.019 c -2,0.725 -3.872,1.145 -5.62,1.145 -5.104,0.01 -9.574,-2.037 -13.206,-5.977 -3.639,-3.937 -5.545,-8.711 -5.54,-14.228 -0.005,-5.636 1.767,-10.451 5.296,-14.298 l 0.002,0 c 3.541,-3.835 7.947,-5.789 13.125,-5.781 3.04,0 5.623,0.732 7.615,2.24 l -0.004,0 c 2.074,1.535 3.39,3.741 3.973,6.554 l -0.005,0.277 c -0.271,1.085 -0.458,1.763 -0.579,2.123 l -0.621,0.422 -0.574,-0.486 c -0.499,-2.224 -1.543,-3.934 -3.198,-5.302 l 0.394,-0.479 -0.389,0.484 c -1.604,-1.285 -3.629,-1.986 -6.061,-1.988 -3.749,0.011 -6.688,1.512 -9.087,4.595 l -0.004,0 c -2.4,3.045 -3.629,6.961 -3.631,11.803 l -0.621,0 z"
         style="fill:#ffffff;fill-opacity:1;fill-rule:nonzero;stroke:none"
         id="path226"
         inkscape:connector-curvature="0" /><path
         d="m 175.3103,2022.1155 c 0,-0.786 0.384,-1.187 1.184,-1.187 l 0.709,0 0,-0.934 c -2.617,-0.127 -4.662,-0.344 -6.06,-0.551 l 0,18.455 c 0,4.285 -1.9,6.429 -5.683,6.429 -2.027,0 -3.739,-0.8 -5.144,-2.48 -1.426,-1.64 -2.128,-3.62 -2.128,-5.958 l 0,-13.774 c 0,-0.786 0.427,-1.187 1.307,-1.187 l 0.821,0 -0.079,-0.934 c -0.431,-0.062 -1.441,-0.127 -3.03,-0.261 -1.325,-0.138 -2.371,-0.217 -3.113,-0.217 -0.159,0 -0.786,0 -1.98,-0.073 l 0,0.92 0.72,0 c 0.786,0 1.18,0.398 1.18,1.194 l 0,33.94 c 0,0.717 -0.3,1.076 -0.912,1.076 -0.659,0.307 -0.988,0.597 -0.988,0.941 1.343,0.145 3.384,0.409 6.074,0.724 l 0,-16.5 c 1.846,3.414 4.6,5.094 8.242,5.094 2.813,0 5.025,-0.862 6.541,-2.581 1.571,-1.727 2.339,-4.17 2.339,-7.342 l 0,-14.794 z"
         style="fill:#ffffff;fill-opacity:1;fill-rule:nonzero;stroke:none"
         id="path230"
         inkscape:connector-curvature="0" /><path
         d="m 175.3103,2022.1155 -0.621,0 c -0.002,-0.486 0.121,-0.969 0.471,-1.324 0.349,-0.355 0.838,-0.487 1.334,-0.485 l 0.088,0 0,-0.312 0.621,0 -0.03,0.62 c -2.636,-0.127 -4.699,-0.346 -6.12,-0.556 l 0.09,-0.615 0.621,0 0,18.455 c 0,2.228 -0.49,3.999 -1.578,5.233 -1.09,1.236 -2.726,1.823 -4.726,1.817 -2.193,0.01 -4.127,-0.901 -5.62,-2.702 l 0.476,-0.399 -0.468,0.408 c -1.528,-1.75 -2.286,-3.905 -2.282,-6.366 l 0,-13.774 c -0.004,-0.497 0.146,-1.002 0.526,-1.346 0.377,-0.344 0.875,-0.463 1.403,-0.463 l 0.145,0 -0.022,-0.259 0.619,-0.053 -0.088,0.615 c -0.374,-0.055 -1.406,-0.124 -2.994,-0.257 l -0.012,-10e-4 c -1.315,-0.137 -2.35,-0.214 -3.049,-0.214 -0.167,0 -0.812,0 -2.018,-0.073 l 0.038,-0.621 0.621,0 0,0.298 0.099,0 c 0.49,0 0.976,0.13 1.326,0.484 0.35,0.354 0.477,0.839 0.475,1.332 l 0,33.94 c -0.001,0.44 -0.087,0.864 -0.374,1.208 -0.288,0.348 -0.741,0.496 -1.159,0.489 l 0,-0.621 0.263,0.563 -0.58,0.348 -0.057,0.064 -0.067,-0.034 0.074,0 -0.007,0.034 -0.067,-0.034 0.074,0 -0.621,0 0.066,-0.618 c 1.355,0.146 3.394,0.41 6.08,0.725 l -0.072,0.617 -0.622,0 0,-16.5 0.469,-0.602 0.699,0.307 c 1.784,3.252 4.252,4.746 7.696,4.767 2.693,-0.01 4.692,-0.808 6.075,-2.37 l 0.007,-0.01 c 1.436,-1.58 2.175,-3.846 2.177,-6.924 l 0,-14.794 0.621,0 0.621,0 0,14.794 c 0.002,3.265 -0.794,5.886 -2.5,7.76 l -0.46,-0.418 0.466,0.41 c -1.65,1.877 -4.074,2.798 -7.007,2.792 -3.839,0.021 -6.88,-1.844 -8.789,-5.419 l 0.547,-0.296 0.621,0 0,16.5 -0.208,0.464 -0.486,0.153 c -2.692,-0.315 -4.737,-0.58 -6.068,-0.724 l -0.555,-0.617 c -0.003,-0.383 0.203,-0.72 0.445,-0.938 0.245,-0.227 0.541,-0.396 0.902,-0.566 l 0.263,-0.059 0.211,-0.048 0.08,-0.406 0,-33.94 -0.116,-0.459 -0.443,-0.114 -0.72,0 -0.44,-0.182 -0.182,-0.439 0,-0.92 0.196,-0.452 0.463,-0.168 c 1.183,0.072 1.79,0.072 1.943,0.072 0.785,0 1.842,0.082 3.177,0.22 l -0.064,0.618 0.052,-0.619 c 1.59,0.135 2.577,0.196 3.066,0.265 l 0.531,0.562 0.079,0.934 -0.161,0.473 -0.458,0.201 -0.821,0 c -0.353,0 -0.508,0.082 -0.564,0.136 l -0.122,0.43 0,13.774 c 0.005,2.216 0.651,4.02 1.976,5.55 l 0.008,0.01 c 1.316,1.558 2.806,2.247 4.667,2.257 1.783,-0.01 2.988,-0.49 3.795,-1.397 0.808,-0.91 1.267,-2.352 1.267,-4.41 l 0,-18.455 0.215,-0.47 0.497,-0.144 c 1.373,0.203 3.401,0.418 5.999,0.544 l 0.591,0.621 0,0.934 -0.182,0.439 -0.439,0.182 -0.709,0 -0.45,0.114 -0.113,0.452 -0.621,0 z"
         style="fill:#ffffff;fill-opacity:1;fill-rule:nonzero;stroke:none"
         id="path234"
         inkscape:connector-curvature="0" /><path
         d="m 195.9871,2029.0293 0,2.353 c -0.228,1.118 -0.699,1.933 -1.477,2.498 -0.793,0.55 -1.56,0.807 -2.291,0.738 l -0.619,-0.072 c -2.183,-0.196 -4.037,-0.988 -5.503,-2.44 -1.448,-1.423 -2.136,-3.091 -2.136,-5.006 0,-1.542 0.471,-2.827 1.467,-3.848 1.02,-1.021 2.393,-1.517 4.097,-1.517 1.854,0 3.367,0.691 4.583,2.1 1.274,1.433 1.879,3.178 1.879,5.194 m 0.25,-5.361 c -1.43,-3.131 -4.051,-4.688 -7.733,-4.688 -2.794,0 -4.977,0.753 -6.609,2.27 -1.647,1.517 -2.462,3.453 -2.462,5.817 0,2.324 0.977,4.402 2.918,6.139 1.969,1.774 4.387,2.904 7.2,3.374 0.499,0.069 1.104,0.069 1.875,0.047 l 1.107,-0.047 c 0.996,-0.047 2.144,-0.282 3.454,-0.767 l 0,4.38 c 0,1.346 -0.529,2.4 -1.651,3.106 -1.104,0.716 -2.512,1.086 -4.166,1.086 -1.195,0 -2.534,-0.214 -3.979,-0.644 -1.154,-0.41 -2.059,-0.786 -2.606,-1.148 0.793,-0.221 1.184,-0.706 1.184,-1.484 0,-0.5 -0.221,-0.728 -0.699,-0.728 -0.101,0 -0.337,0.04 -0.72,0.109 -0.905,0.297 -1.39,0.832 -1.39,1.6 0,1.086 0.782,2.15 2.36,3.174 1.777,1.09 3.833,1.615 6.281,1.615 6.407,0 9.563,-2.559 9.563,-7.747 l 0,-16.648 c 0,-1.021 0.282,-1.517 0.807,-1.517 0.746,0 1.115,0.634 1.115,1.915 l 0.739,0 c 0,-0.966 -0.427,-1.835 -1.314,-2.533 -0.916,-0.724 -1.937,-1.101 -3.113,-1.101 -1.187,0 -1.901,1.492 -2.161,4.42"
         style="fill:#ffffff;fill-opacity:1;fill-rule:nonzero;stroke:none"
         id="path238"
         inkscape:connector-curvature="0" /><path
         d="m 195.9871,2029.0293 0.621,0 0,2.353 -0.012,0.124 c -0.243,1.221 -0.801,2.215 -1.721,2.877 l -0.011,0.01 c -0.777,0.54 -1.585,0.86 -2.411,0.86 l -0.294,-0.013 -0.013,0 -0.619,-0.072 0.073,-0.617 -0.056,0.618 c -2.298,-0.202 -4.312,-1.056 -5.884,-2.616 l 0.002,10e-4 c -1.556,-1.519 -2.329,-3.385 -2.322,-5.449 -0.005,-1.665 0.527,-3.145 1.643,-4.282 l 0.005,-0.01 c 1.149,-1.153 2.717,-1.704 4.537,-1.698 2.009,-0.01 3.743,0.783 5.053,2.314 l -0.47,0.407 0.464,-0.413 c 1.381,1.547 2.041,3.469 2.036,5.607 l -0.621,0 -0.621,0 c -0.005,-1.894 -0.554,-3.462 -1.722,-4.782 l -0.006,-0.01 c -1.122,-1.285 -2.415,-1.875 -4.113,-1.885 -1.589,0.01 -2.765,0.448 -3.658,1.335 l -0.439,-0.439 0.445,0.433 c -0.875,0.905 -1.284,1.996 -1.29,3.415 0.007,1.765 0.61,3.237 1.95,4.563 l 0.001,10e-4 c 1.361,1.344 3.054,2.074 5.121,2.263 l 0.017,0 0.619,0.072 -0.072,0.617 0.059,-0.618 0.175,0.01 c 0.494,10e-4 1.063,-0.195 1.703,-0.639 l 0.354,0.511 -0.365,-0.503 c 0.637,-0.468 1.02,-1.102 1.233,-2.119 l 0.609,0.124 -0.621,0 0,-2.353 0.621,0 z m 0.25,-5.361 -0.565,0.258 c -1.36,-2.92 -3.657,-4.298 -7.168,-4.324 -2.688,0 -4.684,0.712 -6.187,2.103 l -0.001,0 c -1.522,1.411 -2.254,3.137 -2.261,5.36 0.005,2.145 0.879,4.027 2.71,5.676 1.88,1.692 4.177,2.77 6.888,3.224 l -0.102,0.613 0.084,-0.615 c 0.277,0.038 0.614,0.054 1.021,0.054 l 0.752,-0.013 0.018,0.621 -0.027,-0.62 1.108,-0.047 -0.003,0 c 0.92,-0.044 2.006,-0.263 3.267,-0.73 l 0.571,0.073 0.266,0.51 0,4.38 c 0.017,1.506 -0.643,2.833 -1.941,3.632 l -0.331,-0.526 0.338,0.521 c -1.226,0.796 -2.759,1.186 -4.504,1.186 -1.269,0 -2.665,-0.226 -4.156,-0.67 l -0.03,-0.01 c -1.174,-0.418 -2.101,-0.794 -2.742,-1.215 l -0.271,-0.615 0.447,-0.502 0.571,-0.322 0.159,-0.563 -0.015,-0.142 0.03,-0.01 -0.023,0.018 -0.007,-0.01 0.03,-0.01 -0.023,0.018 0.088,-0.065 -0.042,0.104 -0.046,-0.039 0.088,-0.065 -0.042,0.104 -0.116,-0.012 -0.031,0 -0.579,0.095 -0.11,-0.611 0.193,0.59 c -0.768,0.287 -0.94,0.542 -0.962,1.01 -0.011,0.756 0.568,1.673 2.077,2.653 l -0.338,0.521 0.325,-0.529 c 1.669,1.022 3.595,1.521 5.956,1.522 3.126,0 5.37,-0.631 6.793,-1.789 1.418,-1.157 2.141,-2.859 2.149,-5.336 l 0,-16.648 c 0.003,-0.567 0.068,-1.032 0.282,-1.437 0.198,-0.41 0.68,-0.72 1.146,-0.701 0.55,-0.019 1.113,0.299 1.375,0.786 0.272,0.479 0.358,1.051 0.362,1.75 l -0.622,0 0,-0.621 0.739,0 0,0.621 -0.621,0 c -0.008,-0.778 -0.315,-1.433 -1.078,-2.045 -0.825,-0.648 -1.685,-0.964 -2.728,-0.967 -0.3,0.01 -0.542,0.13 -0.869,0.762 -0.306,0.619 -0.549,1.668 -0.674,3.091 l -0.513,0.557 -0.67,-0.354 0.565,-0.258 -0.619,-0.055 c 0.136,-1.506 0.379,-2.667 0.793,-3.525 0.391,-0.846 1.099,-1.471 1.987,-1.461 1.31,0 2.491,0.433 3.498,1.234 1.01,0.785 1.558,1.867 1.55,3.021 l -0.182,0.44 -0.439,0.182 -0.739,0 -0.439,-0.182 -0.182,-0.44 c 0.004,-0.582 -0.095,-0.967 -0.193,-1.125 l -0.301,-0.168 -0.019,0 -0.08,0.16 c -0.048,0.146 -0.087,0.396 -0.087,0.736 l 0,16.648 c 0.009,2.711 -0.847,4.882 -2.609,6.301 -1.757,1.419 -4.295,2.065 -7.575,2.067 -2.534,0 -4.721,-0.549 -6.606,-1.706 l -0.013,-0.01 c -1.647,-1.068 -2.633,-2.28 -2.643,-3.695 -0.022,-1.068 0.776,-1.884 1.817,-2.19 l 0.084,-0.022 c 0.399,-0.068 0.6,-0.112 0.83,-0.118 l 0.976,0.367 0.344,0.982 c 0.003,0.489 -0.13,0.966 -0.43,1.339 -0.299,0.373 -0.727,0.61 -1.208,0.743 l -0.167,-0.598 0.343,-0.518 c 0.452,0.303 1.335,0.68 2.471,1.08 l -0.208,0.586 0.178,-0.596 c 1.397,0.417 2.68,0.619 3.801,0.618 1.563,0 2.846,-0.348 3.828,-0.985 l 0.007,0 c 0.947,-0.614 1.344,-1.393 1.361,-2.58 l 0,-4.38 0.621,0 0.216,0.582 c -1.36,0.504 -2.57,0.755 -3.64,0.806 l -0.003,0 -1.108,0.047 -0.008,0 -0.788,0.013 c -0.438,0 -0.827,-0.016 -1.19,-0.065 l -0.018,0 c -2.914,-0.486 -5.454,-1.668 -7.513,-3.525 -2.048,-1.824 -3.129,-4.098 -3.123,-6.601 -0.008,-2.505 0.889,-4.651 2.662,-6.274 l -0.002,0 c 1.762,-1.642 4.132,-2.44 7.032,-2.436 3.853,-0.026 6.798,1.709 8.298,5.051 l -0.565,0.258 -0.619,-0.055 0.619,0.055 z"
         style="fill:#ffffff;fill-opacity:1;fill-rule:nonzero;stroke:none"
         id="path242"
         inkscape:connector-curvature="0" /><path
         d="m 211.1978,2022.1117 c 0,-0.681 0.293,-1.028 0.934,-1.158 0.072,-0.026 0.612,-0.033 1.683,-0.033 l 0,-0.927 c -0.977,-0.061 -2.465,-0.127 -4.452,-0.26 -1.94,-0.148 -3.432,-0.272 -4.388,-0.29 l 0,0.92 c 0.808,0 1.249,0 1.438,0.025 0.405,0.177 0.604,0.539 0.604,1.104 l 0,22.451 c 0,0.724 -0.307,1.093 -0.981,1.093 -0.615,0.358 -0.966,0.68 -0.966,0.963 2.417,0.159 4.408,0.354 5.933,0.619 l 0,-7.063 c 1.498,4.866 4.278,7.276 8.416,7.276 1.755,0 2.635,-0.619 2.635,-1.882 0,-0.623 -0.304,-1.14 -0.927,-1.651 -0.601,-0.492 -1.144,-0.706 -1.77,-0.706 -0.528,0 -0.785,0.174 -0.785,0.583 0,0.445 0.181,0.807 0.626,1.115 l -0.369,0.036 -0.416,0 c -2.513,0 -4.435,-1.795 -5.724,-5.354 -1.009,-2.649 -1.491,-5.491 -1.491,-8.521 l 0,-8.34 z"
         style="fill:#ffffff;fill-opacity:1;fill-rule:nonzero;stroke:none"
         id="path246"
         inkscape:connector-curvature="0" /><path
         d="m 211.1978,2022.1117 -0.223,0 c -0.026,-0.746 0.402,-1.258 1.113,-1.377 l 0.044,0.219 -0.074,-0.21 0.537,-0.039 c 0.281,-0.01 0.684,-0.01 1.22,-0.01 l 0,0.223 -0.222,0 0,-0.927 0.222,0 -0.014,0.223 c -0.973,-0.062 -2.464,-0.127 -4.453,-0.261 l -0.002,0 c -1.94,-0.149 -3.433,-0.271 -4.375,-0.289 l 0.004,-0.223 0.223,0 0,0.92 -0.223,0 0,-0.223 c 0.811,10e-4 1.242,0 1.467,0.027 l 0.06,0.017 c 0.495,0.208 0.748,0.698 0.738,1.308 l 0,22.451 c 0,0.391 -0.082,0.723 -0.294,0.965 -0.213,0.243 -0.536,0.353 -0.91,0.351 l 0,-0.223 0.112,0.192 c -0.609,0.338 -0.887,0.68 -0.856,0.771 l -0.222,0 0.014,-0.222 c 2.422,0.159 4.419,0.355 5.956,0.622 l -0.037,0.219 -0.223,0 0,-7.063 0.189,-0.22 0.246,0.155 c 1.499,4.813 4.165,7.107 8.204,7.119 1.724,-0.031 2.394,-0.536 2.412,-1.66 -0.003,-0.543 -0.25,-0.986 -0.845,-1.479 -0.578,-0.469 -1.056,-0.652 -1.629,-0.655 -0.5,0.037 -0.537,0.079 -0.563,0.36 0.007,0.383 0.132,0.648 0.531,0.932 l 0.089,0.239 -0.194,0.166 -0.369,0.036 -0.022,0 -0.416,0 c -2.638,0 -4.64,-1.907 -5.933,-5.501 l 0.209,-0.076 -0.208,0.08 c -1.02,-2.678 -1.506,-5.547 -1.506,-8.601 l 0,-8.34 0.223,0 0.223,0 0,8.34 c 0,3.007 0.477,5.82 1.477,8.442 l 0.001,0 c 1.284,3.523 3.126,5.205 5.514,5.207 l 0.405,0 0.358,-0.035 0.022,0.221 -0.126,0.183 c -0.493,-0.331 -0.73,-0.79 -0.723,-1.298 l 0.287,-0.625 0.721,-0.18 c 0.679,0 1.288,0.242 1.912,0.756 0.65,0.528 1.011,1.122 1.008,1.823 0.004,0.681 -0.251,1.244 -0.753,1.596 -0.499,0.354 -1.203,0.508 -2.105,0.509 -4.237,0.012 -7.13,-2.516 -8.629,-7.433 l 0.213,-0.066 0.222,0 0,7.063 -0.079,0.17 -0.182,0.049 c -1.51,-0.262 -3.495,-0.457 -5.909,-0.616 l -0.208,-0.222 c 0.031,-0.475 0.456,-0.777 1.077,-1.155 l 0.112,-0.031 c 0.575,-0.032 0.722,-0.204 0.758,-0.87 l 0,-22.451 c -0.01,-0.519 -0.155,-0.754 -0.471,-0.9 l 0.09,-0.204 -0.03,0.221 c -0.152,-0.022 -0.604,-0.024 -1.408,-0.024 l -0.157,-0.065 -0.065,-0.157 0,-0.92 0.066,-0.159 0.161,-0.064 c 0.969,0.019 2.459,0.142 4.4,0.291 l -0.002,0 c 1.985,0.133 3.47,0.198 4.451,0.26 l 0.209,0.222 0,0.927 -0.066,0.158 -0.157,0.065 c -0.535,0 -0.937,0 -1.212,0.01 l -0.316,0.01 -0.082,0.01 0,0 0,10e-4 0,0 0,0 0,10e-4 -0.029,0.01 c -0.57,0.142 -0.729,0.325 -0.755,0.94 l -0.223,0 z"
         style="fill:#ffffff;fill-opacity:1;fill-rule:nonzero;stroke:none"
         id="path250"
         inkscape:connector-curvature="0" /><path
         d="m 226.5534,2032.6565 c 3.218,1.224 8.101,3.106 14.577,5.618 -0.658,4.044 -2.632,6.053 -6.005,6.053 -2.769,0 -4.844,-0.97 -6.357,-2.911 -1.469,-1.907 -2.215,-4.576 -2.215,-7.982 l 0,-0.778 z m 19.334,-8.786 c -2.592,-3.257 -6.139,-4.89 -10.722,-4.89 -3.642,0 -6.759,1.368 -9.286,4.043 -2.522,2.679 -3.768,5.991 -3.768,9.897 0,3.942 1.209,7.273 3.718,9.926 2.512,2.654 5.622,3.986 9.336,3.986 3.051,0 5.589,-0.956 7.714,-2.889 1.987,-1.821 3.171,-4.127 3.54,-6.932 l -19.638,-6.719 c 0.456,-2.258 1.209,-4.097 2.346,-5.542 1.737,-2.157 4.036,-3.272 6.791,-3.272 3.486,0 6.584,1.571 9.292,4.731 0.127,-0.257 0.246,-0.652 0.33,-1.184 0.119,-0.51 0.213,-0.926 0.347,-1.155"
         style="fill:#ffffff;fill-opacity:1;fill-rule:nonzero;stroke:none"
         id="path254"
         inkscape:connector-curvature="0" /><path
         d="m 226.5534,2032.6565 0.221,-0.581 c 3.22,1.225 8.104,3.107 14.581,5.62 l 0.388,0.679 c -0.342,2.099 -1.033,3.743 -2.156,4.88 -1.121,1.139 -2.656,1.7 -4.462,1.694 -2.911,0.013 -5.232,-1.06 -6.846,-3.15 l -0.003,0 c -1.581,-2.054 -2.344,-4.868 -2.344,-8.361 l 0,-0.778 0.268,-0.511 0.574,-0.07 -0.221,0.581 0.621,0 0,0.778 c 0,3.32 0.728,5.842 2.086,7.603 l -0.002,0 c 1.411,1.791 3.239,2.659 5.867,2.671 1.568,-0.01 2.706,-0.449 3.579,-1.326 0.872,-0.878 1.497,-2.26 1.813,-4.205 l 0.613,0.1 -0.224,0.579 c -6.476,-2.512 -11.358,-4.394 -14.574,-5.616 l 0.221,-0.581 0.621,0 -0.621,0 z m 19.334,-8.786 -0.487,0.387 c -2.487,-3.11 -5.797,-4.644 -10.235,-4.656 -3.485,0.01 -6.405,1.287 -8.834,3.849 -2.412,2.568 -3.593,5.695 -3.599,9.47 0.006,3.818 1.155,6.961 3.549,9.499 2.411,2.537 5.318,3.784 8.884,3.791 2.923,-0.01 5.275,-0.896 7.296,-2.727 1.88,-1.728 2.985,-3.874 3.342,-6.553 l 0.616,0.081 -0.201,0.588 -19.638,-6.719 -0.408,-0.711 c 0.469,-2.323 1.252,-4.26 2.466,-5.803 l 0.005,-0.01 c 1.833,-2.29 4.351,-3.512 7.275,-3.503 3.68,-0.01 6.98,1.686 9.764,4.948 l -0.472,0.404 -0.558,-0.275 c 0.086,-0.171 0.198,-0.517 0.274,-1.005 l 0.008,-0.045 c 0.127,-0.515 0.198,-0.933 0.417,-1.328 l 0.536,0.314 -0.487,0.387 0.487,-0.387 0.535,0.315 c -0.048,0.062 -0.166,0.476 -0.278,0.982 l -0.604,-0.142 0.613,0.096 c -0.091,0.577 -0.218,1.02 -0.386,1.363 l -0.48,0.342 -0.549,-0.213 c -2.631,-3.058 -5.529,-4.507 -8.82,-4.514 -2.586,0.01 -4.666,1.016 -6.307,3.041 l -0.484,-0.39 0.488,0.385 c -1.06,1.345 -1.782,3.086 -2.225,5.28 l -0.609,-0.123 0.201,-0.587 19.638,6.718 0.415,0.669 c -0.382,2.932 -1.644,5.397 -3.737,7.309 -2.23,2.037 -4.953,3.057 -8.133,3.052 -3.863,0.01 -7.175,-1.41 -9.787,-4.18 -2.625,-2.769 -3.893,-6.286 -3.888,-10.353 -0.005,-4.036 1.304,-7.534 3.937,-10.322 2.625,-2.789 5.939,-4.245 9.738,-4.239 4.727,-0.011 8.512,1.719 11.208,5.125 l 0.049,0.701 -0.535,-0.315 z"
         style="fill:#ffffff;fill-opacity:1;fill-rule:nonzero;stroke:none"
         id="path258"
         inkscape:connector-curvature="0" /><path
         d="m 272.0663,2022.1117 c 0,-0.814 0.416,-1.191 1.195,-1.191 l 0.72,0 0.054,-0.927 c -2.675,-0.127 -4.716,-0.354 -6.139,-0.55 l 0,18.426 c 0,4.285 -1.897,6.45 -5.644,6.45 -2.03,0 -3.775,-0.833 -5.187,-2.494 -1.411,-1.633 -2.135,-3.645 -2.135,-5.966 l 0,-13.748 c 0,-0.814 0.437,-1.191 1.328,-1.191 l 0.807,0 0,-0.927 c -0.912,-0.061 -2.255,-0.127 -4.072,-0.26 -1.847,-0.148 -3.204,-0.272 -4.098,-0.29 l 0,0.92 0.699,0 c 0.767,0 1.198,0.398 1.198,1.147 l 0,22.433 c 0,0.724 -0.311,1.093 -0.934,1.093 -0.637,0.311 -0.963,0.652 -0.963,0.963 0.326,0.054 0.807,0.134 1.466,0.188 0.645,0.065 1.108,0.105 1.397,0.105 0.974,0.061 1.934,0.163 2.961,0.326 l 0,-4.88 c 2.212,3.414 5.032,5.093 8.453,5.093 2.827,0 5.032,-0.861 6.57,-2.58 1.564,-1.728 2.324,-4.171 2.324,-7.342 l 0,-14.798 z"
         style="fill:#ffffff;fill-opacity:1;fill-rule:nonzero;stroke:none"
         id="path262"
         inkscape:connector-curvature="0" /><path
         d="m 272.0663,2022.1117 -0.621,0 c -0.003,-0.505 0.135,-0.998 0.493,-1.346 0.359,-0.348 0.841,-0.468 1.323,-0.466 l 0.134,0 0.02,-0.342 0.62,0.036 -0.029,0.621 c -2.695,-0.128 -4.757,-0.358 -6.195,-0.555 l 0.085,-0.616 0.621,0 0,18.426 c 0,2.228 -0.49,4.002 -1.57,5.241 -1.082,1.242 -2.71,1.836 -4.695,1.83 -2.203,0.01 -4.159,-0.932 -5.66,-2.713 l 0.003,0 c -1.512,-1.743 -2.29,-3.923 -2.287,-6.372 l 0,-13.748 c -0.005,-0.508 0.149,-1.023 0.539,-1.366 0.388,-0.339 0.886,-0.445 1.411,-0.446 l 0.186,0 0,-0.306 0.621,0 -0.042,0.621 c -0.901,-0.062 -2.252,-0.127 -4.076,-0.261 l -0.004,-10e-4 c -1.847,-0.149 -3.208,-0.271 -4.061,-0.288 l 0.013,-0.621 0.621,0 0,0.298 0.078,0 c 0.485,-10e-4 0.961,0.129 1.314,0.464 0.355,0.334 0.509,0.818 0.505,1.305 l 0,22.433 c -0.001,0.445 -0.091,0.875 -0.381,1.22 -0.292,0.35 -0.748,0.501 -1.174,0.494 l 0,-0.621 0.273,0.558 -0.552,0.36 -0.068,0.086 -0.082,-0.041 0.087,0 -0.005,0.041 -0.082,-0.041 0.087,0 -0.621,0 0.102,-0.613 c 0.324,0.054 0.78,0.129 1.415,0.182 l 0.012,0 c 0.637,0.065 1.098,0.103 1.334,0.102 l 0.04,10e-4 c 0.991,0.063 1.971,0.166 3.019,0.332 l -0.098,0.614 -0.621,0 0,-4.88 0.445,-0.596 0.698,0.258 c 2.148,3.288 4.726,4.797 7.931,4.81 2.707,-0.01 4.699,-0.807 6.107,-2.374 l 0.003,0 c 1.429,-1.578 2.161,-3.845 2.163,-6.924 l 0,-14.798 0.621,0 0.621,0 0,14.798 c 0.002,3.264 -0.786,5.884 -2.484,7.759 l 0.002,0 c -1.669,1.871 -4.086,2.794 -7.033,2.788 -3.636,0.013 -6.699,-1.838 -8.974,-5.377 l 0.521,-0.338 0.622,0 0,4.88 -0.218,0.472 -0.501,0.141 c -1.008,-0.159 -1.946,-0.259 -2.903,-0.319 l 0.039,-0.62 0,0.621 c -0.342,-10e-4 -0.808,-0.043 -1.459,-0.108 l 0.062,-0.618 -0.051,0.619 c -0.683,-0.056 -1.189,-0.14 -1.517,-0.194 l -0.519,-0.613 c 0.002,-0.383 0.194,-0.688 0.422,-0.919 0.233,-0.234 0.528,-0.425 0.889,-0.602 l 0.273,-0.063 0.227,-0.057 0.085,-0.415 0,-22.433 -0.117,-0.404 -0.459,-0.122 -0.699,0 -0.439,-0.182 -0.182,-0.439 0,-0.92 0.186,-0.443 0.448,-0.178 c 0.935,0.02 2.29,0.143 4.134,0.291 l -0.004,0 c 1.811,0.134 3.146,0.198 4.069,0.261 l 0.579,0.619 0,0.927 -0.182,0.439 -0.439,0.182 -0.807,0 c -0.365,0 -0.532,0.082 -0.586,0.134 l -0.121,0.436 0,13.748 c 0.003,2.193 0.672,4.038 1.984,5.559 l 0.004,0.01 c 1.322,1.543 2.856,2.267 4.713,2.275 1.763,-0.01 2.956,-0.494 3.76,-1.406 0.804,-0.915 1.263,-2.366 1.263,-4.423 l 0,-18.426 0.212,-0.468 0.493,-0.147 c 1.408,0.193 3.43,0.419 6.085,0.545 l 0.432,0.205 0.159,0.452 -0.055,0.926 -0.62,0.585 -0.72,0 -0.456,0.114 -0.118,0.456 -0.621,0 z"
         style="fill:#ffffff;fill-opacity:1;fill-rule:nonzero;stroke:none"
         id="path266"
         inkscape:connector-curvature="0" /><path
         d="m 283.2192,2025.873 c 0,-1.6 0.315,-2.701 0.919,-3.359 0.638,-0.627 1.687,-0.956 3.244,-0.956 1.198,0 2.226,1.223 3.077,3.67 l 0.8,-1.491 c -0.344,-0.793 -0.724,-1.506 -1.155,-2.132 -1.035,-1.47 -2.259,-2.255 -3.707,-2.451 -0.42,-0.025 -0.793,-0.069 -1.165,-0.069 -1.955,0 -3.472,0.659 -4.547,1.999 -1.06,1.343 -1.625,3.109 -1.625,5.314 l 0,17.317 -3.776,0 0.391,2.505 c 1.872,0 3.211,0.583 4.044,1.727 0.589,0.47 1.114,1.571 1.65,3.345 0.525,2.056 0.862,3.218 0.949,3.373 l 0.901,0 0,-8.445 7.529,0 0,-2.505 -7.529,0 0,-17.842 z"
         style="fill:#ffffff;fill-opacity:1;fill-rule:nonzero;stroke:none"
         id="path270"
         inkscape:connector-curvature="0" /><path
         d="m 283.2192,2025.873 -0.621,0 c 0.003,-1.674 0.316,-2.932 1.083,-3.779 l 0.022,-0.023 c 0.816,-0.796 2.044,-1.133 3.679,-1.135 0.824,0 1.566,0.441 2.144,1.14 0.589,0.704 1.078,1.682 1.519,2.948 l -0.586,0.204 -0.548,-0.293 0.8,-1.491 0.548,0.293 -0.57,0.247 c -0.332,-0.764 -0.694,-1.442 -1.097,-2.027 l 0.512,-0.352 -0.508,0.358 c -0.972,-1.367 -2.014,-2.015 -3.282,-2.193 l 0.083,-0.616 -0.037,0.621 c -0.441,-0.028 -0.805,-0.069 -1.128,-0.068 -1.821,0.01 -3.102,0.583 -4.062,1.766 l 0.002,0 c -0.959,1.217 -1.489,2.827 -1.491,4.929 l 0,17.317 -0.182,0.44 -0.439,0.181 -3.05,0 0.279,1.789 -0.614,0.095 0,-0.621 c 1.989,-0.01 3.582,0.647 4.546,1.982 l -0.502,0.366 0.387,-0.486 c 0.8,0.666 1.297,1.839 1.858,3.651 l 0.007,0.026 c 0.262,1.024 0.476,1.825 0.635,2.384 l 0.193,0.651 0.058,0.173 0.014,0.038 -0.2,0.084 0.189,-0.105 0.011,0.021 -0.2,0.084 0.189,-0.105 -0.542,0.302 0,-0.621 0.28,0 0,-7.824 0.182,-0.439 0.439,-0.182 6.908,0 0,-1.263 -6.908,0 -0.439,-0.181 -0.182,-0.44 0,-17.842 0.621,0 0.621,0 0,17.221 6.908,0 0.44,0.182 0.181,0.439 0,2.505 -0.181,0.439 -0.44,0.182 -6.908,0 0,7.824 -0.182,0.44 -0.439,0.182 -0.901,0 -0.543,-0.319 -0.16,-0.417 c -0.165,-0.517 -0.452,-1.556 -0.848,-3.106 l 0.602,-0.153 -0.595,0.179 c -0.51,-1.735 -1.063,-2.764 -1.443,-3.038 l -0.115,-0.12 c -0.701,-0.953 -1.787,-1.461 -3.541,-1.472 l -0.614,-0.525 -0.391,-2.505 0.142,-0.5 0.472,-0.217 3.154,0 0,-16.696 c -0.002,-2.308 0.598,-4.23 1.76,-5.699 l 0.003,0 c 1.189,-1.496 2.942,-2.241 5.031,-2.231 0.422,10e-4 0.804,0.047 1.203,0.07 l 0.045,0 c 1.629,0.212 3.034,1.135 4.132,2.708 l 0.004,0.01 c 0.459,0.667 0.857,1.415 1.213,2.237 l -0.023,0.541 -0.8,1.491 -0.596,0.326 -0.538,-0.415 c -0.409,-1.181 -0.859,-2.039 -1.297,-2.558 -0.448,-0.524 -0.818,-0.693 -1.193,-0.696 -1.479,-10e-4 -2.35,0.32 -2.808,0.777 l -0.436,-0.442 0.458,0.42 c -0.442,0.47 -0.759,1.413 -0.756,2.939 l -0.621,0 z"
         style="fill:#ffffff;fill-opacity:1;fill-rule:nonzero;stroke:none"
         id="path274"
         inkscape:connector-curvature="0" /><path
         d="m 296.8554,2032.6565 c 3.236,1.224 8.116,3.106 14.57,5.618 -0.644,4.044 -2.621,6.053 -5.976,6.053 -2.763,0 -4.865,-0.97 -6.342,-2.911 -1.521,-1.907 -2.252,-4.576 -2.252,-7.982 l 0,-0.778 z m 19.366,-8.786 c -2.606,-3.257 -6.139,-4.89 -10.722,-4.89 -3.681,0 -6.769,1.368 -9.303,4.043 -2.545,2.679 -3.768,5.991 -3.768,9.897 0,3.942 1.223,7.273 3.707,9.926 2.487,2.654 5.585,3.986 9.364,3.986 2.99,0 5.586,-0.956 7.685,-2.889 2.017,-1.821 3.171,-4.127 3.555,-6.932 l -19.634,-6.719 c 0.456,-2.258 1.234,-4.097 2.349,-5.542 1.734,-2.157 4.011,-3.272 6.798,-3.272 3.446,0 6.559,1.571 9.307,4.731 0.098,-0.257 0.192,-0.652 0.308,-1.184 0.112,-0.51 0.206,-0.926 0.354,-1.155"
         style="fill:#ffffff;fill-opacity:1;fill-rule:nonzero;stroke:none"
         id="path278"
         inkscape:connector-curvature="0" /><path
         d="m 296.8554,2032.6565 0.22,-0.581 c 3.24,1.225 8.12,3.107 14.576,5.62 l 0.388,0.677 c -0.335,2.099 -1.024,3.744 -2.143,4.881 -1.118,1.14 -2.65,1.701 -4.447,1.695 -2.903,0.012 -5.252,-1.056 -6.837,-3.156 l 0.495,-0.376 -0.486,0.387 c -1.639,-2.058 -2.388,-4.879 -2.387,-8.369 l 0,-0.778 0.268,-0.511 0.573,-0.07 -0.22,0.581 0.621,0 0,0.778 c 10e-4,3.323 0.715,5.838 2.116,7.595 l 0.009,0.011 c 1.369,1.781 3.226,2.653 5.848,2.665 1.558,-0.01 2.692,-0.449 3.562,-1.325 0.87,-0.878 1.491,-2.26 1.8,-4.204 l 0.614,0.098 -0.225,0.579 c -6.454,-2.512 -11.332,-4.394 -14.565,-5.616 l 0.22,-0.581 0.621,0 -0.621,0 z m 19.366,-8.786 -0.485,0.389 c -2.503,-3.113 -5.799,-4.646 -10.237,-4.658 -3.526,0.01 -6.413,1.286 -8.852,3.85 -2.432,2.567 -3.593,5.691 -3.598,9.469 0.005,3.816 1.169,6.963 3.539,9.501 2.386,2.535 5.278,3.781 8.911,3.789 2.859,0 5.277,-0.899 7.264,-2.724 l 0.005,0 c 1.906,-1.727 2.984,-3.87 3.355,-6.555 l 0.616,0.084 -0.201,0.588 -19.634,-6.719 -0.408,-0.711 c 0.469,-2.327 1.28,-4.262 2.466,-5.799 l 0.008,-0.01 c 1.828,-2.289 4.327,-3.514 7.282,-3.504 3.643,-0.01 6.952,1.685 9.776,4.944 l -0.469,0.408 -0.581,-0.221 c 0.073,-0.186 0.168,-0.571 0.281,-1.095 0.123,-0.519 0.19,-0.949 0.442,-1.361 l 0.52,0.338 -0.485,0.389 0.485,-0.389 0.521,0.339 c -0.044,0.044 -0.166,0.447 -0.269,0.95 -0.118,0.539 -0.211,0.943 -0.333,1.271 l -0.472,0.391 -0.578,-0.205 c -2.671,-3.061 -5.589,-4.511 -8.838,-4.517 -2.62,0.01 -4.673,1.015 -6.314,3.04 l -0.484,-0.389 0.492,0.38 c -1.044,1.352 -1.79,3.096 -2.232,5.285 l -0.609,-0.123 0.201,-0.587 19.634,6.718 0.415,0.672 c -0.396,2.925 -1.628,5.394 -3.754,7.309 l 0.004,0 c -2.211,2.041 -4.985,3.057 -8.106,3.053 -3.925,0.01 -7.23,-1.41 -9.818,-4.182 -2.596,-2.768 -3.879,-6.282 -3.874,-10.351 -0.006,-4.033 1.28,-7.534 3.939,-10.324 2.628,-2.786 5.916,-4.244 9.753,-4.237 4.728,-0.012 8.499,1.72 11.208,5.123 l 0.035,0.727 -0.521,-0.339 z"
         style="fill:#ffffff;fill-opacity:1;fill-rule:nonzero;stroke:none"
         id="path282"
         inkscape:connector-curvature="0" /><path
         d="m 338.3719,2027.5381 c 0,-2.585 -0.916,-4.615 -2.747,-6.208 -1.789,-1.586 -4.192,-2.349 -7.175,-2.349 -3.11,0 -5.886,1.082 -8.344,3.181 -0.445,0 -0.698,-0.307 -0.746,-0.887 l -0.774,0 0,4.71 c 0.202,0.149 0.553,0.344 0.995,0.557 0.424,0.218 0.768,0.351 0.956,0.471 1.578,-3.682 4.246,-5.535 8.072,-5.535 1.673,0 3.106,0.456 4.275,1.343 1.173,0.902 1.752,2.002 1.752,3.313 0,1.498 -0.572,2.653 -1.687,3.446 -1.115,0.821 -2.928,1.466 -5.386,1.969 -5.683,1.176 -8.547,3.735 -8.547,7.685 0,2.183 0.887,4.011 2.661,5.462 1.774,1.437 3.855,2.136 6.356,2.136 1.546,0 3.182,-0.308 4.822,-0.912 1.332,-0.525 2.331,-1.09 3.023,-1.669 0.311,0 0.525,0.25 0.604,0.728 l 0.847,0 0,-4.004 c -0.575,-0.431 -1.169,-0.847 -1.78,-1.263 -1.416,3.087 -3.903,4.615 -7.381,4.615 -1.76,0 -3.077,-0.377 -4.033,-1.122 -0.92,-0.739 -1.376,-1.734 -1.376,-2.972 0,-1.155 0.478,-2.096 1.405,-2.842 0.952,-0.731 2.632,-1.361 5.05,-1.886 3.413,-0.793 5.777,-1.791 7.142,-3.037 1.335,-1.274 2.016,-2.921 2.016,-4.93"
         style="fill:#ffffff;fill-opacity:1;fill-rule:nonzero;stroke:none"
         id="path286"
         inkscape:connector-curvature="0" /><path
         d="m 338.3719,2027.5381 -0.621,0 c -0.011,-2.439 -0.831,-4.245 -2.534,-5.739 l -0.005,0 c -1.651,-1.463 -3.88,-2.191 -6.762,-2.193 -2.963,0 -5.574,1.017 -7.941,3.033 l -0.403,0.149 c -0.362,0.01 -0.76,-0.153 -0.999,-0.449 -0.241,-0.293 -0.334,-0.642 -0.366,-1.009 l 0.619,-0.051 0,0.622 -0.153,0 0,4.088 -0.621,0 0.367,-0.501 c 0.14,0.105 0.477,0.296 0.899,0.499 l 0.012,0.01 c 0.4,0.207 0.716,0.321 1.006,0.499 l -0.333,0.524 -0.571,-0.245 c 1.619,-3.855 4.607,-5.94 8.643,-5.911 1.784,0 3.368,0.494 4.651,1.469 l 0.003,0 c 1.291,0.978 2.005,2.304 1.995,3.805 0.012,1.654 -0.672,3.058 -1.949,3.952 l -0.36,-0.506 0.369,0.5 c -1.25,0.915 -3.129,1.561 -5.63,2.077 -2.776,0.573 -4.81,1.482 -6.114,2.657 -1.302,1.179 -1.928,2.595 -1.936,4.42 0.009,2.011 0.784,3.619 2.432,4.981 l -0.002,-10e-4 c 1.666,1.344 3.578,1.992 5.965,1.997 1.464,0 3.029,-0.292 4.607,-0.874 l 0.215,0.583 -0.227,-0.578 c 1.289,-0.507 2.233,-1.049 2.851,-1.567 l 0.399,-0.145 0.866,0.407 0.351,0.839 -0.613,0.103 0,-0.622 0.226,0 0,-3.382 0.621,0 -0.372,0.497 c -0.565,-0.422 -1.151,-0.834 -1.758,-1.247 l 0.35,-0.513 0.564,0.258 c -1.478,3.286 -4.286,5.005 -7.945,4.978 -1.843,10e-4 -3.316,-0.395 -4.415,-1.253 l -0.007,-0.01 c -1.063,-0.841 -1.618,-2.067 -1.608,-3.456 -0.01,-1.33 0.587,-2.495 1.636,-3.326 l 0.012,-0.01 c 1.095,-0.834 2.834,-1.462 5.296,-2.001 l 0.132,0.607 -0.141,-0.605 c 3.364,-0.777 5.646,-1.769 6.864,-2.891 l 0.419,0.459 -0.429,-0.449 c 1.212,-1.165 1.817,-2.611 1.824,-4.481 l 0.621,0 0.621,0 c 0.007,2.148 -0.749,3.996 -2.209,5.38 l -0.01,0.01 c -1.511,1.37 -3.957,2.374 -7.42,3.184 l -0.009,10e-4 c -2.374,0.511 -3.994,1.143 -4.803,1.772 l -0.378,-0.493 0.39,0.484 c -0.804,0.661 -1.163,1.379 -1.173,2.358 0.01,1.087 0.367,1.852 1.143,2.488 l -0.389,0.484 0.382,-0.49 c 0.812,0.633 1.974,0.99 3.651,0.991 3.297,-0.027 5.463,-1.363 6.816,-4.253 l 0.398,-0.34 0.516,0.085 c 0.617,0.42 1.218,0.841 1.804,1.28 l 0.249,0.497 0,4.004 -0.182,0.439 -0.44,0.182 -0.847,0 -0.612,-0.519 -0.079,-0.246 0.087,-0.074 0,0.111 -0.087,-0.037 0.087,-0.074 0,0.111 0,-0.621 0.399,0.476 c -0.765,0.64 -1.819,1.228 -3.194,1.771 l -0.013,0 c -1.701,0.628 -3.408,0.951 -5.037,0.951 -2.615,0.01 -4.866,-0.745 -6.747,-2.274 l -0.003,0 c -1.898,-1.541 -2.897,-3.589 -2.888,-5.943 -0.008,-2.125 0.798,-3.963 2.348,-5.345 1.548,-1.386 3.788,-2.346 6.694,-2.948 2.416,-0.491 4.165,-1.133 5.144,-1.862 l 0.009,-0.01 c 0.952,-0.692 1.412,-1.596 1.425,-2.939 -0.01,-1.121 -0.456,-1.995 -1.509,-2.82 l 0.003,0 c -1.056,-0.798 -2.339,-1.214 -3.9,-1.217 -3.616,0.029 -5.964,1.651 -7.501,5.159 l -0.388,0.349 -0.516,-0.069 c -0.086,-0.061 -0.459,-0.216 -0.906,-0.443 l 0.283,-0.553 -0.27,0.56 c -0.462,-0.225 -0.828,-0.424 -1.092,-0.616 l -0.255,-0.501 0,-4.71 0.182,-0.439 0.44,-0.182 0.774,0 0.619,0.571 0.082,0.313 -0.009,0.01 0.004,-0.01 0.005,0 -0.009,0.01 0.004,-0.01 0.05,0 0,0.621 -0.403,-0.472 c 2.549,-2.183 5.491,-3.334 8.747,-3.331 3.083,0 5.662,0.797 7.587,2.506 l -0.005,0 c 1.96,1.691 2.971,3.947 2.961,6.677 l -0.621,0 z"
         style="fill:#ffffff;fill-opacity:1;fill-rule:nonzero;stroke:none"
         id="path290"
         inkscape:connector-curvature="0" /><path
         d="m 101.3194,2079.8999 c 0,0.427 0.055,0.829 0.134,1.271 0.518,2.482 2.432,5.046 4.891,6.552 7.786,4.76 14.269,3.359 15.235,2.823 l -0.039,-0.326 c -0.898,-2.233 -9.014,-9.361 -19.399,-13.147 -0.471,0.8 -0.822,1.86 -0.822,2.827 m 27.019,13.075 c -1.021,1.068 -3.613,2.259 -7.081,2.787 -3.457,0.561 -10.49,0.952 -18.179,-3.019 -7.978,-4.09 -13.18,-11.725 -10.841,-18.925 0,0 -6.737,-2.526 -11.808,-1.494 -2.73,0.571 -5.307,2.57 -6.129,5.227 -1.256,4.162 -0.214,11.261 6.885,17.763 9.365,8.557 23.479,11.637 29.499,12.941 2.747,0.589 3.106,0.666 3.185,1.096 0.073,0.153 0.159,0.793 -0.409,1.438 -0.829,1.009 -3.225,2.048 -9.936,1.324 -6.9,-0.738 -16.297,-3.525 -19.132,-4.373 1.955,4.022 7.885,14.77 8.96,16.819 1.748,3.268 2.36,4.723 2.36,5.48 l -0.17,0.514 c -1.007,0.876 -6.61,-2.121 -10.896,-7.2 -4.34,-5.089 -6.636,-9.151 -10.017,-14.53 -3.76,-5.958 -15.551,-8.977 -21.248,-10.541 -1.517,-0.42 -1.973,-0.475 -2.161,-0.699 l -0.163,-0.771 c 0.47,-1.68 3.352,-3.468 6.367,-3.623 2.179,-0.098 4.757,0.246 8.76,1.357 -2.153,-3.41 -5.777,-10.965 -5.777,-18.161 0,-5.611 2.574,-12.235 13.484,-13.249 8.619,-0.8 16.923,2.223 22.794,4.474 6.61,-5.154 15.613,-4.865 15.613,-4.865 23.088,0 33.824,18.487 35.797,21.929 -0.018,-0.047 2.104,-6.92 6.122,-12.449 5.534,-7.605 13.172,-10.023 20.999,-9.299 9.339,0.862 15.337,8.091 15.902,9.423 0.3,0.655 -0.015,1.39 -1.716,0.456 -1.477,-0.771 -3.048,-1.929 -6.892,-2.643 -17.289,-3.265 -22.436,14.69 -26.158,22.364 -0.496,1.09 -0.955,1.872 -1.437,2.078 -1.05,0.413 -9.176,-0.996 -10.092,-2.748 -9.068,-16.886 -20.85,-20.611 -29.799,-20.745 -3.008,-0.062 -5.52,0.557 -7.53,1.611 3.501,1.719 5.966,3.058 8.486,4.738 9.295,6.201 12.662,12.8 12.662,14.936 l -0.304,0.579"
         style="fill:#ffffff;fill-opacity:1;fill-rule:nonzero;stroke:none"
         id="path294"
         inkscape:connector-curvature="0" /><path
         d="m 205.2321,2081.2607 2.378,0 2.378,0 c 2.929,0.083 5.119,0.807 6.516,2.161 1.383,1.376 2.049,3.555 2.049,6.581 0,2.635 -0.691,4.739 -2.172,6.317 -1.408,1.513 -3.37,2.284 -5.897,2.284 -2.809,0 -4.56,-0.688 -5.252,-2.049 l 0,-15.294 z m 0,-2.664 0,-12.014 c 0,-1.155 0.55,-1.735 1.611,-1.735 l 1.115,0 0,-1.256 -9.701,0 0,0.934 1.035,0 c 1.01,0 1.506,0.587 1.506,1.788 l 0,32.196 c 0,1.187 -0.496,1.806 -1.398,1.806 l -1.002,0 0,0.894 12.032,0 c 4.167,0 7.432,-0.981 9.702,-2.91 2.323,-1.955 3.478,-4.691 3.478,-8.297 0,-3.609 -1.14,-6.422 -3.413,-8.423 -2.27,-1.98 -5.401,-2.983 -9.376,-2.983 l -5.589,0 z"
         style="fill:#ffffff;fill-opacity:1;fill-rule:nonzero;stroke:none"
         id="path298"
         inkscape:connector-curvature="0" /><path
         d="m 205.2321,2081.2607 0,-0.621 2.378,0 2.378,0 0.018,0 c 3.015,0.086 5.371,0.83 6.931,2.336 l 0.005,0.01 c 1.552,1.549 2.233,3.914 2.233,7.021 0.004,2.738 -0.73,5.03 -2.341,6.742 l 0.002,0 c -1.534,1.656 -3.704,2.489 -6.352,2.482 -2.879,0 -4.922,-0.691 -5.806,-2.389 l -0.067,-0.281 0,-15.294 0.182,-0.439 0.439,-0.182 0,0.621 0.621,0 0,15.294 -0.621,0 0.554,-0.281 c 0.499,1.025 1.96,1.709 4.698,1.709 2.406,-0.01 4.16,-0.716 5.442,-2.086 l 0.002,0 c 1.351,-1.444 2,-3.359 2.004,-5.892 0,-2.945 -0.652,-4.939 -1.866,-6.14 l 0.438,-0.441 -0.432,0.446 c -1.235,-1.201 -3.259,-1.906 -6.101,-1.986 l 0.017,-0.621 0,0.622 -2.378,0 -2.378,0 0,-0.622 0.621,0 -0.621,0 z m 0,-2.664 -0.621,0 0,-12.014 c -0.001,-0.669 0.16,-1.278 0.575,-1.725 0.416,-0.447 1.022,-0.635 1.657,-0.631 l 0.494,0 0,-0.013 -8.459,0 0,0.312 -0.621,0 0,-0.621 1.035,0 c 0.615,-0.01 1.219,0.197 1.606,0.664 0.386,0.464 0.52,1.066 0.521,1.745 l 0,32.196 c -10e-4,0.676 -0.135,1.268 -0.492,1.731 -0.356,0.467 -0.939,0.706 -1.527,0.697 l -0.381,0 0,0.272 -0.621,0 0,-0.621 12.032,0 c 4.074,0 7.18,-0.959 9.299,-2.763 l 0.003,-10e-4 c 2.171,-1.837 3.248,-4.343 3.257,-7.822 -0.007,-3.484 -1.079,-6.079 -3.203,-7.957 l 0.002,0 c -2.13,-1.858 -5.092,-2.828 -8.967,-2.83 l -5.589,0 -0.439,-0.182 -0.182,-0.439 0.621,0 0,-0.621 5.589,0 c 4.074,0 7.375,1.033 9.784,3.136 l 0.002,0 c 2.423,2.125 3.632,5.155 3.624,8.889 0.01,3.732 -1.223,6.7 -3.7,8.772 l 0.003,0 c -2.421,2.056 -5.845,3.059 -10.104,3.059 l -12.032,0 -0.44,-0.182 -0.182,-0.44 0,-0.894 0.182,-0.439 0.44,-0.182 1.002,0 0.547,-0.219 c 0.117,-0.144 0.231,-0.454 0.229,-0.966 l 0,-32.196 c 0.001,-0.521 -0.113,-0.813 -0.228,-0.944 -0.112,-0.126 -0.262,-0.215 -0.656,-0.222 l -1.035,0 -0.44,-0.182 -0.182,-0.44 0,-0.934 0.182,-0.439 0.44,-0.182 9.701,0 0.439,0.182 0.182,0.439 0,1.256 -0.182,0.44 -0.439,0.182 -1.115,0 c -0.425,0 -0.625,0.106 -0.749,0.237 -0.125,0.131 -0.24,0.389 -0.241,0.876 l 0,12.014 -0.621,0 0,-0.621 0,0.621 z"
         style="fill:#ffffff;fill-opacity:1;fill-rule:nonzero;stroke:none"
         id="path302"
         inkscape:connector-curvature="0" /><path
         d="m 248.0231,2076.9712 c 0,3.479 -0.807,6.266 -2.48,8.33 -1.603,2.052 -3.84,3.105 -6.682,3.105 -2.864,0 -5.079,-1.053 -6.686,-3.105 -1.618,-2.064 -2.443,-4.851 -2.443,-8.33 0,-3.537 0.825,-6.266 2.443,-8.347 1.607,-2.042 3.822,-3.07 6.686,-3.07 2.842,0 5.079,1.028 6.682,3.07 1.673,2.081 2.48,4.81 2.48,8.347 m 4.474,0 c 0,-3.906 -1.288,-7.193 -3.949,-9.9 -2.646,-2.686 -5.886,-4.022 -9.687,-4.022 -3.815,0 -7.041,1.336 -9.672,4.022 -2.629,2.707 -3.979,5.994 -3.979,9.9 0,3.877 1.35,7.175 3.979,9.872 2.631,2.707 5.857,4.043 9.672,4.043 3.83,0 7.095,-1.336 9.72,-4.043 2.635,-2.697 3.916,-5.995 3.916,-9.872"
         style="fill:#ffffff;fill-opacity:1;fill-rule:nonzero;stroke:none"
         id="path306"
         inkscape:connector-curvature="0" /><path
         d="m 248.0231,2076.9712 0.621,0 c 0.001,3.57 -0.831,6.516 -2.618,8.721 l -0.483,-0.391 0.49,0.382 c -1.708,2.202 -4.179,3.355 -7.172,3.345 -3.014,0.011 -5.466,-1.145 -7.175,-3.345 -1.725,-2.199 -2.577,-5.139 -2.576,-8.712 -0.002,-3.629 0.853,-6.517 2.575,-8.729 l 0.002,0 c 1.711,-2.19 4.165,-3.318 7.174,-3.307 2.988,-0.01 5.46,1.115 7.171,3.308 l -0.489,0.384 0.485,-0.39 c 1.782,2.217 2.619,5.111 2.616,8.737 l -0.621,0 -0.621,0 c -0.003,-3.447 -0.781,-6.012 -2.343,-7.958 l -0.004,-0.01 c -1.497,-1.89 -3.499,-2.821 -6.194,-2.832 -2.718,0.012 -4.695,0.94 -6.198,2.833 l 0.002,0 c -1.514,1.951 -2.31,4.522 -2.312,7.966 10e-4,3.384 0.8,6.02 2.311,7.946 1.506,1.906 3.484,2.857 6.197,2.868 2.69,-0.01 4.693,-0.964 6.193,-2.867 l 0.007,-0.01 c 1.557,-1.921 2.339,-4.55 2.341,-7.938 l 0.621,0 z m 4.474,0 -0.621,0 c -0.007,-3.77 -1.223,-6.862 -3.771,-9.465 -2.544,-2.573 -5.589,-3.829 -9.244,-3.836 -3.67,0.01 -6.699,1.262 -9.229,3.835 l 0.002,0 c -2.522,2.608 -3.796,5.706 -3.802,9.468 0.005,3.732 1.28,6.843 3.802,9.438 2.53,2.594 5.557,3.849 9.227,3.856 3.686,-0.01 6.754,-1.264 9.273,-3.855 l 0.002,0 c 2.523,-2.591 3.734,-5.697 3.74,-9.438 l 0.621,0 0.621,0 c 0.006,4.013 -1.346,7.502 -4.093,10.306 l 0.001,0 c -2.729,2.825 -6.191,4.238 -10.165,4.232 -3.96,0.01 -7.385,-1.41 -10.118,-4.232 -2.734,-2.797 -4.159,-6.283 -4.154,-10.304 -0.006,-4.049 1.42,-7.525 4.154,-10.333 l 0.002,0 c 2.733,-2.799 6.156,-4.215 10.116,-4.208 3.947,-0.01 7.381,1.408 10.129,4.207 2.773,2.813 4.135,6.294 4.128,10.336 l -0.621,0 z"
         style="fill:#ffffff;fill-opacity:1;fill-rule:nonzero;stroke:none"
         id="path310"
         inkscape:connector-curvature="0" /><path
         d="m 256.8229,2099.1685 c 0,0.369 0.362,0.941 1.108,1.737 0.774,0.811 1.339,1.206 1.708,1.206 0.37,0 0.905,-0.395 1.651,-1.206 0.735,-0.796 1.122,-1.368 1.122,-1.737 0,-0.376 -0.387,-0.948 -1.122,-1.738 -0.746,-0.821 -1.281,-1.209 -1.651,-1.209 -0.369,0 -0.934,0.388 -1.708,1.209 -0.746,0.79 -1.108,1.362 -1.108,1.738 m 5.321,-33.002 c 0,-0.808 0.431,-1.224 1.325,-1.224 l 0.746,0 0.054,-0.901 c -0.916,-0.058 -2.32,-0.134 -4.174,-0.279 -1.835,-0.148 -3.218,-0.25 -4.17,-0.282 l 0,0.937 0.739,0 c 0.847,0 1.314,0.391 1.314,1.136 l 0,22.194 c 0,0.721 -0.322,1.065 -1.046,1.065 -0.673,0.336 -1.007,0.64 -1.007,1.02 1.376,0.156 3.439,0.428 6.219,0.815 l 0,-24.481 z"
         style="fill:#ffffff;fill-opacity:1;fill-rule:nonzero;stroke:none"
         id="path314"
         inkscape:connector-curvature="0" /><path
         d="m 257.0458,2099.1685 c -0.016,0.23 0.308,0.809 1.048,1.585 l -0.163,0.152 0.161,-0.153 c 0.753,0.804 1.33,1.156 1.548,1.136 0.213,0.021 0.76,-0.327 1.486,-1.133 0.731,-0.777 1.082,-1.365 1.063,-1.587 0.019,-0.231 -0.331,-0.816 -1.062,-1.586 l -0.002,0 c -0.726,-0.815 -1.27,-1.155 -1.485,-1.136 -0.22,-0.019 -0.794,0.325 -1.547,1.139 -0.739,0.77 -1.063,1.346 -1.047,1.585 l -0.223,0.223 -0.223,-0.223 c 0.016,-0.514 0.417,-1.082 1.169,-1.89 0.796,-0.829 1.351,-1.26 1.871,-1.279 0.522,0.019 1.049,0.454 1.815,1.282 l -0.165,0.149 0.163,-0.151 c 0.739,0.808 1.163,1.367 1.182,1.889 -0.019,0.516 -0.443,1.073 -1.181,1.889 -0.765,0.816 -1.29,1.256 -1.814,1.277 -0.522,-0.02 -1.074,-0.457 -1.87,-1.274 l -0.002,0 c -0.752,-0.817 -1.151,-1.382 -1.168,-1.89 l 0.223,-0.223 0.223,0.223 z m 5.098,-33.002 -0.222,0 c -0.002,-0.441 0.12,-0.82 0.398,-1.078 0.276,-0.257 0.671,-0.369 1.149,-0.369 l 0.536,0 0.042,-0.692 0.222,0.014 -0.014,0.222 c -0.914,-0.058 -2.321,-0.134 -4.177,-0.279 -1.835,-0.149 -3.216,-0.25 -4.16,-0.282 l 0.007,-0.222 0.223,0 0,0.714 0.516,0 c 0.456,0 0.841,0.105 1.12,0.343 0.279,0.238 0.419,0.6 0.417,1.016 l 0,22.194 c 0,0.39 -0.087,0.723 -0.315,0.958 -0.228,0.234 -0.561,0.33 -0.954,0.329 l 0,-0.222 0.099,0.199 c -0.667,0.332 -0.895,0.598 -0.883,0.821 l -0.223,0 0.026,-0.221 c 1.379,0.156 3.443,0.428 6.224,0.815 l -0.031,0.221 -0.222,0 0,-24.481 0.222,0 0.223,0 0,24.481 -0.076,0.168 -0.177,0.052 c -2.779,-0.387 -4.842,-0.658 -6.213,-0.814 l -0.198,-0.221 c 0.011,-0.537 0.45,-0.878 1.129,-1.22 l 0.1,-0.023 c 0.646,-0.038 0.785,-0.19 0.823,-0.842 l 0,-22.194 c -0.024,-0.633 -0.306,-0.884 -1.091,-0.913 l -0.739,0 -0.157,-0.066 -0.065,-0.157 0,-0.937 0.068,-0.161 0.162,-0.062 c 0.96,0.033 2.344,0.134 4.18,0.283 1.851,0.145 3.253,0.22 4.17,0.278 l 0.209,0.236 -0.055,0.901 -0.222,0.21 -0.746,0 c -0.825,0.034 -1.07,0.284 -1.102,1.001 l -0.223,0 z"
         style="fill:#ffffff;fill-opacity:1;fill-rule:nonzero;stroke:none"
         id="path318"
         inkscape:connector-curvature="0" /><path
         d="m 274.2637,2069.927 c 0,-1.586 0.322,-2.715 0.941,-3.345 0.59,-0.626 1.651,-0.966 3.182,-0.966 1.238,0 2.233,1.209 3.124,3.667 l 0.767,-1.499 c -0.351,-0.785 -0.691,-1.499 -1.162,-2.103 -1.01,-1.491 -2.23,-2.309 -3.688,-2.48 -0.409,-0.018 -0.786,-0.058 -1.162,-0.058 -1.948,0 -3.486,0.67 -4.543,2.002 -1.072,1.329 -1.633,3.117 -1.633,5.307 l 0,17.299 -3.739,0 0.362,2.516 c 1.882,0 3.225,0.59 4.072,1.77 0.576,0.431 1.122,1.51 1.626,3.309 0.535,2.085 0.872,3.178 0.988,3.381 l 0.865,0 0,-8.427 7.522,0 0,-2.549 -7.522,0 0,-17.824 z"
         style="fill:#ffffff;fill-opacity:1;fill-rule:nonzero;stroke:none"
         id="path322"
         inkscape:connector-curvature="0" /><path
         d="m 274.2637,2069.927 -0.621,0 c 0.006,-1.662 0.317,-2.947 1.119,-3.78 l 0.443,0.435 -0.452,-0.426 c 0.784,-0.818 2.02,-1.157 3.634,-1.162 0.834,-0.01 1.586,0.433 2.167,1.132 0.59,0.703 1.08,1.677 1.541,2.945 l -0.584,0.212 -0.553,-0.283 0.767,-1.499 0.553,0.283 -0.567,0.253 c -0.347,-0.777 -0.671,-1.444 -1.085,-1.975 l -0.024,-0.033 c -0.95,-1.387 -1.986,-2.057 -3.246,-2.211 l 0.072,-0.617 -0.028,0.621 c -0.433,-0.02 -0.802,-0.058 -1.134,-0.057 -1.811,0.01 -3.119,0.595 -4.057,1.766 l -0.003,0 c -0.964,1.196 -1.493,2.83 -1.495,4.917 l 0,17.299 -0.182,0.439 -0.439,0.182 -3.022,0 0.26,1.807 -0.615,0.088 0,-0.621 c 2.001,-0.011 3.603,0.658 4.577,2.029 l -0.505,0.362 0.372,-0.497 c 0.802,0.63 1.32,1.79 1.852,3.638 l 0.003,0.013 c 0.267,1.038 0.484,1.826 0.646,2.375 l 0.2,0.638 0.064,0.174 0.018,0.043 -0.026,0.011 0.024,-0.013 0.002,0 -0.026,0.011 0.024,-0.013 -0.539,0.308 0,-0.622 0.244,0 0,-7.805 0.182,-0.44 0.439,-0.182 6.901,0 0,-1.306 -6.901,0 -0.439,-0.182 -0.182,-0.439 0,-17.824 0.621,0 0.621,0 0,17.203 6.901,0 0.439,0.182 0.182,0.439 0,2.549 -0.182,0.439 -0.439,0.182 -6.901,0 0,7.806 -0.182,0.439 -0.439,0.182 -0.865,0 -0.54,-0.313 c -0.129,-0.243 -0.214,-0.53 -0.393,-1.117 -0.168,-0.57 -0.388,-1.37 -0.657,-2.417 l 0.602,-0.155 -0.599,0.167 c -0.474,-1.75 -1.049,-2.746 -1.399,-2.978 l -0.133,-0.135 c -0.72,-0.99 -1.803,-1.5 -3.567,-1.512 l -0.615,-0.532 -0.362,-2.516 0.145,-0.495 0.47,-0.215 3.118,0 0,-16.678 c -0.002,-2.293 0.591,-4.236 1.77,-5.697 l -0.003,0 c 1.176,-1.494 2.945,-2.246 5.03,-2.237 0.421,0 0.804,0.042 1.189,0.058 l 0.045,0 c 1.657,0.187 3.061,1.153 4.131,2.748 l -0.515,0.349 0.491,-0.382 c 0.526,0.679 0.883,1.439 1.239,2.232 l -0.015,0.536 -0.767,1.499 -0.592,0.337 -0.545,-0.409 c -0.43,-1.19 -0.883,-2.049 -1.322,-2.566 -0.45,-0.52 -0.814,-0.686 -1.218,-0.691 -1.449,0 -2.333,0.336 -2.73,0.771 l -0.009,0.01 c -0.436,0.426 -0.769,1.4 -0.763,2.909 l -0.621,0 z"
         style="fill:#ffffff;fill-opacity:1;fill-rule:nonzero;stroke:none"
         id="path326"
         inkscape:connector-curvature="0" /><path
         d="m 306.2417,2076.9712 c 0,3.479 -0.847,6.266 -2.472,8.33 -1.608,2.052 -3.884,3.105 -6.701,3.105 -2.827,0 -5.097,-1.053 -6.697,-3.105 -1.625,-2.064 -2.418,-4.851 -2.418,-8.33 0,-3.537 0.793,-6.266 2.418,-8.347 1.6,-2.042 3.87,-3.07 6.697,-3.07 2.817,0 5.093,1.028 6.701,3.07 1.625,2.081 2.472,4.81 2.472,8.347 m 4.492,0 c 0,-3.906 -1.31,-7.193 -3.982,-9.9 -2.62,-2.686 -5.9,-4.022 -9.683,-4.022 -3.822,0 -7.044,1.336 -9.665,4.022 -2.646,2.707 -3.949,5.994 -3.949,9.9 0,3.877 1.303,7.175 3.949,9.872 2.621,2.707 5.843,4.043 9.665,4.043 3.863,0 7.077,-1.336 9.709,-4.043 2.646,-2.697 3.956,-5.995 3.956,-9.872"
         style="fill:#ffffff;fill-opacity:1;fill-rule:nonzero;stroke:none"
         id="path330"
         inkscape:connector-curvature="0" /><path
         d="m 306.2417,2076.9712 0.621,0 c 0.002,3.576 -0.873,6.516 -2.605,8.714 -1.715,2.203 -4.22,3.352 -7.189,3.343 -2.979,0.01 -5.478,-1.14 -7.186,-3.346 l 10e-4,0 c -1.736,-2.204 -2.552,-5.145 -2.551,-8.714 -0.002,-3.625 0.818,-6.513 2.55,-8.73 1.711,-2.197 4.212,-3.318 7.186,-3.309 2.965,-0.01 5.471,1.112 7.189,3.307 l 10e-4,0 c 1.728,2.21 2.607,5.098 2.604,8.73 l -0.621,0 -0.621,0 c -0.002,-3.441 -0.818,-6.012 -2.341,-7.965 l 0.001,0 c -1.496,-1.888 -3.544,-2.824 -6.212,-2.833 -2.679,0.01 -4.718,0.945 -6.207,2.832 -1.518,1.946 -2.284,4.515 -2.287,7.964 0.002,3.389 0.771,6.023 2.285,7.945 l 0.003,0 c 1.491,1.899 3.531,2.857 6.206,2.866 2.664,-0.01 4.713,-0.967 6.212,-2.867 1.519,-1.931 2.339,-4.565 2.34,-7.947 l 0.621,0 z m 4.492,0 -0.621,0 c -0.006,-3.768 -1.242,-6.86 -3.803,-9.464 l -0.002,0 c -2.515,-2.57 -5.602,-3.829 -9.239,-3.835 -3.678,0.01 -6.701,1.262 -9.22,3.835 -2.537,2.604 -3.766,5.698 -3.773,9.466 0.006,3.739 1.237,6.845 3.771,9.436 l 0.003,0 c 2.519,2.593 5.541,3.848 9.219,3.855 3.72,-0.01 6.732,-1.262 9.263,-3.856 l 0.002,0 c 2.536,-2.592 3.773,-5.698 3.779,-9.436 l 0.621,0 0.622,0 c 0.005,4.016 -1.378,7.505 -4.135,10.307 l 0.002,0 c -2.732,2.822 -6.148,4.239 -10.154,4.232 -3.967,0.01 -7.388,-1.41 -10.111,-4.232 l 0.003,0 c -2.758,-2.802 -4.133,-6.291 -4.127,-10.307 -0.007,-4.043 1.37,-7.523 4.126,-10.334 2.722,-2.8 6.142,-4.216 10.109,-4.209 3.929,-0.01 7.401,1.406 10.128,4.209 l -0.002,0 c 2.782,2.812 4.167,6.293 4.161,10.337 l -0.622,0 z"
         style="fill:#ffffff;fill-opacity:1;fill-rule:nonzero;stroke:none"
         id="path334"
         inkscape:connector-curvature="0" /><path
         d="m 336.5112,2066.0574 c 0,-0.778 0.623,-1.155 1.861,-1.155 l 0,-0.919 c -1.311,-0.109 -3.258,-0.25 -5.817,-0.391 l 0,4.818 c -2.172,-3.58 -5.054,-5.361 -8.713,-5.361 -2.784,0 -4.931,0.872 -6.437,2.592 -1.491,1.748 -2.244,4.26 -2.244,7.518 l 0,14.588 c 0,0.782 -0.402,1.166 -1.216,1.065 l -0.677,0 0,1.02 c 0.684,0.037 1.744,0.112 3.015,0.239 1.35,0.091 2.371,0.149 3.044,0.228 l 0,-17.921 c 0,-2.411 0.457,-4.109 1.311,-5.199 0.891,-1.093 2.281,-1.625 4.264,-1.625 2.302,0 4.072,0.771 5.253,2.4 1.169,1.582 1.915,4.065 2.182,7.417 l 0,12.376 c 0,0.721 -0.463,1.065 -1.404,1.065 l -0.739,0 0,1.02 c 1.405,0.112 3.541,0.25 6.317,0.467 l 0,-24.242 z"
         style="fill:#ffffff;fill-opacity:1;fill-rule:nonzero;stroke:none"
         id="path338"
         inkscape:connector-curvature="0" /><path
         d="m 336.5112,2066.0574 -0.621,0 c -0.018,-0.553 0.278,-1.12 0.761,-1.398 0.474,-0.286 1.041,-0.374 1.721,-0.378 l 0,0.621 -0.621,0 0,-0.919 0.621,0 -0.051,0.619 c -1.305,-0.108 -3.247,-0.249 -5.801,-0.39 l 0.035,-0.62 0.621,0 0,4.818 -0.454,0.598 -0.698,-0.276 c -2.113,-3.447 -4.737,-5.046 -8.182,-5.062 -2.66,0.01 -4.589,0.813 -5.969,2.38 l -0.468,-0.409 0.473,0.403 c -1.364,1.597 -2.095,3.948 -2.096,7.115 l 0,14.588 c 0,0.439 -0.099,0.873 -0.398,1.215 -0.3,0.344 -0.756,0.492 -1.195,0.487 l -0.322,-0.021 0.078,-0.616 0,0.621 -0.056,0 0,0.399 -0.621,0 0.033,-0.62 c 0.695,0.037 1.763,0.114 3.044,0.241 l -0.062,0.618 0.042,-0.619 c 1.348,0.09 2.367,0.147 3.075,0.23 l -0.073,0.617 -0.621,0 0,-17.921 c 0.002,-2.485 0.461,-4.322 1.443,-5.582 l 0.007,-0.01 c 1.036,-1.278 2.664,-1.862 4.746,-1.855 2.433,-0.011 4.458,0.85 5.756,2.657 l -0.004,0 c 1.276,1.734 2.026,4.319 2.302,7.736 l 0.003,0.05 0,12.376 c 0.011,0.485 -0.187,1 -0.597,1.299 -0.403,0.297 -0.888,0.385 -1.429,0.387 l -0.117,0 0,0.399 -0.622,0 0.05,-0.619 c 1.396,0.112 3.535,0.249 6.316,0.467 l -0.049,0.619 -0.621,0 0,-24.242 0.621,0 0.621,0 0,24.242 -0.199,0.456 -0.47,0.164 c -2.773,-0.217 -4.905,-0.354 -6.318,-0.467 l -0.572,-0.62 0,-1.02 0.182,-0.44 0.439,-0.182 0.739,0 c 0.4,0 0.617,-0.082 0.681,-0.137 l 0.102,-0.306 0,-12.376 0.621,0 -0.619,0.049 c -0.259,-3.287 -1,-5.668 -2.063,-7.097 l -0.003,-0.01 c -1.063,-1.45 -2.578,-2.131 -4.75,-2.143 -1.886,0.01 -3.038,0.488 -3.782,1.397 l -0.482,-0.393 0.489,0.383 c -0.727,0.919 -1.181,2.478 -1.178,4.816 l 0,17.921 -0.209,0.465 -0.486,0.153 c -0.638,-0.077 -1.661,-0.135 -3.012,-0.226 l -0.02,0 c -1.261,-0.126 -2.315,-0.202 -2.987,-0.237 l -0.589,-0.621 0,-1.02 0.182,-0.44 0.44,-0.182 0.677,0 0.077,0.01 0.167,0.011 0.265,-0.068 0.086,-0.391 0,-14.588 c -0.001,-3.348 0.774,-6.022 2.393,-7.922 l 0.005,-0.01 c 1.631,-1.872 3.996,-2.812 6.904,-2.805 3.873,-0.015 7.012,1.948 9.244,5.661 l -0.531,0.322 -0.622,0 0,-4.818 0.195,-0.452 0.461,-0.168 c 2.565,0.141 4.517,0.282 5.834,0.392 l 0.57,0.619 0,0.919 -0.182,0.44 -0.439,0.182 c -0.558,0 -0.922,0.096 -1.069,0.193 l -0.171,0.34 -0.621,0 z"
         style="fill:#ffffff;fill-opacity:1;fill-rule:nonzero;stroke:none"
         id="path342"
         inkscape:connector-curvature="0" /><path
         d="m 202.4487,2129.4888 c -0.793,-0.094 -1.343,-0.315 -1.76,-0.59 l 0.069,-7.721 c 0.207,-0.109 0.753,-0.098 1.274,0 2.716,0.34 4.004,2.019 4.004,4.676 -0.011,2.774 -1.032,3.95 -3.587,3.635 m 3.797,-17.502 -5.448,8.293 -0.04,-0.01 0.054,-8.985 -3.453,-0.413 -0.148,18.929 c 1.187,0.786 3.015,1.502 5.198,1.791 4.746,0.602 7.026,-1.447 7.069,-5.125 0.051,-3.001 -2.055,-5.292 -5.038,-5.911 l 0,-0.04 5.716,-8.061 -3.91,-0.471 z"
         style="fill:#FFFFFF;fill-opacity:1;fill-rule:nonzero;stroke:none"
         id="path346"
         inkscape:connector-curvature="0" /><path
         d="m 202.4487,2129.4888 -0.024,0.2 c -0.818,-0.096 -1.403,-0.329 -1.847,-0.622 l -0.09,-0.17 0.069,-7.721 0.107,-0.177 0.595,-0.1 0.81,0.081 -0.037,0.198 0.025,-0.2 c 2.799,0.332 4.201,2.155 4.18,4.876 -0.006,1.262 -0.211,2.225 -0.708,2.894 -0.497,0.671 -1.286,0.996 -2.324,0.992 l -0.781,-0.051 0.025,-0.2 0.024,-0.2 0.732,0.048 c 1.893,-0.025 2.586,-1.028 2.63,-3.483 -0.021,-2.592 -1.196,-4.128 -3.827,-4.477 l -0.013,0 -0.736,-0.075 -0.407,0.055 -0.094,-0.178 0.202,0 -0.069,7.722 -0.202,0 0.112,-0.168 c 0.389,0.257 0.904,0.466 1.672,0.558 l -0.024,0.2 z m 3.797,-17.502 0.168,0.11 -5.448,8.293 -0.204,0.088 -0.04,-0.01 -0.165,-0.2 0.053,-8.804 -3.051,-0.365 -0.147,18.703 -0.201,0 0.111,-0.168 c 1.155,0.765 2.96,1.475 5.114,1.76 0.541,0.069 1.05,0.102 1.525,0.102 3.615,-0.025 5.254,-1.857 5.316,-5.03 l 0.001,-0.104 c -0.002,-2.847 -2.008,-5.007 -4.879,-5.608 l -0.161,-0.197 0,-0.04 0.037,-0.117 5.521,-7.785 -3.574,-0.43 0.024,-0.2 0.168,0.11 -0.168,-0.11 0.024,-0.2 3.909,0.47 0.161,0.119 -0.02,0.198 -5.716,8.061 -0.164,-0.116 0.201,0 0,0.04 -0.201,0 0.041,-0.197 c 3.024,0.622 5.202,2.951 5.2,6.002 l -0.001,0.109 c -0.014,3.329 -1.949,5.453 -5.719,5.428 -0.494,0 -1.019,-0.035 -1.577,-0.106 -2.213,-0.294 -4.065,-1.017 -5.284,-1.823 l -0.091,-0.17 0.149,-18.928 0.068,-0.15 0.157,-0.048 3.453,0.412 0.178,0.201 -0.054,8.985 -0.202,0 0.036,-0.199 0.04,0.01 -0.036,0.198 -0.168,-0.111 5.448,-8.293 0.192,-0.089 -0.024,0.2 z"
         style="fill:#FFFFFF;fill-opacity:1;fill-rule:nonzero;stroke:none"
         id="path350"
         inkscape:connector-curvature="0" /><path
         d="m 222.6439,2131.179 -1.908,-0.246 1.922,4.304 c 1.115,0.833 2.969,1.119 3.291,0.322 l -3.305,-4.38 z m -0.63,-3.587 c -1.929,-0.25 -3.294,-2.07 -3.185,-5.788 l 6.171,1.752 c -0.047,3.12 -1.122,4.257 -2.986,4.036 m -2.972,-7.54 c 0.283,-2.849 1.64,-4.123 4.08,-3.816 1.726,0.225 2.983,0.818 3.768,1.336 l 0.811,-2.1 c -1.032,-0.76 -2.613,-1.408 -4.909,-1.719 -4.191,-0.518 -6.946,1.962 -6.961,7.215 -0.047,5.056 2.408,8.314 6.281,8.825 3.971,0.485 6.136,-1.991 6.041,-7.229 l -9.111,-2.512 z"
         style="fill:#FFFFFF;fill-opacity:1;fill-rule:nonzero;stroke:none"
         id="path354"
         inkscape:connector-curvature="0" /><path
         d="m 222.6439,2131.179 -0.026,0.2 -1.552,-0.2 1.776,3.976 -0.184,0.082 0.121,-0.161 c 0.617,0.464 1.509,0.755 2.16,0.752 0.461,0 0.748,-0.139 0.823,-0.344 l 0.187,0.075 -0.161,0.121 -3.305,-4.379 0.161,-0.122 -0.026,0.2 0.026,-0.2 0.161,-0.121 3.305,4.38 0.026,0.197 c -0.189,0.447 -0.679,0.597 -1.197,0.596 -0.761,0 -1.701,-0.313 -2.401,-0.833 l -0.063,-0.079 -1.923,-4.304 0.023,-0.202 0.187,-0.08 1.908,0.247 0.135,0.078 -0.161,0.121 z m -0.63,-3.587 -0.026,0.2 c -1.987,-0.254 -3.38,-2.098 -3.367,-5.58 l 0.006,-0.414 0.083,-0.157 0.174,-0.031 6.172,1.752 0.146,0.197 c -0.018,2.89 -1.019,4.272 -2.756,4.261 l -0.456,-0.028 -0.002,0 0.026,-0.2 0.024,-0.2 0.408,0.025 c 1.458,-0.011 2.285,-1.012 2.353,-3.864 l 0.201,0 -0.054,0.194 -6.172,-1.753 0.055,-0.193 0.201,0.01 -0.006,0.403 c 0.013,3.404 1.288,4.953 3.016,5.18 l -0.026,0.2 0.024,-0.2 -0.024,0.2 z m -2.972,-7.54 -0.2,-0.02 c 0.236,-2.615 1.479,-4.058 3.598,-4.042 l 0.707,0.047 c 1.76,0.228 3.046,0.834 3.854,1.367 l -0.111,0.168 -0.188,-0.072 0.811,-2.1 0.188,0.072 -0.12,0.163 c -0.996,-0.735 -2.545,-1.375 -4.816,-1.682 l 0.027,-0.2 -0.024,0.2 c -0.356,-0.044 -0.7,-0.066 -1.032,-0.066 -3.482,0.017 -5.668,2.342 -5.703,7.081 l 0,0 -0.001,0.14 c 0.012,4.916 2.382,7.986 6.106,8.483 l -0.002,0 0.918,0.058 c 3.168,-0.015 4.876,-2.206 4.901,-6.763 l -0.003,-0.321 0.201,0 -0.053,0.194 -9.111,-2.512 -0.147,-0.214 0.2,0.02 0.054,-0.195 9.111,2.513 0.148,0.191 0.003,0.327 c -0.001,2.323 -0.455,4.107 -1.356,5.325 -0.901,1.221 -2.255,1.844 -3.948,1.841 l -0.966,-0.062 -0.003,0 c -3.948,-0.513 -6.467,-3.846 -6.456,-8.882 l 0.001,-0.145 0,0 c 0.007,-2.429 0.592,-4.3 1.657,-5.569 1.065,-1.27 2.608,-1.916 4.449,-1.914 0.35,0 0.71,0.023 1.081,0.069 l 0.002,0 c 2.32,0.315 3.934,0.972 5.002,1.757 l 0.068,0.235 -0.811,2.1 -0.126,0.119 -0.173,-0.024 c -0.762,-0.502 -1.989,-1.084 -3.683,-1.304 l -0.656,-0.043 c -1.905,0.016 -2.924,1.15 -3.197,3.678 l -0.201,-0.019 0.054,-0.195 -0.054,0.195 z"
         style="fill:#FFFFFF;fill-opacity:1;fill-rule:nonzero;stroke:none"
         id="path358"
         inkscape:connector-curvature="0" /><path
         d="m 243.4223,2129.9954 c -0.446,0.21 -0.988,0.242 -1.72,0.145 -2.646,-0.337 -3.696,-2.704 -3.667,-6.585 0.018,-3.775 1.079,-5.589 3.591,-5.256 0.728,0.105 1.412,0.377 1.875,0.732 l -0.079,10.964 z m -2.693,-20.217 c -2.111,-0.25 -3.993,-0.051 -5.108,0.467 l 0.941,2.422 c 0.862,-0.409 2.176,-0.681 3.58,-0.485 2.48,0.304 3.389,1.846 3.381,3.902 l 0,0.999 c -0.611,-0.427 -1.513,-0.789 -2.794,-0.941 -3.573,-0.431 -6.02,2.121 -6.046,6.823 -0.029,4.996 2.35,8.648 7.153,9.267 2.176,0.272 3.892,0 4.858,-0.499 l 0.101,-14.936 c 0.058,-4.13 -2.36,-6.552 -6.066,-7.019"
         style="fill:#FFFFFF;fill-opacity:1;fill-rule:nonzero;stroke:none"
         id="path362"
         inkscape:connector-curvature="0" /><path
         d="m 243.4223,2129.9954 0.086,0.182 c -0.321,0.152 -0.684,0.217 -1.098,0.217 l -0.734,-0.055 c -2.755,-0.349 -3.857,-2.825 -3.843,-6.629 l 0.001,-0.156 c 0.01,-1.757 0.237,-3.109 0.756,-4.049 0.513,-0.944 1.362,-1.453 2.476,-1.446 l 0.587,0.041 0.002,0 c 0.759,0.11 1.469,0.389 1.969,0.771 l 0.079,0.161 -0.08,10.965 -0.115,0.18 -0.086,-0.182 -0.202,-10e-4 0.08,-10.965 0.201,0 -0.122,0.159 c -0.427,-0.328 -1.085,-0.592 -1.781,-0.691 l 0.028,-0.2 -0.026,0.2 -0.534,-0.037 c -0.997,0.01 -1.655,0.404 -2.124,1.238 -0.465,0.836 -0.698,2.132 -0.705,3.857 l -0.001,0.153 c 0.015,3.774 1.027,5.916 3.492,6.23 l 0.682,0.052 c 0.374,0 0.671,-0.059 0.926,-0.179 l 0.086,0.182 -0.202,-10e-4 0.202,10e-4 z m -2.693,-20.217 -0.024,0.2 c -0.605,-0.072 -1.191,-0.106 -1.745,-0.106 -1.35,0 -2.506,0.207 -3.254,0.556 l -0.085,-0.183 0.188,-0.073 0.941,2.422 -0.188,0.073 -0.086,-0.182 c 0.696,-0.33 1.656,-0.569 2.726,-0.569 l 0.968,0.066 -0.028,0.2 0.025,-0.2 c 2.559,0.294 3.579,1.978 3.557,4.077 l 0,0.023 0,0 0,0.999 -0.108,0.179 -0.208,-0.014 c -0.579,-0.405 -1.448,-0.757 -2.703,-0.906 l -0.74,-0.045 c -3.025,0.01 -5.04,2.365 -5.08,6.669 l 0,0.089 c 0.014,4.891 2.308,8.366 6.977,8.977 0.582,0.073 1.13,0.106 1.638,0.106 1.364,0 2.441,-0.241 3.102,-0.584 l 0.092,0.179 -0.201,0 0.101,-14.935 0,0 0.001,-0.142 c -0.013,-3.955 -2.305,-6.208 -5.892,-6.674 l 0.026,-0.2 0.025,-0.2 c 3.74,0.457 6.258,2.946 6.244,7.074 l -0.001,0.148 0,0 -0.101,14.936 -0.109,0.178 c -0.748,0.385 -1.875,0.628 -3.287,0.629 -0.526,0 -1.09,-0.034 -1.689,-0.109 -4.881,-0.619 -7.344,-4.369 -7.329,-9.377 l 0,-0.091 c 0.007,-4.414 2.201,-7.079 5.483,-7.071 l 0.788,0.049 c 1.307,0.155 2.241,0.526 2.885,0.976 l -0.115,0.165 -0.201,0 0,-0.999 0.201,0 -0.201,0 0,-0.027 c -0.022,-1.988 -0.823,-3.366 -3.204,-3.677 l -0.004,-10e-4 -0.912,-0.063 c -1.008,0 -1.919,0.229 -2.553,0.531 l -0.161,0.01 -0.114,-0.114 -0.941,-2.422 0.103,-0.256 c 0.834,-0.385 2.033,-0.592 3.424,-0.592 0.57,0 1.171,0.035 1.792,0.108 l -0.023,0.2 z"
         style="fill:#FFFFFF;fill-opacity:1;fill-rule:nonzero;stroke:none"
         id="path366"
         inkscape:connector-curvature="0" /><path
         d="m 254.5136,2118.0208 -0.123,15.479 3.381,0.442 0.087,-15.519 -3.345,-0.402 z m 1.564,18.367 c -1.039,-0.13 -1.861,0.55 -1.861,1.514 -0.04,0.981 0.786,1.864 1.813,1.98 1.036,0.137 1.829,-0.554 1.861,-1.539 0.015,-0.934 -0.771,-1.817 -1.813,-1.955"
         style="fill:#FFFFFF;fill-opacity:1;fill-rule:nonzero;stroke:none"
         id="path370"
         inkscape:connector-curvature="0" /><path
         d="m 254.5136,2118.0208 0.201,0 -0.122,15.3 2.979,0.389 0.084,-15.11 -3.166,-0.381 0.024,-0.2 0.201,0 -0.201,0 0.024,-0.2 3.345,0.402 0.177,0.201 -0.087,15.519 -0.069,0.15 -0.158,0.048 -3.381,-0.442 -0.176,-0.201 0.123,-15.478 0.069,-0.15 0.157,-0.049 -0.024,0.2 z m 1.564,18.367 -0.025,0.2 -0.228,-0.014 c -0.821,0.01 -1.402,0.557 -1.407,1.328 l 0,0.01 -0.001,0.06 c -0.005,0.836 0.729,1.612 1.636,1.712 l 0.004,0 0.233,0.016 c 0.804,-0.01 1.367,-0.56 1.4,-1.361 l 0.201,0.01 -0.201,0 0,-0.023 c 0.004,-0.81 -0.702,-1.609 -1.639,-1.73 l 0.027,-0.2 0.026,-0.199 c 1.129,0.152 1.984,1.09 1.989,2.129 l 0,0.028 0,0 c -0.027,1 -0.796,1.757 -1.803,1.75 l -0.286,-0.019 0.026,-0.199 -0.022,0.2 c -1.101,-0.127 -1.989,-1.042 -1.994,-2.112 l 0.002,-0.077 0.201,0.01 -0.201,0 c 0.001,-0.996 0.797,-1.729 1.809,-1.731 l 0.278,0.018 -0.025,0.199 z"
         style="fill:#FFFFFF;fill-opacity:1;fill-rule:nonzero;stroke:none"
         id="path374"
         inkscape:connector-curvature="0" /><path
         d="m 271.1396,2133.6877 c -2.4,-0.311 -2.816,-3.214 -2.816,-6.183 0.029,-2.924 0.593,-5.581 2.888,-5.292 2.419,0.297 2.831,3.069 2.784,6.013 0,2.975 -0.445,5.77 -2.856,5.462 m 0.094,-13.878 c -4.159,-0.522 -6.226,2.686 -6.266,7.264 -0.014,4.627 1.973,8.315 6.15,8.833 4.192,0.514 6.216,-2.66 6.241,-7.279 0.054,-4.576 -1.926,-8.29 -6.125,-8.818"
         style="fill:#FFFFFF;fill-opacity:1;fill-rule:nonzero;stroke:none"
         id="path378"
         inkscape:connector-curvature="0" /><path
         d="m 271.1396,2133.6877 -0.026,0.2 c -1.287,-0.163 -2.062,-1.054 -2.472,-2.228 -0.417,-1.176 -0.519,-2.661 -0.52,-4.155 l 0,0 c 0.015,-1.401 0.147,-2.746 0.546,-3.769 0.388,-1.02 1.106,-1.75 2.211,-1.744 l 0.358,0.023 c 1.229,0.145 2.001,0.927 2.419,1.985 0.426,1.059 0.544,2.407 0.545,3.81 l -0.004,0.421 -0.201,0 0.201,0 c 0,1.422 -0.098,2.808 -0.474,3.869 -0.366,1.056 -1.081,1.824 -2.23,1.818 l -0.379,-0.025 0.026,-0.2 0.026,-0.2 0.327,0.022 c 0.952,-0.01 1.489,-0.57 1.85,-1.55 0.35,-0.976 0.453,-2.332 0.452,-3.734 l 0,0 0.003,-0.414 c 0.001,-1.379 -0.123,-2.688 -0.515,-3.66 -0.399,-0.973 -1.021,-1.598 -2.095,-1.735 l -0.309,-0.02 c -0.911,0.01 -1.458,0.544 -1.836,1.487 -0.368,0.939 -0.505,2.251 -0.518,3.628 l 0,0 c -0.001,1.475 0.106,2.926 0.497,4.021 0.397,1.097 1.031,1.813 2.144,1.962 l -0.026,0.2 z m 0.094,-13.878 -0.025,0.199 -0.835,-0.054 c -3.437,0 -5.152,2.908 -5.205,7.121 l 0,0.049 c 0.012,4.557 1.942,8.081 5.974,8.582 l 0.838,0.053 c 3.461,0 5.135,-2.88 5.177,-7.134 l 10e-4,-0.181 c -0.012,-4.444 -1.935,-7.928 -5.95,-8.436 l 0.025,-0.199 0.025,-0.2 c 4.272,0.535 6.314,4.296 6.302,8.835 l 0,0.185 c -0.007,4.325 -1.826,7.536 -5.58,7.533 l -0.887,-0.056 c -4.293,-0.53 -6.339,-4.334 -6.327,-8.982 l 0,-0.051 c 0.02,-4.291 1.876,-7.523 5.607,-7.521 l 0.885,0.057 -0.025,0.2 z"
         style="fill:#FFFFFF;fill-opacity:1;fill-rule:nonzero;stroke:none"
         id="path382"
         inkscape:connector-curvature="0" /><path
         d="m 292.8698,2122.8062 -0.119,10.994 c 0,1.263 -0.551,2.498 -2.647,2.248 -1.143,-0.138 -1.712,-0.395 -2.353,-0.71 l 0.109,-13.143 -3.374,-0.435 -0.119,14.661 c 1.43,0.858 3.305,1.549 5.846,1.853 4.431,0.568 5.922,-1.499 5.922,-3.996 l 0.076,-11.045 -3.341,-0.427 z"
         style="fill:#FFFFFF;fill-opacity:1;fill-rule:nonzero;stroke:none"
         id="path386"
         inkscape:connector-curvature="0" /><path
         d="m 292.8698,2122.8062 0.201,0 -0.119,10.994 -0.201,0 0.201,0 c -10e-4,0.601 -0.117,1.215 -0.479,1.694 -0.361,0.481 -0.972,0.791 -1.851,0.788 l -0.541,-0.034 c -1.165,-0.139 -1.775,-0.411 -2.418,-0.729 l -0.113,-0.182 0.107,-12.966 -2.971,-0.382 -0.118,14.433 -0.201,-10e-4 0.104,-0.173 c 1.404,0.842 3.249,1.525 5.766,1.826 0.496,0.064 0.951,0.094 1.37,0.094 3.271,-0.025 4.301,-1.747 4.327,-3.89 l 0,0 0.075,-10.865 -3.165,-0.405 0.026,-0.2 0.201,0 -0.201,0 0.026,-0.199 3.341,0.427 0.176,0.201 -0.076,11.044 0,-10e-4 c 0,1.141 -0.303,2.221 -1.062,3.015 -0.759,0.795 -1.955,1.279 -3.668,1.277 -0.438,0 -0.911,-0.031 -1.42,-0.096 -2.563,-0.307 -4.468,-1.007 -5.924,-1.88 l -0.098,-0.175 0.12,-14.66 0.069,-0.151 0.158,-0.048 3.374,0.435 0.176,0.201 -0.109,13.144 -0.202,0 0.089,-0.18 c 0.639,0.312 1.165,0.553 2.288,0.69 l 0.494,0.031 c 1.553,-0.018 1.9,-0.966 1.927,-2.079 l 0,0 0.12,-10.994 0.069,-0.149 0.158,-0.048 -0.026,0.199 z"
         style="fill:#FFFFFF;fill-opacity:1;fill-rule:nonzero;stroke:none"
         id="path390"
         inkscape:connector-curvature="0" /><path
         d="m 167.4104,2107.0259 -0.1,12.61 20.217,4.437 0.066,-14.478 -20.183,-2.569 z"
         style="fill:#FFFFFF;fill-opacity:1;fill-rule:nonzero;stroke:none"
         id="path394"
         inkscape:connector-curvature="0" /></g></g></svg>