<?xml version="1.0" encoding="UTF-8" standalone="no"?>
<!-- Generator: Adobe Illustrator 17.0.0, SVG Export Plug-In . SVG Version: 6.00 Build 0)  -->

<svg
   xmlns:dc="http://purl.org/dc/elements/1.1/"
   xmlns:cc="http://creativecommons.org/ns#"
   xmlns:rdf="http://www.w3.org/1999/02/22-rdf-syntax-ns#"
   xmlns:svg="http://www.w3.org/2000/svg"
   xmlns="http://www.w3.org/2000/svg"
   xmlns:sodipodi="http://sodipodi.sourceforge.net/DTD/sodipodi-0.dtd"
   xmlns:inkscape="http://www.inkscape.org/namespaces/inkscape"
   version="1.1"
   id="Calque_1"
   x="0px"
   y="0px"
   width="168px"
   height="88px"
   viewBox="0 0 168 88"
   enable-background="new 0 0 168 88"
   xml:space="preserve"
   inkscape:version="0.48.4 r9939"
   sodipodi:docname="logo-ler.svg"><metadata
   id="metadata111"><rdf:RDF><cc:Work
       rdf:about=""><dc:format>image/svg+xml</dc:format><dc:type
         rdf:resource="http://purl.org/dc/dcmitype/StillImage" /></cc:Work></rdf:RDF></metadata><defs
   id="defs109" /><sodipodi:namedview
   pagecolor="#ffffff"
   bordercolor="#666666"
   borderopacity="1"
   objecttolerance="10"
   gridtolerance="10"
   guidetolerance="10"
   inkscape:pageopacity="0"
   inkscape:pageshadow="2"
   inkscape:window-width="640"
   inkscape:window-height="480"
   id="namedview107"
   showgrid="false"
   inkscape:zoom="16.714286"
   inkscape:cx="86.432073"
   inkscape:cy="25.133126"
   inkscape:window-x="0"
   inkscape:window-y="0"
   inkscape:window-maximized="0"
   inkscape:current-layer="Calque_1" />
<path
   d="m 123.801,59.712915 c 0.477,-1.905 1.288,-4.597 1.738,-6.689 0.182,-0.846 0.302,-1.511 0.302,-2.057 0,-0.911 -0.302,-1.393 -1.333,-1.393 -0.667,0 -1.031,0.362 -1.578,1.456 -1.148,2.36 -2.117,4.906 -4.18,6.664 -1.271,1.091 -3.148,1.755 -5.937,1.755 -2.604,0 -3.273,-0.12 -3.273,-0.664 0,-0.302 0.304,-1.276 0.911,-3.82 l 2.846,-10.724 h 1.88 c 1.635,0 2.24,0.787 2.24,2.482 0,0.729 -0.06,1.516 -0.06,2.245 0.06,0.906 0.425,1.573 1.393,1.573 1.151,0 1.396,-0.484 1.638,-1.755 0.727,-3.271 1.273,-6 2.362,-9.273 0.304,-1.089 0.727,-2.422 0.727,-3.089 0,-0.969 -0.422,-1.635 -1.211,-1.635 -1.213,0 -1.815,1.393 -2.604,3.148 -0.789,1.7 -2.002,3.031 -4.122,3.094 -0.424,0 -0.969,-0.062 -1.393,-0.125 l 3.091,-10.966 c 0.422,-1.391 0.607,-2.182 0.966,-2.427 0.487,-0.18 1.154,-0.18 2.911,-0.18 2.909,0 4.182,1.216 4.362,2.909 0.182,1.393 0.182,2.729 0.245,3.638 0.18,1.815 0.667,2.06 1.393,2.06 1.393,0 1.575,-0.911 1.998,-2.667 0.911,-3.758 2.122,-7.575 2.122,-8.12 0,-0.911 -0.727,-1.091 -2.122,-1.091 -2.425,0 -6.667,0.242 -12.12,0.242 -6.726,0 -9.573,-0.242 -12.242,-0.242 -1.573,0 -2.36,0.425 -2.36,1.516 0,1.029 0.787,1.151 1.695,1.393 0.909,0.122 1.456,0.667 1.456,2 0,0.544 -0.242,1.333 -0.849,3.758 -1.213,4.057 -3.213,11.028 -6.849,24.419 -0.437,1.6 -1.109,2.227 -1.915,2.567 h 27.872 z"
   id="path3"
   style="fill:#ffffff"
   inkscape:connector-curvature="0" />
<path
   d="m 143.774,59.713915 c -0.175,-0.052 -0.367,-0.097 -0.557,-0.142 -0.727,-0.182 -1.635,-0.302 -1.635,-1.333 0,-0.304 0.182,-1.211 0.607,-2.849 l 2.12,-8.06 c 0.182,-0.727 0.302,-1.211 0.547,-1.513 0.302,-0.125 0.724,-0.185 1.151,-0.185 0.667,0.06 1.214,0.547 1.513,2.305 0.512,3.91 1.021,7.865 1.53,11.777 h 13.772 c -0.854,-0.457 -1.465,-1.283 -1.788,-3.111 -0.727,-4.362 -1.333,-7.331 -2,-9.396 -0.909,-2.846 -2.06,-3.271 -4.667,-3.573 v -0.122 c 1.818,-0.242 3.636,-0.727 5.211,-1.393 4.302,-1.755 7.091,-4.971 7.091,-9.815 v -0.062 c 0,-5.878 -3.755,-8.182 -9.151,-8.182 -3.938,0 -7.453,0.245 -11.151,0.245 -4.729,0 -7.391,-0.245 -9.937,-0.245 -1.456,0 -2.547,0.367 -2.547,1.516 0,1.031 0.911,1.214 1.818,1.396 0.914,0.302 1.578,0.664 1.578,1.877 0,0.667 -0.185,1.393 -0.484,2.484 -2.484,8.786 -4.969,17.575 -7.455,26.422 -0.39,1.271 -1.021,1.71 -1.823,1.96 h 16.257 z m 2.353,-19.837 3.031,-10.726 c 0.302,-1.089 0.484,-2.12 1.878,-2.12 1.88,0 2.971,1.213 2.971,3.937 v 0.062 c 0,2.969 -1.091,6.117 -2.669,8.419 -1.391,1.943 -3.151,3.273 -4.906,3.273 -0.547,0 -0.789,-0.117 -0.852,-0.424 0.062,-0.544 0.304,-1.572 0.547,-2.421"
   id="path5"
   style="fill:#ffffff"
   inkscape:connector-curvature="0" />
<path
   d="m 92.219,59.712915 c 0.696,-2.342 2.377,-6.999 2.377,-8.504 0,-0.909 -0.607,-1.273 -1.453,-1.273 -1.214,0 -1.518,0.242 -3.393,3.513 -2.607,4.305 -4.305,5.94 -9.151,5.94 h -1.575 c -0.727,-0.12 -1.031,-0.365 -1.031,-0.849 0,-0.302 0.607,-2.24 1.273,-4.727 2.242,-7.573 6.18,-20.481 7.151,-23.997 0.604,-2.242 1.693,-2.604 3.029,-2.846 1.151,-0.242 2.122,-0.365 2.122,-1.516 0,-1.091 -0.726,-1.393 -2.122,-1.393 -1.336,0 -4.667,0.242 -7.273,0.242 -3.271,0 -5.755,-0.242 -8.242,-0.242 -2.24,0 -3.331,0.12 -3.331,1.576 0,0.906 0.969,1.151 1.938,1.333 0.911,0.122 1.818,0.487 1.818,1.695 v 0.06 c 0,0.305 -0.302,1.578 -0.846,3.396 -2.063,7.331 -6.849,22.968 -7.755,25.453 -0.547,1.573 -1.575,1.875 -2.851,2.12 -0.032,0.005 -0.067,0.015 -0.102,0.02 h 29.417 z"
   id="path7"
   style="fill:#ffffff"
   inkscape:connector-curvature="0" />
























<path
   d="m 37.005,27.689915 c 0,-0.245 -0.185,-0.32 -0.37,-0.344 -0.197,-0.037 -0.392,-0.085 -0.392,-0.27 0,-0.297 0.22,-0.32 0.677,-0.32 0.502,0 1.009,0.047 1.673,0.047 0.529,0 1.203,-0.047 1.475,-0.047 0.282,0 0.429,0.06 0.429,0.282 0,0.235 -0.197,0.26 -0.429,0.307 -0.272,0.05 -0.492,0.122 -0.617,0.579 -0.195,0.714 -0.994,3.333 -1.451,4.869 -0.135,0.504 -0.257,0.899 -0.257,0.959 0,0.1 0.06,0.15 0.21,0.175 h 0.32 c 0.984,0 1.328,-0.335 1.855,-1.206 0.382,-0.664 0.444,-0.714 0.689,-0.714 0.172,0 0.294,0.075 0.294,0.26 0,0.332 -0.404,1.426 -0.514,1.845 -0.112,0.404 -0.16,0.429 -0.554,0.429 -0.529,0 -1.194,-0.047 -2.926,-0.047 -0.936,0 -1.685,0.047 -2.449,0.047 -0.22,0 -0.379,-0.025 -0.379,-0.21 0,-0.245 0.22,-0.307 0.392,-0.345 0.257,-0.047 0.467,-0.11 0.579,-0.429 0.182,-0.504 1.156,-3.678 1.573,-5.166 0.11,-0.369 0.173,-0.627 0.173,-0.689 v -0.012 z"
   id="path57"
   style="fill:#ffffff"
   inkscape:connector-curvature="0" />
<path
   d="m 45.232,29.473915 c 0,0.172 -0.085,0.529 -0.232,0.921 -0.15,0.492 -0.382,1.084 -0.554,1.538 -0.16,0.432 -0.282,0.764 -0.282,0.886 0,0.087 0.05,0.16 0.147,0.16 0.147,0 0.369,-0.295 0.539,-0.592 0.235,-0.404 0.247,-0.589 0.394,-0.589 0.1,0 0.172,0.085 0.172,0.207 0,0.247 -0.185,0.727 -0.504,1.206 -0.492,0.726 -1.303,1.476 -2.25,1.476 -0.592,0 -0.911,-0.295 -0.911,-0.871 0,-0.235 0.1,-0.629 0.235,-1.059 0.182,-0.589 0.442,-1.266 0.614,-1.733 0.135,-0.37 0.235,-0.642 0.235,-0.714 0,-0.11 -0.05,-0.16 -0.137,-0.16 -0.147,0 -0.354,0.295 -0.504,0.517 -0.16,0.235 -0.294,0.417 -0.392,0.417 -0.11,0 -0.16,-0.097 -0.16,-0.182 0,-0.247 0.235,-0.726 0.639,-1.159 0.504,-0.517 1.231,-0.984 2.067,-0.984 0.502,0 0.884,0.185 0.884,0.702 v 0.013 z m 0.554,-2.35 c 0,0.517 -0.407,1.194 -1.181,1.194 -0.592,0 -0.984,-0.357 -0.984,-0.836 0,-0.726 0.504,-1.278 1.181,-1.278 0.504,0 0.984,0.282 0.984,0.909 v 0.011 z"
   id="path59"
   style="fill:#ffffff"
   inkscape:connector-curvature="0" />
<path
   d="m 46.263,31.047915 c 0,-1.328 0.996,-2.287 2.499,-2.287 0.479,0 0.846,0.11 1.094,0.22 0.257,0.1 0.392,0.162 0.492,0.162 0.345,0 1.034,-0.062 1.341,-0.062 0.16,0 0.32,0 0.32,0.135 0,0.075 -0.062,0.235 -0.123,0.382 -0.05,0.11 -0.087,0.185 -0.21,0.197 l -0.774,0.06 c 0.097,0.32 0.135,0.517 0.135,0.911 0,1.253 -0.886,2.349 -2.522,2.349 -0.479,0 -0.934,-0.197 -1.131,-0.247 -0.075,0.012 -0.147,0.112 -0.147,0.222 0,0.419 0.712,0.517 1.635,0.739 0.761,0.182 1.586,0.514 1.586,1.501 0,1.156 -1.241,2.065 -3.136,2.065 -1.77,0 -2.497,-0.749 -2.497,-1.476 0,-0.739 0.824,-0.984 1.366,-1.144 -0.27,-0.222 -0.407,-0.492 -0.407,-0.764 0,-0.662 0.529,-1.031 1.194,-1.413 -0.442,-0.432 -0.714,-0.849 -0.714,-1.538 v -0.012 z m 1.541,5.817 c 0.392,0 0.711,-0.207 0.711,-0.552 0,-0.407 -0.307,-0.567 -0.664,-0.689 -0.382,-0.11 -0.849,-0.21 -1.243,-0.444 -0.098,0.062 -0.17,0.222 -0.17,0.419 0,0.664 0.627,1.266 1.351,1.266 h 0.015 z m 1.573,-7.293 c 0,-0.16 -0.037,-0.32 -0.247,-0.32 -0.467,0 -1.191,2.472 -1.191,3.051 0,0.182 0.072,0.32 0.245,0.32 0.454,0 1.194,-2.35 1.194,-3.039 v -0.012 z"
   id="path61"
   style="fill:#ffffff"
   inkscape:connector-curvature="0" />
<path
   d="m 58.662,29.793915 c 0,0.185 -0.037,0.43 -0.123,0.702 -0.185,0.627 -0.529,1.401 -0.739,1.943 -0.135,0.32 -0.207,0.504 -0.207,0.579 0,0.06 0.035,0.135 0.135,0.135 0.21,0 0.517,-0.407 0.652,-0.617 0.245,-0.354 0.294,-0.614 0.479,-0.614 0.11,0 0.197,0.085 0.197,0.235 0,0.21 -0.247,0.737 -0.664,1.266 -0.517,0.639 -1.341,1.269 -2.362,1.269 -0.454,0 -0.799,-0.21 -0.799,-0.752 0,-0.272 0.097,-0.639 0.232,-1.071 0.197,-0.589 0.492,-1.278 0.689,-1.783 0.1,-0.245 0.185,-0.517 0.185,-0.614 0,-0.185 -0.098,-0.247 -0.207,-0.247 -0.285,0 -0.642,0.369 -1.159,1.316 -0.245,0.467 -0.799,1.895 -1.094,2.632 -0.123,0.31 -0.235,0.335 -0.837,0.335 h -0.896 c -0.334,0 -0.469,-0.05 -0.469,-0.172 0,-0.087 0.05,-0.247 0.075,-0.345 0.307,-0.886 0.687,-2.067 1.034,-3.101 0.085,-0.295 0.147,-0.492 0.147,-0.564 0,-0.1 -0.037,-0.137 -0.112,-0.137 -0.135,0 -0.357,0.247 -0.589,0.567 -0.172,0.27 -0.222,0.345 -0.357,0.345 -0.11,0 -0.185,-0.062 -0.185,-0.185 0,-0.207 0.235,-0.639 0.614,-1.071 0.507,-0.539 1.256,-1.081 2.005,-1.081 0.479,0 0.786,0.197 0.786,0.726 0,0.195 -0.035,0.395 -0.085,0.602 -0.085,0.345 -0.21,0.664 -0.295,0.934 l 0.025,0.025 c 0.577,-1.069 1.623,-2.287 2.901,-2.287 0.714,0 1.021,0.394 1.021,1.021 v 0.009 z"
   id="path63"
   style="fill:#ffffff"
   inkscape:connector-curvature="0" />
<path
   d="m 64.86,30.003915 c 0,1.341 -1.538,1.733 -2.682,1.942 -0.148,0.025 -0.247,0.037 -0.345,0.048 -0.062,0.235 -0.087,0.482 -0.087,0.717 0,0.479 0.15,0.871 0.604,0.871 0.529,0 0.994,-0.479 1.341,-0.924 0.16,-0.207 0.307,-0.464 0.442,-0.464 0.123,0 0.185,0.085 0.185,0.22 0,0.125 -0.1,0.37 -0.307,0.664 -0.479,0.689 -1.476,1.611 -2.867,1.611 -1.144,0 -1.77,-0.871 -1.77,-1.918 0,-1.905 1.733,-4.01 3.788,-4.01 0.812,0 1.698,0.285 1.698,1.231 v 0.012 z m -1.722,-0.677 c -0.382,0 -0.887,0.861 -1.241,2.177 0.527,-0.11 1.056,-0.764 1.313,-1.316 0.112,-0.247 0.175,-0.469 0.175,-0.617 0,-0.135 -0.1,-0.245 -0.235,-0.245 h -0.012 z"
   id="path65"
   style="fill:#ffffff"
   inkscape:connector-curvature="0" />
<path
   d="m 69.41,32.413915 c 0,0.664 -0.32,1.241 -0.849,1.648 -0.504,0.395 -1.194,0.627 -1.955,0.627 -0.467,0 -1.269,-0.11 -1.648,-0.429 -0.16,-0.125 -0.235,-0.272 -0.235,-0.454 0,-0.162 0.025,-0.444 0.085,-0.704 0.1,-0.342 0.272,-0.649 0.579,-0.649 0.172,0 0.295,0.097 0.429,0.307 0.322,0.479 0.517,1.388 1.021,1.388 0.26,0 0.357,-0.295 0.357,-0.514 0,-0.507 -0.369,-0.874 -0.761,-1.291 -0.395,-0.407 -0.777,-0.861 -0.777,-1.541 0,-1.228 1.181,-2.04 2.572,-2.04 0.492,0 1.66,0.035 1.66,0.674 0,0.137 -0.05,0.395 -0.135,0.642 -0.112,0.285 -0.282,0.529 -0.529,0.529 -0.357,0 -0.504,-0.332 -0.614,-0.664 -0.1,-0.332 -0.21,-0.667 -0.492,-0.667 -0.282,0 -0.407,0.285 -0.407,0.507 0,0.442 0.32,0.787 0.786,1.203 0.432,0.419 0.912,0.849 0.912,1.416 v 0.012 z"
   id="path67"
   style="fill:#ffffff"
   inkscape:connector-curvature="0" />
<path
   d="m 28.45,44.080915 c -0.123,0.517 -0.185,0.714 -0.185,0.774 0,0.112 0.135,0.137 0.664,0.137 0.567,0 0.949,-0.137 1.206,-0.357 0.417,-0.357 0.614,-0.874 0.849,-1.353 0.11,-0.222 0.185,-0.295 0.32,-0.295 0.207,0 0.27,0.097 0.27,0.282 0,0.11 -0.025,0.245 -0.062,0.419 -0.11,0.514 -0.329,1.216 -0.404,1.586 -0.06,0.32 -0.135,0.32 -0.677,0.32 -0.677,0 -1.758,-0.05 -3.148,-0.05 -1.244,0 -1.576,0.05 -1.968,0.05 -0.235,0 -0.382,-0.05 -0.382,-0.197 0,-0.232 0.197,-0.257 0.444,-0.307 0.22,-0.06 0.404,-0.16 0.514,-0.567 0.739,-2.716 1.146,-4.132 1.391,-4.956 0.122,-0.492 0.172,-0.652 0.172,-0.762 0,-0.272 -0.11,-0.382 -0.295,-0.407 -0.185,-0.048 -0.344,-0.073 -0.344,-0.282 0,-0.222 0.16,-0.307 0.479,-0.307 0.542,0 1.119,0.05 2.484,0.05 1.106,0 1.967,-0.05 2.459,-0.05 0.285,0 0.429,0.035 0.429,0.22 0,0.112 -0.245,0.886 -0.429,1.648 -0.085,0.357 -0.123,0.542 -0.404,0.542 -0.148,0 -0.247,-0.05 -0.285,-0.417 -0.012,-0.185 -0.012,-0.457 -0.048,-0.739 -0.037,-0.345 -0.297,-0.589 -0.886,-0.589 -0.357,0 -0.492,0 -0.592,0.037 -0.072,0.047 -0.11,0.207 -0.195,0.492 l -0.627,2.225 c 0.085,0.012 0.195,0.025 0.282,0.025 0.429,-0.012 0.677,-0.282 0.836,-0.627 0.16,-0.357 0.282,-0.639 0.529,-0.639 0.16,0 0.245,0.135 0.245,0.332 0,0.135 -0.085,0.404 -0.147,0.627 -0.222,0.664 -0.332,1.219 -0.479,1.883 -0.05,0.257 -0.1,0.354 -0.332,0.354 -0.197,0 -0.272,-0.135 -0.282,-0.32 0,-0.147 0.01,-0.307 0.01,-0.454 0,-0.345 -0.122,-0.504 -0.454,-0.504 h -0.382 l -0.576,2.176 z"
   id="path69"
   style="fill:#ffffff"
   inkscape:connector-curvature="0" />
<path
   d="m 38.633,40.637915 c 0,0.479 -0.185,1.034 -0.764,1.034 -0.148,0 -0.257,-0.012 -0.355,-0.075 -0.1,-0.06 -0.197,-0.147 -0.235,-0.282 -0.037,-0.075 -0.085,-0.122 -0.16,-0.122 -0.097,0 -0.22,0.085 -0.344,0.22 -0.21,0.247 -0.417,0.677 -0.454,0.789 0.012,0.122 0.11,0.392 0.294,0.996 0.185,0.627 0.21,0.799 0.37,0.799 0.21,0 0.344,-0.222 0.504,-0.567 0.097,-0.257 0.135,-0.37 0.269,-0.37 0.1,0 0.173,0.075 0.173,0.26 0,0.639 -0.909,2.422 -2.065,2.422 -0.37,0 -0.604,-0.27 -0.789,-0.639 -0.172,-0.37 -0.319,-0.846 -0.454,-1.303 -0.11,0.232 -0.504,1.021 -1.069,1.513 -0.272,0.245 -0.604,0.429 -0.959,0.429 -0.567,0 -0.814,-0.367 -0.814,-0.861 0,-0.465 0.197,-1.153 0.764,-1.153 0.27,0 0.392,0.085 0.479,0.257 0.035,0.097 0.06,0.185 0.11,0.32 0.025,0.147 0.085,0.21 0.222,0.21 0.27,0 0.614,-0.419 1.059,-1.243 -0.137,-0.529 -0.272,-1.046 -0.372,-1.363 -0.11,-0.42 -0.232,-0.654 -0.404,-0.654 -0.198,0 -0.357,0.247 -0.442,0.494 -0.125,0.27 -0.162,0.539 -0.345,0.539 -0.135,0 -0.185,-0.122 -0.185,-0.307 0,-0.614 0.849,-2.165 2.077,-2.165 0.617,0 0.824,0.16 1.021,0.776 0.1,0.257 0.197,0.564 0.32,0.969 0.849,-1.203 1.059,-1.745 1.76,-1.745 0.529,0 0.787,0.32 0.787,0.812 v 0.01 z"
   id="path71"
   style="fill:#ffffff"
   inkscape:connector-curvature="0" />
<path
   d="m 45.297,41.558915 c 0,0.936 -0.417,2.005 -1.144,2.794 -0.652,0.749 -1.538,1.228 -2.497,1.241 -0.504,0 -0.724,0.012 -0.871,0.087 -0.087,0.085 -0.175,0.429 -0.235,0.639 -0.125,0.417 -0.222,0.824 -0.222,1.021 0,0.27 0.272,0.345 0.542,0.392 0.26,0.062 0.529,0.1 0.529,0.295 0,0.272 -0.148,0.31 -0.567,0.31 -0.492,0 -1.094,-0.05 -1.708,-0.05 -0.752,0 -1.366,0.05 -1.6,0.05 -0.404,0 -0.602,-0.075 -0.602,-0.285 0,-0.27 0.207,-0.282 0.492,-0.307 0.295,-0.037 0.517,-0.097 0.627,-0.492 l 1.833,-6.025 c 0.062,-0.185 0.05,-0.272 -0.087,-0.272 -0.257,0 -0.589,0.172 -0.712,0.172 -0.085,0 -0.147,-0.012 -0.147,-0.135 0,-0.185 0.085,-0.32 0.219,-0.42 0.235,-0.185 0.639,-0.232 0.874,-0.295 0.097,-0.025 0.122,-0.085 0.172,-0.222 l 0.432,-1.363 c 0.073,-0.21 0.17,-0.285 0.37,-0.297 0.257,-0.012 0.564,-0.012 0.859,-0.012 h 0.751 c 0.135,0.012 0.195,0.075 0.195,0.185 0,0.05 -0.025,0.172 -0.06,0.295 -0.1,0.322 -0.21,0.689 -0.295,0.996 0.185,-0.01 0.37,-0.023 0.539,-0.035 0.185,-0.012 0.357,-0.012 0.517,-0.012 1.094,0 1.795,0.467 1.795,1.735 v 0.01 z m -2.729,-1.081 c -0.087,0 -0.185,0.048 -0.247,0.085 -0.06,0.075 -0.11,0.185 -0.147,0.297 -0.467,1.611 -0.774,2.569 -0.971,3.184 -0.16,0.579 -0.197,0.727 -0.197,0.824 0,0.137 0.062,0.197 0.197,0.197 0.32,0 0.714,-0.577 1.009,-1.194 0.454,-0.959 0.824,-2.212 0.824,-2.804 0,-0.392 -0.122,-0.589 -0.454,-0.589 h -0.014 z"
   id="path73"
   style="fill:#ffffff"
   inkscape:connector-curvature="0" />
<path
   d="m 51.422,40.772915 c 0,0.836 -0.567,1.685 -1.231,1.685 -0.135,0 -0.27,-0.037 -0.357,-0.087 -0.135,-0.085 -0.207,-0.22 -0.22,-0.417 -0.012,-0.31 -0.025,-0.357 -0.122,-0.357 -0.172,0 -0.419,0.417 -0.689,1.059 -0.197,0.479 -0.814,2.237 -0.984,2.594 -0.135,0.27 -0.16,0.307 -0.961,0.307 -1.031,0 -1.131,0 -1.131,-0.135 0,-0.097 0.037,-0.232 0.1,-0.432 0.197,-0.724 0.677,-2.237 0.921,-3.161 0.073,-0.305 0.135,-0.552 0.135,-0.639 0,-0.085 -0.037,-0.135 -0.097,-0.135 -0.135,0 -0.282,0.197 -0.479,0.517 -0.1,0.172 -0.172,0.32 -0.247,0.42 -0.06,0.072 -0.122,0.11 -0.185,0.11 -0.123,0 -0.172,-0.075 -0.172,-0.172 0,-0.222 0.235,-0.774 0.654,-1.266 0.392,-0.457 0.971,-0.849 1.645,-0.849 0.47,0 0.777,0.232 0.777,0.774 0,0.467 -0.147,1.009 -0.294,1.598 l 0.025,0.025 c 0.454,-0.836 1.006,-2.397 2.09,-2.397 0.567,0 0.824,0.392 0.824,0.946 v 0.012 z"
   id="path75"
   style="fill:#ffffff"
   inkscape:connector-curvature="0" />
<path
   d="m 56.65,41.055915 c 0,1.341 -1.538,1.735 -2.682,1.942 -0.148,0.025 -0.247,0.037 -0.345,0.05 -0.062,0.235 -0.087,0.479 -0.087,0.714 0,0.479 0.147,0.874 0.604,0.874 0.529,0 0.994,-0.479 1.341,-0.924 0.16,-0.21 0.307,-0.467 0.442,-0.467 0.123,0 0.185,0.085 0.185,0.22 0,0.125 -0.1,0.37 -0.307,0.667 -0.482,0.689 -1.476,1.61 -2.867,1.61 -1.144,0 -1.77,-0.874 -1.77,-1.92 0,-1.905 1.733,-4.01 3.788,-4.01 0.812,0 1.698,0.285 1.698,1.231 v 0.013 z m -1.723,-0.677 c -0.382,0 -0.887,0.861 -1.244,2.177 0.529,-0.11 1.059,-0.764 1.316,-1.316 0.112,-0.247 0.175,-0.467 0.175,-0.614 0,-0.135 -0.1,-0.247 -0.235,-0.247 h -0.012 z"
   id="path77"
   style="fill:#ffffff"
   inkscape:connector-curvature="0" />
<path
   d="m 61.199,43.465915 c 0,0.664 -0.32,1.244 -0.849,1.648 -0.504,0.395 -1.194,0.627 -1.955,0.627 -0.467,0 -1.269,-0.11 -1.648,-0.429 -0.16,-0.122 -0.235,-0.272 -0.235,-0.454 0,-0.162 0.025,-0.442 0.087,-0.702 0.097,-0.345 0.27,-0.652 0.577,-0.652 0.172,0 0.297,0.097 0.432,0.307 0.32,0.479 0.517,1.391 1.019,1.391 0.26,0 0.359,-0.297 0.359,-0.517 0,-0.504 -0.369,-0.874 -0.764,-1.291 -0.392,-0.407 -0.774,-0.861 -0.774,-1.541 0,-1.228 1.179,-2.04 2.569,-2.04 0.492,0 1.66,0.037 1.66,0.677 0,0.135 -0.05,0.394 -0.135,0.639 -0.11,0.285 -0.282,0.529 -0.529,0.529 -0.357,0 -0.504,-0.332 -0.614,-0.664 -0.097,-0.332 -0.21,-0.664 -0.492,-0.664 -0.282,0 -0.407,0.282 -0.407,0.504 0,0.442 0.32,0.787 0.786,1.203 0.432,0.419 0.912,0.849 0.912,1.416 v 0.013 z"
   id="path79"
   style="fill:#ffffff"
   inkscape:connector-curvature="0" />
<path
   d="m 66.241,43.465915 c 0,0.664 -0.32,1.244 -0.849,1.648 -0.504,0.395 -1.194,0.627 -1.955,0.627 -0.467,0 -1.269,-0.11 -1.648,-0.429 -0.16,-0.122 -0.235,-0.272 -0.235,-0.454 0,-0.162 0.025,-0.442 0.087,-0.702 0.097,-0.345 0.27,-0.652 0.577,-0.652 0.172,0 0.295,0.097 0.429,0.307 0.322,0.479 0.519,1.391 1.021,1.391 0.26,0 0.359,-0.297 0.359,-0.517 0,-0.504 -0.372,-0.874 -0.764,-1.291 -0.395,-0.407 -0.777,-0.861 -0.777,-1.541 0,-1.228 1.181,-2.04 2.572,-2.04 0.492,0 1.66,0.037 1.66,0.677 0,0.135 -0.05,0.394 -0.135,0.639 -0.112,0.285 -0.282,0.529 -0.529,0.529 -0.357,0 -0.504,-0.332 -0.614,-0.664 -0.1,-0.332 -0.21,-0.664 -0.492,-0.664 -0.282,0 -0.407,0.282 -0.407,0.504 0,0.442 0.32,0.787 0.786,1.203 0.432,0.419 0.912,0.849 0.912,1.416 v 0.013 z"
   id="path81"
   style="fill:#ffffff"
   inkscape:connector-curvature="0" />
<path
   d="m 11.866,50.533915 c 0,0.986 -0.567,1.638 -1.441,1.992 -0.319,0.137 -0.689,0.235 -1.059,0.285 v 0.025 c 0.529,0.06 0.764,0.147 0.949,0.724 0.135,0.42 0.257,1.024 0.407,1.908 0.073,0.419 0.22,0.577 0.429,0.664 0.173,0.062 0.307,0.072 0.307,0.257 0,0.185 -0.172,0.26 -0.442,0.26 -0.357,0 -0.774,-0.05 -1.219,-0.05 -0.517,0 -0.836,0.05 -1.181,0.05 -0.16,0 -0.257,-0.075 -0.307,-0.382 -0.11,-0.849 -0.222,-1.71 -0.332,-2.559 -0.062,-0.354 -0.172,-0.454 -0.307,-0.467 -0.085,0 -0.173,0.012 -0.235,0.037 -0.05,0.062 -0.075,0.16 -0.11,0.307 l -0.43,1.635 c -0.085,0.332 -0.122,0.517 -0.122,0.579 0,0.207 0.185,0.235 0.332,0.27 0.16,0.037 0.32,0.075 0.32,0.285 0,0.245 -0.22,0.295 -0.417,0.295 -0.529,0 -1.169,-0.05 -1.82,-0.05 -0.529,0 -1.084,0.05 -1.341,0.05 -0.235,0 -0.454,-0.025 -0.454,-0.235 0,-0.21 0.17,-0.247 0.404,-0.282 0.222,-0.05 0.394,-0.11 0.492,-0.429 0.504,-1.798 1.009,-3.581 1.513,-5.363 0.06,-0.222 0.1,-0.37 0.1,-0.504 0,-0.247 -0.137,-0.322 -0.322,-0.382 -0.182,-0.037 -0.367,-0.075 -0.367,-0.282 0,-0.235 0.219,-0.31 0.514,-0.31 0.517,0 1.059,0.05 2.017,0.05 0.752,0 1.466,-0.05 2.265,-0.05 1.094,0 1.858,0.469 1.858,1.663 v 0.009 z m -2.571,-0.27 c 0,-0.554 -0.222,-0.799 -0.602,-0.799 -0.285,0 -0.319,0.207 -0.382,0.429 l -0.614,2.177 c -0.05,0.172 -0.1,0.382 -0.11,0.492 0.01,0.062 0.06,0.087 0.17,0.087 0.357,0 0.714,-0.272 0.996,-0.664 0.319,-0.467 0.542,-1.109 0.542,-1.71 v -0.012 z"
   id="path83"
   style="fill:#ffffff"
   inkscape:connector-curvature="0" />
<path
   d="m 17.412,52.108915 c 0,1.341 -1.538,1.735 -2.682,1.945 -0.148,0.023 -0.247,0.035 -0.345,0.048 -0.062,0.235 -0.087,0.479 -0.087,0.714 0,0.479 0.147,0.871 0.604,0.871 0.527,0 0.996,-0.477 1.341,-0.921 0.16,-0.21 0.307,-0.467 0.442,-0.467 0.123,0 0.185,0.085 0.185,0.222 0,0.122 -0.1,0.37 -0.307,0.664 -0.482,0.689 -1.478,1.611 -2.867,1.611 -1.144,0 -1.77,-0.874 -1.77,-1.918 0,-1.908 1.733,-4.01 3.788,-4.01 0.812,0 1.698,0.282 1.698,1.228 v 0.013 z m -1.723,-0.677 c -0.382,0 -0.884,0.861 -1.244,2.177 0.529,-0.11 1.059,-0.762 1.318,-1.316 0.11,-0.247 0.173,-0.467 0.173,-0.614 0,-0.135 -0.1,-0.247 -0.235,-0.247 h -0.012 z m -0.676,-1.291 c -0.073,0 -0.135,-0.037 -0.135,-0.135 0,-0.112 0.135,-0.247 0.295,-0.407 l 1.253,-1.291 c 0.26,-0.257 0.494,-0.42 0.799,-0.42 0.322,0 0.617,0.172 0.617,0.554 0,0.345 -0.222,0.542 -0.529,0.689 l -1.623,0.739 c -0.26,0.122 -0.529,0.27 -0.664,0.27 h -0.013 z"
   id="path85"
   style="fill:#ffffff"
   inkscape:connector-curvature="0" />
<path
   d="m 17.977,53.153915 c 0,-1.328 0.994,-2.287 2.497,-2.287 0.479,0 0.846,0.11 1.094,0.22 0.26,0.1 0.395,0.162 0.492,0.162 0.345,0 1.034,-0.062 1.341,-0.062 0.16,0 0.32,0 0.32,0.135 0,0.075 -0.06,0.235 -0.123,0.382 -0.05,0.11 -0.087,0.185 -0.21,0.197 l -0.774,0.062 c 0.097,0.317 0.135,0.514 0.135,0.909 0,1.253 -0.886,2.349 -2.522,2.349 -0.479,0 -0.934,-0.197 -1.131,-0.247 -0.075,0.012 -0.147,0.112 -0.147,0.222 0,0.419 0.712,0.517 1.635,0.739 0.761,0.182 1.586,0.514 1.586,1.498 0,1.156 -1.241,2.067 -3.136,2.067 -1.77,0 -2.497,-0.752 -2.497,-1.476 0,-0.739 0.824,-0.984 1.366,-1.144 -0.27,-0.222 -0.407,-0.492 -0.407,-0.764 0,-0.664 0.529,-1.031 1.194,-1.413 -0.442,-0.432 -0.712,-0.849 -0.712,-1.538 v -0.011 z m 1.538,5.818 c 0.392,0 0.711,-0.21 0.711,-0.552 0,-0.407 -0.307,-0.567 -0.664,-0.689 -0.382,-0.11 -0.849,-0.21 -1.243,-0.444 -0.098,0.062 -0.17,0.222 -0.17,0.419 0,0.664 0.627,1.266 1.351,1.266 h 0.015 z m 1.573,-7.294 c 0,-0.16 -0.037,-0.32 -0.247,-0.32 -0.467,0 -1.191,2.472 -1.191,3.051 0,0.182 0.072,0.32 0.245,0.32 0.454,0 1.194,-2.35 1.194,-3.039 v -0.012 z"
   id="path87"
   style="fill:#ffffff"
   inkscape:connector-curvature="0" />
<path
   d="m 27.052,51.579915 c 0,0.172 -0.085,0.529 -0.232,0.924 -0.15,0.489 -0.382,1.081 -0.554,1.536 -0.16,0.432 -0.282,0.764 -0.282,0.886 0,0.087 0.05,0.16 0.147,0.16 0.147,0 0.369,-0.295 0.539,-0.589 0.235,-0.407 0.247,-0.592 0.394,-0.592 0.1,0 0.172,0.085 0.172,0.21 0,0.245 -0.185,0.724 -0.504,1.206 -0.492,0.724 -1.303,1.476 -2.25,1.476 -0.592,0 -0.909,-0.297 -0.909,-0.874 0,-0.235 0.098,-0.629 0.232,-1.056 0.182,-0.592 0.442,-1.268 0.614,-1.735 0.135,-0.37 0.232,-0.642 0.232,-0.714 0,-0.11 -0.047,-0.16 -0.135,-0.16 -0.147,0 -0.354,0.295 -0.504,0.517 -0.16,0.235 -0.294,0.417 -0.392,0.417 -0.11,0 -0.16,-0.097 -0.16,-0.182 0,-0.247 0.232,-0.726 0.639,-1.159 0.504,-0.514 1.231,-0.981 2.067,-0.981 0.502,0 0.884,0.182 0.884,0.699 v 0.011 z m 0.554,-2.35 c 0,0.517 -0.407,1.194 -1.181,1.194 -0.592,0 -0.984,-0.357 -0.984,-0.836 0,-0.726 0.504,-1.278 1.181,-1.278 0.504,0 0.984,0.282 0.984,0.909 v 0.011 z"
   id="path89"
   style="fill:#ffffff"
   inkscape:connector-curvature="0" />
<path
   d="m 33.521,53.239915 c 0,0.936 -0.345,1.798 -0.934,2.449 -0.627,0.687 -1.513,1.106 -2.547,1.106 -1.538,0 -2.399,-1.106 -2.399,-2.522 0,-1.893 1.538,-3.406 3.433,-3.406 1.488,0 2.447,0.909 2.447,2.36 v 0.013 z m -1.968,-1.426 c 0,-0.21 -0.073,-0.357 -0.232,-0.357 -0.335,0 -0.604,0.467 -1.021,1.673 -0.197,0.529 -0.689,2.215 -0.689,2.707 0,0.235 0.073,0.367 0.245,0.367 0.32,0 0.592,-0.479 1.021,-1.683 0.173,-0.504 0.677,-2.177 0.677,-2.694 v -0.013 z"
   id="path91"
   style="fill:#ffffff"
   inkscape:connector-curvature="0" />
<path
   d="m 41.011,51.898915 c 0,0.185 -0.037,0.432 -0.123,0.702 -0.185,0.627 -0.529,1.403 -0.739,1.945 -0.135,0.32 -0.21,0.502 -0.21,0.577 0,0.06 0.037,0.135 0.135,0.135 0.21,0 0.519,-0.404 0.654,-0.614 0.245,-0.357 0.294,-0.617 0.479,-0.617 0.11,0 0.195,0.087 0.195,0.235 0,0.21 -0.245,0.739 -0.662,1.268 -0.517,0.637 -1.344,1.266 -2.362,1.266 -0.454,0 -0.801,-0.21 -0.801,-0.752 0,-0.27 0.1,-0.639 0.235,-1.069 0.197,-0.592 0.492,-1.281 0.689,-1.783 0.097,-0.247 0.185,-0.519 0.185,-0.617 0,-0.185 -0.098,-0.245 -0.21,-0.245 -0.282,0 -0.639,0.367 -1.156,1.316 -0.247,0.467 -0.799,1.893 -1.094,2.632 -0.123,0.307 -0.235,0.332 -0.839,0.332 h -0.896 c -0.332,0 -0.467,-0.05 -0.467,-0.172 0,-0.085 0.05,-0.245 0.073,-0.345 0.307,-0.886 0.689,-2.067 1.034,-3.101 0.087,-0.295 0.148,-0.489 0.148,-0.564 0,-0.097 -0.035,-0.135 -0.11,-0.135 -0.135,0 -0.357,0.245 -0.589,0.564 -0.175,0.272 -0.222,0.345 -0.357,0.345 -0.112,0 -0.185,-0.06 -0.185,-0.185 0,-0.207 0.232,-0.639 0.614,-1.069 0.504,-0.542 1.256,-1.081 2.005,-1.081 0.479,0 0.786,0.195 0.786,0.724 0,0.197 -0.035,0.395 -0.085,0.602 -0.087,0.345 -0.21,0.664 -0.295,0.936 l 0.025,0.025 c 0.577,-1.071 1.623,-2.287 2.901,-2.287 0.714,0 1.021,0.392 1.021,1.019 v 0.013 z"
   id="path93"
   style="fill:#ffffff"
   inkscape:connector-curvature="0" />
<path
   d="m 41.601,55.539915 c 0,-0.984 0.502,-2.115 1.191,-3.001 0.702,-0.871 1.6,-1.511 2.349,-1.511 0.554,0 0.727,0.245 0.959,0.245 0.112,0 0.172,-0.097 0.247,-0.21 0.075,-0.172 0.27,-0.195 0.492,-0.195 h 1.131 c 0.247,0 0.419,0.035 0.419,0.307 0,0.097 -0.05,0.332 -0.147,0.639 -0.21,0.712 -0.592,1.808 -0.802,2.519 -0.085,0.31 -0.135,0.532 -0.135,0.639 0,0.125 0.037,0.175 0.135,0.175 0.135,0 0.307,-0.175 0.529,-0.529 0.235,-0.37 0.307,-0.529 0.432,-0.529 0.122,0 0.185,0.075 0.185,0.197 0,0.32 -0.344,0.946 -0.886,1.488 -0.517,0.554 -1.219,1.021 -1.942,1.021 -0.529,0 -0.727,-0.26 -0.727,-0.639 0,-0.172 0.025,-0.37 0.05,-0.542 0.072,-0.394 0.17,-0.886 0.232,-1.096 l -0.025,-0.012 c -0.602,1.024 -1.438,2.29 -2.594,2.29 -0.799,0 -1.094,-0.479 -1.094,-1.243 v -0.013 z m 4.415,-3.578 c 0,-0.097 -0.075,-0.197 -0.222,-0.197 -0.232,0 -0.527,0.26 -0.921,0.946 -0.639,1.193 -0.862,1.748 -0.862,1.958 0,0.16 0.087,0.232 0.21,0.232 0.245,0 0.699,-0.567 1.081,-1.206 0.382,-0.652 0.714,-1.378 0.714,-1.72 v -0.013 z"
   id="path95"
   style="fill:#ffffff"
   inkscape:connector-curvature="0" />
<path
   d="m 48.966,55.909915 c 0,-0.307 0.11,-0.811 0.282,-1.438 0.32,-1.181 0.837,-2.757 1.181,-3.815 0.15,-0.467 0.235,-0.787 0.235,-0.896 0,-0.32 -0.172,-0.382 -0.407,-0.432 -0.172,-0.035 -0.357,-0.072 -0.357,-0.257 0,-0.232 0.135,-0.257 0.604,-0.32 0.711,-0.1 1.475,-0.26 2.14,-0.492 0.245,-0.087 0.37,-0.122 0.479,-0.122 0.135,0 0.197,0.072 0.197,0.16 0,0.085 -0.05,0.27 -0.137,0.517 -0.345,1.169 -1.144,3.615 -1.598,5.154 -0.16,0.539 -0.27,0.921 -0.27,1.031 0,0.125 0.06,0.185 0.16,0.185 0.148,0 0.392,-0.22 0.664,-0.687 0.172,-0.322 0.185,-0.444 0.332,-0.444 0.122,0 0.172,0.075 0.172,0.21 0,0.22 -0.21,0.677 -0.542,1.144 -0.504,0.689 -1.316,1.391 -2.252,1.391 -0.614,0 -0.884,-0.357 -0.884,-0.874 v -0.015 z"
   id="path97"
   style="fill:#ffffff"
   inkscape:connector-curvature="0" />
<path
   d="m 58.523,52.108915 c 0,1.341 -1.538,1.735 -2.682,1.942 -0.148,0.025 -0.247,0.037 -0.345,0.05 -0.062,0.232 -0.087,0.479 -0.087,0.714 0,0.479 0.15,0.871 0.604,0.871 0.529,0 0.996,-0.477 1.341,-0.921 0.16,-0.21 0.307,-0.467 0.442,-0.467 0.123,0 0.185,0.085 0.185,0.22 0,0.125 -0.097,0.37 -0.307,0.664 -0.482,0.692 -1.476,1.613 -2.867,1.613 -1.144,0 -1.77,-0.874 -1.77,-1.92 0,-1.905 1.735,-4.01 3.788,-4.01 0.812,0 1.698,0.285 1.698,1.231 v 0.013 z m -1.723,-0.676 c -0.382,0 -0.887,0.861 -1.241,2.177 0.527,-0.11 1.056,-0.764 1.316,-1.316 0.11,-0.247 0.173,-0.469 0.173,-0.614 0,-0.135 -0.1,-0.247 -0.235,-0.247 H 56.8 z"
   id="path99"
   style="fill:#ffffff"
   inkscape:connector-curvature="0" />
<path
   d="m 63.072,54.519915 c 0,0.664 -0.32,1.244 -0.849,1.648 -0.504,0.395 -1.194,0.627 -1.955,0.627 -0.467,0 -1.269,-0.11 -1.648,-0.429 -0.16,-0.125 -0.235,-0.272 -0.235,-0.454 0,-0.162 0.025,-0.444 0.087,-0.702 0.097,-0.345 0.27,-0.652 0.577,-0.652 0.172,0 0.295,0.097 0.429,0.307 0.322,0.479 0.519,1.388 1.021,1.388 0.26,0 0.359,-0.295 0.359,-0.514 0,-0.504 -0.369,-0.874 -0.764,-1.291 -0.395,-0.407 -0.777,-0.861 -0.777,-1.541 0,-1.228 1.181,-2.04 2.572,-2.04 0.492,0 1.66,0.037 1.66,0.677 0,0.135 -0.047,0.392 -0.135,0.639 -0.11,0.285 -0.282,0.529 -0.529,0.529 -0.357,0 -0.504,-0.332 -0.614,-0.664 -0.097,-0.332 -0.21,-0.664 -0.492,-0.664 -0.282,0 -0.407,0.282 -0.407,0.504 0,0.442 0.32,0.787 0.786,1.203 0.432,0.419 0.912,0.849 0.912,1.416 v 0.013 z"
   id="path101"
   style="fill:#ffffff"
   inkscape:connector-curvature="0" />
<rect
   x="1.33"
   y="63.791916"
   width="162.981"
   height="2.799"
   id="rect103"
   style="fill:#ffffff" />
<rect
   x="1.33"
   y="63.778946"
   width="162.981"
   height="5.6159658"
   id="rect105"
   style="fill:#ffffff" />
</svg>