<svg xmlns="http://www.w3.org/2000/svg" viewBox="0 0 304 114">
  <style type="text/css">
    .st0 { fill:#FFFFFF; }
    .st1 { fill:#FFFFFF; }
  </style>
  <path class="st0" d="M193.57 40.24c5.37 0 6.93 3.95 5.5 10.68-1.43 6.73-4.66 10.62-10.04 10.62-5.31 0-6.8-3.88-5.37-10.62 1.42-6.73 4.6-10.68 9.91-10.68m34.74-7.15h-19.93v-.01h-8.22v.01h-2.9c-.99-.13-2.03-.23-3.17-.23-10.94 0-16.96 7.71-18.91 16.9-.72 3.38-.88 6.6-.33 9.42-.33.68-.76 1.05-1.15 1.24l-.88.24c-1 .22-2.15.34-3.09.52-.34.06-1.24.21-1.36.23-.92.12-1.61.2-1.61.2h-.13c-1.16 0-1.62-.78-1.3-2.46l5.05-23.76c.26-1.36 0-1.75-1.3-1.75h-4.73c-1.29 0-1.75.39-2.01 1.75l-3.11 14.57c-1.62 7.58-5.18 11.91-10.49 11.91-3.76 0-4.6-2.39-3.95-5.57l4.47-20.91c.26-1.36 0-1.75-1.29-1.75h-4.73c-1.29 0-1.81.39-2.07 1.75l-1.81 8.55-2.85 13.08c-.14.63-.23 1.22-.31 1.79-.04.11-.09.22-.13.36-.39 1.55-3.41 1.63-5.43 2.02-.98.19-1.62.27-2.02.3-.72-.3-.95-1.19-.64-2.78l8.16-38.27c.32-1.42.06-1.75-1.23-1.75h-4.73c-1.29 0-1.75.32-2.07 1.75l-8.68 40.79c-.91 4.34.65 6.18 2.79 6.85.3.19.67.31 1.14.35.55.04 1.32.03 2.23-.03 1.33-.03 2.22-.11 2.92-.25 4.21-.44 9.21-1.23 10.06-1.37 1.67 1.25 4.09 1.76 6.99 1.76 4.4 0 8.29-1.16 11.01-4.21.32 3.3 2.98 4.08 5.44 4.08h.31c.04 0 .07.01.11.02 2.12.17 7.5-.51 11.29-1.05v.01l.97-.15c1.82-.27 3.08-.47 3.08-.47l1.57-.24c2.19 1.53 5.2 2.41 9.16 2.41 11.01 0 17.09-8.03 19.1-17.42.91-4.31.87-8.33-.45-11.52h19.69c1.18-.01 1.71-.47 1.9-1.39l.93-4.24c.23-1.08-.1-1.28-1.36-1.28"/>
  <path class="st1" d="M190.07 89.27h6.56v3.28h-6.56zM114.74 84.38v-.05c0-4.77 3.71-8.67 8.8-8.67 3.02 0 4.84.81 6.59 2.3l-2.32 2.8c-1.29-1.08-2.44-1.7-4.39-1.7-2.68 0-4.82 2.37-4.82 5.22v.05c0 3.07 2.11 5.32 5.08 5.32 1.34 0 2.54-.33 3.48-1.01v-2.4h-3.72v-3.19h7.29v7.29c-1.72 1.46-4.1 2.66-7.17 2.66-5.22 0-8.82-3.66-8.82-8.62M132.7 79.87h3.64v2.59c.74-1.77 1.94-2.92 4.1-2.83v3.81h-.19c-2.42 0-3.91 1.46-3.91 4.53v4.74h-3.64V79.87zM148.51 88.19v-.65c-.62-.29-1.44-.48-2.33-.48-1.56 0-2.52.62-2.52 1.78v.05c0 .98.82 1.56 1.99 1.56 1.71-.01 2.86-.94 2.86-2.26m-8.36.84v-.05c0-2.8 2.13-4.1 5.18-4.1 1.29 0 2.23.22 3.14.53v-.22c0-1.51-.93-2.35-2.75-2.35-1.39 0-2.37.26-3.55.7l-.91-2.78c1.41-.62 2.8-1.03 4.99-1.03 1.99 0 3.43.53 4.34 1.44.96.96 1.39 2.37 1.39 4.1v7.45h-3.52v-1.39c-.89.98-2.11 1.63-3.88 1.63-2.44 0-4.43-1.39-4.43-3.93M153.9 79.87h3.64v1.82c.84-1.08 1.92-2.06 3.76-2.06 2.75 0 4.36 1.82 4.36 4.77v8.31h-3.64v-7.17c0-1.73-.82-2.61-2.21-2.61-1.39 0-2.28.89-2.28 2.61v7.17h-3.64V79.87zM176.96 86.32v-.05c0-2.13-1.41-3.55-3.12-3.55-1.7 0-3.14 1.39-3.14 3.55v.05c0 2.13 1.44 3.55 3.14 3.55 1.71 0 3.12-1.42 3.12-3.55m-9.9 0v-.05c0-4.29 2.8-6.64 5.85-6.64 1.94 0 3.14.89 4 1.92v-6.33h3.64v17.49h-3.64v-1.84c-.89 1.2-2.11 2.08-4 2.08-2.99.01-5.85-2.34-5.85-6.63M198.34 90.85l1.56-2.4c1.39 1.01 2.85 1.53 4.05 1.53 1.05 0 1.53-.38 1.53-.96v-.05c0-.79-1.25-1.05-2.66-1.49-1.8-.53-3.83-1.37-3.83-3.86v-.05c0-2.61 2.11-4.07 4.7-4.07 1.63 0 3.4.55 4.79 1.49l-1.39 2.52c-1.27-.74-2.54-1.2-3.47-1.2-.89 0-1.34.39-1.34.89v.05c0 .72 1.22 1.05 2.61 1.53 1.8.6 3.88 1.46 3.88 3.81v.05c0 2.85-2.13 4.14-4.91 4.14-1.8.01-3.82-.59-5.52-1.93M210.54 88.91v-6.09h-1.53v-3.11h1.53v-3.28h3.64v3.28h3.02v3.11h-3.02v5.49c0 .84.36 1.25 1.18 1.25.67 0 1.27-.17 1.8-.46v2.92c-.77.46-1.65.74-2.88.74-2.23.01-3.74-.88-3.74-3.85M190.18 82.47h6.56v3.28h-6.56zM190.18 75.78h6.56v3.28h-6.56zM185.17 75.78h3.69v16.77h-3.69z"/>
  <g>
    <path class="st0" d="M123.72 18.32c-1.39-.6-3.98-1.59-8.42-1.59-8.69 0-13.07 4.64-14.92 13.33l-.66 3.32h-4.25c-.99 0-1.46.53-1.72 1.73l-.8 3.71c-.27 1.33.07 1.46 1.46 1.46h3.78l-6.9 32.5c-.86 3.92-2.4 5.99-5.04 5.9-.13-.01-.27.03-.42.08h-4.14v-.01l-1.9.01c-1 0-1.46.53-1.72 1.72l-.8 3.71c-.26 1.28.05 1.45 1.32 1.46h8.29c.14 0 .25-.03.37-.04 6.7-.17 10.51-4.42 11.87-10.91l7.3-34.43h6.7c1.19 0 1.73-.46 1.92-1.39l.93-4.25c.2-1.06-.13-1.26-1.39-1.26h-6.63l.53-2.65c1.13-5.37 3.38-7.36 6.9-7.36 3.25 0 4.51.53 6.5 1.33.73.33 1.26.33 1.53-.8l.86-4.05c.19-.99.12-1.26-.55-1.52"/>
  </g>
</svg>