<?xml version="1.0" encoding="UTF-8" standalone="no"?>
<!-- Created with Inkscape (http://www.inkscape.org/) -->

<svg
   xmlns:dc="http://purl.org/dc/elements/1.1/"
   xmlns:cc="http://creativecommons.org/ns#"
   xmlns:rdf="http://www.w3.org/1999/02/22-rdf-syntax-ns#"
   xmlns:svg="http://www.w3.org/2000/svg"
   xmlns="http://www.w3.org/2000/svg"
   xmlns:sodipodi="http://sodipodi.sourceforge.net/DTD/sodipodi-0.dtd"
   xmlns:inkscape="http://www.inkscape.org/namespaces/inkscape"
   id="svg2"
   version="1.1"
   inkscape:version="0.91 r13725"
   xml:space="preserve"
   width="1529"
   height="440"
   viewBox="0 0 1528.9999 440.00002"
   sodipodi:docname="Rémi Centre Val Loire 2019.svg"><metadata
     id="metadata8"><rdf:RDF><cc:Work
         rdf:about=""><dc:format>image/svg+xml</dc:format><dc:type
           rdf:resource="http://purl.org/dc/dcmitype/StillImage" /><dc:title></dc:title></cc:Work></rdf:RDF></metadata><defs
     id="defs6"><linearGradient
       x1="0"
       y1="0"
       x2="1"
       y2="0"
       gradientUnits="userSpaceOnUse"
       gradientTransform="matrix(588.99899,0,0,-588.99899,-434.82699,910.27484)"
       spreadMethod="pad"
       id="linearGradient128"><stop
         style="stop-opacity:1;stop-color:#FFFFFF"
         offset="0"
         id="stop130" /><stop
         style="stop-opacity:1;stop-color:#FFFFFF"
         offset="0.247191"
         id="stop132" /><stop
         style="stop-opacity:1;stop-color:#FFFFFF"
         offset="0.814607"
         id="stop134" /><stop
         style="stop-opacity:1;stop-color:#FFFFFF"
         offset="1"
         id="stop136" /></linearGradient><clipPath
       clipPathUnits="userSpaceOnUse"
       id="clipPath144"><path
         d="m 0,0 311.811,0 0,510.236 -311.811,0 z"
         id="path146"
         inkscape:connector-curvature="0" /></clipPath></defs><sodipodi:namedview
     pagecolor="#ffffff"
     bordercolor="#FFFFFF"
     borderopacity="1"
     objecttolerance="10"
     gridtolerance="10"
     guidetolerance="10"
     inkscape:pageopacity="0"
     inkscape:pageshadow="2"
     inkscape:window-width="1440"
     inkscape:window-height="788"
     id="namedview4"
     showgrid="false"
     inkscape:zoom="0.12485551"
     inkscape:cx="665.34447"
     inkscape:cy="1207.4872"
     inkscape:window-x="0"
     inkscape:window-y="1"
     inkscape:window-maximized="1"
     inkscape:current-layer="g10" /><g
     id="g10"
     inkscape:groupmode="layer"
     inkscape:label="Logo TER Rémi Centre Val Loire"
     transform="matrix(1.25,0,0,-1.25,0,440.00005)"><g
       id="g8299"
       transform="matrix(0.99552131,0,0,0.99552131,-198.47019,-562.13543)"><g
         id="g8213"><path
           inkscape:connector-curvature="0"
           id="path2058"
           style="fill:#FFFFFF;fill-opacity:1;fill-rule:nonzero;stroke:none"
           d="m 515.48827,601.25184 -1.73266,-8.06448 3.45777,0.0113 c 2.50574,-0.006 4.11643,1.265 4.71064,4.0301 0.59334,2.75516 -0.48218,4.02874 -2.98381,4.02488 l -3.45194,-0.002 z m 7.19146,-20.80212 c -0.16045,-0.75653 -0.8609,-1.33631 -2.45691,-1.33842 -1.60594,-10e-4 -2.05699,0.56802 -1.89612,1.32951 l 0.45314,2.11695 c 0.93987,4.39107 0.25401,6.93165 -2.50711,6.93521 l -3.30751,-0.009 -1.94718,-9.04146 c -0.15591,-0.76192 -0.86133,-1.34128 -2.46231,-1.34296 -1.60097,-0.002 -2.05202,0.56759 -1.89029,1.33902 l 4.96126,23.13335 c 0.17681,0.83015 0.65946,1.37873 1.68058,1.38552 l 6.78881,0.003 c 4.72305,0.007 7.29616,-2.57671 6.20143,-7.65976 -0.61573,-2.89831 -2.40606,-4.9747 -4.71951,-6.10041 2.07033,-1.33956 2.59165,-3.81589 1.83399,-7.37227 l -0.73227,-3.37849 z" /><path
           inkscape:connector-curvature="0"
           id="path2062"
           style="fill:#FFFFFF;fill-opacity:1;fill-rule:nonzero;stroke:none"
           d="m 544.15433,613.30268 0.63436,0.22031 c 0.72515,-0.003 1.41129,-0.97744 1.29112,-1.55736 l -0.43551,-0.69774 -4.40344,-3.60141 -0.6294,-0.22074 c -0.72514,0.003 -1.43071,0.98412 -1.30558,1.56361 l 0.44004,0.69234 4.40841,3.60099 z m -14.1711,-33.89822 c -0.83568,-0.003 -1.09111,0.51454 -0.88953,1.45761 l 4.87083,22.66592 c 0.20158,0.94308 0.66547,1.44826 1.49618,1.45149 l 12.03214,0.0104 c 0.69039,3.5e-4 1.05139,-0.51111 0.76538,-1.85209 -0.29183,-1.35049 -0.87078,-1.85573 -1.56074,-1.85112 l -8.86041,-0.009 -1.45806,-6.79756 7.95436,0.003 c 0.69039,3.5e-4 1.05268,-0.49621 0.76085,-1.84669 -0.29055,-1.33559 -0.86539,-1.85119 -1.56074,-1.85112 l -7.95026,-0.0131 -1.64198,-7.65211 9.04542,0.009 c 0.68543,7.8e-4 1.05635,-0.51153 0.76538,-1.85209 -0.2914,-1.34552 -0.87121,-1.86069 -1.5616,-1.86105 l -12.20722,-0.0103 z" /><path
           inkscape:connector-curvature="0"
           id="path2066"
           style="fill:#FFFFFF;fill-opacity:1;fill-rule:nonzero;stroke:none"
           d="m 549.77574,586.32873 c 0.16584,0.76107 0.87169,1.34538 2.47267,1.34706 1.59601,0.002 2.05073,-0.58248 1.88489,-1.34354 l -0.0248,-0.11292 c -0.43547,-2.02843 0.98708,-3.51211 3.31816,-3.51351 2.32116,-5.4e-4 4.08449,1.24275 4.51844,3.31133 0.45982,2.13638 -0.69153,3.51657 -4.26323,4.67576 -4.06659,1.33704 -6.15909,3.80911 -5.34779,7.58097 0.95066,4.40015 4.99055,7.15254 9.53356,7.16003 5.12286,0.002 7.46448,-3.29162 6.7292,-6.70487 l -0.11263,-0.55055 c -0.16541,-0.7561 -0.87623,-1.33999 -2.47224,-1.3421 -1.60054,0.003 -2.05116,0.57752 -1.89029,1.33901 l 0.0416,0.19151 c 0.39974,1.84642 -0.76939,3.36822 -3.09055,3.36877 -2.10678,-0.008 -3.84295,-1.16858 -4.26746,-3.12792 -0.35792,-1.70997 0.61087,-3.23446 4.02974,-4.42546 4.38254,-1.55945 6.55579,-3.61829 5.63897,-7.9163 -0.92546,-4.28227 -4.57947,-7.25811 -9.83811,-7.26878 -5.2375,0.003 -7.69663,3.44177 -6.92818,7.00722 l 0.0681,0.32429 z" /><path
           inkscape:connector-curvature="0"
           id="path2070"
           style="fill:#FFFFFF;fill-opacity:1;fill-rule:nonzero;stroke:none"
           d="m 571.87374,579.4483 c -0.83568,-0.003 -1.09111,0.51454 -0.88953,1.45761 l 4.86543,22.66138 c 0.20202,0.94804 0.66591,1.45322 1.50655,1.4556 l 12.02178,0.006 c 0.69621,0.01 1.05678,-0.50657 0.77077,-1.84756 -0.2914,-1.34552 -0.87035,-1.85076 -1.56571,-1.85068 l -8.85544,-0.01 -1.46302,-6.79712 7.95975,0.007 c 0.69536,-7e-5 1.05268,-0.4962 0.76581,-1.84712 -0.29054,-1.33559 -0.87575,-1.8553 -1.5616,-1.86104 l -7.95933,-0.002 -1.63744,-7.6575 9.04585,0.0135 c 0.68996,-0.005 1.05096,-0.51607 0.76452,-1.86202 -0.29054,-1.33559 -0.87532,-1.85033 -1.56117,-1.85608 l -12.20722,-0.0103 z" /><path
           inkscape:connector-curvature="0"
           id="path2074"
           style="fill:#FFFFFF;fill-opacity:1;fill-rule:nonzero;stroke:none"
           d="m 606.41978,592.15802 1.03809,4.83282 c 0.63749,2.97646 -0.75134,4.7924 -3.29766,4.79239 -2.54675,-0.005 -4.7096,-1.81904 -5.34795,-4.80543 l -1.03766,-4.82785 8.64518,0.008 z m -9.44097,-3.71624 -1.69496,-7.91767 c -0.16541,-0.7561 -0.87169,-1.34538 -2.47266,-1.34706 -1.60055,0.003 -2.05613,0.57795 -1.88986,1.34398 l 3.56071,16.59596 c 1.10657,5.16207 5.64492,8.35662 10.47268,8.35951 4.82861,0.0128 7.99462,-3.17737 6.89302,-8.33987 l -3.56611,-16.6005 c -0.15591,-0.76192 -0.86133,-1.34128 -2.46727,-1.34252 -1.59558,0.003 -2.04577,0.58205 -1.88533,1.33858 l 1.69496,7.91766 -8.64518,-0.008 z" /><path
           inkscape:connector-curvature="0"
           id="path2078"
           style="fill:#FFFFFF;fill-opacity:1;fill-rule:nonzero;stroke:none"
           d="m 620.80054,587.56128 c -0.63749,-2.97646 0.75133,-4.7924 3.30305,-4.78786 2.53142,10e-4 4.70464,1.81947 5.34213,4.79593 l 3.5284,16.45369 c 0.16627,0.76603 0.87212,1.35035 2.46727,1.34252 1.59601,0.002 2.05657,-0.57298 1.89072,-1.33404 l -3.55574,-16.5964 c -1.10657,-5.16207 -5.64493,-8.35662 -10.4785,-8.36901 -4.82776,-0.003 -7.99377,3.1873 -6.8872,8.34937 l 3.55531,16.59143 c 0.16627,0.76603 0.87212,1.35035 2.4677,1.34749 1.60595,10e-4 2.05614,-0.57794 1.89569,-1.33447 l -3.52883,-16.45865 z" /><path
           inkscape:connector-curvature="0"
           id="path2082"
           style="fill:#FFFFFF;fill-opacity:1;fill-rule:nonzero;stroke:none"
           d="m 657.3996,583.24462 c 2.54135,4.3e-4 4.63966,1.82008 5.27672,4.79158 l 1.84185,8.57532 c 0.63835,2.98639 -0.68096,4.79632 -3.22771,4.79135 l -3.5968,7.6e-4 -3.89086,-18.15825 3.5968,-7.6e-4 z m -7.33959,-3.7128 c -0.94038,10e-4 -1.27746,0.61569 -1.08428,1.51947 l 4.82062,22.49017 c 0.20158,0.94307 0.80487,1.55627 1.75065,1.55955 l 6.50407,0.008 c 4.82775,0.003 7.96354,-3.18969 6.8533,-8.33644 l -1.89783,-8.87563 c -1.10571,-5.15214 -5.60931,-8.3497 -10.44289,-8.36209 l -6.50364,-0.003 z" /><path
           inkscape:connector-curvature="0"
           id="path2086"
           style="fill:#FFFFFF;fill-opacity:1;fill-rule:nonzero;stroke:none"
           d="m 672.69901,579.55247 c -0.83568,-0.003 -1.09154,0.50957 -0.8796,1.45675 l 4.85508,22.65728 c 0.2074,0.95257 0.67129,1.45776 1.51193,1.46013 l 12.01682,0.007 c 0.69578,0.005 1.05678,-0.50657 0.77077,-1.84756 -0.28686,-1.35091 -0.86539,-1.85119 -1.55578,-1.85154 l -8.86537,-0.009 -1.46302,-6.79712 7.95975,0.007 c 0.69536,-7e-5 1.05225,-0.50117 0.76581,-1.84712 -0.28558,-1.33602 -0.87078,-1.85573 -1.5616,-1.86104 l -7.95479,-0.008 -1.64198,-7.6521 9.04499,0.004 c 0.69039,3.5e-4 1.05679,-0.50657 0.76538,-1.85209 -0.28557,-1.33602 -0.86581,-1.85616 -1.56117,-1.85608 l -12.20722,-0.0103 z" /><path
           inkscape:connector-curvature="0"
           id="path2090"
           style="fill:#ffffff;fill-opacity:1;fill-rule:nonzero;stroke:none"
           d="m 713.21759,580.64696 3.6867,17.18539 c 0.52334,2.46606 -0.72419,4.06467 -2.72541,4.06257 -2.14154,-0.005 -3.90801,-1.45811 -4.46947,-4.07595 l -3.68088,-17.17589 c -0.17081,-0.76064 -0.87126,-1.34042 -2.47224,-1.3421 -1.59601,-0.002 -2.0516,0.57255 -1.88533,1.33859 l 3.59946,16.81273 c 1.07537,4.97467 5.011,8.14128 9.51881,8.14681 2.54632,0 4.51165,-1.1654 5.32859,-2.94191 1.57999,1.78442 4.04713,2.95187 6.58849,2.9523 4.50738,5.7e-4 7.10151,-3.15019 6.03608,-8.12572 l -3.60982,-16.81684 c -0.16584,-0.76107 -0.87623,-1.33999 -2.47224,-1.3421 -1.59601,-0.002 -2.05656,0.57298 -1.89568,1.33448 l 3.6962,17.17956 c 0.55607,2.61331 -0.58387,4.06756 -2.72541,4.06258 -2.00079,0.003 -3.93989,-1.59543 -4.47358,-4.0656 l -3.68174,-17.18581 c -0.16584,-0.76107 -0.87623,-1.33999 -2.47181,-1.33714 -1.6014,-0.007 -2.05117,0.57752 -1.89072,1.33405" /><path
           inkscape:connector-curvature="0"
           id="path2094"
           style="fill:#ffffff;fill-opacity:1;fill-rule:nonzero;stroke:none"
           d="m 751.91556,597.13903 c 0.63749,2.97646 -0.75133,4.7924 -3.29312,4.787 -2.54135,-4.3e-4 -4.70464,-1.81947 -5.35206,-4.79507 l -2.02167,-9.44023 c -0.64289,-2.981 0.75133,-4.7924 3.29269,-4.79197 2.54178,0.005 4.715,1.82358 5.35206,4.79508 l 2.0221,9.44519 z m 2.2684,-9.58095 c -1.10657,-5.16207 -5.60521,-8.36006 -10.43296,-8.36295 -4.83768,-0.002 -7.96397,3.18473 -6.85783,8.34183 l 2.08218,9.73515 c 1.10614,5.15711 5.60931,8.3497 10.44288,8.36209 4.83272,0.002 7.96398,-3.18473 6.85202,-8.35133 l -2.08629,-9.72479 z" /><path
           inkscape:connector-curvature="0"
           id="path2098"
           style="fill:#ffffff;fill-opacity:1;fill-rule:nonzero;stroke:none"
           d="m 770.76458,594.72329 c 2.14111,10e-6 3.54007,1.59997 3.93269,3.422 0.37344,1.77365 -0.32856,3.37513 -2.4796,3.37598 l -4.39275,-0.005 -1.45352,-6.80294 4.39318,0.0104 z m -2.36783,-11.36131 c 2.62123,-10e-4 4.07078,1.89427 4.49485,3.84864 0.4036,1.89111 -0.31065,3.81382 -2.55733,3.80793 l -4.7578,-0.004 -1.64781,-7.6616 4.46809,0.009 z m -8.20548,-3.71799 c -0.94535,0.002 -1.28243,0.61612 -1.08882,1.52486 l 4.82515,22.48477 c 0.20202,0.94804 0.80034,1.56167 1.74072,1.56042 l 7.95976,0.007 c 4.3228,0.007 6.29557,-3.0405 5.47801,-6.82683 -0.5199,-2.42634 -1.97594,-4.2815 -4.13461,-5.41058 2.0411,-1.15695 2.80684,-3.29422 2.2176,-6.05974 -0.8029,-3.73257 -4.02529,-7.27099 -9.04798,-7.27204 l -7.94983,-0.008 z" /><path
           inkscape:connector-curvature="0"
           id="path2102"
           style="fill:#ffffff;fill-opacity:1;fill-rule:nonzero;stroke:none"
           d="m 786.10606,580.72421 c -0.16088,-0.7615 -0.87126,-1.34042 -2.46231,-1.34296 -1.60594,-10e-4 -2.06109,0.57838 -1.90022,1.33987 l 5.03471,23.46218 c 0.16584,0.76106 0.87169,1.34538 2.47266,1.34706 1.59601,0.002 2.05074,-0.58248 1.8849,-1.34355 l -5.02974,-23.4626 z" /><path
           inkscape:connector-curvature="0"
           id="path2106"
           style="fill:#ffffff;fill-opacity:1;fill-rule:nonzero;stroke:none"
           d="m 794.08898,579.68006 c -0.83568,-0.003 -1.19667,0.50865 -0.99012,1.4513 l 4.94531,23.06469 c 0.16627,0.76603 0.87127,1.34042 2.46231,1.34296 1.60098,0.002 2.05656,-0.57298 1.89029,-1.33902 l -4.45533,-20.81085 9.41091,0.0119 c 0.68542,7.8e-4 1.05138,-0.51111 0.76041,-1.85166 -0.2914,-1.34552 -0.87078,-1.85573 -1.5616,-1.86105 l -12.46218,-0.008 z" /><path
           inkscape:connector-curvature="0"
           id="path2110"
           style="fill:#ffffff;fill-opacity:1;fill-rule:nonzero;stroke:none"
           d="m 816.95217,580.75462 c -0.16045,-0.75653 -0.87126,-1.34042 -2.46231,-1.34296 -1.60551,0.004 -2.06066,0.58334 -1.89525,1.33944 l 5.03017,23.46757 c 0.17037,0.75568 0.87622,1.33999 2.47266,1.34707 1.60098,0.002 2.05528,-0.58788 1.88944,-1.34895 l -5.03471,-23.46217 z" /><path
           inkscape:connector-curvature="0"
           id="path2114"
           style="fill:#ffffff;fill-opacity:1;fill-rule:nonzero;stroke:none"
           d="m 843.79304,605.29138 c 0.69039,3.5e-4 1.05764,-0.49664 0.77077,-1.84755 -0.29097,-1.34056 -0.87532,-1.85033 -1.5657,-1.85069 l -5.47842,-0.007 -4.47023,-20.80957 c -0.16088,-0.7615 -0.87623,-1.33999 -2.46728,-1.34253 -1.596,-0.002 -2.05656,0.57298 -1.89072,1.33405 l 4.46073,20.81539 -5.48338,-0.006 c -0.69039,-3.5e-4 -1.05181,0.50614 -0.76581,1.84712 0.2914,1.34553 0.86539,1.8512 1.56075,1.85112 l 15.32929,0.0156 z" /><path
           inkscape:connector-curvature="0"
           id="path2118"
           style="fill:#ffffff;fill-opacity:1;fill-rule:nonzero;stroke:none"
           d="m 859.67578,613.63012 0.63436,0.22031 c 0.72018,-0.002 1.41129,-0.97744 1.29026,-1.56729 l -0.43962,-0.68738 -4.4084,-3.60098 -0.62443,-0.22117 c -0.72018,0.002 -1.42575,0.98369 -1.29566,1.56275 l 0.43508,0.69277 4.40841,3.60099 z m -14.17607,-33.89779 c -0.83567,-0.003 -1.08614,0.51411 -0.88456,1.45718 l 4.8609,22.66678 c 0.20158,0.94308 0.6754,1.4474 1.51604,1.44977 l 12.02221,0.0113 c 0.69039,3.5e-4 1.05139,-0.51111 0.76538,-1.85209 -0.28686,-1.35092 -0.87078,-1.85573 -1.56074,-1.85112 l -8.86538,-0.009 -1.46302,-6.79712 7.96472,0.007 c 0.68996,-0.005 1.05225,-0.50118 0.76538,-1.85209 -0.29551,-1.33516 -0.87035,-1.85076 -1.5657,-1.85069 l -7.95026,-0.0131 -1.64198,-7.65211 9.04542,0.009 c 0.68543,7.8e-4 1.04642,-0.51068 0.76538,-1.85209 -0.2914,-1.34552 -0.87121,-1.86069 -1.5616,-1.86105 l -12.21219,-0.01 z" /><path
           inkscape:connector-curvature="0"
           id="path2122"
           style="fill:#ffffff;fill-opacity:1;fill-rule:nonzero;stroke:none"
           d="m 879.08265,580.8214 c -0.16584,-0.76107 -0.8663,-1.34085 -2.46231,-1.34296 -1.60097,-0.002 -2.06109,0.57838 -1.89525,1.33944 l 5.02974,23.46261 c 0.1708,0.76064 0.87665,1.34495 2.4677,1.34749 1.60594,10e-4 2.0557,-0.58291 1.88986,-1.34398 l -5.02974,-23.4626 z" /><path
           inkscape:connector-curvature="0"
           id="path2126"
           style="fill:#ffffff;fill-opacity:1;fill-rule:nonzero;stroke:none"
           d="m 890.34885,580.83137 c -0.16584,-0.76107 -0.87623,-1.33999 -2.4772,-1.34167 -1.59558,0.003 -2.04577,0.58205 -1.88533,1.33858 l 3.56114,16.60093 c 1.10118,5.15754 5.63996,8.35705 10.47268,8.35952 4.83272,0.002 7.99873,-3.18773 6.88266,-8.34398 l -3.55078,-16.59683 c -0.1613,-0.76646 -0.86629,-1.34084 -2.47223,-1.34209 -1.59558,0.003 -2.0516,0.57255 -1.88576,1.33361 l 3.52344,16.45412 c 0.64288,2.981 -0.75091,4.79736 -3.29312,4.787 -2.54632,0 -4.70875,-1.80911 -5.35206,-4.79508 l -3.52344,-16.45411 z" /><path
           inkscape:connector-curvature="0"
           id="path2130"
           style="fill:#ffffff;fill-opacity:1;fill-rule:nonzero;stroke:none"
           d="m 929.76084,605.38109 c 0.69039,3.5e-4 1.05267,-0.49621 0.77077,-1.84755 -0.29097,-1.34056 -0.87532,-1.85033 -1.5657,-1.85069 l -5.47842,-0.007 -4.47023,-20.80957 c -0.1667,-0.771 -0.87623,-1.33999 -2.46728,-1.34253 -1.60594,-10e-4 -2.05656,0.57298 -1.89072,1.33405 l 4.46073,20.81539 -5.48338,-0.006 c -0.69039,-3.5e-4 -1.05181,0.50614 -0.76581,1.84712 0.28147,1.34638 0.86539,1.8512 1.56075,1.85112 l 15.32929,0.0156 z" /><path
           inkscape:connector-curvature="0"
           id="path2134"
           style="fill:#ffffff;fill-opacity:1;fill-rule:nonzero;stroke:none"
           d="m 931.46726,579.81962 c -0.84064,-0.002 -1.08118,0.51368 -0.8796,1.45675 l 4.86047,22.66181 c 0.20201,0.94804 0.67087,1.4528 1.50654,1.4556 l 12.02718,0.0109 c 0.68585,0.006 1.05635,-0.51153 0.76538,-1.85208 -0.2914,-1.34553 -0.87036,-1.85077 -1.56075,-1.85112 l -8.86537,-0.009 -1.45806,-6.79755 7.95479,0.008 c 0.69039,3.5e-4 1.05764,-0.49663 0.76581,-1.84712 -0.28558,-1.33602 -0.86582,-1.85616 -1.5616,-1.86104 l -7.95436,-0.003 -1.63745,-7.6575 9.04003,0.004 c 0.69082,0.005 1.05679,-0.50657 0.77078,-1.84755 -0.29097,-1.34056 -0.87575,-1.8553 -1.56657,-1.86062 l -12.20722,-0.0103 z" /><path
           inkscape:connector-curvature="0"
           id="path2138"
           style="fill:#ffffff;fill-opacity:1;fill-rule:nonzero;stroke:none"
           d="m 959.34476,601.71236 -1.73266,-8.06448 3.45194,0.002 c 2.5066,0.003 4.12226,1.2745 4.70653,4.04045 0.60328,2.75431 -0.4772,4.02832 -2.97883,4.02446 l -3.44698,-0.002 z m 7.19189,-20.79715 c -0.16584,-0.76107 -0.87126,-1.34042 -2.46231,-1.34296 -1.60097,-0.002 -2.05699,0.56802 -1.89115,1.32908 l 0.44817,2.11738 c 0.94484,4.39064 0.24409,6.93251 -2.50711,6.93521 l -3.31248,-0.009 -1.93228,-9.04274 c -0.16584,-0.76106 -0.87126,-1.34042 -2.47223,-1.3421 -1.60098,-0.002 -2.0516,0.57255 -1.88533,1.33859 l 4.95629,23.13378 c 0.17682,0.83015 0.6545,1.37916 1.68058,1.38551 l 6.78882,0.003 c 4.72305,0.007 7.29616,-2.57671 6.20142,-7.65976 -0.61572,-2.89831 -2.41102,-4.97427 -4.71454,-6.10084 2.06537,-1.33913 2.59165,-3.81589 1.82946,-7.36688 l -0.72731,-3.37891 z" /><path
           inkscape:connector-curvature="0"
           id="path2142"
           style="fill:#ffffff;fill-opacity:1;fill-rule:nonzero;stroke:none"
           d="m 978.72826,587.93307 c -0.64246,-2.97604 0.74637,-4.79197 3.28772,-4.79154 2.55172,0.005 4.71997,1.82315 5.35746,4.79961 l 3.5284,16.45369 c 0.16131,0.76646 0.87169,1.34538 2.46727,1.34252 1.59601,0.002 2.05657,-0.57298 1.89526,-1.33944 l -3.56028,-16.591 c -1.1165,-5.16121 -5.64493,-8.35662 -10.4785,-8.36901 -4.83272,-0.002 -7.99874,3.18773 -6.8872,8.34937 l 3.55531,16.59143 c 0.16627,0.76603 0.86673,1.34582 2.4677,1.34749 1.60595,10e-4 2.05614,-0.57794 1.88987,-1.34397 l -3.52301,-16.44915 z" /><path
           inkscape:connector-curvature="0"
           id="path2146"
           style="fill:#ffffff;fill-opacity:1;fill-rule:nonzero;stroke:none"
           d="m 1005.7058,601.75921 -1.7322,-8.05952 3.4519,0.002 c 2.5066,0.003 4.1268,1.26911 4.7111,4.03506 0.5983,2.75474 -0.4822,4.02875 -2.9838,4.02489 l -3.447,-0.002 z m 7.1919,-20.79715 c -0.1663,-0.76603 -0.8663,-1.34085 -2.4623,-1.34296 -1.601,-0.002 -2.0566,0.57298 -1.8907,1.33405 l 0.4477,2.11241 c 0.9494,4.38525 0.2495,6.93704 -2.5071,6.93521 l -3.3075,-0.009 -1.9373,-9.04232 c -0.1658,-0.76106 -0.8712,-1.34042 -2.4722,-1.3421 -1.59105,-0.003 -2.0516,0.57255 -1.88533,1.33859 l 4.96123,23.13335 c 0.1723,0.83555 0.6545,1.37916 1.6756,1.38594 l 6.7889,0.003 c 4.723,0.007 7.2961,-2.57671 6.2014,-7.65976 -0.6157,-2.89831 -2.411,-4.97427 -4.7146,-6.10084 2.0654,-1.33913 2.5921,-3.81092 1.8245,-7.36645 l -0.7223,-3.37934 z" /><path
           inkscape:connector-curvature="0"
           id="path2150"
           style="fill:#ffffff;fill-opacity:1;fill-rule:nonzero;stroke:none"
           d="m 1030.9862,594.99143 c 2.1411,10e-6 3.5401,1.59997 3.9327,3.422 0.3784,1.77322 -0.3286,3.37513 -2.4697,3.37512 l -4.4027,-0.005 -1.463,-6.79712 4.4027,0.005 z m -2.3678,-11.36131 c 2.6212,-0.001 4.0707,1.89427 4.5002,3.85318 0.4032,1.88614 -0.3111,3.80885 -2.5627,3.80339 l -4.7578,-0.004 -1.6429,-7.66203 4.4632,0.009 z m -8.2055,-3.71799 c -0.9404,10e-4 -1.2824,0.61612 -1.0888,1.52486 l 4.8251,22.48477 c 0.202,0.94804 0.8004,1.56167 1.7457,1.55999 l 7.9602,0.0123 c 4.3224,0.002 6.2902,-3.04504 5.473,-6.8264 -0.5199,-2.42634 -1.9714,-4.2869 -4.14,-5.41512 2.0461,-1.15738 2.8218,-3.2955 2.2226,-6.06017 -0.8029,-3.73257 -4.0244,-7.26106 -9.0426,-7.2675 l -7.9552,-0.0127 z" /><path
           inkscape:connector-curvature="0"
           id="path2154"
           style="fill:#ffffff;fill-opacity:1;fill-rule:nonzero;stroke:none"
           d="m 1057.2138,592.62453 1.0331,4.83325 c 0.6429,2.981 -0.7509,4.79736 -3.2976,4.79239 -2.5468,-0.005 -4.7101,-1.824 -5.348,-4.80543 l -1.0323,-4.82332 8.6448,0.003 z m -9.4405,-3.71128 -1.695,-7.91766 c -0.1658,-0.76107 -0.8717,-1.34539 -2.4727,-1.34706 -1.6009,-0.002 -2.0511,0.57751 -1.8849,1.34354 l 3.5558,16.5964 c 1.1061,5.1571 5.6449,8.35662 10.4776,8.35908 4.8282,0.008 7.9942,-3.18233 6.8877,-8.34441 l -3.5661,-16.6005 c -0.1655,-0.7561 -0.8659,-1.33588 -2.4669,-1.33756 -1.596,-0.002 -2.0512,0.57752 -1.8857,1.33362 l 1.6953,7.92263 -8.6451,-0.008 z" /><path
           inkscape:connector-curvature="0"
           id="path2158"
           style="fill:#ffffff;fill-opacity:1;fill-rule:nonzero;stroke:none"
           d="m 1070.3413,581.01777 c -0.1658,-0.76107 -0.8663,-1.34085 -2.4623,-1.34296 -1.6006,0.003 -2.0607,0.58334 -1.8953,1.33944 l 5.0298,23.46261 c 0.1708,0.76064 0.8667,1.34581 2.4726,1.34706 1.5965,0.007 2.0508,-0.58248 1.8849,-1.34355 l -5.0297,-23.4626 z" /><path
           inkscape:connector-curvature="0"
           id="path2162"
           style="fill:#ffffff;fill-opacity:1;fill-rule:nonzero;stroke:none"
           d="m 1081.6083,581.03122 c -0.1658,-0.76107 -0.8663,-1.34085 -2.4772,-1.34167 -1.596,-0.002 -2.0462,0.57709 -1.8853,1.33858 l 3.5611,16.60093 c 1.1107,5.15172 5.64,8.35705 10.4777,8.35909 4.8277,0.003 7.9937,-3.1873 6.8822,-8.34895 l -3.5553,-16.59143 c -0.1613,-0.76646 -0.8663,-1.34084 -2.4723,-1.34209 -1.591,-0.003 -2.0516,0.57255 -1.8861,1.32865 l 3.5288,16.45865 c 0.6429,2.981 -0.7509,4.79736 -3.2981,4.78743 -2.5414,-4.3e-4 -4.7042,-1.81451 -5.3525,-4.80004 l -3.523,-16.44915 z" /><path
           inkscape:connector-curvature="0"
           id="path2166"
           style="fill:#ffffff;fill-opacity:1;fill-rule:nonzero;stroke:none"
           d="m 1102.2355,580.00003 c -0.8406,-0.002 -1.0812,0.51368 -0.8895,1.45761 l 4.8699,22.65599 c 0.2016,0.94307 0.6713,1.45776 1.507,1.46056 l 12.0218,0.006 c 0.6908,0.005 1.0617,-0.507 0.7658,-1.84713 -0.2869,-1.35091 -0.8658,-1.85615 -1.5558,-1.85154 l -8.8662,-0.019 -1.4572,-6.78762 7.9544,0.003 c 0.6903,3.5e-4 1.0576,-0.49664 0.7658,-1.84713 -0.296,-1.34012 -0.8704,-1.85076 -1.5662,-1.85565 l -7.9498,-0.008 -1.642,-7.6521 9.045,0.004 c 0.6904,3.5e-4 1.0564,-0.51153 0.765,-1.85706 -0.2856,-1.33601 -0.8754,-1.85033 -1.5608,-1.85111 l -12.2072,-0.0103 z" /></g><g
         id="g8181"><path
           inkscape:connector-curvature="0"
           id="path2170"
           style="fill:#ffffff;fill-opacity:1;fill-rule:nonzero;stroke:none"
           d="m 476.36882,601.47562 -23.87431,-0.0223 -3.96768,-0.007 -9.77553,-0.005 c -3.93864,9.93544 -13.61586,16.97019 -24.94726,16.9642 -11.33721,-0.0155 -21.00662,-7.06873 -24.9131,-17.01637 l -59.9364,-0.0616 c -3.93367,9.93501 -13.6109,16.96975 -24.95223,16.96462 -11.33721,-0.0155 -20.99711,-7.07455 -24.9131,-17.01637 l -71.67883,-0.0771 c -2.9321,-0.007 -6.4508,-5.41046 -7.70237,-11.55552 -1.11168,-6.14714 0.5706,-8.09849 3.50269,-8.09182 l 75.90104,0.0773 c 3.93863,-9.93544 13.615,-16.98012 24.94725,-16.9642 11.33722,0.0155 21.00166,7.06916 24.91311,17.01637 l 59.9364,0.0616 c 3.93324,-9.93998 13.61004,-16.97969 24.95222,-16.96463 11.33225,0.0159 20.99669,7.06959 24.91311,17.01637 l 3.01197,0.005 6.50904,0.008 21.33791,0.0214 c 2.93664,10e-4 5.65208,1.95768 7.81963,8.1086 2.03177,6.14264 1.84811,11.54131 -1.08356,11.5396" /><path
           inkscape:connector-curvature="0"
           id="path2174"
           style="fill:#ffffff;fill-opacity:1;fill-rule:nonzero;stroke:none"
           d="m 1424.0373,602.45996 -76.1415,-0.0815 c -3.9279,9.94451 -13.6101,16.97969 -24.9469,16.96916 -11.3318,-0.0109 -20.9917,-7.07001 -24.9081,-17.0168 l -59.9368,-0.0666 c -3.9378,9.94537 -13.6155,16.97515 -24.9473,16.9642 -11.3368,-0.0105 -21.0012,-7.06419 -24.9081,-17.0168 l -3.0215,10e-4 -6.5041,-0.008 -21.3379,-0.0214 c -2.937,-0.006 -5.6579,-1.96719 -7.8295,-8.10775 -2.0273,-6.14803 -1.8436,-11.5467 1.0835,-11.5396 l 23.8892,0.021 3.9677,0.007 9.7656,0.006 c 3.9337,-9.93502 13.6154,-16.97516 24.9522,-16.96463 11.3372,0.0155 20.9971,7.07455 24.9131,17.01637 l 59.9369,0.0666 c 3.9332,-9.93998 13.615,-16.98012 24.9423,-16.96377 11.3417,0.0101 21.0066,7.06873 24.9126,17.01141 l 71.914,0.0768 c 2.9321,0.007 6.4503,5.4055 7.7019,11.55055 1.1113,6.14218 -0.571,8.09353 -3.4973,8.09636" /></g><g
         id="g8163"><path
           inkscape:connector-curvature="0"
           id="path2178"
           style="fill:#FFFFFF;fill-opacity:1;fill-rule:nonzero;stroke:none"
           d="m 976.63961,721.13516 c -16.59047,-0.0216 -22.9649,-5.76386 -24.23507,-13.10792 l -0.31211,-0.94853 c -1.58315,-8.30252 -9.87184,-15.6452 -21.67925,-15.66007 -11.1671,-0.0152 -17.54382,6.36906 -15.64845,17.53109 l 0.95888,4.78464 -0.01,8.6e-4 c 0.71588,2.49444 1.34301,5.06159 1.86604,7.69777 l 10.62297,54.89065 -0.0753,-0.003 2.79451,14.56111 c 1.73616,8.39435 -2.81829,14.33092 -21.00391,14.31712 -18.18152,-0.0241 -24.819,-5.97377 -26.56012,-14.36769 l -13.36357,-68.07571 0.01,-8.6e-4 -0.67502,-3.46848 c -2.52565,-13.01353 -9.4155,-21.07244 -19.81617,-22.46456 l 4.3e-4,0.005 c -1.06833,-0.14778 -2.14033,-0.28023 -3.27651,-0.28707 -10.35539,-3.1e-4 -15.93862,6.13025 -15.32987,17.22341 l 12.18737,63.55499 c 8.35007,41.96532 -16.15014,65.37424 -50.77101,65.34041 -19.2415,-0.0176 -37.07192,-7.38087 -49.29187,-19.28626 -7.35724,11.88182 -22.4064,19.21584 -41.63882,19.18748 -16.61444,-0.01 -32.95063,-5.48096 -46.40431,-15.74391 -7.9846,9.77493 -21.84201,15.67525 -39.09264,15.65567 -5.42791,-0.001 -10.82095,-0.64042 -16.10341,-1.79463 16.01128,-11.01906 26.53409,-29.45277 26.55726,-50.36562 -0.003,-2.29093 -0.14772,-4.54459 -0.38967,-6.76484 -0.11614,-1.28563 -0.27997,-2.60216 -0.55666,-4.00898 l 0.096,0.12677 c -0.19471,-0.86362 -0.44601,-1.68734 -0.62258,-2.57254 L 604.35818,670.0532 c -1.73659,-8.39931 2.80296,-14.3346 20.99398,-14.31627 18.17612,0.0196 24.82353,5.96839 26.56508,14.36727 l 21.21994,109.13322 c 2.7752,14.33766 10.81552,22.74235 23.05253,22.75009 11.88728,0.013 17.49609,-8.02079 14.71054,-22.36256 l -21.21523,-109.4838 c -1.74156,-8.39889 2.81829,-14.33093 20.99441,-14.31131 18.19102,0.0183 24.81813,5.96384 26.56465,14.3623 l 21.2202,109.48338 c 2.78555,14.34177 11.16585,22.3969 23.06306,22.40901 10.40094,0.006 15.69078,-6.10383 15.35747,-16.73054 l -12.89223,-66.50061 0.17641,-0.50551 c -6.6162,-40.07915 17.44566,-62.42464 51.23129,-62.38865 0.96024,-0.003 1.89927,0.096 2.84805,0.134 0.94731,-0.0369 1.85428,-0.13527 2.81991,-0.1337 15.26432,0.0162 30.30805,4.59882 43.08638,13.2993 9.12706,-8.53799 22.80513,-13.27221 40.23624,-13.24822 37.95818,0.0405 66.00424,23.66961 70.76211,49.83211 l 0.63312,2.23145 c 1.27746,7.02327 -2.246,13.08084 -19.14648,13.061" /><path
           inkscape:connector-curvature="0"
           id="path2182"
           style="fill:#FFFFFF;fill-opacity:1;fill-rule:nonzero;stroke:none"
           d="m 938.29839,834.015 c -2.0827,-10.84068 -11.17476,-20.9954 -27.96471,-21.00979 -16.77505,-0.0157 -21.68698,10.11897 -19.58939,20.95836 l 2.62587,15.04093 c 2.08313,10.84565 11.16441,20.9913 27.94939,21.00611 16.79081,0.0243 21.69195,-10.1194 19.60471,-20.95468 L 938.29839,834.015 Z" /><path
           inkscape:connector-curvature="0"
           id="path2186"
           style="fill:#ffffff;fill-opacity:1;fill-rule:nonzero;stroke:none"
           d="m 559.10127,788.07632 c -1.38582,-8.7398 -7.32787,-13.99414 -17.4657,-16.45452 l -19.22432,-4.9116 c -4.19361,-1.05823 -8.4015,-2.4554 -10.48926,-4.21093 l 4.17071,20.99054 c 2.43395,12.93642 11.17056,22.04632 25.16377,22.05733 12.23291,0.0181 19.93289,-6.6256 17.8448,-17.47082 m -189.26368,74.30061 20.98236,0.0172 c 22.03824,0.0209 31.49165,-12.20716 26.97364,-36.69451 -4.87228,-24.47673 -19.19883,-36.7353 -41.2321,-36.75667 l -20.98775,-0.0217 14.26385,73.45571 z m 179.76752,-18.00597 c -37.07242,-0.037 -73.42145,-20.35205 -81.76868,-64.07854 l -11.47898,-59.46907 c -0.2629,-1.36299 -0.40601,-2.6713 -0.60049,-3.99519 -3.32191,-12.44444 -11.27055,-19.44132 -22.29776,-19.4586 -8.19442,-0.002 -13.22659,3.76471 -14.85132,10.54861 l -0.12646,-0.0741 -10.73018,43.23449 -0.0717,-0.0188 -0.32665,1.31391 c 20.69703,6.67026 41.32518,19.31458 51.6216,43.11232 l -0.37468,-0.16771 c 4.53218,8.96808 8.00961,19.10289 10.2449,30.43564 10.08364,52.47099 -16.52074,80.06888 -64.4345,80.02353 l -63.2886,-0.067 c -0.53517,10e-4 -1.0023,-0.0784 -1.50572,-0.11497 -7.949,1.33248 -15.83133,4.01489 -24.17143,8.17262 l -4.36622,2.15335 c -10.08095,4.96855 -22.02243,2.01374 -30.46545,-9.19761 -8.4277,-11.20767 -6.18849,-21.12627 3.89743,-26.09526 l 3.87556,-1.81078 c 9.91881,-4.93453 20.70926,-8.0034 31.92347,-9.35299 L 281.90174,671.3404 c -1.7312,-8.39478 3.86852,-14.68185 22.75446,-14.66856 18.89176,0.0228 26.57501,6.32224 28.3116,14.72156 l 14.26393,74.15106 13.0131,0.0157 10.64141,-48.25442 c 3.85348,-26.25655 24.73043,-40.53769 51.7769,-40.50945 17.02007,0.0145 32.92305,5.79851 44.83655,15.37416 9.9768,-10.28231 25.50114,-15.99655 45.57789,-15.98114 41.61542,0.0445 72.36509,25.95623 77.58107,54.64045 l 0.69627,2.44111 c 1.38549,7.69428 -2.46727,14.3406 -21.00348,14.32209 -18.18109,-0.0192 -25.16941,-6.32368 -26.56012,-14.3677 L 543.44083,712.18 c -1.73213,-9.10006 -10.82225,-17.14886 -23.76044,-17.16603 -12.23205,-0.008 -19.24182,6.98108 -17.15358,19.217 l 1.04392,5.24753 c 1.04881,4.55175 6.28859,7.70067 17.12674,10.16055 l 30.41777,7.02559 c 31.81327,7.37021 50.3298,23.13358 55.55401,50.06118 5.90789,30.78553 -15.10352,57.68983 -57.06414,57.64514" /><path
           inkscape:connector-curvature="0"
           id="path2190"
           style="fill:#FFFFFF;fill-opacity:1;fill-rule:nonzero;stroke:none"
           d="m 505.85543,848.28916 0.85383,0.38643 c 10.51318,4.71913 21.87609,7.69393 33.52959,8.93773 20.80558,3.35417 42.07683,4.572 62.04246,11.23045 6.21741,2.0739 12.61445,4.9527 16.22897,10.42325 4.24289,6.43176 3.28673,15.79922 -2.17028,21.24853 -2.39491,2.38815 -3.8117,3.99639 -6.80807,5.56109 -3.48481,1.81702 -8.64012,3.63838 -12.4354,4.6418 -3.04132,0.81319 -6.20562,1.07171 -9.34418,1.22296 -24.28078,1.17843 -49.71193,-4.52732 -68.29111,-20.20523 -8.99019,-7.5872 -17.67196,-15.42617 -22.84186,-23.95893 -2.77735,-4.58241 -6.53174,-11.38156 -8.83143,-16.22539 -2.69842,-5.69481 -4.06763,-11.86971 -4.99338,-18.12297 6.91653,6.11059 14.71965,11.01896 23.06086,14.86028" /></g><g
         id="g8243"><g
           id="g2192"
           transform="matrix(4.9654896,-0.42923307,0.42923307,4.9654896,1254.1905,769.08628)"><path
             d="m 0,0 c -0.869,-0.076 -1.744,-0.111 -2.605,-0.105 -1.98,0.014 -3.963,0.173 -5.881,0.326 -1.558,0.124 -3.066,0.241 -4.55,0.289 2.279,-1.961 4.503,-3.98 6.279,-6.442 0.424,-0.587 0.221,-1.2 -0.205,-1.562 l 1.58,-1.589 c 2.217,3.105 4.772,5.948 7.153,8.952 0.103,0.13 0.205,0.264 0.308,0.396 C 1.397,0.154 0.706,0.061 0,0"
             style="fill:#FFFFFF;fill-opacity:1;fill-rule:nonzero;stroke:none"
             id="path2194"
             inkscape:connector-curvature="0" /></g><g
           id="g2196"
           transform="matrix(4.9654896,-0.42923307,0.42923307,4.9654896,1083.1343,680.74581)"><path
             d="m 0,0 c -0.288,0.113 -0.785,0.14 -1.208,0.103 -1.628,-0.142 -2.604,-1.391 -2.485,-2.735 0.098,-1.128 1.101,-1.684 2.059,-1.6 0.49,0.043 1.002,0.236 1.389,0.487 l -0.109,-0.834 c -0.339,-0.195 -0.702,-0.33 -1.407,-0.393 -1.19,-0.104 -2.624,0.621 -2.767,2.258 -0.156,1.776 1.113,3.353 3.292,3.544 0.516,0.045 1.033,0.003 1.33,-0.101 L 0,0 Z"
             style="fill:#ffffff;fill-opacity:1;fill-rule:nonzero;stroke:none"
             id="path2198"
             inkscape:connector-curvature="0" /></g><g
           id="g2200"
           transform="matrix(4.9654896,-0.42923307,0.42923307,4.9654896,1095.9824,673.90475)"><path
             d="m 0,0 c -0.535,-0.047 -1.301,-0.6 -1.38,-1.484 1.084,0.096 1.858,0.685 1.819,1.132 C 0.42,-0.136 0.319,0.028 0,0 m -1.361,-2.098 c 0.089,-0.434 0.436,-0.717 1.013,-0.666 0.421,0.036 0.812,0.228 1.108,0.523 L 0.636,-3.104 C 0.392,-3.299 0.013,-3.428 -0.348,-3.459 -1.34,-3.545 -2.105,-3.023 -2.2,-1.945 -2.324,-0.524 -1.111,0.597 0.009,0.695 0.732,0.759 1.163,0.397 1.212,-0.163 1.305,-1.24 0.155,-1.965 -1.361,-2.098"
             style="fill:#ffffff;fill-opacity:1;fill-rule:nonzero;stroke:none"
             id="path2202"
             inkscape:connector-curvature="0" /></g><g
           id="g2204"
           transform="matrix(4.9654896,-0.42923307,0.42923307,4.9654896,1122.577,671.0897)"><path
             d="m 0,0 -0.243,-2.782 -0.784,-0.069 0.241,2.799 -0.002,0.122 C -0.81,0.32 -0.976,0.53 -1.286,0.504 -1.88,0.452 -2.572,-0.078 -2.706,-1.616 l -0.122,-1.392 -0.784,-0.068 0.348,3.963 0.646,0.055 -0.021,-0.739 0.017,-0.007 C -2.32,0.727 -1.954,1.097 -1.196,1.163 -0.644,1.21 -0.056,0.837 0,0.2 L 0,0 Z"
             style="fill:#ffffff;fill-opacity:1;fill-rule:nonzero;stroke:none"
             id="path2206"
             inkscape:connector-curvature="0" /></g><g
           id="g2208"
           transform="matrix(4.9654896,-0.42923307,0.42923307,4.9654896,1139.7678,673.99391)"><path
             d="m 0,0 -1.242,-0.108 -0.183,-2.248 c -0.027,-0.305 0.179,-0.471 0.42,-0.449 0.148,0.013 0.23,0.047 0.352,0.161 L -0.75,-3.338 c -0.106,-0.079 -0.258,-0.126 -0.465,-0.144 -0.56,-0.05 -1.056,0.366 -0.991,1.111 l 0.19,2.195 -0.767,-0.068 0.052,0.596 0.767,0.068 0.068,0.803 0.809,0.48 L -1.188,0.487 0.077,0.599 0,0 Z"
             style="fill:#ffffff;fill-opacity:1;fill-rule:nonzero;stroke:none"
             id="path2210"
             inkscape:connector-curvature="0" /></g><g
           id="g2212"
           transform="matrix(4.9654896,-0.42923307,0.42923307,4.9654896,1154.1588,673.9247)"><path
             d="m 0,0 c -0.663,-0.058 -1.457,-0.909 -1.576,-2.325 l -0.098,-1.146 -0.777,-0.068 0.348,3.963 0.647,0.056 -0.045,-1.08 0.019,-0.007 c 0.177,0.753 0.728,1.2 1.443,1.263 L 0.173,0.015 0,0 Z"
             style="fill:#ffffff;fill-opacity:1;fill-rule:nonzero;stroke:none"
             id="path2214"
             inkscape:connector-curvature="0" /></g><g
           id="g2216"
           transform="matrix(4.9654896,-0.42923307,0.42923307,4.9654896,1166.9606,673.97797)"><path
             d="m 0,0 c -0.534,-0.047 -1.303,-0.6 -1.38,-1.484 1.084,0.096 1.857,0.685 1.818,1.132 C 0.42,-0.136 0.318,0.028 0,0 m -1.361,-2.098 c 0.089,-0.435 0.436,-0.717 1.013,-0.668 0.421,0.038 0.813,0.23 1.108,0.525 L 0.637,-3.104 C 0.392,-3.299 0.013,-3.428 -0.348,-3.459 -1.339,-3.545 -2.105,-3.023 -2.2,-1.945 -2.324,-0.524 -1.111,0.597 0.009,0.695 0.732,0.759 1.163,0.397 1.212,-0.163 1.307,-1.239 0.154,-1.965 -1.361,-2.098"
             style="fill:#ffffff;fill-opacity:1;fill-rule:nonzero;stroke:none"
             id="path2218"
             inkscape:connector-curvature="0" /></g><g
           id="g2220"
           transform="matrix(4.9654896,-0.42923307,0.42923307,4.9654896,1176.3177,671.05886)"><path
             d="M 0,0 -0.056,-0.639 2.096,-0.451 2.155,0.188 0,0 Z"
             style="fill:#ffffff;fill-opacity:1;fill-rule:nonzero;stroke:none"
             id="path2222"
             inkscape:connector-curvature="0" /></g><g
           id="g2224"
           transform="matrix(4.9654896,-0.42923307,0.42923307,4.9654896,1197.9703,657.07622)"><path
             d="m 0,0 -0.267,-0.023 -1.694,5.467 0.828,0.073 0.789,-2.569 c 0.11,-0.373 0.238,-0.832 0.339,-1.291 l 0.016,0.002 c 0.184,0.477 0.385,0.953 0.574,1.37 L 1.83,5.776 2.675,5.849 0,0 Z"
             style="fill:#ffffff;fill-opacity:1;fill-rule:nonzero;stroke:none"
             id="path2226"
             inkscape:connector-curvature="0" /></g><g
           id="g2228"
           transform="matrix(4.9654896,-0.42923307,0.42923307,4.9654896,1223.8117,673.95153)"><path
             d="m 0,0 c -0.964,-0.084 -1.827,-1.045 -1.724,-2.216 0.041,-0.473 0.301,-0.669 0.672,-0.636 0.508,0.044 1.152,0.726 1.252,1.759 L 0.304,0.009 C 0.243,0.013 0.129,0.011 0,0 m 0.797,-3.247 -0.646,-0.056 0.021,0.74 -0.017,0.007 c -0.272,-0.657 -0.779,-0.911 -1.314,-0.957 -0.629,-0.055 -1.272,0.341 -1.345,1.176 -0.152,1.74 1.191,2.874 2.516,2.99 0.483,0.042 0.873,0.042 1.128,0.02 l -0.343,-3.92 z"
             style="fill:#ffffff;fill-opacity:1;fill-rule:nonzero;stroke:none"
             id="path2230"
             inkscape:connector-curvature="0" /></g><g
           id="g2232"
           transform="matrix(4.9654896,-0.42923307,0.42923307,4.9654896,1236.7536,662.37322)"><path
             d="m 0,0 -0.005,-0.14 c 0.025,-0.284 0.22,-0.424 0.43,-0.457 L -0.031,-1.14 c -0.316,0.034 -0.695,0.304 -0.744,0.872 -0.008,0.095 -0.009,0.191 0,0.296 L -0.323,5.172 0.461,5.24 0,0 Z"
             style="fill:#ffffff;fill-opacity:1;fill-rule:nonzero;stroke:none"
             id="path2234"
             inkscape:connector-curvature="0" /></g><g
           id="g2236"
           transform="matrix(4.9654896,-0.42923307,0.42923307,4.9654896,1259.9858,673.98989)"><path
             d="m 0,0 c -0.888,-0.078 -1.728,-0.984 -1.631,-2.087 0.046,-0.525 0.355,-0.785 0.784,-0.748 0.527,0.047 1.161,0.728 1.262,1.76 L 0.52,0.01 C 0.397,0.026 0.216,0.019 0,0 m 1.012,-3.227 -0.647,-0.057 0.022,0.74 -0.018,0.006 c -0.272,-0.657 -0.788,-0.91 -1.408,-0.965 -0.629,-0.055 -1.293,0.391 -1.376,1.339 -0.137,1.566 1.152,2.705 2.427,2.817 0.259,0.023 0.423,0.028 0.563,0.023 L 0.777,2.933 1.56,3.001 1.012,-3.227 Z"
             style="fill:#ffffff;fill-opacity:1;fill-rule:nonzero;stroke:none"
             id="path2238"
             inkscape:connector-curvature="0" /></g><g
           id="g2240"
           transform="matrix(4.9654896,-0.42923307,0.42923307,4.9654896,1281.4491,674.09604)"><path
             d="m 0,0 c -0.533,-0.046 -1.301,-0.6 -1.38,-1.484 1.084,0.096 1.857,0.685 1.818,1.132 C 0.42,-0.136 0.318,0.028 0,0 m -1.361,-2.097 c 0.089,-0.436 0.436,-0.717 1.013,-0.668 0.421,0.037 0.812,0.229 1.108,0.524 L 0.635,-3.104 C 0.392,-3.299 0.013,-3.428 -0.348,-3.458 -1.339,-3.545 -2.105,-3.022 -2.2,-1.945 -2.324,-0.524 -1.112,0.598 0.009,0.695 0.732,0.759 1.163,0.397 1.212,-0.163 1.307,-1.239 0.153,-1.965 -1.361,-2.097"
             style="fill:#ffffff;fill-opacity:1;fill-rule:nonzero;stroke:none"
             id="path2242"
             inkscape:connector-curvature="0" /></g><g
           id="g2244"
           transform="matrix(4.9654896,-0.42923307,0.42923307,4.9654896,1309.5775,657.5781)"><path
             d="M 0,0 -3.256,-0.285 -2.772,5.296 -1.937,5.368 -2.359,0.471 0.061,0.683 0,0 Z"
             style="fill:#ffffff;fill-opacity:1;fill-rule:nonzero;stroke:none"
             id="path2246"
             inkscape:connector-curvature="0" /></g><g
           id="g2248"
           transform="matrix(4.9654896,-0.42923307,0.42923307,4.9654896,1324.4688,674.14191)"><path
             d="m 0,0 c -0.765,-0.067 -1.453,-0.934 -1.372,-1.864 0.058,-0.664 0.421,-0.953 0.964,-0.906 0.759,0.066 1.456,0.926 1.373,1.865 C 0.908,-0.25 0.535,0.046 0,0 m -0.435,-3.467 c -0.929,-0.081 -1.645,0.447 -1.733,1.455 -0.121,1.388 0.903,2.596 2.186,2.708 0.93,0.081 1.646,-0.455 1.734,-1.463 0.122,-1.386 -0.902,-2.588 -2.187,-2.7"
             style="fill:#ffffff;fill-opacity:1;fill-rule:nonzero;stroke:none"
             id="path2250"
             inkscape:connector-curvature="0" /></g><g
           id="g2252"
           transform="matrix(4.9654896,-0.42923307,0.42923307,4.9654896,1341.8304,680.88526)"><path
             d="M 0,0 C -0.172,-0.015 -0.437,0.248 -0.451,0.404 -0.466,0.584 -0.084,0.956 0.08,0.971 0.253,0.985 0.519,0.714 0.532,0.559 0.548,0.387 0.164,0.015 0,0 m -0.024,-4.689 -0.792,-0.07 0.347,3.963 0.793,0.069 -0.348,-3.962 z"
             style="fill:#ffffff;fill-opacity:1;fill-rule:nonzero;stroke:none"
             id="path2254"
             inkscape:connector-curvature="0" /></g><g
           id="g2256"
           transform="matrix(4.9654896,-0.42923307,0.42923307,4.9654896,1359.423,674.13699)"><path
             d="m 0,0 c -0.663,-0.059 -1.457,-0.909 -1.576,-2.325 l -0.1,-1.147 -0.775,-0.067 0.348,3.963 0.646,0.056 -0.044,-1.08 0.017,-0.006 c 0.177,0.752 0.73,1.199 1.444,1.262 L 0.172,0.015 0,0 Z"
             style="fill:#ffffff;fill-opacity:1;fill-rule:nonzero;stroke:none"
             id="path2258"
             inkscape:connector-curvature="0" /></g><g
           id="g2260"
           transform="matrix(4.9654896,-0.42923307,0.42923307,4.9654896,1372.2223,674.19077)"><path
             d="m 0,0 c -0.533,-0.047 -1.303,-0.6 -1.381,-1.484 1.086,0.096 1.858,0.685 1.819,1.133 C 0.42,-0.136 0.319,0.028 0,0 m -1.361,-2.097 c 0.089,-0.435 0.436,-0.717 1.013,-0.668 0.421,0.037 0.812,0.229 1.108,0.524 L 0.635,-3.104 C 0.392,-3.299 0.013,-3.428 -0.35,-3.458 c -0.989,-0.087 -1.755,0.436 -1.85,1.513 -0.124,1.421 1.088,2.542 2.209,2.64 0.723,0.064 1.154,-0.298 1.203,-0.858 0.095,-1.076 -1.059,-1.802 -2.573,-1.934"
             style="fill:#ffffff;fill-opacity:1;fill-rule:nonzero;stroke:none"
             id="path2262"
             inkscape:connector-curvature="0" /></g><g
           id="g2264"
           transform="matrix(4.9654896,-0.42923307,0.42923307,4.9654896,1172.2788,795.49112)"><path
             d="M 0,0 C -1.554,1.416 -3.028,2.911 -4.286,4.619 -6.414,7.508 -7.772,11.834 -5.189,14.86 -2.424,18.099 3.52,16.793 5.228,13.187 5.885,11.799 8.146,12.617 7.482,14.02 5.737,17.703 1.84,19.504 -2.142,18.937 -6.555,18.309 -9.14,14.599 -8.991,10.32 -8.836,5.895 -6.316,2.491 -3.139,-0.559 -2.155,-0.301 -1.109,-0.117 0,0"
             style="fill:#ffffff;fill-opacity:1;fill-rule:nonzero;stroke:none"
             id="path2266"
             inkscape:connector-curvature="0" /></g><g
           id="g2268"
           transform="matrix(4.9654896,-0.42923307,0.42923307,4.9654896,1189.9674,777.21972)"><path
             d="m 0,0 c -1.272,0.042 -2.525,0.031 -3.771,-0.076 3,-2.537 6.082,-4.97 8.088,-7.752 0.906,-1.255 2.872,0.125 1.963,1.386 C 4.502,-3.98 2.28,-1.962 0,0"
             style="fill:#ffffff;fill-opacity:1;fill-rule:nonzero;stroke:none"
             id="path2270"
             inkscape:connector-curvature="0" /></g><g
           id="g2272"
           transform="matrix(4.9654896,-0.42923307,0.42923307,4.9654896,1264.6473,769.50838)"><path
             d="m 0,0 c -0.104,-0.133 -0.208,-0.264 -0.312,-0.397 -3.239,-4.086 -6.804,-7.873 -9.397,-12.43 -0.769,-1.35 1.41,-2.368 2.17,-1.032 3.054,5.367 7.519,9.704 11.11,14.691 C 2.428,0.479 1.235,0.201 0,0"
             style="fill:#ffffff;fill-opacity:1;fill-rule:nonzero;stroke:none"
             id="path2274"
             inkscape:connector-curvature="0" /></g><g
           id="g2276"
           transform="matrix(4.9654896,-0.42923307,0.42923307,4.9654896,1236.5748,791.47689)"><path
             d="M 0,0 C 1.518,0.253 1.324,2.651 -0.204,2.394 -3.263,1.881 -5.917,4.39 -4.88,7.551 c 0.755,2.294 3.445,4.101 5.42,5.261 2.109,1.239 4.611,1.851 7.039,1.932 3.424,0.116 4.946,-2.37 4.721,-5.527 -0.178,-2.496 -1.043,-4.872 -2.237,-7.1 1.18,0.562 2.338,1.22 3.482,1.986 1.682,4.5 2.201,9.917 -2.338,12.321 -2.478,1.312 -5.78,0.68 -8.322,-0.032 -3.028,-0.849 -5.714,-2.673 -7.901,-4.891 -2.2,-2.229 -3.13,-5.07 -1.895,-8.034 C -5.801,0.805 -2.709,-0.455 0,0"
             style="fill:#ffffff;fill-opacity:1;fill-rule:nonzero;stroke:none"
             id="path2278"
             inkscape:connector-curvature="0" /></g><g
           id="g2280"
           transform="matrix(4.9654896,-0.42923307,0.42923307,4.9654896,1324.5441,770.52315)"><path
             d="m 0,0 c -2.197,-0.168 -4.279,-0.629 -6.34,-1.408 -0.941,-0.355 -1.112,-1.285 -0.808,-2.005 -0.944,-0.544 -1.877,-1.112 -2.796,-1.711 -0.996,-0.65 -0.744,-1.814 -10e-4,-2.385 -0.378,-0.176 -0.752,-0.351 -1.13,-0.527 -0.932,-0.437 -1.137,-1.49 -0.742,-2.207 l -3.094,-0.695 c -1.232,-0.278 -1.316,-2.39 -0.124,-2.782 0.184,-0.06 0.367,-0.12 0.551,-0.18 0.63,-0.208 1.196,-0.015 1.596,0.347 4.229,0.952 8.459,1.904 12.687,2.857 1.8,0.404 0.894,2.878 -0.653,2.922 -0.823,0.022 -1.649,0.037 -2.473,0.04 0.776,0.365 1.554,0.728 2.329,1.09 1.438,0.673 1.144,2.584 -0.259,2.88 0.63,0.289 1.265,0.576 1.91,0.843 C 2.217,-2.274 1.732,0.132 0,0"
             style="fill:#FFFFFF;fill-opacity:1;fill-rule:nonzero;stroke:none"
             id="path2282"
             inkscape:connector-curvature="0" /></g><g
           id="g2284"
           transform="matrix(4.9654896,-0.42923307,0.42923307,4.9654896,1201.4448,721.86079)"><path
             d="m 0,0 c -0.489,0.252 -0.963,0.402 -1.431,0.491 1.035,0.934 0.124,2.573 -1.204,2.578 -0.104,0 -0.206,10e-4 -0.31,10e-4 0.273,0.263 0.545,0.526 0.817,0.79 0.905,0.872 -0.023,2.75 -1.283,2.476 -1.583,-0.343 -3.165,-0.687 -4.748,-1.031 -1.83,-0.397 -1.646,-3.27 0.13,-3.024 -0.454,-0.717 -0.011,-1.56 0.677,-1.964 -0.636,-0.38 -1.271,-0.764 -1.918,-1.128 -1.034,-0.585 -0.742,-1.824 0.033,-2.415 -0.942,-0.381 -1.885,-0.763 -2.826,-1.146 -1.797,-0.731 -0.761,-3.569 1.05,-2.834 l 10.889,4.424 C 1.103,-2.283 1.175,-0.607 0,0"
             style="fill:#FFFFFF;fill-opacity:1;fill-rule:nonzero;stroke:none"
             id="path2286"
             inkscape:connector-curvature="0" /></g><g
           id="g2288"
           transform="matrix(4.9654896,-0.42923307,0.42923307,4.9654896,1234.9449,791.41261)"><path
             d="m 0,0 c -2.628,-0.307 -5.52,0.952 -6.587,3.508 -1.234,2.964 -0.304,5.805 1.895,8.035 l -0.96,0.809 c -0.579,-0.294 -1.416,-0.196 -1.776,0.562 -1.709,3.606 -7.652,4.913 -10.417,1.674 -2.583,-3.026 -1.224,-7.352 0.904,-10.243 1.257,-1.706 2.732,-3.201 4.286,-4.617 0.152,0.015 0.301,0.033 0.454,0.047 2.41,0.212 4.898,0.092 7.014,-0.052 2.007,-0.138 3.824,-0.154 5.525,-0.052 L 0,0 Z"
             style="fill:#FFFFFF;fill-opacity:1;fill-rule:nonzero;stroke:none"
             id="path2290"
             inkscape:connector-curvature="0" /></g><g
           id="g2292"
           transform="matrix(4.9654896,-0.42923307,0.42923307,4.9654896,1236.5867,803.45401)"><path
             d="m 0,0 c 1.529,0.256 1.721,-2.14 0.204,-2.394 -0.112,-0.02 -0.224,-0.03 -0.337,-0.042 l 0.011,0 0.338,-0.326 c 0.313,0.019 0.627,0.038 0.932,0.064 0.403,0.035 0.799,0.078 1.192,0.129 0.096,0.011 0.192,0.027 0.288,0.041 0.297,0.041 0.595,0.082 0.888,0.132 0.093,0.017 0.188,0.036 0.283,0.053 0.294,0.053 0.588,0.108 0.877,0.171 0.081,0.017 0.16,0.036 0.241,0.053 0.303,0.069 0.605,0.14 0.906,0.219 l 0.186,0.052 c 0.318,0.085 0.634,0.176 0.946,0.273 l 0.133,0.043 c 0.332,0.105 0.66,0.216 0.987,0.334 l 0.08,0.031 c 0.344,0.127 0.685,0.26 1.024,0.403 l 0.034,0.014 c 0.355,0.15 0.705,0.306 1.055,0.473 1.194,2.227 2.057,4.604 2.236,7.099 0.225,3.157 -1.297,5.643 -4.721,5.529 C 5.667,12.278 3.495,11.804 1.575,10.862 L 0.015,9.976 C -1.843,8.821 -4.011,7.178 -4.675,5.156 -5.713,1.996 -3.058,-0.514 0,0"
             style="fill:#FFFFFF;fill-opacity:1;fill-rule:nonzero;stroke:none"
             id="path2294"
             inkscape:connector-curvature="0" /></g><g
           id="g2296"
           transform="matrix(4.9654896,-0.42923307,0.42923307,4.9654896,1241.4685,772.38667)"><path
             d="m 0,0 c 0.836,-0.006 1.691,0.028 2.552,0.103 5.819,0.509 11.983,2.924 15.551,7.828 0.803,1.104 -0.148,2.706 -1.196,2.614 -0.219,-0.018 -0.442,-0.11 -0.654,-0.297 C 10.891,5.543 5.709,3.412 -0.316,2.885 -2.384,2.704 -4.549,2.711 -6.857,2.87 c -2.351,0.159 -4.68,0.249 -6.93,0.051 -4.044,-0.353 -7.83,-1.631 -11.025,-5.09 -0.435,-0.471 0.067,-1.211 0.568,-1.168 0.094,0.009 0.185,0.044 0.274,0.113 3.098,2.49 6.344,3.47 9.685,3.762 C -9.669,0.941 -4.867,0.036 0,0"
             style="fill:#FFFFFF;fill-opacity:1;fill-rule:nonzero;stroke:none"
             id="path2298"
             inkscape:connector-curvature="0" /></g></g><g
         transform="matrix(4.9654896,-0.42923307,0.42923307,4.9654896,1025.903,656.50804)"
         id="g2300"><path
           inkscape:connector-curvature="0"
           id="path2302"
           style="fill:#ffffff;fill-opacity:1;fill-rule:nonzero;stroke:none"
           d="M 0,0 -1.443,-0.127 2.917,47.697 4.361,47.822 0,0 Z" /></g></g></g></svg>