<?xml version="1.0" encoding="UTF-8" standalone="no"?>
<!-- Created with Inkscape (http://www.inkscape.org/) -->

<svg
   xmlns:dc="http://purl.org/dc/elements/1.1/"
   xmlns:cc="http://creativecommons.org/ns#"
   xmlns:rdf="http://www.w3.org/1999/02/22-rdf-syntax-ns#"
   xmlns:svg="http://www.w3.org/2000/svg"
   xmlns="http://www.w3.org/2000/svg"
   xmlns:sodipodi="http://sodipodi.sourceforge.net/DTD/sodipodi-0.dtd"
   xmlns:inkscape="http://www.inkscape.org/namespaces/inkscape"
   id="svg2"
   version="1.1"
   inkscape:version="0.91 r13725"
   xml:space="preserve"
   width="700"
   height="174"
   viewBox="0 0 699.99999 174"
   sodipodi:docname="Logo Corail Intercités 2009.svg"><metadata
     id="metadata8"><rdf:RDF><cc:Work
         rdf:about=""><dc:format>image/svg+xml</dc:format><dc:type
           rdf:resource="http://purl.org/dc/dcmitype/StillImage" /><dc:title></dc:title></cc:Work></rdf:RDF></metadata><defs
     id="defs6" /><sodipodi:namedview
     pagecolor="#ffffff"
     bordercolor="#666666"
     borderopacity="1"
     objecttolerance="10"
     gridtolerance="10"
     guidetolerance="10"
     inkscape:pageopacity="0"
     inkscape:pageshadow="2"
     inkscape:window-width="1440"
     inkscape:window-height="788"
     id="namedview4"
     showgrid="false"
     inkscape:zoom="0.73550117"
     inkscape:cx="153.66209"
     inkscape:cy="136.53297"
     inkscape:window-x="0"
     inkscape:window-y="1"
     inkscape:window-maximized="1"
     inkscape:current-layer="g10" /><g
     id="g10"
     inkscape:groupmode="layer"
     inkscape:label="Logo Corail Intercités 2008"
     transform="matrix(1.25,0,0,-1.25,0,174.00002)"><g
       id="g4838"
       transform="matrix(6.4641987,0,0,6.4641987,-113.73758,-123.56455)"><path
         inkscape:connector-curvature="0"
         id="path384"
         style="fill:#FFFFFF;fill-opacity:1;fill-rule:nonzero;stroke:none"
         d="M 87.333,36.052 C 86.755,35.508 86.215,35.093 85.74,34.793 l 0.634,-1.158 c 0.795,0.316 1.744,0.812 2.838,1.542 0.828,0.555 1.684,1.21 2.569,1.967 l -1.062,3.437 c -0.789,-1.62 -2.05,-3.273 -3.386,-4.529" /><path
         inkscape:connector-curvature="0"
         id="path386"
         style="fill:#FFFFFF;fill-opacity:1;fill-rule:nonzero;stroke:none"
         d="m 93.34,23.209 c -3.623,-1.739 -8.662,-2.033 -10.095,-0.332 -0.304,0.364 -0.462,0.775 -0.487,1.218 L 82.337,19.93 c 3.125,-1.402 8.858,-0.945 13.017,0.989 0.08,0.037 0.158,0.074 0.238,0.114 l 0.388,3.884 c -0.705,-0.622 -1.597,-1.208 -2.64,-1.708" /><path
         inkscape:connector-curvature="0"
         id="path388"
         style="fill:#FFFFFF;fill-opacity:1;fill-rule:nonzero;stroke:none"
         d="m 34.826,30.525 -0.18,-1.805 2.126,0 c 0.296,0 0.512,-0.265 0.481,-0.587 l -0.823,-8.203 2.8,0 0.824,8.203 c 0.032,0.322 0.3,0.587 0.599,0.587 l 2.124,0 0.182,1.805" /><path
         inkscape:connector-curvature="0"
         id="path390"
         style="fill:#FFFFFF;fill-opacity:1;fill-rule:nonzero;stroke:none"
         d="m 76.531,30.525 -0.182,-1.805 2.128,0 c 0.296,0 0.513,-0.265 0.481,-0.587 l -0.823,-8.203 2.801,0 0.821,8.203 c 0.035,0.322 0.304,0.587 0.599,0.587 l 2.128,0 0.18,1.805" /><path
         inkscape:connector-curvature="0"
         id="path392"
         style="fill:#FFFFFF;fill-opacity:1;fill-rule:nonzero;stroke:none"
         d="m 18.656,30.525 -0.12,-1.214 c -0.033,-0.325 0.183,-0.591 0.479,-0.591 l 1.722,0 c 0.296,0 0.565,0.266 0.598,0.591 l 0.123,1.214" /><path
         inkscape:connector-curvature="0"
         id="path394"
         style="fill:#FFFFFF;fill-opacity:1;fill-rule:nonzero;stroke:none"
         d="m 20.396,19.93 0.728,7.261 c 0.032,0.325 -0.185,0.592 -0.483,0.592 l -1.72,0 c -0.296,0 -0.566,-0.267 -0.598,-0.592 L 17.595,19.93" /><path
         inkscape:connector-curvature="0"
         id="path396"
         style="fill:#FFFFFF;fill-opacity:1;fill-rule:nonzero;stroke:none"
         d="M 72.663,30.525 72.542,29.311 C 72.51,28.986 72.725,28.72 73.021,28.72 l 1.721,0 c 0.296,0 0.567,0.266 0.6,0.591 l 0.122,1.214" /><path
         inkscape:connector-curvature="0"
         id="path398"
         style="fill:#FFFFFF;fill-opacity:1;fill-rule:nonzero;stroke:none"
         d="m 74.4,19.93 0.73,7.261 c 0.032,0.325 -0.185,0.592 -0.481,0.592 l -1.721,0 c -0.297,0 -0.567,-0.267 -0.599,-0.592 L 71.601,19.93" /><path
         inkscape:connector-curvature="0"
         id="path400"
         style="fill:#FFFFFF;fill-opacity:1;fill-rule:nonzero;stroke:none"
         d="m 68.81,30.643 c -3.992,0 -6.487,-1.913 -6.844,-5.48 -0.16,-1.586 0.637,-2.926 1.601,-3.878 1,-0.984 2.431,-1.505 4.174,-1.505 0.482,0 2.318,0.088 2.795,0.15 l 0.181,1.804 c -0.133,-0.009 -1.636,0.033 -1.76,0.033 -1.346,0 -2.348,0.233 -3.03,0.908 -0.647,0.634 -1.117,1.54 -1.003,2.686 0.229,2.289 1.745,3.366 4.267,3.366 0.284,0 1.965,0.014 2.226,-0.014 l 0.184,1.812 c -0.42,0.052 -2.287,0.118 -2.791,0.118" /><path
         inkscape:connector-curvature="0"
         id="path402"
         style="fill:#FFFFFF;fill-opacity:1;fill-rule:nonzero;stroke:none"
         d="m 101.199,28.709 c 0.949,0.166 1.966,0.073 2.837,0.018 l 0.187,1.796 c -0.965,0.065 -1.89,0.13 -2.919,0.045 -1.303,-0.107 -4.344,-0.447 -4.348,-3.351 0.069,-1.871 1.592,-2.394 2.739,-2.908 0.8,-0.354 1.508,-0.683 1.505,-1.394 -0.032,-0.681 -0.794,-1.04 -1.966,-1.14 -0.961,-0.081 -1.94,-0.041 -2.828,-0.041 L 96.213,19.93 c 1.004,-0.097 1.883,-0.134 2.911,-0.095 1.22,0.046 5.044,0.227 5.102,3.371 -0.041,1.835 -1.537,2.368 -2.701,2.879 -0.819,0.367 -1.604,0.702 -1.597,1.461 0.026,0.571 0.459,1.02 1.271,1.163" /><path
         inkscape:connector-curvature="0"
         id="path404"
         style="fill:#FFFFFF;fill-opacity:1;fill-rule:nonzero;stroke:none"
         d="m 58.294,28.495 c -0.353,0.241 -0.904,0.225 -1.672,0.225 l -1.25,0 -0.285,-2.831 1.257,0 c 0.645,0 1.187,-0.028 1.586,0.165 0.15,0.075 0.282,0.148 0.386,0.27 0.207,0.239 0.295,0.629 0.333,1.02 0.047,0.545 -0.045,0.936 -0.355,1.151 m 4.875,-8.565 -3.025,0 c -0.934,0 -2.225,1.15 -2.671,1.763 -0.448,0.608 -0.439,0.708 -1.081,1.841 -0.283,0.498 -0.578,0.613 -0.876,0.613 l -0.604,0 -0.422,-4.217 -2.8,0 1.062,10.595 2.876,0 c 0,0 1.004,-0.007 1.494,0 1.716,0.025 2.919,-0.474 3.579,-1.261 0.373,-0.442 0.564,-1.065 0.583,-1.723 0.005,-0.151 -0.022,-0.484 -0.024,-0.494 -0.15,-1.163 -1.002,-2.3 -2.166,-2.793 l -0.179,-0.097 c 0.463,-1.455 2.93,-3.578 4.254,-4.227" /><path
         inkscape:connector-curvature="0"
         id="path406"
         style="fill:#FFFFFF;fill-opacity:1;fill-rule:nonzero;stroke:none"
         d="m 46.068,22.787 c -0.004,0.09 0,0.194 0.01,0.291 l 0.046,0.48 c 0.034,0.323 0.302,0.589 0.6,0.589 l 3.985,0 0.175,1.742 -3.986,0 c -0.297,0 -0.515,0.265 -0.482,0.588 l 0.169,1.656 c 0.032,0.322 0.301,0.587 0.599,0.587 l 3.984,0 0.179,1.805 -7.324,0 C 43.993,30.227 43.2,22.307 43.2,22.307 43.178,22.08 43.17,21.871 43.176,21.682 c 0.02,-0.548 0.168,-0.941 0.449,-1.219 0.364,-0.358 0.968,-0.533 1.846,-0.533 l 4.815,0 0.181,1.804 -3.197,0 c -0.394,0 -0.698,0.104 -0.904,0.306 -0.18,0.178 -0.283,0.434 -0.298,0.747" /><path
         inkscape:connector-curvature="0"
         id="path408"
         style="fill:#FFFFFF;fill-opacity:1;fill-rule:nonzero;stroke:none"
         d="m 31.335,30.525 -0.701,-6.994 -4.27,6.994 -3.041,0 -1.062,-10.595 2.429,0 0.701,6.993 2.756,-4.513 c 1.06,-1.737 2.292,-2.48 4.123,-2.48 l 0.429,0 1.064,10.595" /><path
         inkscape:connector-curvature="0"
         id="path410"
         style="fill:#FFFFFF;fill-opacity:1;fill-rule:nonzero;stroke:none"
         d="m 89.711,32.841 c -0.824,-0.107 -2.204,-0.622 -3.544,-1.286 l -0.301,-2.989 c 1.077,0.61 1.9,0.988 3.207,1.416 1.659,0.546 2.591,0.423 2.716,0.044 0.129,-0.381 0.05,-1.133 -2.585,-2.267 -2.625,-1.129 -4.099,-1.04 -6.188,-1.081 l -0.258,-2.575 c 0.739,-0.166 1.577,-0.249 2.495,-0.23 4.146,0.084 8.306,2.17 9.297,4.663 0.992,2.492 -0.693,4.83 -4.839,4.305" />
        </g>
      </g>
</svg>