<svg id="svg2" xmlns="http://www.w3.org/2000/svg" viewBox="0 0 700 313.14"><defs><style>.cls-1{fill:#fff;}</style></defs><title>inoui</title><g id="g10"><g id="g4709"><g id="g4704"><path id="path30" class="cls-1" d="M30.76,11.23H8.85V2.66H62.22v8.57H40.13V71.12H30.76V11.23Z" transform="translate(0 -0.86)"/><path id="path32" class="cls-1" d="M130.7,32.86h0v33.8A49.13,49.13,0,0,1,125,69.32a65.75,65.75,0,0,1-6.79,2.08,59.51,59.51,0,0,1-7,1,56.86,56.86,0,0,1-6.53.52A40.62,40.62,0,0,1,89,70.08,41.89,41.89,0,0,1,77.6,62.27a33.21,33.21,0,0,1-7.3-11.75A39.24,39.24,0,0,1,68,36.73a37.17,37.17,0,0,1,2.58-14.06,33.66,33.66,0,0,1,7.31-11.44A35.93,35.93,0,0,1,89.29,3.45,36,36,0,0,1,103.64.86c6.18,0,11.43.76,15.55,2.32a25.67,25.67,0,0,1,10,6.53l-6.53,7a23.14,23.14,0,0,0-9.11-5.49,26.31,26.31,0,0,0-9.88-1.8A24,24,0,0,0,93,11.75a21.5,21.5,0,0,0-8.08,5.77,22,22,0,0,0-5.24,8.81,27.55,27.55,0,0,0-1.8,10.4,30.54,30.54,0,0,0,1.8,11,27.84,27.84,0,0,0,5.76,8.6A23.59,23.59,0,0,0,93.76,62a24.14,24.14,0,0,0,10.65,2.07,52.57,52.57,0,0,0,9.37-.79,36.68,36.68,0,0,0,7.56-2.66V41.43H106V32.86Z" transform="translate(0 -0.86)"/><path id="path34" class="cls-1" d="M138.27,2.66h10.65l20,55.67h.26L190,2.66h10.48L173.41,71.12h-8.85L138.27,2.66Z" transform="translate(0 -0.86)"/></g><g id="g4695"><path id="path36" class="cls-1" d="M95.81,164.29h0a33.18,33.18,0,0,1,66.35,0V262.7h38.32V164.29a71.58,71.58,0,0,0-143.16,0V262.7H95.81Z" transform="translate(0 -0.86)"/><path id="path38" class="cls-1" d="M10.91,100.56h0a364.64,364.64,0,0,0-9.36,79.35v53.36c1-.77,2.32-1.54,3.43-2.32a35.24,35.24,0,0,1,16.33-4.46,33.16,33.16,0,0,1,19.08,6.26V100.56Z" transform="translate(0 -0.86)"/><path id="path40" class="cls-1" d="M21.31,241.33h0A21.31,21.31,0,0,0,0,262.7a21.09,21.09,0,0,0,21.31,21.36,21.27,21.27,0,0,0,21.4-21.36A21.5,21.5,0,0,0,21.31,241.33Z" transform="translate(0 -0.86)"/><path id="path42" class="cls-1" d="M603.94,199h0a33,33,0,0,1-66.08,0V100.56h-38.6V199c0,39.3,32.33,71.55,71.59,71.55A71.64,71.64,0,0,0,642.43,199V100.56H603.94Z" transform="translate(0 -0.86)"/><path id="path44" class="cls-1" d="M678.43,121.91h0A21.52,21.52,0,0,0,700,100.56a21.48,21.48,0,1,0-21.57,21.35Z" transform="translate(0 -0.86)"/><path id="path46" class="cls-1" d="M688.85,262.7h0a350.61,350.61,0,0,0,9.35-79.36V130c-1,.77-2.32,1.54-3.43,2.31a34.93,34.93,0,0,1-16.34,4.38,31.62,31.62,0,0,1-18.79-6.18V262.7Z" transform="translate(0 -0.86)"/><path id="path48" class="cls-1" d="M349.92,92.75h0a88.88,88.88,0,1,1-88.86,89A88.93,88.93,0,0,1,349.92,92.75Zm0,221.25h0c73.15,0,132.41-59.37,132.41-132.29A132.47,132.47,0,0,0,349.92,49.24c-73,0-132.27,59.38-132.27,132.47C217.65,254.63,277,314,349.92,314Z" transform="translate(0 -0.86)"/></g></g></g></svg>