<svg id="svg" version="1.1" xmlns="http://www.w3.org/2000/svg" xmlns:xlink="http://www.w3.org/1999/xlink" width="400" height="565.8064516129032" viewBox="0, 0, 400,565.8064516129032">
    <g id="svgg">
        <path id="path0" d="M164.471 58.032 C 151.303 58.606,146.904 60.583,137.584 70.117 C 126.948 80.999,121.652 88.140,119.003 95.170 C 118.058 97.679,117.873 98.180,116.137 102.948 C 113.663 109.744,110.685 119.274,108.068 128.774 C 107.583 130.535,105.400 139.344,104.503 143.160 C 99.962 162.486,97.721 185.651,99.016 199.882 C 99.573 206.004,100.517 213.383,101.187 216.863 C 104.377 233.419,108.203 247.178,114.122 263.386 C 118.376 275.034,125.532 285.371,133.589 291.507 L 135.840 293.221 135.223 293.957 C 134.884 294.362,133.839 295.542,132.901 296.580 C 131.963 297.618,126.976 303.190,121.817 308.962 C 116.659 314.735,112.052 319.882,111.581 320.401 C 111.109 320.920,108.922 323.361,106.720 325.825 C 104.518 328.290,102.609 330.424,102.479 330.567 C 91.800 342.266,91.271 343.049,91.276 347.154 C 91.287 355.489,100.169 360.045,105.362 354.379 C 105.980 353.704,109.602 349.737,113.411 345.562 L 120.336 337.972 200.793 337.985 L 281.250 337.999 284.788 341.913 C 297.613 356.105,297.424 355.922,299.900 356.534 C 307.252 358.348,312.847 349.569,309.239 341.881 C 308.634 340.591,302.754 333.846,294.830 325.354 C 294.225 324.705,289.971 320.035,285.377 314.976 C 270.654 298.763,267.397 295.185,266.469 294.210 L 265.561 293.255 267.152 292.087 C 276.416 285.287,283.724 273.926,289.523 257.311 C 293.051 247.202,295.739 238.000,298.241 227.476 C 300.000 220.076,301.407 211.067,302.403 200.825 C 302.804 196.706,302.804 181.510,302.403 177.476 C 301.073 164.090,298.745 149.821,295.958 137.972 C 292.168 121.852,289.203 112.320,284.064 99.729 C 283.236 97.699,282.383 95.524,282.170 94.894 C 279.435 86.820,266.480 70.434,257.998 64.320 C 251.770 59.830,247.384 58.527,236.792 58.022 C 231.237 57.757,170.594 57.766,164.471 58.032 M269.527 105.176 C 271.731 107.381,276.239 121.403,279.262 135.456 C 280.819 142.697,282.093 149.472,282.772 154.127 C 282.923 155.165,283.143 156.651,283.260 157.429 C 283.979 162.207,284.068 163.547,284.074 169.693 C 284.083 179.173,283.253 182.347,280.628 182.872 C 279.072 183.183,120.437 183.030,119.818 182.717 C 117.346 181.466,116.440 170.586,117.898 159.670 C 121.417 133.329,127.515 107.562,130.851 104.938 C 131.422 104.489,132.542 104.481,200.132 104.481 L 268.832 104.481 269.527 105.176 M154.651 248.006 C 165.115 251.945,167.757 264.291,159.725 271.718 C 150.737 280.030,136.614 274.997,135.182 262.972 C 133.924 252.415,144.588 244.219,154.651 248.006 M254.363 247.406 C 264.802 249.158,269.895 261.434,263.627 269.735 C 255.102 281.027,237.028 275.382,237.028 261.428 C 237.028 252.260,244.977 245.831,254.363 247.406 M155.923 301.190 C 160.357 302.051,163.717 302.121,200.825 302.121 C 237.933 302.121,241.893 302.038,245.616 301.178 C 247.635 300.711,246.722 299.915,256.840 310.962 C 258.850 313.157,261.203 315.701,262.069 316.616 L 263.642 318.278 232.312 318.338 C 215.080 318.371,186.805 318.371,169.477 318.338 L 137.973 318.278 138.503 317.667 C 142.064 313.560,153.944 300.943,154.250 300.943 C 154.472 300.943,155.224 301.054,155.923 301.190 M32.783 386.712 C 24.576 389.568,24.111 402.404,32.073 406.318 L 33.373 406.958 200.708 406.958 L 368.042 406.958 369.412 406.316 C 377.012 402.755,377.096 391.016,369.550 386.991 L 368.514 386.439 201.179 386.391 C 49.839 386.347,33.743 386.378,32.783 386.712 " stroke="none" fill="#04d484" fill-rule="evenodd"></path>
        <path id="path2" d="M137.959 69.517 L 137.146 70.401 138.031 69.588 C 138.854 68.832,139.024 68.632,138.843 68.632 C 138.804 68.632,138.406 69.030,137.959 69.517 M165.743 104.658 C 184.584 104.691,215.416 104.691,234.257 104.658 C 253.098 104.625,237.683 104.597,200.000 104.597 C 162.317 104.597,146.902 104.625,165.743 104.658 M302.917 189.623 C 302.917 190.985,302.956 191.542,303.004 190.861 C 303.052 190.180,303.052 189.065,303.004 188.384 C 302.956 187.703,302.917 188.261,302.917 189.623 M167.040 302.285 C 167.267 302.345,167.639 302.345,167.866 302.285 C 168.093 302.226,167.907 302.177,167.453 302.177 C 166.999 302.177,166.813 302.226,167.040 302.285 " stroke="none" fill="#8ee7c8" fill-rule="evenodd"></path>
        <path id="path3" d="M163.625 57.954 C 164.048 58.006,164.685 58.005,165.040 57.952 C 165.394 57.898,165.047 57.855,164.269 57.856 C 163.491 57.857,163.201 57.901,163.625 57.954 M236.851 57.952 C 237.208 58.006,237.792 58.006,238.149 57.952 C 238.505 57.898,238.213 57.854,237.500 57.854 C 236.787 57.854,236.495 57.898,236.851 57.952 M135.484 71.993 L 134.552 72.995 135.554 72.063 C 136.486 71.196,136.665 70.991,136.487 70.991 C 136.448 70.991,135.997 71.442,135.484 71.993 M283.786 163.561 C 283.789 164.080,283.837 164.265,283.893 163.971 C 283.950 163.678,283.947 163.253,283.888 163.028 C 283.829 162.802,283.783 163.042,283.786 163.561 M284.050 170.519 C 284.050 171.881,284.088 172.438,284.136 171.757 C 284.184 171.076,284.184 169.962,284.136 169.281 C 284.088 168.600,284.050 169.157,284.050 170.519 M117.301 171.344 C 117.300 172.512,117.340 173.019,117.389 172.472 C 117.439 171.924,117.439 170.969,117.391 170.349 C 117.342 169.729,117.301 170.177,117.301 171.344 M98.640 181.132 C 98.640 181.586,98.688 181.772,98.747 181.545 C 98.807 181.318,98.807 180.946,98.747 180.719 C 98.688 180.492,98.640 180.678,98.640 181.132 M302.913 185.377 C 302.913 186.480,302.953 186.931,303.003 186.380 C 303.053 185.828,303.053 184.926,303.003 184.375 C 302.953 183.824,302.913 184.275,302.913 185.377 M302.903 193.278 C 302.905 194.057,302.949 194.347,303.001 193.923 C 303.054 193.499,303.053 192.862,302.999 192.508 C 302.945 192.153,302.902 192.500,302.903 193.278 M98.640 196.698 C 98.640 197.152,98.688 197.338,98.747 197.111 C 98.807 196.884,98.807 196.512,98.747 196.285 C 98.688 196.058,98.640 196.244,98.640 196.698 M237.101 261.439 C 237.103 262.217,237.147 262.507,237.199 262.083 C 237.252 261.659,237.251 261.022,237.197 260.668 C 237.143 260.314,237.100 260.660,237.101 261.439 M165.157 302.292 C 165.515 302.346,166.046 302.345,166.336 302.289 C 166.626 302.233,166.333 302.188,165.684 302.190 C 165.035 302.192,164.798 302.238,165.157 302.292 M235.204 302.292 C 235.562 302.346,236.093 302.345,236.383 302.289 C 236.673 302.233,236.380 302.188,235.731 302.190 C 235.083 302.192,234.845 302.238,235.204 302.292 M375.311 396.698 C 375.311 397.541,375.354 397.886,375.406 397.465 C 375.459 397.043,375.459 396.353,375.406 395.932 C 375.354 395.510,375.311 395.855,375.311 396.698 " stroke="none" fill="#bcf4dc" fill-rule="evenodd"></path>
        <path id="path4" d="M166.922 57.949 C 167.214 58.006,167.692 58.006,167.983 57.949 C 168.275 57.893,168.037 57.847,167.453 57.847 C 166.869 57.847,166.630 57.893,166.922 57.949 M234.142 57.950 C 234.435 58.006,234.860 58.004,235.085 57.945 C 235.311 57.886,235.071 57.840,234.552 57.842 C 234.033 57.845,233.849 57.893,234.142 57.950 M139.729 67.748 L 138.797 68.750 139.800 67.818 C 140.732 66.951,140.910 66.745,140.732 66.745 C 140.693 66.745,140.242 67.196,139.729 67.748 M263.208 68.750 C 263.648 69.204,264.061 69.575,264.126 69.575 C 264.190 69.575,263.883 69.204,263.443 68.750 C 263.003 68.296,262.590 67.925,262.525 67.925 C 262.461 67.925,262.768 68.296,263.208 68.750 M133.830 73.880 L 133.137 74.646 133.903 73.954 C 134.325 73.573,134.670 73.228,134.670 73.187 C 134.670 73.005,134.475 73.165,133.830 73.880 M117.508 162.972 C 117.508 163.426,117.556 163.611,117.615 163.384 C 117.675 163.157,117.675 162.786,117.615 162.559 C 117.556 162.332,117.508 162.518,117.508 162.972 M284.027 166.038 C 284.027 166.621,284.072 166.860,284.129 166.568 C 284.185 166.277,284.185 165.799,284.129 165.507 C 284.072 165.215,284.027 165.454,284.027 166.038 M117.276 167.807 C 117.279 168.325,117.327 168.510,117.384 168.217 C 117.440 167.923,117.438 167.499,117.379 167.273 C 117.320 167.048,117.274 167.288,117.276 167.807 M117.272 174.528 C 117.272 174.982,117.320 175.168,117.380 174.941 C 117.439 174.714,117.439 174.343,117.380 174.116 C 117.320 173.889,117.272 174.074,117.272 174.528 M302.654 181.958 C 302.656 182.476,302.705 182.661,302.761 182.368 C 302.818 182.074,302.815 181.650,302.756 181.424 C 302.697 181.199,302.651 181.439,302.654 181.958 M98.644 183.608 C 98.647 184.127,98.695 184.312,98.752 184.018 C 98.808 183.725,98.806 183.301,98.747 183.075 C 98.688 182.850,98.642 183.090,98.644 183.608 M160.338 182.960 C 182.432 182.993,218.517 182.993,240.526 182.960 C 262.535 182.927,244.458 182.900,200.354 182.900 C 156.250 182.900,138.243 182.927,160.338 182.960 M98.644 194.458 C 98.647 194.976,98.695 195.161,98.752 194.868 C 98.808 194.574,98.806 194.150,98.747 193.924 C 98.688 193.699,98.642 193.939,98.644 194.458 M302.654 196.108 C 302.656 196.627,302.705 196.812,302.761 196.518 C 302.818 196.225,302.815 195.801,302.756 195.575 C 302.697 195.350,302.651 195.590,302.654 196.108 M262.367 271.050 L 261.675 271.816 262.441 271.123 C 263.156 270.478,263.316 270.283,263.134 270.283 C 263.093 270.283,262.748 270.628,262.367 271.050 M139.269 271.698 C 139.776 272.217,140.243 272.642,140.308 272.642 C 140.373 272.642,140.011 272.217,139.505 271.698 C 138.998 271.179,138.530 270.755,138.466 270.755 C 138.401 270.755,138.762 271.179,139.269 271.698 M272.170 300.545 C 272.170 300.586,272.515 300.931,272.936 301.312 L 273.703 302.005 273.010 301.238 C 272.364 300.524,272.170 300.363,272.170 300.545 M184.357 302.299 C 193.329 302.334,208.082 302.334,217.140 302.300 C 226.197 302.265,218.856 302.237,200.825 302.237 C 182.795 302.237,175.384 302.265,184.357 302.299 M91.111 347.052 C 91.112 347.830,91.156 348.120,91.209 347.696 C 91.261 347.272,91.260 346.636,91.206 346.281 C 91.152 345.927,91.109 346.274,91.111 347.052 M117.728 386.262 C 163.346 386.295,238.062 386.295,283.766 386.262 C 329.469 386.229,292.146 386.202,200.825 386.202 C 109.505 386.202,72.111 386.229,117.728 386.262 " stroke="none" fill="#74e4bc" fill-rule="evenodd"></path>
    </g>
</svg>