<svg id="Calque_1" data-name="Calque 1" xmlns="http://www.w3.org/2000/svg" viewBox="0 0 367 103"><defs><style>.cls-1{fill:#ef434d;}</style></defs><title>Logo Nomad Normandie 2020Plan de travail 8</title><path class="cls-1" d="M309.54,14a2.68,2.68,0,0,1-1.88-.77,30.22,30.22,0,0,0-40.68,0,2.67,2.67,0,0,1-3.76-3.8,35.57,35.57,0,0,1,48.2,0A2.68,2.68,0,0,1,309.54,14"/><path class="cls-1" d="M133.42,102.8c-9.27,0-18-3.42-24.1-9.4a2.67,2.67,0,0,1,3.76-3.8c5,5,12.47,7.86,20.34,7.86a29,29,0,0,0,20.34-7.86,2.67,2.67,0,0,1,3.75,3.8c-6,6-14.82,9.4-24.09,9.4"/><path class="cls-1" d="M48.39,80.71a5.28,5.28,0,0,1-4.07-1.84l-34-40.18V74.86a5.41,5.41,0,1,1-10.81,0V25A5.41,5.41,0,0,1,3,19.89a5.34,5.34,0,0,1,6,1.5L43,61.57V25.4a5.41,5.41,0,1,1,10.81,0V75.31a5.41,5.41,0,0,1-3.5,5.06,5.48,5.48,0,0,1-1.9.34"/><path class="cls-1" d="M115.87,50.13A20.65,20.65,0,1,0,95.22,70.79a20.65,20.65,0,0,0,20.65-20.66m-52.12,0a31.47,31.47,0,1,1,31.47,31,31.24,31.24,0,0,1-31.47-31"/><path class="cls-1" d="M213.83,80.27a5.41,5.41,0,0,1-5.41-5.41V38.28L192.76,56.61a5.4,5.4,0,0,1-8.22,0L168.88,38.28V74.86a5.41,5.41,0,1,1-10.81,0V24.51A5.4,5.4,0,0,1,167.58,21l21.07,24.66L209.71,21a5.41,5.41,0,0,1,9.52,3.51V74.86a5.41,5.41,0,0,1-5.4,5.41"/><path class="cls-1" d="M258.9,55.7l-7.35-17.34L244.19,55.7ZM275,79.87A5.42,5.42,0,0,1,267.94,77L263.3,66.07H239.78L235.14,77a5.41,5.41,0,1,1-10-4.22L246.57,22.4a5.41,5.41,0,0,1,10,0L277.9,72.78A5.41,5.41,0,0,1,275,79.87"/><path class="cls-1" d="M335.92,69.86a19.77,19.77,0,1,0,0-39.54h-13.6V69.86Zm-24.42,5V25.4A5.44,5.44,0,0,1,316.91,20l19,0a30.14,30.14,0,1,1,0,60.28l-19,0a5.41,5.41,0,0,1-5.41-5.41"/></svg>