<?xml version="1.0" encoding="UTF-8" standalone="no"?>
<!-- Created with Inkscape (http://www.inkscape.org/) -->

<svg
   xmlns:dc="http://purl.org/dc/elements/1.1/"
   xmlns:cc="http://creativecommons.org/ns#"
   xmlns:rdf="http://www.w3.org/1999/02/22-rdf-syntax-ns#"
   xmlns:svg="http://www.w3.org/2000/svg"
   xmlns="http://www.w3.org/2000/svg"
   xmlns:sodipodi="http://sodipodi.sourceforge.net/DTD/sodipodi-0.dtd"
   xmlns:inkscape="http://www.inkscape.org/namespaces/inkscape"
   width="705.02148"
   height="210.88229"
   id="svg2"
   sodipodi:version="0.32"
   inkscape:version="0.48.5 r10040"
   sodipodi:docname="SNCF_logo1972.svg"
   inkscape:output_extension="org.inkscape.output.svg.inkscape"
   version="1.0"
   style="display:inline">
  <defs
     id="defs4" />
  <sodipodi:namedview
     id="base"
     pagecolor="#fbefcf"
     bordercolor="#666666"
     borderopacity="1.0"
     inkscape:pageopacity="1"
     inkscape:pageshadow="2"
     inkscape:zoom="1.4738281"
     inkscape:cx="386.55306"
     inkscape:cy="39.66453"
     inkscape:document-units="px"
     inkscape:current-layer="layer1"
     showgrid="false"
     inkscape:window-width="1366"
     inkscape:window-height="706"
     inkscape:window-x="-8"
     inkscape:window-y="-8"
     showguides="true"
     inkscape:guide-bbox="true"
     inkscape:window-maximized="1" />
  <metadata
     id="metadata7">
    <rdf:RDF>
      <cc:Work
         rdf:about="">
        <dc:format>image/svg+xml</dc:format>
        <dc:type
           rdf:resource="http://purl.org/dc/dcmitype/StillImage" />
      </cc:Work>
    </rdf:RDF>
  </metadata>
  <g
     inkscape:groupmode="layer"
     id="layer1"
     style="display:inline"
     transform="translate(-716.61149,-19.548048)">
    <g
       id="g3352">
      <path
         sodipodi:nodetypes="cccccccccccccccccccccccccccccccccccccccccccccccccccccccc"
         d="M 1342.7718,156.81338 L 1285.5953,156.81338 L 1276.1065,190.08337 L 1222.6491,190.08337 L 1253.574,87.779955 C 1259.9168,64.704188 1265.9357,59.426032 1287.5981,59.806883 L 1372.277,59.806883 L 1360.0042,101.48007 L 1302.8221,101.48007 L 1296.3202,121.89789 L 1353.5701,121.7489 L 1342.7718,156.81338 z M 1201.2867,190.08337 L 1107.6005,190.08337 C 1093.6761,189.96339 1083.2808,186.71747 1089.5831,162.53241 L 1115.0568,78.197542 C 1117.6553,68.425044 1123.3843,59.954664 1141.7416,59.806883 L 1240.5632,59.806883 L 1227.9797,101.48007 L 1161.6152,101.48007 L 1146.493,151.0685 L 1212.4668,151.0685 L 1201.2867,190.08337 z M 1047.6156,59.806883 L 1029.2634,120.71806 C 1026.7756,127.95231 1026.8388,127.9498 1023.9359,121.75333 L 998.07063,73.289236 C 994.53807,66.131901 988.05245,59.993965 979.09036,59.806883 L 963.34819,59.806883 C 949.06559,59.757765 941.40303,65.761519 938.6513,77.208216 L 904.45982,190.08337 L 955.05031,190.08337 L 972.11087,132.56313 C 973.27133,127.98187 970.67126,128.2076 972.4743,130.7604 L 1001.7148,182.63237 C 1007.6211,191.08035 1012.8731,189.91218 1022.644,190.08337 L 1044.8909,190.08337 C 1052.8931,190.11078 1063.4344,187.94624 1066.2618,177.37835 L 1101.5722,59.806883 L 1047.6156,59.806883 z M 776.64024,155.2779 L 829.3847,155.2779 C 835.32989,155.59018 836.35143,155.92392 831.95291,151.53741 L 800.96111,119.24752 C 789.63289,107.64656 792.2513,103.29681 797.1128,85.884956 C 801.80067,66.7505 806.01209,59.243983 826.41412,59.806883 L 920.35353,59.806883 L 907.92981,101.02862 L 866.21669,101.02862 C 847.46399,101.02862 842.92233,98.899578 854.49063,109.24733 L 879.75892,132.88445 C 886.22438,139.08471 894.30275,145.34801 891.84735,154.27246 L 883.93639,180.46306 C 881.0793,190.84533 871.23525,190.39403 857.39088,190.08337 L 765.96744,190.08337 L 776.64024,155.2779 z"
         style="fill:#000000;fill-opacity:1;stroke:none;stroke-width:5;stroke-miterlimit:4;stroke-dasharray:none;stroke-opacity:1;display:inline"
         id="path3343" />
      <path
         sodipodi:nodetypes="ccccccc"
         id="path2547"
         d="M 719.11149,227.5911 L 763.4681,79.436257 C 777.31173,37.551484 801.67859,23.487197 841.99021,22.048048 L 1419.133,22.048048 L 1373.3742,173.32025 C 1363.4304,209.60033 1328.8568,230.91444 1290.6401,227.5911 L 719.11149,227.5911 z"
         style="fill:none;fill-rule:evenodd;stroke:#000000;stroke-width:5;stroke-linecap:butt;stroke-linejoin:miter;stroke-miterlimit:4;stroke-dasharray:none;stroke-opacity:1" />
    </g>
    <path
       style="fill:#000080;fill-opacity:1;stroke:#000000;stroke-width:0.67850518;stroke-miterlimit:4;stroke-opacity:1;stroke-dasharray:none;stroke-dashoffset:0"
       d="m 50.150198,169.78659 c 0,-0.49373 6.339315,-21.5093 9.594996,-31.80853 l 0.705561,-2.23202 27.926848,0.055 c 15.359767,0.0303 28.330897,0.0423 28.824727,0.0269 0.49384,-0.0155 0.79916,-0.47061 0.67851,-1.01144 -0.12066,-0.54085 -8.15789,-9.27845 -17.86051,-19.41693 C 81.230191,95.765375 78.376756,92.338832 77.210797,88.008794 76.234428,84.382835 76.703802,81.422878 80.38149,68.013839 85.031743,51.058778 87.507714,46.676623 94.531207,42.970637 l 3.453605,-1.822314 52.414528,-0.193445 c 29.35057,-0.108324 52.41452,0.06587 52.41452,0.395868 0,0.324122 -2.59528,9.240188 -5.76729,19.813479 -3.17202,10.573291 -5.7673,19.325975 -5.7673,19.450408 0,0.124433 -12.74741,0.230411 -28.32759,0.235507 -15.58017,0.0051 -29.01458,0.19337 -29.85423,0.418387 -3.61859,0.969746 -2.36696,2.395951 22.5603,25.706953 17.56942,16.43024 19.3374,18.65158 19.3374,24.29609 0,3.00558 -7.04613,27.45757 -9.25137,32.10477 -1.46645,3.09031 -5.09956,5.46739 -9.68561,6.33711 -4.64882,0.88164 -105.907972,0.95156 -105.907972,0.0731 z"
       id="path3001"
       inkscape:connector-curvature="0"
       transform="translate(716.61149,19.548048)" />
    <path
       style="fill:#000080;fill-opacity:1;stroke:#000000;stroke-width:0.67850518;stroke-miterlimit:4;stroke-opacity:1;stroke-dasharray:none;stroke-dashoffset:0"
       d="m 188.56525,169.92769 c 0,-1.63019 35.0593,-115.798248 36.33541,-118.323616 1.87802,-3.716518 5.45749,-7.011261 9.73311,-8.958891 2.75646,-1.255624 4.71348,-1.454364 16.67007,-1.692887 8.48979,-0.169363 14.45417,0.0016 15.97718,0.457862 4.14226,1.241053 8.63408,4.729562 11.37516,8.834362 1.43659,2.151304 8.85163,15.701563 16.47786,30.111687 7.62623,14.410124 14.24746,26.358493 14.71383,26.551933 0.50089,0.20776 1.24163,-0.59049 1.80979,-1.9503 0.72242,-1.72898 17.24478,-55.84798 19.22192,-62.961386 0.30708,-1.104825 2.1644,-1.187384 26.71259,-1.187384 17.65633,0 26.38257,0.231262 26.38257,0.699188 0,0.384553 -7.94348,27.177027 -17.65218,59.538832 -13.18986,43.96547 -18.12685,59.52572 -19.52989,61.55366 -4.52199,6.53602 -11.88883,8.09 -36.41201,7.68081 -17.48736,-0.29178 -18.75332,-0.57948 -22.90896,-5.20616 -1.22249,-1.36106 -8.78652,-14.15182 -16.80895,-28.42391 -8.02243,-14.27209 -14.81523,-25.95086 -15.09511,-25.95283 -0.27989,-0.002 -0.50888,0.55856 -0.50888,1.2456 0,0.98924 -13.35618,46.91844 -16.35867,56.25416 l -0.7092,2.20514 -24.71282,0 c -13.59205,0 -24.71282,-0.21415 -24.71282,-0.47587 z"
       id="path3003"
       inkscape:connector-curvature="0"
       transform="translate(716.61149,19.548048)" />
    <path
       style="fill:#000080;fill-opacity:1;stroke:#000000;stroke-width:0.67850518;stroke-miterlimit:4;stroke-opacity:1;stroke-dasharray:none;stroke-dashoffset:0"
       d="m 384.42167,169.65897 c -8.76077,-1.28007 -12.62962,-5.55592 -12.64886,-13.9795 -0.006,-2.68718 0.3231,-6.50377 0.73163,-8.48132 1.52188,-7.36674 27.31307,-91.927236 29.00515,-95.097941 2.21248,-4.145884 6.03661,-7.448123 10.90853,-9.419822 l 3.78562,-1.532064 53.49053,-0.189384 53.49053,-0.189384 -0.43319,1.885647 c -0.23825,1.037105 -2.93975,10.129484 -6.00335,20.205286 l -5.57017,18.31964 -33.23857,0.176664 -33.23857,0.176664 -7.38119,24.249524 c -4.05965,13.33724 -7.52725,24.63118 -7.70577,25.09765 -0.25692,0.67133 6.55065,0.84813 32.6555,0.84813 18.13906,0 32.9801,0.17029 32.9801,0.37843 0,0.29617 -4.30649,15.36739 -10.60362,37.10898 -0.32365,1.11741 -3.17008,1.18251 -48.30243,1.10465 -26.37718,-0.0455 -49.74203,-0.34334 -51.92187,-0.66185 l 0,0 z"
       id="path3005"
       inkscape:connector-curvature="0"
       transform="translate(716.61149,19.548048)" />
    <path
       style="fill:#000080;fill-opacity:1;stroke:#000000;stroke-width:0.67850518;stroke-miterlimit:4;stroke-opacity:1;stroke-dasharray:none;stroke-dashoffset:0"
       d="m 506.78418,169.91959 c 0,-0.27494 7.36494,-24.9337 16.36654,-54.79725 9.73399,-32.293325 17.38894,-56.497085 18.88941,-59.725409 3.12046,-6.713786 6.73474,-10.524129 11.99432,-12.644987 l 3.97687,-1.603621 48.34349,-0.191193 c 35.94281,-0.142149 48.34349,0.0079 48.34349,0.584961 0,0.68427 -5.10061,18.342455 -9.92852,34.372288 l -1.68371,5.590335 -28.60181,0.176959 -28.60182,0.17696 -3.21382,9.838325 c -1.7676,5.411078 -3.2297,10.067322 -3.2491,10.347202 -0.0194,0.27988 12.82112,0.50888 28.53452,0.50888 22.5749,0 28.50238,0.17797 28.24846,0.84813 -0.17675,0.46647 -2.5757,8.24912 -5.33101,17.29477 l -5.00966,16.44664 -28.64069,0.007 -28.64069,0.007 -0.69568,2.5444 c -0.38263,1.39942 -2.48644,8.8036 -4.67514,16.45375 l -3.97946,13.90935 -26.223,0.1776 c -14.42265,0.0977 -26.22299,-0.0474 -26.22299,-0.32231 z"
       id="path3007"
       inkscape:connector-curvature="0"
       transform="translate(716.61149,19.548048)" />
    <path
       style="fill:#000080;fill-opacity:1;stroke:#000000;stroke-width:0.67850518000000004;stroke-miterlimit:4;stroke-opacity:1;stroke-dasharray:none;stroke-dashoffset:0"
       d="m -0.0591849,209.79927 c 0,-0.98037 43.9201279,-147.615061 45.9418609,-153.384581 C 50.310558,43.778621 57.054004,31.868795 64.451066,23.620436 74.395759,12.531246 89.270804,5.2383586 109.23672,1.6630708 115.15241,0.60375076 137.48609,0.50265396 410.5742,0.29902011 L 705.52248,0.07908589 704.8992,1.9548122 c -0.34278,1.0316494 -11.17952,36.8094428 -24.08171,79.5062098 -12.9022,42.696758 -24.36878,79.816988 -25.4813,82.489388 -3.67686,8.83221 -8.48656,15.77364 -16.22474,23.41578 -12.81012,12.65113 -27.32765,19.73819 -45.81787,22.36703 -6.31035,0.89717 -593.3527649,0.96252 -593.3527649,0.0661 z M 597.5732,204.6525 c 17.89509,-3.39465 33.22979,-12.37685 43.98095,-25.76157 4.47192,-5.56734 9.40775,-14.35821 11.43227,-20.36121 0.85887,-2.54671 24.26729,-79.767948 46.22616,-152.4940398 C 699.5536,4.9061254 685.45026,4.8485673 409.63403,4.8538632 217.60625,4.8575503 117.63485,5.0924476 113.59043,5.5494608 100.55263,7.0227125 87.559322,11.208939 79.095343,16.663204 67.558774,24.097474 57.676373,37.356081 51.236331,54.039921 50.227992,56.652166 39.534211,91.764808 27.472373,132.06802 L 5.5417592,205.34657 291.61486,205.73248 c 157.34021,0.21225 289.34779,0.28362 293.35018,0.15861 4.00238,-0.12502 9.67606,-0.68238 12.60816,-1.23859 l 0,0 z"
       id="path3009"
       inkscape:connector-curvature="0"
       transform="translate(716.61149,19.548048)" />
    <path
       style="fill:#ffffff;fill-opacity:1;stroke:#000000;stroke-width:0.67850518000000004;stroke-miterlimit:4;stroke-opacity:1;stroke-dasharray:none;stroke-dashoffset:0"
       d="M 6.9966923,203.34213 C 7.6789985,200.62361 32.997576,116.31074 42.967979,83.554896 50.348294,59.308292 52.893329,51.873342 55.889632,45.806167 62.561125,32.29715 71.843773,21.742447 82.217729,15.870172 88.208767,12.478891 99.036101,8.7883711 107.94,7.1026777 113.92662,5.9692887 130.03727,5.9034413 405.79988,5.8852672 566.1419,5.8747002 697.5362,6.0714154 697.78732,6.3224128 c 0.25104,0.2509973 -9.98149,34.9056482 -22.73894,77.0103332 -25.66497,84.704644 -25.40627,83.990484 -34.56408,95.415664 -8.74544,10.91072 -22.75708,19.84018 -37.69164,24.02047 l -6.78505,1.89919 -294.71577,0.17499 -294.7157766,0.17499 0.4206289,-1.67592 0,0 z M 155.95449,170.41162 c 5.35491,-1.01554 8.03822,-2.56643 9.85163,-5.69402 2.36014,-4.07055 9.86753,-29.48394 9.86753,-33.40275 0,-5.64103 -1.82437,-8.1275 -15.49779,-21.12204 -6.9631,-6.61738 -16.17144,-15.5355 -20.46298,-19.818035 l -7.80281,-7.786437 4.07103,-0.460841 c 2.23907,-0.253455 15.7035,-0.493972 29.92097,-0.534479 l 25.84994,-0.07364 5.94627,-19.819453 c 3.27045,-10.900698 6.10078,-20.222084 6.28962,-20.714189 0.2828,-0.736967 -9.09259,-0.861339 -53.16913,-0.705329 l -53.512463,0.189409 -3.618278,2.00427 c -6.699208,3.710887 -9.233669,8.297006 -14.078548,25.475189 -3.811415,13.513875 -4.213836,18.914118 -1.777948,23.858894 1.012329,2.054989 7.870049,9.786401 19.559499,22.051421 9.900338,10.38781 18.293068,19.42125 18.650518,20.07431 0.61428,1.12231 -0.91082,1.18739 -27.825469,1.18739 -26.536967,0 -28.498611,0.0808 -28.816855,1.18738 -0.931267,3.23809 -10.070852,33.00037 -10.386769,33.82364 -0.310404,0.80889 7.330531,0.94975 51.521173,0.94975 31.33692,0 53.28572,-0.26552 55.42086,-0.67044 z m 83.67012,-2.55246 c 0.52362,-1.77259 4.41729,-14.91338 8.65257,-29.20174 l 7.70053,-25.97884 3.29104,5.62368 c 1.81008,3.09303 8.24419,14.4243 14.29802,25.18059 6.05383,10.75629 11.87615,20.61196 12.93848,21.90148 1.06234,1.28953 3.19963,3.02271 4.74954,3.85153 2.73805,1.46419 3.40525,1.50623 23.51242,1.48172 19.85958,-0.0242 20.8498,-0.087 24.54616,-1.55681 2.12656,-0.84558 5.05304,-2.73286 6.53379,-4.21362 3.20366,-3.20365 1.49213,1.9773 22.85347,-69.179161 8.79426,-29.294461 16.1545,-53.796979 16.35607,-54.45004 0.34486,-1.117278 -1.24979,-1.187384 -27.00833,-1.187384 l -27.37482,0 -9.74037,32.059369 c -5.3572,17.632653 -9.96097,32.477466 -10.2306,32.988476 -0.59371,1.12523 -3.28166,-3.53257 -18.35193,-31.801092 -12.93993,-24.272477 -13.1949,-24.696724 -16.80002,-27.953731 -5.31793,-4.804429 -5.81835,-4.930004 -20.61788,-5.173801 -14.73203,-0.242685 -19.25714,0.429028 -24.28896,3.605476 -3.17876,2.00666 -6.28808,6.041727 -7.75701,10.0665 -1.81939,4.985031 -35.00003,115.095068 -35.00003,116.147688 0,0.87977 3.33108,1.01261 25.3929,1.01261 l 25.39291,0 0.95205,-3.2229 z M 490.3985,151.91429 c 3.04656,-10.54227 5.53704,-19.5408 5.5344,-19.99673 -0.003,-0.63856 -7.39475,-0.87233 -32.17774,-1.01776 -17.69511,-0.10384 -32.3556,-0.37169 -32.57888,-0.59523 -0.22328,-0.22354 2.86392,-11.13615 6.86044,-24.25024 l 7.26639,-23.843811 33.2331,-0.175943 33.23309,-0.175943 5.65344,-18.658892 c 3.10938,-10.262391 5.93477,-19.659893 6.27863,-20.883336 l 0.62522,-2.224444 -54.40068,0.188928 c -51.91305,0.180289 -54.5403,0.248541 -57.45395,1.492555 -4.96218,2.118655 -8.5058,4.872079 -10.72868,8.336301 -1.56361,2.436786 -5.40711,14.232997 -15.33686,47.070953 -7.28769,24.100602 -13.71225,45.778842 -14.27679,48.173862 -1.60175,6.79536 -1.3839,14.68655 0.50595,18.32686 1.86879,3.59973 6.07859,5.9808 11.89483,6.72771 2.12004,0.27225 25.56132,0.53504 52.09175,0.58397 l 48.23714,0.089 5.5392,-19.16777 z m 70.59176,14.58786 c 0.73707,-2.51895 2.29716,-7.93851 3.46686,-12.04346 1.16969,-4.10496 2.72879,-9.52122 3.46467,-12.03613 l 1.33795,-4.57257 28.61786,-0.17697 28.61786,-0.17696 4.91013,-15.94487 c 2.70058,-8.76968 5.09838,-16.77158 5.32845,-17.782 l 0.41832,-1.83713 -27.81047,-0.19839 c -15.29575,-0.10911 -28.00471,-0.39295 -28.24212,-0.63074 -0.2374,-0.23779 0.86746,-4.588708 2.45526,-9.668703 l 2.88691,-9.236342 28.70014,0 c 15.78508,0 28.70014,-0.11255 28.70014,-0.250103 0,-0.216125 10.91564,-37.38326 11.9326,-40.629833 0.35183,-1.123181 -2.23148,-1.187384 -47.77618,-1.187384 -46.31368,0 -48.31638,0.05197 -52.56428,1.364012 -6.04259,1.866366 -10.57774,5.992533 -13.67976,12.44611 -1.36763,2.845273 -9.2258,27.697812 -19.01797,60.146943 -9.17802,30.41399 -16.81772,55.67983 -16.97709,56.1463 -0.22864,0.66918 5.42604,0.84813 26.8004,0.84813 l 27.09018,0 1.34014,-4.57991 0,0 z"
       id="path3011"
       inkscape:connector-curvature="0"
       transform="translate(716.61149,19.548048)" />
  </g>
</svg>
