<?xml version="1.0" encoding="utf-8"?>
<!-- Generator: Adobe Illustrator 25.3.1, SVG Export Plug-In . SVG Version: 6.00 Build 0)  -->
<svg version="1.1"
	 id="svg2" xmlns:cc="http://creativecommons.org/ns#" xmlns:dc="http://purl.org/dc/elements/1.1/" xmlns:inkscape="http://www.inkscape.org/namespaces/inkscape" xmlns:rdf="http://www.w3.org/1999/02/22-rdf-syntax-ns#" xmlns:sodipodi="http://sodipodi.sourceforge.net/DTD/sodipodi-0.dtd" xmlns:svg="http://www.w3.org/2000/svg"
	 xmlns="http://www.w3.org/2000/svg" xmlns:xlink="http://www.w3.org/1999/xlink" x="0px" y="0px" viewBox="0 0 501.6 153.6"
	 style="enable-background:new 0 0 501.6 153.6;" xml:space="preserve">
<style type="text/css">
	.st0{fill:#009CB9;}
	.st1{fill:#BDD143;}
	.st2{fill:#7A1E72;}
	.st3{fill:#005CA5;}
	.st4{fill:url(#SVGID_1_);}
	.st5{fill:url(#SVGID_2_);}
</style>
<defs>
	
		<inkscape:perspective  id="perspective9" inkscape:persp3d-origin="372.04724 : 350.78739 : 1" inkscape:vp_x="0 : 526.18109 : 1" inkscape:vp_y="0 : 1000 : 0" inkscape:vp_z="744.09448 : 526.18109 : 1" sodipodi:type="inkscape:persp3d">
		</inkscape:perspective>
</defs>
<sodipodi:namedview  bordercolor="#666666" borderopacity="1.0" gridtolerance="10.0" guidetolerance="10.0" id="base" inkscape:current-layer="g11" inkscape:cx="265" inkscape:cy="75.625" inkscape:pageopacity="0.0" inkscape:pageshadow="2" inkscape:window-height="726" inkscape:window-width="645" inkscape:window-x="369" inkscape:window-y="25" inkscape:zoom="1.0509434" objecttolerance="10.0" pagecolor="#ffffff" showgrid="false">
	</sodipodi:namedview>
<g>
	<g>
		<g>
			<g>
				<g>
					<path class="st0" d="M407.3,84.8c0-13.5-5.2-25.8-13.8-35.1h-11.7c10.5,8.1,17.3,20.8,17.3,35.1s-6.8,27-17.3,35.1h11.7
						C402.1,110.6,407.3,98.3,407.3,84.8z"/>
					<path class="st1" d="M413.2,84.9c0-13.1-4.2-25.3-11.3-35.2H418c5.9,10.4,9.3,22.4,9.3,35.2c0,12.7-3.3,24.6-9.1,34.9h-16.1
						C409.2,109.9,413.2,97.9,413.2,84.9z"/>
					<g>
						<path class="st2" d="M470.8,58.8h-1.4c-0.1,0-0.2-0.1-0.2-0.2l-1.7-3.1h-0.2c-0.3,0-0.8,0-1,0v3.2c0,0.1-0.1,0.2-0.2,0.2h-1.2
							c-0.1,0-0.2-0.1-0.2-0.2v-8c0-0.2,0.1-0.3,0.4-0.4c0.6-0.1,1.4-0.2,2.3-0.2c1.8,0,3.4,0.6,3.4,2.6v0.1c0,1.2-0.6,2-1.6,2.4
							l1.8,3.4v0.1C470.9,58.7,470.9,58.8,470.8,58.8z M469,52.7c0-0.9-0.6-1.2-1.7-1.2c-0.2,0-0.8,0-1,0v2.6c0.2,0,0.8,0,1,0
							C468.5,54.1,469,53.8,469,52.7L469,52.7z"/>
						<path class="st2" d="M477.2,56h-3.8l0,0c0,0.7,0.3,1.5,1.4,1.5c0.8,0,1.7-0.1,2.1-0.1l0,0c0.1,0,0.2,0.1,0.2,0.2v0.8
							c0,0.2,0,0.3-0.2,0.3c-0.8,0.1-1.2,0.2-2.3,0.2c-1.2,0-2.8-0.6-2.8-2.9v-0.9c0-1.8,1-3,2.8-3s2.8,1.2,2.8,3v0.6
							C477.5,55.9,477.4,56,477.2,56z M475.9,54.9c0-0.9-0.5-1.4-1.2-1.4s-1.2,0.5-1.2,1.4l0,0H475.9L475.9,54.9z M476.6,49.9
							l-1.4,1.4c-0.1,0.1-0.1,0.2-0.3,0.2h-1c-0.1,0-0.1,0-0.1-0.1v-0.1l1.1-1.4c0.1-0.1,0.2-0.2,0.3-0.2h1.2
							C476.6,49.7,476.6,49.7,476.6,49.9C476.6,49.8,476.6,49.8,476.6,49.9z"/>
						<path class="st2" d="M484.5,53.3l-0.4,0.2c0.2,0.3,0.3,0.5,0.3,0.9v0.1c0,1.5-1,2.1-2.8,2.1c-0.6,0-1-0.1-1.3-0.2
							c-0.1,0.1-0.2,0.2-0.2,0.3c0,0.2,0.1,0.3,0.4,0.4l1.4,0.3c1.6,0.4,2.6,0.6,2.6,1.9v0.1c0,1.2-0.9,1.8-2.9,1.8
							c-1.9,0-2.9-0.7-2.9-1.9v-0.1c0-0.5,0.2-0.9,0.6-1.3c-0.3-0.2-0.5-0.7-0.5-1.1l0,0c0-0.4,0.2-0.7,0.5-0.9
							c-0.4-0.4-0.5-0.8-0.5-1.4v-0.1c0-1.2,0.8-2.1,2.8-2.1h2.7c0.2,0,0.3,0.1,0.3,0.3v0.5C484.7,53.2,484.7,53.2,484.5,53.3z
							 M483.1,59.2c0-0.3-0.2-0.4-1.4-0.7l-1-0.2c-0.2,0.2-0.3,0.4-0.3,0.8v0.1c0,0.5,0.3,0.8,1.4,0.8
							C482.9,60,483.1,59.7,483.1,59.2L483.1,59.2z M482.9,54.4c0-0.6-0.2-1-1.2-1s-1.3,0.4-1.3,1v0.1c0,0.4,0.2,0.9,1.3,0.9
							C482.7,55.4,482.9,55,482.9,54.4L482.9,54.4z"/>
						<path class="st2" d="M487.4,51.3h-1.1c-0.1,0-0.2-0.1-0.2-0.2v-1c0-0.1,0.1-0.2,0.2-0.2h1.1c0.1,0,0.2,0.1,0.2,0.2v1
							C487.7,51.2,487.5,51.3,487.4,51.3z M487.4,58.8h-1.1c-0.1,0-0.2-0.1-0.2-0.2v-6.1c0-0.1,0.1-0.2,0.2-0.2h1.1
							c0.1,0,0.2,0.1,0.2,0.2v6.1C487.6,58.7,487.5,58.8,487.4,58.8z"/>
						<path class="st2" d="M492,58.9c-1.8,0-2.8-1.2-2.8-2.9v-0.9c0-1.7,1-2.9,2.8-2.9s2.8,1.2,2.8,2.9V56
							C494.8,57.6,493.8,58.9,492,58.9z M493.2,55c0-1-0.4-1.6-1.2-1.6c-0.8,0-1.2,0.6-1.2,1.6v0.9c0,1,0.4,1.6,1.2,1.6
							c0.8,0,1.2-0.6,1.2-1.6V55z"/>
						<path class="st2" d="M501.5,58.8h-1.1c-0.1,0-0.2-0.1-0.2-0.2v-3.9c0-1-0.1-1.3-1-1.3c-0.4,0-0.8,0.2-1.3,0.4v4.7
							c0,0.1-0.1,0.2-0.2,0.2h-1.1c-0.1,0-0.2-0.1-0.2-0.2v-6.1c0-0.1,0.1-0.2,0.2-0.2h1c0.1,0,0.2,0.1,0.2,0.2v0.3
							c0.7-0.4,1.1-0.6,1.9-0.6c1.7,0,2,1.1,2,2.6v3.8C501.7,58.7,501.6,58.8,501.5,58.8z"/>
					</g>
					<g>
						<path class="st3" d="M449.6,76.4c-0.7,0-1.8-0.1-2.4-0.1v6.9c0,0.3-0.2,0.5-0.5,0.5h-2.6c-0.3,0-0.5-0.2-0.5-0.5V65
							c0-0.5,0.3-0.7,0.8-0.8c1.4-0.2,3.3-0.3,5.2-0.3c4.1,0,7.6,1.4,7.6,6.1v0.2C457.3,74.9,453.7,76.4,449.6,76.4z M453.6,70
							c0-2.2-1.3-3.1-4-3.1c-0.6,0-1.9,0-2.4,0.1v6.3c0.4,0,1.9,0.1,2.4,0.1c2.9,0,4-1.1,4-3.2V70z"/>
						<path class="st3" d="M472.9,83.7h-2.8c-0.2,0-0.5-0.2-0.5-0.5l-1.2-5h-6.1l-1.2,5c-0.1,0.2-0.3,0.5-0.5,0.5h-2.9
							c-0.3,0-0.5-0.2-0.5-0.5v-0.1l4.3-16.6c0.6-2.5,2.5-2.7,3.7-2.7c1.1,0,3,0.2,3.7,2.7l4.3,16.6c0,0.1,0,0.1,0,0.1
							C473.3,83.6,473.1,83.7,472.9,83.7z M465.7,67.4c-0.1-0.3-0.2-0.4-0.4-0.4c-0.3,0-0.3,0.1-0.4,0.4l-1.9,7.9h4.7L465.7,67.4z"
							/>
						<path class="st3" d="M494.7,84c-2,0-3.4-0.2-4.7-0.5c-0.3-0.1-0.5-0.2-0.5-0.5v-1.9c0-0.3,0.2-0.5,0.5-0.5l0,0
							c1.1,0.1,3.7,0.3,4.7,0.3c2.4,0,3.1-0.8,3.1-2.4c0-1-0.5-1.6-2.3-2.6l-3.5-2.1c-2.5-1.5-3.1-3-3.1-4.8c0-2.9,1.7-5,6.6-5
							c1.7,0,4.2,0.3,5.1,0.5c0.3,0.1,0.5,0.2,0.5,0.5v2c0,0.3-0.2,0.5-0.5,0.5c0,0,0,0-0.1,0c-1.8-0.2-3.5-0.3-5.2-0.3
							c-2,0-2.8,0.7-2.8,1.9c0,0.9,0.4,1.4,2.2,2.4l3.2,1.8c2.9,1.6,3.7,3.3,3.7,5.4C501.7,81.1,500,84,494.7,84z"/>
						<path class="st3" d="M445.6,119.7c-0.8,0.2-3.1,0.4-4.5,0.4c-3.4,0-6.1-0.9-6.1-5.4v-14c0-0.3,0.2-0.5,0.5-0.5h2.6
							c0.3,0,0.5,0.2,0.5,0.5v13.9c0,1.7,0.5,2.3,2.1,2.3h4.9c0.3,0,0.5,0.2,0.5,0.5v1.7C446.1,119.5,446,119.6,445.6,119.7z"/>
						<path class="st3" d="M454.7,120c-4.4,0-7.6-2.4-7.6-8.3v-3.6c0-5.8,3.2-8.3,7.6-8.3s7.5,2.4,7.5,8.3v3.6
							C462.3,117.6,459.1,120,454.7,120z M458.6,108.2c0-3.5-1.2-5.1-3.8-5.1c-2.6,0-3.8,1.6-3.8,5.1v3.6c0,3.5,1.2,5.1,3.8,5.1
							c2.6,0,3.8-1.6,3.8-5.1V108.2z"/>
						<path class="st3" d="M468.9,119.8h-2.6c-0.3,0-0.5-0.2-0.5-0.5v-18.6c0-0.3,0.2-0.5,0.5-0.5h2.6c0.3,0,0.5,0.2,0.5,0.5v18.7
							C469.4,119.6,469.2,119.8,468.9,119.8z"/>
						<path class="st3" d="M487.4,119.8h-3.2c-0.3,0-0.4-0.3-0.5-0.5l-3.8-7.1h-0.4c-0.7,0-1.8-0.1-2.4-0.1v7.2
							c0,0.3-0.2,0.5-0.5,0.5H474c-0.3,0-0.5-0.2-0.5-0.5v-18.2c0-0.5,0.3-0.7,0.8-0.8c1.4-0.2,3.3-0.3,5.2-0.3c4.1,0,7.6,1.5,7.6,6
							v0.2c0,2.8-1.4,4.6-3.6,5.4l4.2,7.7c0.1,0.1,0.1,0.2,0.1,0.2C487.7,119.7,487.6,119.8,487.4,119.8z M483.4,105.9
							c0-2-1.3-2.8-4-2.8c-0.6,0-1.9,0.1-2.4,0.1v6c0.4,0,1.9,0.1,2.4,0.1c2.7,0,4-0.7,4-3.1V105.9z"/>
						<path class="st3" d="M501.2,119.7c-0.8,0.1-1.9,0.4-5,0.4c-3.4,0-6.1-0.9-6.1-5.4v-9.2c0-4.5,2.7-5.4,6.1-5.4
							c3.2,0,4.2,0.2,5,0.4c0.4,0.1,0.5,0.2,0.5,0.6v1.7c0,0.3-0.2,0.5-0.5,0.5h-5.4c-1.5,0-2.1,0.5-2.1,2.3v2.9h7.2
							c0.3,0,0.5,0.2,0.5,0.5v1.9c0,0.3-0.2,0.5-0.5,0.5h-7.2v3.4c0,1.7,0.6,2.3,2.1,2.3h5.4c0.3,0,0.5,0.2,0.5,0.5v1.7
							C501.7,119.5,501.6,119.6,501.2,119.7z"/>
						<path class="st3" d="M482.4,95.7c-0.7,0.2-1.6,0.3-2.3,0.3c-1.9,0-2.8-1.1-2.8-2.9v-0.9c0-1.8,0.9-2.9,2.8-2.9
							c0.3,0,0.7,0,1.1,0.1v-2c0-0.1,0.1-0.2,0.2-0.2h1.1c0.1,0,0.2,0.1,0.2,0.2v8C482.7,95.5,482.7,95.6,482.4,95.7z M481.2,90.6
							c-0.3,0-0.8-0.1-1.1-0.1c-1,0-1.2,0.7-1.2,1.6V93c0,0.9,0.2,1.6,1.2,1.6c0.4,0,0.9,0,1.1-0.1V90.6z"/>
						<path class="st3" d="M489.3,93.1h-3.8l0,0c0,0.7,0.3,1.5,1.4,1.5c0.8,0,1.6-0.1,2.1-0.1l0,0c0.1,0,0.2,0.1,0.2,0.2v0.8
							c0,0.2,0,0.3-0.2,0.3c-0.7,0.1-1.2,0.2-2.2,0.2c-1.2,0-2.8-0.6-2.8-2.9v-0.9c0-1.8,1-2.9,2.8-2.9s2.7,1.2,2.7,2.9v0.6
							C489.6,93,489.5,93.1,489.3,93.1z M488,92c0-0.9-0.5-1.4-1.2-1.4s-1.2,0.5-1.2,1.4l0,0H488L488,92z"/>
						<path class="st3" d="M495.1,95.9H494c-0.1,0-0.2-0.1-0.2-0.2v-8.3c0-0.1,0.1-0.2,0.2-0.2h1.1c0.1,0,0.2,0.1,0.2,0.2v8.3
							C495.3,95.8,495.2,95.9,495.1,95.9z"/>
						<path class="st3" d="M501.5,95.9h-1c-0.1,0-0.2-0.1-0.2-0.2v-0.2c-0.5,0.3-1.1,0.5-1.6,0.5c-1,0-2-0.4-2-1.9l0,0
							c0-1.3,0.8-2,2.8-2h0.7v-0.5c0-0.7-0.3-0.9-1-0.9s-1.5,0-1.9,0.1h-0.1c-0.1,0-0.2,0-0.2-0.2v-0.9c0-0.1,0.1-0.2,0.2-0.2
							c0.5-0.1,1.1-0.2,1.9-0.2c1.6,0,2.5,0.7,2.5,2.2v4.2C501.7,95.8,501.6,95.9,501.5,95.9z M500.2,93h-0.7c-1.1,0-1.3,0.3-1.3,1
							l0,0c0,0.6,0.3,0.7,0.8,0.7c0.4,0,0.8-0.1,1.2-0.3V93z"/>
						<path class="st3" d="M487.4,64.7c0-0.1,0.1-0.1,0.1-0.2c0-0.2-0.2-0.4-0.5-0.4h-2.9c-0.2,0-0.4,0.2-0.5,0.4l-3.2,7.9
							c-0.2,0.5-0.3,0.5-0.5,0.5c-0.1,0-0.3-0.1-0.5-0.5l-3.2-7.9c-0.1-0.2-0.3-0.4-0.5-0.4h-2.9c-0.3,0-0.4,0.2-0.4,0.4
							c0,0.1,0,0.1,0.1,0.2l2.7,6.2l0,0l2.9,6.7v5.6c0,0.3,0.2,0.5,0.5,0.5h2.6c0.3,0,0.5-0.2,0.5-0.5v-5.6l1.7-3.9L487.4,64.7z"/>
					</g>
				</g>
				<g>
					<g>
						
							<linearGradient id="SVGID_1_" gradientUnits="userSpaceOnUse" x1="27.9463" y1="102.888" x2="382.1777" y2="45.3949" gradientTransform="matrix(1 0 0 -1 0 156.6756)">
							<stop  offset="0.2355" style="stop-color:#005CA5"/>
							<stop  offset="0.4885" style="stop-color:#0089BF"/>
							<stop  offset="0.7783" style="stop-color:#009CB9"/>
						</linearGradient>
						<path class="st4" d="M339.5,119.3c17.7,0,31.5-13.2,31.5-34.4c0-20.7-11.7-34.8-29.9-34.9c-16.9,0-22.6,6.6-22.8,7.1v-0.2
							c0-2.9-2.5-5.7-5.5-5.7h-6.6l0.1,14.2V80v11.1v15.6c0,0.7-0.4,1.3-1,1.6h-17c5.8-6.1,9.3-14.4,9.3-23.8
							c0-20-16-34.6-35.7-34.6c-19.8,0-35.6,14.5-35.6,34.6c0,8.7,3.1,16.5,7.8,22.2c0.2,0.2,0.2,0.3,0.4,0.5c0.4,0.5,0,0.9-0.5,1.1
							c-0.2,0-0.4,0.1-0.5,0.1H233c-0.1,0-0.6,0-0.6,0h-35.2l0,0c-4.8,0-9.4-1.3-13.2-3.9c19.8-14.1,31.2-25.5,35.9-31.2
							c3-3.6,2-5.4,2-5.4c-3.7-12.4-12.7-18.5-27.4-18.5c-21.2,0-33.2,14.2-33.2,35.3c0,6.9,1.8,13.3,5,18.6
							c-2.7,1.6-5.8,2.8-10.5,4.3c-6,1.9-19.2,1-19.2,1h0.1c-10.2-0.2-14.1-2.3-16.6-8c-1.8-6.4-1.4-10.1-1.4-10.1h4.5
							c9.9-0.3,24-4.4,30.1-23.1c5.6-23.8,1.3-42.4,1.3-42.4C151.9,8.5,136.5,0.1,129,0.2l-9.3-0.1h-3.6c-6.1,0-11,4.9-11,11v1.2v29
							l0,0v38.1l-15,0.1L64.7,16.2c-2.1-4.7-8.8-4.2-8.8-4.2h-4.1c-1.9,0.1-6.7-0.3-8.9,5L13.4,90.4l-6.3,14.1l-6.6,15l8,0.3
							c5.4-0.1,8-1.7,10.7-8.2l4.2-9.4l9.1-23.1l0,0l1.2-3l19.8-50.7c0.1-0.3,0.3-0.4,0.5-0.5c0.2,0.1,0.4,0.3,0.5,0.5l20,51.4
							l-0.3-0.7l1.2,3.2H54h-2.2c0,0,0,3.3,0,4c0,3.1,2.8,7.1,7.4,7.1h6l0,0h14.1l9.5,21.2c2.7,6.5,5.3,8.1,10.7,8.2l8-0.3l-6.6-15
							l-6.3-14.1h10.6c0,0-0.2,4.2,1.1,10c2.9,11.2,10.1,17.5,20.2,19c0.7,0.1,1.4,0.2,2.1,0.2h4.2c10,0.3,20.3,0.5,25-0.8
							c6.9-2,12.2-4.1,15.8-7c5.9,4.8,13.8,7.6,22.8,7.6h0.4l0,0h36v0.1h73.5v34.1h4.8c0,0,7.6,0.4,8.2-7.2v-26.9l0,0v-14.4l0,0
							c0-5.2,0-14.8,0-19.2c0-17,9.1-24,19.2-24c11.3,0,19.2,9.3,19.2,23.8c0,15.1-8.5,22.7-19.2,22.7h-7v4.6c0,0-0.1,4.1,2.5,5.7
							C335.2,119.3,337.1,119.3,339.5,119.3z M118.7,16.4v-0.5c0-2,1.6-3.6,3.6-3.6h0.5l3.7,0.2c8.8,0.3,13.7,10.1,15.1,15.9
							c0,0,2.6,13.9,0.1,29.5c-2.2,12.8-5.2,14.8-5.2,14.8c-2.2,2.4-8.1,6.6-12.7,6.5h-5.1V35.5c0-0.5,0-0.9,0-1.3V16.4z
							 M174.8,89.9c-1.1-6.1-0.2-11.3-0.2-11.3c0.3-2.4,1-5,1.6-6.5c3.1-8,10-11.7,18.2-12.2c9.2-0.5,16.3,5.6,14.5,8.8
							c-6.2,7.3-22.2,19.6-32.2,27C175.8,94,175.2,92,174.8,89.9z M261.9,108.3c-12.4,0-22.7-10-22.7-23.8
							c0-13.7,10.2-23.6,22.7-23.6c12.6,0,22.8,9.8,22.8,23.6S274.5,108.3,261.9,108.3z"/>
					</g>
					<path class="st1" d="M204.3,40.6l11.6-15.8h-14.1l-15.4,19.5l10.7,0.1C200.1,44.4,202.7,43,204.3,40.6z"/>
				</g>
			</g>
			<g>
				<g>
					
						<linearGradient id="SVGID_2_" gradientUnits="userSpaceOnUse" x1="27.577" y1="102.9187" x2="382.6223" y2="45.2936" gradientTransform="matrix(1 0 0 -1 0 156.6756)">
						<stop  offset="0.2355" style="stop-color:#005CA5"/>
						<stop  offset="0.4885" style="stop-color:#0089BF"/>
						<stop  offset="0.7783" style="stop-color:#009CB9"/>
					</linearGradient>
					<path class="st5" d="M339.9,119.4c17.8,0,31.5-13.3,31.5-34.5c0-20.7-11.7-34.9-30-34.9c-16.9,0-22.7,6.6-22.8,7.1v-0.2
						c0-2.9-2.5-5.7-5.5-5.7h-6.6l0.1,14.3v14.6v11.1v15.6c0,0.7-0.4,1.3-1,1.6h-17.1c5.8-6.1,9.4-14.4,9.4-23.9
						c0-20.1-16-34.6-35.8-34.6c-19.8,0-35.7,14.6-35.7,34.6c0,8.8,3.2,16.5,7.8,22.3c0.2,0.2,0.2,0.3,0.4,0.5
						c0.4,0.5,0,0.9-0.5,1.1c-0.2,0-0.4,0.1-0.5,0.1h-0.5c-0.1,0-0.6,0-0.6,0h-35.3l0,0c-4.8,0-9.4-1.3-13.2-3.9
						c19.8-14.1,31.2-25.5,36-31.3c3-3.6,2-5.4,2-5.4c-3.7-12.4-12.7-18.5-27.5-18.5c-21.2,0-33.3,14.3-33.3,35.4
						c0,6.9,1.8,13.3,5,18.6c-2.7,1.6-5.8,2.8-10.5,4.3c-6,1.9-19.2,1-19.2,1h0.1c-10.2-0.2-14.2-2.3-16.6-8
						c-1.8-6.4-1.4-10.1-1.4-10.1h4.5c9.9-0.3,24.1-4.4,30.2-23.2c5.6-23.8,1.3-42.5,1.3-42.5c-2.7-16.5-18.1-25-25.6-24.8L119.7,0
						h-3.6c-6.1,0-11,4.9-11.1,11v1.2v29.1l0,0v38.1l-15,0.1L64.4,16.1c-2.1-4.7-8.8-4.3-8.8-4.3h-4.1c-1.9,0.1-6.7-0.3-8.9,5
						L13,90.4l-6.3,14.2l-6.7,15l8,0.3c5.5-0.1,8-1.7,10.8-8.2l4.2-9.5l9.2-23.1l0,0l1.2-3l19.8-50.9c0.1-0.3,0.3-0.4,0.5-0.5
						c0.2,0.1,0.4,0.3,0.5,0.5l20.1,51.5L74,76l1.2,3.2H48h-2.2c0,0,0,3.3,0,4.1c0,3.1,2.8,7.1,7.4,7.1h6.1l0,0h19.8l9.5,21.2
						c2.7,6.5,5.3,8.1,10.8,8.2l8-0.3l-6.7-15l-6.3-14.2H105c0,0-0.2,4.3,1.1,10c2.9,11.3,10.1,17.6,20.3,19
						c0.7,0.1,1.4,0.2,2.1,0.2h4.2c10,0.3,20.3,0.5,25.1-0.8c6.9-2,12.2-4.1,15.8-7c6,4.8,13.8,7.6,22.9,7.6h0.4l0,0H233v0.1h73.6
						v34.2h4.8c0,0,7.7,0.4,8.2-7.2v-27l0,0V105l0,0c0-5.2,0-14.9,0-19.3c0-17,9.1-24,19.2-24c11.3,0,19.2,9.4,19.2,23.9
						c0,15.2-8.5,22.8-19.3,22.8h-7v4.6c0,0-0.1,4.1,2.6,5.7C335.6,119.4,337.5,119.4,339.9,119.4z M118.5,16.2v-0.5
						c0-2,1.6-3.6,3.6-3.7h0.5l3.7,0.2c8.8,0.3,13.7,10.1,15.1,16c0,0,2.6,14,0.1,29.6c-2.1,12.9-5.1,14.8-5.1,14.8
						c-2.2,2.4-8.1,6.6-12.8,6.5h-5.1V35.4c0-0.5,0-0.9,0-1.3V16.2z M174.7,89.9c-1.1-6.2-0.2-11.3-0.2-11.3c0.3-2.4,1-5,1.6-6.5
						c3.1-8,10-11.8,18.2-12.2c9.2-0.5,16.4,5.6,14.6,8.8c-6.2,7.3-22.3,19.7-32.3,27C175.8,94,175.1,92.1,174.7,89.9z M262.1,108.3
						c-12.5,0-22.7-10-22.7-23.9c0-13.8,10.2-23.6,22.7-23.6c12.6,0,22.8,9.8,22.8,23.6C284.9,98.3,274.7,108.3,262.1,108.3z"/>
				</g>
				<path class="st1" d="M204.4,40.5L216,24.7h-14.1l-15.5,19.5l10.8,0.1C200.1,44.3,202.8,42.9,204.4,40.5z"/>
			</g>
		</g>
	</g>
</g>
</svg>
