<?xml version="1.0" encoding="UTF-8" standalone="no"?>
<!-- Generator: Adobe Illustrator 12.0.0, SVG Export Plug-In . SVG Version: 6.00 Build 51448)  -->
<svg xmlns:dc="http://purl.org/dc/elements/1.1/" xmlns:cc="http://web.resource.org/cc/" xmlns:rdf="http://www.w3.org/1999/02/22-rdf-syntax-ns#" xmlns:svg="http://www.w3.org/2000/svg" xmlns="http://www.w3.org/2000/svg" xmlns:sodipodi="http://sodipodi.sourceforge.net/DTD/sodipodi-0.dtd" xmlns:inkscape="http://www.inkscape.org/namespaces/inkscape" version="1.0" id="Layer_1" width="128" height="88" viewBox="0 0 148.02 108.65" overflow="visible" enable-background="new 0 0 148.02 108.65" xml:space="preserve" sodipodi:version="0.32" inkscape:version="0.45.1" sodipodi:docname="br.svg" inkscape:output_extension="org.inkscape.output.svg.inkscape" sodipodi:docbase="C:\Users\Virgile"><metadata id="metadata28"><rdf:RDF><cc:Work rdf:about=""><dc:format>image/svg+xml</dc:format><dc:type rdf:resource="http://purl.org/dc/dcmitype/StillImage"/></cc:Work></rdf:RDF></metadata><defs id="defs26"/><sodipodi:namedview inkscape:window-height="748" inkscape:window-width="1024" inkscape:pageshadow="2" inkscape:pageopacity="0.0" guidetolerance="10.0" gridtolerance="10.0" objecttolerance="10.0" borderopacity="1.0" bordercolor="#666666" pagecolor="#ffffff" id="base" inkscape:zoom="2.4535596" inkscape:cx="74.010002" inkscape:cy="42.797149" inkscape:window-x="46" inkscape:window-y="46" inkscape:current-layer="Layer_1" width="128px" height="88px"/>











<g id="g2161" transform="matrix(0.773812,0,0,0.7727273,16.796632,12.700222)"><path id="path15" d="M 74.809111,-0.45764239 C 26.64468,-0.45764239 -12.222895,25.928176 -12.222895,53.290063 C -12.222895,79.547873 20.244092,108.02984 74.809111,108.18985 C 127.61397,108.50987 160.09696,78.107773 160.09696,54.570151 C 159.93694,25.288132 122.4935,-0.45764239 74.809111,-0.45764239" style="fill:#003e87;fill-opacity:1"/><path id="path17" d="M 75.129141,3.5426334 C 45.846447,3.5426334 2.4824578,21.927901 2.3064416,53.466075 C 2.3064416,85.788303 44.406314,104.18957 75.7692,104.18957 C 107.13208,104.18957 146.15967,87.548424 146.15967,55.066185 C 146.17568,18.263648 103.77178,3.5426334 75.129141,3.5426334" style="fill:#ffffff"/><path id="path19" d="M 35.925534,33.288684 C 34.965446,31.688574 34.965446,30.904519 37.205652,29.46442 C 39.285843,28.024321 51.286947,18.567669 70.312698,18.567669 C 89.354449,18.567669 98.971334,25.128121 101.69158,27.048254 C 104.41183,29.128397 109.21228,35.208816 109.21228,40.48918 C 109.03626,45.929555 102.65167,50.105843 101.03552,50.889897 C 99.435377,51.689952 98.155259,52.169985 101.21154,53.274061 C 104.41183,54.394139 114.17273,56.954315 114.17273,68.171088 C 114.17273,79.195848 107.93216,83.052114 100.25145,86.412346 C 92.426732,89.772577 82.809847,91.852721 72.72892,91.852721 C 62.647992,91.852721 50.646888,88.972522 45.046373,85.932313 C 39.445858,82.908104 36.725608,80.971971 36.085549,80.027906 C 35.44549,79.051838 34.645416,78.411794 35.925534,76.987696 C 37.205652,75.707608 37.205652,75.707608 38.005726,74.907553 C 38.805799,74.267509 39.285843,74.107498 40.085917,74.747542 C 41.046005,75.387586 42.006094,76.347652 42.006094,76.347652 C 42.006094,76.347652 43.766256,76.667674 43.766256,74.747542 C 43.766256,72.347376 43.766256,36.648915 43.766256,36.648915 C 43.766256,36.648915 43.766256,35.048805 42.310122,35.544839 C 41.030004,36.024872 39.589871,37.14495 38.149739,36.024872 C 36.725608,34.904795 36.725608,34.744784 35.925534,33.288684" style="fill:#003e87;fill-opacity:1"/><path id="path21" d="M 62.487978,29.144398 L 62.487978,47.705678 C 62.487978,47.705678 62.151947,48.985766 64.408154,48.985766 C 66.008302,48.985766 74.489082,48.825755 74.489082,48.825755 C 74.489082,48.825755 85.690112,48.825755 85.690112,38.265027 C 85.690112,27.544288 72.712918,26.904244 72.712918,26.904244 C 72.712918,26.904244 68.71255,26.568221 65.192227,26.904244 C 62.311962,27.224266 62.487978,29.144398 62.487978,29.144398" style="fill:#ffffff"/><path id="path23" d="M 62.647992,60.346549 L 62.647992,79.547873 C 62.647992,79.547873 62.647992,83.388137 68.728552,83.388137 C 74.649096,83.388137 79.449538,84.028181 84.409994,81.468005 C 89.210436,78.907828 91.434641,78.107773 91.434641,69.7872 C 91.434641,61.626637 84.714022,57.946384 72.552904,57.786373 C 69.192595,57.626362 66.632359,57.786373 65.192227,57.786373 C 62.487978,57.946384 62.647992,60.346549 62.647992,60.346549" style="fill:#ffffff"/></g></svg>