<?xml version="1.0" encoding="utf-8"?>
<!-- Generator: Adobe Illustrator 25.3.1, SVG Export Plug-In . SVG Version: 6.00 Build 0)  -->
<svg version="1.1" id="Calque_1" xmlns="http://www.w3.org/2000/svg" xmlns:xlink="http://www.w3.org/1999/xlink" x="0px" y="0px"
	 viewBox="0 0 425.2 152.7" style="enable-background:new 0 0 425.2 152.7;" xml:space="preserve">
<style type="text/css">
	.st0{fill:#C10230;}
</style>
<g>
	<g>
		<g>
			<path class="st0" d="M38,95c1-1,1.3-3.1,2-5.4c1.1-3.5,4.3-8.6-1.7-5.4c-4.8,2.3-7.9,2.7-7.5,4.3C32,92.9,37.4,95.5,38,95z"/>
			<path class="st0" d="M36.3,82c3.7-1.6,18.2-8.3,5.8-6.9c-4.8,0.6-3.7,0.5-5.9,3.8C35.6,79.7,32.9,83.4,36.3,82
				C38.2,81.2,35.7,82.2,36.3,82z"/>
			<path class="st0" d="M102.4,53.9C93,52.6,84.5,56.1,80,44.4c-2.4-6.1-4.6-8.2-5.8-9.6c-3.1-3.7-6.5-5.8-10.6-5.2
				c-6.2,0.9-12,0.6-17.6-3.2c-1.8-1.2-4.7,0.6-5.7,1.3c-1.1,0.7-2.4,2.1-3,2.9c0,0,0,0,0,0c0,0,0,0,0,0c0.5-0.3,1.2-0.3,1.9-0.3
				c-0.1,0.5-0.1,0.9-0.1,1.3c0,0.2,0.1,0.4,0.1,0.5c-0.7,1-1.3,2.2-1.5,3.5c-0.9,6.5-5.3,11.6-2.4,17.1c1.8,3.5-10.1,19-13.9,24.3
				c-3.1,4.2-6.9,6.6-2.2,11.5c2.7,2.8-9,18.1-10.6,20.7c-3.2,5.2-11,17.5-8.2,24c0.7,1.7,20.1,11.3,20.2,11.1
				c1.8-2.7-0.5-5.1-3.7-11.1c-2.5-4.7-1.6-6.8-3.8-7.7c-1.9-0.8-5.9,5.1-7.8,3.8c-3.3-2.3,11.9-27.1,14.2-30.8
				c1.5-2.6,3.9-6.1,4.9-9.1c0.8-2.8-3.4-2.3-2.5-4.6c4-9.8,12.1-18.9,16.5-26.6c3.4-5.8-1.8-12.8,1.6-11.5c4.8,1.8,9.5,0.5,9.4-3.7
				c-0.2-5-3.6-6.6-5.5-10.7c-0.3-0.6,0.3-1,1.5-1.1c3.2,2,6.8,2.9,11.1,2.9c2.5,0,4.9-0.3,7-0.6C74.9,38.7,74.2,53,84.4,57.6
				c9.5,4.2,36.3,0.6,24.3,24.5c-4.1,8.2-13.6,16.5-23.4,11.4c-8.5-4.4-19,15.7-23.3,20.8c-6.4,7.6-16.6-2.1-24.5,3.2
				c-6.9,4.6,1.3,12.2,4.6,15.3c5.9,5.7,5,14,9.4,19.6c1.6,2,7.1-7.2,5.1-10.5c-1.1-1.8-2.9-3.3-4.3-4.9c-1.6-1.9-11.9-13-5.9-14.7
				c4.6-1.3,10.9,1.5,15.1,3.1c3.3,1.2,8-10.2,9.5-12.2c2-2.7,11.2-15,13.7-10.8c4.9,8,21.6,10.3,12.6,6.1c-4.2-1.9-7.8-5.7-3.6-7.5
				c8-3.4,14.8-9,18.8-13.7C122.9,75.2,119.4,56.2,102.4,53.9z"/>
		</g>
		<path class="st0" d="M178.8,40.2c-7.6-4-16.8-3.9-25.1-4.9c-12.3-1.6-22,0-31.6,7.5c-2.7,2.1-4.4,5.4-3.3,7.4
			c1,1.7,4.8,6.5,7.5,4.2c5.2-4.4,10.5-8.8,17.7-9.5c1.8-0.2,7,0.2,8.8,0.4c11.3,1.2,18.7,3.5,28,6.6
			C186,53.7,182.3,42.1,178.8,40.2z"/>
		<path class="st0" d="M178.3,68c-6.9-7.1-16.2-11.4-26-12.1c-3.8-0.3-7.8,0.1-11.3,1.3c-5.3,1.8-10.2,5.8-14.3,9.3
			c-6,5.1,0.1,11.3,5.6,5.9c3.4-3.2,7.2-5.4,10.9-7.2c3.8-1.8,9.7-2.5,13.3-1.9c9.7,1.9,17,7.5,23.8,13.9c0.3,0.3,0.7,0.6,1,1
			C184.3,78.3,181.3,71,178.3,68z"/>
		<g>
			<path class="st0" d="M103.6,0c-0.3-0.1-10.2,3.2-10.2,3.2C83.1,4.9,74.6,3.3,64.5,3.1C59.2,3,54.8,3.9,51.1,7.9
				c-3.6,3.9,0.8,14,4.9,11.9c4.1-2.2,11.1-7.7,17.1-6.7c6,0.9,12.4,4.5,18.6,4.3c1.1,0,2.4-0.3,3.5-0.6
				C101.4,15.4,108.1,1.6,103.6,0z"/>
		</g>
		<g>
			<path class="st0" d="M136.3,14.7c-16.4,3-33.1,4.5-47.5,14c-2.6,1.7-4.3,3.7-2.8,6.6c1.2,2.4,4.7,6.2,7.1,4.6
				c8.4-5.7,16-11.9,26.4-12.2c5.7-0.2,11.2,2.4,17.1,1.1c5.7-1.3,11.2-2.4,16-5.9c0.7-0.8,0.7-2,0.5-2.8
				C152.3,15.1,141.4,13.8,136.3,14.7z"/>
		</g>
		<path class="st0" d="M174,92.4c-7.8-6.8-18.8-15.4-29.2-14.3c-9.8,1.1-17.9,6.6-25.7,13.4c-4.6,4-3.1,17.5,4.5,11.7
			c6.8-5.1,14.1-10.8,23-11c4.2-0.1,9,1.4,11,1.9c4,1.1,11.2,3.9,15.3,6.2C174.4,100.8,180.1,97.6,174,92.4z"/>
	</g>
	<g>
		<g>
			<g>
				<g>
					<path d="M269.4,19.2h4.5c1.7,0,2.7,0.3,3.5,1c0.8,0.7,1.5,1.9,1.3,3.6c-0.1,1-0.7,2.5-1.8,3.5c-1,0.8-1.8,1-2.6,1.2l3.3,5.4
						h-3.3l-3.2-5.6h0l-0.7,5.6h-2.7L269.4,19.2z M271.2,26.2h1.7c2.2,0,2.8-1.5,2.9-2.3c0.1-0.8-0.2-2.2-2.3-2.2h-1.7L271.2,26.2z"
						/>
					<path d="M282.3,19.2h7.9l-0.3,2.5h-5.2l-0.4,3.6h5l-0.3,2.5h-5l-0.4,3.5h5.2l-0.3,2.5h-7.9L282.3,19.2z M284.3,16.3l4.8-2.6
						l0.8,2.1l-4.8,2.4L284.3,16.3z"/>
					<path d="M298.7,26.4h9.6l0,0.3c-0.5,4.2-4.6,7.5-8.7,7.5c-4.2,0-7.5-3.2-7-7.6c0.5-4.3,4.6-7.6,8.8-7.6c3.7,0,6.1,2.5,6.6,4.6
						h-3.3c-0.5-1-1.7-2.1-3.7-2.1c-3.3,0-5.4,2.8-5.7,5.1c-0.3,2.2,1.1,5.1,4.6,5.1c1.8,0,3.6-1,4.7-2.7h-6.1L298.7,26.4z"/>
					<path d="M312.5,19.2h2.7l-1.8,14.7h-2.7L312.5,19.2z"/>
					<path d="M326.5,18.9c4.2,0,7.3,3.3,6.7,7.7c-0.5,4.2-4.4,7.6-8.6,7.6c-4.2,0-7.3-3.4-6.7-7.6C318.4,22.3,322.3,18.9,326.5,18.9
						z M324.9,31.7c2.8,0,5.3-2.4,5.6-5.1c0.3-2.8-1.6-5.1-4.3-5.1s-5.2,2.3-5.6,5.1C320.2,29.3,322.1,31.7,324.9,31.7z"/>
				</g>
			</g>
			<g>
				<path d="M336.8,19.2h3l4.7,10.5h0l1.3-10.5h2.7l-1.8,14.4h-3L339,23.1h0l-1.3,10.5H335L336.8,19.2z"/>
			</g>
		</g>
		<g>
			<path d="M199.1,35.3h7.6l11.7,26.3h0.1l3.2-26.3h6.7l-4.4,36.2h-7.5l-11.9-26.3h-0.1l-3.2,26.3h-6.7L199.1,35.3z"/>
			<path d="M230.9,57.8c1-8.4,8.6-14.8,16.5-14.8c7.8,0,13.9,6.2,12.8,14.7c-1.1,9-8.8,14.8-16.4,14.8
				C235.6,72.4,229.9,65.7,230.9,57.8z M253.6,57.8c0.6-5-2.8-8.8-6.9-8.8c-3.4,0-8.5,2.9-9.2,8.7c-0.6,5.2,2.9,8.6,7,8.6
				C249.3,66.3,253,62.2,253.6,57.8z"/>
			<path d="M290.7,43.9l-3.4,27.6h-6.1l0.3-2.8h-0.1c-1.3,1.5-3.3,3.7-7.6,3.7c-5,0-7.6-2.5-8.7-4.4c-1.7-2.9-1.1-7.4-0.8-9.7
				l1.8-14.4h6.6L271,58c-0.3,2.2-1,8.4,4.7,8.4c4.2,0,6.1-3.9,6.6-8.3l1.7-14.1H290.7z"/>
			<path d="M294.1,43.9h7.2l4.4,18.3h0.1l8.5-18.3h7.3L307,71.5h-5.2L294.1,43.9z"/>
			<path d="M327.7,60.7c0.1,1.8,2.2,5.7,6.9,5.7c2.9,0,5.3-1.2,6.8-3.5h7c-2.2,5-8,9.6-14.5,9.6c-8.2,0-13.8-6.6-12.8-14.6
				c1-7.8,7.9-15,16.4-15c8.7,0,13.3,7.6,12.5,14.5c-0.2,1.3-0.5,2.4-0.8,3.3H327.7z M343.5,55.4c-0.2-4.4-3.4-6.5-6.7-6.5
				c-2.4,0-6.7,1.3-8.6,6.5H343.5z"/>
			<path d="M357.4,34.7h6.6l-4.5,36.8h-6.6L357.4,34.7z"/>
			<path d="M369.9,34.7h6.6L372,71.5h-6.6L369.9,34.7z"/>
			<path d="M384.9,60.7c0.1,1.8,2.2,5.7,6.9,5.7c2.9,0,5.3-1.2,6.8-3.5h7c-2.2,5-8,9.6-14.5,9.6c-8.2,0-13.8-6.6-12.8-14.6
				c1-7.8,7.9-15,16.4-15c8.7,0,13.3,7.6,12.5,14.5c-0.2,1.3-0.5,2.4-0.8,3.3H384.9z M400.6,55.4c-0.2-4.4-3.4-6.5-6.7-6.5
				c-2.4,0-6.7,1.3-8.6,6.5H400.6z"/>
			<g>
				<path d="M411.9,56.5c0.1-0.7,0.8-1.3,1.5-1.3h10.4c0.7,0,1.3,0.6,1.2,1.3l-0.4,2.9c-0.1,0.7-0.8,1.3-1.5,1.3h-10.4
					c-0.7,0-1.3-0.6-1.2-1.3L411.9,56.5z"/>
			</g>
			<g>
				<path d="M364.1,84.6c-0.3,2.2-2.3,4-4.5,4c-2.2,0-3.8-1.8-3.5-4c0.3-2.2,2.3-4,4.5-4C362.8,80.6,364.4,82.4,364.1,84.6z"/>
				<g>
					<g>
						<path d="M214.3,82.3h5.1l10.1,38.2h-7.2l-2.6-9.9h-12.7l-5,9.9h-7.2L214.3,82.3z M210.1,104h8.1l-2.6-11.7h-0.1L210.1,104z"/>
						<path d="M263.2,91.9l-5.3,42.4h-6.3l2.1-16.4c-3.6,3.7-7.8,3.7-8.5,3.7c-8,0-12.4-7.6-11.5-15.5c1-8.2,8-15,15.3-15
							c5.4,0,7.2,3.2,7.9,4.6h0.1l0.4-3.6H263.2z M246.6,115.2c4.5,0,8.2-4.3,8.7-8.9c0.6-4.5-1.9-9-6.6-9c-4.5,0-8.2,4.2-8.8,8.9
							C239.3,111.9,242.7,115.2,246.6,115.2z"/>
						<path d="M291.8,91.9l-3.5,28.7h-5.8l0.4-2.9h-0.1c-1.2,1.6-3.2,3.8-7.3,3.8c-4.8,0-7.2-2.6-8.3-4.5c-1.6-3-1-7.7-0.7-10.1
							l1.8-15h6.4l-1.8,14.6c-0.3,2.3-1.1,8.7,4.5,8.7c4,0,5.8-4.1,6.4-8.6l1.8-14.7H291.8z"/>
						<path d="M310.3,98h-3.1l0.7-6.1h3.1l1.2-9.6h6.3l-1.2,9.6h3.8l-0.8,6.1h-3.8l-2.8,22.6h-6.3L310.3,98z"/>
						<path d="M347.4,120.5h-5.8l0.4-3.6c-2.3,2.6-6.5,4.5-9.8,4.5c-6.8,0-12.2-5.9-11-15.4c1.1-8.8,7.8-15.1,15.1-15.1
							c5.4,0,8.1,4.2,8.2,4.6h0.1l0.4-3.6h5.8L347.4,120.5z M336.6,97.2c-5.2,0-8.5,4.9-9,9.1c-0.6,4.9,2.3,8.8,6.8,8.8
							c4.4,0,8.2-3.7,8.8-9C343.9,100.2,340.3,97.2,336.6,97.2z"/>
						<path d="M368.2,91.9h5.9l-0.3,2.5c1.2-1.1,3.7-3.5,7.7-3.5c2.3,0,5.6,1.1,7.5,4c2,3.1,1.5,8,1.2,10.2l-1.9,15.5h-6.3l1.7-14.2
							c0.3-2.4,1.1-9.2-4.2-9.2c-1.1,0-3.3,0.6-4.7,2.5c-1.4,1.8-1.7,4.7-2,7.2l-1.7,13.6h-6.3L368.2,91.9z"/>
						<path d="M400.8,109.3c0.1,1.9,2,5.9,6.6,5.9c2.8,0,5.1-1.3,6.6-3.7h6.7c-2.2,5.2-7.8,10-14,10c-7.9,0-13.2-6.8-12.1-15.2
							c1-8.1,7.7-15.5,15.8-15.5c8.4,0,12.7,7.9,11.8,15.1c-0.2,1.3-0.5,2.5-0.8,3.5H400.8z M415.9,103.7c-0.2-4.6-3.2-6.7-6.3-6.7
							c-2.3,0-6.5,1.4-8.3,6.7H415.9z"/>
					</g>
					<g>
						<g>
							<polygon points="294,120.5 300.3,120.5 303.9,91.8 297.5,91.8 							"/>
						</g>
						<path d="M306,84.2c-0.3,2.3-2.4,4.2-4.7,4.2c-2.3,0-4-1.9-3.7-4.2c0.3-2.3,2.4-4.2,4.7-4.2C304.6,80,306.2,81.9,306,84.2z"/>
					</g>
					<g>
						<g>
							<polygon points="352.6,120.5 358.9,120.5 362.4,91.8 356.1,91.8 							"/>
						</g>
					</g>
				</g>
			</g>
		</g>
	</g>
</g>
</svg>
