<?xml version="1.0" encoding="utf-8"?>
<!-- Generator: Adobe Illustrator 25.3.1, SVG Export Plug-In . SVG Version: 6.00 Build 0)  -->
<svg version="1.1" id="Layer_1" xmlns="http://www.w3.org/2000/svg" xmlns:xlink="http://www.w3.org/1999/xlink" x="0px" y="0px"
	 viewBox="0 0 163.2 76.4" style="enable-background:new 0 0 163.2 76.4;" xml:space="preserve">
<style type="text/css">
	.st0{fill:#AFCA0B;}
	.st1{fill:#0068A3;}
</style>
<path class="st0" d="M126.9,24.5c5.4,0,6.9,4,5.5,10.7s-4.7,10.6-10,10.6s-6.8-3.9-5.4-10.6C118.4,28.4,121.6,24.5,126.9,24.5
	 M161.6,17.3h-19.9l0,0h-8.2l0,0h-2.9c-1-0.1-2-0.2-3.2-0.2c-10.9,0-17,7.7-18.9,16.9c-0.7,3.4-0.9,6.6-0.3,9.4
	c-0.3,0.7-0.8,1-1.1,1.2l-0.9,0.2c-1,0.2-2.1,0.3-3.1,0.5c-0.3,0.1-1.2,0.2-1.4,0.2c-0.9,0.1-1.6,0.2-1.6,0.2H100
	c-1.2,0-1.6-0.8-1.3-2.5l5.1-23.8c0.3-1.4,0-1.8-1.3-1.8h-4.7c-1.3,0-1.8,0.4-2,1.8L92.7,34c-1.6,7.6-5.2,11.9-10.5,11.9
	c-3.8,0-4.6-2.4-3.9-5.6l4.5-20.9c0.3-1.4,0-1.8-1.3-1.8h-4.9c-1.3,0-1.8,0.4-2.1,1.8l-1.8,8.5l-2.9,13.4c-0.1,0.6-0.2,1.2-0.3,1.8
	c0,0.1-0.1,0.2-0.1,0.4C69,45,66,45.1,64,45.5c-1,0.2-1.6,0.3-2,0.3c-0.7-0.3-0.9-1.2-0.6-2.8l8.2-38.3c0.3-1.4,0.1-1.8-1.2-1.8
	h-4.7c-1.3,0-1.8,0.3-2.1,1.8l-8.7,40.8c-0.9,4.3,0.6,6.2,2.8,6.9c0.3,0.2,0.7,0.3,1.1,0.3c0.6,0,1.3,0,2.2,0c1.3,0,2.2-0.1,2.9-0.2
	c4.2-0.4,9.2-1.2,10.1-1.4c1.7,1.2,4.1,1.8,7,1.8c4.4,0,8.3-1.2,11-4.2c0.3,3.3,3,4.1,5.4,4.1h0.3h0.1c2.1,0.2,7.5-0.5,11.3-1.1l0,0
	l1-0.2c1.8-0.3,3.1-0.5,3.1-0.5l1.6-0.2c2.2,1.5,5.2,2.4,9.2,2.4c11,0,17.1-8,19.1-17.4c0.9-4.3,0.9-8.3-0.4-11.5h19.7
	c1.2,0,1.7-0.5,1.9-1.4l0.9-4.2C163.2,17.5,162.9,17.3,161.6,17.3"/>
<path class="st1" d="M112.7,72.6h6.6v3.3h-6.6V72.6z M37.3,67.7L37.3,67.7c0-4.8,3.7-8.7,8.8-8.7c3,0,4.8,0.8,6.6,2.3l-2.3,2.8
	C49.1,63,48,62.4,46,62.4c-2.7,0-4.8,2.4-4.8,5.2v0.1c0,3.1,2.1,5.3,5.1,5.3c1.3,0,2.5-0.3,3.5-1v-2.4h-3.7v-3.2h7.3v7.3
	c-1.7,1.5-4.1,2.7-7.2,2.7C40.9,76.3,37.3,72.6,37.3,67.7 M55.3,63.2h3.6v2.6c0.7-1.8,1.9-2.9,4.1-2.8v3.8h-0.2
	c-2.4,0-3.9,1.5-3.9,4.5V76h-3.6L55.3,63.2L55.3,63.2z M71.1,71.5v-0.7c-0.6-0.3-1.4-0.5-2.3-0.5c-1.6,0-2.5,0.6-2.5,1.8v0.1
	c0,1,0.8,1.6,2,1.6C70,73.7,71.1,72.8,71.1,71.5 M62.7,72.3L62.7,72.3c0-2.9,2.1-4.2,5.2-4.2c1.3,0,2.2,0.2,3.1,0.5v-0.2
	c0-1.5-0.9-2.3-2.8-2.3c-1.4,0-2.4,0.3-3.6,0.7L63.7,64c1.4-0.6,2.8-1,5-1c2,0,3.4,0.5,4.3,1.4c1,1,1.4,2.4,1.4,4.1v7.4h-3.5v-1.4
	c-0.9,1-2.1,1.6-3.9,1.6C64.7,76.3,62.7,74.9,62.7,72.3 M76.5,63.2h3.6V65c0.8-1.1,1.9-2.1,3.8-2.1c2.8,0,4.4,1.8,4.4,4.8V76h-3.7
	v-7.2c0-1.7-0.8-2.6-2.2-2.6s-2.3,0.9-2.3,2.6V76h-3.6V63.2L76.5,63.2z M99.6,69.6L99.6,69.6c0-2.2-1.4-3.6-3.1-3.6
	c-1.7,0-3.1,1.4-3.1,3.6v0.1c0,2.1,1.4,3.6,3.1,3.6C98.2,73.2,99.6,71.8,99.6,69.6 M89.7,69.6L89.7,69.6c0-4.3,2.8-6.7,5.9-6.7
	c1.9,0,3.1,0.9,4,1.9v-6.3h3.6V76h-3.6v-1.8c-0.9,1.2-2.1,2.1-4,2.1C92.5,76.3,89.7,73.9,89.7,69.6 M120.9,74.1l1.6-2.4
	c1.4,1,2.9,1.5,4.1,1.5c1.1,0,1.5-0.4,1.5-1v0.1c0-0.8-1.2-1.1-2.7-1.5c-1.8-0.5-3.8-1.4-3.8-3.9v-0.1c0-2.6,2.1-4.1,4.7-4.1
	c1.6,0,3.4,0.6,4.8,1.5l-1.4,2.5c-1.3-0.7-2.5-1.2-3.5-1.2c-0.9,0-1.3,0.4-1.3,0.9v0.1c0,0.7,1.2,1.1,2.6,1.5
	c1.8,0.6,3.9,1.5,3.9,3.8v0.1c0,2.8-2.1,4.1-4.9,4.1C124.7,76.1,122.6,75.5,120.9,74.1 M133.1,72.2v-6.1h-1.5V63h1.5v-3.3h3.6V63h3
	v3.1h-3v5.5c0,0.8,0.4,1.2,1.2,1.2c0.7,0,1.3-0.2,1.8-0.5v3c-0.8,0.5-1.6,0.7-2.9,0.7C134.6,76.1,133.1,75.2,133.1,72.2 M112.8,65.8
	h6.6v3.3h-6.6V65.8z M112.8,59.1h6.6v3.3h-6.6V59.1z M107.8,59.1h3.7v16.8h-3.7V59.1z"/>
<g>
	<path class="st0" d="M46.3,1.6C44.9,1,42.3,0,37.9,0C29.2,0,24.8,4.6,23,13.3l-0.7,3.3h-4.2c-1,0-1.5,0.5-1.7,1.7L15.6,22
		c-0.3,1.3,0.1,1.5,1.5,1.5h3.8L14,56c-0.9,3.9-2.4,6-5,5.9c-0.1,0-0.3,0-0.4,0.1H4.5l0,0H2.6c-1,0-1.5,0.5-1.7,1.7l-0.8,3.7
		c-0.3,1.3,0.1,1.4,1.3,1.5h8.3c0.1,0,0.2,0,0.4,0C16.8,68.7,20.6,64.5,22,58l7.3-34.4H36c1.2,0,1.7-0.5,1.9-1.4l0.9-4.2
		c0.2-1.1-0.1-1.3-1.4-1.3h-6.6l0.5-2.6c1.1-5.4,3.4-7.4,6.9-7.4c3.2,0,4.5,0.5,6.5,1.3c0.7,0.3,1.3,0.3,1.5-0.8l0.9-4
		C47.1,2.2,47,1.9,46.3,1.6"/>
</g>
</svg>
