<?xml version="1.0" encoding="UTF-8" standalone="no"?>
<!-- Created with Inkscape (http://www.inkscape.org/) -->
<svg
   xmlns:dc="http://purl.org/dc/elements/1.1/"
   xmlns:cc="http://creativecommons.org/ns#"
   xmlns:rdf="http://www.w3.org/1999/02/22-rdf-syntax-ns#"
   xmlns:svg="http://www.w3.org/2000/svg"
   xmlns="http://www.w3.org/2000/svg"
   xmlns:sodipodi="http://sodipodi.sourceforge.net/DTD/sodipodi-0.dtd"
   xmlns:inkscape="http://www.inkscape.org/namespaces/inkscape"
   width="911.7984"
   height="182.39914"
   id="svg2"
   sodipodi:version="0.32"
   inkscape:version="0.46"
   sodipodi:docname="SNCF logo1985.svg"
   inkscape:output_extension="org.inkscape.output.svg.inkscape"
   version="1.0"
   style="display:inline">
  <defs
     id="defs4" />
  <sodipodi:namedview
     id="base"
     pagecolor="#fbefcf"
     bordercolor="#666666"
     borderopacity="1.0"
     inkscape:pageopacity="1"
     inkscape:pageshadow="2"
     inkscape:zoom="0.49497475"
     inkscape:cx="451.29318"
     inkscape:cy="-207.72166"
     inkscape:document-units="px"
     inkscape:current-layer="layer1"
     showgrid="false"
     inkscape:window-width="1152"
     inkscape:window-height="814"
     inkscape:window-x="-8"
     inkscape:window-y="-8"
     showguides="true"
     inkscape:guide-bbox="true" />
  <metadata
     id="metadata7">
    <rdf:RDF>
      <cc:Work
         rdf:about="">
        <dc:format>image/svg+xml</dc:format>
        <dc:type
           rdf:resource="http://purl.org/dc/dcmitype/StillImage" />
      </cc:Work>
    </rdf:RDF>
  </metadata>
  <g
     inkscape:groupmode="layer"
     id="layer1"
     style="display:inline"
     transform="translate(-747.75278,524.74598)">
    <path
       id="path3411"
       style="fill:#000000;fill-opacity:1;stroke:none;stroke-opacity:1;display:inline"
       d="M 1196.4931,-360.23421 C 1192.2735,-345.12267 1176.5642,-342.38374 1164.6396,-342.42737 L 1144.2606,-342.42737 C 1129.7002,-342.67754 1124.0017,-340.67096 1115.2052,-352.7556 L 1062.9635,-425.77025 C 1060.2781,-429.42197 1057.3926,-431.08783 1055.6607,-424.53682 L 1032.7079,-342.42737 L 1005.8669,-342.42737 L 1040.9217,-467.82833 C 1043.7787,-478.01682 1044.3303,-481.86662 1052.2044,-482.10507 C 1057.5597,-482.26725 1060.0945,-475.20114 1065.9266,-467.17058 L 1134.6553,-372.90043 C 1138.5737,-368.18405 1140.8649,-366.15053 1146.271,-366.13519 L 1162.3223,-366.11131 C 1167.9747,-366.16406 1172.2598,-368.58891 1174.1855,-373.81943 L 1216.2097,-524.66555 L 1242.3745,-524.66555 L 1196.4931,-360.23421 z M 1197.6302,-524.66555 L 1160.4212,-390.87373 C 1158.9273,-385.04887 1156.625,-384.11603 1154.0552,-384.31933 C 1150.6954,-384.58493 1146.8791,-387.55289 1143.8193,-391.7608 L 1076.6764,-482.10908 C 1069.2721,-493.40519 1069.1633,-501.21183 1053.1518,-500.60733 L 1042.2728,-500.71092 C 1032.8024,-500.52235 1031.1005,-494.9839 1028.4047,-487.29368 L 987.89964,-342.42737 L 961.35714,-342.42737 L 1006.3876,-503.55619 C 1010.4947,-519.92457 1022.9812,-524.74356 1044.2648,-524.66555 L 1066.659,-524.66555 C 1080.014,-524.39306 1085.9484,-516.3012 1090.6774,-509.12832 L 1139.8381,-439.80608 C 1145.6662,-432.38703 1146.7014,-433.46659 1147.7775,-441.28375 L 1171.0059,-524.66555 L 1197.6302,-524.66555 z M 1453.8814,-524.66555 L 1447.3109,-500.86858 L 1301.5226,-500.99809 C 1291.2282,-501.07476 1288.4583,-499.01068 1286.2601,-490.80087 C 1277.3328,-458.28944 1268.1487,-425.84997 1259.0424,-393.38855 C 1252.7615,-373.11698 1254.354,-367.22022 1281.5517,-366.9366 L 1409.7581,-366.46746 L 1403.0026,-342.42737 L 1259.927,-342.42737 C 1239.1772,-342.60656 1217.302,-347.36196 1226.7073,-381.94535 L 1260.7253,-503.69608 C 1264.6031,-517.67026 1276.8925,-524.46092 1295.2008,-524.66555 L 1453.8814,-524.66555 z M 1442.3403,-483.07922 L 1436.2531,-461.29316 L 1329.8252,-461.72574 C 1326.9351,-461.12438 1323.6944,-461.01816 1323.5379,-457.15535 L 1310.9035,-411.93676 C 1310.3214,-408.51146 1313.3487,-406.3899 1316.5777,-405.81953 L 1420.6084,-405.30053 L 1414.2009,-382.36797 L 1279.0048,-383.77045 C 1275.9005,-383.85742 1276.1537,-385.17346 1276.5663,-386.8138 L 1301.1811,-474.90984 C 1303.1942,-481.90025 1303.0906,-483.35095 1315.5382,-483.62294 L 1442.3403,-483.07922 z M 1659.5512,-524.66555 L 1652.7124,-499.80801 L 1519.9806,-500.28985 C 1499.9626,-500.58308 1499.2122,-496.912 1493.6321,-476.59386 L 1456.0218,-342.42737 L 1427.9898,-342.42737 L 1469.5226,-490.78169 C 1478.988,-523.77875 1492.5687,-525.22214 1524.849,-524.66555 L 1659.5512,-524.66555 z M 1641.8361,-460.88173 L 1537.2117,-460.63949 L 1531.1178,-438.82935 L 1635.6843,-438.86421 L 1629.7699,-417.69665 L 1502.2988,-417.9617 C 1497.5957,-418.24923 1499.2911,-420.76769 1500.5508,-425.71417 L 1515.612,-479.61859 C 1516.7272,-483.63529 1516.7329,-483.92337 1519.9392,-483.91027 L 1648.2099,-483.69303 L 1641.8361,-460.88173 z M 1618.615,-377.77326 L 1518.3502,-377.82616 C 1516.4577,-378.18922 1514.5642,-377.18072 1512.6693,-372.80186 L 1504.0836,-342.42737 L 1477.1908,-342.42737 L 1493.496,-400.46515 L 1624.9815,-400.55914 L 1618.615,-377.77326 z M 977.97144,-501.74564 L 828.39708,-501.89938 C 816.70143,-502.25543 813.48569,-491.61664 810.69731,-482.55068 C 807.81288,-473.77277 808.33734,-464.65553 820.03829,-457.72888 L 894.66546,-404.6827 C 906.97434,-396.67185 908.94444,-395.63549 906.42884,-388.15914 C 904.92354,-383.4581 902.96524,-382.96553 896.27254,-382.96158 L 759.24092,-383.62497 L 765.68044,-406.67205 L 844.10465,-406.51857 C 851.83503,-406.43036 855.05114,-407.39644 847.93388,-411.86648 L 801.76895,-443.7599 C 784.14041,-456.74525 782.0696,-466.39455 789.32401,-491.29241 C 796.32064,-518.65392 807.20115,-525.48173 837.60343,-524.66555 L 984.31904,-524.66555 L 977.97144,-501.74564 z M 966.88384,-462.0635 L 899.02194,-462.33462 C 884.43056,-462.37381 882.02699,-459.97907 896.44488,-449.85994 L 934.08564,-424.21478 C 945.03474,-417.33031 951.98154,-408.37572 948.31754,-395.61436 L 937.75304,-357.80404 C 933.48954,-342.958 917.09354,-341.97564 896.46312,-342.42737 L 747.75278,-342.42737 L 754.59446,-366.9953 L 904.38154,-366.51538 C 916.86764,-366.28757 917.87374,-366.2924 922.95354,-384.02192 C 928.25754,-402.97192 926.00674,-403.89342 921.73614,-407.09827 L 839.75586,-464.56037 C 831.7098,-469.26782 827.54781,-473.20775 828.41929,-477.35782 C 829.18015,-480.98154 832.56116,-485.46001 838.51096,-485.36055 C 882.78372,-486.01237 929.04874,-484.51517 973.32154,-485.10393 L 966.88384,-462.0635 z"
       sodipodi:nodetypes="cccccccccsccccccccccsccccccccccccccccccccccccccccccccccccccccccccccccccccccccccccccccccccccccccccccccccccccccccccccccccsccc" />
  </g>
</svg>
