<?xml version="1.0" encoding="utf-8"?>
<!-- Generator: Adobe Illustrator 25.3.1, SVG Export Plug-In . SVG Version: 6.00 Build 0)  -->
<svg version="1.1"
	 id="Calque_1" inkscape:version="0.48.4 r9939" sodipodi:docname="logo-sncf-color.svg" xmlns:cc="http://creativecommons.org/ns#" xmlns:dc="http://purl.org/dc/elements/1.1/" xmlns:inkscape="http://www.inkscape.org/namespaces/inkscape" xmlns:rdf="http://www.w3.org/1999/02/22-rdf-syntax-ns#" xmlns:sodipodi="http://sodipodi.sourceforge.net/DTD/sodipodi-0.dtd" xmlns:svg="http://www.w3.org/2000/svg"
	 xmlns="http://www.w3.org/2000/svg" xmlns:xlink="http://www.w3.org/1999/xlink" x="0px" y="0px" viewBox="0 0 837.8 435.8"
	 style="enable-background:new 0 0 837.8 435.8;" xml:space="preserve">
<style type="text/css">
	.st0{display:none;}
	.st1{display:inline;}
	.st2{fill:#FFFFFF;}
	.st3{display:inline;fill:#FFFFFF;}
	.st4{fill:url(#path9752-1_1_);stroke:#000000;stroke-width:8.684751e-02;stroke-miterlimit:20.045;}
</style>
<sodipodi:namedview  bordercolor="#666666" borderopacity="1" gridtolerance="10" guidetolerance="10" id="namedview22" inkscape:current-layer="Calque_1" inkscape:cx="62.511755" inkscape:cy="35.796908" inkscape:pageopacity="0" inkscape:pageshadow="2" inkscape:window-height="837" inkscape:window-maximized="1" inkscape:window-width="1600" inkscape:window-x="-8" inkscape:window-y="-8" inkscape:zoom="4.1785714" objecttolerance="10" pagecolor="#ffffff" showgrid="false">
	</sodipodi:namedview>
<g id="Calque_2" transform="translate(0,-22)" class="st0">
	<g id="g6" class="st1">
		<path id="path8" inkscape:connector-curvature="0" class="st2" d="M418.9,458.5"/>
		<g id="g10">
			<path id="path12" inkscape:connector-curvature="0" class="st2" d="M609.8,152.3c-19,0-32.6,15-32.6,33.6s13.5,34.1,33.1,34.1
				c19,0,32.6-15,32.6-33.6S629.3,152.3,609.8,152.3z"/>
			<path id="path14" inkscape:connector-curvature="0" class="st2" d="M416.9-94.8C264-94.8,139.7,29.5,139.7,182.4
				s123.8,277.1,277.1,277.1c152.8,0,277.1-123.8,277.1-277.1C694,29.5,569.7-94.8,416.9-94.8z M223.4,242
				c-33.6,0-57.1-24.6-57.1-55.6c0-30.6,24.1-55.6,57.6-55.6s57.1,24.6,57.1,55.6C281,216.4,257,242,223.4,242z M385.3,193.4
				c0,33.1-18.5,48.6-47.6,48.6s-47.1-16-47.1-48.1v-50.6c0-6.5,5-12,12-12c6.5,0,12,5,12,12v50.1c0,17.5,9,26.6,23.6,26.6
				c14.5,0,23.6-9,23.6-26.1v-50.6c0-6.5,5-12,12-12s12,5,12,12v50.1L385.3,193.4L385.3,193.4z M424.9,229.5c0,6.5-5,12-12,12
				c-6.5,0-12-5-12-12v-86.2c0-6.5,5-12,12-12c6.5,0,12,5,12,12V229.5z M412.8,117.2c-8,0-14.5-6.5-14.5-14.5s6.5-14.5,14.5-14.5
				s14.5,6.5,14.5,14.5S421.4,117.2,412.8,117.2z M545.6,214.9c0,7-1.5,10-6.5,14c-10,8-24.1,13.5-41.1,13.5
				c-33.6,0-57.6-24.1-57.6-55.6c0-30.6,24.6-55.6,57.6-55.6c16.5,0,27.1,4,36.6,11c2.5,2,5,5,5,9.5c0,6.5-5,11.5-12,11.5
				c-3,0-5.5-1.5-7-2.5c-6.5-4.5-13.5-7.5-23.6-7.5c-17,0-31.6,15-31.6,33.6c0,19.5,14.5,34.1,33.6,34.1c11,0,19-2,24.1-7v-14.5h-17
				c-5.5,0-10-4.5-10-10s4.5-10,10-10h28.1c6.5,0,12,5,12,12v24.6h-0.5V214.9z M609.8,242c-33.6,0-57.1-24.6-57.1-55.6
				c0-30.6,24.1-55.6,57.6-55.6s57.1,24.6,57.1,55.6C667.4,216.4,643.4,242,609.8,242z"/>
			<path id="path16" inkscape:connector-curvature="0" class="st2" d="M223.4,152.3c-19,0-32.6,15-32.6,33.6s13.5,34.1,33.1,34.1
				c19,0,32.6-15,32.6-33.6S242.5,152.3,223.4,152.3z"/>
		</g>
	</g>
</g>
<g id="Calque_1_1_" transform="translate(0,-22)" class="st0">
	<path id="path9752" inkscape:connector-curvature="0" class="st3" d="M-1964,1581.5c-1-1-2.5-2.5-3.5-4l-2-2v-204
		c0-192.4,0-204.5,1.5-207c3-6,3.5-6,26.6-7c57.1-2,123.3,0,190.4,5c187.4,14,354.8,51.6,484.6,108.7
		c41.6,18.5,103.7,52.6,110.7,60.6c4,5,5.5-1-33.6,122.3c-33.6,104.7-39.6,123.8-41.6,125.8c-1,1.5-3,2-6.5,2.5
		c-2.5,0.5-166.9,0.5-365.3,0.5C-1941.4,1583-1962.5,1583-1964,1581.5L-1964,1581.5L-1964,1581.5z M-1832.2,1527.4
		c23.1-1.5,38.6-5.5,52.6-12.5c15.5-7.5,26.1-18,32.1-32.1c2.5-5.5,2.5-7,3-14.5c0-7.5,0-8.5-2.5-13.5c-3.5-7-12-16-22-22.6
		c-4-2.5-21-12-37.6-20c-24.1-12-31.1-16-34.6-19.5c-4-4-4.5-4.5-4.5-8c0-6.5,4.5-11.5,15-16.5c6.5-3,15-5,27.1-6
		c10-1,14.5-0.5,31.6,1.5c10,1,11.5,1,12,0c1.5-2,7.5-22,8-25.1c0-3-0.5-3.5-16.5-5.5c-16-2-46.6-1.5-60.1,1
		c-32.6,6-53.6,18-61.6,35.1c-7.5,16-5,29.1,8.5,42.6c8,8,14.5,12,36.6,23.6c37.1,19.5,43.1,23.1,48.1,31.1c2.5,4.5,3,6.5,1,11
		c-4,9.5-14.5,14.5-33.6,16.5c-27.6,2.5-50.6-1.5-89.7-16.5c-1-0.5-2,1-5,7c-5.5,11.5-10,22.6-9,23.1c1,1,17.5,7,27.6,10
		c14,4,31.1,7,47.6,9C-1852.7,1527.9-1843.7,1527.9-1832.2,1527.4L-1832.2,1527.4L-1832.2,1527.4L-1832.2,1527.4z M-1420.8,1524.9
		c6-1,14.5-2.5,19-3.5c8-2,25.6-7,27.1-8c0.5-0.5,6-16.5,12-35.6c6-19,11.5-35.6,11.5-35.6c0.5-0.5,20-0.5,44.1-1l43.6-0.5l4-12.5
		c2-7,4-13,4-14c0-2.5-3-3-46.6-3c-21.5,0-39.1,0-39.1-0.5s13.5-43.1,14-43.6c0,0,23.6-0.5,52.6-1l52.1-0.5l4-13c2-7,4-14,4-15
		c0-2,0-2-7-2.5c-9-0.5-98.7-0.5-121.8,0l-18,0.5l-9,27.1c-5,14.5-13.5,42.1-19.5,60.6c-6,18.5-13,41.1-16,50.6l-5.5,17l-4.5,1
		c-19,4-48.6,3-65.6-1c-21-5.5-35.1-17-40.6-34.6c-3-9.5-3-25.1,0-35.6c7-22,27.1-40.1,52.6-48.1c15-4.5,19-5,48.1-5h27.1l5-15
		c2.5-8.5,4.5-15.5,4-16c-3-3-52.1-4-69.7-1.5c-32.1,4.5-58.1,16.5-79.2,35.6c-4,3.5-7.5,6.5-7.5,6.5s2-8,5-17
		c6.5-22,6.5-23.1,4-23.6c-2.5-0.5-29.1-0.5-33.6,0l-3.5,0.5l-3.5,10.5c-2,6-11.5,34.1-20.5,63.1c-9.5,29.1-17,52.6-17,52.6
		s-3-6-6-13.5c-11-26.1-23.6-50.1-39.1-73.7c-7.5-11.5-21.5-31.6-26.1-36.6l-3.5-4.5l-16-0.5c-9-0.5-18,0-21,0l-4.5,0.5l-8,25.1
		c-4.5,13.5-11.5,34.6-15,47.1c-4,12-7,22.6-7,23.1s3,4,6.5,8c8,8,11.5,12.5,15,20.5c2,4.5,3,5.5,4.5,5c1.5,0,3.5-4.5,15-40.1
		c7-22,13.5-40.1,13.5-40.1c0.5-0.5,3,3.5,6.5,8.5c22.6,34.6,41.6,74.2,55.6,115.8l5.5,16h22.6h22.6l10.5-32.1
		c5.5-17.5,10.5-33.1,11-34.1c0.5-1.5,1-1,3,5.5c8,26.1,26.6,44.1,56.1,55.1c7.5,3,22.6,6.5,30.6,7.5
		C-1467.4,1527.4-1432.8,1526.9-1420.8,1524.9L-1420.8,1524.9L-1420.8,1524.9L-1420.8,1524.9z"/>
</g>
<linearGradient id="path9752-1_1_" gradientUnits="userSpaceOnUse" x1="522.4086" y1="504.0938" x2="1590.8781" y2="504.0938" gradientTransform="matrix(0.781 0 0 -0.781 -407.9905 611.6069)">
	<stop  offset="0" style="stop-color:#832C71"/>
	<stop  offset="1" style="stop-color:#E41F25"/>
</linearGradient>
<path id="path9752-1" inkscape:connector-curvature="0" class="st4" d="M5.6,434.4c-1-0.8-2.6-2.6-3.7-4L0,427.9V219.3
	C0,22.5,0.1,10.6,1.5,7.8c3.1-6.1,3.8-6.3,27.3-7.1C87.1-1.1,155,0.6,223.6,5.6c191.7,14.2,362.9,52.6,495.5,111.2
	c42.4,18.8,106.3,53.8,113.3,62.2c4.1,4.9,5.7-0.8-34.4,124.9c-34.2,107-40.6,126.5-42.4,128.7c-1.1,1.4-2.9,2.1-6.7,2.5
	c-2.8,0.4-170.8,0.7-373.4,0.7C28.9,435.9,7.3,435.8,5.6,434.4L5.6,434.4z M140.3,378.6c23.4-1.7,39.2-5.4,53.8-12.6
	c16-7.8,26.7-18.4,32.8-32.6c2.5-5.8,2.8-7.4,2.8-14.8c0-7.6-0.2-8.7-2.8-13.9c-3.6-7.3-12.5-16.4-22.6-23.1
	c-4.2-2.8-21.5-12.1-38.4-20.7c-24.6-12.5-31.7-16.5-35.5-20c-4.2-3.9-4.7-4.7-4.7-8c-0.1-6.7,4.7-11.9,15.2-16.8
	c6.7-3.1,15.3-5,27.9-6.1c10.4-0.9,14.8-0.7,32.4,1.5c10.1,1.3,11.7,1.3,12.4,0.2c1.3-2,7.8-22.6,8-25.4c0.2-3.2-0.6-3.4-16.7-5.4
	c-16.3-2-47.5-1.3-61.3,1.3c-33.3,6.3-54.7,18.4-63.3,35.9c-7.9,16.2-5.2,30,8.6,43.7c8.1,8.1,14.8,12.4,37.5,24.2
	c38,19.8,44,23.6,49.1,31.7c2.8,4.4,3,6.6,1.1,11.2c-4,9.6-15,15-34.1,16.8c-28.4,2.6-51.7-1.7-91.6-17c-1.1-0.4-2.3,1.1-5.4,7.3
	c-5.8,11.6-10.3,22.8-9.4,23.7c1.2,1.2,18.2,7.4,28.1,10.2c14.2,4.1,31.9,7.4,48.6,9.1C119.4,379.5,128.6,379.4,140.3,378.6
	L140.3,378.6L140.3,378.6z M561,376.1c6-1,14.8-2.6,19.5-3.6c8.4-1.8,25.9-7.1,27.9-8.4c0.5-0.4,6.1-16.8,12.3-36.6
	c6.2-19.7,11.6-36.2,11.9-36.5c0.3-0.3,20.6-0.7,45.1-0.9l44.5-0.3l4-12.8c2.2-7,4-13.6,4-14.6c0-2.7-3.3-2.9-47.9-2.9
	c-21.9,0-39.8-0.2-39.8-0.5c0-0.6,13.9-44.1,14.2-44.4c0.1-0.1,24.3-0.5,53.7-0.8l53.5-0.6l4-13.2c2.2-7.2,4-14.2,4-15.4
	c0-2.1-0.2-2.2-7.2-2.8c-9.4-0.7-101.1-0.7-124.7,0l-18.3,0.6l-9.1,27.4c-5,15.1-14.1,42.9-20.1,61.7c-6,18.9-13.5,42.2-16.6,51.8
	l-5.6,17.5l-4.5,0.9c-19.3,3.9-49.6,3.3-67-1.2c-21.7-5.7-35.7-17.6-41.7-35.5c-3.3-9.9-3.2-25.5,0.2-36.5
	c7-22.3,27.4-41.2,53.7-49.4c15.5-4.9,19.6-5.3,49.2-5.3l27.5,0l4.9-15.5c2.7-8.5,4.6-15.9,4.2-16.3c-3-3-53.5-3.9-71-1.4
	c-32.9,4.8-59.4,16.7-81.1,36.3c-4.1,3.7-7.6,6.6-7.7,6.5c-0.1-0.1,2.1-8,4.9-17.6c6.7-22.7,6.9-23.4,4.3-24.1
	c-2.7-0.7-29.8-0.6-34.2,0.1l-3.5,0.6l-3.7,10.9c-2.1,6-11.5,35-21.1,64.6c-9.5,29.6-17.4,53.9-17.6,54c-0.1,0.1-3-6.1-6.3-13.8
	c-11.2-26.4-24.3-51.2-39.8-75.3c-7.5-11.7-22.1-32.2-26.8-37.7l-2.9-3.3l-16.5-0.5c-9.1-0.3-18.7-0.2-21.3,0.1l-4.8,0.6l-8.4,25.4
	c-4.6,14-11.6,35.5-15.4,47.9c-3.9,12.4-7.2,23.1-7.4,23.7c-0.2,0.6,2.9,4.3,6.8,8.3c8.2,8,11.8,12.9,15.5,21.1
	c2.1,4.7,2.9,5.6,4.5,5.4c1.7-0.2,3.3-4.5,15.4-40.8c7.4-22.3,13.7-40.8,14-41c0.3-0.3,3.3,3.7,6.6,8.9
	c23.3,35.5,42.6,75.9,56.7,118.6l5.4,16.3l23.1-0.2l23.1-0.2l10.6-32.8c5.8-18,11-33.6,11.4-34.7c0.7-1.6,1.2-0.9,3.2,5.7
	c8.3,26.5,27.2,45.1,57.4,56.4c7.8,2.9,22.9,6.5,31.5,7.5C513.3,379,548.7,378.1,561,376.1L561,376.1L561,376.1z"/>
</svg>
