<?xml version="1.0" encoding="UTF-8" standalone="no"?>
<svg
   xmlns:dc="http://purl.org/dc/elements/1.1/"
   xmlns:cc="http://creativecommons.org/ns#"
   xmlns:rdf="http://www.w3.org/1999/02/22-rdf-syntax-ns#"
   xmlns:svg="http://www.w3.org/2000/svg"
   xmlns="http://www.w3.org/2000/svg"
   viewBox="0 0 700 313.99999"
   height="314"
   width="700"
   xml:space="preserve"
   version="1.1"
   id="svg2"><metadata
     id="metadata8"><rdf:RDF><cc:Work
         rdf:about=""><dc:format>image/svg+xml</dc:format><dc:type
           rdf:resource="http://purl.org/dc/dcmitype/StillImage" /><dc:title></dc:title></cc:Work></rdf:RDF></metadata><defs
     id="defs6" /><g
     transform="matrix(1.25,0,0,-1.25,0,313.99998)"
     id="g10"><g
       transform="matrix(7.4438353,0,0,7.4438353,-458.63705,-5617.038)"
       id="g4709"><g
         id="g4704"><path
           d="m 64.919218,787.12846 0,0 -2.354938,0 0,0.9211 5.735185,0 0,-0.9211 -2.373539,0 0,-6.43653 -1.006708,0 0,6.43653 z"
           style="fill:#63675c;fill-opacity:1;fill-rule:nonzero;stroke:none"
           id="path30" /><path
           d="m 75.660041,784.80343 0,0 0,-3.63238 c -0.193827,-0.11143 -0.396954,-0.19314 -0.618683,-0.28599 -0.249259,-0.0817 -0.470987,-0.16713 -0.729547,-0.22285 -0.249259,-0.0557 -0.49889,-0.0817 -0.748148,-0.10771 -0.25856,-0.0297 -0.480289,-0.0557 -0.702018,-0.0557 -0.646212,0 -1.200534,0.10771 -1.680822,0.30456 -0.470988,0.23027 -0.895844,0.50512 -1.228065,0.83939 -0.341894,0.36769 -0.619055,0.78367 -0.78498,1.26279 -0.166296,0.44198 -0.24963,0.94709 -0.24963,1.48192 0,0.52741 0.08333,1.03252 0.277161,1.51164 0.193826,0.47169 0.443457,0.8951 0.784979,1.22937 0.332593,0.35655 0.757449,0.61654 1.228437,0.83567 0.452386,0.19685 0.978806,0.27856 1.542428,0.27856 0.664814,0 1.228065,-0.0817 1.671522,-0.24885 0.424856,-0.16713 0.78498,-0.38626 1.071069,-0.70196 l -0.701645,-0.75396 c -0.304691,0.28598 -0.619054,0.47912 -0.979178,0.59054 -0.341521,0.13742 -0.701645,0.19313 -1.061768,0.19313 -0.424856,0 -0.812881,-0.0854 -1.145474,-0.24884 -0.341522,-0.14114 -0.646213,-0.36027 -0.867942,-0.62026 -0.258559,-0.27484 -0.452758,-0.5794 -0.563622,-0.94709 -0.138395,-0.33427 -0.193827,-0.72797 -0.193827,-1.11795 0,-0.4234 0.05543,-0.80967 0.193827,-1.17736 0.166296,-0.36027 0.360495,-0.67597 0.619054,-0.92482 0.249259,-0.27484 0.55395,-0.46797 0.895844,-0.61654 0.360123,-0.16713 0.720246,-0.22284 1.145102,-0.22284 0.360124,0 0.702017,0.0297 1.006708,0.0854 0.304691,0.0817 0.581852,0.16342 0.81251,0.28599 l 0,2.06504 -1.652921,0 0,0.92109 2.659629,0 z"
           style="fill:#63675c;fill-opacity:1;fill-rule:nonzero;stroke:none"
           id="path32" /><path
           d="m 76.472922,788.04956 0,0 1.145103,0 2.15181,-5.98342 0.0279,0 2.234773,5.98342 1.126873,0 -2.909259,-7.35763 -0.951276,0 -2.825926,7.35763 z"
           style="fill:#63675c;fill-opacity:1;fill-rule:nonzero;stroke:none"
           id="path34" /></g><g
         id="g4695"><path
           d="m 71.91037,770.67834 0,0 c 0,1.95474 1.59786,3.54957 3.555844,3.54957 1.957984,0 3.574074,-1.59483 3.574074,-3.54957 l 0,-10.57552 4.119095,0 0,10.57552 c 0,4.22294 -3.44498,7.68856 -7.693169,7.68856 -4.229959,0 -7.693169,-3.46562 -7.693169,-7.68856 l 0,-10.57552 4.137325,0 0,10.57552 z"
           style="fill:#63675c;fill-opacity:1;fill-rule:nonzero;stroke:none"
           id="path36" /><path
           d="m 62.786008,777.52751 0,0 c -0.637284,-2.73692 -0.979177,-5.59529 -1.006708,-8.52719 0,-0.0553 0,-5.73494 0,-5.73494 0.110865,0.0828 0.249259,0.16602 0.369424,0.24884 0.52642,0.2767 1.117573,0.47949 1.754857,0.47949 0.757077,0 1.459094,-0.25813 2.050247,-0.67299 l 0,14.20679 -3.16782,0 z"
           style="fill:#63675c;fill-opacity:1;fill-rule:nonzero;stroke:none"
           id="path38" /><path
           d="m 63.903581,762.39888 0,0 c -1.283869,0 -2.290577,-1.04218 -2.290577,-2.29606 0,-1.29065 1.006708,-2.29568 2.290577,-2.29568 1.265267,0 2.299506,1.00503 2.299506,2.29568 0,1.25388 -1.034239,2.29606 -2.299506,2.29606 z"
           style="fill:#930c38;fill-opacity:1;fill-rule:nonzero;stroke:none"
           id="path40" /><path
           d="m 126.51926,766.95348 0,0 c 0,-1.95473 -1.596,-3.54994 -3.55659,-3.54994 -1.95687,0 -3.54543,1.59521 -3.54543,3.54994 l 0,10.57403 -4.14811,0 0,-10.57403 c 0,-4.22293 3.47474,-7.68967 7.69354,-7.68967 4.25972,0 7.69354,3.46674 7.69354,7.68967 l 0,10.57403 -4.13695,0 0,-10.57403 z"
           style="fill:#930c38;fill-opacity:1;fill-rule:nonzero;stroke:none"
           id="path42" /><path
           d="m 134.5253,775.23294 0,0 c 1.2835,0 2.31774,1.04181 2.31774,2.29457 0,1.29251 -1.03424,2.29532 -2.31774,2.29532 -1.26489,0 -2.29913,-1.00281 -2.29913,-2.29532 0,-1.25276 1.03424,-2.29457 2.29913,-2.29457 z"
           style="fill:#930c38;fill-opacity:1;fill-rule:nonzero;stroke:none"
           id="path44" /><path
           d="m 135.64511,760.10282 0,0 c 0.63617,2.73841 1.00447,5.59678 1.00447,8.52869 0,0.0553 0,5.73493 0,5.73493 -0.10788,-0.0832 -0.24926,-0.16602 -0.3683,-0.24884 -0.52456,-0.2767 -1.11609,-0.47058 -1.75598,-0.47058 -0.75521,0 -1.45835,0.24922 -2.02011,0.66408 l 0,-14.20828 3.13992,0 z"
           style="fill:#930c38;fill-opacity:1;fill-rule:nonzero;stroke:none"
           id="path46" /><path
           d="m 99.219836,778.3669 0,0 c 5.253034,0 9.538804,-4.27716 9.538804,-9.56009 0,-5.26473 -4.28577,-9.543 -9.538804,-9.543 -5.264197,0 -9.549961,4.27827 -9.549961,9.543 0,5.28293 4.285764,9.56009 9.549961,9.56009 z m 0,-23.77766 0,0 c 7.860954,0 14.230074,6.38045 14.230074,14.21757 0,7.85532 -6.36912,14.23614 -14.230074,14.23614 -7.842352,0 -14.215193,-6.38082 -14.215193,-14.23614 0,-7.83712 6.372841,-14.21757 14.215193,-14.21757 z"
           style="fill:#930c38;fill-opacity:1;fill-rule:nonzero;stroke:none"
           id="path48" /></g></g></g></svg>