<?xml version="1.0" encoding="UTF-8" standalone="no"?>
<!-- Created with Inkscape (http://www.inkscape.org/) -->

<svg
   xmlns:dc="http://purl.org/dc/elements/1.1/"
   xmlns:cc="http://creativecommons.org/ns#"
   xmlns:rdf="http://www.w3.org/1999/02/22-rdf-syntax-ns#"
   xmlns:svg="http://www.w3.org/2000/svg"
   xmlns="http://www.w3.org/2000/svg"
   xmlns:sodipodi="http://sodipodi.sourceforge.net/DTD/sodipodi-0.dtd"
   xmlns:inkscape="http://www.inkscape.org/namespaces/inkscape"
   width="530"
   height="130"
   viewBox="0 0 530.00002 130"
   id="svg7585"
   version="1.1"
   inkscape:version="0.91 r13725"
   sodipodi:docname="TER_Alsace_(avant_2014).svg">
  <defs
     id="defs7587">
    <linearGradient
       x1="0"
       y1="0"
       x2="1"
       y2="0"
       gradientUnits="userSpaceOnUse"
       gradientTransform="matrix(168.93624,0,0,-168.93624,118.06947,67.377436)"
       spreadMethod="pad"
       id="linearGradient128">
      <stop
         style="stop-opacity:1;stop-color:#7c2270"
         offset="0"
         id="stop130" />
      <stop
         style="stop-opacity:1;stop-color:#aa147e"
         offset="0.247191"
         id="stop132" />
      <stop
         style="stop-opacity:1;stop-color:#e41d25"
         offset="0.814607"
         id="stop134" />
      <stop
         style="stop-opacity:1;stop-color:#e41d25"
         offset="1"
         id="stop136" />
    </linearGradient>
    <clipPath
       clipPathUnits="userSpaceOnUse"
       id="clipPath144">
      <path
         d="m 0,0 311.811,0 0,510.236 -311.811,0 z"
         id="path146"
         inkscape:connector-curvature="0" />
    </clipPath>
  </defs>
  <sodipodi:namedview
     id="base"
     pagecolor="#ffffff"
     bordercolor="#666666"
     borderopacity="1.0"
     inkscape:pageopacity="0.0"
     inkscape:pageshadow="2"
     inkscape:zoom="1.1736315"
     inkscape:cx="274.58429"
     inkscape:cy="-37.429023"
     inkscape:document-units="px"
     inkscape:current-layer="layer1"
     showgrid="false"
     fit-margin-left="1"
     fit-margin-bottom="1"
     fit-margin-top="1"
     fit-margin-right="1"
     inkscape:window-width="1440"
     inkscape:window-height="788"
     inkscape:window-x="0"
     inkscape:window-y="1"
     inkscape:window-maximized="1"
     units="px" />
  <metadata
     id="metadata7590">
    <rdf:RDF>
      <cc:Work
         rdf:about="">
        <dc:format>image/svg+xml</dc:format>
        <dc:type
           rdf:resource="http://purl.org/dc/dcmitype/StillImage" />
        <dc:title></dc:title>
      </cc:Work>
    </rdf:RDF>
  </metadata>
  <g
     inkscape:label="Calque 1"
     inkscape:groupmode="layer"
     id="layer1"
     transform="translate(27.617488,-633.57008)">
    <g
       id="g4791"
       transform="matrix(1.0029127,0,0,1.0029711,-3.473186,1.2852064)">
      <path
         d="m 220.77852,753.7502 c -26.14,12.74 -63.475,7.55 -71.935,-29.19 l 8.08,-12.535 c 19.55,41.61 29.195,43.595 63.855,41.725"
         style="fill:#b1c805;fill-opacity:1;fill-rule:nonzero;stroke:none"
         id="path5026"
         inkscape:connector-curvature="0" />
      <path
         d="m 120.52952,701.0206 c -1.845,-2.04 -6.725,-4.28 -13.27,-5.32 -6.385,-1.025 -19.58,-1.7 -33.945,5.66 -14.97,7.68 -24.62,21.97 -20.285,35.47 0.04,-0.015 -12.615,4.705 -22.09,2.78 -5.125,-1.05 -9.91,-4.83 -11.445,-9.855 -2.37,-7.71 -0.415,-21.01 12.88,-33.15 17.55,-16.03 43.885,-21.755 55.135,-24.2 5.17,-1.125 5.83,-1.295 6.01,-2.035 0.08,-0.325 0.265,-1.525 -0.77,-2.74 -1.585,-1.865 -6.105,-3.795 -18.635,-2.48 -12.86,1.39 -30.49,6.605 -35.76,8.235 3.63,-7.61 14.78,-27.675 16.785,-31.5 3.235,-6.145 4.405,-8.815 4.405,-10.27 l -0.37,-0.91 c -1.835,-1.68 -12.335,3.985 -20.38,13.45 -8.07,9.49 -12.355,17.12 -18.665,27.155 -7.04,11.145 -29.1,16.805 -39.775,19.72 -2.84,0.75 -3.69,0.905 -4.05,1.3 -0.365,0.385 -0.465,0.9 -0.305,1.465 0.89,3.135 6.32,6.51 11.905,6.775 4.07,0.185 8.905,-0.465 16.415,-2.545 -4.025,6.405 -10.85,20.49 -10.85,33.955 0,10.49 4.825,22.905 25.245,24.825 16.095,1.54 31.71,-4.17 42.645,-8.38 12.365,9.59 29.2,9.105 29.2,9.105 43.185,0 63.235,-34.61 66.945,-41.01 -0.02,0.04 3.955,12.89 11.465,23.25 10.33,14.24 24.62,18.71 39.285,17.375 17.425,-1.63 28.63,-15.13 29.69,-17.635 0.525,-1.23 -0.03,-2.56 -3.195,-0.865 -2.735,1.46 -5.645,3.64 -12.89,5.005 -32.325,6.1 -41.955,-27.48 -48.925,-41.84 -0.94,-2.075 -1.79,-3.55 -2.665,-3.91 -1.975,-0.755 -17.21,1.905 -18.89,5.14 -16.98,31.59 -39.005,38.575 -55.745,38.84 -5.61,0.08 -10.29,-1.075 -14.08,-3.04 6.555,-3.225 11.165,-5.725 15.9,-8.88 17.345,-11.535 23.67,-23.93 23.67,-27.92 l -0.595,-1.02 m -50.515,24.415 c 0,-0.78 0.095,-1.575 0.255,-2.405 0.975,-4.605 4.54,-9.4 9.13,-12.21 14.57,-8.93 26.725,-6.31 28.485,-5.325 l -0.05,0.595 c -1.66,4.2 -16.845,17.51 -36.29,24.61 -0.895,-1.45 -1.53,-3.495 -1.53,-5.265"
         style="fill:#0b4691;fill-opacity:1;fill-rule:nonzero;stroke:none"
         id="path5030"
         inkscape:connector-curvature="0" />
      <g
         transform="matrix(1.3126033,0,0,1.3126033,444.36585,-204.3264)"
         style="fill:#b1c805;fill-opacity:1"
         id="g4392">
        <path
           inkscape:connector-curvature="0"
           id="path37"
           style="fill:#b1c805;fill-opacity:1;fill-rule:nonzero;stroke:none;stroke-width:0.1"
           d="m -175.83852,709.36949 c -2.22198,0 -3.93815,-0.59052 -5.06286,-1.99677 -0.30946,-0.39414 -0.33692,-0.44906 -0.78736,-0.44906 l -1.04004,0 c -0.22522,0 -0.27786,-0.0856 -0.27878,-0.45182 l 0,-16.73215 c 0.0124,-0.0427 0.0339,-0.0586 0.0815,-0.0586 0.0838,0 0.30853,0.0855 0.39414,0.0855 0.42068,0 3.85254,-0.30984 6.44027,-0.30984 3.82554,0 5.93443,1.65937 5.93443,4.80879 0,1.57558 -0.75984,3.03867 -1.91205,3.71332 -0.25361,0.14016 -0.36621,0.25324 -0.36621,0.45 0,0.16851 0.14007,0.28066 0.39367,0.3648 1.82834,0.56309 2.98147,2.39098 2.98147,4.61426 0,3.8796 -2.67202,5.96152 -6.77816,5.96152 z m -0.75989,-17.15703 c -1.01166,0 -1.99723,0.0564 -2.3053,0.11309 -0.28244,0.0564 -0.33783,0.16934 -0.33783,0.6184 l 0,3.9089 c 0,0.31125 0.0284,0.45141 0.4216,0.45141 l 2.10892,0 c 1.49093,0 2.6445,-0.64828 2.6445,-2.67246 0,-1.65938 -1.15357,-2.41934 -2.53189,-2.41934 z m -0.16892,7.90336 -1.9963,0 c -0.19684,0 -0.22522,-0.25277 -0.36575,-0.25277 -0.0838,0 -0.11216,0.14062 -0.11216,0.70277 l 0,2.44852 c 0,2.02383 0.87158,3.4575 3.00934,3.4575 1.85577,0 2.9251,-1.23738 2.9251,-3.26156 0,-2.41934 -1.57562,-3.09446 -3.46023,-3.09446" />
        <path
           inkscape:connector-curvature="0"
           id="path39"
           style="fill:#b1c805;fill-opacity:1;fill-rule:nonzero;stroke:none;stroke-width:0.1"
           d="m -151.45435,707.28757 c 0,0 0.0563,0.95673 0.0563,1.12519 0,0.22522 -0.0846,0.33737 -0.28148,0.42206 -0.78738,0.33783 -1.26574,0.53467 -2.1368,0.53467 -1.82836,0 -2.98195,-0.78736 -3.93773,-2.67197 l -2.33461,-4.64084 c -0.22523,-0.45 -0.42199,-0.58957 -0.9,-0.61933 -1.43414,-0.11215 -1.12559,-0.0833 -1.29363,-0.0833 -0.36621,0 -0.42246,0.19687 -0.42246,0.56168 0,1.32199 0,5.25971 0,6.7502 0,0.28106 -0.0274,0.42205 -0.30903,0.42205 -0.25265,0 -1.65937,-0.11215 -1.71562,-0.11215 -0.0843,0 -1.5184,0.11215 -1.77211,0.11215 -0.16793,0 -0.19629,-0.0558 -0.19629,-0.14099 0,-0.19684 0.1684,-0.50537 0.1684,-0.70267 l 0,-17.80336 c 0,-0.36527 0.14097,-0.47836 0.33785,-0.50578 1.60312,-0.2816 4.52824,-0.47836 6.86191,-0.47836 3.57188,0 6.10383,1.71516 6.10383,5.76691 0,2.33461 -1.23785,4.30243 -2.95348,5.11782 -0.25277,0.11214 -0.33785,0.22429 -0.33785,0.3382 0,0.0824 0.0563,0.19594 0.14098,0.36445 0.56297,1.09723 1.35035,2.47512 1.9125,3.48762 0.56309,0.98473 1.18195,1.32211 1.71668,1.32211 0.67383,0 0.92789,-0.31043 1.20844,-0.31043 0.1405,0 0.19687,0.0852 0.19687,0.25406 0,0.19735 -0.11262,1.49003 -0.11262,1.49003 z m -8.80277,-14.87823 c -0.81574,0 -1.66031,0.0856 -2.16574,0.16933 -0.25313,0.0275 -0.3941,0.0847 -0.3941,0.44954 0,0.42257 0.11215,1.04144 0.11215,1.82929 l 0,2.55891 c 0,0.67465 0.0851,0.95672 0.73195,1.12465 0.39363,0.11215 0.92836,0.16851 1.57512,0.16851 1.82789,0 3.09316,-1.06886 3.09316,-3.12246 0,-1.9684 -0.98414,-3.17777 -2.95254,-3.17777" />
        <path
           inkscape:connector-curvature="0"
           id="path41"
           style="fill:#b1c805;fill-opacity:1;fill-rule:nonzero;stroke:none;stroke-width:0.1"
           d="m -135.02431,707.54072 c -0.22523,0 -1.04004,-0.0558 -1.09675,-0.0558 -0.3095,0 -0.42118,0.0558 -0.75903,0.30853 -1.57465,1.18241 -3.68496,1.57609 -5.65336,1.57609 -4.38773,0 -7.00289,-2.27876 -7.00289,-6.27277 0,-2.92512 1.63055,-4.16191 1.63055,-5.11781 0,-0.75984 -0.50531,-1.68774 -0.50531,-3.00926 0,-3.74133 3.06609,-5.62418 6.60914,-5.62418 1.79988,0 3.62683,0.22348 4.89351,0.92754 0.28055,0.16793 0.33692,0.2243 0.33692,0.47695 0,0.1977 -0.36446,1.40672 -0.36446,1.40672 0,0 -0.0293,1.71516 -0.22558,1.71516 0,0 -0.25324,-0.0562 -0.45,-0.22336 -0.73102,-0.59145 -2.13774,-1.01344 -3.51563,-1.01344 -2.02511,0 -3.403,0.78738 -3.403,2.64305 0,1.23738 0.44953,1.77211 1.6589,1.77211 l 4.41656,0 c 0.39364,0 0.42106,0.0567 0.42106,0.42199 0,0.19688 -0.0558,1.23738 -0.0558,1.23738 0,0 0.0838,1.12465 0.0838,1.40625 0,0.33785 -0.14063,0.33785 -0.44907,0.33785 l -5.20441,0 c -1.18102,0 -1.68586,0.87153 -1.68586,1.96793 0,2.1102 1.15219,3.51563 3.7957,3.51563 2.41934,0 3.62918,-1.51852 3.62918,-2.84051 0,-0.25265 0.0274,-0.33738 0.25266,-0.33738 0.19687,0 1.12523,0.0284 1.12523,0.0284 0,0 1.2927,-0.0558 1.48957,-0.0558 0.25454,0 0.31032,0.0274 0.31032,0.33785 0,0.42105 -0.0558,1.91297 -0.0558,1.91297 0,0 0.0833,1.799 0.0833,2.24899 0,0.19684 -0.0833,0.30899 -0.3095,0.30899" />
        <path
           inkscape:connector-curvature="0"
           id="path43"
           style="fill:#b1c805;fill-opacity:1;fill-rule:nonzero;stroke:none;stroke-width:0.1"
           d="m -119.48138,692.99985 c -0.31043,0 -0.87293,-0.0559 -1.7441,-0.0559 l -2.44769,0 c -0.73102,0 -0.81528,0.25277 -0.81528,0.73242 l 0,10.79824 c 0,1.15406 0.36621,1.40672 0.81528,1.40672 0.45,0 0.87293,-0.39363 1.1257,-0.39363 0.14098,0 0.22523,0.0288 0.22523,0.28289 0,0.25125 0,1.2643 0,1.2643 0,0 0.1684,1.12472 0.1684,1.29318 0,0.22567 -0.0559,0.28153 -0.28195,0.42206 -0.64688,0.39413 -2.08008,0.61936 -2.69895,0.61936 -2.22293,0 -3.31886,-1.15357 -3.31886,-3.54453 l 0,-11.19316 c 0,-0.39375 0.30855,-1.12523 0.30855,-1.40672 0,-0.16805 -0.1684,-0.30902 -0.53461,-0.30902 -0.28019,0 -2.08008,0.0279 -2.13597,0.0279 -0.42247,0 -2.30707,0.11308 -2.53149,0.11308 -0.28242,0 -0.33773,-0.11308 -0.33773,-0.31031 0,-0.22383 0.0553,-1.5184 0.0553,-1.5184 0,0 -0.0838,-0.95531 -0.0838,-1.18101 0,-0.33785 0.0838,-0.39375 0.44953,-0.39375 l 12.20637,0 c 1.2382,0 1.43508,-0.33739 1.74351,-0.33739 0.0568,0 0.16993,0.0293 0.16993,0.16805 0,0.31043 -0.0573,1.46344 -0.0573,1.46344 0,0 0.0847,1.49004 0.0847,1.71574 0,0.28055 -0.0847,0.33645 -0.36481,0.33645" />
        <path
           inkscape:connector-curvature="0"
           id="path45"
           style="fill:#b1c805;fill-opacity:1;fill-rule:nonzero;stroke:none;stroke-width:0.1"
           d="m -101.2047,708.86228 c -0.53332,0.28198 -1.51758,0.50721 -2.25,0.50721 -1.46203,0 -2.55925,-0.64683 -3.09398,-2.44583 l -0.84317,-2.78549 c -0.0857,-0.30903 -0.0857,-1.20938 -0.75902,-1.20938 -0.25406,0 -0.98508,0.39363 -1.37871,0.39363 l -2.92512,0.0274 c -0.64687,0 -0.8441,0.0581 -1.0405,0.7316 l -1.04051,3.57233 c -0.31043,1.09635 -0.16934,1.60263 -0.64735,1.60263 -0.28054,0 -1.57464,-0.19729 -1.57464,-0.19729 l -1.94098,0 c -0.25313,0 -0.28055,-0.0833 -0.28055,-0.28015 0,-0.25315 0.25313,-0.75989 0.47742,-1.46118 l 4.69758,-15.30208 c 0.61793,-1.99676 0.2802,-2.36215 1.51887,-2.36215 0.25266,0 1.68644,0.0861 1.68644,0.0861 0,0 1.68821,-0.0861 1.82918,-0.0861 0.84317,0 0.95485,0.0275 1.57477,2.02476 l 3.90973,12.37512 c 0.39363,1.23738 0.75984,1.65938 1.32058,1.65938 0.33738,0 0.64781,-0.19629 0.78738,-0.19629 0.14051,0 0.19817,0.0841 0.19817,0.30843 0,0.28207 -0.0846,1.18155 -0.0846,1.18155 0,0 0.14051,1.1531 0.14051,1.40625 0,0.28152 -0.0274,0.3099 -0.28149,0.44952 z m -7.22765,-9.19599 -1.26575,-4.19133 c -0.5905,-1.96839 -0.78738,-2.08148 -1.12511,-2.08148 -0.28114,0 0.0274,0.45094 -0.44953,2.08148 l -1.2095,4.24711 c -0.0293,0.0847 -0.0567,0.17028 -0.0567,0.22524 0,0.19687 0.14098,0.28195 0.45047,0.28195 l 3.31875,0 c 0.30856,0 0.39364,-0.0577 0.39364,-0.19816 0,-0.0838 0,-0.19688 -0.0563,-0.36481" />
        <path
           inkscape:connector-curvature="0"
           id="path47"
           style="fill:#b1c805;fill-opacity:1;fill-rule:nonzero;stroke:none;stroke-width:0.1"
           d="m -84.82915,700.84684 0,4.44398 c 0,0 0.0559,1.49092 0.0559,2.13775 0,0.36483 -0.113086,0.36483 -0.309961,0.36483 -0.253125,0 -1.547226,-0.0824 -1.9125,-0.0824 -0.336445,0 -0.591445,0.0824 -0.759961,0.2234 -1.068867,0.90042 -2.812968,1.43509 -4.725,1.43509 -4.583554,0 -7.255547,-2.70081 -7.255547,-9.90054 0,-6.97406 3.318282,-10.12348 7.537969,-10.12348 1.714336,0 3.515625,0.44918 4.527305,1.34813 0.169336,0.16992 0.366211,0.25406 0.61793,0.25406 0.36621,0 1.23832,-0.0274 1.436015,-0.0274 0.111328,0 0.195938,0.13957 0.195938,0.25172 0,0.25324 -0.02836,2.1941 -0.02836,2.1941 0,0 0.0559,2.13773 0.0559,2.36203 0,0.28242 -0.02754,0.33738 -0.280196,0.33738 -0.197343,0 -1.264804,-0.055 -1.264804,-0.055 l -1.267149,0.14016 c -0.168867,0 -0.280078,-0.0288 -0.280078,-0.22571 0,-2.16527 -1.491445,-3.26156 -3.067031,-3.26156 -3.262969,0 -3.88043,3.45844 -3.88043,6.63668 0,5.96332 1.912031,6.69481 3.825469,6.69481 2.137734,0 3.149414,-0.98473 3.149414,-2.36344 l 0,-0.61711 c 0,-0.4793 -0.169336,-0.73242 -0.61793,-0.73242 l -1.407656,0 c -0.281484,0 -0.53332,0.11215 -0.646758,0.11215 0,0 -0.196406,-0.0847 -0.196406,-0.16887 0,-0.33645 0.08555,-1.40531 0.08555,-1.40531 0,0 -0.02977,-0.89954 -0.02977,-1.18243 0,-0.13875 0.0573,-0.25312 0.423516,-0.25312 l 5.905078,0 c 0.338789,0 0.45,0.11437 0.45,0.25312 0,0.19676 -0.336445,0.73102 -0.336445,1.20938" />
        <path
           inkscape:connector-curvature="0"
           id="path49"
           style="fill:#b1c805;fill-opacity:1;fill-rule:nonzero;stroke:none;stroke-width:0.1"
           d="m -64.268955,708.75013 c -0.534375,0.30899 -1.575,0.61936 -2.390625,0.61936 -2.165273,0 -3.457031,-1.18104 -3.457031,-4.05031 l 0,-6.35554 c 0,-4.07918 -0.704063,-6.13184 -3.62918,-6.13184 -2.841328,0 -3.543047,2.58738 -3.543047,6.10301 l 0,8.60591 c 0,0.25268 0.02742,0.84457 0.02742,1.04141 0,0.42115 -0.05719,0.50583 -0.366211,0.50583 -0.140508,0 -1.602187,-0.11215 -1.602187,-0.11215 0,0 -1.519805,0.11215 -1.771524,0.11215 -0.196875,0 -0.282422,-0.14099 -0.282422,-0.42205 0,-0.30946 0.02695,-0.73151 0.02695,-1.06888 l 0,-9.19695 c 0,-1.60219 0.255469,-3.03726 0.787852,-4.07871 0.113086,-0.2243 0.309961,-0.70266 0.309961,-0.95531 0,-0.30903 -0.169453,-0.56309 -0.534258,-0.90047 l -1.209844,-1.09676 c -0.08473,-0.055 -0.365273,-0.39316 -0.39375,-0.44859 -0.05484,-0.1145 -0.112148,-0.22664 -0.112148,-0.31078 0,-0.11215 0.05731,-0.19735 0.198281,-0.28067 l 1.15125,-0.73148 c 0.05812,-0.0284 0.590508,-0.36621 0.648633,-0.39364 0.110742,-0.0573 0.196875,-0.0573 0.308086,-0.0573 0.168047,0 0.309961,0.0573 0.479297,0.1698 l 1.321992,1.01262 c 0.222891,0.16852 0.476953,0.28067 0.70125,0.28067 0.281602,0 0.815742,-0.19735 1.041445,-0.3095 1.068868,-0.53332 2.108907,-0.95449 3.376055,-0.95449 4.161094,0 7.031719,2.16434 7.031719,8.9141 l 0,6.33 c 0,0.89813 0.307031,1.29176 0.786328,1.29176 0.561328,0 0.870703,-0.39363 1.126172,-0.39363 0.166406,0 0.225,0.0558 0.225,0.30984 0,0.25313 -0.08555,1.32203 -0.08555,1.32203 0,0 0.1125,0.92789 0.1125,1.2085 0,0.22567 -0.05742,0.28153 -0.282422,0.42206" />
        <path
           inkscape:connector-curvature="0"
           id="path51"
           style="fill:#b1c805;fill-opacity:1;fill-rule:nonzero;stroke:none;stroke-width:0.1"
           d="m -54.392392,705.93723 c -2.642579,0 -3.794532,-1.40543 -3.794532,-3.51563 0,-1.0964 0.505078,-1.96793 1.686328,-1.96793 l 5.203125,0 c 0.05391,0 0.09609,-0.003 0.138282,-0.003 l 0,-3.39152 c -0.04219,-0.004 -0.07969,-0.009 -0.138282,-0.009 l -4.415625,0 c -1.210546,0 -1.659375,-0.53473 -1.659375,-1.77211 0,-1.85567 1.378125,-2.64305 3.401954,-2.64305 1.018359,0 2.044921,0.23203 2.811328,0.59004 l 0,-3.48129 c -1.059375,-0.28113 -2.272266,-0.39832 -3.485157,-0.39832 -3.542578,0 -6.610546,1.88285 -6.610546,5.62418 0,1.32152 0.507421,2.24942 0.507421,3.00926 0,0.9559 -1.630078,2.19269 -1.630078,5.11781 0,3.99401 2.614453,6.27277 7.000782,6.27277 1.41914,0 2.907421,-0.20966 4.217578,-0.76585 l 0,-4.22008 c -0.529688,0.85687 -1.59961,1.55367 -3.233203,1.55367" />
      </g>
      <g
         id="g10"
         inkscape:label="guide-tgv-loisir"
         transform="matrix(0.6724359,0,0,-0.6724359,311.24973,708.99113)">
        <path
           d="m 121.17533,61.986208 c -1.88209,-0.07905 -3.10544,-0.948573 -3.10544,-2.808078 l 0,0 0,-82.902307 c 0,-1.445446 1.03515,-2.751616 2.63116,-2.751616 l 0,0 147.99251,0 c 1.32876,0 2.39025,0.120454 3.01511,1.874562 l 0,0 c 0,0 15.00026,46.943092 15.26375,47.790033 l 0,0 c 0.5571,1.772929 0.19574,2.672568 -1.31746,3.636198 l 0,0 C 237.45463,57.710099 165.3781,62.197002 132.64103,62.197002 l 0,0 c -4.69394,0 -8.57104,-0.0941 -11.4657,-0.210794"
           style="fill:url(#linearGradient128);stroke:none;stroke-width:1"
           id="path138"
           inkscape:connector-curvature="0" />
        <g
           id="g140"
           transform="matrix(3.7641803,0,0,3.7641803,-793.92701,-171.92372)"
           style="stroke-width:0.2656621">
          <g
             id="g142"
             clip-path="url(#clipPath144)"
             style="stroke-width:0.2656621">
            <g
               id="g148"
               transform="translate(267.3338,44.7764)"
               style="stroke-width:0.2656621">
              <path
                 d="m 0,0 c -0.55,0.641 -0.768,1.468 -0.632,2.39 0.324,2.199 2.464,3.589 5.327,3.589 0.603,0 1.224,-0.038 1.782,-0.109 L 7.043,7.529 C 6.353,7.635 5.517,7.68 4.697,7.68 2.158,7.68 -0.05,6.806 -1.481,5.265 -1.526,5.217 -1.572,5.218 -1.6,5.218 c -0.044,0 -0.074,0.008 -0.062,0.047 l 0.717,2.249 -2.096,0 -2.294,-7.197 c -0.73,2.124 -2.232,4.917 -4.069,7.197 l -2.251,0 -1.683,-5.239 c 0.846,-0.629 1.114,-1.083 1.335,-1.729 0.013,-0.038 0.04,-0.046 0.081,-0.046 0.041,0 0.061,0.01 0.072,0.046 0.016,0.05 1.468,4.553 1.468,4.553 1.481,-2.119 2.951,-4.907 3.739,-7.851 l 2.414,0 1.194,3.73 c 0.013,0.038 0.039,0.046 0.079,0.046 0.042,0 0.069,-0.011 0.074,-0.046 0.363,-2.342 2.692,-3.916 5.993,-3.916 2.134,0 4.063,0.56 4.543,0.817 l 1.251,3.94 4.804,0 0.489,1.526 -4.805,0 0.829,2.587 5.725,0 0.499,1.582 -8.042,0 -2.73,-8.533 C 5.095,-1.165 4.379,-1.237 3.631,-1.237 2.02,-1.237 0.73,-0.854 0,0 m -13.558,5.939 0.478,1.503 c -0.687,0.126 -1.178,0.191 -1.998,0.21 -2.636,0.061 -5.019,-0.666 -5.632,-2.206 -0.726,-1.826 1.334,-2.853 3.119,-3.699 1.417,-0.672 2.537,-1.311 2.143,-2.148 -0.306,-0.649 -1.309,-0.957 -2.767,-0.924 -1.263,0.03 -2.838,0.392 -4.079,1.017 l -0.738,-1.596 c 0.913,-0.424 2.795,-1 4.401,-1.037 3.016,-0.069 4.969,0.69 5.751,2.332 0.925,1.944 -1.37,3.007 -3.213,3.897 -1.443,0.697 -2.427,1.061 -2.19,1.762 0.28,0.83 1.731,1.145 3.046,1.115 0.665,-0.016 1.138,-0.101 1.679,-0.226"
                 style="fill:#ffffff;fill-opacity:1;fill-rule:nonzero;stroke:none;stroke-width:0.2656621"
                 id="path150"
                 inkscape:connector-curvature="0" />
            </g>
          </g>
        </g>
      </g>
    </g>
  </g>
</svg>
