<?xml version="1.0" encoding="UTF-8"?>
<!DOCTYPE svg PUBLIC "-//W3C//DTD SVG 1.1//EN" "http://www.w3.org/Graphics/SVG/1.1/DTD/svg11.dtd">
<!-- Creator: CorelDRAW -->
<svg xmlns="http://www.w3.org/2000/svg" xml:space="preserve" width="1.8cm" height="1cm" shape-rendering="geometricPrecision" text-rendering="geometricPrecision" image-rendering="optimizeQuality" fill-rule="evenodd" clip-rule="evenodd"
viewBox="0 0 18 10"
 xmlns:xlink="http://www.w3.org/1999/xlink">
 <g id="Ebene_x0020_1">
  <metadata id="CorelCorpID_0Corel-Layer"/>
  <path fill="#B4B4B4" d="M4.3579 4.9781c-0.4772,2.8024 0.6168,4.1979 3.1041,4.2241 0.8818,0.0092 1.8783,-0.2956 1.9975,-0.3663l0.229 -1.2432c-0.555,0.1967 -1.0499,0.3536 -1.7118,0.3412 -0.8359,-0.0157 -1.6762,-0.2365 -1.6981,-1.7361 -0.0315,-2.1452 0.7768,-3.9344 2.7285,-3.9707 0.6681,-0.0125 0.9846,0.1048 1.5886,0.3435l0.241 -1.3081c-0.4988,-0.2078 -0.8895,-0.3933 -2.0459,-0.4144 -2.4648,-0.0449 -4.0281,1.7523 -4.4329,4.13zm-3.6799 4.12l1.9109 -0.0011 1.4863 -8.0684 -1.9371 0 -1.4601 8.0695zm11.2907 -8.0695l-1.5412 8.0695 5.6172 -0.0006 0.2395 -1.3003 -3.7164 0 0.337 -2.0365 2.7499 0.0005 0.2488 -1.3508 -2.7181 -0.0018 0.4078 -1.9854 3.5066 -0.0002 0.2568 -1.3943 -5.3879 -0.0001z"/>
 </g>
</svg>
