<?xml version="1.0" encoding="utf-8"?>
<!-- Generator: Adobe Illustrator 13.0.0, SVG Export Plug-In . SVG Version: 6.00 Build 14948)  -->
<!DOCTYPE svg PUBLIC "-//W3C//DTD SVG 1.1//EN" "http://www.w3.org/Graphics/SVG/1.1/DTD/svg11.dtd">
<svg version="1.1" id="Calque_1" xmlns="http://www.w3.org/2000/svg" xmlns:xlink="http://www.w3.org/1999/xlink" x="0px" y="0px"
	 width="38.291px" height="20.628px" viewBox="0 0 38.291 20.628" enable-background="new 0 0 38.291 20.628" xml:space="preserve">
<rect x="2.71" fill="#FFC708" width="32.307" height="20.628"/>
<path fill="#A7A9AC" d="M0.025,12.662c-0.011-0.006,0.058-0.064,0.203-0.179c0.519-0.052,1.143-0.081,1.873-0.087
	c0.369-0.034,0.677-0.066,0.92-0.097c0.358,0.021,0.899,0.06,1.622,0.118c0.39,0.148,0.97,0.319,1.741,0.509
	c0.471-0.116,0.959-0.223,1.465-0.314l1.525-0.293c0.359-0.006,0.895,0.015,1.604,0.059l0.169,0.558
	c-0.231,0.07-0.416,0.148-0.553,0.233c-0.19,0.058-0.455,0.094-0.794,0.109c-0.375,0.02-1.012,0.019-1.914-0.003l-1.911-0.043
	c-0.521,0.098-1.172,0.19-1.95,0.279c-0.082-0.035-0.157-0.073-0.224-0.113c-0.107,0.032-0.313,0.056-0.616,0.07l-0.369-0.188
	c-0.228-0.009-0.44-0.009-0.638-0.001l-0.188-0.176c-0.344-0.027-0.857,0.008-1.542,0.104C0.389,13.131,0.239,12.994,0,12.8
	l0.001-0.039C0,12.727,0.008,12.693,0.025,12.662"/>
<path fill="#FFFFFF" d="M20.985,17.659c-0.036-0.004-0.094-0.023-0.171-0.053c-0.006-0.01-0.037-0.036-0.097-0.078l-0.342-0.563
	c-0.029-0.048-0.061-0.125-0.092-0.232c-0.018-0.103-0.026-0.181-0.029-0.233c0.007-0.006,0.019-0.024,0.034-0.059
	c-0.073-0.12-0.158-0.283-0.252-0.487c-0.049-0.156-0.083-0.277-0.103-0.362c0.011-0.108,0.026-0.183,0.047-0.224
	c-0.021-0.065-0.034-0.153-0.042-0.262l0.067-0.256c0.024-0.089,0.047-0.181,0.069-0.273c0.087-0.068,0.165-0.142,0.236-0.219
	l0.22-0.133c0.034,0.026,0.09,0.051,0.163,0.075c0.054,0.055,0.111,0.107,0.175,0.157l0.198,0.156l0.36,0.594
	c0.066,0.158,0.121,0.338,0.163,0.536c-0.003,0.017-0.006,0.05-0.008,0.101c0.018,0.03,0.042,0.094,0.072,0.191
	c-0.012,0.025-0.02,0.051-0.025,0.072c0.012,0.021,0.029,0.074,0.049,0.161c0.001,0.131-0.009,0.215-0.029,0.253
	c0.009,0.012,0.02,0.055,0.036,0.131c-0.04,0.194-0.066,0.34-0.083,0.438l-0.249,0.498c-0.046,0.027-0.124,0.087-0.234,0.18
	C21.062,17.727,21.017,17.69,20.985,17.659"/>
<path fill="#FFFFFF" d="M24.496,2.895c0.017,0.029,0.038,0.08,0.062,0.153c-0.003,0.01-0.003,0.049,0.001,0.114l-0.199,0.577
	c-0.018,0.05-0.055,0.117-0.112,0.203c-0.064,0.073-0.113,0.125-0.15,0.158c-0.007-0.002-0.026,0.002-0.061,0.011
	c-0.042,0.123-0.109,0.279-0.199,0.467c-0.082,0.128-0.149,0.224-0.199,0.286c-0.083,0.059-0.145,0.09-0.186,0.1
	c-0.036,0.054-0.09,0.115-0.163,0.185l-0.222,0.103c-0.077,0.035-0.156,0.072-0.236,0.111c-0.101-0.02-0.198-0.034-0.295-0.039
	l-0.225-0.079c-0.003-0.038-0.017-0.093-0.043-0.158c0.009-0.072,0.012-0.146,0.01-0.22l-0.006-0.232l0.212-0.608
	c0.072-0.14,0.168-0.285,0.285-0.433c0.015-0.007,0.039-0.025,0.076-0.053c0.011-0.031,0.042-0.087,0.094-0.165
	c0.025-0.008,0.048-0.017,0.067-0.025c0.007-0.021,0.036-0.063,0.086-0.129c0.093-0.079,0.159-0.122,0.197-0.129
	c0.005-0.013,0.029-0.046,0.073-0.103c0.162-0.087,0.281-0.153,0.36-0.199l0.503-0.116c0.046,0.016,0.136,0.036,0.268,0.062
	C24.498,2.802,24.499,2.854,24.496,2.895"/>
<path fill="#FFFFFF" d="M20.043,1.318c0.038,0.014,0.094,0.043,0.171,0.09c0.004,0.013,0.033,0.046,0.087,0.103l0.254,0.665
	c0.021,0.058,0.039,0.146,0.052,0.266c-0.003,0.112-0.007,0.197-0.015,0.254c-0.008,0.003-0.023,0.022-0.047,0.056
	c0.054,0.142,0.112,0.331,0.173,0.565c0.021,0.177,0.034,0.313,0.037,0.406c-0.032,0.113-0.063,0.188-0.093,0.227
	c0.009,0.075,0.007,0.171-0.008,0.288l-0.12,0.258c-0.043,0.091-0.086,0.184-0.128,0.277c-0.104,0.056-0.202,0.118-0.294,0.187
	l-0.26,0.099c-0.03-0.035-0.084-0.072-0.157-0.111c-0.047-0.069-0.099-0.137-0.155-0.203L19.359,4.54l-0.267-0.702
	c-0.04-0.182-0.063-0.381-0.068-0.602c0.007-0.016,0.016-0.052,0.027-0.104c-0.013-0.036-0.026-0.108-0.039-0.219
	c0.017-0.024,0.03-0.049,0.041-0.071c-0.01-0.024-0.016-0.084-0.02-0.181c0.023-0.139,0.051-0.228,0.08-0.263
	c-0.007-0.014-0.011-0.063-0.014-0.146c0.08-0.199,0.139-0.35,0.174-0.45l0.362-0.48c0.054-0.02,0.148-0.067,0.285-0.145
	C19.975,1.232,20.016,1.28,20.043,1.318"/>
<path fill="#FFFFFF" d="M15.078,3.862c0.044-0.013,0.117-0.021,0.219-0.026c0.012,0.008,0.063,0.021,0.148,0.038l0.674,0.456
	c0.058,0.039,0.132,0.111,0.222,0.216c0.072,0.106,0.123,0.189,0.153,0.248c-0.006,0.009-0.008,0.034-0.008,0.081
	c0.144,0.099,0.32,0.237,0.531,0.419c0.137,0.15,0.236,0.27,0.302,0.354c0.044,0.126,0.063,0.218,0.061,0.274
	c0.058,0.064,0.119,0.155,0.182,0.274l0.057,0.32c0.018,0.113,0.039,0.227,0.062,0.344c-0.062,0.121-0.112,0.243-0.153,0.365
	l-0.179,0.261c-0.052-0.01-0.127-0.01-0.222,0C17.038,7.453,16.945,7.425,16.85,7.4l-0.303-0.073l-0.71-0.482
	c-0.156-0.144-0.308-0.316-0.458-0.52c-0.004-0.019-0.019-0.058-0.042-0.115c-0.036-0.024-0.096-0.084-0.179-0.179
	c-0.001-0.035-0.004-0.065-0.011-0.094c-0.023-0.017-0.068-0.069-0.136-0.156c-0.068-0.146-0.101-0.246-0.098-0.299
	c-0.014-0.009-0.049-0.052-0.107-0.13c-0.055-0.238-0.099-0.416-0.131-0.534L14.7,4.133c0.037-0.056,0.094-0.162,0.172-0.322
	C14.959,3.826,15.028,3.845,15.078,3.862"/>
<path fill="#FFFFFF" d="M14.504,17.666c-0.025-0.034-0.056-0.093-0.094-0.178c0.003-0.013-0.002-0.06-0.017-0.139l0.173-0.722
	c0.015-0.062,0.051-0.148,0.11-0.26c0.067-0.096,0.121-0.166,0.161-0.211c0.009,0.003,0.033-0.004,0.072-0.019
	c0.037-0.154,0.098-0.352,0.184-0.589c0.084-0.164,0.153-0.288,0.205-0.371c0.093-0.079,0.164-0.126,0.213-0.143
	c0.037-0.068,0.095-0.15,0.175-0.242l0.255-0.151c0.091-0.052,0.181-0.108,0.272-0.164c0.124,0.013,0.244,0.017,0.362,0.012
	l0.279,0.067c0.009,0.047,0.032,0.111,0.072,0.188c-0.001,0.088,0.005,0.176,0.016,0.266l0.034,0.281l-0.18,0.761
	c-0.071,0.178-0.17,0.365-0.293,0.558c-0.016,0.01-0.044,0.035-0.085,0.074c-0.01,0.038-0.041,0.109-0.094,0.21
	c-0.029,0.013-0.056,0.025-0.078,0.039c-0.006,0.025-0.035,0.081-0.088,0.167c-0.104,0.106-0.178,0.165-0.223,0.179
	c-0.004,0.017-0.028,0.061-0.075,0.133c-0.186,0.125-0.323,0.22-0.413,0.286L14.856,17.9c-0.058-0.015-0.169-0.027-0.329-0.042
	C14.513,17.778,14.505,17.715,14.504,17.666"/>
<path fill="#034EA2" d="M11.947,14.351c-0.053-0.05-0.111-0.089-0.178-0.116l-0.004-0.521c0-0.376,0.001-0.564,0.004-0.564
	c0.063-1.154,0.179-2.32,0.347-3.496c0.027-0.027,0.075-0.092,0.146-0.19c0.028-0.243,0.109-0.63,0.241-1.16
	c0-0.193,0.024-0.583,0.07-1.168c0.032-0.293,0.106-0.642,0.223-1.045c0.063-0.1,0.141-0.199,0.232-0.298l0.261-0.29
	c0.019,0.016,0.125,0.083,0.317,0.198l-0.131,0.771c-0.05,0.083-0.121,0.213-0.215,0.39c-0.024,0.764-0.056,1.521-0.094,2.271
	l-0.145,2.271c-0.056,0.111-0.135,0.279-0.237,0.506c0,0.47-0.019,0.885-0.053,1.243c0.157,0,0.282-0.013,0.373-0.041
	c0.06-0.104,0.164-0.21,0.314-0.314c0.381-0.101,0.659-0.189,0.836-0.267c0.026-0.006,0.439-0.109,1.238-0.314h0.373
	c0.026,0.011,0.18,0.077,0.462,0.197c0,0.155,0.013,0.271,0.039,0.349c-0.603,0.122-1.198,0.237-1.788,0.347l-0.698,0.298
	c-0.235,0.101-0.481,0.207-0.737,0.323c-0.025,0.05-0.07,0.152-0.137,0.307c-0.183,0.056-0.458,0.16-0.825,0.314H11.947"/>
<path fill="#034EA2" d="M18.355,14.733c0.138-0.055,0.32-0.104,0.551-0.149c0.424-0.271,0.944-0.596,1.559-0.973
	c0.125-0.104,0.278-0.263,0.461-0.474c0.209-0.327,0.393-0.69,0.55-1.09c0.059-0.05,0.104-0.074,0.138-0.074
	c0.064-0.155,0.098-0.26,0.098-0.316c0.157-0.172,0.278-0.3,0.363-0.383c0.059-0.238,0.088-0.435,0.088-0.59
	c0.059-0.044,0.104-0.07,0.138-0.075c0.137-0.692,0.245-1.211,0.323-1.555c0-0.721-0.029-1.344-0.088-1.871
	c-0.151-0.293-0.275-0.487-0.373-0.582c-0.06-0.232-0.088-0.387-0.088-0.465c-0.085-0.072-0.208-0.184-0.368-0.333
	c-0.161-0.149-0.283-0.26-0.368-0.332c-0.301,0-0.745,0.053-1.334,0.157c-0.366,0.238-0.565,0.37-0.598,0.391
	c-0.4,0.433-0.704,0.757-0.913,0.973c-0.131,0.443-0.209,0.769-0.235,0.974c-0.398,0.432-0.703,0.757-0.912,0.973
	c-0.064,0.255-0.098,0.449-0.098,0.582l-0.227,0.191c-0.025,0.139-0.049,0.274-0.068,0.407l-0.069,0.374
	c-0.131,0.283-0.209,0.478-0.235,0.582v2.336c0.079,0.167,0.142,0.337,0.188,0.508c0.064,0.062,0.202,0.152,0.412,0.274
	c0.033,0.078,0.049,0.181,0.049,0.308c0.091,0.027,0.212,0.042,0.362,0.042c0.144,0.083,0.252,0.146,0.323,0.19H18.355
	 M18.073,13.718c-0.066-0.056-0.159-0.161-0.277-0.316c0-0.027-0.033-0.119-0.099-0.273v-1.552c0-0.133,0.032-0.325,0.099-0.581
	c0.092-0.227,0.168-0.395,0.228-0.506c0.02,0,0.065-0.023,0.139-0.074c0-0.332,0.029-0.761,0.089-1.285
	c0.092-0.377,0.171-0.662,0.238-0.855c0.15-0.205,0.272-0.335,0.365-0.39c0.039-0.16,0.118-0.354,0.237-0.581l0.445-0.433
	c0.157-0.147,0.315-0.303,0.474-0.464c0.257-0.032,0.505-0.083,0.742-0.149h0.604c0.039,0.094,0.117,0.211,0.236,0.349
	c0.04,0.177,0.093,0.354,0.159,0.531l0.207,0.556v1.634c-0.06,0.399-0.168,0.824-0.326,1.278c-0.026,0.028-0.072,0.092-0.138,0.191
	c0,0.083-0.03,0.24-0.089,0.473c-0.054,0.039-0.101,0.077-0.14,0.116c0,0.055-0.032,0.183-0.098,0.382
	c-0.159,0.265-0.281,0.423-0.367,0.473c0,0.033-0.03,0.137-0.089,0.308c-0.317,0.343-0.55,0.603-0.702,0.779l-1.107,0.697
	c-0.125,0-0.355,0.024-0.691,0.074C18.146,13.943,18.099,13.816,18.073,13.718z"/>
<path fill="#034EA2" d="M28.306,14.351c0.119-0.183,0.192-0.313,0.224-0.391c-0.12-0.11-0.194-0.196-0.224-0.258
	c-0.19-0.083-0.366-0.169-0.526-0.258l-0.49-0.249c-0.166-0.122-0.317-0.252-0.454-0.39c-0.736-0.471-1.288-0.828-1.657-1.073
	c-0.06-0.083-0.151-0.182-0.275-0.298c0.028-0.11,0.044-0.252,0.044-0.424c0.23-0.133,0.46-0.263,0.685-0.392
	c1.18-0.758,2.056-1.342,2.626-1.752l0.685-0.706c0.226-0.237,0.453-0.474,0.686-0.706c0.148-0.383,0.255-0.671,0.32-0.863V5.735
	c-0.373-0.122-0.724-0.249-1.05-0.383h-1.84l-0.686,0.125c-0.273,0.133-0.428,0.205-0.463,0.216c-0.97,0.233-1.503,0.36-1.605,0.382
	c-0.064-0.37-0.142-0.636-0.23-0.799c-0.089-0.027-0.211-0.042-0.366-0.042c0.03,0.508,0.045,1.108,0.045,1.798
	c-0.059,0.088-0.089,0.232-0.089,0.432c0.099,0.188,0.177,0.328,0.232,0.422v0.985c-0.103,0.802-0.192,1.343-0.27,1.624
	c-0.216,0.248-0.371,0.434-0.467,0.556c-0.139,0.061-0.294,0.116-0.468,0.166v0.646c0.19,0.056,0.314,0.083,0.374,0.083
	c0.107,0.116,0.182,0.188,0.224,0.215v1.923l0.187,0.174h0.365c0.061-0.178,0.107-0.309,0.144-0.391
	c0-0.282-0.033-0.495-0.099-0.639c-0.03-0.243-0.045-0.6-0.045-1.07c0.125,0.027,0.279,0.041,0.463,0.041
	c0.061,0.057,0.09,0.099,0.09,0.125c0.226,0.063,0.38,0.093,0.463,0.093l1.159,0.709c0.386,0.239,0.767,0.475,1.141,0.709
	c0.154,0.16,0.306,0.334,0.454,0.517H28.306 M24.244,8.958c0.023-0.571,0.059-1.148,0.105-1.73c0.249-0.178,0.434-0.322,0.553-0.433
	c0.241-0.051,0.427-0.108,0.551-0.176c0.433-0.227,0.692-0.368,0.782-0.424c0.61-0.103,1.114-0.204,1.513-0.307
	c0.143,0,0.6,0.028,1.373,0.084l0.035,0.025c0.018,0.021,0.039,0.042,0.063,0.058c0,0.317,0.017,0.561,0.049,0.732
	c-0.333,0.407-0.562,0.737-0.686,0.992c-0.167,0.15-0.291,0.265-0.374,0.343c-0.227,0.105-0.348,0.163-0.366,0.174l-0.089,0.167
	c-0.077,0.071-0.202,0.159-0.374,0.259c0,0.011-0.03,0.069-0.09,0.175c-0.683,0.461-1.342,0.891-1.978,1.291
	c-0.617,0.289-1.002,0.445-1.149,0.467L24.244,8.958z"/>
<path fill="#231F20" d="M9.631,11.358c0.055-0.022,0.127-0.043,0.219-0.062c0.168-0.111,0.375-0.245,0.62-0.4
	c0.049-0.044,0.11-0.107,0.184-0.195c0.083-0.135,0.155-0.284,0.218-0.448c0.023-0.021,0.042-0.031,0.055-0.031
	c0.026-0.063,0.039-0.107,0.039-0.13c0.063-0.071,0.11-0.123,0.145-0.157c0.023-0.099,0.034-0.179,0.034-0.244
	c0.024-0.018,0.042-0.028,0.056-0.03c0.054-0.285,0.097-0.5,0.129-0.641c0-0.297-0.013-0.554-0.035-0.771
	c-0.061-0.121-0.11-0.201-0.149-0.239c-0.022-0.098-0.034-0.16-0.034-0.192c-0.034-0.03-0.082-0.075-0.146-0.137
	c-0.064-0.063-0.113-0.108-0.146-0.137c-0.119,0-0.297,0.021-0.53,0.064c-0.146,0.099-0.226,0.152-0.237,0.161
	c-0.159,0.178-0.28,0.313-0.363,0.4c-0.053,0.183-0.084,0.316-0.094,0.4C9.434,8.75,9.313,8.883,9.229,8.972
	c-0.025,0.104-0.039,0.185-0.039,0.24L9.101,9.29C9.09,9.348,9.081,9.403,9.073,9.458L9.046,9.611
	c-0.052,0.117-0.083,0.196-0.094,0.24v0.963c0.032,0.068,0.056,0.138,0.075,0.209c0.024,0.025,0.079,0.063,0.162,0.113
	c0.014,0.032,0.021,0.074,0.021,0.126c0.036,0.012,0.084,0.017,0.144,0.017c0.058,0.034,0.101,0.062,0.129,0.079H9.631
	 M9.518,10.939c-0.025-0.021-0.063-0.065-0.108-0.129c0-0.012-0.015-0.05-0.04-0.113v-0.64c0-0.054,0.013-0.134,0.04-0.239
	c0.036-0.093,0.065-0.162,0.09-0.208c0.008,0,0.025-0.01,0.055-0.031c0-0.137,0.011-0.313,0.035-0.528
	c0.037-0.155,0.068-0.273,0.095-0.354c0.061-0.084,0.108-0.138,0.146-0.16c0.016-0.065,0.047-0.146,0.095-0.239l0.177-0.178
	c0.063-0.062,0.125-0.125,0.188-0.19c0.102-0.014,0.201-0.035,0.295-0.063h0.24c0.015,0.038,0.047,0.087,0.094,0.145
	c0.016,0.073,0.037,0.145,0.063,0.219l0.083,0.229v0.674c-0.023,0.164-0.066,0.339-0.13,0.525c-0.01,0.012-0.028,0.038-0.055,0.078
	c0,0.034-0.012,0.101-0.035,0.196c-0.021,0.015-0.04,0.031-0.056,0.047c0,0.023-0.014,0.075-0.039,0.157
	c-0.063,0.109-0.111,0.175-0.146,0.195c0,0.014-0.012,0.056-0.035,0.127c-0.127,0.141-0.219,0.248-0.279,0.32l-0.44,0.287
	c-0.05,0-0.142,0.01-0.275,0.031C9.547,11.033,9.529,10.98,9.518,10.939z"/>
<path fill="#231F20" d="M3.555,8.708c-0.02,0.021-0.026,0.046-0.02,0.068l0.02,0.087C3.544,8.881,3.538,8.896,3.535,8.91
	C3.532,8.926,3.531,8.936,3.531,8.94L3.515,8.976c0,0.093-0.002,0.148-0.008,0.165v0.277c0,0.013,0,0.023,0,0.034v0.365
	c0,0.011,0,0.028,0,0.052v0.547c0.019,0.034,0.029,0.061,0.029,0.077l0.019,0.044v0.034c0,0.013-0.004,0.021-0.01,0.026v0.027
	c-0.007,0.027-0.01,0.049-0.01,0.06c0,0.035,0.007,0.069,0.02,0.104l-0.02,0.104c0,0.018,0.007,0.038,0.02,0.061v0.018l-0.021,0.035
	c-0.022,0.011-0.043,0.043-0.064,0.095l-0.128,0.061c-0.008,0-0.033-0.02-0.075-0.061v-0.112c0-0.018,0-0.035,0-0.052
	c0-0.018,0.006-0.194,0.021-0.53c0-0.011,0.007-0.031,0.021-0.06c-0.019-0.081-0.026-0.263-0.024-0.543
	c0.003-0.281,0-0.43-0.006-0.448C3.27,9.339,3.267,9.327,3.267,9.321c0-0.035,0-0.087,0-0.155c0-0.069,0-0.119,0-0.148
	c0-0.167-0.037-0.298-0.108-0.39L3.03,8.609C2.997,8.615,2.884,8.717,2.694,8.912C2.667,9.006,2.628,9.086,2.575,9.155v0.043
	c-0.033,0.07-0.069,0.156-0.109,0.261l-0.02,0.043v0.077C2.433,9.597,2.426,9.663,2.426,9.778L2.387,9.856
	c-0.033,0.023-0.05,0.078-0.05,0.164l-0.128,0.243v0.034c-0.1,0.128-0.238,0.32-0.415,0.581l-0.089,0.033
	c-0.021-0.005-0.053-0.031-0.1-0.077v-0.026c-0.007-0.011-0.01-0.021-0.01-0.026l-0.01-0.025v-0.078
	c0.013-0.022,0.02-0.054,0.02-0.095l0.02-0.034v-0.13c0.013-0.019,0.02-0.053,0.02-0.104c-0.006-0.012-0.006-0.02,0-0.025
	l-0.01-0.035c-0.006-0.023-0.01-0.037-0.01-0.043c0.082-0.277,0.119-0.428,0.113-0.45C1.729,9.751,1.719,9.732,1.704,9.71
	l0.034-0.131c-0.009-0.011-0.02-0.027-0.034-0.052c0.021-0.219,0.034-0.378,0.034-0.476c0-0.226-0.041-0.41-0.122-0.554
	C1.603,8.48,1.582,8.469,1.555,8.464L1.454,8.507C1.427,8.552,1.393,8.618,1.353,8.704C1.116,9.229,0.991,9.563,0.978,9.708
	c-0.007,0.011-0.01,0.02-0.01,0.024L0.947,9.768V9.88C0.94,9.897,0.937,9.94,0.937,10.01c-0.019,0.081-0.049,0.192-0.088,0.337
	c0,0.006-0.025,0.069-0.078,0.189c-0.025,0.081-0.036,0.147-0.029,0.199c-0.004,0.011-0.007,0.023-0.007,0.034v0.018
	c0,0.007-0.004,0.012-0.01,0.018l-0.189,0.483l-0.04,0.009c-0.015-0.005-0.03-0.014-0.05-0.021c-0.021-0.009-0.03-0.024-0.03-0.048
	v-0.76c0-0.005,0-0.011,0-0.018v-0.026c-0.005-0.011-0.008-0.022-0.01-0.034c-0.002-0.011-0.009-0.028-0.018-0.051
	c0.019-0.208,0.027-0.314,0.027-0.32S0.392,9.708,0.346,9.103c0-0.011,0.008-0.028,0.023-0.051V9.033L0.346,8.705
	c0-0.075,0-0.163,0-0.263c0-0.058,0-0.143,0-0.254s0-0.193,0-0.245c0-0.191,0.037-0.347,0.111-0.464c0.012,0,0.027,0,0.047,0
	c0.03,0,0.058,0.027,0.083,0.079v0.896c-0.01,0.013-0.021,0.03-0.03,0.054c0.014,0.035,0.017,0.055,0.01,0.061L0.587,8.7v0.566
	c0.02,0.035,0.06,0.073,0.119,0.114c0.026-0.006,0.047-0.013,0.061-0.018c0.213-0.298,0.313-0.516,0.3-0.653
	C1.08,8.698,1.087,8.681,1.087,8.658c0.007-0.006,0.014-0.018,0.02-0.034c0.04-0.023,0.07-0.091,0.091-0.202
	c0.02-0.112,0.032-0.168,0.041-0.168l0.009-0.009c0-0.006,0.007-0.018,0.021-0.034l0.029-0.129c0.027-0.068,0.067-0.163,0.12-0.284
	V7.737C1.45,7.681,1.483,7.623,1.52,7.565c0.036-0.057,0.094-0.086,0.172-0.086L1.77,7.506c0.072,0.085,0.105,0.143,0.099,0.171
	c0.02,0.022,0.025,0.043,0.02,0.06C1.914,7.765,1.95,7.987,1.996,8.403L1.967,8.496l0.03,0.191C1.987,8.699,1.972,8.72,1.952,8.749
	c0.052,0.058,0.079,0.192,0.079,0.406L2.12,9.198c0.053-0.017,0.139-0.109,0.257-0.276c0.007-0.029,0.027-0.064,0.06-0.104
	l0.021-0.009c0.006-0.005,0.013-0.011,0.02-0.017l0.118-0.146c0.007-0.012,0.01-0.021,0.01-0.027C2.704,8.451,2.8,8.33,2.892,8.256
	c-0.005-0.006-0.005-0.01,0-0.01l0.011-0.018c0.006-0.011,0.014-0.024,0.023-0.039c0.01-0.014,0.121-0.099,0.332-0.255
	c0.021-0.005,0.036-0.011,0.05-0.017c0.014-0.007,0.043-0.01,0.089-0.01l0.069,0.035C3.538,8.11,3.575,8.2,3.575,8.213L3.555,8.386
	l0.021,0.052L3.555,8.708"/>
<path fill="#231F20" d="M5.046,10.979c-0.092-0.056-0.152-0.104-0.178-0.144c-0.152-0.221-0.268-0.382-0.347-0.483
	c-0.007-0.05-0.014-0.095-0.02-0.135c-0.046-0.135-0.083-0.235-0.109-0.297c0-0.045-0.003-0.085-0.01-0.119V9.76
	c-0.007-0.018-0.01-0.073-0.01-0.169c0-0.107,0.022-0.224,0.07-0.349L4.66,9.065c0.053-0.034,0.093-0.054,0.119-0.06
	C4.805,9,4.855,8.964,4.932,8.896s0.131-0.107,0.164-0.119C5.307,8.613,5.465,8.44,5.57,8.26c0.054-0.169,0.054-0.299,0-0.39
	C5.563,7.848,5.557,7.834,5.55,7.827L5.303,7.633H4.967c-0.013,0-0.031,0.007-0.054,0.021C4.89,7.669,4.857,7.676,4.819,7.676
	C4.746,7.703,4.71,7.724,4.71,7.734C4.571,7.837,4.472,7.919,4.413,7.98C4.38,8.043,4.355,8.088,4.344,8.116
	C4.316,8.213,4.277,8.306,4.225,8.396v0.076C4.159,8.63,4.116,8.754,4.096,8.845L3.701,9.261v0.075
	c0.025,0.033,0.087,0.057,0.183,0.067C3.979,9.416,4.041,9.43,4.066,9.445l0.069,0.103v0.025c0.013,0.023,0.023,0.04,0.029,0.052
	c-0.006,0.151,0.014,0.257,0.06,0.313c-0.007,0.068,0.014,0.133,0.06,0.195c-0.007,0.028,0.006,0.063,0.04,0.101
	c0,0.063,0.019,0.134,0.059,0.213c0,0.017,0.006,0.036,0.021,0.06v0.024c0.078,0.13,0.141,0.264,0.188,0.398
	c0.046,0.046,0.086,0.077,0.119,0.094c0.039,0.141,0.138,0.229,0.296,0.263c0.106-0.022,0.169-0.058,0.188-0.102
	c0,0,0.306-0.12,0.421-0.274l0.039-0.075l-0.091-0.077l-0.18,0.011l-0.038,0.109l-0.142,0.076L5.046,10.979 M5.254,8.336
	c-0.04,0.028-0.073,0.057-0.099,0.086c-0.054,0.08-0.106,0.134-0.159,0.163C4.832,8.658,4.703,8.715,4.61,8.756H4.571L4.521,8.713
	L4.502,8.609c-0.021-0.022-0.027-0.04-0.021-0.051L4.66,8.113C4.673,8.085,4.715,8.04,4.784,7.977
	c0.068-0.064,0.12-0.095,0.152-0.095h0.188l0.129,0.061l0.07,0.119C5.324,8.067,5.3,8.159,5.254,8.336z"/>
<path fill="#231F20" d="M7.224,6.989c-0.078,0.01-0.177,0.042-0.299,0.1C6.776,7.151,6.695,7.211,6.681,7.262v0.025
	C6.666,7.381,6.656,7.418,6.653,7.4L6.646,7.443v0.174c-0.002,0.017-0.002,0.039,0,0.068c0,0.035,0,0.058,0,0.07
	c0,0.057-0.012,0.114-0.033,0.172l0.033,0.096C6.639,8.041,6.628,8.066,6.613,8.102v0.034C6.618,8.153,6.63,8.188,6.646,8.239v0.053
	C6.628,8.314,6.618,8.387,6.618,8.508c0,0.023-0.015,0.049-0.043,0.078l0.038,0.492c0,0.013,0,0.026,0,0.043V9.14
	c-0.002,0.005-0.002,0.009,0,0.009c0,0.075,0,0.207,0,0.397c0,0.167,0,0.294,0,0.381l-0.024,0.91
	c-0.008,0.013-0.016,0.021-0.022,0.026v0.025c0.03,0.023,0.047,0.05,0.047,0.078c-0.027,0.035-0.055,0.106-0.08,0.217l-0.09,0.12
	c-0.015,0.006-0.031,0.012-0.051,0.018l-0.04,0.009l-0.09-0.034c-0.114-0.19-0.18-0.354-0.2-0.493
	c0.004-0.041,0.01-0.086,0.018-0.138c-0.012-0.023-0.018-0.048-0.018-0.07c0.014-0.04,0.053-0.083,0.118-0.129l0.039-0.019
	c0.039-0.027,0.072-0.063,0.099-0.103v-0.019c0.006-0.012,0.013-0.025,0.018-0.043l0.019-0.235V9.719l0.022-0.034
	c0-0.035-0.004-0.085-0.011-0.152c-0.007-0.065-0.012-0.115-0.012-0.15V9.321l0.022-0.035V8.751l0.011-0.019
	c-0.016-0.092-0.016-0.236,0-0.432L6.377,8.249C6.435,8.18,6.45,8.026,6.424,7.791L6.373,7.376c-0.007-0.013-0.017-0.027-0.03-0.044
	l-0.04-0.018c-0.02,0-0.053-0.003-0.101-0.009C6.135,7.3,6.036,7.33,5.905,7.396c-0.132,0.067-0.052,0.032-0.092,0.09l-0.2,0.018
	L5.537,7.469C5.558,7.37,5.622,7.304,5.622,7.27l0.05-0.06C5.759,7.162,5.881,7.088,6.04,6.983c0.028,0-0.041,0.06,0.125-0.016
	C6.284,6.909,6.36,6.835,6.394,6.741c0.021-0.052,0.03-0.155,0.03-0.312c0-0.069-0.012-0.172-0.034-0.309
	C6.366,5.985,6.354,5.887,6.354,5.822c0-0.087,0.013-0.168,0.037-0.243l0.131-0.077C6.573,5.514,6.61,5.546,6.635,5.598
	C6.622,5.776,6.638,6.046,6.681,6.404c0,0.018,0,0.038,0,0.062c0,0.138,0.044,0.233,0.129,0.286l0.229-0.019
	c0.059-0.028,0.132-0.045,0.218-0.051C7.27,6.677,7.29,6.668,7.316,6.656l0.188,0.069l0.069,0.052l0.02,0.035v0.043
	c0,0.052-0.042,0.085-0.126,0.099C7.383,6.97,7.302,6.981,7.224,6.989"/>
<path fill="#231F20" d="M8.913,7.781C8.669,7.879,8.589,7.987,8.563,8.011C8.457,8.108,8.354,8.203,8.256,8.296
	C8.117,8.422,8.002,8.5,7.909,8.528L7.83,8.667v0.068C7.813,8.776,7.805,8.808,7.805,8.831c0,0.206,0.018,0.516,0.052,0.927
	c0.034,0.412,0.052,0.722,0.052,0.929c0,0.253-0.037,0.443-0.113,0.569l-0.041,0.017H7.661c-0.048-0.021-0.072-0.049-0.072-0.077
	c0-0.076-0.007-0.188-0.021-0.338c-0.015-0.149-0.021-0.263-0.021-0.337c0-0.035,0.008-0.089,0.025-0.161
	c0.018-0.071,0.025-0.125,0.025-0.16V9.611C7.571,9.535,7.542,9.476,7.513,9.43V9.368C7.52,9.357,7.535,9.335,7.556,9.3
	c0-0.023,0.009-0.071,0.027-0.143C7.6,9.085,7.605,9.041,7.599,9.022L7.513,8.866V8.659C7.468,8.566,7.445,8.464,7.445,8.348
	c0-0.115,0.022-0.251,0.067-0.407L7.474,7.871c0.014-0.046,0.043-0.104,0.089-0.173l0.119-0.017l0.1,0.044
	c0.026,0.046,0.078,0.105,0.158,0.176c0.243-0.103,0.552-0.304,1.033-0.509c0.053,0.006,0.125,0.029,0.217,0.069
	c0,0.012,0.008,0.031,0.021,0.06v0.027l0.068,0.325L9.245,7.931H9.154L9.046,7.901L9.005,7.815L8.913,7.781"/>
<path fill="#E11737" d="M9.529,10.937c-0.026-0.023-0.063-0.066-0.11-0.13c0-0.011-0.012-0.049-0.039-0.113v-0.639
	C9.38,10,9.393,9.92,9.419,9.815C9.456,9.722,9.486,9.652,9.51,9.606c0.008,0,0.026-0.01,0.055-0.031
	c0-0.137,0.012-0.313,0.035-0.528c0.037-0.156,0.068-0.272,0.096-0.353c0.06-0.085,0.107-0.138,0.145-0.161
	c0.016-0.065,0.047-0.146,0.095-0.239l0.178-0.178c0.062-0.062,0.125-0.125,0.188-0.19c0.104-0.015,0.2-0.034,0.295-0.063h0.24
	c0.016,0.039,0.047,0.087,0.094,0.145c0.017,0.073,0.037,0.145,0.063,0.218l0.083,0.23v0.673c-0.024,0.164-0.067,0.34-0.13,0.525
	c-0.012,0.012-0.029,0.038-0.056,0.078c0,0.035-0.012,0.101-0.035,0.196c-0.021,0.015-0.04,0.031-0.056,0.047
	c0,0.023-0.013,0.076-0.039,0.158c-0.063,0.108-0.111,0.174-0.145,0.193c0,0.015-0.013,0.057-0.036,0.127
	c-0.126,0.142-0.218,0.248-0.279,0.321L9.86,11.063c-0.051,0-0.143,0.011-0.275,0.031C9.558,11.029,9.54,10.978,9.529,10.937"/>
<path fill="#FFFFFF" d="M18.064,13.742c-0.065-0.055-0.157-0.159-0.275-0.314c0-0.028-0.034-0.119-0.101-0.274v-1.551
	c0-0.134,0.033-0.327,0.101-0.581c0.092-0.227,0.168-0.396,0.227-0.507c0.021,0,0.066-0.024,0.139-0.074
	c0-0.332,0.029-0.761,0.089-1.286c0.092-0.377,0.172-0.661,0.237-0.854c0.152-0.204,0.273-0.335,0.366-0.391
	c0.04-0.159,0.118-0.353,0.237-0.58l0.445-0.432c0.157-0.148,0.315-0.304,0.475-0.465c0.257-0.033,0.504-0.082,0.741-0.149h0.604
	c0.039,0.095,0.118,0.211,0.237,0.35c0.04,0.177,0.092,0.353,0.158,0.529l0.208,0.558v1.634c-0.061,0.398-0.168,0.825-0.326,1.278
	c-0.027,0.026-0.073,0.091-0.139,0.19c0,0.082-0.03,0.24-0.089,0.474c-0.054,0.038-0.1,0.077-0.139,0.114
	c0,0.057-0.033,0.184-0.099,0.383c-0.158,0.266-0.281,0.423-0.367,0.473c0,0.033-0.03,0.136-0.089,0.307
	c-0.316,0.344-0.549,0.604-0.701,0.78l-1.108,0.697c-0.126,0-0.355,0.024-0.691,0.075C18.138,13.97,18.091,13.843,18.064,13.742"/>
<path fill="#FFFFFF" d="M5.263,8.339c-0.04,0.028-0.073,0.058-0.099,0.087C5.111,8.505,5.058,8.559,5.005,8.588
	C4.841,8.661,4.712,8.719,4.62,8.759H4.58L4.531,8.716L4.511,8.613c-0.02-0.022-0.026-0.04-0.02-0.052L4.67,8.116
	c0.012-0.027,0.054-0.073,0.123-0.137c0.069-0.063,0.12-0.094,0.154-0.094h0.187l0.129,0.06l0.069,0.12
	C5.332,8.071,5.309,8.162,5.263,8.339"/>
<path fill="#E11737" d="M24.244,8.999c0.023-0.572,0.059-1.148,0.105-1.731c0.25-0.178,0.434-0.321,0.553-0.432
	c0.241-0.052,0.427-0.109,0.551-0.176c0.433-0.228,0.692-0.368,0.782-0.425c0.611-0.102,1.114-0.204,1.513-0.306
	c0.143,0,0.601,0.028,1.373,0.084l0.035,0.023c0.018,0.023,0.039,0.042,0.063,0.06c0,0.316,0.017,0.561,0.049,0.732
	c-0.333,0.406-0.562,0.736-0.686,0.992c-0.167,0.15-0.291,0.265-0.374,0.341c-0.227,0.106-0.348,0.164-0.366,0.176l-0.089,0.167
	c-0.077,0.071-0.202,0.158-0.374,0.258c0,0.012-0.03,0.07-0.089,0.175c-0.684,0.461-1.343,0.892-1.979,1.292
	c-0.617,0.289-1.001,0.444-1.149,0.467L24.244,8.999"/>
<polyline fill="#FFFFFF" points="34.15,1.083 35.807,0.438 37.958,2.201 38.178,4.193 37.235,5.101 37.164,2.571 34.15,1.083 "/>
<polyline fill="#FFFFFF" points="32.256,3.444 34.44,4 35.199,6.679 35.728,7.277 35.745,4.062 33.065,2.536 32.282,2.536 
	32.256,3.444 "/>
<polyline fill="#FFFFFF" points="30.088,4.404 29.541,4.837 31.523,6.449 31.286,8.617 32.529,7.719 32.556,5.4 30.088,4.404 "/>
<polyline fill="#E11737" points="29.321,5.04 31.736,6.6 31.886,8.089 33.622,7.728 32.563,6.248 30.916,4.827 29.418,4.811 
	29.321,5.04 "/>
<polyline fill="#E11737" points="31.753,2.589 31.683,2.95 33.578,4.555 34.415,4.783 34.635,5.542 35.922,6.635 35.516,3.921 
	31.753,2.589 "/>
<g>
	<defs>
		<rect id="SVGID_1_" width="38.291" height="20.628"/>
	</defs>
	<clipPath id="SVGID_2_">
		<use xlink:href="#SVGID_1_"  overflow="visible"/>
	</clipPath>
	<polyline clip-path="url(#SVGID_2_)" fill="#E11737" points="34.864,0.985 35.807,0.905 37.597,0.95 38.046,3.611 37.781,4.404 
		37.226,4.871 36.627,3.946 37.146,2.615 35.755,2.404 34.864,0.985 	"/>
	<path clip-path="url(#SVGID_2_)" fill="#034EA2" d="M31.908,5.88c-0.143,0.069-0.27,0.183-0.407,0.264
		c-0.009,0.009-0.007,0.035,0.004,0.041c0.012,0.02,0.035,0.013,0.053,0.023c0.029-0.021-0.016-0.039,0-0.062
		c0.122-0.096,0.259-0.179,0.394-0.265h0.007c-0.072,0.104-0.17,0.191-0.251,0.297c-0.122,0.164-0.313,0.274-0.439,0.433
		c-0.063-0.036-0.116-0.101-0.174-0.146c-0.013-0.039-0.081-0.069-0.047-0.107c0.067-0.045,0.14-0.072,0.208-0.122
		c0.032-0.005,0.066-0.02,0.083-0.052c0.064-0.006,0.107-0.061,0.17-0.077c0.095-0.067,0.205-0.104,0.294-0.181
		C31.84,5.918,31.867,5.882,31.908,5.88 M32.578,5.614c0.045,0.045,0.094,0.079,0.144,0.116c0.023,0.002,0.034,0.022,0.06,0.022
		C32.882,5.813,33,5.843,33.12,5.858c0.059,0.03,0.153-0.021,0.176,0.068l0.023,0.007c0.056,0.043,0.104,0.081,0.11,0.156
		c-0.021,0.095-0.098,0.179-0.131,0.272c-0.032,0.099-0.116,0.161-0.15,0.259c-0.146,0.253-0.26,0.533-0.444,0.769
		c-0.12,0.159-0.225,0.323-0.323,0.495c-0.032,0.086-0.055,0.192-0.084,0.288c-0.034,0.004-0.036,0.099-0.079,0.044
		c-0.097-0.115-0.191-0.246-0.208-0.397c-0.014-0.032-0.014-0.057-0.014-0.095c0.016-0.123,0.043-0.24,0.093-0.349
		c0.062-0.186,0.122-0.373,0.201-0.554c0.05-0.23,0.206-0.471,0.088-0.719c-0.063-0.107-0.113-0.206-0.221-0.28
		c-0.023-0.017-0.053-0.042-0.058-0.07c0.079-0.045,0.111-0.113,0.192-0.153c0.034-0.054,0.093-0.105,0.152-0.136
		C32.485,5.512,32.534,5.567,32.578,5.614z M33.059,5.007c-0.063,0.08-0.114,0.153-0.148,0.244c-0.028-0.021-0.05-0.059-0.073-0.083
		c0.079-0.058,0.122-0.118,0.2-0.17C33.045,4.998,33.057,4.995,33.059,5.007z M32.994,4.992c-0.06,0.051-0.118,0.101-0.185,0.142
		c-0.024-0.025-0.052-0.062-0.041-0.103c0.058-0.022,0.107-0.039,0.172-0.045L32.994,4.992z M31.763,4.591
		c0.142,0.02,0.281,0.034,0.418,0.075c0.048,0,0.093-0.046,0.14-0.013c0.054,0.14,0.069,0.287,0.074,0.438
		c0.004,0.081-0.014,0.144,0.007,0.214c-0.023,0.059,0.05,0.116-0.005,0.147c-0.102,0.1-0.222,0.177-0.314,0.278
		c-0.095-0.068-0.188-0.143-0.287-0.199c-0.179-0.105-0.341-0.234-0.556-0.241c-0.285-0.079-0.608-0.051-0.907-0.062
		C30.176,5.246,30,5.261,29.854,5.267c-0.016-0.005-0.054,0-0.038-0.029c0.127-0.108,0.302-0.138,0.441-0.229
		c0.056-0.006,0.095-0.058,0.151-0.062c0.088-0.042,0.186-0.069,0.273-0.119c0.156-0.065,0.312-0.138,0.478-0.186
		c0.023,0.004,0.036-0.02,0.056-0.027c0.116-0.014,0.231-0.041,0.348-0.043C31.628,4.574,31.709,4.555,31.763,4.591z M33.421,4.868
		c-0.007-0.02-0.012-0.043-0.037-0.052c-0.02,0.003-0.04,0.02-0.035,0.041c-0.012-0.036-0.055-0.048-0.06-0.086
		c0.075-0.079,0.149-0.127,0.224-0.208c0.034,0.002,0.048-0.043,0.073-0.059c0.047-0.007,0.063-0.07,0.113-0.074
		c0.155-0.13,0.322-0.202,0.487-0.311C33.934,4.371,33.674,4.595,33.421,4.868z M34.214,4.06v0.009
		c-0.21,0.133-0.432,0.242-0.631,0.398c-0.113,0.088-0.205,0.18-0.314,0.275c-0.016-0.021-0.033-0.05-0.04-0.082
		c-0.022-0.026-0.076-0.045-0.07-0.09c0.043-0.036,0.093-0.069,0.145-0.088c0.12-0.082,0.262-0.138,0.384-0.215
		c0.104-0.05,0.21-0.105,0.315-0.147c0.068-0.031,0.127-0.084,0.21-0.076L34.214,4.06z M34.845,3.674
		c0.129,0.132,0.271,0.259,0.452,0.317c0.17,0.025,0.36-0.047,0.499,0.062c0.076,0.057,0.173,0.104,0.179,0.212
		c0.028,0.048,0,0.1,0.011,0.152c0.015,0.031-0.015,0.05-0.013,0.078C35.91,4.752,35.822,5.003,35.7,5.23
		c-0.071,0.215-0.135,0.435-0.135,0.671c-0.028,0.088-0.02,0.182-0.035,0.277c0,0.09-0.022,0.157-0.057,0.234
		c-0.075-0.113-0.161-0.226-0.229-0.354c-0.129-0.295-0.179-0.62-0.273-0.928c-0.048-0.177-0.095-0.353-0.166-0.522
		c-0.02-0.093-0.074-0.174-0.09-0.269c-0.054-0.091-0.088-0.199-0.154-0.28l-0.083-0.138c0.108-0.104,0.22-0.192,0.327-0.296
		C34.838,3.623,34.827,3.659,34.845,3.674z M36.685,0.332c-0.099-0.087-0.232-0.03-0.346-0.004c-0.038,0.006-0.07,0.028-0.106,0.041
		c-0.037,0.002-0.061,0.025-0.097,0.027c-0.024,0.029-0.075,0.007-0.095,0.036c-0.07-0.014-0.086,0.062-0.154,0.052
		c-0.088,0.036-0.183,0.084-0.274,0.111c-0.026,0.012-0.051,0.036-0.08,0.032c-0.063,0.043-0.156,0.069-0.229,0.107
		c-0.095,0.041-0.199,0.088-0.299,0.12c-0.038,0.032-0.112,0.032-0.162,0.05c-0.181,0.047-0.376,0.106-0.583,0.081l-0.016,0.009
		c-0.017,0.017,0,0.037,0.006,0.049c0.043,0.076,0.15,0.063,0.209,0.124c0.083-0.025,0.119,0.059,0.201,0.029
		c0.049,0.024,0.119,0.002,0.162,0.034c0.098-0.007,0.179,0.033,0.271,0.029c0.051,0.034,0.11-0.009,0.162,0.026
		c0.064,0.012,0.139,0.048,0.211,0.034l0.021,0.016c0.045-0.016,0.067,0.046,0.11,0.016c0.055,0.037,0.131,0.021,0.179,0.066
		c0.04-0.012,0.067,0.031,0.102,0.038c0.038,0.016,0.068,0.036,0.104,0.048c0.039,0.031,0.103,0.036,0.135,0.081
		c0.069,0.033,0.135,0.071,0.205,0.122C36.387,1.73,36.44,1.782,36.5,1.812c0.061,0.046,0.127,0.082,0.181,0.134
		c-0.009,0.021-0.029,0.025-0.045,0.036c-0.03,0.009-0.057-0.014-0.089-0.016c-0.172-0.09-0.386-0.034-0.574-0.022
		C35.749,2,35.53,2.1,35.36,2.253c-0.025,0.033-0.022,0.086-0.014,0.127c0.034,0.036,0.045,0.112,0.108,0.112
		c0.046,0.068,0.082-0.031,0.136,0c0.014-0.031,0.079-0.046,0.057-0.099c-0.014-0.03-0.031-0.055-0.063-0.075
		c-0.013-0.007-0.031,0-0.038,0.011c-0.016,0.053,0.045,0.041,0.066,0.066c0,0.022-0.015,0.043-0.03,0.051
		c-0.045-0.004-0.115,0.041-0.146-0.023c-0.02-0.045-0.045-0.107-0.004-0.147c0.038-0.007,0.038-0.063,0.083-0.063
		c0.063-0.066,0.158-0.064,0.217-0.123c0.062,0,0.104-0.055,0.169-0.057c0.043,0.015,0.071-0.038,0.119-0.016
		c0.053-0.025,0.113-0.007,0.167-0.015c0.04,0.013,0.091,0.023,0.134,0.028c0.018,0.014,0.061-0.005,0.061,0.029
		c-0.031,0.022-0.074,0.021-0.108,0.039c-0.164,0.031-0.321,0.09-0.481,0.137c-0.016,0.01-0.047,0.015-0.041,0.041
		c-0.004,0.019,0.014,0.034,0.032,0.027c0.061-0.062,0.146-0.04,0.215-0.088C36.022,2.2,36.05,2.226,36.07,2.2
		c0.061,0.008,0.132-0.061,0.186-0.004c-0.285,0.131-0.52,0.319-0.778,0.493c-0.043,0.038-0.107,0.056-0.14,0.104
		c0.034,0.043,0.065,0.076,0.099,0.109c0.008,0.048,0.062,0.046,0.072,0.089l-0.072,0.063c-0.155,0.045-0.307,0.113-0.454,0.176
		c-0.005,0.034,0.003,0.06,0.036,0.079c0.019,0.011,0.055,0.03,0.062,0.052c-0.079,0.063-0.167,0.137-0.247,0.199
		c-0.021-0.008-0.013-0.036-0.029-0.049c-0.067-0.168-0.105-0.348-0.137-0.532c-0.037-0.173-0.073-0.35-0.159-0.504
		c-0.105-0.12-0.262-0.156-0.421-0.17c-0.232-0.011-0.442,0.026-0.65,0.098c-0.254,0.057-0.484,0.172-0.736,0.22
		c-0.152,0.061-0.315,0.1-0.47,0.155c-0.063,0.043,0.037,0.066,0.051,0.113c0.097,0.02,0.17,0.104,0.275,0.104
		c0.039,0.023,0.081,0.038,0.12,0.051c0.077-0.014,0.144,0.009,0.208,0.036c0.036-0.004,0.074,0.012,0.109,0.024
		c0.115,0.009,0.209,0.063,0.311,0.1c0.233,0.131,0.476,0.222,0.717,0.335c0.127,0.073,0.24,0.162,0.335,0.269
		c0.016,0.012,0.003,0.036,0.021,0.043c-0.007,0.032,0.034,0.018,0.036,0.043l-0.131,0.058c-0.104-0.099-0.225-0.169-0.371-0.177
		c-0.289-0.017-0.624,0.001-0.821,0.243c-0.083,0.059-0.087,0.156-0.099,0.253c0.007,0.06,0.082,0.021,0.105,0.06
		c0.032-0.005,0.07,0,0.09-0.029c0.008-0.041,0.035-0.093,0-0.131c-0.023-0.021-0.053-0.007-0.075,0.011
		c-0.005,0.032,0.045,0.018,0.064,0.034c0.011,0.026-0.006,0.054-0.02,0.076c-0.053,0.029-0.091-0.024-0.126-0.042
		c0.008-0.084,0.066-0.154,0.118-0.214c0.03-0.037,0.073-0.047,0.103-0.084c0.086-0.049,0.181-0.075,0.274-0.109
		c0.03-0.014,0.066,0.011,0.092-0.021c0.095,0.002,0.185-0.005,0.278-0.007c0.05,0.017,0.1,0.002,0.146,0.029
		c0.068,0.009,0.136,0.054,0.186,0.102c0.007,0.01,0.017,0.025,0.002,0.031c-0.31,0.023-0.564,0.152-0.843,0.243
		c-0.024,0.013-0.057,0.019-0.048,0.058c0.005,0.014,0.021,0.007,0.032,0.01c0.072-0.049,0.158-0.062,0.229-0.106
		c0.111-0.011,0.19-0.102,0.304-0.104c0.036-0.002,0.078-0.023,0.11-0.007c-0.026,0.015-0.052,0.027-0.081,0.037
		c-0.264,0.122-0.538,0.252-0.794,0.411c-0.028,0.005-0.052,0.018-0.074,0.034c-0.018,0.07,0.065,0.063,0.1,0.09
		c0.05,0.025,0.059,0.084,0.074,0.125c-0.048,0.036-0.081,0.111-0.157,0.104c-0.142,0.043-0.299,0.067-0.436,0.125
		c-0.009,0.013-0.011,0.04,0.006,0.052c0.045,0.032,0.102,0.075,0.129,0.118C32.677,5.237,32.57,5.325,32.466,5.4
		c-0.013-0.022-0.015-0.05-0.021-0.075c0.002-0.26-0.01-0.492-0.082-0.717c-0.086-0.059-0.192-0.086-0.301-0.088
		c-0.153-0.031-0.301-0.058-0.459-0.038l-0.016-0.009v0.006c-0.093,0.011-0.176,0.052-0.266,0.063s-0.166,0.066-0.257,0.081
		c-0.17,0.081-0.353,0.131-0.52,0.221c-0.274,0.129-0.561,0.222-0.821,0.385c-0.016,0.036,0.025,0.062,0.043,0.088
		c0.027,0.016,0.056,0.009,0.084,0.007c0.043,0.031,0.09-0.009,0.134,0c0.115-0.041,0.255-0.029,0.378-0.059
		c0.052,0.011,0.101-0.003,0.15,0.015c0.063-0.026,0.139-0.002,0.21-0.008c0.161-0.005,0.317,0.006,0.472,0.04
		c0.047,0.034,0.107,0.02,0.161,0.027c0.064-0.002,0.094,0.039,0.146,0.065c0.077,0.025,0.142,0.062,0.204,0.115
		c0.109,0.054,0.221,0.125,0.312,0.211L32.01,5.736c-0.342-0.092-0.708-0.069-1.021,0.075c-0.058,0.045-0.132,0.106-0.104,0.194
		c0.036,0.065,0.109,0.11,0.188,0.104l0.069-0.051c0.012-0.012,0.038-0.003,0.04-0.021c-0.008-0.026-0.006-0.064-0.024-0.086
		c-0.014-0.028-0.033-0.052-0.067-0.047c-0.021,0.009-0.055,0.009-0.05,0.04c0.022,0.037,0.036-0.014,0.061-0.011
		c0.027,0.025,0.063,0.054,0.053,0.1c-0.039,0.017-0.075,0.06-0.122,0.038c-0.034,0.007-0.053-0.024-0.079-0.036
		c-0.019-0.026-0.023-0.057-0.017-0.091c0-0.05,0.043-0.058,0.068-0.099c0.147-0.097,0.332-0.13,0.504-0.136
		c0.027-0.01,0.052,0.016,0.072-0.002c0.093-0.002,0.177,0.014,0.265,0.022c0.043,0.019,0.124-0.007,0.129,0.058
		c-0.075,0.021-0.153,0.035-0.23,0.053c-0.158,0.041-0.328,0.057-0.473,0.134c-0.012,0.011-0.007,0.027-0.003,0.045
		c0.032,0.022,0.041-0.011,0.062-0.03c0.131-0.047,0.267-0.097,0.414-0.095c0.009-0.002,0.02,0.003,0.02,0.014
		c-0.183,0.118-0.368,0.201-0.558,0.313c-0.079,0.048-0.172,0.081-0.24,0.141c0.016,0.024,0.028,0.054,0.055,0.065
		c0.05,0.077,0.141,0.135,0.199,0.208l0.038,0.002c-0.002,0.016,0.004,0.034,0.021,0.037c0.022-0.011,0.026-0.032,0.037-0.048
		c0.073-0.077,0.154-0.17,0.236-0.237c0.065-0.044,0.111-0.118,0.172-0.161c0.055-0.107,0.156-0.177,0.214-0.274
		c0.032-0.022,0.035-0.064,0.07-0.066c-0.013,0.107-0.101,0.18-0.151,0.274c-0.039,0.077-0.172,0.132-0.143,0.235
		c0.066,0.003,0.044-0.092,0.109-0.108c0.007-0.037,0.054-0.052,0.069-0.088c0.015-0.02,0.025-0.048,0.043-0.061
		c0.027-0.064,0.075-0.109,0.099-0.172c0.013-0.009,0.026-0.025,0.043-0.015c0.03,0.144-0.063,0.259-0.112,0.379
		c-0.081,0.155-0.182,0.297-0.302,0.428c-0.03,0.013-0.073,0.013-0.099-0.007c-0.033-0.017-0.013-0.056-0.02-0.082
		c0.004-0.032,0.036-0.041,0.057-0.063c0.019-0.007,0.04,0,0.059,0.007c0.031,0,0.034-0.035,0.031-0.061
		c-0.031-0.017-0.08-0.027-0.112-0.003c-0.06,0.028-0.103,0.095-0.093,0.168c0.005,0.045,0.031,0.064,0.067,0.088
		c0.048,0.048,0.118,0.038,0.17,0.016c0.106-0.093,0.149-0.213,0.229-0.32c0.013-0.036,0.05-0.066,0.05-0.109
		c0.032-0.037,0.013-0.097,0.064-0.12c0.056-0.077,0.09-0.185,0.075-0.29c-0.009-0.042-0.016-0.074-0.026-0.117
		c-0.015-0.014-0.019-0.026-0.008-0.042c0.039,0.006,0.055,0.05,0.089,0.065c0.052,0.077,0.125,0.131,0.145,0.226
		c0.104,0.222-0.039,0.443-0.081,0.654c-0.017,0.022-0.01,0.054-0.034,0.072c-0.061,0.174-0.127,0.348-0.186,0.524
		c-0.063,0.116-0.081,0.252-0.084,0.396c-0.021,0.122,0.062,0.204,0.106,0.296c0.012,0.07,0.079,0.105,0.108,0.167
		c0.028,0.017,0.07,0.037,0.089,0.068c0.038,0.007,0.022-0.06,0.063-0.072c0.063-0.041,0.026-0.129,0.069-0.179
		c0.025-0.124,0.079-0.241,0.167-0.335c0.041-0.091,0.125-0.153,0.158-0.237c0.028-0.05,0.071-0.07,0.091-0.124
		c0.008-0.043,0.058-0.068,0.06-0.118c0.064-0.083,0.111-0.187,0.165-0.282c0.009-0.039,0.033-0.067,0.052-0.102
		c0.056-0.143,0.145-0.271,0.251-0.392c0.009-0.022,0.022-0.031,0.043-0.045c0.027-0.045,0.076-0.091,0.126-0.118
		c0.018-0.006,0.029-0.03,0.021-0.052c0.032-0.069-0.004-0.148-0.02-0.222l-0.085-0.099C33.4,5.87,33.409,5.812,33.35,5.798
		c-0.047-0.031-0.059,0.054-0.099,0.029c0,0.008-0.005,0.014-0.005,0.019c-0.024,0.005-0.043-0.005-0.065-0.009
		c-0.126,0.006-0.232-0.074-0.348-0.096c-0.154-0.057-0.258-0.183-0.352-0.312c0.094-0.085,0.216-0.152,0.307-0.24
		c0.038,0.014,0.063,0.057,0.092,0.093c0.009,0.032-0.007,0.063,0.011,0.088c0.015,0.006,0.025,0.01,0.036-0.002
		c0.012-0.179,0.144-0.299,0.216-0.442c0.014,0,0.024-0.015,0.029-0.023c-0.007-0.054,0.057-0.063,0.079-0.102
		c0.032,0.005,0.04,0.043,0.054,0.063c0.003,0.023,0.027,0.017,0.044,0.012c0.018,0.039-0.01,0.082,0.016,0.11
		c0.054,0.021,0.054-0.043,0.079-0.07c0.106-0.117,0.208-0.243,0.335-0.353c0.142-0.145,0.271-0.27,0.408-0.401l0.008,0.009
		c-0.046,0.114-0.073,0.223-0.152,0.319C34.02,4.6,33.967,4.694,33.947,4.801c0.01,0.016,0.018,0.041,0.043,0.041
		c0.036-0.014-0.004-0.049,0.022-0.07c0.038-0.102,0.045-0.233,0.12-0.313c0.05-0.122,0.111-0.24,0.135-0.373
		c0.017,0.007,0.037,0.02,0.043,0.04c0.012,0.057,0.019,0.095,0.021,0.151c0.013,0.139,0.052,0.27,0.002,0.404
		c-0.025,0.082-0.062,0.161-0.106,0.235c-0.061,0.138-0.213,0.25-0.361,0.29c-0.047,0-0.101,0.028-0.131-0.021
		c-0.015-0.016,0-0.034,0-0.052c0.035-0.034,0.061-0.073,0.095-0.106c0.032-0.022,0.074-0.012,0.107-0.012
		c0.021-0.016,0-0.036-0.007-0.052c-0.04-0.027-0.076,0.009-0.117,0.007c-0.048,0.048-0.076,0.102-0.131,0.146
		c-0.031,0.068,0.038,0.094,0.068,0.144c0.074,0.015,0.153-0.008,0.221-0.042c0.03-0.033,0.084-0.029,0.115-0.057
		c0.044-0.031,0.089-0.065,0.114-0.112c0.054-0.03,0.051-0.103,0.097-0.141c0.013-0.059,0.036-0.11,0.07-0.159
		c0.004-0.071,0.04-0.135,0.032-0.208c0.039-0.178,0-0.35-0.075-0.504c0.022-0.047,0.077-0.056,0.105-0.097
		c0.032,0.004,0.034,0.041,0.06,0.058c0.02,0.054,0.069,0.09,0.088,0.148c0.007,0.068,0.086,0.124,0.104,0.194
		c0.045,0.148,0.103,0.299,0.161,0.437c0.084,0.287,0.16,0.583,0.235,0.866c0.047,0.153,0.079,0.309,0.158,0.443
		c0.045,0.054,0.064,0.137,0.119,0.191c0.019,0.019,0.015,0.053,0.043,0.06c0.034,0.047,0.06,0.112,0.096,0.142
		c0.028-0.02,0.011-0.063,0.021-0.09c0.08-0.055,0.041-0.152,0.066-0.238c0.027-0.208,0.05-0.418,0.081-0.611
		c0.022-0.077,0.043-0.157,0.069-0.231c0.051-0.163,0.135-0.301,0.19-0.459c0.01-0.081,0.052-0.146,0.068-0.226
		c0.052-0.146,0.065-0.376-0.047-0.5c-0.075-0.087-0.171-0.153-0.285-0.167c-0.104-0.032-0.233,0.021-0.337-0.01L35.311,3.95
		c-0.07-0.018-0.112-0.054-0.181-0.076c-0.106-0.076-0.217-0.158-0.278-0.278c0.065-0.067,0.141-0.122,0.212-0.178
		c0.015-0.017,0.049-0.038,0.066-0.008c0.018,0.029,0.061,0.053,0.058,0.096c0.006,0.02,0.021,0.038,0.041,0.038
		c0.051-0.033,0.012-0.108,0.06-0.145c0.03-0.043,0.05-0.091,0.065-0.138c0.027-0.043,0.038-0.101,0.081-0.129
		c0.019-0.058,0.06-0.084,0.098-0.124l0.131,0.15c0.024,0.025,0.034,0.062,0.077,0.048c0.018-0.005,0.056-0.003,0.045-0.027
		c0.1-0.152,0.24-0.291,0.353-0.439c0.122-0.178,0.278-0.345,0.395-0.523l0.006,0.007c-0.016,0.122-0.079,0.226-0.124,0.339
		c-0.023,0.09-0.136,0.165-0.093,0.262c0.026-0.004,0.033-0.036,0.059-0.052c0-0.02,0.007-0.038,0.025-0.052
		c0.052-0.086,0.084-0.194,0.138-0.282c0.038-0.065,0.022-0.154,0.068-0.213c0.004,0.005,0.011,0.011,0.013,0.016
		c0,0.084,0.019,0.172,0.024,0.251c-0.02,0.163-0.028,0.323-0.116,0.459c-0.086,0.103-0.17,0.235-0.328,0.199l-0.021-0.009
		c-0.024-0.036-0.059-0.082-0.036-0.131c0.012-0.015,0.03-0.025,0.045-0.03c0.039-0.006,0.025,0.041,0.06,0.036
		c0.025-0.002,0.009-0.031,0.014-0.047c-0.034-0.081-0.088,0.016-0.143-0.011L36.1,2.994c0,0.079,0.027,0.167,0.098,0.213
		c0.049,0.005,0.097,0.005,0.14-0.022c0.077,0.032,0.095-0.061,0.149-0.077c0-0.048,0.067-0.041,0.072-0.084
		c0.079-0.099,0.113-0.206,0.133-0.332c0.068-0.189,0.017-0.391-0.049-0.563c0.038-0.025,0.012-0.068,0.022-0.098
		c0.018-0.019,0.034-0.052,0.063-0.046c0.068,0.048,0.12,0.116,0.17,0.183l0.006,0.02c0.104,0.103,0.163,0.246,0.221,0.375
		c0.086,0.348,0.032,0.674,0.079,1.033c0.002,0.098,0.045,0.183,0.052,0.271c0.027,0.057,0.021,0.129,0.066,0.179
		c0.033,0.112,0.063,0.232,0.099,0.339c0.05,0.086,0.059,0.192,0.118,0.273v0.039c0.002,0.012,0.009,0.027,0.021,0.022
		c0.043-0.045,0.039-0.12,0.043-0.178c0.027-0.032,0.012-0.079,0.039-0.111c0.01-0.023,0.04-0.066,0.012-0.082
		c-0.006-0.124,0.026-0.239,0.054-0.355c0.143-0.349,0.196-0.368,0.423-1.077c0.032-0.149,0.106-0.285,0.124-0.439
		c0.066-0.161,0.034-0.332-0.022-0.484c-0.011-0.026-0.031-0.04-0.035-0.069c-0.084-0.079-0.211-0.085-0.317-0.106
		c-0.113-0.048-0.249-0.041-0.364-0.081c-0.047-0.019-0.1-0.029-0.146-0.053c-0.066-0.02-0.133-0.049-0.192-0.074
		c-0.005-0.02,0.011-0.031,0.023-0.041c0.06-0.067,0.126-0.115,0.198-0.163c0.061,0.015,0.081,0.071,0.108,0.116
		c0.009,0.018,0.038,0,0.043,0.025c0.011,0.004,0.034,0.009,0.045-0.003c-0.002-0.077,0.043-0.143,0.032-0.222
		c0.013-0.041,0.052-0.069,0.045-0.12c0.034-0.035,0.014-0.093,0.043-0.125c-0.029-0.038-0.066,0.003-0.097,0.003
		c-0.081,0.012-0.152,0.046-0.229,0.06c-0.063,0.027-0.135,0.036-0.198,0.068c0.002,0.011-0.003,0.021,0.005,0.028
		c0.03,0.023,0.076,0.023,0.105,0.049c0,0.039,0.052,0.037,0.06,0.073l-0.231,0.215l-0.101-0.093
		c-0.056-0.081-0.094-0.138-0.127-0.237c-0.027-0.033-0.015-0.076-0.036-0.105c-0.086-0.274,0.039-0.588-0.156-0.801L36.685,0.332z
		 M35.322,3.219c0.002,0.029-0.023,0.054-0.034,0.081c-0.019,0.05-0.063,0.084-0.081,0.132c-0.03-0.012-0.043-0.052-0.066-0.075
		c0.047-0.021,0.074-0.089,0.124-0.097C35.27,3.231,35.299,3.225,35.322,3.219z M33.961,2.428c0.057-0.003,0.109-0.023,0.163,0.006
		c0.081,0.034,0.174,0.018,0.232,0.1l0.104,0.029c0.029,0.063,0.104,0.103,0.104,0.186c0.024,0.044,0.021,0.108,0.029,0.162
		c0.007,0.113,0.054,0.197,0.07,0.307c0.007,0.068,0.048,0.131,0.048,0.205c0.009,0.026,0.022,0.059,0.036,0.084
		c0,0.034,0.02,0.064,0.045,0.086c-0.111,0.102-0.233,0.195-0.334,0.298c-0.053-0.062-0.103-0.135-0.166-0.194
		c-0.14-0.127-0.307-0.201-0.47-0.288c-0.273-0.092-0.516-0.268-0.806-0.341c-0.14-0.026-0.26-0.07-0.401-0.095
		c-0.103-0.036-0.206-0.07-0.302-0.126c-0.007-0.012-0.022-0.021-0.024-0.03c0.082-0.041,0.174-0.049,0.254-0.088
		c0.045-0.002,0.096-0.009,0.138-0.036c0.083-0.039,0.189-0.024,0.269-0.075c0.061-0.004,0.12-0.028,0.17-0.061
		c0.063,0.003,0.122-0.029,0.185-0.036c0.023-0.004,0.044-0.034,0.068-0.013c0.059-0.021,0.12-0.039,0.183-0.046
		c0.021-0.015,0.039-0.031,0.062-0.01C33.737,2.434,33.841,2.401,33.961,2.428z M36.525,2.168c0.009,0.034-0.036,0.047-0.049,0.078
		c-0.238,0.304-0.483,0.629-0.731,0.913c-0.002,0.002-0.007,0.01-0.013,0.014c-0.054-0.057-0.119-0.128-0.164-0.186
		c0.067-0.088,0.162-0.138,0.244-0.21c0.132-0.082,0.22-0.201,0.346-0.294l0.019-0.03c0.113-0.095,0.225-0.191,0.339-0.285H36.525z
		 M36.47,2.151l-0.007,0.017c-0.21,0.15-0.381,0.339-0.578,0.501c-0.113,0.104-0.237,0.177-0.346,0.29
		c-0.048-0.056-0.117-0.104-0.141-0.178c0.038-0.02,0.083-0.052,0.124-0.081c0.049-0.002,0.051-0.055,0.096-0.063
		c0.056,0.006,0.052-0.066,0.105-0.064c0.015-0.038,0.066-0.02,0.075-0.058c0.054-0.003,0.052-0.069,0.109-0.064
		c0.058-0.056,0.135-0.078,0.197-0.133c0.019-0.007,0.041-0.016,0.047-0.034c0.069-0.035,0.131-0.069,0.202-0.09
		C36.389,2.165,36.427,2.145,36.47,2.151z M37.205,1.66c0.048,0.055,0.136,0.031,0.185,0.075c0.071,0,0.129,0.047,0.204,0.047
		c0.014,0.023,0.034-0.002,0.052,0.013c0.094,0.013,0.178,0.047,0.274,0.053c0.047,0.042,0.122,0.014,0.171,0.05
		c0.123,0.037,0.138,0.17,0.163,0.283c0.007,0.097-0.009,0.199-0.036,0.289c-0.076,0.312-0.176,0.62-0.303,0.91
		c-0.038,0.092-0.07,0.197-0.127,0.288c-0.083,0.213-0.169,0.445-0.176,0.688c-0.01,0.081-0.06,0.149-0.063,0.229
		c-0.034-0.038-0.038-0.1-0.063-0.147c-0.058-0.201-0.132-0.393-0.192-0.592c-0.161-0.527,0.061-1.164-0.292-1.608
		C36.975,2.2,36.93,2.174,36.92,2.121c-0.054-0.063-0.106-0.11-0.162-0.164c0.128-0.1,0.246-0.23,0.377-0.325
		C37.167,1.625,37.174,1.665,37.205,1.66z M36.688,0.377c0.055,0.033,0.067,0.107,0.079,0.163c0,0.095,0.012,0.204,0.016,0.288
		c-0.002,0.116,0.012,0.229,0.052,0.332c0.016,0.124,0.082,0.235,0.163,0.33c-0.007,0.023,0.02,0.019,0.026,0.03
		c0.023,0.022,0.058,0.045,0.075,0.077c-0.12,0.112-0.249,0.223-0.371,0.325c-0.228-0.149-0.442-0.302-0.671-0.437
		c-0.153-0.088-0.308-0.17-0.495-0.194c-0.08-0.024-0.167-0.031-0.247-0.057c-0.229-0.041-0.459-0.088-0.695-0.11l-0.027-0.017
		c-0.065-0.007-0.127-0.021-0.186-0.045c-0.016-0.025-0.055-0.005-0.062-0.029c0.019-0.011,0.052-0.005,0.075-0.007
		c0.061-0.026,0.151-0.009,0.215-0.041c0.052-0.011,0.106-0.018,0.156-0.034c0.072-0.032,0.165-0.021,0.229-0.067
		c0.051,0.007,0.06-0.038,0.104-0.036c0.181-0.063,0.351-0.145,0.522-0.223c0.132-0.056,0.271-0.101,0.396-0.163
		c0.163-0.034,0.303-0.118,0.473-0.131C36.586,0.317,36.638,0.352,36.688,0.377z M37.576,1.402c-0.004,0.03-0.025,0.052-0.032,0.082
		c-0.006,0-0.016-0.003-0.013-0.014c-0.041-0.023-0.051-0.068-0.088-0.095c0.033-0.065,0.119-0.065,0.15-0.128l0.036-0.021
		C37.617,1.287,37.566,1.333,37.576,1.402z M37.576,1.158c-0.059,0.055-0.115,0.101-0.174,0.158c-0.025,0-0.062-0.018-0.074-0.045
		c-0.009-0.027-0.056-0.029-0.064-0.054c0.05,0.011,0.07-0.032,0.118-0.027c0.033-0.005,0.058-0.03,0.09-0.036
		C37.511,1.17,37.542,1.139,37.576,1.158z"/>
</g>
<polyline fill="#0066B3" points="35.487,6.455 35.489,6.455 35.487,6.432 35.484,6.434 35.487,6.455 "/>
<path fill="#034EA2" d="M3.578,17.091c-0.016,0.045-0.019,0.085-0.019,0.128v0.66c0,0.025,0.014,0.04,0.043,0.04h0.431
	c0.029,0,0.043-0.015,0.043-0.04v-0.66c0-0.043-0.003-0.083-0.019-0.128h0.163c-0.014,0.045-0.017,0.085-0.017,0.128v0.658
	c0,0.092-0.077,0.163-0.172,0.163H3.454c-0.095,0-0.173-0.071-0.173-0.163v-0.658c0-0.043-0.002-0.083-0.018-0.128H3.578"/>
<path fill="#034EA2" d="M4.589,17.344l0.006,0.069h0.003c0.019-0.054,0.037-0.069,0.08-0.069h0.317c0.119,0,0.175,0.057,0.175,0.186
	v0.354c0,0.083,0.006,0.125,0.015,0.157H4.896c0.01-0.032,0.016-0.074,0.016-0.157v-0.379c0-0.038-0.01-0.052-0.044-0.052H4.647
	c-0.033,0-0.044,0.014-0.044,0.052v0.379c0,0.083,0.007,0.125,0.016,0.157H4.331c0.009-0.032,0.015-0.074,0.015-0.157v-0.382
	c0-0.083-0.006-0.125-0.015-0.157H4.589"/>
<path fill="#034EA2" d="M6.61,17.885c0,0.103-0.06,0.155-0.179,0.155H5.839L5.82,17.92c0.041,0.013,0.073,0.017,0.169,0.017h0.313
	c0.034,0,0.055-0.018,0.055-0.046v-0.039c0-0.028-0.021-0.046-0.055-0.046H5.975c-0.105,0-0.158-0.062-0.158-0.19v-0.084
	c0-0.129,0.053-0.188,0.158-0.188H6.59l0.021,0.119c-0.042-0.014-0.074-0.017-0.17-0.017H6.115c-0.032,0-0.046,0.015-0.046,0.042
	v0.033c0,0.027,0.014,0.041,0.046,0.041h0.316c0.119,0,0.179,0.052,0.179,0.156V17.885"/>
<path fill="#034EA2" d="M6.961,17.756v0.124c0,0.037,0.011,0.05,0.045,0.05h0.449c0.021,0,0.05-0.002,0.082-0.008L7.516,18.04H6.878
	c-0.118,0-0.175-0.059-0.175-0.187v-0.324c0-0.129,0.057-0.186,0.175-0.186h0.484c0.117,0,0.175,0.057,0.175,0.186v0.227H6.961
	 M7.279,17.646v-0.142c0-0.038-0.012-0.052-0.045-0.052H7.006c-0.034,0-0.045,0.014-0.045,0.052v0.142H7.279z"/>
<path fill="#034EA2" d="M8.238,17.496c-0.047-0.008-0.077-0.014-0.178-0.014H7.963c-0.028,0-0.044,0.014-0.044,0.037v0.363
	c0,0.083,0.006,0.125,0.015,0.157H7.646c0.01-0.032,0.016-0.074,0.016-0.157v-0.382c0-0.083-0.006-0.125-0.016-0.157h0.248
	l0.011,0.075h0.003c0.007-0.057,0.04-0.075,0.12-0.075h0.211V17.496"/>
<path fill="#034EA2" d="M8.571,18.04l-0.107-0.223c-0.085-0.181-0.214-0.455-0.244-0.474h0.317c0,0.004-0.001,0.01-0.001,0.02
	c0,0.042,0.035,0.099,0.243,0.537c0.141-0.308,0.243-0.5,0.24-0.534c0-0.009-0.001-0.016-0.002-0.022h0.158
	c-0.021,0.021-0.04,0.05-0.081,0.139L8.829,18.04H8.571"/>
<path fill="#034EA2" d="M9.499,17.344v0.539c0,0.083,0.006,0.125,0.015,0.157H9.227c0.009-0.032,0.015-0.074,0.015-0.157v-0.382
	c0-0.083-0.006-0.125-0.015-0.157H9.499 M9.246,17.108h0.249v0.166H9.246V17.108z"/>
<path fill="#034EA2" d="M9.943,17.452c-0.034,0-0.046,0.014-0.046,0.052v0.376c0,0.037,0.012,0.05,0.046,0.05h0.348
	c0.021,0,0.05-0.002,0.081-0.008l-0.021,0.118H9.814c-0.118,0-0.175-0.059-0.175-0.187v-0.324c0-0.129,0.057-0.186,0.175-0.186
	h0.537l0.021,0.118c-0.031-0.006-0.06-0.01-0.081-0.01H9.943"/>
<path fill="#034EA2" d="M10.722,17.756v0.124c0,0.037,0.011,0.05,0.045,0.05h0.449c0.022,0,0.051-0.002,0.082-0.008l-0.021,0.118
	h-0.639c-0.118,0-0.175-0.059-0.175-0.187v-0.324c0-0.129,0.057-0.186,0.175-0.186h0.484c0.118,0,0.175,0.057,0.175,0.186v0.227
	H10.722 M11.04,17.646v-0.142c0-0.038-0.011-0.052-0.045-0.052h-0.229c-0.034,0-0.045,0.014-0.045,0.052v0.142H11.04z"/>
<path fill="#034EA2" d="M12.509,17.975h-0.003c-0.01,0.037-0.036,0.065-0.074,0.065h-0.324c-0.117,0-0.175-0.059-0.175-0.187v-0.324
	c0-0.129,0.058-0.186,0.175-0.186h0.313c0.021,0,0.037,0.003,0.049,0.014c0.013,0.011,0.022,0.028,0.034,0.056h0.006v-0.165
	c0-0.082-0.006-0.124-0.015-0.157h0.272v0.792c0,0.083,0.006,0.125,0.016,0.157h-0.259L12.509,17.975 M12.464,17.93
	c0.034,0,0.045-0.013,0.045-0.05v-0.376c0-0.038-0.011-0.052-0.045-0.052h-0.228c-0.034,0-0.045,0.014-0.045,0.052v0.376
	c0,0.037,0.011,0.05,0.045,0.05H12.464z"/>
<path fill="#034EA2" d="M13.466,18.04l-0.005-0.071h-0.003c-0.019,0.055-0.037,0.071-0.08,0.071H13.06
	c-0.117,0-0.175-0.059-0.175-0.187v-0.353c0-0.083-0.005-0.125-0.014-0.157h0.271v0.536c0,0.037,0.012,0.05,0.045,0.05h0.22
	c0.034,0,0.045-0.013,0.045-0.05v-0.379c0-0.083-0.006-0.125-0.016-0.157h0.273v0.539c0,0.083,0.006,0.125,0.014,0.157H13.466"/>
<path fill="#231F20" d="M3.463,19.871c-0.124,0-0.19-0.061-0.19-0.192v-0.564c0-0.131,0.066-0.191,0.19-0.191h0.551l0.024,0.144
	c-0.045-0.02-0.106-0.022-0.147-0.022H3.604c-0.04,0-0.054,0.014-0.054,0.057v0.593c0,0.043,0.014,0.057,0.054,0.057h0.286
	c0.041,0,0.103-0.004,0.147-0.022l-0.024,0.144H3.463"/>
<path fill="#231F20" d="M4.284,19.871c-0.119,0-0.175-0.058-0.175-0.187v-0.323c0-0.129,0.056-0.187,0.175-0.187h0.482
	c0.119,0,0.175,0.058,0.175,0.187v0.323c0,0.129-0.056,0.187-0.175,0.187H4.284 M4.639,19.762c0.035,0,0.045-0.013,0.045-0.05
	v-0.377c0-0.037-0.01-0.051-0.045-0.051H4.411c-0.034,0-0.044,0.014-0.044,0.051v0.377c0,0.037,0.01,0.05,0.044,0.05H4.639z"/>
<path fill="#231F20" d="M5.304,19.175l0.006,0.07h0.003c0.018-0.055,0.037-0.07,0.08-0.07H5.71c0.119,0,0.175,0.058,0.175,0.187
	v0.354c0,0.083,0.006,0.124,0.016,0.156H5.612c0.009-0.032,0.015-0.073,0.015-0.156v-0.38c0-0.037-0.01-0.051-0.045-0.051H5.363
	c-0.034,0-0.044,0.014-0.044,0.051v0.38c0,0.083,0.005,0.124,0.014,0.156H5.046c0.009-0.032,0.015-0.073,0.015-0.156v-0.383
	c0-0.083-0.006-0.125-0.015-0.157H5.304"/>
<path fill="#231F20" d="M6.789,19.716c0,0.104-0.06,0.155-0.178,0.155H6.018l-0.019-0.119c0.041,0.013,0.074,0.016,0.169,0.016
	h0.313c0.034,0,0.056-0.018,0.056-0.046v-0.039c0-0.028-0.021-0.045-0.056-0.045H6.155c-0.107,0-0.159-0.062-0.159-0.19v-0.085
	c0-0.129,0.052-0.188,0.159-0.188H6.77l0.02,0.12c-0.041-0.014-0.074-0.017-0.169-0.017H6.294c-0.031,0-0.046,0.014-0.046,0.041
	v0.033c0,0.028,0.015,0.041,0.046,0.041h0.317c0.118,0,0.178,0.052,0.178,0.156V19.716"/>
<path fill="#231F20" d="M7.14,19.587v0.125c0,0.037,0.011,0.05,0.045,0.05h0.449c0.022,0,0.051-0.003,0.082-0.009l-0.021,0.118
	H7.058c-0.119,0-0.175-0.058-0.175-0.187v-0.323c0-0.129,0.056-0.187,0.175-0.187h0.483c0.119,0,0.175,0.058,0.175,0.187v0.226H7.14
	 M7.458,19.477v-0.142c0-0.037-0.01-0.051-0.045-0.051H7.185c-0.034,0-0.045,0.014-0.045,0.051v0.142H7.458z"/>
<path fill="#231F20" d="M8.114,19.175v0.54c0,0.083,0.006,0.124,0.016,0.156H7.842c0.009-0.032,0.015-0.073,0.015-0.156v-0.383
	c0-0.083-0.006-0.125-0.015-0.157H8.114 M7.861,18.939H8.11v0.167H7.861V18.939z"/>
<path fill="#231F20" d="M8.553,19.715c0,0.083,0.006,0.124,0.016,0.156H8.281c0.008-0.032,0.015-0.073,0.015-0.156v-0.636
	c0-0.083-0.007-0.123-0.015-0.156h0.271V19.715"/>
<path fill="#231F20" d="M9.532,19.743c0,0.043,0.003,0.083,0.018,0.128H9.236c0.014-0.045,0.017-0.085,0.017-0.128V19.05
	c0-0.043-0.003-0.083-0.017-0.127h0.751c0.118,0,0.188,0.059,0.188,0.184v0.192c0,0.085-0.034,0.143-0.146,0.159l0.123,0.313
	c0.016,0.04,0.037,0.074,0.067,0.101H9.903l-0.164-0.418H9.532V19.743 M9.532,19.332h0.323c0.036,0,0.05-0.017,0.05-0.064v-0.16
	c0-0.047-0.014-0.063-0.05-0.063H9.532V19.332z"/>
<path fill="#231F20" d="M10.558,19.587v0.125c0,0.037,0.011,0.05,0.044,0.05h0.449c0.023,0,0.051-0.003,0.082-0.009l-0.021,0.118
	h-0.638c-0.119,0-0.175-0.058-0.175-0.187v-0.323c0-0.129,0.056-0.187,0.175-0.187h0.483c0.119,0,0.175,0.058,0.175,0.187v0.226
	H10.558 M10.875,19.477v-0.142c0-0.037-0.01-0.051-0.044-0.051h-0.229c-0.033,0-0.044,0.014-0.044,0.051v0.142H10.875z
	 M10.604,19.098l0.139-0.217h0.226l-0.218,0.217H10.604z"/>
<path fill="#231F20" d="M11.246,20.009c0.025,0.009,0.084,0.017,0.157,0.017h0.345c0.046,0,0.061-0.014,0.061-0.071v-0.153h-0.003
	c-0.006,0.014-0.016,0.038-0.027,0.051c-0.014,0.014-0.024,0.02-0.079,0.02h-0.29c-0.119,0-0.175-0.058-0.175-0.187v-0.323
	c0-0.129,0.056-0.187,0.175-0.187h0.322c0.039,0,0.064,0.027,0.074,0.064h0.003l0.016-0.064h0.258
	c-0.009,0.032-0.016,0.074-0.016,0.157v0.606c0,0.136-0.064,0.197-0.169,0.197h-0.634L11.246,20.009 M11.765,19.762
	c0.034,0,0.044-0.013,0.044-0.05v-0.377c0-0.037-0.01-0.051-0.044-0.051h-0.229c-0.034,0-0.044,0.014-0.044,0.051v0.377
	c0,0.037,0.01,0.05,0.044,0.05H11.765z"/>
<path fill="#231F20" d="M12.466,19.175v0.54c0,0.083,0.006,0.124,0.015,0.156h-0.287c0.009-0.032,0.015-0.073,0.015-0.156v-0.383
	c0-0.083-0.006-0.125-0.015-0.157H12.466 M12.212,18.939h0.249v0.167h-0.249V18.939z"/>
<path fill="#231F20" d="M12.782,19.871c-0.119,0-0.176-0.058-0.176-0.187v-0.323c0-0.129,0.057-0.187,0.176-0.187h0.482
	c0.118,0,0.175,0.058,0.175,0.187v0.323c0,0.129-0.057,0.187-0.175,0.187H12.782 M13.137,19.762c0.035,0,0.045-0.013,0.045-0.05
	v-0.377c0-0.037-0.01-0.051-0.045-0.051h-0.228c-0.034,0-0.044,0.014-0.044,0.051v0.377c0,0.037,0.01,0.05,0.044,0.05H13.137z"/>
<path fill="#231F20" d="M13.801,19.175l0.006,0.07h0.004c0.018-0.055,0.036-0.07,0.079-0.07h0.318c0.118,0,0.175,0.058,0.175,0.187
	v0.354c0,0.083,0.006,0.124,0.014,0.156h-0.287c0.01-0.032,0.016-0.073,0.016-0.156v-0.38c0-0.037-0.011-0.051-0.045-0.051h-0.219
	c-0.034,0-0.046,0.014-0.046,0.051v0.38c0,0.083,0.007,0.124,0.016,0.156h-0.287c0.008-0.032,0.014-0.073,0.014-0.156v-0.383
	c0-0.083-0.006-0.125-0.014-0.157H13.801"/>
<path fill="#231F20" d="M15.334,19.715c0,0.083,0.006,0.124,0.015,0.156h-0.237l-0.013-0.072h-0.003
	c-0.021,0.057-0.048,0.072-0.099,0.072h-0.321c-0.121,0-0.175-0.051-0.175-0.241c0-0.191,0.054-0.241,0.175-0.241h0.363
	c0.023,0,0.038-0.009,0.038-0.033v-0.045c0-0.023-0.015-0.032-0.038-0.032H14.65c-0.043,0-0.069,0.001-0.123,0.015l0.016-0.118
	h0.617c0.118,0,0.174,0.058,0.174,0.187V19.715 M14.804,19.498c-0.034,0-0.045,0.013-0.045,0.051v0.163
	c0,0.037,0.011,0.05,0.045,0.05h0.229c0.033,0,0.045-0.013,0.045-0.05v-0.214H14.804z"/>
<path fill="#231F20" d="M15.732,19.715c0,0.083,0.007,0.124,0.016,0.156h-0.287c0.008-0.032,0.014-0.073,0.014-0.156v-0.636
	c0-0.083-0.006-0.123-0.014-0.156h0.271V19.715"/>
<path fill="#231F20" d="M16.984,19.807H16.98c-0.01,0.036-0.034,0.064-0.073,0.064h-0.323c-0.118,0-0.175-0.058-0.175-0.187v-0.323
	c0-0.129,0.057-0.187,0.175-0.187h0.312c0.021,0,0.037,0.003,0.05,0.015c0.013,0.01,0.021,0.028,0.033,0.056h0.006v-0.166
	c0-0.083-0.006-0.124-0.015-0.156h0.273v0.792c0,0.083,0.005,0.124,0.014,0.156h-0.258L16.984,19.807 M16.939,19.762
	c0.034,0,0.045-0.013,0.045-0.05v-0.377c0-0.037-0.011-0.051-0.045-0.051h-0.228c-0.034,0-0.045,0.014-0.045,0.051v0.377
	c0,0.037,0.011,0.05,0.045,0.05H16.939z"/>
<path fill="#231F20" d="M17.601,19.587v0.125c0,0.037,0.012,0.05,0.045,0.05h0.449c0.022,0,0.05-0.003,0.082-0.009l-0.021,0.118
	h-0.639c-0.118,0-0.175-0.058-0.175-0.187v-0.323c0-0.129,0.057-0.187,0.175-0.187h0.484c0.118,0,0.175,0.058,0.175,0.187v0.226
	H17.601 M17.919,19.477v-0.142c0-0.037-0.011-0.051-0.045-0.051h-0.229c-0.033,0-0.045,0.014-0.045,0.051v0.142H17.919z"/>
<path fill="#231F20" d="M19.118,18.923c-0.016,0.044-0.019,0.084-0.019,0.127v0.7h0.359c0.041,0,0.102-0.004,0.146-0.022
	l-0.023,0.144h-0.778c0.016-0.045,0.018-0.085,0.018-0.128V19.05c0-0.043-0.002-0.083-0.018-0.127H19.118"/>
<path fill="#231F20" d="M19.867,19.871c-0.119,0-0.176-0.058-0.176-0.187v-0.323c0-0.129,0.057-0.187,0.176-0.187h0.482
	c0.119,0,0.176,0.058,0.176,0.187v0.323c0,0.129-0.057,0.187-0.176,0.187H19.867 M20.222,19.762c0.035,0,0.045-0.013,0.045-0.05
	v-0.377c0-0.037-0.01-0.051-0.045-0.051h-0.228c-0.034,0-0.044,0.014-0.044,0.051v0.377c0,0.037,0.01,0.05,0.044,0.05H20.222z"/>
<path fill="#231F20" d="M21.226,19.328c-0.046-0.009-0.077-0.015-0.176-0.015h-0.098c-0.028,0-0.045,0.014-0.045,0.037v0.364
	c0,0.083,0.006,0.124,0.015,0.156h-0.287c0.008-0.032,0.014-0.073,0.014-0.156v-0.383c0-0.083-0.006-0.125-0.014-0.157h0.247
	l0.011,0.076h0.002c0.009-0.058,0.04-0.076,0.121-0.076h0.21V19.328"/>
<path fill="#231F20" d="M21.884,19.328c-0.046-0.009-0.077-0.015-0.176-0.015H21.61c-0.028,0-0.045,0.014-0.045,0.037v0.364
	c0,0.083,0.007,0.124,0.015,0.156h-0.287c0.009-0.032,0.015-0.073,0.015-0.156v-0.383c0-0.083-0.006-0.125-0.015-0.157h0.247
	l0.011,0.076h0.003c0.007-0.058,0.04-0.076,0.12-0.076h0.21V19.328"/>
<path fill="#231F20" d="M22.776,19.715c0,0.083,0.005,0.124,0.014,0.156h-0.238l-0.012-0.072h-0.003
	c-0.023,0.057-0.048,0.072-0.101,0.072h-0.319c-0.122,0-0.176-0.051-0.176-0.241c0-0.191,0.054-0.241,0.176-0.241h0.362
	c0.024,0,0.037-0.009,0.037-0.033v-0.045c0-0.023-0.013-0.032-0.037-0.032h-0.388c-0.043,0-0.07,0.001-0.125,0.015l0.018-0.118H22.6
	c0.119,0,0.177,0.058,0.177,0.187V19.715 M22.245,19.498c-0.034,0-0.045,0.013-0.045,0.051v0.163c0,0.037,0.011,0.05,0.045,0.05
	h0.228c0.034,0,0.044-0.013,0.044-0.05v-0.214H22.245z"/>
<path fill="#231F20" d="M23.174,19.175v0.54c0,0.083,0.006,0.124,0.015,0.156H22.9c0.01-0.032,0.016-0.073,0.016-0.156v-0.383
	c0-0.083-0.006-0.125-0.016-0.157H23.174 M22.921,18.939h0.249v0.167h-0.249V18.939z"/>
<path fill="#231F20" d="M23.576,19.175l0.006,0.07h0.003c0.018-0.055,0.037-0.07,0.08-0.07h0.316c0.119,0,0.176,0.058,0.176,0.187
	v0.354c0,0.083,0.006,0.124,0.015,0.156h-0.288c0.009-0.032,0.015-0.073,0.015-0.156v-0.38c0-0.037-0.01-0.051-0.044-0.051h-0.22
	c-0.034,0-0.044,0.014-0.044,0.051v0.38c0,0.083,0.006,0.124,0.015,0.156h-0.287c0.009-0.032,0.015-0.073,0.015-0.156v-0.383
	c0-0.083-0.006-0.125-0.015-0.157H23.576"/>
<path fill="#231F20" d="M24.534,19.587v0.125c0,0.037,0.01,0.05,0.044,0.05h0.45c0.021,0,0.05-0.003,0.081-0.009l-0.021,0.118
	h-0.637c-0.119,0-0.176-0.058-0.176-0.187v-0.323c0-0.129,0.057-0.187,0.176-0.187h0.482c0.119,0,0.176,0.058,0.176,0.187v0.226
	H24.534 M24.851,19.477v-0.142c0-0.037-0.01-0.051-0.045-0.051h-0.228c-0.034,0-0.044,0.014-0.044,0.051v0.142H24.851z"/>
</svg>
