<?xml version="1.0" encoding="UTF-8" standalone="no"?>
<!DOCTYPE svg PUBLIC "-//W3C//DTD SVG 1.1//EN" "http://www.w3.org/Graphics/SVG/1.1/DTD/svg11.dtd">
<svg>
<metadata>
Created by FontForge 20090622 at Fri Aug 28 01:45:28 2015
 By deploy user
</metadata>
<defs>
<font id="Achemine" horiz-adv-x="556">
  <font-face font-family="Achemine" font-weight="400" font-stretch="normal" units-per-em="1000" panose-1="2 0 5 3 3 0 0 2 0 4" ascent="750" descent="-250" x-height="500" cap-height="718" bbox="-138 -230 980 914" underline-thickness="0" underline-position="0" unicode-range="U+0020-U+0152"/>
<missing-glyph horiz-adv-x="1000"/>
    <glyph glyph-name=".notdef" horiz-adv-x="1000"/>
    <glyph glyph-name="glyph1" horiz-adv-x="0"/>
    <glyph glyph-name="glyph2" horiz-adv-x="255"/>
    <glyph glyph-name="space" unicode=" " horiz-adv-x="255"/>
    <glyph glyph-name="exclam" unicode="!" horiz-adv-x="331" d="M134 700h98v-343l-20 -173h-58l-20 173v343zM115 51q0 29 18.5 46t48.5 17t48.5 -17t18.5 -46q0 -27 -18.5 -45t-48.5 -18t-48.5 18t-18.5 45z"/>
    <glyph glyph-name="quotedbl" unicode="&quot;" horiz-adv-x="471" d="M208 692l-26.5 -33.5t-19 -27.5t-11.5 -25t-4 -26t6.5 -23.5t21.5 -18.5l19 -12q4 -9 4.5 -18t0.5 -17q0 -26 -20 -48.5t-53 -22.5q-35 0 -55 23t-20 65q0 19 4 42t15.5 50t33 59.5t56.5 70.5zM420 692l-26.5 -33.5t-19 -27.5t-11.5 -25t-4 -26t7 -23.5t21 -18.5l19 -12 q4 -9 4.5 -18t0.5 -17q0 -26 -20 -48.5t-53 -22.5q-35 0 -55 23t-20 65q0 19 4 42t15.5 50t33 59.5t56.5 70.5z"/>
    <glyph glyph-name="numbersign" unicode="#" horiz-adv-x="594" d="M305 221h-113l-42 -164h-81l42 164h-85l17 72h87l32 124h-81l17 72h83l40 154h81l-40 -154h113l40 154h81l-40 -154h83l-19 -72h-83l-32 -124h79l-19 -72h-79l-43 -164h-80zM211 293h113l32 124h-113z"/>
    <glyph glyph-name="dollar" unicode="$" horiz-adv-x="594" d="M263 -13q-61 2 -108 11.5t-75 23.5l31 84q23 -12 60.5 -22.5t91.5 -12.5v250q-33 14 -65.5 30.5t-58 40t-41 56t-15.5 78.5q0 78 45 125.5t135 58.5v90h79v-88q55 -2 91 -10t65 -21l-29 -82q-20 10 -51 18t-76 11v-229q34 -15 68 -32.5t61 -41.5t43.5 -56t16.5 -77 q0 -83 -48.5 -134.5t-140.5 -65.5v-92h-79v87zM320 73q51 6 82 32.5t31 76.5q0 22 -9 39t-24.5 30.5t-36 24.5t-43.5 21v-224zM285 628q-58 -5 -81 -31.5t-23 -63.5q0 -40 30 -64.5t74 -44.5v204z"/>
    <glyph glyph-name="percent" unicode="%" horiz-adv-x="665" d="M480 236q-25 0 -41.5 -21t-16.5 -64q0 -42 16.5 -65t41.5 -23q26 0 42.5 23t16.5 65q0 43 -16.5 64t-42.5 21zM478 -10q-34 0 -62 11t-48 32t-31 50t-11 65q0 76 43.5 118.5t113.5 42.5q69 0 110 -42t41 -114q0 -35 -10.5 -65t-30.5 -51.5t-49 -34t-66 -12.5zM35 73 l526 626l64 -54l-526 -626zM182 655q-26 0 -42 -21t-16 -64q0 -42 16.5 -65t41.5 -23t41.5 23t16.5 65q0 44 -16 64.5t-42 20.5zM179 409q-34 0 -61.5 11.5t-47.5 32t-31 50t-11 65.5q0 75 43.5 117.5t113.5 42.5q69 0 110 -42t41 -114q0 -35 -10.5 -65t-31 -51.5t-49.5 -34 t-66 -12.5z"/>
    <glyph glyph-name="ampersand" unicode="&amp;" horiz-adv-x="690" d="M623 -10q-52 0 -83.5 18.5t-60.5 48.5q-38 -31 -88 -49t-116 -18q-49 0 -93 14.5t-76 42t-51 68t-19 91.5q0 63 32 108.5t93 59.5q9 2 19 2.5t20 0.5l1 3q-4 5 -8.5 10t-9.5 10q-25 32 -44.5 70.5t-19.5 81.5q0 47 15 80.5t42 54.5t63 31t78 10q45 0 82.5 -8.5 t78.5 -29.5l-39 -84q-25 17 -54.5 29t-71.5 12q-40 0 -69 -21.5t-29 -68.5q0 -24 8 -46.5t20.5 -44t28 -41.5t30.5 -37l179 -203q23 48 30 102.5t7 103.5h89q0 -69 -16 -140t-55 -130q20 -22 42 -37t52 -15q22 0 34 3l12 3v-80q-6 -2 -14 -3q-7 -1 -16.5 -1.5t-22.5 -0.5z M263 304q-18 21 -40 21q-38 0 -65.5 -25t-27.5 -83q0 -68 43.5 -107t111.5 -39q48 0 82.5 12t60.5 33z"/>
    <glyph glyph-name="quotesingle" unicode="'" horiz-adv-x="259" d="M51 456l26.5 33.5t19 27.5t11.5 25t4 26t-6.5 23.5t-21.5 18.5l-19 12q-4 9 -4.5 18t-0.5 17q0 26 20 48.5t53 22.5q35 0 55 -23t20 -65q0 -19 -4 -42t-15.5 -50t-33 -59.5t-56.5 -70.5z"/>
    <glyph glyph-name="parenleft" unicode="(" horiz-adv-x="311" d="M174 -120q-65 122 -90.5 234.5t-25.5 216.5q0 48 9 102t24.5 110t36.5 111t46 104h87q-47 -104 -73.5 -213t-26.5 -214q0 -47 3.5 -97t14 -105.5t30.5 -117t53 -131.5h-88z"/>
    <glyph glyph-name="parenright" unicode=")" horiz-adv-x="311" d="M49 -120q33 70 52.5 131.5t30.5 117t14.5 105.5t3.5 97q0 105 -27 214t-74 213h87q25 -49 46.5 -104t37 -111t24.5 -110t9 -102q0 -103 -26 -216t-91 -235h-87z"/>
    <glyph glyph-name="asterisk" unicode="*" horiz-adv-x="482" d="M58 468l129 61l-129 61l39 67l117 -81l-12 142h78l-12 -142l117 81l39 -67l-129 -61l129 -61l-39 -67l-117 81l12 -142h-78l12 142l-117 -81z"/>
    <glyph glyph-name="plus" unicode="+" d="M322 0h-89v210h-195v83h195v207h89v-207h195v-83h-195v-210z"/>
    <glyph glyph-name="comma" unicode="," horiz-adv-x="259" d="M51 -137l26.5 33.5t19 27.5t11.5 25t4 26t-7 23.5t-21 18.5l-19 12q-4 9 -5 18t-1 17q0 13 5.5 26t15 23t23.5 16t30 6q35 0 55 -23t20 -65q0 -19 -4 -42t-16 -50t-33.5 -59.5t-56.5 -70.5z"/>
    <glyph glyph-name="hyphen" unicode="-" horiz-adv-x="397" d="M45 299h307v-93h-307v93z"/>
    <glyph glyph-name="period" unicode="." horiz-adv-x="259" d="M147 -10q-31 0 -52.5 21t-21.5 52q0 30 21.5 51t52.5 21t52.5 -21t21.5 -51q0 -31 -21.5 -52t-52.5 -21z"/>
    <glyph glyph-name="slash" unicode="/" horiz-adv-x="281" d="M174 758h88l-170 -878h-89z"/>
    <glyph glyph-name="zero" unicode="0" d="M509 361q0 -118 -20.5 -191t-53.5 -113t-74.5 -53.5t-83.5 -13.5q-43 0 -84 13t-73.5 52.5t-52 111t-19.5 188.5q0 84 11 144.5t29.5 102t42.5 66.5t50 38.5t52 18t48 4.5q35 0 75 -11.5t74 -50t56.5 -111t22.5 -195.5zM278 649q-46 0 -72.5 -25t-39.5 -66.5t-16 -93.5 t-3 -106q0 -57 3.5 -109.5t17 -92t39.5 -63t71 -23.5t71 23.5t39.5 63t17 92t3.5 109.5q0 54 -3 106t-16 93.5t-39.5 66.5t-72.5 25z"/>
    <glyph glyph-name="one" unicode="1" d="M297 612l-184 -121l-47 74l242 153h85v-718h-96v612z"/>
    <glyph glyph-name="two" unicode="2" d="M58 58q0 52 12 92t32.5 72t49 57.5t61.5 47.5l61 42l45.5 30.5t37.5 32t25.5 40t9.5 54.5q0 57 -30 88.5t-88 31.5q-47 0 -81.5 -15t-71.5 -43l-43 77q49 32 99 47.5t108 15.5q53 0 91.5 -14.5t63.5 -40.5t37.5 -62.5t12.5 -80.5q0 -43 -13.5 -75.5t-36.5 -59.5 t-52.5 -49l-61.5 -44l-65 -44q-36 -24 -57.5 -49t-33 -47.5t-15 -42t-4.5 -32.5h346v-87h-439v58z"/>
    <glyph glyph-name="three" unicode="3" d="M102 156q23 -43 60.5 -63.5t85.5 -20.5q66 0 108 36t42 103q0 36 -11.5 60.5t-31 39t-46 21t-55.5 6.5q-11 0 -29 -0.5t-32 -2.5v83h23q23 0 45.5 2t42.5 10q29 13 48 40t19 72q0 53 -31.5 78.5t-82.5 25.5q-48 0 -84 -14t-65 -40l-45 77q35 24 82 41.5t115 17.5 q43 0 80 -10t64.5 -31t43.5 -53t16 -76q0 -30 -9.5 -55t-24 -45t-32 -34.5t-34.5 -23.5v-3q54 -16 91.5 -60.5t37.5 -119.5q0 -55 -18.5 -97t-52 -71t-79.5 -44t-100 -15q-68 0 -125 24.5t-94 85.5z"/>
    <glyph glyph-name="four" unicode="4" d="M111 232h246v411zM453 -5h-96v149h-327v96l287 478h136v-486h79v-88h-79v-149z"/>
    <glyph glyph-name="five" unicode="5" d="M278 -10q-72 0 -123.5 24t-87.5 79l78 57q8 -16 20 -30t29 -25t39 -17.5t50 -6.5q64 0 99 43.5t35 110.5q0 42 -11 70.5t-29.5 45.5t-42 24.5t-49.5 7.5q-57 0 -90 -23.5t-53 -57.5l-74 28l21 398h379v-85h-298l-13 -236h3q22 31 59 46t75 15q102 0 161 -57.5t59 -169.5 q0 -54 -17 -98t-48.5 -76t-74.5 -49.5t-96 -17.5z"/>
    <glyph glyph-name="six" unicode="6" d="M296 71q58 0 92.5 39.5t34.5 101.5q0 145 -127 145q-27 0 -50 -8.5t-40 -26.5t-27 -45t-10 -65q0 -28 8.5 -54t25 -45t40 -30.5t53.5 -11.5zM449 616q-22 15 -47 22.5t-59 7.5q-60 0 -96.5 -28.5t-57 -72.5t-28 -96.5t-7.5 -99.5h3q23 46 63 68.5t91 22.5q47 0 85.5 -16 t66.5 -45t43 -68.5t15 -86.5q0 -51 -17 -94t-47.5 -74t-73 -48.5t-93.5 -17.5q-33 0 -73 12t-75 48t-59 102t-24 173q0 70 13 142t45.5 130t88 94.5t140.5 36.5q42 0 76 -7t71 -26z"/>
    <glyph glyph-name="seven" unicode="7" d="M179 0q5 100 20 182t43.5 156t72.5 145t108 148h-376v87h459v-88q-63 -80 -103.5 -150.5t-65 -143t-35.5 -154t-14 -182.5h-109z"/>
    <glyph glyph-name="eight" unicode="8" d="M292 411q18 9 36 21t32 28.5t22.5 36.5t8.5 44q0 27 -9.5 47t-25 33.5t-36 20t-43.5 6.5q-51 0 -83 -28.5t-32 -75.5q0 -44 31.5 -74t98.5 -59zM261 331q-22 -10 -42.5 -23.5t-36.5 -31.5t-26 -40t-10 -48q0 -30 11 -52t29 -36.5t42 -22t50 -7.5q58 0 96 31t38 82 q0 49 -36.5 82.5t-114.5 65.5zM272 -10q-44 0 -84.5 11.5t-72 35t-50.5 59t-19 83.5q0 37 12 66t32.5 52t47 40t55.5 29q-55 27 -91.5 68.5t-36.5 106.5q0 46 18 81t48 58.5t69 35.5t81 12q40 0 77.5 -12t67 -34.5t47 -56t17.5 -77.5q0 -33 -10.5 -59t-28.5 -46.5t-42 -36 t-52 -27.5q87 -38 120.5 -84t33.5 -105q0 -46 -17.5 -83t-49 -63t-75.5 -40t-97 -14z"/>
    <glyph glyph-name="nine" unicode="9" d="M261 647q-59 0 -89.5 -39t-30.5 -99q0 -65 30 -99.5t90 -34.5q57 0 88 35.5t31 98.5q0 61 -29.5 99.5t-89.5 38.5zM98 110q23 -18 51.5 -28t64.5 -10q62 0 99.5 31t57 77.5t25.5 102t6 103.5h-3q-22 -45 -60.5 -69.5t-89.5 -24.5q-48 0 -86 15t-64.5 43t-41 67.5 t-14.5 87.5q0 42 14 82.5t42 71.5t69.5 50t96.5 19q32 0 72.5 -12t76 -48t59.5 -102.5t24 -176.5q0 -72 -13 -143.5t-45.5 -128t-87.5 -92t-139 -35.5q-42 0 -83.5 9t-76.5 33z"/>
    <glyph glyph-name="colon" unicode=":" horiz-adv-x="259" d="M133 -10q-31 0 -52.5 21t-21.5 52q0 30 21.5 51t52.5 21t52.5 -21t21.5 -51q0 -31 -21.5 -52t-52.5 -21zM133 365q-31 0 -52.5 21t-21.5 51q0 31 21.5 52t52.5 21t52.5 -21t21.5 -52q0 -30 -21.5 -51t-52.5 -21z"/>
    <glyph glyph-name="semicolon" unicode=";" horiz-adv-x="259" d="M133 365q-31 0 -52.5 21t-21.5 51q0 31 21.5 52t52.5 21t52.5 -21t21.5 -52q0 -30 -21.5 -51t-52.5 -21zM51 -137l26.5 33.5t19 27.5t11.5 25t4 26t-7 23.5t-21 18.5l-19 12q-4 9 -5 18t-1 17q0 13 5.5 26t15 23t23.5 16t30 6q35 0 55 -23t20 -65q0 -19 -4 -42t-16 -50 t-33.5 -59.5t-56.5 -70.5z"/>
    <glyph glyph-name="less" unicode="&lt;" horiz-adv-x="554" d="M44 300v38l419 236l42 -72l-256 -144l-100 -37l99 -32l262 -143l-41 -70z"/>
    <glyph glyph-name="equal" unicode="=" horiz-adv-x="554" d="M43 465h468v-84h-468v84zM43 293h468v-84h-468v84z"/>
    <glyph glyph-name="greater" unicode="&gt;" horiz-adv-x="554" d="M510 348v-38l-420 -235l-41 72l256 144l100 37l-99 32l-262 143l40 71z"/>
    <glyph glyph-name="question" unicode="?" horiz-adv-x="479" d="M160 184q-4 50 7.5 86t31.5 64t44.5 50t46 44t36 47t14.5 58q0 44 -26.5 72t-92.5 28q-40 0 -81.5 -15t-70.5 -32l-32 72q42 26 89 40.5t116 14.5q49 0 86 -13t62 -35.5t37.5 -53t12.5 -65.5q0 -47 -15 -80.5t-37 -59.5t-48 -48t-48 -46.5t-37 -54.5t-15 -73h-80zM138 51 q0 29 18.5 46t48.5 17t48.5 -17t18.5 -46q0 -27 -18.5 -45t-48.5 -18t-48.5 18t-18.5 45z"/>
    <glyph glyph-name="at" unicode="@" horiz-adv-x="813" d="M498 476q-12 5 -23 7t-26 2q-46 0 -77 -32t-43 -91q-13 -59 0 -82.5t46 -23.5q20 0 36 10.5t28 24.5q15 18 24.5 42.5t14.5 47.5zM775 424q0 -60 -15 -104.5t-42 -74t-64.5 -44t-82.5 -14.5q-42 0 -67 21.5t-25 63.5h-1q-21 -37 -50.5 -61t-79.5 -24q-34 0 -57 13.5 t-35 36.5t-14 54t5 65q12 53 35.5 90t54.5 60t66.5 33t69.5 10q28 0 55.5 -5t58.5 -13l-44 -207q-7 -32 1 -52t37 -20q51 0 80 40t29 128q0 45 -14.5 88t-45 76t-78 53t-113.5 20q-69 0 -124.5 -21t-94.5 -60.5t-60 -97.5t-21 -133q0 -60 16.5 -112t51 -90t86.5 -59.5 t124 -21.5q38 0 69.5 5.5t63.5 16.5l19 -72q-16 -6 -36.5 -10t-42 -6.5t-43 -4t-40.5 -1.5q-94 0 -161.5 31t-110.5 80.5t-63 111.5t-20 125q0 67 20 136t66 125.5t121 92.5t184 36q80 0 142 -24.5t104 -66t64 -96.5t22 -117z"/>
    <glyph glyph-name="A" unicode="A" horiz-adv-x="638" d="M376 718l254 -718h-99l-73 220h-280l-74 -220h-96l254 718h114zM320 633h-3l-112 -334h226z"/>
    <glyph glyph-name="B" unicode="B" horiz-adv-x="612" d="M188 348v-260q56 -17 124 -17q35 0 66 7.5t53.5 24.5t35.5 44.5t13 67.5t-13 66t-36 41t-54 20.5t-67 5.5h-122zM283 644q-28 1 -51.5 -1.5l-43.5 -4.5v-211h94q36 0 62 7t44 27q14 15 22 36.5t8 53.5q0 30 -9.5 48.5t-26.5 28.5t-42 13t-57 3zM92 714q52 5 100.5 8 t93.5 3q40 0 81 -5t74.5 -21.5t54.5 -48.5t21 -86q0 -52 -26 -89t-63 -59v-3q73 -18 112.5 -68t39.5 -125q0 -47 -16 -89t-49.5 -73.5t-85 -49.5t-121.5 -18q-57 0 -109.5 7.5t-106.5 18.5v698z"/>
    <glyph glyph-name="C" unicode="C" horiz-adv-x="650" d="M542 562q-29 50 -66.5 67.5t-89.5 17.5q-33 0 -73.5 -11t-76.5 -42.5t-60 -87t-24 -145.5q0 -60 12 -113t40.5 -92t76 -62t118.5 -23q50 0 92 13.5t81 34.5l35 -84q-25 -10 -50 -18.5t-52 -14.5t-57.5 -9t-66.5 -3q-69 0 -129.5 21.5t-105.5 66.5t-71.5 113t-26.5 161 q0 84 22.5 153.5t66 119t108.5 76.5t150 27q75 0 139 -25.5t104 -91.5z"/>
    <glyph glyph-name="D" unicode="D" horiz-adv-x="740" d="M323 644q-9 0 -25 -0.5t-34.5 -1t-38.5 -2t-37 -3.5v-550q28 -7 66 -12t76 -5q71 0 120.5 21t80 59.5t44.5 93.5t14 124q0 84 -20.5 137.5t-56 84t-84 42.5t-105.5 12zM327 -10q-65 0 -120 6.5t-115 19.5v699q60 5 115 7.5t115 2.5q70 0 136.5 -14t118.5 -53t83.5 -107.5 t31.5 -177.5q0 -86 -23.5 -156.5t-69 -121t-114 -78t-158.5 -27.5z"/>
    <glyph glyph-name="E" unicode="E" horiz-adv-x="595" d="M92 718h431v-81h-335v-220h301v-80h-301v-256h348v-81h-444v718z"/>
    <glyph glyph-name="F" unicode="F" horiz-adv-x="554" d="M188 411h301v-82h-301v-329h-96v718h431v-83h-335v-224z"/>
    <glyph glyph-name="G" unicode="G" horiz-adv-x="694" d="M539 282l-162 -4v83h257v-313q-63 -29 -122.5 -43.5t-130.5 -14.5q-69 0 -129.5 21.5t-106 66.5t-71.5 113t-26 161q0 84 22.5 153.5t66 119t108.5 76.5t150 27q75 0 139 -25.5t104 -91.5l-96 -49q-29 50 -66.5 67.5t-89.5 17.5q-33 0 -73.5 -11t-76.5 -42.5t-60 -87 t-24 -145.5q0 -60 12 -113t40.5 -92t76 -62t118.5 -23q39 0 73.5 7.5t66.5 21.5v182z"/>
    <glyph glyph-name="H" unicode="H" horiz-adv-x="737" d="M549 333h-361v-333h-96v718h96v-304h361v304h96v-718h-96v333z"/>
    <glyph glyph-name="I" unicode="I" horiz-adv-x="280" d="M92 718h96v-718h-96v718z"/>
    <glyph glyph-name="J" unicode="J" horiz-adv-x="538" d="M210 -10q-54 0 -103.5 15.5t-90.5 42.5l48 85q34 -28 70.5 -44t81.5 -16t73 13.5t43.5 35t21 49.5t5.5 57v490h93v-479q0 -58 -13 -104t-42 -78t-75 -49.5t-112 -17.5z"/>
    <glyph glyph-name="K" unicode="K" horiz-adv-x="622" d="M92 718h95v-333l303 333h112l-287 -309l318 -409h-123l-257 342l-66 -71v-271h-95v718z"/>
    <glyph glyph-name="L" unicode="L" horiz-adv-x="534" d="M92 718h96v-635h334v-83h-430v718z"/>
    <glyph glyph-name="M" unicode="M" horiz-adv-x="872" d="M690 546h-2l-213 -546h-73l-221 545h-2l-15 -545h-89l24 718h107l236 -577l228 577h103l24 -718h-91z"/>
    <glyph glyph-name="N" unicode="N" horiz-adv-x="761" d="M188 589h-2v-589h-94v718h123l360 -594h2v594h92v-718h-122z"/>
    <glyph glyph-name="O" unicode="O" horiz-adv-x="766" d="M383 647q-52 0 -95 -19t-73 -55.5t-46.5 -89t-16.5 -120.5q0 -64 16 -117.5t46 -92.5t73 -60.5t96 -21.5t96 21.5t73 60.5t46 92.5t16 117.5q0 136 -62 210t-169 74zM376 -10q-71 0 -131 25t-104 72.5t-68.5 115.5t-24.5 154q0 89 25.5 158.5t71 116.5t108.5 71.5 t137 24.5q73 0 133 -24.5t103.5 -71t67.5 -113t24 -151.5q0 -83 -24 -152.5t-68.5 -119.5t-107.5 -78t-142 -28z"/>
    <glyph glyph-name="P" unicode="P" horiz-adv-x="589" d="M297 646q-34 0 -59 -1.5t-50 -4.5v-249q27 -8 56 -12t65 -4q72 0 113.5 32.5t41.5 107.5t-42 103t-125 28zM303 295q-32 0 -58 2t-57 7v-304h-96v715q45 4 97.5 7t103.5 3q53 0 102 -7.5t87 -29.5t60.5 -62t22.5 -105q0 -59 -21 -102t-57 -70.5t-83.5 -40.5t-100.5 -13z "/>
    <glyph glyph-name="Q" unicode="Q" horiz-adv-x="766" d="M383 647q-52 0 -95 -19t-73 -55.5t-46.5 -89t-16.5 -120.5q0 -64 16 -117.5t46 -92.5t73 -60.5t96 -21.5t96 21.5t73 60.5t46 92.5t16 117.5q0 136 -62 210t-169 74zM376 -10q-71 0 -131 25t-104 72.5t-68.5 115.5t-24.5 154q0 89 25.5 158.5t71 116.5t108.5 71.5 t137 24.5q73 0 133 -24.5t103.5 -71t67.5 -113t24 -151.5q0 -121 -49.5 -211.5t-139.5 -133.5l172 -119l-70 -77l-219 165q-8 -1 -17 -1.5t-19 -0.5z"/>
    <glyph glyph-name="R" unicode="R" horiz-adv-x="638" d="M299 646q-30 0 -57 -1.5t-54 -4.5v-243q23 -4 49 -5t47 -1q34 0 66 5t57.5 18.5t41 39t15.5 65.5q0 39 -13 64t-35.5 39t-52.5 19t-64 5zM188 0h-96v715q23 2 49.5 4t54 3.5t53.5 2t47 0.5q53 0 101.5 -7.5t85.5 -29.5t59.5 -62t22.5 -104q0 -28 -8.5 -57.5t-28 -56 t-51 -48t-78.5 -33.5l216 -327h-122l-174 285q-6 9 -10 14.5t-9.5 8.5t-13.5 4t-21 1h-77v-313z"/>
    <glyph glyph-name="S" unicode="S" horiz-adv-x="579" d="M287 -10q-32 0 -60.5 3.5t-56 11t-55.5 19t-58 27.5l42 90q40 -27 86.5 -47.5t102.5 -20.5q31 0 57.5 8t46 23.5t30.5 38.5t11 53q0 48 -24 70.5t-66 35.5l-81 26q-27 8 -60 20.5t-61 34.5t-47 56.5t-19 87.5q0 50 19.5 87.5t51.5 63t73 38t85 12.5q55 0 97.5 -10.5 t84.5 -30.5l-41 -85q-34 19 -67.5 31t-78.5 12q-54 0 -88 -28.5t-34 -83.5q0 -44 22 -68t75 -41l75 -24q32 -10 65 -22t59 -33t42 -54.5t16 -87.5q0 -46 -19.5 -85t-52.5 -67.5t-77.5 -44.5t-94.5 -16z"/>
    <glyph glyph-name="T" unicode="T" horiz-adv-x="538" d="M317 0h-96v634h-204v84h504v-84h-204v-634z"/>
    <glyph glyph-name="U" unicode="U" horiz-adv-x="720" d="M358 -10q-64 0 -109 14.5t-75 38t-47.5 55t-26.5 65t-11.5 67.5t-2.5 64v424h96v-438q0 -48 7.5 -86.5t27.5 -65.5t54.5 -41.5t88.5 -14.5q60 0 95.5 18t54 47t23.5 65t5 72v444h96v-418q0 -19 -2 -50t-10.5 -65t-25.5 -69t-47.5 -63t-77 -45.5t-113.5 -17.5z"/>
    <glyph glyph-name="V" unicode="V" horiz-adv-x="649" d="M267 0l-253 718h101l209 -628h1l211 628h99l-254 -718h-114z"/>
    <glyph glyph-name="W" unicode="W" horiz-adv-x="1008" d="M676 0l-172 569l-161 -569h-101l-214 718h102l166 -603l167 603h91l175 -602l157 602h94l-204 -718h-100z"/>
    <glyph glyph-name="X" unicode="X" horiz-adv-x="671" d="M329 308l-188 -308h-113l249 372l-233 346h115l181 -284l177 284h108l-232 -351l250 -367h-117z"/>
    <glyph glyph-name="Y" unicode="Y" horiz-adv-x="560" d="M331 0h-101v309l-235 409h110l181 -328l179 328h100l-234 -408v-310z"/>
    <glyph glyph-name="Z" unicode="Z" horiz-adv-x="590" d="M38 81l401 554h-386v83h504v-81l-401 -553h411v-84h-529v81z"/>
    <glyph glyph-name="bracketleft" unicode="[" horiz-adv-x="336" d="M89 700h206v-80h-114v-770h114v-80h-206v930z"/>
    <glyph glyph-name="backslash" unicode="\" horiz-adv-x="421" d="M442 -103l-76 -37l-402 816l76 36z"/>
    <glyph glyph-name="bracketright" unicode="]" horiz-adv-x="336" d="M247 -230h-206v80h114v770h-114v80h206v-930z"/>
    <glyph glyph-name="asciicircum" unicode="^" horiz-adv-x="554" d="M266 710h38l188 -280h-98l-85 132l-26 69l-32 -70l-100 -131h-90z"/>
    <glyph glyph-name="underscore" unicode="_" horiz-adv-x="452" d="M0 -131h452v-78h-452v78z"/>
    <glyph glyph-name="grave" unicode="`" horiz-adv-x="301" d="M241 570h-54l-127 127v23h110z"/>
    <glyph glyph-name="a" unicode="a" horiz-adv-x="520" d="M262 221q-33 0 -62 -3q-32 -5 -52.5 -22.5t-20.5 -53.5q0 -38 25.5 -56.5t60.5 -18.5q44 0 77 24t50 61q10 24 10 54v15h-88zM363 0q-2 16 -4.5 43t-2.5 49q-26 -48 -68 -75t-100 -27q-33 0 -61 10t-48.5 29t-32 46.5t-11.5 61.5q0 59 32 93t88 46q23 5 53 7t62 2h80v47 q0 51 -20 77.5t-74 26.5q-40 0 -74.5 -11.5t-76.5 -32.5l-27 74q50 22 93 33t89 11q41 0 70 -8t49.5 -21.5t32.5 -32.5t19 -41q5 -15 6.5 -32t1.5 -37v-140q0 -27 0.5 -51.5t2.5 -48.5t6.5 -48t11.5 -50h-97z"/>
    <glyph glyph-name="b" unicode="b" horiz-adv-x="587" d="M210 373q-20 -31 -27 -69t-7 -74v-151q23 -9 47.5 -13t50.5 -4q78 0 118 52t40 146q0 91 -31.5 131t-88.5 40q-36 0 -61 -16.5t-41 -41.5zM83 718h93v-309h2q22 49 61 75t93 26q49 0 85.5 -19t61 -51.5t37 -76.5t12.5 -95q0 -76 -23 -129t-61 -86t-86.5 -48t-98.5 -15 q-40 0 -88.5 7t-87.5 21v700z"/>
    <glyph glyph-name="c" unicode="c" horiz-adv-x="496" d="M396 372q-17 35 -40 50.5t-58 15.5q-17 0 -41.5 -6t-47 -25.5t-38.5 -56.5t-16 -99q0 -40 7.5 -74.5t25 -60t47 -40t73.5 -14.5q35 0 66 9.5t57 23.5l28 -70q-38 -16 -75 -25.5t-90 -9.5q-48 0 -91 15t-75.5 46.5t-51 79.5t-18.5 113q0 69 20.5 119t54 82.5t77 48.5 t89.5 16q57 0 104 -19.5t76 -74.5z"/>
    <glyph glyph-name="d" unicode="d" horiz-adv-x="587" d="M411 421q-23 9 -47.5 13t-50.5 4q-78 0 -118.5 -52t-40.5 -146q0 -91 32 -131t89 -40q35 0 60.5 16.5t41.5 41.5q20 31 27 69t7 74v151zM327 510q23 0 42.5 -1.5t41.5 -4.5v214h93v-718h-93v91h-2q-23 -49 -62 -75t-92 -26q-49 0 -86 19t-61.5 51.5t-37 76.5t-12.5 95 q0 76 23 129t61 86t86.5 48t98.5 15z"/>
    <glyph glyph-name="e" unicode="e" horiz-adv-x="536" d="M295 439q-56 0 -92 -34t-47 -88h240q0 24 -5 46t-17 39t-31.5 27t-47.5 10zM150 253q-1 -40 7.5 -75t27.5 -60.5t49.5 -40.5t72.5 -15q39 0 71.5 11.5t62.5 26.5l28 -71q-47 -20 -86 -29.5t-90 -9.5q-48 0 -90.5 15t-74.5 46.5t-51 79.5t-19 113q0 71 21.5 121.5t56 82.5 t77.5 47t85 15q51 0 87 -16.5t59 -46t34 -70t11 -88.5v-36h-339z"/>
    <glyph glyph-name="f" unicode="f" horiz-adv-x="354" d="M365 630q-32 24 -81 24q-46 0 -64.5 -27.5t-18.5 -76.5v-54h142v-69h-142v-427h-93v427h-82v69h82v51q0 81 41.5 131t128.5 50q42 0 73 -9.5t51 -19.5z"/>
    <glyph glyph-name="g" unicode="g" horiz-adv-x="529" d="M190 28q-26 -9 -39 -30.5t-13 -47.5q0 -30 13 -50.5t34 -32.5t46.5 -17.5t50.5 -5.5q63 0 101 26.5t38 70.5q0 15 -5.5 25.5t-14.5 17t-21 10.5t-25 6zM382 343q0 51 -28.5 78t-82.5 27q-53 0 -82 -27t-29 -78q0 -48 28.5 -77.5t82.5 -29.5t82.5 29.5t28.5 77.5zM508 -48 q0 -29 -11.5 -60.5t-39.5 -58t-73 -44t-113 -17.5q-38 0 -77.5 8.5t-71.5 28t-52 50.5t-20 76q0 40 22.5 68t58.5 42q-33 13 -51 36t-18 60q0 28 13 51t34 40q-37 42 -37 107q0 43 16 75t43.5 53.5t64 32t78.5 10.5q41 0 76 -11q18 -4 31 -5t28 -1q20 0 51 1t51 2v-76l-65 7 q22 -38 22 -82q0 -39 -14 -71.5t-40.5 -55t-63.5 -35t-84 -12.5q-66 0 -113 26q-18 -15 -18 -36q0 -15 5.5 -24.5t15.5 -15t22.5 -8.5t26.5 -5l158 -25q24 -4 49.5 -10t47 -19.5t35 -37.5t13.5 -64z"/>
    <glyph glyph-name="h" unicode="h" horiz-adv-x="583" d="M410 331q0 29 -7 48.5t-19 30.5t-27 15.5t-31 4.5q-48 0 -82 -27t-52 -69q-9 -23 -12.5 -48t-3.5 -50v-236h-93v718h93v-310h2q25 51 66.5 76.5t95.5 25.5q35 0 64.5 -9.5t51.5 -31t34.5 -56t12.5 -85.5v-328h-93v331z"/>
    <glyph glyph-name="i" unicode="i" horiz-adv-x="259" d="M60 658q0 29 20 49.5t49 20.5t49.5 -20t20.5 -49t-20 -49.5t-49 -20.5t-49.5 20.5t-20.5 49.5v-1zM83 500h93v-500h-93v500z"/>
    <glyph glyph-name="j" unicode="j" horiz-adv-x="259" d="M64 658q0 29 20.5 49.5t49.5 20.5t49 -20t20 -49t-20 -49.5t-49 -20.5t-49.5 20.5t-20.5 49.5v-1zM154 -145q-25 -45 -67.5 -64t-90.5 -19q-67 0 -134 35l40 72q17 -14 41 -23.5t51 -9.5q31 0 49.5 11t28 28t12.5 38.5t3 42.5v534h93v-495q0 -47 -4.5 -82.5t-21.5 -67.5z "/>
    <glyph glyph-name="k" unicode="k" horiz-adv-x="515" d="M83 718h93v-419l218 201h109l-212 -192l223 -308h-110l-174 253l-54 -49v-204h-93v718z"/>
    <glyph glyph-name="l" unicode="l" horiz-adv-x="287" d="M173 137q0 -12 0.5 -25t5 -23.5t14 -17t27.5 -6.5q12 0 20.5 2.5t17.5 7.5l32 -65q-20 -11 -38.5 -15.5t-42.5 -4.5q-28 0 -51.5 7t-40.5 24.5t-27 46.5t-10 73v577h93v-581z"/>
    <glyph glyph-name="m" unicode="m" horiz-adv-x="904" d="M338 510q57 0 98.5 -26t56.5 -89q14 24 29.5 45t35.5 36.5t45.5 24.5t58.5 9q35 0 64.5 -9.5t51 -31t34 -56t12.5 -85.5v-328h-93v331q0 29 -7 48.5t-18.5 30.5t-26.5 15.5t-31 4.5q-48 0 -81 -27t-51 -69q-9 -23 -12.5 -48t-3.5 -50v-236h-93v331q0 29 -7 48.5 t-18.5 30.5t-26.5 15.5t-31 4.5q-48 0 -81 -27t-51 -69q-9 -23 -12.5 -48t-3.5 -50v-236h-93v500h93v-92h2q50 102 160 102z"/>
    <glyph glyph-name="n" unicode="n" horiz-adv-x="583" d="M410 331q0 29 -7 48.5t-19 30.5t-27 15.5t-31 4.5q-48 0 -82 -27t-52 -69q-9 -23 -12.5 -48t-3.5 -50v-236h-93v500h93v-92h2q25 51 66.5 76.5t95.5 25.5q35 0 64.5 -9.5t51.5 -31t34.5 -56t12.5 -85.5v-328h-93v331z"/>
    <glyph glyph-name="o" unicode="o" horiz-adv-x="577" d="M289 438q-64 0 -99.5 -48.5t-35.5 -136.5q0 -42 9 -77t26.5 -60.5t42.5 -39.5t57 -14t57.5 14t42.5 39.5t26 60.5t9 77q0 88 -35 136.5t-100 48.5zM284 -10q-50 0 -91.5 17.5t-71.5 51t-46.5 81.5t-16.5 109q0 63 17 111.5t48 81.5t74.5 50.5t95.5 17.5q51 0 93 -17.5 t71.5 -50t45.5 -79.5t16 -107q0 -58 -16 -107t-46 -84.5t-73.5 -55t-99.5 -19.5z"/>
    <glyph glyph-name="p" unicode="p" horiz-adv-x="587" d="M176 79q23 -9 47.5 -13t50.5 -4q78 0 118 52t40 146q0 91 -31.5 131t-88.5 40q-36 0 -61 -16.5t-41 -41.5q-20 -31 -27 -69t-7 -74v-151zM259 -10q-23 0 -42 1.5t-41 4.5v-214h-93v718h93v-91h2q22 49 61 75t93 26q49 0 85.5 -19t61 -51.5t37 -76.5t12.5 -95 q0 -76 -23 -129t-61 -86t-86.5 -48t-98.5 -15z"/>
    <glyph glyph-name="q" unicode="q" horiz-adv-x="586" d="M411 421q-23 9 -47.5 13t-50.5 4q-78 0 -118.5 -52t-40.5 -146q0 -91 32 -131t89 -40q35 0 60.5 16.5t41.5 41.5q20 31 27 69t7 74v151zM327 510q43 0 88 -7t89 -19v-702h-93v309h-2q-23 -49 -62 -75t-92 -26q-49 0 -86 19t-61.5 51.5t-37 76.5t-12.5 95q0 76 23 129 t61 86t86.5 48t98.5 15z"/>
    <glyph glyph-name="r" unicode="r" horiz-adv-x="367" d="M345 408q-22 4 -44 2t-41.5 -8t-36 -17t-26.5 -25q-21 -30 -21 -79v-281h-93v500h93v-92h2q23 50 68 78t120 24z"/>
    <glyph glyph-name="s" unicode="s" horiz-adv-x="449" d="M217 -10q-47 0 -90.5 10t-85.5 34l38 79q31 -23 66.5 -36.5t73.5 -13.5q20 0 38 4.5t32.5 14t23 25t8.5 36.5q0 15 -6 25.5t-15.5 17.5t-22 11.5t-26.5 8.5l-49 14q-27 8 -53.5 18.5t-47 26t-33.5 39t-13 57.5q0 37 15 65t40 46.5t58.5 28t69.5 9.5q41 0 76.5 -8 t68.5 -25l-37 -74q-26 16 -51 25t-61 9q-33 0 -60 -16.5t-27 -53.5q0 -17 6 -28t15.5 -18t22.5 -11.5t26 -8.5l52 -16q29 -9 54.5 -18.5t44.5 -25t30.5 -38.5t11.5 -58q0 -34 -15.5 -62.5t-41.5 -49t-61.5 -32t-74.5 -11.5z"/>
    <glyph glyph-name="t" unicode="t" horiz-adv-x="408" d="M271 -10q-48 0 -80 15.5t-50.5 42t-26 62.5t-7.5 77v240h-81v69h81v118l93 45v-163h172v-69h-172v-246q0 -18 1 -39t8.5 -38t24.5 -28.5t48 -11.5q24 0 42 8t32 19l34 -72q-29 -16 -58 -22.5t-61 -6.5z"/>
    <glyph glyph-name="u" unicode="u" horiz-adv-x="579" d="M173 169q0 -29 7 -48t18.5 -30.5t26 -16t30.5 -4.5q48 0 81 27t51 69q9 23 12.5 48t3.5 50v236h93v-500h-93v92h-2q-50 -102 -160 -102q-34 0 -63.5 9.5t-51.5 31t-34 56t-12 85.5v328h93v-331z"/>
    <glyph glyph-name="v" unicode="v" horiz-adv-x="507" d="M206 0l-192 500h99l144 -414l145 414h91l-192 -500h-95z"/>
    <glyph glyph-name="w" unicode="w" horiz-adv-x="803" d="M524 0l-123 385l-121 -385h-88l-169 500h93l123 -398l123 398h86l123 -398l122 398h87l-170 -500h-86z"/>
    <glyph glyph-name="x" unicode="x" horiz-adv-x="504" d="M248 200l-130 -200h-99l180 255l-170 245h107l117 -182l122 182h96l-168 -241l182 -259h-109z"/>
    <glyph glyph-name="y" unicode="y" horiz-adv-x="504" d="M119 -218l89 211l-194 507h99l142 -410l144 410h91l-276 -718h-95z"/>
    <glyph glyph-name="z" unicode="z" horiz-adv-x="454" d="M33 69l273 354h-263v77h367v-69l-272 -353h280v-78h-385v69z"/>
    <glyph glyph-name="braceleft" unicode="{" horiz-adv-x="383" d="M146 108q0 51 -22.5 70t-64.5 19v76q42 0 64.5 20.5t22.5 64.5v233q0 48 26 79t79 31h100v-80h-56q-57 0 -57 -62v-224q0 -44 -23.5 -66.5t-53.5 -27.5v-8q29 -4 53 -30t24 -68v-223q0 -31 13.5 -46.5t44.5 -15.5h55v-80h-100q-49 0 -77 28t-28 81v229z"/>
    <glyph glyph-name="bar" unicode="|" horiz-adv-x="258" d="M89 700h80v-830h-80v830z"/>
    <glyph glyph-name="braceright" unicode="}" horiz-adv-x="383" d="M263 363q0 -51 23 -70t65 -19v-76q-42 0 -65 -20.5t-23 -64.5v-233q0 -48 -26.5 -79t-80.5 -31h-97v80h55q57 0 57 62v224q0 44 23.5 66.5t52.5 27.5v8q-29 4 -52.5 30t-23.5 68v223q0 62 -58 62h-54v80h98q49 0 77.5 -28t28.5 -81v-229z"/>
    <glyph glyph-name="asciitilde" unicode="~" horiz-adv-x="554" d="M34 365q48 34 86 47t70 13q31 0 57 -8.5t50.5 -18.5t47.5 -18.5t48 -8.5q20 0 42 7.5t48 27.5l37 -71q-41 -26 -73 -36.5t-59 -10.5q-29 0 -53.5 8.5t-48 19t-46.5 19.5t-50 9q-25 0 -54 -11t-66 -38z"/>
    <glyph glyph-name="uni0085" unicode="" horiz-adv-x="777" d="M665 -10q-31 0 -52.5 21t-21.5 52q0 30 21.5 51t52.5 21t52.5 -21t21.5 -51q0 -31 -21.5 -52t-52.5 -21zM406 -10q-31 0 -52.5 21t-21.5 52q0 30 21.5 51t52.5 21t52.5 -21t21.5 -51q0 -31 -21.5 -52t-52.5 -21zM147 -10q-31 0 -52.5 21t-21.5 52q0 30 21.5 51t52.5 21 t52.5 -21t21.5 -51q0 -31 -21.5 -52t-52.5 -21z"/>
    <glyph glyph-name="uni0085" unicode="…" horiz-adv-x="777" d="M665 -10q-31 0 -52.5 21t-21.5 52q0 30 21.5 51t52.5 21t52.5 -21t21.5 -51q0 -31 -21.5 -52t-52.5 -21zM406 -10q-31 0 -52.5 21t-21.5 52q0 30 21.5 51t52.5 21t52.5 -21t21.5 -51q0 -31 -21.5 -52t-52.5 -21zM147 -10q-31 0 -52.5 21t-21.5 52q0 30 21.5 51t52.5 21 t52.5 -21t21.5 -51q0 -31 -21.5 -52t-52.5 -21z"/>
    <glyph glyph-name="uni0092" horiz-adv-x="259" d="M51 456l26.5 33.5t19 27.5t11.5 25t4 26t-6.5 23.5t-21.5 18.5l-19 12q-4 9 -4.5 18t-0.5 17q0 26 20 48.5t53 22.5q35 0 55 -23t20 -65q0 -19 -4 -42t-15.5 -50t-33 -59.5t-56.5 -70.5z"/>
    <glyph glyph-name="uni0092" unicode="’" horiz-adv-x="259" d="M51 456l26.5 33.5t19 27.5t11.5 25t4 26t-6.5 23.5t-21.5 18.5l-19 12q-4 9 -4.5 18t-0.5 17q0 26 20 48.5t53 22.5q35 0 55 -23t20 -65q0 -19 -4 -42t-15.5 -50t-33 -59.5t-56.5 -70.5z"/>
    <glyph glyph-name="uni0093" horiz-adv-x="471" d="M208 692l-26.5 -33.5t-19 -27.5t-11.5 -25t-4 -26t6.5 -23.5t21.5 -18.5l19 -12q4 -9 4.5 -18t0.5 -17q0 -26 -20 -48.5t-53 -22.5q-35 0 -55 23t-20 65q0 19 4 42t15.5 50t33 59.5t56.5 70.5zM420 692l-26.5 -33.5t-19 -27.5t-11.5 -25t-4 -26t7 -23.5t21 -18.5l19 -12 q4 -9 4.5 -18t0.5 -17q0 -26 -20 -48.5t-53 -22.5q-35 0 -55 23t-20 65q0 19 4 42t15.5 50t33 59.5t56.5 70.5z"/>
    <glyph glyph-name="uni0093" unicode="“" horiz-adv-x="471" d="M208 692l-26.5 -33.5t-19 -27.5t-11.5 -25t-4 -26t6.5 -23.5t21.5 -18.5l19 -12q4 -9 4.5 -18t0.5 -17q0 -26 -20 -48.5t-53 -22.5q-35 0 -55 23t-20 65q0 19 4 42t15.5 50t33 59.5t56.5 70.5zM420 692l-26.5 -33.5t-19 -27.5t-11.5 -25t-4 -26t7 -23.5t21 -18.5l19 -12 q4 -9 4.5 -18t0.5 -17q0 -26 -20 -48.5t-53 -22.5q-35 0 -55 23t-20 65q0 19 4 42t15.5 50t33 59.5t56.5 70.5z"/>
    <glyph glyph-name="uni0094" horiz-adv-x="471" d="M263 456l26.5 33.5t19 27.5t11.5 25t4 26t-6.5 23.5t-21.5 18.5l-19 12q-4 9 -4.5 18t-0.5 17q0 26 20 48.5t53 22.5q35 0 55 -23t20 -65q0 -19 -4 -42t-15.5 -50t-33 -59.5t-56.5 -70.5zM51 456l26.5 33.5t19 27.5t11.5 25t4 26t-6.5 23.5t-21.5 18.5l-19 12 q-4 9 -4.5 18t-0.5 17q0 26 20 48.5t53 22.5q35 0 55 -23t20 -65q0 -19 -4 -42t-15.5 -50t-33 -59.5t-56.5 -70.5z"/>
    <glyph glyph-name="uni0094" unicode="”" horiz-adv-x="471" d="M263 456l26.5 33.5t19 27.5t11.5 25t4 26t-6.5 23.5t-21.5 18.5l-19 12q-4 9 -4.5 18t-0.5 17q0 26 20 48.5t53 22.5q35 0 55 -23t20 -65q0 -19 -4 -42t-15.5 -50t-33 -59.5t-56.5 -70.5zM51 456l26.5 33.5t19 27.5t11.5 25t4 26t-6.5 23.5t-21.5 18.5l-19 12 q-4 9 -4.5 18t-0.5 17q0 26 20 48.5t53 22.5q35 0 55 -23t20 -65q0 -19 -4 -42t-15.5 -50t-33 -59.5t-56.5 -70.5z"/>
    <glyph glyph-name="uni0095" horiz-adv-x="318" d="M159 -10q-30 0 -56 11.5t-45.5 31t-31 45.5t-11.5 56t11.5 56t31 45.5t45.5 31t56 11.5t56 -11.5t45.5 -31t31 -45.5t11.5 -56t-11.5 -56t-31 -45.5t-45.5 -31t-56 -11.5z"/>
    <glyph glyph-name="uni0095" unicode="•" horiz-adv-x="318" d="M159 -10q-30 0 -56 11.5t-45.5 31t-31 45.5t-11.5 56t11.5 56t31 45.5t45.5 31t56 11.5t56 -11.5t45.5 -31t31 -45.5t11.5 -56t-11.5 -56t-31 -45.5t-45.5 -31t-56 -11.5z"/>
    <glyph glyph-name="uni0097" horiz-adv-x="905" d="M45 299h815v-93h-815v93z"/>
    <glyph glyph-name="uni0097" unicode="—" horiz-adv-x="905" d="M45 299h815v-93h-815v93z"/>
    <glyph glyph-name="uni009C" horiz-adv-x="886" d="M647 439q-60 0 -92 -32.5t-43 -89.5h239q0 25 -5.5 47.5t-18 39t-32.5 26t-48 9.5zM506 253q-1 -40 6 -75t24.5 -60.5t47 -40.5t74.5 -15q40 0 72 12t62 27l28 -71q-48 -20 -88.5 -30t-88.5 -10q-57 0 -104.5 21.5t-78.5 66.5q-29 -42 -74.5 -65t-106.5 -23 q-50 0 -91 17.5t-70 51t-44.5 81.5t-15.5 109q0 63 16.5 111.5t46.5 81.5t72.5 50.5t94.5 17.5q59 0 103.5 -22t73.5 -64q29 40 74.5 63t110.5 23q51 0 86.5 -16.5t58.5 -46t33.5 -70t10.5 -88.5v-36h-333zM284 438q-65 0 -98.5 -48.5t-33.5 -136.5q0 -42 8.5 -77t25 -60.5 t41 -39.5t57.5 -14t57.5 14t41 39.5t24.5 60.5t8 77q0 88 -32.5 136.5t-98.5 48.5z"/>
    <glyph glyph-name="uni009C" unicode="œ" horiz-adv-x="886" d="M647 439q-60 0 -92 -32.5t-43 -89.5h239q0 25 -5.5 47.5t-18 39t-32.5 26t-48 9.5zM506 253q-1 -40 6 -75t24.5 -60.5t47 -40.5t74.5 -15q40 0 72 12t62 27l28 -71q-48 -20 -88.5 -30t-88.5 -10q-57 0 -104.5 21.5t-78.5 66.5q-29 -42 -74.5 -65t-106.5 -23 q-50 0 -91 17.5t-70 51t-44.5 81.5t-15.5 109q0 63 16.5 111.5t46.5 81.5t72.5 50.5t94.5 17.5q59 0 103.5 -22t73.5 -64q29 40 74.5 63t110.5 23q51 0 86.5 -16.5t58.5 -46t33.5 -70t10.5 -88.5v-36h-333zM284 438q-65 0 -98.5 -48.5t-33.5 -136.5q0 -42 8.5 -77t25 -60.5 t41 -39.5t57.5 -14t57.5 14t41 39.5t24.5 60.5t8 77q0 88 -32.5 136.5t-98.5 48.5z"/>
    <glyph glyph-name="guillemotleft" unicode="«" horiz-adv-x="471" d="M208 692l-26.5 -33.5t-19 -27.5t-11.5 -25t-4 -26t6.5 -23.5t21.5 -18.5l19 -12q4 -9 4.5 -18t0.5 -17q0 -26 -20 -48.5t-53 -22.5q-35 0 -55 23t-20 65q0 19 4 42t15.5 50t33 59.5t56.5 70.5zM420 692l-26.5 -33.5t-19 -27.5t-11.5 -25t-4 -26t7 -23.5t21 -18.5l19 -12 q4 -9 4.5 -18t0.5 -17q0 -26 -20 -48.5t-53 -22.5q-35 0 -55 23t-20 65q0 19 4 42t15.5 50t33 59.5t56.5 70.5z"/>
    <glyph glyph-name="guillemotright" unicode="»" horiz-adv-x="471" d="M263 456l26.5 33.5t19 27.5t11.5 25t4 26t-6.5 23.5t-21.5 18.5l-19 12q-4 9 -4.5 18t-0.5 17q0 26 20 48.5t53 22.5q35 0 55 -23t20 -65q0 -19 -4 -42t-15.5 -50t-33 -59.5t-56.5 -70.5zM51 456l26.5 33.5t19 27.5t11.5 25t4 26t-6.5 23.5t-21.5 18.5l-19 12 q-4 9 -4.5 18t-0.5 17q0 26 20 48.5t53 22.5q35 0 55 -23t20 -65q0 -19 -4 -42t-15.5 -50t-33 -59.5t-56.5 -70.5z"/>
    <glyph glyph-name="Agrave" unicode="À" horiz-adv-x="638" d="M376 718l254 -718h-99l-73 220h-280l-74 -220h-96l254 718h114zM320 633h-3l-112 -334h226zM136 914h132l102 -140h-96z"/>
    <glyph glyph-name="Egrave" unicode="È" horiz-adv-x="595" d="M92 718h431v-81h-335v-220h301v-80h-301v-256h348v-81h-444v718zM171 914h132l102 -140h-96z"/>
    <glyph glyph-name="Eacute" unicode="É" horiz-adv-x="595" d="M92 718h431v-81h-335v-220h301v-80h-301v-256h348v-81h-444v718zM223 774l102 140h132l-138 -140h-96z"/>
    <glyph glyph-name="Icircumflex" unicode="Î" horiz-adv-x="280" d="M139 873l-96 -99h-94l117 140h144l117 -140h-94zM92 718h96v-718h-96v718z"/>
    <glyph glyph-name="agrave" unicode="à" horiz-adv-x="520" d="M262 221q-33 0 -62 -3q-32 -5 -52.5 -22.5t-20.5 -53.5q0 -38 25.5 -56.5t60.5 -18.5q44 0 77 24t50 61q10 24 10 54v15h-88zM363 0q-2 16 -4.5 43t-2.5 49q-26 -48 -68 -75t-100 -27q-33 0 -61 10t-48.5 29t-32 46.5t-11.5 61.5q0 59 32 93t88 46q23 5 53 7t62 2h80v47 q0 51 -20 77.5t-74 26.5q-40 0 -74.5 -11.5t-76.5 -32.5l-27 74q50 22 93 33t89 11q41 0 70 -8t49.5 -21.5t32.5 -32.5t19 -41q5 -15 6.5 -32t1.5 -37v-140q0 -27 0.5 -51.5t2.5 -48.5t6.5 -48t11.5 -50h-97zM124 718h132l102 -140h-96z"/>
    <glyph glyph-name="acircumflex" unicode="â" horiz-adv-x="520" d="M262 221q-33 0 -62 -3q-32 -5 -52.5 -22.5t-20.5 -53.5q0 -38 25.5 -56.5t60.5 -18.5q44 0 77 24t50 61q10 24 10 54v15h-88zM363 0q-2 16 -4.5 43t-2.5 49q-26 -48 -68 -75t-100 -27q-33 0 -61 10t-48.5 29t-32 46.5t-11.5 61.5q0 59 32 93t88 46q23 5 53 7t62 2h80v47 q0 51 -20 77.5t-74 26.5q-40 0 -74.5 -11.5t-76.5 -32.5l-27 74q50 22 93 33t89 11q41 0 70 -8t49.5 -21.5t32.5 -32.5t19 -41q5 -15 6.5 -32t1.5 -37v-140q0 -27 0.5 -51.5t2.5 -48.5t6.5 -48t11.5 -50h-97zM261 677l-96 -99h-94l117 140h144l117 -140h-94z"/>
    <glyph glyph-name="ccedilla" unicode="ç" horiz-adv-x="496" d="M396 372q-17 35 -40 50.5t-58 15.5q-17 0 -41.5 -6t-47 -25.5t-38.5 -56.5t-16 -99q0 -40 7.5 -74.5t25 -60t47 -40t73.5 -14.5q35 0 66 9.5t57 23.5l28 -70q-35 -14 -68 -23.5t-78 -11.5q-8 -24 -23 -43q35 -2 59 -20t24 -61q0 -24 -9.5 -41.5t-24.5 -29.5t-35 -17.5 t-41 -5.5q-15 0 -34 4.5t-40 19.5l33 52q11 -10 20 -12.5t21 -2.5q20 0 31 9t11 23t-10.5 22.5t-34.5 8.5q-8 0 -15 -2t-16 -5l-25 41q26 11 37 27.5t16 34.5q-42 5 -78 23t-63 49.5t-42.5 76t-15.5 103.5q0 69 20.5 119t54 82.5t77 48.5t89.5 16q57 0 104 -19.5t76 -74.5z "/>
    <glyph glyph-name="egrave" unicode="è" horiz-adv-x="536" d="M295 439q-56 0 -92 -34t-47 -88h240q0 24 -5 46t-17 39t-31.5 27t-47.5 10zM150 253q-1 -40 7.5 -75t27.5 -60.5t49.5 -40.5t72.5 -15q39 0 71.5 11.5t62.5 26.5l28 -71q-47 -20 -86 -29.5t-90 -9.5q-48 0 -90.5 15t-74.5 46.5t-51 79.5t-19 113q0 71 21.5 121.5t56 82.5 t77.5 47t85 15q51 0 87 -16.5t59 -46t34 -70t11 -88.5v-36h-339zM129 718h132l102 -140h-96z"/>
    <glyph glyph-name="eacute" unicode="é" horiz-adv-x="536" d="M295 439q-56 0 -92 -34t-47 -88h240q0 24 -5 46t-17 39t-31.5 27t-47.5 10zM150 253q-1 -40 7.5 -75t27.5 -60.5t49.5 -40.5t72.5 -15q39 0 71.5 11.5t62.5 26.5l28 -71q-47 -20 -86 -29.5t-90 -9.5q-48 0 -90.5 15t-74.5 46.5t-51 79.5t-19 113q0 71 21.5 121.5t56 82.5 t77.5 47t85 15q51 0 87 -16.5t59 -46t34 -70t11 -88.5v-36h-339zM194 578l102 140h132l-138 -140h-96z"/>
    <glyph glyph-name="ecircumflex" unicode="ê" horiz-adv-x="536" d="M295 439q-56 0 -92 -34t-47 -88h240q0 24 -5 46t-17 39t-31.5 27t-47.5 10zM150 253q-1 -40 7.5 -75t27.5 -60.5t49.5 -40.5t72.5 -15q39 0 71.5 11.5t62.5 26.5l28 -71q-47 -20 -86 -29.5t-90 -9.5q-48 0 -90.5 15t-74.5 46.5t-51 79.5t-19 113q0 71 21.5 121.5t56 82.5 t77.5 47t85 15q51 0 87 -16.5t59 -46t34 -70t11 -88.5v-36h-339zM290 677l-96 -99h-94l117 140h144l117 -140h-94z"/>
    <glyph glyph-name="edieresis" unicode="ë" horiz-adv-x="536" d="M295 439q-56 0 -92 -34t-47 -88h240q0 24 -5 46t-17 39t-31.5 27t-47.5 10zM150 253q-1 -40 7.5 -75t27.5 -60.5t49.5 -40.5t72.5 -15q39 0 71.5 11.5t62.5 26.5l28 -71q-47 -20 -86 -29.5t-90 -9.5q-48 0 -90.5 15t-74.5 46.5t-51 79.5t-19 113q0 71 21.5 121.5t56 82.5 t77.5 47t85 15q51 0 87 -16.5t59 -46t34 -70t11 -88.5v-36h-339zM375 601q-27 0 -46 19t-19 45t19 44.5t46 18.5t46 -18.5t19 -44.5t-19 -45t-46 -19zM197 601q-27 0 -46 19t-19 45t19 44.5t46 18.5q26 0 45 -18.5t19 -44.5t-19 -45t-45 -19z"/>
    <glyph glyph-name="icircumflex" unicode="î" horiz-adv-x="259" d="M129 677l-96 -99h-94l117 140h144l117 -140h-94zM83 500h93v-500h-93v500z"/>
    <glyph glyph-name="ocircumflex" unicode="ô" horiz-adv-x="577" d="M289 438q-64 0 -99.5 -48.5t-35.5 -136.5q0 -42 9 -77t26.5 -60.5t42.5 -39.5t57 -14t57.5 14t42.5 39.5t26 60.5t9 77q0 88 -35 136.5t-100 48.5zM284 -10q-50 0 -91.5 17.5t-71.5 51t-46.5 81.5t-16.5 109q0 63 17 111.5t48 81.5t74.5 50.5t95.5 17.5q51 0 93 -17.5 t71.5 -50t45.5 -79.5t16 -107q0 -58 -16 -107t-46 -84.5t-73.5 -55t-99.5 -19.5zM287 677l-96 -99h-94l117 140h144l117 -140h-94z"/>
    <glyph glyph-name="ugrave" unicode="ù" horiz-adv-x="579" d="M173 169q0 -29 7 -48t18.5 -30.5t26 -16t30.5 -4.5q48 0 81 27t51 69q9 23 12.5 48t3.5 50v236h93v-500h-93v92h-2q-50 -102 -160 -102q-34 0 -63.5 9.5t-51.5 31t-34 56t-12 85.5v328h93v-331zM120 718h132l102 -140h-96z"/>
    <glyph glyph-name="ucircumflex" unicode="û" horiz-adv-x="579" d="M173 169q0 -29 7 -48t18.5 -30.5t26 -16t30.5 -4.5q48 0 81 27t51 69q9 23 12.5 48t3.5 50v236h93v-500h-93v92h-2q-50 -102 -160 -102q-34 0 -63.5 9.5t-51.5 31t-34 56t-12 85.5v328h93v-331zM287 677l-96 -99h-94l117 140h144l117 -140h-94z"/>
    <glyph glyph-name="OE" unicode="Œ" horiz-adv-x="1019" d="M522 605q-29 11 -68 16.5t-81 5.5q-97 0 -153 -68t-56 -209q0 -57 12.5 -107t38.5 -88t67.5 -60t98.5 -22q32 0 65 2.5t76 15.5v514zM522 0q-26 -6 -64 -9.5t-84 -3.5q-81 0 -140.5 26t-98.5 74t-58 115t-19 148q0 174 83 268.5t233 94.5q49 0 82.5 -4t65.5 -9h423v-86 h-323v-213h296v-86h-296v-229h329v-86h-429z"/>
    <glyph glyph-name="glyph4" horiz-adv-x="300"/>
    <glyph glyph-name="glyph5" horiz-adv-x="374"/>
    <glyph glyph-name="glyph6"/>
    <glyph glyph-name="glyph7" horiz-adv-x="579"/>
    <glyph glyph-name="glyph31"/>
    <glyph glyph-name="glyph32"/>
    <glyph glyph-name="glyph33"/>
    <glyph glyph-name="glyph34" horiz-adv-x="431"/>
    <glyph glyph-name="glyph46" horiz-adv-x="622"/>
    <glyph glyph-name="glyph62" horiz-adv-x="323"/>
    <glyph glyph-name="glyph63" horiz-adv-x="281"/>
    <glyph glyph-name="glyph64" horiz-adv-x="323"/>
    <glyph glyph-name="glyph65" horiz-adv-x="519" d="M287 677l-96 -99h-94l117 140h144l117 -140h-94z"/>
    <glyph glyph-name="glyph66" horiz-adv-x="493"/>
    <glyph glyph-name="glyph67" horiz-adv-x="519" d="M124 718h132l102 -140h-96z"/>
    <glyph glyph-name="glyph94" horiz-adv-x="321"/>
    <glyph glyph-name="glyph95" horiz-adv-x="269"/>
    <glyph glyph-name="glyph96" horiz-adv-x="307"/>
    <glyph glyph-name="glyph97" horiz-adv-x="587"/>
    <glyph glyph-name="glyph98" horiz-adv-x="638"/>
    <glyph glyph-name="glyph99" horiz-adv-x="638"/>
    <glyph glyph-name="glyph100" horiz-adv-x="650"/>
    <glyph glyph-name="glyph102" horiz-adv-x="761"/>
    <glyph glyph-name="glyph103" horiz-adv-x="766"/>
    <glyph glyph-name="glyph104" horiz-adv-x="720"/>
    <glyph glyph-name="glyph105" horiz-adv-x="520"/>
    <glyph glyph-name="glyph108" horiz-adv-x="520"/>
    <glyph glyph-name="glyph109" horiz-adv-x="520"/>
    <glyph glyph-name="glyph110" horiz-adv-x="520"/>
    <glyph glyph-name="glyph116" horiz-adv-x="259"/>
    <glyph glyph-name="glyph117" horiz-adv-x="259"/>
    <glyph glyph-name="glyph119" horiz-adv-x="259"/>
    <glyph glyph-name="glyph120" horiz-adv-x="583"/>
    <glyph glyph-name="glyph121" horiz-adv-x="577"/>
    <glyph glyph-name="glyph122" horiz-adv-x="577"/>
    <glyph glyph-name="glyph124" horiz-adv-x="577"/>
    <glyph glyph-name="glyph125" horiz-adv-x="577"/>
    <glyph glyph-name="glyph126" horiz-adv-x="579"/>
    <glyph glyph-name="glyph129" horiz-adv-x="579"/>
    <glyph glyph-name="glyph130" horiz-adv-x="524"/>
    <glyph glyph-name="glyph131" horiz-adv-x="385"/>
    <glyph glyph-name="glyph132" horiz-adv-x="496"/>
    <glyph glyph-name="glyph133" horiz-adv-x="534"/>
    <glyph glyph-name="glyph134" horiz-adv-x="538"/>
    <glyph glyph-name="glyph136" horiz-adv-x="589"/>
    <glyph glyph-name="glyph137" horiz-adv-x="586"/>
    <glyph glyph-name="glyph138" horiz-adv-x="426"/>
    <glyph glyph-name="glyph139" horiz-adv-x="828"/>
    <glyph glyph-name="glyph140" horiz-adv-x="622"/>
    <glyph glyph-name="glyph141" horiz-adv-x="519" d="M177 578l102 140h132l-138 -140h-96z"/>
    <glyph glyph-name="glyph142" horiz-adv-x="441" d="M302 601q-27 0 -46 19t-19 45t19 44.5t46 18.5t46 -18.5t19 -44.5t-19 -45t-46 -19zM124 601q-27 0 -46 19t-19 45t19 44.5t46 18.5q26 0 45 -18.5t19 -44.5t-19 -45t-45 -19z"/>
    <glyph glyph-name="glyph143"/>
    <glyph glyph-name="glyph144" horiz-adv-x="896"/>
    <glyph glyph-name="glyph145" horiz-adv-x="766"/>
    <glyph glyph-name="glyph146" horiz-adv-x="981"/>
    <glyph glyph-name="glyph147"/>
    <glyph glyph-name="glyph148"/>
    <glyph glyph-name="glyph149"/>
    <glyph glyph-name="glyph150" horiz-adv-x="574"/>
    <glyph glyph-name="glyph151" horiz-adv-x="583"/>
    <glyph glyph-name="glyph152" horiz-adv-x="576"/>
    <glyph glyph-name="glyph153" horiz-adv-x="555"/>
    <glyph glyph-name="glyph154" horiz-adv-x="721"/>
    <glyph glyph-name="glyph155" horiz-adv-x="589"/>
    <glyph glyph-name="glyph156" horiz-adv-x="377"/>
    <glyph glyph-name="glyph157" horiz-adv-x="400"/>
    <glyph glyph-name="glyph158" horiz-adv-x="423"/>
    <glyph glyph-name="glyph159" horiz-adv-x="808"/>
    <glyph glyph-name="glyph160" horiz-adv-x="577"/>
    <glyph glyph-name="glyph161" horiz-adv-x="431"/>
    <glyph glyph-name="glyph162" horiz-adv-x="300"/>
    <glyph glyph-name="glyph163"/>
    <glyph glyph-name="glyph164"/>
    <glyph glyph-name="glyph165" horiz-adv-x="417"/>
    <glyph glyph-name="glyph166"/>
    <glyph glyph-name="glyph167" horiz-adv-x="607"/>
    <glyph glyph-name="glyph171" horiz-adv-x="265"/>
    <glyph glyph-name="glyph173" horiz-adv-x="638"/>
    <glyph glyph-name="glyph174" horiz-adv-x="766"/>
    <glyph glyph-name="glyph175" horiz-adv-x="946"/>
    <glyph glyph-name="glyph177" horiz-adv-x="583"/>
    <glyph glyph-name="glyph181" horiz-adv-x="259"/>
    <glyph glyph-name="glyph183"/>
    <glyph glyph-name="glyph184" horiz-adv-x="584"/>
    <glyph glyph-name="glyph185" horiz-adv-x="504"/>
    <glyph glyph-name="glyph186" horiz-adv-x="560"/>
    <glyph glyph-name="glyph187" horiz-adv-x="281"/>
    <glyph glyph-name="glyph188" horiz-adv-x="301"/>
    <glyph glyph-name="glyph189" horiz-adv-x="301"/>
    <glyph glyph-name="glyph190" horiz-adv-x="613"/>
    <glyph glyph-name="glyph191" horiz-adv-x="641"/>
    <glyph glyph-name="glyph192" horiz-adv-x="594"/>
    <glyph glyph-name="glyph193" horiz-adv-x="259"/>
    <glyph glyph-name="glyph194" horiz-adv-x="203"/>
    <glyph glyph-name="glyph195" horiz-adv-x="374"/>
    <glyph glyph-name="glyph196" horiz-adv-x="1013"/>
    <glyph glyph-name="glyph197" horiz-adv-x="638"/>
    <glyph glyph-name="glyph198" horiz-adv-x="595"/>
    <glyph glyph-name="glyph199" horiz-adv-x="638"/>
    <glyph glyph-name="glyph200" horiz-adv-x="595"/>
    <glyph glyph-name="glyph202" horiz-adv-x="280"/>
    <glyph glyph-name="glyph204" horiz-adv-x="280"/>
    <glyph glyph-name="glyph205" horiz-adv-x="280"/>
    <glyph glyph-name="glyph206" horiz-adv-x="766"/>
    <glyph glyph-name="glyph207" horiz-adv-x="766"/>
    <glyph glyph-name="glyph208" horiz-adv-x="766"/>
    <glyph glyph-name="glyph209" horiz-adv-x="720"/>
    <glyph glyph-name="glyph210" horiz-adv-x="720"/>
    <glyph glyph-name="glyph211" horiz-adv-x="720"/>
    <glyph glyph-name="glyph212" horiz-adv-x="259"/>
    <glyph glyph-name="glyph213" horiz-adv-x="500"/>
    <glyph glyph-name="glyph214" horiz-adv-x="557"/>
    <glyph glyph-name="glyph215" horiz-adv-x="500"/>
    <glyph glyph-name="glyph216" horiz-adv-x="500"/>
    <glyph glyph-name="glyph217" horiz-adv-x="500"/>
    <glyph glyph-name="glyph218" horiz-adv-x="517"/>
    <glyph glyph-name="glyph219" horiz-adv-x="557"/>
    <glyph glyph-name="glyph220" horiz-adv-x="725"/>
    <glyph glyph-name="glyph221" horiz-adv-x="519"/>
    <glyph glyph-name="glyph222" horiz-adv-x="500"/>
    <glyph glyph-name="glyph223" horiz-adv-x="299"/>
    <glyph glyph-name="glyph224" horiz-adv-x="661"/>
    <glyph glyph-name="glyph225" horiz-adv-x="321"/>
    <glyph glyph-name="glyph226" horiz-adv-x="317"/>
    <glyph glyph-name="glyph227" horiz-adv-x="657"/>
    <glyph glyph-name="glyph228" horiz-adv-x="658"/>
    <glyph glyph-name="glyph229" horiz-adv-x="71"/>
    <glyph glyph-name="glyph230" horiz-adv-x="661"/>
    <glyph glyph-name="glyph231" horiz-adv-x="661"/>
  </font>
</defs>
</svg>
