<?xml version="1.0" encoding="UTF-8" standalone="no"?>
<svg
   xmlns:dc="http://purl.org/dc/elements/1.1/"
   xmlns:cc="http://creativecommons.org/ns#"
   xmlns:rdf="http://www.w3.org/1999/02/22-rdf-syntax-ns#"
   xmlns:svg="http://www.w3.org/2000/svg"
   xmlns="http://www.w3.org/2000/svg"
   xmlns:sodipodi="http://sodipodi.sourceforge.net/DTD/sodipodi-0.dtd"
   xmlns:inkscape="http://www.inkscape.org/namespaces/inkscape"
   sodipodi:docname="Logo_RER_A.svg"
   inkscape:version="1.0beta1 (76ce730, 2019-10-19)"
   xml:space="preserve"
   enable-background="new 0 0 329.829 164.546"
   viewBox="0 0 344.99999 169.99999"
   height="170"
   width="345"
   y="0px"
   x="0px"
   id="Calque_1"
   version="1.1"><metadata
   id="metadata12"><rdf:RDF><cc:Work
       rdf:about=""><dc:format>image/svg+xml</dc:format><dc:type
         rdf:resource="http://purl.org/dc/dcmitype/StillImage" /><dc:title></dc:title></cc:Work></rdf:RDF></metadata><defs
   id="defs10">
	
	
	
</defs><sodipodi:namedview
   inkscape:document-rotation="0"
   inkscape:current-layer="Calque_1"
   inkscape:window-maximized="0"
   inkscape:window-y="23"
   inkscape:window-x="0"
   inkscape:cy="560"
   inkscape:cx="400"
   inkscape:zoom="0.35"
   showgrid="false"
   id="namedview8"
   inkscape:window-height="788"
   inkscape:window-width="1440"
   inkscape:pageshadow="2"
   inkscape:pageopacity="0"
   guidetolerance="10"
   gridtolerance="10"
   objecttolerance="10"
   borderopacity="1"
   bordercolor="#666666"
   pagecolor="#ffffff" />

<path
   d="M 170,85.422557 C 170,38.250155 130.46949,0 85.215446,0 38.255399,0 0,38.250155 0,85.422557 0,131.95234 38.255399,170 85.215446,170 132.17549,170 170,132.37696 170,85.422557 m -11.68886,0 c 0,39.951743 -32.94313,72.889463 -73.095694,72.889463 -40.376795,0 -73.533817,-32.73109 -73.533817,-72.889463 0,-40.577833 33.155989,-73.946374 73.533817,-73.946374 40.152564,-0.001 73.095694,33.574137 73.095694,73.946374 z M 145.99092,71.821193 c 0,-11.471017 -8.50315,-16.783453 -16.79241,-16.783453 h -15.93062 c -2.97801,0 -4.68608,2.340075 -4.68608,4.88678 v 49.93193 c 0,2.98373 2.98318,4.47249 5.74316,4.47249 3.17951,0 5.7318,-1.48876 5.7318,-4.47249 V 90.522164 h 4.88655 l 9.5778,21.472906 c 0.84008,1.68919 2.33013,2.33387 4.03096,2.33387 3.40271,0 8.28512,-3.18415 6.38176,-7.01816 l -9.14691,-19.123525 c 5.51894,-2.764698 10.20399,-7.651478 10.20399,-16.366062 z m -43.14195,36.982487 c 0,-2.55704 -1.70187,-5.31347 -4.668517,-5.31347 H 82.023535 V 88.825739 h 13.390733 c 2.971815,0 4.669552,-2.550837 4.669552,-4.885747 0,-2.546704 -1.696704,-4.891945 -4.669552,-4.891945 H 82.023535 V 65.656412 h 14.884907 c 2.966648,0 4.668518,-2.97236 4.668518,-5.306236 0,-2.546705 -1.69567,-5.312436 -4.668518,-5.312436 H 75.229487 c -2.978015,0 -4.673685,2.340075 -4.673685,4.88678 v 49.7253 c 0,2.97856 2.971815,4.46216 5.738,4.46216 h 21.887685 c 2.965613,0 4.667483,-2.96719 4.667483,-5.3083 z M 63.743154,71.821193 c 0,-11.471017 -8.497985,-16.783453 -16.776907,-16.783453 H 31.028392 c -2.976982,0 -4.668519,2.340075 -4.668519,4.88678 v 49.93193 c 0,2.98373 2.966649,4.47249 5.726634,4.47249 3.196044,0 5.738,-1.48876 5.738,-4.47249 V 90.522164 h 4.892748 l 9.561266,21.472906 c 0.850419,1.68919 2.339426,2.33387 4.035096,2.33387 3.398574,0 8.291322,-3.18415 6.371422,-7.01816 L 53.554665,88.187255 c 5.530304,-2.764698 10.188489,-7.651478 10.188489,-16.366062 z m 70.352236,1.281101 c 0,7.226854 -6.59358,8.922246 -10.63074,8.922246 h -3.40891 V 64.811299 h 4.04233 c 5.31847,0 9.99732,2.340075 9.99732,8.290995 z m -82.243628,0 c 0,7.226854 -6.593585,8.922246 -10.623515,8.922246 h -3.40374 V 64.811299 h 4.041296 c 5.312274,0 9.985959,2.340075 9.985959,8.290995 z"
   fill="#164B9C"
   id="path7487"
   inkscape:connector-curvature="0"
   style="opacity:1;stroke-width:1.03323;stop-opacity:1" /><g
   transform="matrix(1.033897,0,0,1.0337959,3.9894794,-0.0564347)"
   id="g3760"
   style="opacity:1;stop-opacity:1"><path
     style="fill:#d35e3c;fill-opacity:1"
     inkscape:connector-curvature="0"
     d="M 329.83025,82.264752 C 329.80694,36.86001 293.00319,0.07012832 247.61176,0.05459205 202.21313,0.04404958 165.43046,36.86001 165.40382,82.264752 c 0.01,45.425828 36.78212,82.184638 82.1913,82.232358 45.40807,-0.0166 82.22403,-36.80653 82.23513,-82.232358"
     id="path7491" /><path
     style="fill:#ffffff"
     inkscape:connector-curvature="0"
     d="m 318.27071,82.264752 c 0,-39.038201 -31.65459,-70.663384 -70.69834,-70.712767 -39.04209,0.01554 -70.7111,31.674566 -70.70001,70.674481 -0.0322,39.097574 31.65792,70.729414 70.70001,70.761594 39.02599,5.6e-4 70.69834,-31.66347 70.69834,-70.723308"
     id="path7493" /><path
     style="fill:#d35e3c;fill-opacity:1"
     inkscape:connector-curvature="0"
     d="m 209.52849,117.57037 18.56528,-0.0166 4.93388,-14.93757 h 29.08611 l 4.89281,14.93757 17.13595,0.0166 -27.82989,-78.764997 h -18.82996 l -27.95418,78.764997 m 27.73002,-27.925891 8.14766,-25.107718 c 1.09475,-3.365267 1.9892,-7.42911 1.9892,-9.882731 l 0.25856,-0.02108 c -0.01,2.675567 0.95937,6.766045 1.99309,9.942102 l 8.08385,25.042244 -20.47236,0.02719 z"
     id="path7495" /></g>
</svg>
