<?xml version="1.0" encoding="UTF-8" standalone="no"?>
<svg xmlns:dc="http://purl.org/dc/elements/1.1/" xmlns:cc="http://creativecommons.org/ns#" xmlns:rdf="http://www.w3.org/1999/02/22-rdf-syntax-ns#" xmlns:svg="http://www.w3.org/2000/svg" xmlns="http://www.w3.org/2000/svg" xmlns:sodipodi="http://sodipodi.sourceforge.net/DTD/sodipodi-0.dtd" xmlns:inkscape="http://www.inkscape.org/namespaces/inkscape" width="65.358849mm" height="30.691669mm" viewBox="0 0 65.358849 30.691669" version="1.1" id="svg4458" inkscape:version="1.0beta2 (6465177, 2020-02-22)" sodipodi:docname="IDF RER D logo.svg">
  <defs id="defs4452"/>
  <sodipodi:namedview id="base" pagecolor="#ffffff" bordercolor="#666666" borderopacity="1.0" inkscape:pageopacity="0.0" inkscape:pageshadow="2" inkscape:zoom="4.5578301" inkscape:cx="123.41399" inkscape:cy="58.047591" inkscape:document-units="mm" inkscape:current-layer="layer1" inkscape:document-rotation="0" showgrid="false" fit-margin-top="0" fit-margin-left="0" fit-margin-right="0" fit-margin-bottom="0" inkscape:window-width="1280" inkscape:window-height="967" inkscape:window-x="0" inkscape:window-y="0" inkscape:window-maximized="0"/>
  <metadata id="metadata4455">
    <rdf:RDF>
      <cc:Work rdf:about="">
        <dc:format>image/svg+xml</dc:format>
        <dc:type rdf:resource="http://purl.org/dc/dcmitype/StillImage"/>
        <dc:title/>
      </cc:Work>
    </rdf:RDF>
  </metadata>
  <g inkscape:label="Calque 1" inkscape:groupmode="layer" id="layer1" transform="translate(-182.04864,-216.58552)">
    <path inkscape:connector-curvature="0" id="path3070" style="fill:#000000;fill-opacity:1;fill-rule:nonzero;stroke:none;stroke-width:4.79609" d="m 191.40828,229.78297 c 0,1.30378 -1.18958,1.6162 -1.91366,1.6162 h -0.61859 v -3.10787 h 0.72871 c 0.95439,0 1.80341,0.41737 1.80341,1.49167 m 14.84383,0 c 0,1.30378 -1.18959,1.6162 -1.91843,1.6162 h -0.60906 v -3.10787 h 0.7287 c 0.95983,0 1.79852,0.41737 1.79852,1.49167 m -12.69524,-0.22976 c 0,-2.06702 -1.53477,-3.02631 -3.03106,-3.02631 h -2.87771 c -0.53701,0 -0.84426,0.41738 -0.84426,0.87826 v 9.01663 c 0,0.53702 0.53701,0.8062 1.03596,0.8062 0.57508,0 1.03595,-0.26918 1.03595,-0.8062 v -3.48677 h 0.87826 l 1.73611,3.87043 0.72463,0.42145 c 0.6145,0 1.49642,-0.57507 1.15151,-1.26571 l -1.64992,-3.45319 c 0.9979,-0.49895 1.84175,-1.38128 1.84175,-2.95439 m 7.05988,6.67608 c 0,-0.46088 -0.30726,-0.95846 -0.84835,-0.95846 h -2.91128 v -2.64264 h 2.41247 c 0.53701,0 0.84835,-0.46088 0.84835,-0.88777 0,-0.46088 -0.31134,-0.87826 -0.84835,-0.87826 h -2.41247 v -2.42199 h 2.68587 c 0.53702,0 0.84427,-0.53701 0.84427,-0.95438 0,-0.46496 -0.30725,-0.95983 -0.84427,-0.95983 h -3.91842 c -0.53293,0 -0.83882,0.41737 -0.83882,0.87825 v 8.9783 c 0,0.53701 0.53701,0.8062 1.03595,0.8062 h 3.94725 c 0.54245,0 0.84834,-0.53701 0.84834,-0.95982 m 7.78409,-6.67622 c 0,-2.06702 -1.53477,-3.0263 -3.03119,-3.0263 h -2.87757 c -0.53294,0 -0.83883,0.41737 -0.83883,0.87825 v 9.01664 c 0,0.53701 0.53701,0.8062 1.03596,0.8062 0.571,0 1.03596,-0.26919 1.03596,-0.8062 v -3.48677 h 0.88233 l 1.72183,3.87043 0.73415,0.42145 c 0.60906,0 1.49643,-0.57508 1.14608,-1.26572 l -1.64516,-3.45319 c 0.99789,-0.49895 1.83698,-1.38128 1.83698,-2.95438"/>
    <path inkscape:connector-curvature="0" id="path3074" style="fill:#000000;fill-opacity:1;fill-rule:nonzero;stroke:none;stroke-width:4.79609" d="m 210.73895,240.3708 v -16.8774 c 0,-2.70981 -2.19658,-4.90652 -4.91128,-4.90652 h -16.87741 c -2.7098,0 -4.90638,2.19671 -4.90638,4.90652 v 16.8774 c 0,2.70981 2.19658,4.91128 4.90638,4.91128 h 16.87741 c 2.7147,0 4.91128,-2.20147 4.91128,-4.91128 m -4.91128,6.90639 h -16.87741 c -3.81292,0 -6.90162,-3.08871 -6.90162,-6.90639 v -16.8774 c 0,-3.81768 3.0887,-6.90638 6.90162,-6.90638 h 16.87741 c 3.81768,0 6.90638,3.0887 6.90638,6.90638 v 16.8774 c 0,3.81768 -3.0887,6.90639 -6.90638,6.90639"/>
    <path d="m 240.49612,247.2804 h -16.8784 c -3.81242,0 -6.90597,-3.09083 -6.90597,-6.90459 v -16.87706 c 0,-3.8138 3.09355,-6.90597 6.90597,-6.90597 h 16.8784 c 3.81377,0 6.90463,3.09217 6.90463,6.90597 v 16.87706 c 0,3.81376 -3.09086,6.90459 -6.90463,6.90459" style="fill:#0d8c5d;fill-opacity:1;fill-rule:nonzero;stroke:none;stroke-width:1.35384" id="path46688" inkscape:connector-curvature="0"/>
    <path d="m 230.32344,240.04911 h -4.58003 v -16.2529 h 4.74114 c 4.7439,0 9.85465,1.06004 9.85465,7.75886 0,7.11447 -5.04305,8.49404 -10.01576,8.49404 m 0.66883,-13.42204 h -1.65849 v 10.61416 h 1.77355 c 3.13146,0 5.52372,-1.19816 5.52372,-5.45598 0,-4.55843 -3.42931,-5.15818 -5.63878,-5.15818" style="fill:#ffffff;fill-opacity:1;fill-rule:nonzero;stroke:none;stroke-width:1.35384" id="path46692" inkscape:connector-curvature="0"/>
  </g>
</svg>