<?xml version="1.0" encoding="UTF-8" standalone="no"?>
<!-- Generator: Adobe Illustrator 15.1.0, SVG Export Plug-In . SVG Version: 6.00 Build 0)  -->

<svg
   xmlns:dc="http://purl.org/dc/elements/1.1/"
   xmlns:cc="http://creativecommons.org/ns#"
   xmlns:rdf="http://www.w3.org/1999/02/22-rdf-syntax-ns#"
   xmlns:svg="http://www.w3.org/2000/svg"
   xmlns="http://www.w3.org/2000/svg"
   xmlns:sodipodi="http://sodipodi.sourceforge.net/DTD/sodipodi-0.dtd"
   xmlns:inkscape="http://www.inkscape.org/namespaces/inkscape"
   version="1.1"
   id="Calque_1"
   x="0px"
   y="0px"
   width="331"
   height="164.54601"
   viewBox="0 0 330.99999 164.546"
   enable-background="new 0 0 329.829 164.546"
   xml:space="preserve"
   inkscape:version="0.91 r13725"
   sodipodi:docname="Logo_RER_C.svg"><metadata
     id="metadata12"><rdf:RDF><cc:Work
         rdf:about=""><dc:format>image/svg+xml</dc:format><dc:type
           rdf:resource="http://purl.org/dc/dcmitype/StillImage" /><dc:title /></cc:Work></rdf:RDF></metadata><defs
     id="defs10" /><sodipodi:namedview
     pagecolor="#ffffff"
     bordercolor="#666666"
     borderopacity="1"
     objecttolerance="10"
     gridtolerance="10"
     guidetolerance="10"
     inkscape:pageopacity="0"
     inkscape:pageshadow="2"
     inkscape:window-width="1280"
     inkscape:window-height="688"
     id="namedview8"
     showgrid="false"
     inkscape:zoom="0.63669355"
     inkscape:cx="216.74478"
     inkscape:cy="82.273003"
     inkscape:window-x="0"
     inkscape:window-y="1"
     inkscape:window-maximized="1"
     inkscape:current-layer="Calque_1" /><g
     id="g3400"
     transform="matrix(0.825,0,0,0.825,165.75,-0.45399475)"><circle
       id="circle3389"
       r="100"
       cy="100"
       cx="100"
       style="fill:#fcd946" /><circle
       id="circle3391"
       r="87.5"
       cy="100"
       cx="100"
       style="fill:#ffffff" /><path
       d="m 100,100 m 31.82,43.78 -5.4,-16.5 c -4.87,2.86 -11.78,5.19 -19.37,5.19 -15.16,0 -28.38,-11.73 -28.4,-31.77 -0.01,-15.25 6.83,-32.75 26.84,-32.73 6.16,0 13.08,1.79 19.4,5.22 l 6.93,-17.59 c -6.96,-3.16 -15.65,-5.57 -27.53,-5.6 -32.3,0 -47.75,24.41 -47.75,51.26 0.03,28.34 18.47,49.22 47.75,49.23 9.41,-0.03 20.57,-3.18 27.53,-6.71"
       id="C"
       inkscape:connector-curvature="0"
       style="fill:#fcd946" /></g><g
     id="g3471"
     transform="matrix(0.825,0,0,0.825,0.25,-0.45399475)"><circle
       id="circle3458"
       r="100"
       cy="100"
       cx="100"
       style="fill:#050d9e" /><circle
       id="circle3460"
       r="87.5"
       cy="100"
       cx="100"
       style="fill:#ffffff" /><path
       d="M 50,100 M 73.76,84.5 C 73.76,71 63.76,64.75 54,64.75 l -18.74,0 c -3.5,0 -5.51,2.76 -5.51,5.75 l 0,58.74 c 0,3.52 3.51,5.26 6.75,5.26 3.74,0 6.75,-1.75 6.75,-5.26 l 0,-22.74 5.75,0 11.26,25.26 c 0.99,1.99 2.74,2.75 4.75,2.75 4,0 9.75,-3.75 7.5,-8.26 l -10.76,-22.5 c 6.5,-3.25 12.01,-9 12.01,-19.25 m -14,1.5 c 0,8.5 -7.75,10.49 -12.5,10.49 l -4.01,0 0,-20.24 4.75,0 c 6.26,0 11.76,2.75 11.76,9.75"
       id="R1"
       inkscape:connector-curvature="0"
       style="fill:#050d9e" /><path
       d="m 100,100 m 21,28 c 0,-3.01 -2,-6.25 -5.49,-6.25 l -19.01,0 0,-17.25 15.76,0 c 3.49,0 5.49,-3 5.49,-5.75 0,-2.99 -1.99,-5.75 -5.49,-5.75 l -15.76,0 0,-15.76 17.51,0 c 3.49,0 5.49,-3.49 5.49,-6.24 0,-3 -2,-6.25 -5.49,-6.25 l -25.51,0 C 85,64.75 83,67.51 83,70.5 l 0,58.5 c 0,3.5 3.5,5.25 6.75,5.25 l 25.75,0 c 3.5,0 5.5,-3.49 5.5,-6.25"
       id="E"
       inkscape:connector-curvature="0"
       style="fill:#050d9e" /><path
       d="m 150,100 m 23.76,-15.5 c 0,-13.5 -10,-19.75 -19.76,-19.75 l -18.74,0 c -3.5,0 -5.51,2.76 -5.51,5.75 l 0,58.74 c 0,3.52 3.51,5.26 6.75,5.26 3.74,0 6.75,-1.75 6.75,-5.26 l 0,-22.74 5.75,0 11.26,25.26 c 0.99,1.99 2.74,2.75 4.75,2.75 4,0 9.75,-3.75 7.5,-8.26 l -10.76,-22.5 c 6.5,-3.25 12.01,-9 12.01,-19.25 m -14,1.5 c 0,8.5 -7.75,10.49 -12.5,10.49 l -4.01,0 0,-20.24 4.75,0 c 6.26,0 11.76,2.75 11.76,9.75"
       id="R2"
       inkscape:connector-curvature="0"
       style="fill:#050d9e" /></g></svg>